<svg width="191" height="75" viewBox="0 0 191 75" fill="none" xmlns="http://www.w3.org/2000/svg">
<g clip-path="url(#clip0_360_40144)">
<path d="M13.8608 73.5714C13.8608 73.5714 12.1032 74.7621 13.5412 75.0002L64.0041 67.1152L127.449 58.0396C127.449 58.0396 161.175 52.6286 162.933 52.2317C164.69 51.8348 166.621 50.5515 166.621 49.9958C166.621 49.4402 165.103 49.7312 165.183 50.3927C165.183 50.3927 165.196 51.3188 131.696 56.2006C113.016 58.926 92.3645 61.691 92.3645 61.691L47.5071 68.6102L13.8608 73.545V73.5714Z" fill="#003768"/>
<path d="M115.039 34.0403C115.918 37.2287 114.081 39.7688 114.081 39.7688C113.841 37.2949 115.039 34.0403 115.039 34.0403ZM190.547 11.0336C181.36 11.2982 162.294 15.6508 154.717 17.2384C147.128 18.826 126.091 24.3032 122.03 25.6261C117.969 26.9491 114.227 29.2908 113.801 29.9788C113.375 30.6667 113.695 31.4473 113.695 31.4473C113.269 31.3679 112.843 32.585 110.539 36.4085C108.249 40.2319 106.105 44.4125 106.105 44.4125C106.105 44.4125 106.531 42.6133 107.224 39.5307C107.916 36.4482 113.628 22.0805 113.628 22.0805C113.628 22.0805 116.251 14.6983 116.73 13.0049C117.21 11.3114 115.559 12.4228 115.505 13.0578C115.452 13.6928 114.973 14.7512 114.973 14.7512C114.067 16.3917 108.515 27.4915 106.478 31.8309C104.454 36.1836 103.615 36.6863 103.615 36.6863C102.617 36.6201 104.561 32.9952 105.04 32.4395C105.519 31.8839 105.519 30.9842 104.721 31.434C103.922 31.8839 101.352 35.6411 100.34 37.0303C99.3281 38.4062 99.4346 37.5595 99.4346 37.5595C99.7541 34.9003 100.819 34.3181 101.192 33.3656C101.565 32.4131 100.873 32.2014 100.287 33.0481C99.7009 33.8948 97.5173 36.7657 96.5453 37.6653C95.5866 38.5649 95.7464 38.0887 95.7464 38.0887C96.2257 36.4482 98.2629 33.9477 98.6357 33.2598C99.0085 32.5718 98.2096 32.5718 97.8901 32.8364C97.5705 33.101 94.9475 36.3423 93.3498 38.0357C91.752 39.7292 91.3126 39.6233 91.3126 39.6233C90.6735 38.2474 92.5376 35.6941 93.1234 35.1119C93.7093 34.5298 93.869 34.1594 93.1234 34.2652C92.3778 34.3711 89.4885 38.0357 87.6244 40.0467C85.747 42.0576 85.2144 41.7401 85.2677 40.6288C85.321 39.5175 87.6244 36.5937 88.2635 35.6411C88.9026 34.6886 88.2635 34.5298 87.8907 34.7415C87.5179 34.9532 83.6167 40.0467 82.2852 41.5813C80.9537 43.116 80.6342 42.481 80.6342 42.481C79.6222 40.9463 81.3265 37.7579 82.5116 36.2762C83.6832 34.7944 84.4821 33.5244 84.4821 33.5244C84.3756 32.0426 83.2039 33.2598 78.8766 39.2529C74.5493 45.246 73.4309 46.0398 73.4309 46.0398C71.8598 45.9075 74.4428 37.9696 75.0287 36.1174C75.6145 34.2652 77.8647 27.9943 78.0245 27.1476C78.1842 26.3009 77.1723 26.5655 77.1723 26.5655C75.468 30.4418 72.0994 35.4295 70.4883 38.0225C68.8906 40.6288 62.4196 51.1333 60.9283 53.5147C59.4371 55.9093 59.2773 55.2081 59.2773 55.2081C57.9725 53.4882 61.3677 43.7907 62.1 40.5097C62.6193 38.2077 72.5654 11.3247 63.7777 3.90273C55.5891 -3.00324 43.526 0.608503 34.1258 3.94242C24.7256 7.28958 13.8474 13.7854 7.84246 23.4168C2.25027 32.4527 -0.559141 39.1603 0.0932819 47.0849C1.02531 58.4626 7.12347 64.4028 16.2441 64.8394C24.4992 65.2363 35.4706 61.2277 40.0109 57.9996C44.5512 54.7583 46.3088 51.4243 46.6816 50.6173C47.0544 49.8235 46.2555 50.2469 46.2555 50.2469C44.924 52.0991 44.2849 53.4882 41.2891 55.9754C36.2428 60.1825 25.591 62.8152 21.7431 63.4503C17.8951 64.0853 7.88241 64.8526 3.59506 55.896C0.918796 50.2998 -0.252901 43.5923 3.36871 34.7415C7.38976 24.9117 12.1698 18.5349 19.9056 12.5286C25.8706 7.89815 40.5967 2.16962 47.4272 1.42875C54.4973 0.661422 60.9949 1.64043 64.6298 7.10436C68.2648 12.5683 65.3222 26.9888 63.6179 32.4263C61.8604 38.0357 58.8113 48.5402 58.1722 52.152C57.5331 55.7637 58.332 58.0393 60.196 56.0283C62.0601 54.0042 68.0517 44.1347 69.1702 42.1767C70.2886 40.2054 75.255 32.4395 75.255 32.4395C75.255 32.4395 72.9649 39.7953 72.3657 42.0708C71.7799 44.3596 71.9929 47.8523 73.8037 46.8468C75.6145 45.8413 79.3559 40.4303 79.3559 40.4303C78.7701 41.33 79.0364 43.9362 80.5809 43.5129C82.1254 43.0895 84.3224 40.5891 84.3224 40.5891C84.0561 41.33 83.63 43.0366 85.7604 42.4413C87.8907 41.8592 90.0344 38.8295 90.0344 38.8295C89.7148 39.9408 90.5137 40.8537 91.8452 40.3642C93.1767 39.8879 94.8943 37.8108 94.8943 37.8108C94.4149 38.5517 94.5215 39.663 95.5334 39.3984C96.5586 39.1338 98.3028 37.1758 98.3028 37.1758C98.0365 38.0754 98.5691 39.5572 99.8473 38.6575C101.126 37.7579 102.63 35.1516 102.63 35.1516C102.204 35.9983 102.364 38.4591 103.376 37.9034C104.055 37.533 104.601 37.7976 107.011 32.6512C109.421 27.5048 113.309 20.2416 113.309 20.2416C113.309 20.2416 108.981 31.2224 107.863 34.5695C106.744 37.9167 105.187 43.751 104.388 47.0453C103.589 50.3395 105.879 48.1036 106.744 45.5106C107.597 42.9043 112.829 34.5298 113.309 33.6302C113.788 32.7306 114.054 33.1539 113.948 33.5244C113.841 33.8948 113.202 36.554 112.936 37.877C112.669 39.2 112.563 41.6475 113.628 41.5946C114.693 41.5416 115.332 39.2661 115.332 39.2661C117.037 35.231 115.758 33.2201 115.279 32.4527C114.8 31.6854 114.693 31.0504 114.693 31.0504C115.918 27.6503 130.711 24.2105 135.837 22.7685C140.963 21.3397 154.744 18.363 162.373 16.5637C170.003 14.7644 187.365 11.629 189.655 11.4702C191.945 11.3114 190.507 11.0469 190.507 11.0469" fill="#003768"/>
</g>
<defs>
<clipPath id="clip0_360_40144">
<rect width="191" height="75" fill="white"/>
</clipPath>
</defs>
</svg>
