<svg width="114" height="5" viewBox="0 0 114 5" fill="none" xmlns="http://www.w3.org/2000/svg">
<path id="Vector" d="M110.85 2.62866H1.44629L1.53844 2.35238H110.896M110.85 2.62866C110.85 2.62866 110.85 2.65167 110.85 2.67469M110.85 2.62866C110.85 2.65168 110.85 2.67469 110.85 2.67469M110.85 2.67469C110.85 3.31932 111.38 3.84884 112.048 3.84884M110.85 2.67469C110.85 3.31932 111.403 3.84884 112.048 3.84884M112.048 3.84884C112.716 3.84884 113.246 3.31932 113.246 2.67469M112.048 3.84884C112.693 3.84884 113.246 3.34234 113.246 2.67469M113.246 2.67469C113.246 2.03007 112.693 1.47754 112.048 1.47754M113.246 2.67469C113.246 2.00704 112.716 1.47754 112.048 1.47754M112.048 1.47754C111.495 1.47754 111.057 1.84589 110.896 2.35238M112.048 1.47754C111.495 1.47754 111.034 1.84589 110.896 2.35238" stroke="url(#paint0_linear_439_43790)" stroke-miterlimit="10"/>
<defs>
<linearGradient id="paint0_linear_439_43790" x1="0.363541" y1="2.65168" x2="114.398" y2="2.65168" gradientUnits="userSpaceOnUse">
<stop stop-color="#0083CA"/>
<stop offset="0.29" stop-color="#005892"/>
<stop offset="0.55" stop-color="#003767"/>
<stop offset="0.66" stop-color="#00467B"/>
<stop offset="0.89" stop-color="#006EAF"/>
<stop offset="1" stop-color="#0083CA"/>
</linearGradient>
</defs>
</svg>
