<svg width="100%" height="100%" viewBox="0 0 820 150" fill="none" xmlns="http://www.w3.org/2000/svg">
<g opacity="0.5" clip-path="url(#clip0_32_48)">
<path d="M796.48 4.17024L802.19 4.17024L802.19 9.88025L796.48 9.88025L796.48 4.17024ZM783.88 9.88025L789.59 9.88025L789.59 4.17024L783.88 4.17024L783.88 9.88025ZM771.28 9.88025L776.99 9.88025L776.99 4.17024L771.28 4.17024L771.28 9.88025ZM758.68 9.88025L764.39 9.88025L764.39 4.17024L758.68 4.17024L758.68 9.88025ZM746.08 9.88024L751.79 9.88024L751.79 4.17024L746.08 4.17024L746.08 9.88024ZM733.48 9.88024L739.19 9.88024L739.19 4.17024L733.48 4.17024L733.48 9.88024ZM720.88 9.88024L726.59 9.88024L726.59 4.17024L720.88 4.17024L720.88 9.88024ZM708.28 9.88024L713.99 9.88024L713.99 4.17023L708.28 4.17023L708.28 9.88024ZM695.68 9.88024L701.39 9.88024L701.39 4.17023L695.68 4.17023L695.68 9.88024Z" fill="#007534"/>
<path d="M460.07 73.1902L460.07 83.8602L449.4 78.5202L460.07 73.1802L460.07 73.1902ZM433.81 78.5302L444.48 83.8702L444.48 73.2002L433.81 78.5402L433.81 78.5302ZM418.22 78.5302L428.89 83.8702L428.89 73.2002L418.22 78.5402L418.22 78.5302ZM402.63 78.5302L413.3 83.8702L413.3 73.2002L402.63 78.5402L402.63 78.5302ZM387.04 78.5302L397.71 83.8702L397.71 73.2002L387.04 78.5402L387.04 78.5302Z" fill="#007534"/>
<path d="M462.41 62.3202C463.51 62.3202 464.43 61.5602 464.69 60.5402L489.72 60.5402L536.8 107.46L536.97 107.63L607.59 107.63L631.13 131.17L846.55 131.17C846.81 132.19 847.72 132.95 848.83 132.95C850.13 132.95 851.18 131.9 851.18 130.6C851.18 129.3 850.13 128.25 848.83 128.25C847.73 128.25 846.81 129.01 846.55 130.03L631.6 130.03L608.06 106.49L537.44 106.49L490.36 59.5702L490.19 59.4002L464.69 59.4002C464.43 58.3802 463.52 57.6202 462.41 57.6202C461.11 57.6202 460.06 58.6702 460.06 59.9702C460.06 61.2702 461.11 62.3202 462.41 62.3202Z" fill="#007534"/>
<path d="M438.31 56.4602C439.41 56.4602 440.33 55.7002 440.59 54.6802L495.58 54.6802L542.66 101.59L542.83 101.76L613.45 101.76L636.99 125.3L938.54 125.3C938.8 126.32 939.71 127.08 940.82 127.08C942.12 127.08 943.17 126.03 943.17 124.73C943.17 123.43 942.12 122.38 940.82 122.38C939.72 122.38 938.8 123.14 938.54 124.16L637.46 124.16L613.92 100.62L543.3 100.62L496.22 53.7002L496.05 53.5302L440.59 53.5302C440.33 52.5102 439.42 51.7502 438.31 51.7502C437.01 51.7502 435.96 52.8002 435.96 54.1002C435.96 55.4002 437.01 56.4502 438.31 56.4502L438.31 56.4602Z" fill="#007534"/>
<path d="M384.39 50.5902C385.49 50.5902 386.41 49.8302 386.67 48.8102L501.44 48.8102L548.52 95.7302L548.69 95.9002L619.31 95.9002L642.85 119.44L955 119.44C955.26 120.46 956.17 121.22 957.28 121.22C958.58 121.22 959.63 120.17 959.63 118.87C959.63 117.57 958.58 116.52 957.28 116.52C956.18 116.52 955.26 117.28 955 118.3L643.32 118.3L619.78 94.7602L549.16 94.7602L502.08 47.8402L501.91 47.6702L386.66 47.6702C386.4 46.6502 385.49 45.8902 384.38 45.8902C383.08 45.8902 382.03 46.9402 382.03 48.2402C382.03 49.5402 383.08 50.5902 384.38 50.5902L384.39 50.5902Z" fill="#007534"/>
<path d="M369.47 44.7302C370.57 44.7302 371.49 43.9702 371.75 42.9502L507.31 42.9502L554.39 89.8702L554.56 90.0402L625.18 90.0402L648.72 113.58L938.54 113.58C938.8 114.6 939.71 115.36 940.82 115.36C942.12 115.36 943.17 114.31 943.17 113.01C943.17 111.71 942.12 110.66 940.82 110.66C939.72 110.66 938.8 111.42 938.54 112.44L649.19 112.44L625.65 88.9002L555.03 88.9002L507.95 41.9802L507.78 41.8102L371.75 41.8102C371.49 40.7902 370.58 40.0302 369.47 40.0302C368.17 40.0302 367.12 41.0802 367.12 42.3802C367.12 43.6802 368.17 44.7302 369.47 44.7302Z" fill="#007534"/>
<path d="M295.35 38.8602C296.45 38.8602 297.37 38.1002 297.63 37.0802L513.18 37.0802L560.26 84.0002L560.43 84.1702L631.05 84.1702L654.59 107.71L918.65 107.71C918.91 108.73 919.82 109.49 920.93 109.49C922.23 109.49 923.28 108.44 923.28 107.14C923.28 105.84 922.23 104.79 920.93 104.79C919.83 104.79 918.91 105.55 918.65 106.57L655.06 106.57L631.52 83.0302L560.9 83.0302L513.82 36.1102L513.65 35.9402L297.63 35.9402C297.37 34.9202 296.46 34.1602 295.35 34.1602C294.05 34.1602 293 35.2102 293 36.5102C293 37.8102 294.05 38.8602 295.35 38.8602Z" fill="#007534"/>
<path d="M661.34 49.3702C662.44 49.3702 663.36 48.6102 663.62 47.5902L754.11 47.5902L785.9 79.3802L927.26 79.3802C927.52 80.4002 928.43 81.1602 929.54 81.1602C930.84 81.1602 931.89 80.1102 931.89 78.8102C931.89 77.5102 930.84 76.4602 929.54 76.4602C928.44 76.4602 927.52 77.2202 927.26 78.2402L786.37 78.2402L754.58 46.4602L663.61 46.4602C663.35 45.4402 662.44 44.6802 661.33 44.6802C660.03 44.6802 658.98 45.7302 658.98 47.0302C658.98 48.3302 660.03 49.3802 661.33 49.3802L661.34 49.3702Z" fill="#007534"/>
<path d="M674.83 40.5602C675.93 40.5602 676.85 39.8002 677.11 38.7802L767.6 38.7802L799.39 70.5702L927.26 70.5702C927.52 71.5902 928.43 72.3502 929.54 72.3502C930.84 72.3502 931.89 71.3002 931.89 70.0002C931.89 68.7002 930.84 67.6502 929.54 67.6502C928.44 67.6502 927.52 68.4102 927.26 69.4302L799.87 69.4302L768.08 37.6502L677.11 37.6502C676.85 36.6302 675.94 35.8702 674.83 35.8702C673.53 35.8702 672.48 36.9202 672.48 38.2202C672.48 39.5202 673.53 40.5702 674.83 40.5702L674.83 40.5602Z" fill="#007534"/>
<path d="M634.23 27.0302C635.33 27.0302 636.25 26.2702 636.51 25.2502L840.62 25.2502L854.16 38.7902L967.86 38.7903C968.12 39.8103 969.03 40.5703 970.14 40.5703C971.44 40.5703 972.49 39.5202 972.49 38.2202C972.49 36.9202 971.44 35.8703 970.14 35.8703C969.04 35.8703 968.12 36.6303 967.86 37.6503L854.62 37.6502L841.08 24.1102L636.5 24.1102C636.24 23.0902 635.33 22.3302 634.22 22.3302C632.92 22.3302 631.87 23.3802 631.87 24.6802C631.87 25.9802 632.92 27.0302 634.22 27.0302L634.23 27.0302Z" fill="#007534"/>
<path d="M322.94 4.69013C324.04 4.69013 324.96 3.93013 325.22 2.91013L541.63 2.91015L605.26 66.3202L605.43 66.4902L700.79 66.4902L732.58 98.2802L873.94 98.2802C874.2 99.3002 875.11 100.06 876.22 100.06C877.52 100.06 878.57 99.0102 878.57 97.7102C878.57 96.4102 877.52 95.3602 876.22 95.3602C875.12 95.3602 874.2 96.1202 873.94 97.1402L733.05 97.1402L701.26 65.3602L605.9 65.3602L542.27 1.95014L542.1 1.78014L325.22 1.78013C324.96 0.760129 324.05 0.000126998 322.94 0.000126901C321.64 0.000126788 320.59 1.05013 320.59 2.35013C320.59 3.65014 321.64 4.70012 322.94 4.70012L322.94 4.69013Z" fill="#007534"/>
<path d="M2.36011 44.7003C3.46011 44.7003 4.3801 43.9403 4.64011 42.9203L208.75 42.9203L222.29 56.4603L335.99 56.4603C336.25 57.4803 337.16 58.2403 338.27 58.2403C339.57 58.2403 340.62 57.1903 340.62 55.8903C340.62 54.5903 339.57 53.5403 338.27 53.5403C337.17 53.5403 336.25 54.3003 335.99 55.3203L222.75 55.3203L209.21 41.7803L4.63013 41.7803C4.37012 40.7603 3.46012 40.0003 2.35013 40.0003C1.05014 40.0003 0.000123573 41.0503 0.000123459 42.3503C0.000123346 43.6503 1.05014 44.7003 2.35013 44.7003L2.36011 44.7003Z" fill="#007534"/>
</g>
<defs>
<clipPath id="clip0_32_48">
<rect width="820" height="150" fill="white" transform="translate(820 150) rotate(-180)"/>
</clipPath>
</defs>
</svg>
