<svg width="574" height="128" viewBox="0 0 574 128" fill="none" xmlns="http://www.w3.org/2000/svg">
<g clip-path="url(#clip0_360_40216)">
<mask id="mask0_360_40216" style="mask-type:luminance" maskUnits="userSpaceOnUse" x="416" y="0" width="106" height="106">
<path d="M453.966 102.512C459.169 102.274 464.426 102.146 469.665 102.146C474.904 102.146 480.253 102.274 485.528 102.512C489.064 102.676 492.599 102.878 496.098 103.17C486.06 103.079 476.424 103.024 467.229 103.024C462.319 103.024 457.392 103.024 452.482 103.061C449.515 103.061 446.566 103.116 443.653 103.134C447.097 102.859 450.522 102.658 453.966 102.493M465.085 98.4318C465.085 97.2975 465.03 96.1631 465.012 95.0471C465.14 95.0471 465.25 95.0837 465.378 95.102C465.58 95.102 465.818 95.1385 466.02 95.1568C466.239 95.1568 466.478 95.1934 466.716 95.1934H467.229L467.155 98.4318C467.155 99.2002 467.21 99.9504 467.265 100.719H465.03L465.085 98.4684V98.4318ZM448.745 97.4987H448.764V97.4621C448.764 96.4376 448.727 95.3398 448.691 94.2604C448.672 93.4187 448.654 92.5954 448.636 91.644C449.24 91.7355 449.845 91.7904 450.449 91.827C450.797 91.8636 451.163 91.8819 451.548 91.8819C451.823 91.8819 452.098 91.8819 452.409 91.8819C452.391 93.437 452.372 94.9556 452.372 96.4742C452.354 97.9927 452.372 99.5113 452.372 101.066C451.75 101.103 451.109 101.121 450.486 101.176C449.881 101.213 449.258 101.231 448.654 101.268L448.727 97.4621L448.745 97.4987ZM490.566 101.304C489.888 101.268 489.174 101.231 488.441 101.176L488.551 96.8035V96.7486C488.551 95.6142 488.514 94.4067 488.478 93.1809C488.478 92.2295 488.423 91.3147 488.423 90.2536C489.027 90.3816 489.852 90.4182 490.474 90.4731C490.859 90.4731 491.28 90.5097 491.683 90.528C492.013 90.528 492.343 90.528 492.654 90.5646C492.654 92.3942 492.618 94.2055 492.618 95.9985C492.618 97.7915 492.636 99.5844 492.654 101.414C491.976 101.359 491.28 101.323 490.548 101.268M468.822 90.9122C469.005 90.5829 469.207 90.3084 469.408 90.034C469.61 89.7779 469.811 89.5217 470.031 89.2839C470.214 89.0643 470.453 88.8631 470.654 88.6801C470.874 88.5154 471.112 88.3325 471.332 88.2044C471.46 88.1312 471.57 88.0581 471.698 88.0215C471.826 87.9666 471.955 87.93 472.083 87.8934L472.284 87.8202C472.174 88.0215 472.083 88.2227 471.955 88.424C471.735 88.7533 471.46 89.0826 471.167 89.4119C470.782 89.8145 470.343 90.1987 469.885 90.5646C469.537 90.839 469.17 91.1135 468.804 91.333V90.9305L468.822 90.9122ZM466.148 93.1809C465.928 93.1809 465.69 93.1443 465.47 93.126C465.305 93.126 465.177 93.0894 465.012 93.0711C465.03 91.9551 465.049 90.8573 465.03 89.7596C465.03 88.6801 465.03 87.6189 465.012 86.5029V86.2468C465.397 86.2468 465.8 86.2468 466.184 86.1919C466.514 86.1919 466.862 86.137 467.21 86.1004C467.192 87.2164 467.137 88.3508 467.137 89.4668H467.155L467.21 92.3027L467.082 92.3942L466.917 92.5405C466.771 92.6503 466.661 92.7601 466.551 92.8699C466.441 92.9613 466.368 93.0528 466.294 93.1626H466.148V93.1809ZM465.012 84.6367L465.195 84.8014H465.012V84.6367ZM451.695 90.5097C451.383 90.5097 451.054 90.4731 450.742 90.4731C450.138 90.4365 449.533 90.3816 448.947 90.3084C448.855 90.3084 448.764 90.2719 448.672 90.2536C448.672 88.552 448.709 86.9054 448.709 85.2771C448.709 83.6488 448.691 82.0021 448.654 80.3189C448.947 80.3189 449.258 80.3189 449.533 80.3189C449.918 80.3189 450.284 80.2823 450.651 80.264C450.999 80.264 451.347 80.2091 451.676 80.1908C451.933 80.1542 452.189 80.1359 452.427 80.0993C452.409 80.758 452.391 81.7277 452.372 82.6242V82.6974C452.372 83.9049 452.318 84.966 452.318 85.0575V85.0941L452.446 90.5463C452.208 90.5463 451.951 90.5463 451.713 90.5463M462.539 81.5996C462.136 81.2703 461.751 80.941 461.403 80.5567C461.11 80.2457 460.854 79.9164 460.616 79.5688C460.487 79.3675 460.396 79.1663 460.286 78.965L460.487 79.0382C460.726 79.1114 460.982 79.1846 461.239 79.3675C461.458 79.5139 461.696 79.6602 461.916 79.8432C462.118 80.0079 462.356 80.2091 462.539 80.447C462.722 80.6116 462.869 80.8129 463.034 81.0141C463.18 81.1971 463.308 81.3984 463.455 81.5996V82.2766C463.125 82.057 462.832 81.8375 462.521 81.5813M491.848 89.0643C491.5 89.0643 491.152 89.0643 490.786 89.0277C490.126 88.9911 489.467 88.9363 488.789 88.8448C488.734 88.8448 488.533 88.8082 488.459 88.7899C488.478 86.8871 488.496 85.0575 488.496 83.2279C488.496 81.3984 488.496 79.5871 488.441 77.7026C488.771 77.7026 489.101 77.7026 489.43 77.666C489.852 77.666 490.273 77.6294 490.676 77.6111C491.061 77.6111 491.445 77.5562 491.83 77.5196C492.105 77.483 492.379 77.4647 492.691 77.4099C492.691 78.16 492.654 79.2577 492.618 80.2823V80.4287C492.599 81.7277 492.563 82.862 492.563 82.9718V83.0084L492.691 89.1009C492.416 89.1009 492.105 89.1009 491.83 89.0643M466.184 84.2342C466.02 84.0513 465.836 83.8683 465.653 83.7219C465.543 83.6304 465.452 83.539 465.323 83.4475C465.232 83.3743 465.159 83.3011 465.067 83.2645L465.104 81.563V81.5264C465.104 81.1788 465.104 80.7763 465.085 80.3372C465.085 79.9164 465.067 79.4956 465.067 79.0565C465.067 78.4893 465.03 77.9587 465.012 77.3733H467.21C467.192 78.5991 467.174 79.8066 467.174 80.9958C467.174 82.1851 467.174 83.4292 467.174 84.6733L466.917 84.7099L466.606 84.7465C466.459 84.5635 466.331 84.3806 466.184 84.2342ZM492.196 75.9279C492.343 75.8364 492.489 75.7632 492.654 75.6717V75.9279C492.471 75.9645 492.288 75.9828 492.086 76.0011L492.215 75.9279H492.196ZM465.195 75.3607C465.36 75.1046 465.543 74.8301 465.745 74.574C466.038 74.2264 466.386 73.897 466.807 73.586C467.229 73.2933 467.705 73.0005 468.236 72.7078L468.273 72.6712C468.786 72.3602 469.299 72.0126 469.83 71.5735C470.361 71.171 470.874 70.7136 471.423 70.2013C471.771 69.872 472.12 69.5243 472.468 69.1584L472.687 68.9206C471.643 71.2441 470.05 73.5677 467.888 75.8913H464.902C464.975 75.7083 465.067 75.5071 465.159 75.3241M448.691 73.4945H448.709V73.4397C448.709 72.5249 448.672 71.4454 448.636 70.4025C448.599 69.6158 448.581 68.8291 448.581 68.0241H452.354C452.336 69.8171 452.318 71.5735 452.318 73.3299C452.318 75.0863 452.318 76.861 452.354 78.654C452.098 78.7089 451.805 78.7455 451.53 78.782C451.182 78.8186 450.815 78.8369 450.467 78.8552L450.009 78.8918C449.643 78.8918 449.295 78.9284 448.947 78.9467H448.581L448.691 73.5128V73.4945ZM494.211 72.0126C494.486 71.665 494.761 71.3356 495.072 71.0246C495.365 70.6953 495.658 70.4025 495.988 70.1464C496.355 69.8171 496.739 69.5243 497.124 69.2682C497.509 69.012 497.893 68.7742 498.296 68.5912C498.516 68.4632 498.736 68.39 498.956 68.3351C499.157 68.2619 499.377 68.207 499.56 68.1704C499.817 68.1155 500.091 68.0241 500.348 67.9509C500.439 67.9143 500.531 67.896 500.604 67.8411C500.385 68.3168 500.091 68.7742 499.762 69.2133C499.304 69.7988 498.791 70.3476 498.205 70.8599C497.582 71.4454 496.867 71.9577 496.135 72.4334C495.512 72.8359 494.852 73.2201 494.211 73.5677V72.0492V72.0126ZM460.469 67.8228L460.066 67.2922C460.341 67.4569 460.616 67.6399 460.909 67.8228C461.44 68.1887 461.99 68.5912 462.502 68.9938C463.217 69.5426 463.895 70.1647 464.517 70.7867C465.104 71.3722 465.672 71.9943 466.203 72.6346C465.965 72.8176 465.708 73.0005 465.507 73.1835C465.25 73.4214 464.994 73.6592 464.792 73.9153C464.701 74.0251 464.572 74.2081 464.426 74.391L464.261 74.6289C463.437 71.7747 461.77 69.5426 460.487 67.8411M469.866 69.3414C469.976 68.8291 470.105 68.2802 470.269 67.6947L472.193 66.2128L472.138 66.286C471.955 66.597 471.771 66.908 471.588 67.2191C471.259 67.7496 470.929 68.2985 470.581 68.8291C470.306 69.2682 469.995 69.7073 469.702 70.1464C469.738 69.8903 469.793 69.6158 469.866 69.3414ZM466.734 71.482C466.569 71.299 466.404 71.1161 466.221 70.8965C466.423 70.494 466.716 70.0183 467.045 69.4511C467.412 68.8474 467.87 68.1339 468.383 67.3288C468.731 66.78 469.097 66.2128 469.518 65.5907L469.848 65.0601C469.628 65.7188 469.427 66.3409 469.262 66.908C468.987 67.8045 468.786 68.6095 468.639 69.3597C468.493 70.0732 468.419 70.7136 468.364 71.2807C468.254 71.3722 468.144 71.4454 468.035 71.5369C467.888 71.6101 467.778 71.7015 467.632 71.793L467.32 71.9577L467.174 72.0309C467.027 71.8479 466.881 71.6649 466.734 71.482ZM488.514 70.0732C488.514 69.0303 488.478 67.8594 488.441 66.6702C488.404 65.792 488.386 64.9321 488.368 64.0173H492.636C492.599 65.7554 492.581 67.4569 492.581 69.1584C492.581 70.8599 492.581 72.6163 492.599 74.3544C492.105 74.5923 491.628 74.8484 491.189 75.1412C490.731 75.4339 490.31 75.7815 489.925 76.1474C489.76 76.1474 489.632 76.1474 489.467 76.1474C489.247 76.1474 489.009 76.1474 488.807 76.1474H488.386L488.514 70.0732ZM465.14 69.7988C464.994 69.6524 464.866 69.5243 464.701 69.3963C464.572 68.5912 464.463 67.8045 464.298 66.9995C464.151 66.1945 463.986 65.4078 463.803 64.6027C463.711 64.1819 463.62 63.7428 463.492 63.3037V63.2123C463.968 63.9075 464.426 64.6027 464.884 65.2614C465.507 66.2128 466.093 67.091 466.624 67.9509C466.331 68.4083 466.093 68.8291 465.855 69.195C465.69 69.4877 465.525 69.7622 465.36 70.0366L465.14 69.7988ZM488.386 61.8584C488.386 61.8584 488.551 61.9864 488.606 62.023C488.752 62.1694 488.899 62.2975 489.046 62.4255L489.155 62.5353H488.386V61.8584ZM466.313 65.3529C466.294 64.621 466.276 63.9258 466.294 63.2306C466.313 62.5536 466.349 61.8584 466.404 61.1997C466.441 60.8338 466.478 60.4496 466.532 60.102C466.734 61.035 466.935 61.9315 467.119 62.828C467.357 64.0356 467.558 65.1699 467.723 66.286L467.338 66.8714C467.027 66.3957 466.697 65.9017 466.349 65.3712M448.745 60.5777H448.764V60.5411C448.764 59.5165 448.727 58.3273 448.691 57.1746V57.1197C448.654 56.2598 448.636 55.3999 448.636 54.4851H452.409C452.391 56.5343 452.372 58.5468 452.372 60.5777C452.372 62.6085 452.372 64.6027 452.409 66.6702H448.636L448.745 60.5777ZM484.869 58.0894C484.118 57.5222 483.422 56.9002 482.781 56.2232C482.249 55.6561 481.792 55.0523 481.425 54.4302C481.15 53.9545 480.894 53.4972 480.729 53.0215C480.821 53.0581 480.894 53.0946 480.967 53.1312C481.205 53.241 481.48 53.3325 481.718 53.4057C481.92 53.4789 482.121 53.552 482.323 53.6435C482.524 53.7167 482.744 53.8265 482.946 53.9545C483.33 54.1924 483.678 54.4302 484.045 54.723C484.393 55.0157 484.741 55.345 485.071 55.6927C485.382 56.0403 485.693 56.3879 485.986 56.7904C486.28 57.1563 486.573 57.5588 486.829 58.0162V59.4433C486.151 59.0225 485.492 58.5651 484.851 58.0711M490.218 61.8767C489.998 61.6388 489.76 61.4193 489.504 61.1997C489.32 61.0533 489.137 60.907 488.954 60.7606C488.771 60.6508 488.624 60.5411 488.441 60.413L488.533 55.711V55.6744C488.533 54.54 488.496 53.241 488.459 51.9237C488.423 50.9357 488.404 49.9478 488.386 48.9049H492.654C492.618 51.2468 492.599 53.4972 492.599 55.6927C492.599 57.8882 492.618 60.1934 492.654 62.4987H490.749C490.584 62.2609 490.401 62.0596 490.2 61.8401M438.799 47.3497C439.44 46.7826 440.099 46.3435 440.759 46.0507C441.4 45.7763 442.059 45.6116 442.719 45.6116C443.378 45.6116 444.038 45.7214 444.752 45.9958C445.467 46.2703 446.181 46.6545 446.914 47.2217C447.756 47.862 448.636 48.6853 449.515 49.7099C450.339 50.6613 451.182 51.759 452.024 53.0215H448.178C447.976 52.5824 447.72 52.1433 447.427 51.7407C447.115 51.2834 446.767 50.8625 446.364 50.46C446.071 50.1307 445.741 49.8197 445.393 49.5269C445.228 49.3806 445.082 49.2708 444.917 49.1244C445.173 49.161 445.448 49.2342 445.705 49.2891C446.199 49.4355 446.694 49.6184 447.207 49.838L448.013 50.2039L447.482 49.5452C447.243 49.2342 446.639 48.85 445.998 48.539C445.393 48.2462 444.715 48.0084 444.203 47.9718C441.491 47.7157 438.799 48.539 436.161 50.4783C437.022 49.1793 437.901 48.1548 438.762 47.368M450.87 49.655C450.174 48.7951 449.497 48.0633 448.782 47.4412C450.028 45.3006 451.328 43.7455 452.757 42.8124C453.252 42.483 453.728 42.2269 454.259 42.0439C454.772 41.861 455.267 41.7512 455.816 41.7146C456.879 41.6597 458.015 41.8793 459.205 42.3916C459.81 42.6477 460.414 42.9953 461.037 43.3978C461.66 43.8003 462.301 44.276 462.96 44.8249C463.07 44.9347 463.18 45.0262 463.308 45.1359L463.51 45.3189L464.096 45.8678L464.005 45.8129C463.821 45.7214 463.638 45.6299 463.455 45.5384C463.29 45.4836 463.144 45.3738 462.979 45.3006L462.502 45.0628C461.678 44.6968 460.909 44.4041 460.194 44.1846C459.462 43.9467 458.766 43.8003 458.106 43.7089C456.714 43.5442 455.523 43.7089 454.461 44.1663C453.417 44.6419 452.537 45.4104 451.841 46.4898L451.292 47.3131L452.153 46.746C452.318 46.6362 452.464 46.4898 452.647 46.2886C453.014 45.9044 453.527 45.3738 454.424 45.0262L454.369 45.0811C454.149 45.3372 453.93 45.6116 453.746 45.9227C453.288 46.6728 453.014 47.6242 452.83 48.7768C452.684 49.7465 452.647 50.826 452.647 52.0518C452.043 51.1736 451.438 50.3686 450.834 49.655M475.618 42.9953C476.223 42.2452 476.827 41.6048 477.432 41.056C478.146 40.4339 478.861 39.9582 479.593 39.6289C480.308 39.3179 481.04 39.1532 481.773 39.1532C482.506 39.1532 483.275 39.2813 484.045 39.5923C484.832 39.885 485.638 40.3424 486.463 40.9645C487.415 41.678 488.386 42.5928 489.357 43.7272C490.291 44.7883 491.225 46.0324 492.196 47.4595H487.837C487.617 46.9472 487.324 46.4715 487.012 46.0141C486.664 45.5202 486.261 45.0262 485.822 44.5871C485.474 44.2029 485.125 43.8735 484.741 43.5442C484.539 43.3795 484.356 43.1966 484.155 43.0319C484.466 43.0868 484.777 43.1783 485.107 43.2515C485.675 43.3978 486.225 43.6174 486.792 43.8552L487.598 44.2211L487.067 43.5625C486.792 43.2149 486.133 42.7941 485.419 42.4464C484.759 42.1171 484.008 41.8793 483.44 41.8061C481.755 41.6414 480.07 41.861 478.403 42.4647C477.047 42.9404 475.728 43.6723 474.409 44.6419C474.794 44.0565 475.179 43.5076 475.563 43.0136M466.02 43.9101C466.313 43.3429 466.569 42.7026 466.789 42.0073C467.045 41.1474 467.247 40.2144 467.357 39.1898C467.448 38.3848 467.485 37.5249 467.485 36.6101C468.126 37.5432 468.767 38.4945 469.408 39.4459C469.317 39.7387 469.207 39.9948 469.115 40.2143C468.676 41.0743 468.236 41.8061 467.76 42.4464C467.302 43.0868 466.826 43.6174 466.349 44.0748C466.093 44.3126 465.818 44.5139 465.543 44.6968C465.726 44.4407 465.873 44.1846 466.038 43.9101M456.238 39.2996C456.677 38.769 457.172 38.3299 457.721 37.9274C458.234 37.5614 458.802 37.2687 459.425 37.0126C459.846 36.8479 460.304 36.7015 460.781 36.5918C460.194 37.1589 459.645 37.781 459.114 38.3848C458.472 39.1532 457.85 39.9399 457.282 40.7632C457.025 40.7266 456.787 40.7083 456.531 40.69C456.238 40.69 455.945 40.69 455.651 40.69C455.523 40.69 455.395 40.69 455.267 40.7266C455.542 40.2144 455.871 39.7387 456.238 39.2996ZM429.786 45.447C430.061 44.9347 430.317 44.3675 430.482 43.7455C430.739 42.8855 430.94 41.9342 431.032 40.9096C431.123 39.8667 431.142 38.7507 431.068 37.5249C431.032 37.1589 431.05 36.8479 431.105 36.5369C431.142 36.299 431.197 36.0795 431.288 35.8782C431.746 36.0612 432.204 36.2624 432.644 36.4637C433.102 36.6832 433.541 36.8845 433.963 37.1041C433.78 37.5432 433.651 37.9823 433.505 38.4579C433.358 38.9702 433.267 39.4825 433.157 39.9582C432.955 40.8181 432.772 41.6048 432.516 42.1171C432.131 42.8673 431.728 43.5442 431.325 44.1114C430.904 44.6785 430.482 45.1725 430.024 45.575C429.823 45.758 429.621 45.941 429.401 46.069C429.548 45.8678 429.658 45.6665 429.768 45.447M444.239 38.6226C443.525 38.092 442.755 37.6163 441.968 37.1955C441.345 36.8479 440.685 36.5369 440.026 36.2441C439.66 36.0795 439.293 35.9514 438.909 35.805C439.275 35.805 439.641 35.8416 439.989 35.8965C440.631 36.0063 441.29 36.2258 441.894 36.5369C442.627 36.9028 443.342 37.4334 444.019 38.092C444.349 38.4214 444.661 38.769 444.972 39.1715C444.734 38.9702 444.477 38.7873 444.221 38.6226M447.5 46.5081C447.005 46.1422 446.547 45.8312 446.053 45.575C445.595 45.3189 445.155 45.1176 444.697 44.9896C444.148 43.9467 443.433 42.9587 442.572 41.9891C441.693 41.0194 440.649 40.068 439.422 39.1715C438.396 38.4031 437.26 37.6712 435.978 36.9577C435.043 36.4454 434.054 35.9514 432.992 35.4574C434.311 35.6221 435.611 35.8965 436.839 36.2258C438.432 36.7015 439.934 37.3053 441.327 38.0554C444.294 39.6655 446.822 41.9891 448.874 45.0079C448.691 45.2823 448.471 45.575 448.288 45.8678C448.123 46.1422 447.958 46.4167 447.775 46.7094L447.5 46.4898V46.5081ZM490.786 43.654C489.98 42.7026 489.192 41.861 488.459 41.184C489.137 39.9948 489.833 38.9702 490.566 38.1286C491.317 37.2321 492.086 36.5369 492.892 36.0063C493.442 35.6221 493.991 35.3476 494.559 35.1464C495.146 34.9451 495.713 34.8171 496.318 34.7988C496.904 34.7439 497.527 34.7988 498.15 34.9268C498.791 35.0549 499.45 35.2745 500.11 35.5489C501.136 36.0063 502.235 36.6467 503.334 37.5066C504.121 38.092 504.909 38.7873 505.733 39.5557C504.671 38.9885 503.645 38.4762 502.693 38.1103C501.319 37.5432 500.055 37.2138 498.901 37.0858C497.38 36.9028 496.025 37.0858 494.871 37.5797C493.698 38.092 492.746 38.9519 491.958 40.1229L491.409 40.9462L492.27 40.379C492.453 40.2692 492.618 40.0863 492.819 39.885C493.259 39.4276 493.827 38.8056 494.889 38.4214L494.761 38.5494C494.523 38.8239 494.285 39.1349 494.083 39.4825V39.5191C493.79 40.1961 493.46 41.4219 493.222 42.977C493.057 44.0199 492.947 45.2091 492.929 46.4349C492.233 45.4653 491.519 44.5322 490.804 43.6723M461.916 42.8124C461.129 42.2635 460.359 41.8427 459.608 41.5134C459.37 41.4036 459.114 41.3121 458.875 41.2389C458.711 41.184 458.582 41.1291 458.418 41.0926C459.077 40.1595 459.791 39.2813 460.542 38.4397C461.367 37.5432 462.228 36.665 463.144 35.8599C463.565 35.5123 463.986 35.1647 464.408 34.8171C464.774 34.5426 465.159 34.2499 465.543 33.9755L466.129 34.7439V34.9268C466.129 35.0183 466.129 35.0915 466.148 35.183C466.221 36.482 466.203 37.7078 466.111 38.8056C466.001 39.885 465.836 40.8913 465.562 41.7695C465.232 42.8673 464.756 43.8003 464.151 44.5688C463.4 43.9101 462.667 43.3246 461.935 42.8307M466.496 33.3351L466.587 33.2802L466.679 33.5729L466.496 33.3351ZM467.705 48.2645C467.338 47.8071 466.954 47.3863 466.587 46.9838C466.276 46.6362 465.983 46.3252 465.653 46.0141C465.873 45.8861 466.111 45.7397 466.331 45.6116C466.624 45.3921 466.935 45.1725 467.21 44.9164C467.76 44.4224 468.273 43.8369 468.786 43.1234C469.299 42.4282 469.756 41.6231 470.214 40.7266C470.379 40.3607 470.526 39.9582 470.672 39.5191C470.801 39.0434 470.892 38.5677 471.02 38.0737C471.185 37.3602 471.332 36.6101 471.57 35.9148C471.79 35.2379 472.065 34.5792 472.449 34.0121C473.75 33.4815 474.977 33.2436 476.15 33.2436C477.322 33.2436 478.458 33.4998 479.52 34.0486C480.399 34.506 481.224 35.1281 482.03 35.9331C482.707 36.6284 483.367 37.47 484.026 38.4579C483.733 38.3665 483.459 38.2933 483.147 38.2384C482.653 38.1469 482.176 38.092 481.7 38.092C480.784 38.092 479.905 38.3116 479.025 38.6775C478.146 39.0434 477.285 39.6106 476.479 40.3424C475.618 41.0926 474.757 42.0439 473.933 43.1966C473.109 44.3492 472.303 45.7031 471.515 47.24L469.775 50.6064L472.541 47.8254C474.153 46.2154 475.747 45.0262 477.322 44.2029C478.879 43.4161 480.454 42.977 482.011 42.9221C482.488 43.2698 482.964 43.6357 483.422 44.0382C483.916 44.4407 484.374 44.8798 484.796 45.3189C485.18 45.7031 485.51 46.1056 485.803 46.5264C486.096 46.9289 486.353 47.3497 486.554 47.7888V48.2096C486.554 49.3623 486.591 50.6613 486.628 51.9603V51.9969C486.664 53.1861 486.701 54.3754 486.701 55.711V55.9854L486.499 55.7292C486.298 55.4731 486.078 55.2353 485.877 54.9974C485.51 54.6132 485.125 54.229 484.722 53.918C484.319 53.5886 483.916 53.2959 483.495 53.0398C483.22 52.8751 482.964 52.747 482.689 52.6372C482.451 52.5275 482.213 52.4543 481.993 52.3628C481.663 52.253 481.352 52.1433 481.04 51.9603C480.729 51.7773 480.418 51.5029 480.07 51.0455L478.751 49.3257L478.916 51.3931C478.989 52.436 479.3 53.424 479.777 54.3388C480.271 55.2536 480.894 56.1318 481.645 56.9185C482.359 57.6869 483.202 58.4187 484.063 59.0774C484.906 59.7178 485.767 60.2849 486.628 60.8155L486.591 62.5353V64.0173C486.591 64.8772 486.628 65.7737 486.664 66.6702V66.7068C486.701 67.7862 486.737 68.8657 486.737 70.0732V70.2196L486.609 76.2023H486.573V76.9342V77.6843H486.609L486.719 82.9352L486.609 89.3388V89.6132V89.6498C486.609 90.217 486.609 90.8024 486.628 91.4245C486.628 92.0283 486.628 92.6137 486.664 93.2175C486.701 94.3152 486.737 95.413 486.737 96.7486V96.895L486.628 101.085C480.931 100.792 475.215 100.646 469.518 100.646H468.767C468.712 99.8589 468.657 99.0722 468.657 98.3586L468.731 94.6994H468.749V93.7115H468.731V92.5954C469.28 92.2661 469.848 91.8819 470.398 91.4794C470.965 91.0403 471.497 90.5829 471.973 90.0706C472.449 89.5583 472.871 88.9728 473.182 88.3874C473.493 87.7653 473.713 87.125 473.768 86.448L473.915 84.4721L472.669 86.1187C472.486 86.3931 472.284 86.5395 472.12 86.6493C471.936 86.759 471.753 86.8139 471.533 86.9054C471.387 86.9603 471.24 86.9969 471.075 87.0701C470.911 87.125 470.727 87.2347 470.526 87.3262C470.269 87.4909 469.995 87.6921 469.72 87.8934C469.463 88.1129 469.207 88.3508 468.969 88.6069C468.859 88.7167 468.767 88.8448 468.676 88.9545C468.676 88.3508 468.676 87.7653 468.712 87.1616C468.731 86.2833 468.767 85.46 468.676 84.5818L468.639 81.5081L468.712 76.6048C470.269 74.9216 471.552 73.2384 472.541 71.5369C473.548 69.8354 474.281 68.1155 474.739 66.414L475.398 63.8526L473.658 65.9749L473.274 66.4506L473.493 66.0664C473.823 65.4992 474.116 64.9138 474.409 64.3466L475.563 62.0962L473.475 63.7428L472.632 64.4015C472.01 64.8955 471.35 65.3895 470.709 65.9017C470.911 65.2614 471.167 64.5662 471.423 63.8526C471.79 62.8829 472.193 61.8401 472.651 60.7606L474.776 55.6012L471.588 60.3032C470.947 61.2546 470.343 62.1328 469.775 62.9744C469.353 63.6331 468.932 64.2551 468.547 64.8223C468.364 63.7611 468.163 62.6451 467.925 61.4924C467.65 60.1203 467.302 58.7115 466.917 57.2478L466.313 54.9974L465.763 57.2478C465.598 57.8699 465.47 58.5102 465.36 59.1689C465.25 59.8275 465.177 60.4862 465.122 61.1814C465.085 61.6571 465.049 62.1694 465.03 62.7C465.03 62.9927 465.03 63.2854 465.03 63.5782C464.682 63.0842 464.334 62.5902 464.005 62.0779C463.51 61.401 462.997 60.6325 462.411 59.8275L460.268 56.7904L461.348 60.2666C461.568 60.9985 461.788 61.7669 461.99 62.5353C462.191 63.3037 462.393 64.0722 462.576 64.8772C462.722 65.5175 462.851 66.1579 462.979 66.8165C463.089 67.2922 463.162 67.7862 463.254 68.2619C462.466 67.6399 461.623 67.0727 460.762 66.5238C459.883 65.9932 458.985 65.4992 458.015 65.0236L455.395 63.7794C456.018 64.4564 456.659 65.1699 457.282 65.8286C458.619 67.1276 460.194 69.2865 461.385 71.3539C462.539 73.3299 463.327 75.2143 463.235 76.1474V76.6963C463.235 77.3916 463.272 78.2698 463.29 79.1114V79.7517C463.07 79.4956 462.832 79.276 462.594 79.0748C462.338 78.8552 462.045 78.6723 461.788 78.5076C461.605 78.3978 461.422 78.3064 461.239 78.2515C461.055 78.1783 460.927 78.1234 460.781 78.0868C460.561 78.0319 460.378 77.9404 460.194 77.8307C460.011 77.7209 459.828 77.5745 459.627 77.3001L458.381 75.6535L458.527 77.6294C458.582 78.3064 458.784 78.965 459.114 79.5688C459.407 80.1725 459.828 80.7397 460.323 81.252C460.762 81.7277 461.257 82.1668 461.77 82.5693C462.264 82.9352 462.759 83.2828 463.272 83.6122L463.235 85.0941V86.2833C463.235 87.3628 463.272 88.4789 463.308 89.54L463.217 94.3152C463.217 94.4799 463.217 94.7909 463.217 95.1934L463.272 97.7915V98.5965L463.217 100.792C461.642 100.829 460.048 100.847 458.472 100.92C456.897 100.975 455.303 101.03 453.746 101.085L453.673 97.517L453.765 91.9917H453.801L453.655 85.2771V85.1307C453.655 84.9477 453.673 84.6184 453.673 84.2342L453.746 81.0507V79.8798H453.783C453.783 79.6968 453.783 79.4956 453.783 79.3126L453.691 73.5677L453.783 68.1521V66.78L453.691 60.6325C453.728 58.1626 453.765 55.6927 453.801 53.2044H453.765C453.71 51.7042 453.746 50.4052 453.893 49.3074C454.039 48.1731 454.296 47.24 454.717 46.5447C455.505 45.2274 456.769 44.7151 458.472 45.0079C459.077 45.1176 459.736 45.3006 460.414 45.5567C461.019 45.7763 461.642 46.0324 462.301 46.3435L461.403 47.0387L463.199 46.8009C463.766 47.1119 464.353 47.4412 464.939 47.8071C465.543 48.1731 466.203 48.5939 466.862 49.0695L470.324 51.448L467.687 48.3377L467.705 48.2645ZM434.311 34.6341C433.688 34.5243 433.01 34.4512 432.351 34.378C432.442 34.3231 432.516 34.2316 432.607 34.1767C433.45 33.5729 434.64 33.1338 435.978 32.8777C437.407 32.6033 439.037 32.5484 440.667 32.6947C442.243 32.8228 443.8 33.1521 445.155 33.6461C446.401 34.1035 447.5 34.7256 448.288 35.5123L448.416 35.6587V35.8233L448.581 35.8599C448.837 36.171 449.039 36.4637 449.185 36.793C449.368 37.1223 449.478 37.47 449.625 37.8542C449.771 38.2567 450.009 38.8239 450.303 39.4093C450.504 39.8301 450.76 40.2875 451.035 40.69C450.797 41.184 450.559 41.6963 450.376 42.2452C450.174 42.8124 449.991 43.3795 449.845 43.965L449.643 44.1846C449.478 43.9467 449.313 43.7272 449.148 43.5259C448.929 43.2515 448.709 42.9587 448.471 42.666C447.646 41.0377 446.694 39.5557 445.65 38.3848C444.642 37.1955 443.561 36.2807 442.462 35.7319C441.546 35.2745 440.594 34.9817 439.586 34.8903C438.854 34.8354 438.121 34.8537 437.352 34.9817C437.974 34.6524 438.469 34.5975 438.762 34.5426C438.964 34.5426 439.073 34.506 439.183 34.4329L439.531 34.1401L439.055 34.0852C438.231 34.0121 437.535 34.0486 436.949 34.2133C436.399 34.378 435.904 34.5975 435.52 34.9085C435.117 34.8354 434.714 34.7439 434.292 34.6707M453.618 38.5311C454.607 37.2321 455.743 36.0978 457.135 35.1647C458.069 34.506 459.132 33.9389 460.286 33.4632C461.422 32.9692 462.686 32.5667 464.005 32.2739L464.188 32.2191L465.287 31.9995C465.891 31.8897 466.441 31.8165 467.045 31.7434C466.697 31.9629 466.331 32.1825 465.983 32.402C465.763 32.5484 465.14 32.9509 465.012 33.0607C464.554 33.39 464.096 33.7193 463.657 34.0852C463.217 34.4329 462.777 34.7805 462.356 35.1647L462.136 35.3659C461.147 35.494 460.213 35.6953 459.352 36.0063C458.472 36.3173 457.685 36.7015 456.97 37.2138C456.274 37.7078 455.651 38.275 455.12 38.9702C454.589 39.6289 454.149 40.3607 453.783 41.184C453.49 41.2755 453.197 41.4036 452.885 41.5499C452.574 41.7146 452.244 41.9159 451.933 42.0988C451.805 42.172 451.713 42.2635 451.585 42.3733C452.116 40.9828 452.812 39.7021 453.636 38.5677M473.786 29.8589C475.179 29.6759 476.662 29.6393 478.165 29.7674C479.905 29.9321 481.645 30.2797 483.165 30.8469C484.539 31.3591 485.767 32.0544 486.646 32.9326C487.489 33.7742 487.8 34.5792 488.13 35.494C488.276 35.8782 488.404 36.2624 488.606 36.7015C488.807 37.0858 489.009 37.5066 489.284 37.964C488.972 38.3299 488.679 38.7507 488.368 39.1898C488.093 39.5923 487.818 40.0314 487.543 40.4888L487.214 40.2326C487.012 40.0863 486.792 39.9216 486.573 39.7935C486.389 39.6472 486.188 39.5374 486.005 39.4093C485.144 37.9091 484.265 36.6101 483.294 35.5855C482.304 34.5243 481.26 33.7193 480.161 33.1521C479.117 32.6033 478.018 32.2922 476.864 32.2191C476.04 32.1459 475.197 32.1825 474.354 32.3654C475.105 31.9446 475.692 31.8531 476.04 31.7982C476.259 31.7617 476.388 31.7617 476.498 31.6702L476.846 31.3774L476.369 31.3226C473.878 31.0664 472.376 31.9629 471.442 33.3168C470.526 34.6158 470.123 36.3539 469.775 37.9091C469.647 38.4762 469.537 39.0251 469.39 39.5191L468.639 36.5186C468.493 35.9148 468.346 35.3294 468.181 34.7439C468.016 34.195 467.888 33.6644 467.723 33.1339L467.76 33.0607C467.888 32.7862 468.053 32.5118 468.254 32.2739C468.511 32.1276 468.767 31.9995 468.987 31.8714C469.244 31.7251 469.518 31.597 469.775 31.4506L471.936 30.3346L471.405 30.3712C472.12 30.1333 472.926 29.9687 473.768 29.8589M496.849 32.2008C497.344 31.6153 497.893 31.1213 498.516 30.6822C499.084 30.2797 499.725 29.9321 500.421 29.6576C500.916 29.4564 501.429 29.2917 501.978 29.1636C501.337 29.8406 500.678 30.5175 500.091 31.2311C499.377 32.0727 498.699 32.9509 498.04 33.884C497.765 33.8291 497.472 33.8108 497.197 33.7925C496.867 33.7925 496.538 33.7925 496.226 33.7925C496.061 33.7925 495.933 33.8291 495.768 33.8474H495.75C496.061 33.2619 496.428 32.6947 496.849 32.2191M455.761 32.4569C456 31.4872 456.329 30.5907 456.751 29.7857C457.007 29.2917 457.318 28.7977 457.63 28.3586C457.96 27.9012 458.308 27.4438 458.637 27.0596C458.894 27.1511 459.169 27.2975 459.443 27.4804C459.791 27.7 460.176 27.9927 460.561 28.3403C461.019 28.7245 461.513 29.2002 462.026 29.7308C462.484 30.2065 462.96 30.7554 463.437 31.3591C462.118 31.6702 460.909 32.0727 459.755 32.5484C458.509 33.079 457.392 33.6827 456.366 34.3963C456.128 34.5609 455.871 34.7439 455.633 34.9268L455.34 35.183C455.413 34.2133 455.523 33.3168 455.743 32.4752M462.979 29.1453C462.429 28.5416 461.88 28.011 461.367 27.5719C460.652 26.9681 459.993 26.5107 459.37 26.218C459.553 26.0351 459.736 25.8521 459.92 25.6874C460.194 25.4313 460.433 25.2117 460.616 25.0654L461.587 24.2604C462.173 24.7543 462.759 25.413 463.327 26.1997C463.766 26.8401 464.206 27.5719 464.609 28.3952C464.994 29.1636 465.36 30.0053 465.708 30.92L465.25 30.9932C465.067 31.0298 464.884 31.0481 464.701 31.0847C464.096 30.3712 463.547 29.7125 462.997 29.1453M493.973 31.286C495.054 29.8223 496.355 28.5782 497.875 27.517C498.974 26.7486 500.201 26.0899 501.539 25.5411C502.839 24.9922 504.25 24.5531 505.77 24.2238L506.173 24.7726L506.576 25.2849C506.1 25.6325 505.642 25.9802 505.202 26.3278C504.689 26.7303 504.213 27.1328 503.718 27.5536L503.462 27.7915C502.345 27.9378 501.319 28.1574 500.366 28.4867C499.395 28.8343 498.534 29.2734 497.747 29.8223C496.959 30.3712 496.281 31.0115 495.677 31.7617C495.091 32.4935 494.614 33.2985 494.211 34.2133C493.863 34.3231 493.534 34.4694 493.204 34.6341C492.856 34.7988 492.489 35 492.16 35.2379C491.995 35.3476 491.848 35.4574 491.683 35.5855C492.27 33.9938 493.039 32.5484 493.991 31.286M442.994 26.2363C442.096 25.5594 441.162 24.9373 440.136 24.3884C439.458 24.0225 438.762 23.6566 438.029 23.3273L437.828 23.2358C438.799 23.4736 439.715 23.7664 440.576 24.114C442.023 24.6995 443.323 25.413 444.459 26.3095C444.569 26.6754 444.679 27.023 444.789 27.3889L444.935 27.828C444.331 27.2792 443.671 26.7486 442.994 26.2546M451.237 38.7873C451.035 38.3482 450.852 37.9457 450.724 37.598C450.577 37.2321 450.449 36.8662 450.266 36.5186C450.101 36.171 449.918 35.8233 449.661 35.5123C450.119 33.4632 450.651 31.5421 451.273 29.9138C451.878 28.2854 452.556 26.9315 453.252 25.9253C453.966 24.919 454.736 24.1506 455.56 23.6749C456.384 23.1809 457.245 22.9431 458.143 22.9613C459.095 22.9613 459.993 23.2175 460.854 23.7298C461.055 23.8761 461.275 24.0042 461.458 24.1872L460.341 24.7726C460.011 24.9373 459.681 25.1569 459.37 25.3398C459.095 25.5228 458.821 25.7057 458.546 25.907C458.124 25.7972 457.703 25.7789 457.337 25.8704C456.915 25.9253 456.549 26.1265 456.219 26.3827C456.054 26.529 455.908 26.6571 455.78 26.8584C455.633 27.023 455.523 27.2243 455.395 27.4255L455.102 27.9744L455.688 27.7C455.688 27.7 455.835 27.5902 455.926 27.4987C456.164 27.2426 456.622 26.8035 457.538 26.8401C457.209 27.1694 456.915 27.4987 456.622 27.8829C456.274 28.3586 455.945 28.8709 455.67 29.4015C455.157 30.3712 454.772 31.414 454.534 32.585C454.278 33.7193 454.149 34.9634 454.131 36.299C453.6 36.8113 453.142 37.3785 452.702 37.964C452.318 38.4579 451.969 39.0068 451.64 39.574C451.475 39.2996 451.347 39.0617 451.218 38.8056M489.668 36.1893C489.522 35.8599 489.412 35.5123 489.284 35.2013C488.899 34.1584 488.569 33.2436 487.543 32.2374C487.415 32.1093 487.287 31.9812 487.14 31.8714C487.012 31.7617 486.884 31.6519 486.756 31.5604C486.151 30.3712 485.345 29.2368 484.356 28.1391C483.385 27.0413 482.213 25.9802 480.821 24.9739C479.685 24.114 478.403 23.309 476.992 22.5405C475.93 21.9551 474.776 21.3513 473.53 20.8207C475.087 21.0037 476.553 21.2964 477.945 21.6989C479.722 22.2112 481.407 22.8882 482.964 23.7298C484.759 24.7177 486.408 25.9253 487.91 27.3524C489.375 28.7611 490.713 30.4078 491.903 32.2556C491.464 33.0058 491.079 33.7742 490.731 34.5975C490.438 35.2928 490.163 36.0246 489.943 36.7747C489.833 36.5735 489.76 36.3722 489.668 36.1893ZM496.355 24.5165C496.611 23.4553 496.977 22.4491 497.454 21.5526C497.747 20.9854 498.076 20.4548 498.443 19.9425C498.809 19.4119 499.194 18.918 499.579 18.4606C499.872 18.5886 500.165 18.735 500.513 18.9363C500.897 19.1924 501.319 19.5034 501.758 19.8876C502.271 20.3267 502.803 20.8573 503.389 21.4611C503.902 22.01 504.433 22.6137 505.001 23.2907C503.517 23.6566 502.143 24.0774 500.879 24.6263C499.524 25.1934 498.26 25.8887 497.124 26.6571C496.867 26.8401 496.593 27.0413 496.3 27.2609C496.171 27.3524 496.061 27.4438 495.933 27.5536C496.006 26.4742 496.135 25.4496 496.391 24.4982M448.874 24.0225C448.562 23.4187 448.251 22.8333 447.939 22.2844C447.903 21.6257 447.976 20.8939 448.031 20.1804C448.123 19.2107 448.214 18.241 448.086 17.3079C448.306 17.7653 448.471 18.1861 448.654 18.6435C449.002 19.6132 449.313 20.6195 449.551 21.6623C449.79 22.6869 449.991 23.7481 450.119 24.8275L449.661 25.5594C449.405 25.0288 449.13 24.5165 448.874 24.0225ZM508.298 25.5594L507.602 24.6263L507.107 23.9859C506.887 23.7115 506.393 23.1809 506.228 22.9065C505.972 22.5954 505.715 22.2661 505.44 21.9551C505.166 21.644 504.891 21.333 504.598 21.022C504.25 20.6378 503.92 20.2901 503.59 19.9608C503.26 19.6315 502.949 19.3388 502.638 19.0826C502.18 18.6984 501.758 18.3691 501.337 18.0946C501.026 17.8934 500.696 17.7104 500.385 17.5641C500.604 17.3445 500.824 17.125 501.007 16.942C501.3 16.6676 501.575 16.4297 501.777 16.2651L502.857 15.3503C503.535 15.9174 504.195 16.6493 504.799 17.5458C505.111 17.9849 505.404 18.4423 505.697 18.9545C505.972 19.4485 506.246 19.9974 506.539 20.5829C506.723 20.9488 506.887 21.3513 507.071 21.7538C507.236 22.1746 507.4 22.5954 507.565 23.0162C507.822 23.6749 508.06 24.3701 508.28 25.0654C508.371 25.3581 508.481 25.6508 508.554 25.9436L508.28 25.5594H508.298ZM439.037 22.5039C437.022 21.9185 434.75 21.5709 432.277 21.4611L427.789 21.2598L428.687 19.8693C430.501 17.125 432.241 15.3503 433.871 14.5452C435.446 13.7768 436.93 13.9781 438.341 15.0941C439.367 15.8991 440.356 17.1067 441.308 18.7716C442.206 20.3084 443.067 22.2295 443.891 24.5897C442.462 23.7115 440.85 22.9979 439.055 22.4857M491.335 29.2551C490.804 28.5965 490.273 27.9744 489.705 27.3889C490.2 25.1569 490.749 23.1992 491.39 21.516C492.05 19.7779 492.782 18.3508 493.588 17.2164C494.394 16.0821 495.274 15.2405 496.171 14.6916C497.069 14.1427 498.04 13.8683 499.047 13.9049H499.066C500.128 13.9049 501.154 14.1793 502.088 14.7831C502.326 14.9295 502.583 15.0941 502.803 15.2954L501.539 15.9723C501.154 16.1736 500.788 16.3931 500.439 16.6127C500.128 16.8322 499.817 17.0518 499.524 17.2713C499.029 17.1433 498.571 17.125 498.168 17.2164C497.71 17.2896 497.307 17.4909 496.941 17.7836C496.776 17.93 496.611 18.0946 496.446 18.2776C496.281 18.4606 496.153 18.6801 496.025 18.9363L495.732 19.4851L496.318 19.1924C496.318 19.1924 496.501 19.0826 496.574 18.9728C496.849 18.6984 497.38 18.1861 498.424 18.2227C498.058 18.5886 497.71 18.9911 497.399 19.4119C496.996 19.9242 496.648 20.4914 496.336 21.0952C495.787 22.1563 495.347 23.3273 495.054 24.6263C494.779 25.907 494.633 27.2792 494.614 28.7611C494.211 29.1636 493.827 29.5844 493.479 30.0236C493.185 30.3895 492.892 30.7737 492.618 31.1579C492.178 30.4992 491.72 29.8772 491.28 29.2917M435.007 12.5693C436.179 12.1485 437.388 12.2217 438.634 12.8071C440.246 13.539 441.913 15.0758 443.69 17.3811C445.448 19.7047 447.262 22.7967 449.13 26.6571C448.745 27.3158 448.361 27.9744 447.994 28.6697C447.683 29.2368 447.372 29.7857 447.06 30.3529C446.859 29.6027 446.657 28.8892 446.456 28.194C446.199 27.3524 445.961 26.5839 445.723 25.8338L445.796 25.7606L445.65 25.6508C444.697 22.7052 443.671 20.345 442.627 18.4789C441.565 16.5761 440.447 15.1856 439.257 14.2342C437.993 13.2279 436.674 12.8071 435.282 12.9718C434.586 13.045 433.889 13.2828 433.157 13.667C433.761 13.1731 434.384 12.8071 435.007 12.5876M448.544 34.1767C448.342 34.0303 448.123 33.884 447.921 33.7559L447.701 32.8777L447.482 32.0178C449.716 27.7549 451.915 24.0957 454.039 21.1318C456.146 18.1678 458.143 15.9174 460.011 14.4172C460.817 13.7768 461.605 13.2828 462.356 12.9169C462.96 12.6242 463.565 12.4046 464.133 12.2766L463.858 12.8437C462.173 13.4109 460.616 14.5269 459.187 16.137C457.776 17.747 456.494 19.9059 455.358 22.5771C454.827 22.8516 454.333 23.2175 453.856 23.6749C453.362 24.1323 452.885 24.6812 452.446 25.3032C451.75 26.3095 451.072 27.6634 450.449 29.2734C449.863 30.792 449.332 32.5484 448.874 34.4512C448.764 34.3597 448.672 34.2865 448.562 34.195M465.14 12.1485C465.653 12.1119 466.129 12.1485 466.624 12.2766C466.771 12.3131 466.917 12.3497 467.082 12.4046C466.807 12.4046 466.532 12.4046 466.258 12.4046C465.781 12.4412 465.305 12.4961 464.847 12.6059L465.14 12.1485ZM470.288 13.0084C469.537 12.368 468.749 11.8923 467.943 11.563C467.265 11.2886 466.569 11.1239 465.836 11.0873L466.881 9.49559C468.896 6.44018 470.819 4.46422 472.632 3.58602C474.391 2.72611 476.04 2.92737 477.633 4.17149C480.912 6.7695 483.935 13.5573 486.664 24.5165C486.298 24.2421 485.931 23.9676 485.547 23.7298C484.979 23.3822 484.411 23.0162 483.807 22.7052C481.883 21.644 479.795 20.8573 477.542 20.2901C475.307 19.723 472.889 19.4119 470.324 19.3571L467.064 19.2656L470.05 20.4182C472.12 21.2232 473.988 22.0648 475.673 22.9613C477.377 23.8395 478.879 24.7726 480.198 25.7606C481.242 26.5473 482.195 27.3706 483.019 28.194C483.642 28.8526 484.21 29.5113 484.704 30.1882C483.916 29.8406 483.074 29.5479 482.213 29.3283C480.986 28.999 479.722 28.7794 478.421 28.6697C476.479 28.505 474.501 28.5965 472.761 28.9258C471.112 29.2368 469.647 29.7857 468.566 30.5541C468.291 30.5907 468.016 30.609 467.741 30.6273C467.522 30.6639 467.284 30.6639 467.064 30.7005C466.679 29.7125 466.294 28.7977 465.873 27.9561C465.433 27.0962 464.994 26.3095 464.517 25.6325C463.638 24.3701 462.686 23.4187 461.66 22.7967C460.634 22.1563 459.517 21.8453 458.326 21.8636C457.996 21.8636 457.666 21.8636 457.355 21.9185C457.172 21.9551 457.025 21.9734 456.86 22.01C457.795 19.9974 458.802 18.3325 459.901 17.0335C460.909 15.8443 461.971 14.9478 463.107 14.3623L463.015 14.5452L463.4 14.7099L463.895 13.9964C464.756 13.6305 465.672 13.4475 466.606 13.4109C467.577 13.4109 468.602 13.539 469.665 13.85L472.156 14.5818L470.269 12.9718L470.288 13.0084ZM488.679 26.1814C488.551 26.0533 488.423 25.9436 488.295 25.8155C488.185 25.413 488.093 24.9739 487.983 24.5165C487.855 24.0591 487.763 23.6383 487.653 23.2541C490.145 18.552 492.489 14.6184 494.779 11.4349C497.051 8.25147 499.212 5.83641 501.282 4.18978C502.949 2.85418 504.543 2.03087 506.063 1.75643C507.162 1.53688 508.243 1.61007 509.287 1.95769C506.723 1.86621 504.378 2.63463 502.29 4.29956C499.89 6.20233 497.82 9.27604 496.043 13.4841C495.439 13.7951 494.871 14.1976 494.321 14.6916C493.753 15.2039 493.222 15.826 492.709 16.5395C491.885 17.7104 491.134 19.1375 490.456 20.839C489.852 22.4308 489.302 24.2238 488.807 26.2912L488.661 26.1448L488.679 26.1814ZM473.732 1.4454C475.05 0.988006 476.406 1.06119 477.78 1.70155C479.575 2.52486 481.462 4.22638 483.422 6.82439C485.382 9.4224 487.415 12.8986 489.522 17.253C489.082 17.9849 488.661 18.735 488.221 19.4851C487.855 20.1438 487.507 20.7841 487.14 21.4794C485.858 16.7773 484.521 12.9535 483.092 9.95298C481.608 6.82439 480.051 4.61059 478.421 3.31158C477.01 2.19553 475.545 1.71984 474.006 1.9211C473.164 2.01258 472.303 2.3236 471.442 2.81759C472.193 2.17724 472.944 1.71984 473.695 1.4454M465.708 8.96501L464.682 11.0873C463.803 11.1605 462.924 11.4349 462.045 11.8375C461.11 12.2766 460.158 12.862 459.205 13.6305C457.923 14.655 456.586 16.0272 455.194 17.6921C453.911 19.2656 452.574 21.1135 451.2 23.2175C451.072 22.4491 450.907 21.6806 450.724 20.9305C450.467 19.9974 450.193 19.1009 449.863 18.2227C449.478 17.1981 449.039 16.2285 448.526 15.2771C448.013 14.3257 447.445 13.4292 446.822 12.551L443.378 7.77577L445.796 13.0267C446.034 13.539 446.254 14.1244 446.437 14.7648C446.639 15.46 446.84 16.2102 446.987 16.9969C447.188 17.9666 447.097 19.046 446.987 20.1072L446.95 20.3267C445.65 18.2044 444.404 16.4297 443.158 15.0575C441.785 13.539 440.429 12.4778 439.128 11.874C438.982 11.8192 438.835 11.746 438.689 11.6911C436.875 10.9958 435.135 11.1239 433.486 12.0753C431.856 13.0084 430.299 14.7465 428.815 17.2896C428.467 17.9117 428.101 18.5703 427.753 19.3022L426.855 21.0952H426.489L426.837 21.1501L425.28 24.2969L425.683 24.4616L427.716 21.3513L432.204 22.3576C433.541 22.6503 434.842 23.0345 436.069 23.5102C437.333 23.9859 438.524 24.5531 439.66 25.1751C440.74 25.7789 441.803 26.5107 442.829 27.2975C443.873 28.1208 444.862 29.0173 445.705 29.9138C445.87 30.4627 445.998 31.0115 446.163 31.5787C446.273 32.0361 446.382 32.4935 446.511 32.9692C445.778 32.6399 444.972 32.3837 444.129 32.1642C443.103 31.908 442.023 31.7251 440.905 31.6336C439.165 31.4689 437.388 31.5604 435.813 31.8714C434.292 32.1642 432.974 32.6582 432.003 33.3717C431.801 33.5181 431.6 33.6827 431.416 33.8474C431.27 33.9938 431.142 34.1218 431.013 34.2865L430.537 34.2499C430.354 34.2499 430.153 34.2499 429.951 34.2499L426.91 34.1767C428.046 34.6158 429.163 35.0366 430.299 35.4757C430.171 35.7685 430.098 36.0795 430.043 36.4088C429.969 36.793 429.951 37.1955 429.988 37.6163C430.061 38.7873 430.043 39.8667 429.951 40.873C429.859 41.8427 429.713 42.7392 429.456 43.5259C429.218 44.2943 428.907 44.9896 428.504 45.575C428.119 46.1605 427.661 46.6545 427.148 47.0753L425.665 48.2279L427.606 47.9718C428.211 47.9169 428.797 47.7157 429.365 47.4595C429.914 47.1851 430.446 46.8192 430.959 46.3618C431.471 45.9227 431.929 45.3738 432.387 44.7517C432.827 44.1297 433.267 43.4161 433.67 42.6111C433.853 42.3001 433.963 41.9342 434.073 41.5134C434.201 41.1108 434.292 40.6717 434.402 40.2326C434.567 39.4093 434.787 38.5311 435.098 37.7078C435.74 38.0737 436.381 38.4214 436.949 38.7873C437.608 39.2081 438.249 39.6289 438.817 40.0497C439.861 40.8364 440.795 41.6414 441.583 42.483C442.261 43.2149 442.847 43.9833 443.323 44.7517H443.195C443.012 44.7517 442.829 44.7517 442.646 44.7517C441.821 44.7517 440.997 44.9347 440.209 45.2823C439.422 45.6116 438.67 46.1239 437.919 46.7826C437.15 47.4595 436.381 48.3194 435.648 49.3623C434.897 50.4051 434.183 51.6127 433.468 53.0032L431.856 56.1501L434.439 53.552C435.868 52.1067 437.315 51.0272 438.744 50.2954C440.154 49.5818 441.546 49.1976 442.939 49.161C443.342 49.4721 443.763 49.8014 444.184 50.149C444.624 50.5149 445.045 50.8991 445.43 51.3199C445.76 51.6676 446.071 52.0152 446.346 52.3994C446.602 52.7653 446.84 53.1312 447.005 53.5154V53.8814C447.005 54.9059 447.042 56.0952 447.079 57.2478V57.2844C447.115 58.3456 447.133 59.4067 447.133 60.6508V60.7972L447.024 66.78V68.1521C447.024 68.9206 447.06 69.7256 447.079 70.5306C447.115 71.5186 447.133 72.47 447.133 73.5677V73.7141L447.024 79.0565V80.4287L447.133 85.149L447.042 90.8939V91.1501H447.024C447.024 91.6623 447.024 92.1929 447.042 92.7418C447.06 93.2907 447.079 93.8213 447.079 94.3518C447.115 95.3398 447.133 96.3095 447.133 97.517V97.6451L447.06 101.469C443.708 101.688 440.337 101.945 436.985 102.274C433.56 102.603 430.153 102.969 426.745 103.408L416.945 104.634L416.982 105.018L426.874 104.854C433.138 104.744 439.66 104.652 446.364 104.598C453.014 104.543 459.956 104.524 467.174 104.524C474.391 104.524 481.755 104.524 489.229 104.598C496.739 104.652 504.451 104.744 512.346 104.854L521.927 105L521.963 104.598L512.475 103.408C509.415 103.024 506.356 102.676 503.297 102.365C500.293 102.073 497.289 101.817 494.266 101.615L494.175 96.8035L494.266 90.6378H494.321L494.175 83.1914V83.0267C494.175 82.6425 494.175 81.6179 494.211 80.4836V80.3372C494.248 79.148 494.266 77.8672 494.285 77.1354C494.285 76.9342 494.303 76.7146 494.285 76.5134L494.248 74.9033C495.091 74.4825 495.915 74.0251 496.721 73.4945C497.564 72.964 498.388 72.3602 499.121 71.7015C499.945 70.9697 500.678 70.1647 501.227 69.2865C501.795 68.4083 502.216 67.4569 502.4 66.414L502.784 64.3649L501.3 65.9749C500.531 66.8166 499.908 66.9629 499.23 67.1459C499.011 67.2008 498.754 67.2556 498.534 67.3288C498.278 67.4203 497.985 67.5118 497.692 67.6765C497.234 67.896 496.794 68.1521 496.373 68.4449C495.933 68.7193 495.512 69.0486 495.091 69.4146C494.889 69.6158 494.651 69.8171 494.449 70.0366L494.193 70.2928V70.1281L494.303 64.0905H494.321V63.3403V62.6085H494.303L494.193 55.7475L494.321 47.7157C494.321 47.24 494.468 44.7517 494.724 42.7026C494.889 41.5134 495.091 40.4888 495.329 40.0863C495.768 39.3361 496.336 38.8056 497.051 38.5311C497.747 38.2384 498.571 38.1835 499.542 38.3665C500.806 38.6043 502.216 39.0983 503.773 39.8484C505.33 40.6169 507.034 41.6231 508.902 42.9038L512.584 45.447L509.782 42.1171C508.17 40.2326 506.631 38.6775 505.129 37.4151C503.645 36.1527 502.198 35.2196 500.788 34.6158C500.513 34.4877 500.238 34.378 499.963 34.2865C499.78 34.2316 499.615 34.1767 499.432 34.1218C500.971 31.9629 502.729 30.0236 504.726 28.2854C505.184 27.8829 505.66 27.4987 506.118 27.1145C506.521 26.7852 506.961 26.4742 507.4 26.1448C507.73 26.6022 508.078 27.0962 508.426 27.5902C508.829 28.1574 509.232 28.7611 509.635 29.3649L511.614 32.2739L510.789 28.9624C510.423 27.4255 510.02 26.0168 509.599 24.6812C509.983 24.4433 510.368 24.2421 510.753 24.0225C511.174 23.7664 511.614 23.5468 512.072 23.309L514.38 22.1197L511.724 22.2844C511.192 22.321 510.679 22.3393 510.166 22.3942C509.727 22.4491 509.287 22.4857 508.848 22.5588C508.426 21.4428 507.987 20.4182 507.51 19.4851C507.034 18.5154 506.539 17.6555 505.99 16.8871C505.037 15.4966 503.957 14.4538 502.839 13.7585C501.685 13.0633 500.458 12.7157 499.157 12.734C498.809 12.734 498.461 12.734 498.113 12.7888C497.93 12.8254 497.728 12.8437 497.527 12.8986C499.304 8.94671 501.392 6.18403 503.755 4.62888C506.173 3.01885 508.903 2.67123 511.943 3.54943L514.599 4.33615L512.566 2.61634C510.734 1.07949 508.793 0.365947 506.723 0.494018C504.671 0.622089 502.546 1.59177 500.311 3.36647C498.699 4.64718 497.032 6.38529 495.329 8.5442C493.662 10.6299 491.976 13.1182 490.218 16.0272C488.148 11.8558 486.151 8.5259 484.21 5.98278C482.176 3.36647 480.198 1.61007 478.293 0.731864C477.267 0.274467 476.278 0.0366211 475.307 0.0366211C471.808 0.0366211 468.602 3.01885 465.672 9.0016" fill="white"/>
</mask>
<g mask="url(#mask0_360_40216)">
<path d="M522 0H417V105H522V0Z" fill="url(#paint0_linear_360_40216)"/>
</g>
</g>
<path d="M154.765 105.905L176.761 126.957H251.438L260.652 118.611H300.236H260.652L251.438 126.957H176.761L154.765 105.905Z" stroke="url(#paint1_linear_360_40216)" stroke-miterlimit="10"/>
<path d="M0 105L129 105L0 105Z" stroke="url(#paint2_linear_360_40216)" stroke-miterlimit="10"/>
<path d="M131.257 105.112H152.728H131.257Z" stroke="url(#paint3_linear_360_40216)" stroke-miterlimit="10"/>
<path d="M155.101 105.112H166.623H155.101Z" stroke="url(#paint4_linear_360_40216)" stroke-miterlimit="10"/>
<path d="M400 105H574H400Z" stroke="url(#paint5_linear_360_40216)" stroke-miterlimit="10"/>
<mask id="mask1_360_40216" style="mask-type:luminance" maskUnits="userSpaceOnUse" x="166" y="70" width="229" height="45">
<path d="M354.323 104.486H362.844V80.7431H354.323V104.486ZM343.409 85.4375V80.7431H335.076V104.486H343.598V94.3672C343.598 92.1557 344.08 90.57 345.067 89.5894C346.032 88.6088 347.459 88.1081 349.348 88.1081H351.573V80.5136C351.069 80.4302 350.503 80.3676 349.852 80.3676C346.389 80.3676 344.248 82.0576 343.409 85.4375ZM315.725 95.7442C315.011 94.9514 314.654 93.6996 314.654 92.0096C314.654 90.3196 315.011 89.047 315.725 88.1498C316.439 87.2527 317.467 86.8145 318.831 86.8145C320.195 86.8145 321.224 87.2318 321.937 88.0664C322.651 88.9009 323.008 90.1527 323.008 91.8427C323.008 93.5327 322.651 94.8054 321.937 95.6608C321.224 96.5162 320.195 96.9543 318.831 96.9543C317.467 96.9543 316.439 96.5579 315.725 95.7651M312.073 81.0561C310.814 81.6194 309.743 82.4331 308.862 83.4763C307.98 84.5195 307.309 85.7505 306.826 87.1483C306.343 88.5671 306.112 90.1319 306.112 91.8427C306.112 93.5535 306.364 95.0975 306.847 96.5371C307.35 97.9767 308.043 99.2285 308.946 100.272C309.848 101.315 310.96 102.129 312.241 102.713C313.521 103.297 314.927 103.589 316.48 103.589C318.034 103.589 319.356 103.318 320.363 102.754C321.371 102.191 322.21 101.461 322.861 100.501V104.173C322.861 105.279 322.546 106.155 321.916 106.844C321.287 107.511 320.3 107.866 318.978 107.866C316.48 107.866 315.179 106.906 315.095 104.966H306.721C306.784 106.322 307.078 107.532 307.581 108.659C308.085 109.765 308.841 110.724 309.827 111.538C310.814 112.352 312.052 112.978 313.563 113.416C315.053 113.854 316.795 114.084 318.768 114.084C322.819 114.084 325.925 113.186 328.108 111.413C330.291 109.64 331.403 107.115 331.403 103.86V80.764H323.071V83.6641C322.42 82.6209 321.56 81.7863 320.447 81.1604C319.356 80.5345 317.971 80.2216 316.313 80.2216C314.78 80.2216 313.374 80.5136 312.094 81.077M354.575 77.8431H362.634V71.876H354.575V77.8013V77.8431ZM166.854 71.73V79.9086H176.571V104.465H185.827V79.9295H195.545V71.73H166.854ZM196.93 71.73V79.9086H206.648V104.465H215.904V79.9295H225.621V71.73H196.93ZM286.572 85.062C286.845 84.2065 287.118 83.3511 287.39 82.4957C287.642 81.6403 287.915 80.764 288.146 79.8669C288.398 80.764 288.65 81.6194 288.902 82.4957C289.153 83.3511 289.426 84.2065 289.72 85.062L292.176 92.6147H284.158L286.572 85.062ZM282.647 71.73L270.935 104.486H280.38L281.766 100.209H294.673L296.059 104.486H305.86L293.729 71.73H282.626H282.647ZM235.444 72.189C233.345 72.9818 231.561 74.1293 230.113 75.6106C228.665 77.092 227.552 78.8863 226.776 80.9935C225.999 83.1008 225.621 85.4584 225.621 88.1081C225.621 90.7578 226.02 93.0737 226.818 95.2018C227.615 97.3299 228.77 99.1242 230.239 100.606C231.729 102.087 233.492 103.234 235.591 104.027C237.69 104.82 239.977 105.216 242.517 105.216C244.658 105.216 246.631 104.924 248.478 104.34C250.325 103.756 251.983 102.88 253.41 101.732C254.837 100.585 256.013 99.1659 256.936 97.4759C257.839 95.786 258.447 93.8456 258.72 91.6341H249.464C249.128 93.4492 248.331 94.8262 247.051 95.786C245.791 96.7457 244.28 97.2464 242.517 97.2464C240.082 97.2464 238.256 96.4328 237.06 94.8262C235.864 93.2197 235.255 90.9664 235.255 88.0872C235.255 85.208 235.864 82.9964 237.06 81.3691C238.256 79.7417 240.082 78.928 242.517 78.928C244.217 78.928 245.665 79.3661 246.862 80.2216C248.058 81.077 248.877 82.3079 249.317 83.8936H258.657C258.342 81.8072 257.734 79.9712 256.789 78.3647C255.845 76.7582 254.669 75.4229 253.242 74.3171C251.815 73.2113 250.199 72.3767 248.373 71.8134C246.547 71.2501 244.595 70.958 242.496 70.958C239.872 70.958 237.522 71.3544 235.423 72.1472M373.38 71.73C371.68 72.2516 370.274 72.9818 369.162 73.8998C368.049 74.8178 367.231 75.9027 366.685 77.1128C366.139 78.3438 365.866 79.6582 365.866 81.077C365.866 84.0605 366.832 86.3972 368.784 88.1498C370.736 89.9024 373.569 91.0499 377.305 91.6758L379.887 92.0931C380.894 92.2391 381.755 92.406 382.405 92.5938C383.077 92.7816 383.602 92.9902 383.979 93.2197C384.357 93.4492 384.651 93.7413 384.819 94.0751C384.987 94.409 385.071 94.8054 385.071 95.2644C385.071 96.1824 384.672 96.9126 383.896 97.4342C383.119 97.9558 381.797 98.227 379.992 98.227C379.215 98.227 378.48 98.1645 377.788 98.0601C377.095 97.9558 376.487 97.7472 375.983 97.4134C375.479 97.1004 375.059 96.6205 374.766 96.0363C374.451 95.4313 374.283 94.6593 374.262 93.7205H365.384C365.384 95.4104 365.677 96.9543 366.286 98.3731C366.895 99.7918 367.797 101.002 369.015 102.003C370.232 103.026 371.764 103.798 373.59 104.382C375.416 104.945 377.599 105.237 380.097 105.237C382.258 105.237 384.231 105.029 385.994 104.611C387.757 104.194 389.29 103.547 390.57 102.671C391.85 101.795 392.837 100.689 393.55 99.3537C394.264 98.0184 394.621 96.4328 394.621 94.5967C394.621 91.6549 393.676 89.3808 391.766 87.7951C389.877 86.2095 386.897 85.062 382.867 84.3943L380.139 83.9353C378.48 83.6641 377.263 83.2885 376.487 82.8504C375.71 82.4123 375.332 81.7029 375.332 80.7014C375.332 79.846 375.668 79.1784 376.319 78.6985C376.99 78.2186 378.061 77.9891 379.53 77.9891C381.356 77.9891 382.657 78.3021 383.455 78.928C384.252 79.5539 384.693 80.5136 384.756 81.8072H393.466C393.277 78.1978 391.976 75.4855 389.583 73.6912C387.17 71.8969 383.791 70.9997 379.404 70.9997C377.095 70.9997 375.08 71.2501 373.38 71.7926" fill="white"/>
</mask>
<g mask="url(#mask1_360_40216)">
<path d="M394.642 70.9995H166.854V114.062H394.642V70.9995Z" fill="url(#paint6_linear_360_40216)"/>
</g>
<circle cx="130" cy="105" r="1.5" fill="white" stroke="url(#paint7_linear_360_40216)"/>
<circle cx="154" cy="105" r="1.5" fill="white" stroke="url(#paint8_linear_360_40216)"/>
<circle cx="168" cy="105" r="1.5" fill="white" stroke="url(#paint9_linear_360_40216)"/>
<circle cx="301" cy="119" r="1.5" fill="white" stroke="url(#paint10_linear_360_40216)"/>
<circle cx="399" cy="105" r="1.5" fill="white" stroke="url(#paint11_linear_360_40216)"/>
<mask id="path-15-inside-1_360_40216" fill="white">
<path d="M352.493 104.73H361.014V80.844H352.493V104.73ZM341.578 85.5665V80.844H333.246V104.73H341.767V94.5499C341.767 92.3251 342.25 90.7299 343.237 89.7434C344.202 88.7569 345.629 88.2532 347.518 88.2532H349.743V80.6131C349.239 80.5291 348.673 80.4661 348.022 80.4661C344.559 80.4661 342.418 82.1663 341.578 85.5665ZM313.894 95.9352C313.181 95.1376 312.824 93.8783 312.824 92.1781C312.824 90.478 313.181 89.1977 313.894 88.2951C314.608 87.3926 315.636 86.9518 317.001 86.9518C318.365 86.9518 319.393 87.3716 320.107 88.2112C320.821 89.0507 321.177 90.3101 321.177 92.0102C321.177 93.7104 320.821 94.9907 320.107 95.8513C319.393 96.7118 318.365 97.1526 317.001 97.1526C315.636 97.1526 314.608 96.7538 313.894 95.9562M310.242 81.1588C308.983 81.7255 307.912 82.5441 307.031 83.5935C306.149 84.643 305.478 85.8814 304.995 87.2877C304.512 88.7149 304.281 90.2891 304.281 92.0102C304.281 93.7313 304.533 95.2846 305.016 96.7328C305.52 98.1811 306.212 99.4404 307.115 100.49C308.017 101.539 309.13 102.358 310.41 102.946C311.69 103.533 313.097 103.827 314.65 103.827C316.203 103.827 317.525 103.554 318.533 102.988C319.54 102.421 320.38 101.686 321.03 100.721V104.415C321.03 105.527 320.716 106.409 320.086 107.101C319.456 107.773 318.47 108.13 317.148 108.13C314.65 108.13 313.349 107.164 313.265 105.212H304.89C304.953 106.577 305.247 107.794 305.751 108.928C306.254 110.04 307.01 111.005 307.996 111.824C308.983 112.643 310.221 113.272 311.732 113.713C313.223 114.154 314.965 114.385 316.938 114.385C320.988 114.385 324.095 113.482 326.278 111.698C328.46 109.914 329.573 107.374 329.573 104.1V80.8649H321.24V83.7824C320.59 82.733 319.729 81.8934 318.617 81.2637C317.525 80.6341 316.14 80.3192 314.482 80.3192C312.95 80.3192 311.544 80.6131 310.263 81.1798M352.744 77.9264H360.804V71.9235H352.744V77.8845V77.9264ZM165 71.7766V80.0044H174.718V104.709H183.974V80.0254H193.692V71.7766H165ZM195.077 71.7766V80.0044H204.795V104.709H214.051V80.0254H223.769V71.7766H195.077ZM284.72 85.1887C284.993 84.3282 285.266 83.4676 285.538 82.6071C285.79 81.7465 286.063 80.8649 286.294 79.9624C286.546 80.8649 286.798 81.7255 287.05 82.6071C287.302 83.4676 287.574 84.3282 287.868 85.1887L290.324 92.7868H282.306L284.72 85.1887ZM280.795 71.7766L269.083 104.73H278.528L279.913 100.427H292.822L294.207 104.73H304.009L291.898 71.7766H280.795ZM233.591 72.2384C231.492 73.036 229.708 74.1904 228.26 75.6806C226.812 77.1708 225.699 78.9759 224.923 81.0958C224.146 83.2157 223.769 85.5875 223.769 88.2532C223.769 90.9188 224.167 93.2486 224.965 95.3895C225.762 97.5304 226.917 99.3355 228.386 100.826C229.876 102.316 231.639 103.47 233.738 104.268C235.837 105.066 238.125 105.464 240.664 105.464C242.805 105.464 244.778 105.17 246.625 104.583C248.472 103.995 250.13 103.114 251.558 101.959C252.985 100.805 254.16 99.3775 255.084 97.6773C255.986 95.9772 256.595 94.0252 256.868 91.8003H247.612C247.276 93.6264 246.478 95.0117 245.198 95.9772C243.939 96.9427 242.428 97.4464 240.664 97.4464C238.23 97.4464 236.404 96.6279 235.207 95.0117C234.011 93.3955 233.402 91.1287 233.402 88.2322C233.402 85.3357 234.011 83.1108 235.207 81.4736C236.404 79.8365 238.23 79.0179 240.664 79.0179C242.365 79.0179 243.813 79.4587 245.009 80.3192C246.206 81.1798 247.024 82.4181 247.465 84.0133H256.805C256.49 81.9144 255.881 80.0674 254.937 78.4512C253.992 76.835 252.817 75.4917 251.39 74.3793C249.963 73.2668 248.346 72.4273 246.52 71.8606C244.694 71.2938 242.742 71 240.643 71C238.02 71 235.669 71.3988 233.57 72.1964M371.529 71.7766C369.829 72.3013 368.423 73.036 367.311 73.9595C366.198 74.883 365.38 75.9745 364.834 77.1918C364.288 78.4302 364.015 79.7525 364.015 81.1798C364.015 84.1812 364.981 86.532 366.933 88.2951C368.885 90.0582 371.718 91.2126 375.454 91.8423L378.036 92.2621C379.043 92.409 379.904 92.5769 380.555 92.7658C381.226 92.9547 381.751 93.1646 382.129 93.3955C382.507 93.6264 382.8 93.9203 382.968 94.2561C383.136 94.5919 383.22 94.9907 383.22 95.4525C383.22 96.376 382.821 97.1106 382.045 97.6353C381.268 98.1601 379.946 98.4329 378.141 98.4329C377.364 98.4329 376.63 98.37 375.937 98.265C375.244 98.1601 374.636 97.9502 374.132 97.6144C373.628 97.2995 373.208 96.8168 372.915 96.2291C372.6 95.6204 372.432 94.8438 372.411 93.8993H363.533C363.533 95.5994 363.827 97.1526 364.435 98.5799C365.044 100.007 365.946 101.225 367.164 102.232C368.381 103.26 369.913 104.037 371.739 104.625C373.565 105.191 375.748 105.485 378.246 105.485C380.408 105.485 382.381 105.275 384.144 104.856C385.907 104.436 387.439 103.785 388.719 102.904C389.999 102.022 390.986 100.91 391.7 99.5664C392.413 98.223 392.77 96.6279 392.77 94.7808C392.77 91.8213 391.826 89.5335 389.916 87.9383C388.027 86.3431 385.046 85.1887 381.016 84.5171L378.288 84.0553C376.63 83.7824 375.412 83.4046 374.636 82.9639C373.859 82.5231 373.481 81.8095 373.481 80.802C373.481 79.9414 373.817 79.2698 374.468 78.787C375.139 78.3043 376.21 78.0734 377.679 78.0734C379.505 78.0734 380.806 78.3882 381.604 79.0179C382.402 79.6476 382.842 80.6131 382.905 81.9144H391.616C391.427 78.2833 390.125 75.5547 387.733 73.7496C385.319 71.9445 381.94 71.042 377.553 71.042C375.244 71.042 373.229 71.2938 371.529 71.8396"/>
</mask>
<path d="M352.493 104.73H351.493V105.73H352.493V104.73ZM361.014 104.73V105.73H362.014V104.73H361.014ZM361.014 80.844H362.014V79.844H361.014V80.844ZM352.493 80.844V79.844H351.493V80.844H352.493ZM341.578 85.5665H340.578L342.549 85.8062L341.578 85.5665ZM341.578 80.844H342.578V79.844H341.578V80.844ZM333.246 80.844V79.844H332.246V80.844H333.246ZM333.246 104.73H332.246V105.73H333.246V104.73ZM341.767 104.73V105.73H342.767V104.73H341.767ZM343.237 89.7434L343.944 90.4505L343.951 90.4428L343.237 89.7434ZM349.743 88.2532V89.2532H350.743V88.2532H349.743ZM349.743 80.6131H350.743V79.7659L349.907 79.6267L349.743 80.6131ZM304.995 87.2877L304.049 86.963L304.048 86.9673L304.995 87.2877ZM305.016 96.7328L304.067 97.0491L304.072 97.0613L305.016 96.7328ZM321.03 100.721H322.03V97.4475L320.201 100.162L321.03 100.721ZM320.086 107.101L320.815 107.785L320.821 107.78L320.826 107.774L320.086 107.101ZM313.265 105.212L314.264 105.169L314.223 104.212H313.265V105.212ZM304.89 105.212V104.212H303.843L303.891 105.259L304.89 105.212ZM305.751 108.928L304.837 109.334L304.84 109.34L305.751 108.928ZM311.732 113.713L312.016 112.754L312.012 112.753L311.732 113.713ZM329.573 80.8649H330.573V79.8649H329.573V80.8649ZM321.24 80.8649V79.8649H320.24V80.8649H321.24ZM321.24 83.7824L320.39 84.3094L322.24 87.2932V83.7824H321.24ZM318.617 81.2637L318.117 82.1299L318.124 82.134L318.617 81.2637ZM352.744 77.9264H351.744V78.9264H352.744V77.9264ZM360.804 77.9264V78.9264H361.804V77.9264H360.804ZM360.804 71.9235H361.804V70.9235H360.804V71.9235ZM352.744 71.9235V70.9235H351.744V71.9235H352.744ZM165 71.7766V70.7766H164V71.7766H165ZM165 80.0044H164V81.0044H165V80.0044ZM174.718 80.0044H175.718V79.0044H174.718V80.0044ZM174.718 104.709H173.718V105.709H174.718V104.709ZM183.974 104.709V105.709H184.974V104.709H183.974ZM183.974 80.0254V79.0254H182.974V80.0254H183.974ZM193.692 80.0254V81.0254H194.692V80.0254H193.692ZM193.692 71.7766H194.692V70.7766H193.692V71.7766ZM195.077 71.7766V70.7766H194.077V71.7766H195.077ZM195.077 80.0044H194.077V81.0044H195.077V80.0044ZM204.795 80.0044H205.795V79.0044H204.795V80.0044ZM204.795 104.709H203.795V105.709H204.795V104.709ZM214.051 104.709V105.709H215.051V104.709H214.051ZM214.051 80.0254V79.0254H213.051V80.0254H214.051ZM223.769 80.0254V81.0254H224.769V80.0254H223.769ZM223.769 71.7766H224.769V70.7766H223.769V71.7766ZM284.72 85.1887L285.673 85.4915L285.673 85.491L284.72 85.1887ZM285.538 82.6071L286.492 82.9093L286.495 82.8987L286.498 82.8879L285.538 82.6071ZM286.294 79.9624L287.257 79.6936L286.252 76.0916L285.325 79.7146L286.294 79.9624ZM287.05 82.6071L286.088 82.8818L286.09 82.8879L287.05 82.6071ZM287.868 85.1887L288.82 84.8812L288.817 84.8734L288.815 84.8656L287.868 85.1887ZM290.324 92.7868V93.7868H291.698L291.275 92.4793L290.324 92.7868ZM282.306 92.7868L281.353 92.4841L280.939 93.7868H282.306V92.7868ZM280.795 71.7766V70.7766H280.089L279.853 71.4417L280.795 71.7766ZM269.083 104.73L268.141 104.395L267.667 105.73H269.083V104.73ZM278.528 104.73V105.73H279.257L279.48 105.036L278.528 104.73ZM279.913 100.427V99.4269H279.185L278.962 100.12L279.913 100.427ZM292.822 100.427L293.773 100.12L293.55 99.4269H292.822V100.427ZM294.207 104.73L293.255 105.036L293.478 105.73H294.207V104.73ZM304.009 104.73V105.73H305.441L304.947 104.385L304.009 104.73ZM291.898 71.7766L292.837 71.4317L292.596 70.7766H291.898V71.7766ZM228.386 100.826L227.674 101.528L227.679 101.533L228.386 100.826ZM255.084 97.6773L255.963 98.1547L255.967 98.1462L255.084 97.6773ZM256.868 91.8003L257.86 91.9221L257.998 90.8003H256.868V91.8003ZM247.612 91.8003V90.8003H246.779L246.628 91.6195L247.612 91.8003ZM245.198 95.9772L244.596 95.1788L244.59 95.1836L245.198 95.9772ZM247.465 84.0133L246.501 84.2797L246.704 85.0133H247.465V84.0133ZM256.805 84.0133V85.0133H257.966L257.794 83.865L256.805 84.0133ZM364.834 77.1918L363.921 76.7828L363.919 76.7886L364.834 77.1918ZM375.454 91.8423L375.288 92.8284L375.294 92.8294L375.454 91.8423ZM378.036 92.2621L377.875 93.2491L377.883 93.2505L377.892 93.2516L378.036 92.2621ZM380.555 92.7658L380.276 93.7262L380.284 93.7285L380.555 92.7658ZM374.132 97.6144L374.687 96.7823L374.674 96.7742L374.662 96.7664L374.132 97.6144ZM372.915 96.2291L373.809 95.7818L373.803 95.7697L372.915 96.2291ZM372.411 93.8993L373.411 93.877L373.389 92.8993H372.411V93.8993ZM363.533 93.8993V92.8993H362.533V93.8993H363.533ZM367.164 102.232L367.809 101.468L367.801 101.462L367.164 102.232ZM371.739 104.625L371.433 105.577L371.443 105.58L371.739 104.625ZM389.916 87.9383L389.27 88.7024L389.275 88.7058L389.916 87.9383ZM381.016 84.5171L380.849 85.5031L380.852 85.5035L381.016 84.5171ZM378.288 84.0553L378.455 83.0693L378.45 83.0686L378.288 84.0553ZM374.468 78.787L373.884 77.975L373.878 77.9794L373.872 77.9839L374.468 78.787ZM382.905 81.9144L381.906 81.9627L381.953 82.9144H382.905V81.9144ZM391.616 81.9144V82.9144H392.669L392.614 81.8625L391.616 81.9144ZM387.733 73.7496L388.335 72.9513L388.332 72.9488L387.733 73.7496ZM352.493 105.73H361.014V103.73H352.493V105.73ZM362.014 104.73V80.844H360.014V104.73H362.014ZM361.014 79.844H352.493V81.844H361.014V79.844ZM351.493 80.844V104.73H353.493V80.844H351.493ZM342.578 85.5665V80.844H340.578V85.5665H342.578ZM341.578 79.844H333.246V81.844H341.578V79.844ZM332.246 80.844V104.73H334.246V80.844H332.246ZM333.246 105.73H341.767V103.73H333.246V105.73ZM342.767 104.73V94.5499H340.767V104.73H342.767ZM342.767 94.5499C342.767 92.4346 343.232 91.1624 343.944 90.4505L342.529 89.0363C341.268 90.2974 340.767 92.2155 340.767 94.5499H342.767ZM343.951 90.4428C344.67 89.7079 345.802 89.2532 347.518 89.2532V87.2532C345.457 87.2532 343.734 87.8059 342.522 89.0439L343.951 90.4428ZM347.518 89.2532H349.743V87.2532H347.518V89.2532ZM350.743 88.2532V80.6131H348.743V88.2532H350.743ZM349.907 79.6267C349.362 79.5357 348.739 79.4661 348.022 79.4661V81.4661C348.606 81.4661 349.117 81.5225 349.579 81.5995L349.907 79.6267ZM348.022 79.4661C346.126 79.4661 344.487 79.9339 343.195 80.9574C341.905 81.9797 341.065 83.4729 340.608 85.3268L342.549 85.8062C342.931 84.2599 343.582 83.2029 344.437 82.5251C345.291 81.8485 346.455 81.4661 348.022 81.4661V79.4661ZM314.64 95.2684C314.164 94.7367 313.824 93.7717 313.824 92.1781H311.824C311.824 93.9848 312.198 95.5385 313.149 96.602L314.64 95.2684ZM313.824 92.1781C313.824 90.6031 314.156 89.5763 314.679 88.9154L313.11 87.6749C312.205 88.8191 311.824 90.3529 311.824 92.1781H313.824ZM314.679 88.9154C315.164 88.301 315.875 87.9518 317.001 87.9518V85.9518C315.398 85.9518 314.051 86.4842 313.11 87.6749L314.679 88.9154ZM317.001 87.9518C318.145 87.9518 318.864 88.2931 319.345 88.8588L320.869 87.5635C319.923 86.4501 318.585 85.9518 317.001 85.9518V87.9518ZM319.345 88.8588C319.841 89.4429 320.177 90.4263 320.177 92.0102H322.177C322.177 90.1939 321.8 88.6586 320.869 87.5635L319.345 88.8588ZM320.177 92.0102C320.177 93.5934 319.842 94.6045 319.337 95.2129L320.877 96.4896C321.799 95.3769 322.177 93.8273 322.177 92.0102H320.177ZM319.337 95.2129C318.85 95.8005 318.129 96.1526 317.001 96.1526V98.1526C318.6 98.1526 319.937 97.6232 320.877 96.4896L319.337 95.2129ZM317.001 96.1526C315.84 96.1526 315.116 95.8215 314.64 95.2894L313.149 96.623C314.1 97.6861 315.433 98.1526 317.001 98.1526V96.1526ZM309.832 80.2469C308.433 80.8766 307.241 81.7881 306.265 82.9504L307.797 84.2367C308.583 83.3001 309.533 82.5744 310.653 82.0707L309.832 80.2469ZM306.265 82.9504C305.294 84.1067 304.566 85.4571 304.049 86.963L305.941 87.6123C306.389 86.3056 307.005 85.1793 307.797 84.2367L306.265 82.9504ZM304.048 86.9673C303.524 88.5151 303.281 90.2002 303.281 92.0102H305.281C305.281 90.3781 305.5 88.9147 305.942 87.608L304.048 86.9673ZM303.281 92.0102C303.281 93.832 303.549 95.4925 304.067 97.049L305.965 96.4166C305.518 95.0766 305.281 93.6307 305.281 92.0102H303.281ZM304.072 97.0613C304.61 98.6086 305.36 99.9827 306.357 101.142L307.873 99.8379C307.065 98.8981 306.43 97.7535 305.961 96.4043L304.072 97.0613ZM306.357 101.142C307.359 102.307 308.59 103.21 309.993 103.854L310.827 102.037C309.67 101.505 308.676 100.772 307.873 99.8379L306.357 101.142ZM309.993 103.854C311.416 104.508 312.967 104.827 314.65 104.827V102.827C313.227 102.827 311.965 102.559 310.827 102.037L309.993 103.854ZM314.65 104.827C316.306 104.827 317.816 104.538 319.023 103.859L318.043 102.116C317.235 102.57 316.1 102.827 314.65 102.827V104.827ZM319.023 103.859C320.151 103.225 321.113 102.388 321.86 101.28L320.201 100.162C319.647 100.984 318.93 101.617 318.043 102.116L319.023 103.859ZM320.03 100.721V104.415H322.03V100.721H320.03ZM320.03 104.415C320.03 105.322 319.781 105.95 319.346 106.429L320.826 107.774C321.65 106.867 322.03 105.732 322.03 104.415H320.03ZM319.356 106.418C318.979 106.82 318.302 107.13 317.148 107.13V109.13C318.637 109.13 319.933 108.726 320.815 107.785L319.356 106.418ZM317.148 107.13C316.003 107.13 315.303 106.905 314.9 106.603C314.541 106.334 314.296 105.913 314.264 105.169L312.266 105.255C312.318 106.464 312.765 107.502 313.701 108.204C314.594 108.872 315.794 109.13 317.148 109.13V107.13ZM313.265 104.212H304.89V106.212H313.265V104.212ZM303.891 105.259C303.96 106.744 304.281 108.084 304.837 109.334L306.664 108.521C306.212 107.504 305.946 106.41 305.889 105.166L303.891 105.259ZM304.84 109.34C305.411 110.602 306.264 111.686 307.358 112.594L308.635 111.055C307.756 110.325 307.098 109.478 306.662 108.515L304.84 109.34ZM307.358 112.594C308.469 113.516 309.837 114.202 311.452 114.673L312.012 112.753C310.606 112.343 309.497 111.77 308.635 111.055L307.358 112.594ZM311.449 114.672C313.049 115.145 314.889 115.385 316.938 115.385V113.385C315.04 113.385 313.396 113.162 312.016 112.754L311.449 114.672ZM316.938 115.385C321.124 115.385 324.487 114.453 326.91 112.472L325.645 110.924C323.702 112.511 320.853 113.385 316.938 113.385V115.385ZM326.91 112.472C329.362 110.469 330.573 107.625 330.573 104.1H328.573C328.573 107.124 327.559 109.359 325.645 110.924L326.91 112.472ZM330.573 104.1V80.8649H328.573V104.1H330.573ZM329.573 79.8649H321.24V81.8649H329.573V79.8649ZM320.24 80.8649V83.7824H322.24V80.8649H320.24ZM322.09 83.2555C321.352 82.0653 320.37 81.1069 319.109 80.3935L318.124 82.134C319.089 82.68 319.827 83.4007 320.39 84.3094L322.09 83.2555ZM319.116 80.3976C317.832 79.6563 316.26 79.3192 314.482 79.3192V81.3192C316.02 81.3192 317.219 81.6119 318.117 82.1299L319.116 80.3976ZM314.482 79.3192C312.819 79.3192 311.274 79.639 309.858 80.2654L310.668 82.0942C311.814 81.5872 313.081 81.3192 314.482 81.3192V79.3192ZM352.744 78.9264H360.804V76.9264H352.744V78.9264ZM361.804 77.9264V71.9235H359.804V77.9264H361.804ZM360.804 70.9235H352.744V72.9235H360.804V70.9235ZM351.744 71.9235V77.8845H353.744V71.9235H351.744ZM351.744 77.8845V77.9264H353.744V77.8845H351.744ZM164 71.7766V80.0044H166V71.7766H164ZM165 81.0044H174.718V79.0044H165V81.0044ZM173.718 80.0044V104.709H175.718V80.0044H173.718ZM174.718 105.709H183.974V103.709H174.718V105.709ZM184.974 104.709V80.0254H182.974V104.709H184.974ZM183.974 81.0254H193.692V79.0254H183.974V81.0254ZM194.692 80.0254V71.7766H192.692V80.0254H194.692ZM193.692 70.7766H165V72.7766H193.692V70.7766ZM194.077 71.7766V80.0044H196.077V71.7766H194.077ZM195.077 81.0044H204.795V79.0044H195.077V81.0044ZM203.795 80.0044V104.709H205.795V80.0044H203.795ZM204.795 105.709H214.051V103.709H204.795V105.709ZM215.051 104.709V80.0254H213.051V104.709H215.051ZM214.051 81.0254H223.769V79.0254H214.051V81.0254ZM224.769 80.0254V71.7766H222.769V80.0254H224.769ZM223.769 70.7766H195.077V72.7766H223.769V70.7766ZM285.673 85.491C285.81 85.0607 285.946 84.6304 286.082 84.2001C286.219 83.7698 286.355 83.3396 286.492 82.9093L284.585 82.3048C284.449 82.7351 284.312 83.1654 284.176 83.5957C284.04 84.0259 283.903 84.4562 283.767 84.8865L285.673 85.491ZM286.498 82.8879C286.744 82.047 287.026 81.1349 287.263 80.2102L285.325 79.7146C285.1 80.595 284.836 81.446 284.579 82.3262L286.498 82.8879ZM285.331 80.2312C285.584 81.1372 285.839 82.0087 286.088 82.8818L288.011 82.3323C287.757 81.4423 287.508 80.5927 287.257 79.6936L285.331 80.2312ZM286.09 82.8879C286.346 83.7629 286.623 84.6375 286.922 85.5119L288.815 84.8656C288.525 84.0188 288.257 83.1723 288.009 82.3262L286.09 82.8879ZM286.917 85.4963L289.372 93.0944L291.275 92.4793L288.82 84.8812L286.917 85.4963ZM290.324 91.7868H282.306V93.7868H290.324V91.7868ZM283.259 93.0896L285.673 85.4915L283.767 84.886L281.353 92.4841L283.259 93.0896ZM279.853 71.4417L268.141 104.395L270.026 105.065L281.737 72.1115L279.853 71.4417ZM269.083 105.73H278.528V103.73H269.083V105.73ZM279.48 105.036L280.865 100.733L278.962 100.12L277.576 104.423L279.48 105.036ZM279.913 101.427H292.822V99.4269H279.913V101.427ZM291.87 100.733L293.255 105.036L295.159 104.423L293.773 100.12L291.87 100.733ZM294.207 105.73H304.009V103.73H294.207V105.73ZM304.947 104.385L292.837 71.4317L290.959 72.1216L303.07 105.075L304.947 104.385ZM291.898 70.7766H280.795V72.7766H291.898V70.7766ZM233.236 71.3036C231.011 72.1492 229.1 73.3811 227.543 74.9837L228.977 76.3775C230.316 74.9996 231.974 73.9227 233.946 73.1731L233.236 71.3036ZM227.543 74.9837C225.989 76.5831 224.805 78.5115 223.984 80.7519L225.862 81.4398C226.594 79.4403 227.635 77.7585 228.977 76.3775L227.543 74.9837ZM223.984 80.7519C223.16 83.0016 222.769 85.493 222.769 88.2532H224.769C224.769 85.682 225.133 83.4299 225.862 81.4398L223.984 80.7519ZM222.769 88.2532C222.769 91.0221 223.183 93.472 224.028 95.7386L225.902 95.0404C225.151 93.0252 224.769 90.8155 224.769 88.2532H222.769ZM224.028 95.7386C224.873 98.0066 226.102 99.9333 227.674 101.528L229.098 100.124C227.732 98.7377 226.652 97.0542 225.902 95.0404L224.028 95.7386ZM227.679 101.533C229.27 103.124 231.153 104.355 233.383 105.203L234.093 103.333C232.126 102.585 230.483 101.508 229.093 100.119L227.679 101.533ZM233.383 105.203C235.608 106.048 238.018 106.464 240.664 106.464V104.464C238.232 104.464 236.066 104.083 234.093 103.333L233.383 105.203ZM240.664 106.464C242.899 106.464 244.975 106.157 246.928 105.536L246.322 103.63C244.582 104.184 242.712 104.464 240.664 104.464V106.464ZM246.928 105.536C248.887 104.913 250.657 103.974 252.187 102.737L250.929 101.182C249.604 102.253 248.057 103.078 246.322 103.63L246.928 105.536ZM252.187 102.737C253.721 101.495 254.98 99.964 255.962 98.1546L254.205 97.2C253.341 98.791 252.248 100.114 250.929 101.182L252.187 102.737ZM255.967 98.1462C256.932 96.3282 257.574 94.2568 257.86 91.9221L255.875 91.6786C255.616 93.7936 255.04 95.6262 254.2 97.2084L255.967 98.1462ZM256.868 90.8003H247.612V92.8003H256.868V90.8003ZM246.628 91.6195C246.33 93.2425 245.644 94.3887 244.596 95.1788L245.8 96.7756C247.313 95.6347 248.222 94.0103 248.595 91.9812L246.628 91.6195ZM244.59 95.1836C243.518 96.0055 242.224 96.4464 240.664 96.4464V98.4464C242.631 98.4464 244.36 97.8799 245.806 96.7708L244.59 95.1836ZM240.664 96.4464C238.474 96.4464 236.979 95.7247 236.011 94.4167L234.404 95.6067C235.828 97.531 237.986 98.4464 240.664 98.4464V96.4464ZM236.011 94.4167C234.986 93.0323 234.402 91.0028 234.402 88.2322H232.402C232.402 91.2546 233.036 93.7588 234.404 95.6067L236.011 94.4167ZM234.402 88.2322C234.402 85.4674 234.984 83.4744 236.015 82.0636L234.4 80.8836C233.038 82.7472 232.402 85.2039 232.402 88.2322H234.402ZM236.015 82.0636C236.983 80.7386 238.475 80.0179 240.664 80.0179V78.0179C237.985 78.0179 235.824 78.9343 234.4 80.8836L236.015 82.0636ZM240.664 80.0179C242.183 80.0179 243.421 80.4084 244.425 81.131L245.593 79.5074C244.205 78.5089 242.546 78.0179 240.664 78.0179V80.0179ZM244.425 81.131C245.412 81.8405 246.112 82.8728 246.501 84.2797L248.429 83.747C247.936 81.9634 246.999 80.519 245.593 79.5074L244.425 81.131ZM247.465 85.0133H256.805V83.0133H247.465V85.0133ZM257.794 83.865C257.464 81.6632 256.819 79.6908 255.8 77.9466L254.073 78.9557C254.943 80.4439 255.516 82.1656 255.816 84.1617L257.794 83.865ZM255.8 77.9466C254.793 76.2227 253.534 74.7824 252.004 73.5905L250.775 75.168C252.1 76.201 253.192 77.4473 254.073 78.9557L255.8 77.9466ZM252.004 73.5905C250.478 72.4009 248.753 71.5065 246.817 70.9055L246.224 72.8156C247.94 73.3481 249.447 74.1328 250.775 75.168L252.004 73.5905ZM246.817 70.9055C244.89 70.3074 242.837 70 240.643 70V72C242.647 72 244.499 72.2803 246.224 72.8156L246.817 70.9055ZM240.643 70C237.918 70 235.444 70.4145 233.215 71.2616L233.925 73.1312C235.894 72.3831 238.122 72 240.643 72V70ZM371.234 70.8211C369.433 71.3772 367.903 72.1678 366.672 73.1901L367.949 74.7289C368.943 73.9041 370.226 73.2254 371.824 72.7321L371.234 70.8211ZM366.672 73.1901C365.444 74.2099 364.531 75.424 363.921 76.7828L365.746 77.6009C366.229 76.5249 366.953 75.5562 367.949 74.7289L366.672 73.1901ZM363.919 76.7886C363.315 78.16 363.015 79.6203 363.015 81.1798H365.015C365.015 79.8847 365.262 78.7004 365.749 77.5951L363.919 76.7886ZM363.015 81.1798C363.015 84.4207 364.07 87.0573 366.263 89.0372L367.603 87.553C365.891 86.0068 365.015 83.9418 365.015 81.1798H363.015ZM366.263 89.0372C368.41 90.9768 371.452 92.1818 375.288 92.8284L375.62 90.8562C371.985 90.2434 369.36 89.1397 367.603 87.553L366.263 89.0372ZM375.294 92.8294L377.875 93.2491L378.196 91.2751L375.615 90.8553L375.294 92.8294ZM377.892 93.2516C378.88 93.3957 379.689 93.5558 380.276 93.7262L380.833 91.8055C380.119 91.5981 379.207 91.4223 378.18 91.2726L377.892 93.2516ZM380.284 93.7285C380.912 93.9051 381.339 94.0849 381.607 94.2488L382.65 92.5422C382.163 92.2444 381.541 92.0044 380.825 91.8032L380.284 93.7285ZM381.607 94.2488C381.867 94.4074 382.009 94.574 382.074 94.7033L383.863 93.8089C383.592 93.2665 383.146 92.8454 382.65 92.5422L381.607 94.2488ZM382.074 94.7033C382.158 94.872 382.22 95.1109 382.22 95.4525H384.22C384.22 94.8705 384.114 94.3118 383.863 93.8089L382.074 94.7033ZM382.22 95.4525C382.22 96.0341 381.994 96.4625 381.485 96.8068L382.605 98.4639C383.648 97.7588 384.22 96.7179 384.22 95.4525H382.22ZM381.485 96.8068C380.966 97.1572 379.899 97.4329 378.141 97.4329V99.4329C379.992 99.4329 381.57 99.163 382.605 98.4639L381.485 96.8068ZM378.141 97.4329C377.419 97.4329 376.734 97.3744 376.087 97.2763L375.787 99.2537C376.525 99.3655 377.31 99.4329 378.141 99.4329V97.4329ZM376.087 97.2763C375.501 97.1875 375.04 97.0179 374.687 96.7823L373.577 98.4464C374.231 98.8825 374.988 99.1326 375.787 99.2537L376.087 97.2763ZM374.662 96.7664C374.335 96.562 374.032 96.2284 373.809 95.7819L372.02 96.6763C372.385 97.4051 372.921 98.037 373.602 98.4624L374.662 96.7664ZM373.803 95.7697C373.579 95.3375 373.429 94.7237 373.411 93.877L371.411 93.9215C371.434 94.9639 371.62 95.9032 372.026 96.6885L373.803 95.7697ZM372.411 92.8993H363.533V94.8993H372.411V92.8993ZM362.533 93.8993C362.533 95.7175 362.848 97.4063 363.515 98.9721L365.355 98.1876C364.805 96.8989 364.533 95.4813 364.533 93.8993H362.533ZM363.515 98.9721C364.186 100.545 365.185 101.893 366.526 103.002L367.801 101.462C366.707 100.556 365.901 99.4688 365.355 98.1876L363.515 98.9721ZM366.518 102.996C367.862 104.131 369.521 104.961 371.433 105.577L372.046 103.673C370.305 103.113 368.9 102.39 367.809 101.468L366.518 102.996ZM371.443 105.58C373.387 106.183 375.674 106.485 378.246 106.485V104.485C375.822 104.485 373.743 104.2 372.036 103.67L371.443 105.58ZM378.246 106.485C380.471 106.485 382.523 106.269 384.375 105.828L383.912 103.883C382.238 104.281 380.345 104.485 378.246 104.485V106.485ZM384.375 105.828C386.237 105.385 387.888 104.69 389.286 103.727L388.152 102.08C386.99 102.88 385.576 103.487 383.912 103.883L384.375 105.828ZM389.286 103.727C390.699 102.755 391.794 101.521 392.583 100.036L390.816 99.0972C390.178 100.299 389.3 101.29 388.152 102.08L389.286 103.727ZM392.583 100.036C393.388 98.5199 393.77 96.7567 393.77 94.7808H391.77C391.77 96.499 391.439 97.9262 390.816 99.0972L392.583 100.036ZM393.77 94.7808C393.77 91.5914 392.741 88.9948 390.557 87.1708L389.275 88.7058C390.91 90.0722 391.77 92.0512 391.77 94.7808H393.77ZM390.561 87.1743C388.473 85.4117 385.288 84.2152 381.181 83.5307L380.852 85.5035C384.804 86.1622 387.58 87.2746 389.27 88.7023L390.561 87.1743ZM381.183 83.5311L378.455 83.0693L378.121 85.0413L380.849 85.5031L381.183 83.5311ZM378.45 83.0686C376.838 82.8033 375.756 82.4496 375.129 82.0942L374.142 83.8335C375.069 84.3597 376.421 84.7616 378.125 85.042L378.45 83.0686ZM375.129 82.0942C374.889 81.958 374.744 81.8014 374.65 81.6252C374.552 81.4421 374.481 81.1817 374.481 80.802H372.481C372.481 81.4297 372.599 82.0299 372.885 82.5657C373.174 83.1084 373.605 83.5289 374.142 83.8335L375.129 82.0942ZM374.481 80.802C374.481 80.2446 374.678 79.8764 375.064 79.5901L373.872 77.9839C372.957 78.6631 372.481 79.6382 372.481 80.802H374.481ZM375.051 79.599C375.461 79.3043 376.268 79.0734 377.679 79.0734V77.0734C376.152 77.0734 374.817 77.3042 373.884 77.975L375.051 79.599ZM377.679 79.0734C379.437 79.0734 380.456 79.3857 380.984 79.8028L382.224 78.233C381.157 77.3907 379.573 77.0734 377.679 77.0734V79.0734ZM380.984 79.8028C381.499 80.2091 381.854 80.8703 381.906 81.9627L383.904 81.8661C383.831 80.3558 383.304 79.0861 382.224 78.233L380.984 79.8028ZM382.905 82.9144H391.616V80.9144H382.905V82.9144ZM392.614 81.8625C392.414 78.0039 391.013 74.9715 388.335 72.9513L387.13 74.5479C389.238 76.1378 390.44 78.5626 390.617 81.9664L392.614 81.8625ZM388.332 72.9488C385.683 70.9679 382.062 70.042 377.553 70.042V72.042C381.817 72.042 384.955 72.9211 387.134 74.5504L388.332 72.9488ZM377.553 70.042C375.178 70.042 373.053 70.3003 371.224 70.8874L371.835 72.7917C373.406 72.2874 375.311 72.042 377.553 72.042V70.042Z" fill="url(#paint12_linear_360_40216)" mask="url(#path-15-inside-1_360_40216)"/>
<defs>
<linearGradient id="paint0_linear_360_40216" x1="463.429" y1="54.6988" x2="463.429" y2="106.33" gradientUnits="userSpaceOnUse">
<stop stop-color="#50B848"/>
<stop offset="0.14" stop-color="#50B848"/>
<stop offset="0.31" stop-color="#3AA642"/>
<stop offset="0.59" stop-color="#1A8B3A"/>
<stop offset="0.83" stop-color="#077A35"/>
<stop offset="1" stop-color="#007534"/>
</linearGradient>
<linearGradient id="paint1_linear_360_40216" x1="154.03" y1="116.588" x2="300.236" y2="116.588" gradientUnits="userSpaceOnUse">
<stop stop-color="#0083CA"/>
<stop offset="0.29" stop-color="#005892"/>
<stop offset="0.55" stop-color="#003767"/>
<stop offset="0.66" stop-color="#00467B"/>
<stop offset="0.89" stop-color="#006EAF"/>
<stop offset="1" stop-color="#0083CA"/>
</linearGradient>
<linearGradient id="paint2_linear_360_40216" x1="113.897" y1="106" x2="5.42367" y2="106" gradientUnits="userSpaceOnUse">
<stop stop-color="#0083CC"/>
<stop offset="1" stop-color="#0083CC" stop-opacity="0"/>
</linearGradient>
<linearGradient id="paint3_linear_360_40216" x1="nan" y1="nan" x2="nan" y2="nan" gradientUnits="userSpaceOnUse">
<stop stop-color="#0083CA"/>
<stop offset="0.29" stop-color="#005892"/>
<stop offset="0.55" stop-color="#003767"/>
<stop offset="0.66" stop-color="#00467B"/>
<stop offset="0.89" stop-color="#006EAF"/>
<stop offset="1" stop-color="#0083CA"/>
</linearGradient>
<linearGradient id="paint4_linear_360_40216" x1="nan" y1="nan" x2="nan" y2="nan" gradientUnits="userSpaceOnUse">
<stop stop-color="#0083CA"/>
<stop offset="0.29" stop-color="#005892"/>
<stop offset="0.55" stop-color="#003767"/>
<stop offset="0.66" stop-color="#00467B"/>
<stop offset="0.89" stop-color="#006EAF"/>
<stop offset="1" stop-color="#0083CA"/>
</linearGradient>
<linearGradient id="paint5_linear_360_40216" x1="nan" y1="nan" x2="nan" y2="nan" gradientUnits="userSpaceOnUse">
<stop stop-color="#0083CA"/>
<stop offset="0.29" stop-color="#005892"/>
<stop offset="0.55" stop-color="#003767"/>
<stop offset="0.66" stop-color="#00467B"/>
<stop offset="0.89" stop-color="#006EAF"/>
<stop offset="1" stop-color="#0083CA"/>
</linearGradient>
<linearGradient id="paint6_linear_360_40216" x1="166.881" y1="93.2583" x2="394.669" y2="93.2583" gradientUnits="userSpaceOnUse">
<stop stop-color="#003767"/>
<stop offset="0.33" stop-color="#003767"/>
<stop offset="0.51" stop-color="#00425D"/>
<stop offset="0.83" stop-color="#006143"/>
<stop offset="1" stop-color="#007534"/>
</linearGradient>
<linearGradient id="paint7_linear_360_40216" x1="128" y1="105" x2="132" y2="105" gradientUnits="userSpaceOnUse">
<stop stop-color="#0083CA"/>
<stop offset="0.29" stop-color="#005892"/>
<stop offset="0.55" stop-color="#003767"/>
<stop offset="0.66" stop-color="#00467B"/>
<stop offset="0.89" stop-color="#006EAF"/>
<stop offset="1" stop-color="#0083CA"/>
</linearGradient>
<linearGradient id="paint8_linear_360_40216" x1="152" y1="105" x2="156" y2="105" gradientUnits="userSpaceOnUse">
<stop stop-color="#0083CA"/>
<stop offset="0.29" stop-color="#005892"/>
<stop offset="0.55" stop-color="#003767"/>
<stop offset="0.66" stop-color="#00467B"/>
<stop offset="0.89" stop-color="#006EAF"/>
<stop offset="1" stop-color="#0083CA"/>
</linearGradient>
<linearGradient id="paint9_linear_360_40216" x1="166" y1="105" x2="170" y2="105" gradientUnits="userSpaceOnUse">
<stop stop-color="#0083CA"/>
<stop offset="0.29" stop-color="#005892"/>
<stop offset="0.55" stop-color="#003767"/>
<stop offset="0.66" stop-color="#00467B"/>
<stop offset="0.89" stop-color="#006EAF"/>
<stop offset="1" stop-color="#0083CA"/>
</linearGradient>
<linearGradient id="paint10_linear_360_40216" x1="299" y1="119" x2="303" y2="119" gradientUnits="userSpaceOnUse">
<stop stop-color="#0083CA"/>
<stop offset="0.29" stop-color="#005892"/>
<stop offset="0.55" stop-color="#003767"/>
<stop offset="0.66" stop-color="#00467B"/>
<stop offset="0.89" stop-color="#006EAF"/>
<stop offset="1" stop-color="#0083CA"/>
</linearGradient>
<linearGradient id="paint11_linear_360_40216" x1="397" y1="105" x2="401" y2="105" gradientUnits="userSpaceOnUse">
<stop stop-color="#0083CA"/>
<stop offset="0.29" stop-color="#005892"/>
<stop offset="0.55" stop-color="#003767"/>
<stop offset="0.66" stop-color="#00467B"/>
<stop offset="0.89" stop-color="#006EAF"/>
<stop offset="1" stop-color="#0083CA"/>
</linearGradient>
<linearGradient id="paint12_linear_360_40216" x1="165" y1="92.6924" x2="392.77" y2="92.6924" gradientUnits="userSpaceOnUse">
<stop stop-color="#0083CA"/>
<stop offset="0.29" stop-color="#005892"/>
<stop offset="0.55" stop-color="#0666BA"/>
<stop offset="0.66" stop-color="#0561A7"/>
<stop offset="0.89" stop-color="#409A3C"/>
<stop offset="1" stop-color="#89C765"/>
</linearGradient>
<clipPath id="clip0_360_40216">
<rect width="105" height="105" fill="white" transform="translate(417)"/>
</clipPath>
</defs>
</svg>
