<svg width="483" height="128" viewBox="0 0 483 128" fill="none" xmlns="http://www.w3.org/2000/svg">
<g clip-path="url(#clip0_360_40333)">
<mask id="mask0_360_40333" style="mask-type:luminance" maskUnits="userSpaceOnUse" x="353" y="0" width="106" height="106">
<path d="M390.966 102.512C396.169 102.274 401.426 102.146 406.665 102.146C411.904 102.146 417.253 102.274 422.528 102.512C426.064 102.676 429.599 102.878 433.098 103.17C423.06 103.079 413.424 103.024 404.229 103.024C399.319 103.024 394.392 103.024 389.482 103.061C386.515 103.061 383.566 103.116 380.653 103.134C384.097 102.859 387.522 102.658 390.966 102.493M402.085 98.4318C402.085 97.2975 402.03 96.1631 402.012 95.0471C402.14 95.0471 402.25 95.0837 402.378 95.102C402.58 95.102 402.818 95.1385 403.02 95.1568C403.239 95.1568 403.478 95.1934 403.716 95.1934H404.229L404.155 98.4318C404.155 99.2002 404.21 99.9504 404.265 100.719H402.03L402.085 98.4684V98.4318ZM385.745 97.4987H385.764V97.4621C385.764 96.4376 385.727 95.3398 385.691 94.2604C385.672 93.4187 385.654 92.5954 385.636 91.644C386.24 91.7355 386.845 91.7904 387.449 91.827C387.797 91.8636 388.163 91.8819 388.548 91.8819C388.823 91.8819 389.098 91.8819 389.409 91.8819C389.391 93.437 389.372 94.9556 389.372 96.4742C389.354 97.9927 389.372 99.5113 389.372 101.066C388.75 101.103 388.109 101.121 387.486 101.176C386.881 101.213 386.258 101.231 385.654 101.268L385.727 97.4621L385.745 97.4987ZM427.566 101.304C426.888 101.268 426.174 101.231 425.441 101.176L425.551 96.8035V96.7486C425.551 95.6142 425.514 94.4067 425.478 93.1809C425.478 92.2295 425.423 91.3147 425.423 90.2536C426.027 90.3816 426.852 90.4182 427.474 90.4731C427.859 90.4731 428.28 90.5097 428.683 90.528C429.013 90.528 429.343 90.528 429.654 90.5646C429.654 92.3942 429.618 94.2055 429.618 95.9985C429.618 97.7915 429.636 99.5844 429.654 101.414C428.976 101.359 428.28 101.323 427.548 101.268M405.822 90.9122C406.005 90.5829 406.207 90.3084 406.408 90.034C406.61 89.7779 406.811 89.5217 407.031 89.2839C407.214 89.0643 407.453 88.8631 407.654 88.6801C407.874 88.5154 408.112 88.3325 408.332 88.2044C408.46 88.1312 408.57 88.0581 408.698 88.0215C408.826 87.9666 408.955 87.93 409.083 87.8934L409.284 87.8202C409.174 88.0215 409.083 88.2227 408.955 88.424C408.735 88.7533 408.46 89.0826 408.167 89.4119C407.782 89.8145 407.343 90.1987 406.885 90.5646C406.537 90.839 406.17 91.1135 405.804 91.333V90.9305L405.822 90.9122ZM403.148 93.1809C402.928 93.1809 402.69 93.1443 402.47 93.126C402.305 93.126 402.177 93.0894 402.012 93.0711C402.03 91.9551 402.049 90.8573 402.03 89.7596C402.03 88.6801 402.03 87.6189 402.012 86.5029V86.2468C402.397 86.2468 402.8 86.2468 403.184 86.1919C403.514 86.1919 403.862 86.137 404.21 86.1004C404.192 87.2164 404.137 88.3508 404.137 89.4668H404.155L404.21 92.3027L404.082 92.3942L403.917 92.5405C403.771 92.6503 403.661 92.7601 403.551 92.8699C403.441 92.9613 403.368 93.0528 403.294 93.1626H403.148V93.1809ZM402.012 84.6367L402.195 84.8014H402.012V84.6367ZM388.695 90.5097C388.383 90.5097 388.054 90.4731 387.742 90.4731C387.138 90.4365 386.533 90.3816 385.947 90.3084C385.855 90.3084 385.764 90.2719 385.672 90.2536C385.672 88.552 385.709 86.9054 385.709 85.2771C385.709 83.6488 385.691 82.0021 385.654 80.3189C385.947 80.3189 386.258 80.3189 386.533 80.3189C386.918 80.3189 387.284 80.2823 387.651 80.264C387.999 80.264 388.347 80.2091 388.676 80.1908C388.933 80.1542 389.189 80.1359 389.427 80.0993C389.409 80.758 389.391 81.7277 389.372 82.6242V82.6974C389.372 83.9049 389.318 84.966 389.318 85.0575V85.0941L389.446 90.5463C389.208 90.5463 388.951 90.5463 388.713 90.5463M399.539 81.5996C399.136 81.2703 398.751 80.941 398.403 80.5567C398.11 80.2457 397.854 79.9164 397.616 79.5688C397.487 79.3675 397.396 79.1663 397.286 78.965L397.487 79.0382C397.726 79.1114 397.982 79.1846 398.239 79.3675C398.458 79.5139 398.696 79.6602 398.916 79.8432C399.118 80.0079 399.356 80.2091 399.539 80.447C399.722 80.6116 399.869 80.8129 400.034 81.0141C400.18 81.1971 400.308 81.3984 400.455 81.5996V82.2766C400.125 82.057 399.832 81.8375 399.521 81.5813M428.848 89.0643C428.5 89.0643 428.152 89.0643 427.786 89.0277C427.126 88.9911 426.467 88.9363 425.789 88.8448C425.734 88.8448 425.533 88.8082 425.459 88.7899C425.478 86.8871 425.496 85.0575 425.496 83.2279C425.496 81.3984 425.496 79.5871 425.441 77.7026C425.771 77.7026 426.101 77.7026 426.43 77.666C426.852 77.666 427.273 77.6294 427.676 77.6111C428.061 77.6111 428.445 77.5562 428.83 77.5196C429.105 77.483 429.379 77.4647 429.691 77.4099C429.691 78.16 429.654 79.2577 429.618 80.2823V80.4287C429.599 81.7277 429.563 82.862 429.563 82.9718V83.0084L429.691 89.1009C429.416 89.1009 429.105 89.1009 428.83 89.0643M403.184 84.2342C403.02 84.0513 402.836 83.8683 402.653 83.7219C402.543 83.6304 402.452 83.539 402.323 83.4475C402.232 83.3743 402.159 83.3011 402.067 83.2645L402.104 81.563V81.5264C402.104 81.1788 402.104 80.7763 402.085 80.3372C402.085 79.9164 402.067 79.4956 402.067 79.0565C402.067 78.4893 402.03 77.9587 402.012 77.3733H404.21C404.192 78.5991 404.174 79.8066 404.174 80.9958C404.174 82.1851 404.174 83.4292 404.174 84.6733L403.917 84.7099L403.606 84.7465C403.459 84.5635 403.331 84.3806 403.184 84.2342ZM429.196 75.9279C429.343 75.8364 429.489 75.7632 429.654 75.6717V75.9279C429.471 75.9645 429.288 75.9828 429.086 76.0011L429.215 75.9279H429.196ZM402.195 75.3607C402.36 75.1046 402.543 74.8301 402.745 74.574C403.038 74.2264 403.386 73.897 403.807 73.586C404.229 73.2933 404.705 73.0005 405.236 72.7078L405.273 72.6712C405.786 72.3602 406.299 72.0126 406.83 71.5735C407.361 71.171 407.874 70.7136 408.423 70.2013C408.771 69.872 409.12 69.5243 409.468 69.1584L409.687 68.9206C408.643 71.2441 407.05 73.5677 404.888 75.8913H401.902C401.975 75.7083 402.067 75.5071 402.159 75.3241M385.691 73.4945H385.709V73.4397C385.709 72.5249 385.672 71.4454 385.636 70.4025C385.599 69.6158 385.581 68.8291 385.581 68.0241H389.354C389.336 69.8171 389.318 71.5735 389.318 73.3299C389.318 75.0863 389.318 76.861 389.354 78.654C389.098 78.7089 388.805 78.7455 388.53 78.782C388.182 78.8186 387.815 78.8369 387.467 78.8552L387.009 78.8918C386.643 78.8918 386.295 78.9284 385.947 78.9467H385.581L385.691 73.5128V73.4945ZM431.211 72.0126C431.486 71.665 431.761 71.3356 432.072 71.0246C432.365 70.6953 432.658 70.4025 432.988 70.1464C433.355 69.8171 433.739 69.5243 434.124 69.2682C434.509 69.012 434.893 68.7742 435.296 68.5912C435.516 68.4632 435.736 68.39 435.956 68.3351C436.157 68.2619 436.377 68.207 436.56 68.1704C436.817 68.1155 437.091 68.0241 437.348 67.9509C437.439 67.9143 437.531 67.896 437.604 67.8411C437.385 68.3168 437.091 68.7742 436.762 69.2133C436.304 69.7988 435.791 70.3476 435.205 70.8599C434.582 71.4454 433.867 71.9577 433.135 72.4334C432.512 72.8359 431.852 73.2201 431.211 73.5677V72.0492V72.0126ZM397.469 67.8228L397.066 67.2922C397.341 67.4569 397.616 67.6399 397.909 67.8228C398.44 68.1887 398.99 68.5912 399.502 68.9938C400.217 69.5426 400.895 70.1647 401.517 70.7867C402.104 71.3722 402.672 71.9943 403.203 72.6346C402.965 72.8176 402.708 73.0005 402.507 73.1835C402.25 73.4214 401.994 73.6592 401.792 73.9153C401.701 74.0251 401.572 74.2081 401.426 74.391L401.261 74.6289C400.437 71.7747 398.77 69.5426 397.487 67.8411M406.866 69.3414C406.976 68.8291 407.105 68.2802 407.269 67.6947L409.193 66.2128L409.138 66.286C408.955 66.597 408.771 66.908 408.588 67.2191C408.259 67.7496 407.929 68.2985 407.581 68.8291C407.306 69.2682 406.995 69.7073 406.702 70.1464C406.738 69.8903 406.793 69.6158 406.866 69.3414ZM403.734 71.482C403.569 71.299 403.404 71.1161 403.221 70.8965C403.423 70.494 403.716 70.0183 404.045 69.4511C404.412 68.8474 404.87 68.1339 405.383 67.3288C405.731 66.78 406.097 66.2128 406.518 65.5907L406.848 65.0601C406.628 65.7188 406.427 66.3409 406.262 66.908C405.987 67.8045 405.786 68.6095 405.639 69.3597C405.493 70.0732 405.419 70.7136 405.364 71.2807C405.254 71.3722 405.144 71.4454 405.035 71.5369C404.888 71.6101 404.778 71.7015 404.632 71.793L404.32 71.9577L404.174 72.0309C404.027 71.8479 403.881 71.6649 403.734 71.482ZM425.514 70.0732C425.514 69.0303 425.478 67.8594 425.441 66.6702C425.404 65.792 425.386 64.9321 425.368 64.0173H429.636C429.599 65.7554 429.581 67.4569 429.581 69.1584C429.581 70.8599 429.581 72.6163 429.599 74.3544C429.105 74.5923 428.628 74.8484 428.189 75.1412C427.731 75.4339 427.31 75.7815 426.925 76.1474C426.76 76.1474 426.632 76.1474 426.467 76.1474C426.247 76.1474 426.009 76.1474 425.807 76.1474H425.386L425.514 70.0732ZM402.14 69.7988C401.994 69.6524 401.866 69.5243 401.701 69.3963C401.572 68.5912 401.463 67.8045 401.298 66.9995C401.151 66.1945 400.986 65.4078 400.803 64.6027C400.711 64.1819 400.62 63.7428 400.492 63.3037V63.2123C400.968 63.9075 401.426 64.6027 401.884 65.2614C402.507 66.2128 403.093 67.091 403.624 67.9509C403.331 68.4083 403.093 68.8291 402.855 69.195C402.69 69.4877 402.525 69.7622 402.36 70.0366L402.14 69.7988ZM425.386 61.8584C425.386 61.8584 425.551 61.9864 425.606 62.023C425.752 62.1694 425.899 62.2975 426.046 62.4255L426.155 62.5353H425.386V61.8584ZM403.313 65.3529C403.294 64.621 403.276 63.9258 403.294 63.2306C403.313 62.5536 403.349 61.8584 403.404 61.1997C403.441 60.8338 403.478 60.4496 403.532 60.102C403.734 61.035 403.935 61.9315 404.119 62.828C404.357 64.0356 404.558 65.1699 404.723 66.286L404.338 66.8714C404.027 66.3957 403.697 65.9017 403.349 65.3712M385.745 60.5777H385.764V60.5411C385.764 59.5165 385.727 58.3273 385.691 57.1746V57.1197C385.654 56.2598 385.636 55.3999 385.636 54.4851H389.409C389.391 56.5343 389.372 58.5468 389.372 60.5777C389.372 62.6085 389.372 64.6027 389.409 66.6702H385.636L385.745 60.5777ZM421.869 58.0894C421.118 57.5222 420.422 56.9002 419.781 56.2232C419.249 55.6561 418.792 55.0523 418.425 54.4302C418.15 53.9545 417.894 53.4972 417.729 53.0215C417.821 53.0581 417.894 53.0946 417.967 53.1312C418.205 53.241 418.48 53.3325 418.718 53.4057C418.92 53.4789 419.121 53.552 419.323 53.6435C419.524 53.7167 419.744 53.8265 419.946 53.9545C420.33 54.1924 420.678 54.4302 421.045 54.723C421.393 55.0157 421.741 55.345 422.071 55.6927C422.382 56.0403 422.693 56.3879 422.986 56.7904C423.28 57.1563 423.573 57.5588 423.829 58.0162V59.4433C423.151 59.0225 422.492 58.5651 421.851 58.0711M427.218 61.8767C426.998 61.6388 426.76 61.4193 426.504 61.1997C426.32 61.0533 426.137 60.907 425.954 60.7606C425.771 60.6508 425.624 60.5411 425.441 60.413L425.533 55.711V55.6744C425.533 54.54 425.496 53.241 425.459 51.9237C425.423 50.9357 425.404 49.9478 425.386 48.9049H429.654C429.618 51.2468 429.599 53.4972 429.599 55.6927C429.599 57.8882 429.618 60.1934 429.654 62.4987H427.749C427.584 62.2609 427.401 62.0596 427.2 61.8401M375.799 47.3497C376.44 46.7826 377.099 46.3435 377.759 46.0507C378.4 45.7763 379.059 45.6116 379.719 45.6116C380.378 45.6116 381.038 45.7214 381.752 45.9958C382.467 46.2703 383.181 46.6545 383.914 47.2217C384.756 47.862 385.636 48.6853 386.515 49.7099C387.339 50.6613 388.182 51.759 389.024 53.0215H385.178C384.976 52.5824 384.72 52.1433 384.427 51.7407C384.115 51.2834 383.767 50.8625 383.364 50.46C383.071 50.1307 382.741 49.8197 382.393 49.5269C382.228 49.3806 382.082 49.2708 381.917 49.1244C382.173 49.161 382.448 49.2342 382.705 49.2891C383.199 49.4355 383.694 49.6184 384.207 49.838L385.013 50.2039L384.482 49.5452C384.243 49.2342 383.639 48.85 382.998 48.539C382.393 48.2462 381.715 48.0084 381.203 47.9718C378.491 47.7157 375.799 48.539 373.161 50.4783C374.022 49.1793 374.901 48.1548 375.762 47.368M387.87 49.655C387.174 48.7951 386.497 48.0633 385.782 47.4412C387.028 45.3006 388.328 43.7455 389.757 42.8124C390.252 42.483 390.728 42.2269 391.259 42.0439C391.772 41.861 392.267 41.7512 392.816 41.7146C393.879 41.6597 395.015 41.8793 396.205 42.3916C396.81 42.6477 397.414 42.9953 398.037 43.3978C398.66 43.8003 399.301 44.276 399.96 44.8249C400.07 44.9347 400.18 45.0262 400.308 45.1359L400.51 45.3189L401.096 45.8678L401.005 45.8129C400.821 45.7214 400.638 45.6299 400.455 45.5384C400.29 45.4836 400.144 45.3738 399.979 45.3006L399.502 45.0628C398.678 44.6968 397.909 44.4041 397.194 44.1846C396.462 43.9467 395.766 43.8003 395.106 43.7089C393.714 43.5442 392.523 43.7089 391.461 44.1663C390.417 44.6419 389.537 45.4104 388.841 46.4898L388.292 47.3131L389.153 46.746C389.318 46.6362 389.464 46.4898 389.647 46.2886C390.014 45.9044 390.527 45.3738 391.424 45.0262L391.369 45.0811C391.149 45.3372 390.93 45.6116 390.746 45.9227C390.288 46.6728 390.014 47.6242 389.83 48.7768C389.684 49.7465 389.647 50.826 389.647 52.0518C389.043 51.1736 388.438 50.3686 387.834 49.655M412.618 42.9953C413.223 42.2452 413.827 41.6048 414.432 41.056C415.146 40.4339 415.861 39.9582 416.593 39.6289C417.308 39.3179 418.04 39.1532 418.773 39.1532C419.506 39.1532 420.275 39.2813 421.045 39.5923C421.832 39.885 422.638 40.3424 423.463 40.9645C424.415 41.678 425.386 42.5928 426.357 43.7272C427.291 44.7883 428.225 46.0324 429.196 47.4595H424.837C424.617 46.9472 424.324 46.4715 424.012 46.0141C423.664 45.5202 423.261 45.0262 422.822 44.5871C422.474 44.2029 422.125 43.8735 421.741 43.5442C421.539 43.3795 421.356 43.1966 421.155 43.0319C421.466 43.0868 421.777 43.1783 422.107 43.2515C422.675 43.3978 423.225 43.6174 423.792 43.8552L424.598 44.2211L424.067 43.5625C423.792 43.2149 423.133 42.7941 422.419 42.4464C421.759 42.1171 421.008 41.8793 420.44 41.8061C418.755 41.6414 417.07 41.861 415.403 42.4647C414.047 42.9404 412.728 43.6723 411.409 44.6419C411.794 44.0565 412.179 43.5076 412.563 43.0136M403.02 43.9101C403.313 43.3429 403.569 42.7026 403.789 42.0073C404.045 41.1474 404.247 40.2144 404.357 39.1898C404.448 38.3848 404.485 37.5249 404.485 36.6101C405.126 37.5432 405.767 38.4945 406.408 39.4459C406.317 39.7387 406.207 39.9948 406.115 40.2143C405.676 41.0743 405.236 41.8061 404.76 42.4464C404.302 43.0868 403.826 43.6174 403.349 44.0748C403.093 44.3126 402.818 44.5139 402.543 44.6968C402.726 44.4407 402.873 44.1846 403.038 43.9101M393.238 39.2996C393.677 38.769 394.172 38.3299 394.721 37.9274C395.234 37.5614 395.802 37.2687 396.425 37.0126C396.846 36.8479 397.304 36.7015 397.781 36.5918C397.194 37.1589 396.645 37.781 396.114 38.3848C395.472 39.1532 394.85 39.9399 394.282 40.7632C394.025 40.7266 393.787 40.7083 393.531 40.69C393.238 40.69 392.945 40.69 392.651 40.69C392.523 40.69 392.395 40.69 392.267 40.7266C392.542 40.2144 392.871 39.7387 393.238 39.2996ZM366.786 45.447C367.061 44.9347 367.317 44.3675 367.482 43.7455C367.739 42.8855 367.94 41.9342 368.032 40.9096C368.123 39.8667 368.142 38.7507 368.068 37.5249C368.032 37.1589 368.05 36.8479 368.105 36.5369C368.142 36.299 368.197 36.0795 368.288 35.8782C368.746 36.0612 369.204 36.2624 369.644 36.4637C370.102 36.6832 370.541 36.8845 370.963 37.1041C370.78 37.5432 370.651 37.9823 370.505 38.4579C370.358 38.9702 370.267 39.4825 370.157 39.9582C369.955 40.8181 369.772 41.6048 369.516 42.1171C369.131 42.8673 368.728 43.5442 368.325 44.1114C367.904 44.6785 367.482 45.1725 367.024 45.575C366.823 45.758 366.621 45.941 366.401 46.069C366.548 45.8678 366.658 45.6665 366.768 45.447M381.239 38.6226C380.525 38.092 379.755 37.6163 378.968 37.1955C378.345 36.8479 377.685 36.5369 377.026 36.2441C376.66 36.0795 376.293 35.9514 375.909 35.805C376.275 35.805 376.641 35.8416 376.989 35.8965C377.631 36.0063 378.29 36.2258 378.894 36.5369C379.627 36.9028 380.342 37.4334 381.019 38.092C381.349 38.4214 381.661 38.769 381.972 39.1715C381.734 38.9702 381.477 38.7873 381.221 38.6226M384.5 46.5081C384.005 46.1422 383.547 45.8312 383.053 45.575C382.595 45.3189 382.155 45.1176 381.697 44.9896C381.148 43.9467 380.433 42.9587 379.572 41.9891C378.693 41.0194 377.649 40.068 376.422 39.1715C375.396 38.4031 374.26 37.6712 372.978 36.9577C372.043 36.4454 371.054 35.9514 369.992 35.4574C371.311 35.6221 372.611 35.8965 373.839 36.2258C375.432 36.7015 376.934 37.3053 378.327 38.0554C381.294 39.6655 383.822 41.9891 385.874 45.0079C385.691 45.2823 385.471 45.575 385.288 45.8678C385.123 46.1422 384.958 46.4167 384.775 46.7094L384.5 46.4898V46.5081ZM427.786 43.654C426.98 42.7026 426.192 41.861 425.459 41.184C426.137 39.9948 426.833 38.9702 427.566 38.1286C428.317 37.2321 429.086 36.5369 429.892 36.0063C430.442 35.6221 430.991 35.3476 431.559 35.1464C432.146 34.9451 432.713 34.8171 433.318 34.7988C433.904 34.7439 434.527 34.7988 435.15 34.9268C435.791 35.0549 436.45 35.2745 437.11 35.5489C438.136 36.0063 439.235 36.6467 440.334 37.5066C441.121 38.092 441.909 38.7873 442.733 39.5557C441.671 38.9885 440.645 38.4762 439.693 38.1103C438.319 37.5432 437.055 37.2138 435.901 37.0858C434.38 36.9028 433.025 37.0858 431.871 37.5797C430.698 38.092 429.746 38.9519 428.958 40.1229L428.409 40.9462L429.27 40.379C429.453 40.2692 429.618 40.0863 429.819 39.885C430.259 39.4276 430.827 38.8056 431.889 38.4214L431.761 38.5494C431.523 38.8239 431.285 39.1349 431.083 39.4825V39.5191C430.79 40.1961 430.46 41.4219 430.222 42.977C430.057 44.0199 429.947 45.2091 429.929 46.4349C429.233 45.4653 428.519 44.5322 427.804 43.6723M398.916 42.8124C398.129 42.2635 397.359 41.8427 396.608 41.5134C396.37 41.4036 396.114 41.3121 395.875 41.2389C395.711 41.184 395.582 41.1291 395.418 41.0926C396.077 40.1595 396.791 39.2813 397.542 38.4397C398.367 37.5432 399.228 36.665 400.144 35.8599C400.565 35.5123 400.986 35.1647 401.408 34.8171C401.774 34.5426 402.159 34.2499 402.543 33.9755L403.129 34.7439V34.9268C403.129 35.0183 403.129 35.0915 403.148 35.183C403.221 36.482 403.203 37.7078 403.111 38.8056C403.001 39.885 402.836 40.8913 402.562 41.7695C402.232 42.8673 401.756 43.8003 401.151 44.5688C400.4 43.9101 399.667 43.3246 398.935 42.8307M403.496 33.3351L403.587 33.2802L403.679 33.5729L403.496 33.3351ZM404.705 48.2645C404.338 47.8071 403.954 47.3863 403.587 46.9838C403.276 46.6362 402.983 46.3252 402.653 46.0141C402.873 45.8861 403.111 45.7397 403.331 45.6116C403.624 45.3921 403.935 45.1725 404.21 44.9164C404.76 44.4224 405.273 43.8369 405.786 43.1234C406.299 42.4282 406.756 41.6231 407.214 40.7266C407.379 40.3607 407.526 39.9582 407.672 39.5191C407.801 39.0434 407.892 38.5677 408.02 38.0737C408.185 37.3602 408.332 36.6101 408.57 35.9148C408.79 35.2379 409.065 34.5792 409.449 34.0121C410.75 33.4815 411.977 33.2436 413.15 33.2436C414.322 33.2436 415.458 33.4998 416.52 34.0486C417.399 34.506 418.224 35.1281 419.03 35.9331C419.707 36.6284 420.367 37.47 421.026 38.4579C420.733 38.3665 420.459 38.2933 420.147 38.2384C419.653 38.1469 419.176 38.092 418.7 38.092C417.784 38.092 416.905 38.3116 416.025 38.6775C415.146 39.0434 414.285 39.6106 413.479 40.3424C412.618 41.0926 411.757 42.0439 410.933 43.1966C410.109 44.3492 409.303 45.7031 408.515 47.24L406.775 50.6064L409.541 47.8254C411.153 46.2154 412.747 45.0262 414.322 44.2029C415.879 43.4161 417.454 42.977 419.011 42.9221C419.488 43.2698 419.964 43.6357 420.422 44.0382C420.916 44.4407 421.374 44.8798 421.796 45.3189C422.18 45.7031 422.51 46.1056 422.803 46.5264C423.096 46.9289 423.353 47.3497 423.554 47.7888V48.2096C423.554 49.3623 423.591 50.6613 423.628 51.9603V51.9969C423.664 53.1861 423.701 54.3754 423.701 55.711V55.9854L423.499 55.7292C423.298 55.4731 423.078 55.2353 422.877 54.9974C422.51 54.6132 422.125 54.229 421.722 53.918C421.319 53.5886 420.916 53.2959 420.495 53.0398C420.22 52.8751 419.964 52.747 419.689 52.6372C419.451 52.5275 419.213 52.4543 418.993 52.3628C418.663 52.253 418.352 52.1433 418.04 51.9603C417.729 51.7773 417.418 51.5029 417.07 51.0455L415.751 49.3257L415.916 51.3931C415.989 52.436 416.3 53.424 416.777 54.3388C417.271 55.2536 417.894 56.1318 418.645 56.9185C419.359 57.6869 420.202 58.4187 421.063 59.0774C421.906 59.7178 422.767 60.2849 423.628 60.8155L423.591 62.5353V64.0173C423.591 64.8772 423.628 65.7737 423.664 66.6702V66.7068C423.701 67.7862 423.737 68.8657 423.737 70.0732V70.2196L423.609 76.2023H423.573V76.9342V77.6843H423.609L423.719 82.9352L423.609 89.3388V89.6132V89.6498C423.609 90.217 423.609 90.8024 423.628 91.4245C423.628 92.0283 423.628 92.6137 423.664 93.2175C423.701 94.3152 423.737 95.413 423.737 96.7486V96.895L423.628 101.085C417.931 100.792 412.215 100.646 406.518 100.646H405.767C405.712 99.8589 405.657 99.0722 405.657 98.3586L405.731 94.6994H405.749V93.7115H405.731V92.5954C406.28 92.2661 406.848 91.8819 407.398 91.4794C407.965 91.0403 408.497 90.5829 408.973 90.0706C409.449 89.5583 409.871 88.9728 410.182 88.3874C410.493 87.7653 410.713 87.125 410.768 86.448L410.915 84.4721L409.669 86.1187C409.486 86.3931 409.284 86.5395 409.12 86.6493C408.936 86.759 408.753 86.8139 408.533 86.9054C408.387 86.9603 408.24 86.9969 408.075 87.0701C407.911 87.125 407.727 87.2347 407.526 87.3262C407.269 87.4909 406.995 87.6921 406.72 87.8934C406.463 88.1129 406.207 88.3508 405.969 88.6069C405.859 88.7167 405.767 88.8448 405.676 88.9545C405.676 88.3508 405.676 87.7653 405.712 87.1616C405.731 86.2833 405.767 85.46 405.676 84.5818L405.639 81.5081L405.712 76.6048C407.269 74.9216 408.552 73.2384 409.541 71.5369C410.548 69.8354 411.281 68.1155 411.739 66.414L412.398 63.8526L410.658 65.9749L410.274 66.4506L410.493 66.0664C410.823 65.4992 411.116 64.9138 411.409 64.3466L412.563 62.0962L410.475 63.7428L409.632 64.4015C409.01 64.8955 408.35 65.3895 407.709 65.9017C407.911 65.2614 408.167 64.5662 408.423 63.8526C408.79 62.8829 409.193 61.8401 409.651 60.7606L411.776 55.6012L408.588 60.3032C407.947 61.2546 407.343 62.1328 406.775 62.9744C406.353 63.6331 405.932 64.2551 405.547 64.8223C405.364 63.7611 405.163 62.6451 404.925 61.4924C404.65 60.1203 404.302 58.7115 403.917 57.2478L403.313 54.9974L402.763 57.2478C402.598 57.8699 402.47 58.5102 402.36 59.1689C402.25 59.8275 402.177 60.4862 402.122 61.1814C402.085 61.6571 402.049 62.1694 402.03 62.7C402.03 62.9927 402.03 63.2854 402.03 63.5782C401.682 63.0842 401.334 62.5902 401.005 62.0779C400.51 61.401 399.997 60.6325 399.411 59.8275L397.268 56.7904L398.348 60.2666C398.568 60.9985 398.788 61.7669 398.99 62.5353C399.191 63.3037 399.393 64.0722 399.576 64.8772C399.722 65.5175 399.851 66.1579 399.979 66.8165C400.089 67.2922 400.162 67.7862 400.254 68.2619C399.466 67.6399 398.623 67.0727 397.762 66.5238C396.883 65.9932 395.985 65.4992 395.015 65.0236L392.395 63.7794C393.018 64.4564 393.659 65.1699 394.282 65.8286C395.619 67.1276 397.194 69.2865 398.385 71.3539C399.539 73.3299 400.327 75.2143 400.235 76.1474V76.6963C400.235 77.3916 400.272 78.2698 400.29 79.1114V79.7517C400.07 79.4956 399.832 79.276 399.594 79.0748C399.338 78.8552 399.045 78.6723 398.788 78.5076C398.605 78.3978 398.422 78.3064 398.239 78.2515C398.055 78.1783 397.927 78.1234 397.781 78.0868C397.561 78.0319 397.378 77.9404 397.194 77.8307C397.011 77.7209 396.828 77.5745 396.627 77.3001L395.381 75.6535L395.527 77.6294C395.582 78.3064 395.784 78.965 396.114 79.5688C396.407 80.1725 396.828 80.7397 397.323 81.252C397.762 81.7277 398.257 82.1668 398.77 82.5693C399.264 82.9352 399.759 83.2828 400.272 83.6122L400.235 85.0941V86.2833C400.235 87.3628 400.272 88.4789 400.308 89.54L400.217 94.3152C400.217 94.4799 400.217 94.7909 400.217 95.1934L400.272 97.7915V98.5965L400.217 100.792C398.642 100.829 397.048 100.847 395.472 100.92C393.897 100.975 392.303 101.03 390.746 101.085L390.673 97.517L390.765 91.9917H390.801L390.655 85.2771V85.1307C390.655 84.9477 390.673 84.6184 390.673 84.2342L390.746 81.0507V79.8798H390.783C390.783 79.6968 390.783 79.4956 390.783 79.3126L390.691 73.5677L390.783 68.1521V66.78L390.691 60.6325C390.728 58.1626 390.765 55.6927 390.801 53.2044H390.765C390.71 51.7042 390.746 50.4052 390.893 49.3074C391.039 48.1731 391.296 47.24 391.717 46.5447C392.505 45.2274 393.769 44.7151 395.472 45.0079C396.077 45.1176 396.736 45.3006 397.414 45.5567C398.019 45.7763 398.642 46.0324 399.301 46.3435L398.403 47.0387L400.199 46.8009C400.766 47.1119 401.353 47.4412 401.939 47.8071C402.543 48.1731 403.203 48.5939 403.862 49.0695L407.324 51.448L404.687 48.3377L404.705 48.2645ZM371.311 34.6341C370.688 34.5243 370.01 34.4512 369.351 34.378C369.442 34.3231 369.516 34.2316 369.607 34.1767C370.45 33.5729 371.64 33.1338 372.978 32.8777C374.407 32.6033 376.037 32.5484 377.667 32.6947C379.243 32.8228 380.8 33.1521 382.155 33.6461C383.401 34.1035 384.5 34.7256 385.288 35.5123L385.416 35.6587V35.8233L385.581 35.8599C385.837 36.171 386.039 36.4637 386.185 36.793C386.368 37.1223 386.478 37.47 386.625 37.8542C386.771 38.2567 387.009 38.8239 387.303 39.4093C387.504 39.8301 387.76 40.2875 388.035 40.69C387.797 41.184 387.559 41.6963 387.376 42.2452C387.174 42.8124 386.991 43.3795 386.845 43.965L386.643 44.1846C386.478 43.9467 386.313 43.7272 386.148 43.5259C385.929 43.2515 385.709 42.9587 385.471 42.666C384.646 41.0377 383.694 39.5557 382.65 38.3848C381.642 37.1955 380.561 36.2807 379.462 35.7319C378.546 35.2745 377.594 34.9817 376.586 34.8903C375.854 34.8354 375.121 34.8537 374.352 34.9817C374.974 34.6524 375.469 34.5975 375.762 34.5426C375.964 34.5426 376.073 34.506 376.183 34.4329L376.531 34.1401L376.055 34.0852C375.231 34.0121 374.535 34.0486 373.949 34.2133C373.399 34.378 372.904 34.5975 372.52 34.9085C372.117 34.8354 371.714 34.7439 371.292 34.6707M390.618 38.5311C391.607 37.2321 392.743 36.0978 394.135 35.1647C395.069 34.506 396.132 33.9389 397.286 33.4632C398.422 32.9692 399.686 32.5667 401.005 32.2739L401.188 32.2191L402.287 31.9995C402.891 31.8897 403.441 31.8165 404.045 31.7434C403.697 31.9629 403.331 32.1825 402.983 32.402C402.763 32.5484 402.14 32.9509 402.012 33.0607C401.554 33.39 401.096 33.7193 400.657 34.0852C400.217 34.4329 399.777 34.7805 399.356 35.1647L399.136 35.3659C398.147 35.494 397.213 35.6953 396.352 36.0063C395.472 36.3173 394.685 36.7015 393.97 37.2138C393.274 37.7078 392.651 38.275 392.12 38.9702C391.589 39.6289 391.149 40.3607 390.783 41.184C390.49 41.2755 390.197 41.4036 389.885 41.5499C389.574 41.7146 389.244 41.9159 388.933 42.0988C388.805 42.172 388.713 42.2635 388.585 42.3733C389.116 40.9828 389.812 39.7021 390.636 38.5677M410.786 29.8589C412.179 29.6759 413.662 29.6393 415.165 29.7674C416.905 29.9321 418.645 30.2797 420.165 30.8469C421.539 31.3591 422.767 32.0544 423.646 32.9326C424.489 33.7742 424.8 34.5792 425.13 35.494C425.276 35.8782 425.404 36.2624 425.606 36.7015C425.807 37.0858 426.009 37.5066 426.284 37.964C425.972 38.3299 425.679 38.7507 425.368 39.1898C425.093 39.5923 424.818 40.0314 424.543 40.4888L424.214 40.2326C424.012 40.0863 423.792 39.9216 423.573 39.7935C423.389 39.6472 423.188 39.5374 423.005 39.4093C422.144 37.9091 421.265 36.6101 420.294 35.5855C419.304 34.5243 418.26 33.7193 417.161 33.1521C416.117 32.6033 415.018 32.2922 413.864 32.2191C413.04 32.1459 412.197 32.1825 411.354 32.3654C412.105 31.9446 412.692 31.8531 413.04 31.7982C413.259 31.7617 413.388 31.7617 413.498 31.6702L413.846 31.3774L413.369 31.3226C410.878 31.0664 409.376 31.9629 408.442 33.3168C407.526 34.6158 407.123 36.3539 406.775 37.9091C406.647 38.4762 406.537 39.0251 406.39 39.5191L405.639 36.5186C405.493 35.9148 405.346 35.3294 405.181 34.7439C405.016 34.195 404.888 33.6644 404.723 33.1339L404.76 33.0607C404.888 32.7862 405.053 32.5118 405.254 32.2739C405.511 32.1276 405.767 31.9995 405.987 31.8714C406.244 31.7251 406.518 31.597 406.775 31.4506L408.936 30.3346L408.405 30.3712C409.12 30.1333 409.926 29.9687 410.768 29.8589M433.849 32.2008C434.344 31.6153 434.893 31.1213 435.516 30.6822C436.084 30.2797 436.725 29.9321 437.421 29.6576C437.916 29.4564 438.429 29.2917 438.978 29.1636C438.337 29.8406 437.678 30.5175 437.091 31.2311C436.377 32.0727 435.699 32.9509 435.04 33.884C434.765 33.8291 434.472 33.8108 434.197 33.7925C433.867 33.7925 433.538 33.7925 433.226 33.7925C433.061 33.7925 432.933 33.8291 432.768 33.8474H432.75C433.061 33.2619 433.428 32.6947 433.849 32.2191M392.761 32.4569C393 31.4872 393.329 30.5907 393.751 29.7857C394.007 29.2917 394.318 28.7977 394.63 28.3586C394.96 27.9012 395.308 27.4438 395.637 27.0596C395.894 27.1511 396.169 27.2975 396.443 27.4804C396.791 27.7 397.176 27.9927 397.561 28.3403C398.019 28.7245 398.513 29.2002 399.026 29.7308C399.484 30.2065 399.96 30.7554 400.437 31.3591C399.118 31.6702 397.909 32.0727 396.755 32.5484C395.509 33.079 394.392 33.6827 393.366 34.3963C393.128 34.5609 392.871 34.7439 392.633 34.9268L392.34 35.183C392.413 34.2133 392.523 33.3168 392.743 32.4752M399.979 29.1453C399.429 28.5416 398.88 28.011 398.367 27.5719C397.652 26.9681 396.993 26.5107 396.37 26.218C396.553 26.0351 396.736 25.8521 396.92 25.6874C397.194 25.4313 397.433 25.2117 397.616 25.0654L398.587 24.2604C399.173 24.7543 399.759 25.413 400.327 26.1997C400.766 26.8401 401.206 27.5719 401.609 28.3952C401.994 29.1636 402.36 30.0053 402.708 30.92L402.25 30.9932C402.067 31.0298 401.884 31.0481 401.701 31.0847C401.096 30.3712 400.547 29.7125 399.997 29.1453M430.973 31.286C432.054 29.8223 433.355 28.5782 434.875 27.517C435.974 26.7486 437.201 26.0899 438.539 25.5411C439.839 24.9922 441.25 24.5531 442.77 24.2238L443.173 24.7726L443.576 25.2849C443.1 25.6325 442.642 25.9802 442.202 26.3278C441.689 26.7303 441.213 27.1328 440.718 27.5536L440.462 27.7915C439.345 27.9378 438.319 28.1574 437.366 28.4867C436.395 28.8343 435.534 29.2734 434.747 29.8223C433.959 30.3712 433.281 31.0115 432.677 31.7617C432.091 32.4935 431.614 33.2985 431.211 34.2133C430.863 34.3231 430.534 34.4694 430.204 34.6341C429.856 34.7988 429.489 35 429.16 35.2379C428.995 35.3476 428.848 35.4574 428.683 35.5855C429.27 33.9938 430.039 32.5484 430.991 31.286M379.994 26.2363C379.096 25.5594 378.162 24.9373 377.136 24.3884C376.458 24.0225 375.762 23.6566 375.029 23.3273L374.828 23.2358C375.799 23.4736 376.715 23.7664 377.576 24.114C379.023 24.6995 380.323 25.413 381.459 26.3095C381.569 26.6754 381.679 27.023 381.789 27.3889L381.935 27.828C381.331 27.2792 380.671 26.7486 379.994 26.2546M388.237 38.7873C388.035 38.3482 387.852 37.9457 387.724 37.598C387.577 37.2321 387.449 36.8662 387.266 36.5186C387.101 36.171 386.918 35.8233 386.661 35.5123C387.119 33.4632 387.651 31.5421 388.273 29.9138C388.878 28.2854 389.556 26.9315 390.252 25.9253C390.966 24.919 391.736 24.1506 392.56 23.6749C393.384 23.1809 394.245 22.9431 395.143 22.9613C396.095 22.9613 396.993 23.2175 397.854 23.7298C398.055 23.8761 398.275 24.0042 398.458 24.1872L397.341 24.7726C397.011 24.9373 396.681 25.1569 396.37 25.3398C396.095 25.5228 395.821 25.7057 395.546 25.907C395.124 25.7972 394.703 25.7789 394.337 25.8704C393.915 25.9253 393.549 26.1265 393.219 26.3827C393.054 26.529 392.908 26.6571 392.78 26.8584C392.633 27.023 392.523 27.2243 392.395 27.4255L392.102 27.9744L392.688 27.7C392.688 27.7 392.835 27.5902 392.926 27.4987C393.164 27.2426 393.622 26.8035 394.538 26.8401C394.209 27.1694 393.915 27.4987 393.622 27.8829C393.274 28.3586 392.945 28.8709 392.67 29.4015C392.157 30.3712 391.772 31.414 391.534 32.585C391.278 33.7193 391.149 34.9634 391.131 36.299C390.6 36.8113 390.142 37.3785 389.702 37.964C389.318 38.4579 388.969 39.0068 388.64 39.574C388.475 39.2996 388.347 39.0617 388.218 38.8056M426.668 36.1893C426.522 35.8599 426.412 35.5123 426.284 35.2013C425.899 34.1584 425.569 33.2436 424.543 32.2374C424.415 32.1093 424.287 31.9812 424.14 31.8714C424.012 31.7617 423.884 31.6519 423.756 31.5604C423.151 30.3712 422.345 29.2368 421.356 28.1391C420.385 27.0413 419.213 25.9802 417.821 24.9739C416.685 24.114 415.403 23.309 413.992 22.5405C412.93 21.9551 411.776 21.3513 410.53 20.8207C412.087 21.0037 413.553 21.2964 414.945 21.6989C416.722 22.2112 418.407 22.8882 419.964 23.7298C421.759 24.7177 423.408 25.9253 424.91 27.3524C426.375 28.7611 427.713 30.4078 428.903 32.2556C428.464 33.0058 428.079 33.7742 427.731 34.5975C427.438 35.2928 427.163 36.0246 426.943 36.7747C426.833 36.5735 426.76 36.3722 426.668 36.1893ZM433.355 24.5165C433.611 23.4553 433.977 22.4491 434.454 21.5526C434.747 20.9854 435.076 20.4548 435.443 19.9425C435.809 19.4119 436.194 18.918 436.579 18.4606C436.872 18.5886 437.165 18.735 437.513 18.9363C437.897 19.1924 438.319 19.5034 438.758 19.8876C439.271 20.3267 439.803 20.8573 440.389 21.4611C440.902 22.01 441.433 22.6137 442.001 23.2907C440.517 23.6566 439.143 24.0774 437.879 24.6263C436.524 25.1934 435.26 25.8887 434.124 26.6571C433.867 26.8401 433.593 27.0413 433.3 27.2609C433.171 27.3524 433.061 27.4438 432.933 27.5536C433.006 26.4742 433.135 25.4496 433.391 24.4982M385.874 24.0225C385.562 23.4187 385.251 22.8333 384.939 22.2844C384.903 21.6257 384.976 20.8939 385.031 20.1804C385.123 19.2107 385.214 18.241 385.086 17.3079C385.306 17.7653 385.471 18.1861 385.654 18.6435C386.002 19.6132 386.313 20.6195 386.551 21.6623C386.79 22.6869 386.991 23.7481 387.119 24.8275L386.661 25.5594C386.405 25.0288 386.13 24.5165 385.874 24.0225ZM445.298 25.5594L444.602 24.6263L444.107 23.9859C443.887 23.7115 443.393 23.1809 443.228 22.9065C442.972 22.5954 442.715 22.2661 442.44 21.9551C442.166 21.644 441.891 21.333 441.598 21.022C441.25 20.6378 440.92 20.2901 440.59 19.9608C440.26 19.6315 439.949 19.3388 439.638 19.0826C439.18 18.6984 438.758 18.3691 438.337 18.0946C438.026 17.8934 437.696 17.7104 437.385 17.5641C437.604 17.3445 437.824 17.125 438.007 16.942C438.3 16.6676 438.575 16.4297 438.777 16.2651L439.857 15.3503C440.535 15.9174 441.195 16.6493 441.799 17.5458C442.111 17.9849 442.404 18.4423 442.697 18.9545C442.972 19.4485 443.246 19.9974 443.539 20.5829C443.723 20.9488 443.887 21.3513 444.071 21.7538C444.236 22.1746 444.4 22.5954 444.565 23.0162C444.822 23.6749 445.06 24.3701 445.28 25.0654C445.371 25.3581 445.481 25.6508 445.554 25.9436L445.28 25.5594H445.298ZM376.037 22.5039C374.022 21.9185 371.75 21.5709 369.277 21.4611L364.789 21.2598L365.687 19.8693C367.501 17.125 369.241 15.3503 370.871 14.5452C372.446 13.7768 373.93 13.9781 375.341 15.0941C376.367 15.8991 377.356 17.1067 378.308 18.7716C379.206 20.3084 380.067 22.2295 380.891 24.5897C379.462 23.7115 377.85 22.9979 376.055 22.4857M428.335 29.2551C427.804 28.5965 427.273 27.9744 426.705 27.3889C427.2 25.1569 427.749 23.1992 428.39 21.516C429.05 19.7779 429.782 18.3508 430.588 17.2164C431.394 16.0821 432.274 15.2405 433.171 14.6916C434.069 14.1427 435.04 13.8683 436.047 13.9049H436.066C437.128 13.9049 438.154 14.1793 439.088 14.7831C439.326 14.9295 439.583 15.0941 439.803 15.2954L438.539 15.9723C438.154 16.1736 437.788 16.3931 437.439 16.6127C437.128 16.8322 436.817 17.0518 436.524 17.2713C436.029 17.1433 435.571 17.125 435.168 17.2164C434.71 17.2896 434.307 17.4909 433.941 17.7836C433.776 17.93 433.611 18.0946 433.446 18.2776C433.281 18.4606 433.153 18.6801 433.025 18.9363L432.732 19.4851L433.318 19.1924C433.318 19.1924 433.501 19.0826 433.574 18.9728C433.849 18.6984 434.38 18.1861 435.424 18.2227C435.058 18.5886 434.71 18.9911 434.399 19.4119C433.996 19.9242 433.648 20.4914 433.336 21.0952C432.787 22.1563 432.347 23.3273 432.054 24.6263C431.779 25.907 431.633 27.2792 431.614 28.7611C431.211 29.1636 430.827 29.5844 430.479 30.0236C430.185 30.3895 429.892 30.7737 429.618 31.1579C429.178 30.4992 428.72 29.8772 428.28 29.2917M372.007 12.5693C373.179 12.1485 374.388 12.2217 375.634 12.8071C377.246 13.539 378.913 15.0758 380.69 17.3811C382.448 19.7047 384.262 22.7967 386.13 26.6571C385.745 27.3158 385.361 27.9744 384.994 28.6697C384.683 29.2368 384.372 29.7857 384.06 30.3529C383.859 29.6027 383.657 28.8892 383.456 28.194C383.199 27.3524 382.961 26.5839 382.723 25.8338L382.796 25.7606L382.65 25.6508C381.697 22.7052 380.671 20.345 379.627 18.4789C378.565 16.5761 377.447 15.1856 376.257 14.2342C374.993 13.2279 373.674 12.8071 372.282 12.9718C371.586 13.045 370.889 13.2828 370.157 13.667C370.761 13.1731 371.384 12.8071 372.007 12.5876M385.544 34.1767C385.342 34.0303 385.123 33.884 384.921 33.7559L384.701 32.8777L384.482 32.0178C386.716 27.7549 388.915 24.0957 391.039 21.1318C393.146 18.1678 395.143 15.9174 397.011 14.4172C397.817 13.7768 398.605 13.2828 399.356 12.9169C399.96 12.6242 400.565 12.4046 401.133 12.2766L400.858 12.8437C399.173 13.4109 397.616 14.5269 396.187 16.137C394.776 17.747 393.494 19.9059 392.358 22.5771C391.827 22.8516 391.333 23.2175 390.856 23.6749C390.362 24.1323 389.885 24.6812 389.446 25.3032C388.75 26.3095 388.072 27.6634 387.449 29.2734C386.863 30.792 386.332 32.5484 385.874 34.4512C385.764 34.3597 385.672 34.2865 385.562 34.195M402.14 12.1485C402.653 12.1119 403.129 12.1485 403.624 12.2766C403.771 12.3131 403.917 12.3497 404.082 12.4046C403.807 12.4046 403.532 12.4046 403.258 12.4046C402.781 12.4412 402.305 12.4961 401.847 12.6059L402.14 12.1485ZM407.288 13.0084C406.537 12.368 405.749 11.8923 404.943 11.563C404.265 11.2886 403.569 11.1239 402.836 11.0873L403.881 9.49559C405.896 6.44018 407.819 4.46422 409.632 3.58602C411.391 2.72611 413.04 2.92737 414.633 4.17149C417.912 6.7695 420.935 13.5573 423.664 24.5165C423.298 24.2421 422.931 23.9676 422.547 23.7298C421.979 23.3822 421.411 23.0162 420.807 22.7052C418.883 21.644 416.795 20.8573 414.542 20.2901C412.307 19.723 409.889 19.4119 407.324 19.3571L404.064 19.2656L407.05 20.4182C409.12 21.2232 410.988 22.0648 412.673 22.9613C414.377 23.8395 415.879 24.7726 417.198 25.7606C418.242 26.5473 419.195 27.3706 420.019 28.194C420.642 28.8526 421.21 29.5113 421.704 30.1882C420.916 29.8406 420.074 29.5479 419.213 29.3283C417.986 28.999 416.722 28.7794 415.421 28.6697C413.479 28.505 411.501 28.5965 409.761 28.9258C408.112 29.2368 406.647 29.7857 405.566 30.5541C405.291 30.5907 405.016 30.609 404.741 30.6273C404.522 30.6639 404.284 30.6639 404.064 30.7005C403.679 29.7125 403.294 28.7977 402.873 27.9561C402.433 27.0962 401.994 26.3095 401.517 25.6325C400.638 24.3701 399.686 23.4187 398.66 22.7967C397.634 22.1563 396.517 21.8453 395.326 21.8636C394.996 21.8636 394.666 21.8636 394.355 21.9185C394.172 21.9551 394.025 21.9734 393.86 22.01C394.795 19.9974 395.802 18.3325 396.901 17.0335C397.909 15.8443 398.971 14.9478 400.107 14.3623L400.015 14.5452L400.4 14.7099L400.895 13.9964C401.756 13.6305 402.672 13.4475 403.606 13.4109C404.577 13.4109 405.602 13.539 406.665 13.85L409.156 14.5818L407.269 12.9718L407.288 13.0084ZM425.679 26.1814C425.551 26.0533 425.423 25.9436 425.295 25.8155C425.185 25.413 425.093 24.9739 424.983 24.5165C424.855 24.0591 424.763 23.6383 424.653 23.2541C427.145 18.552 429.489 14.6184 431.779 11.4349C434.051 8.25147 436.212 5.83641 438.282 4.18978C439.949 2.85418 441.543 2.03087 443.063 1.75643C444.162 1.53688 445.243 1.61007 446.287 1.95769C443.723 1.86621 441.378 2.63463 439.29 4.29956C436.89 6.20233 434.82 9.27604 433.043 13.4841C432.439 13.7951 431.871 14.1976 431.321 14.6916C430.753 15.2039 430.222 15.826 429.709 16.5395C428.885 17.7104 428.134 19.1375 427.456 20.839C426.852 22.4308 426.302 24.2238 425.807 26.2912L425.661 26.1448L425.679 26.1814ZM410.732 1.4454C412.05 0.988006 413.406 1.06119 414.78 1.70155C416.575 2.52486 418.462 4.22638 420.422 6.82439C422.382 9.4224 424.415 12.8986 426.522 17.253C426.082 17.9849 425.661 18.735 425.221 19.4851C424.855 20.1438 424.507 20.7841 424.14 21.4794C422.858 16.7773 421.521 12.9535 420.092 9.95298C418.608 6.82439 417.051 4.61059 415.421 3.31158C414.01 2.19553 412.545 1.71984 411.006 1.9211C410.164 2.01258 409.303 2.3236 408.442 2.81759C409.193 2.17724 409.944 1.71984 410.695 1.4454M402.708 8.96501L401.682 11.0873C400.803 11.1605 399.924 11.4349 399.045 11.8375C398.11 12.2766 397.158 12.862 396.205 13.6305C394.923 14.655 393.586 16.0272 392.194 17.6921C390.911 19.2656 389.574 21.1135 388.2 23.2175C388.072 22.4491 387.907 21.6806 387.724 20.9305C387.467 19.9974 387.193 19.1009 386.863 18.2227C386.478 17.1981 386.039 16.2285 385.526 15.2771C385.013 14.3257 384.445 13.4292 383.822 12.551L380.378 7.77577L382.796 13.0267C383.034 13.539 383.254 14.1244 383.437 14.7648C383.639 15.46 383.84 16.2102 383.987 16.9969C384.188 17.9666 384.097 19.046 383.987 20.1072L383.95 20.3267C382.65 18.2044 381.404 16.4297 380.158 15.0575C378.785 13.539 377.429 12.4778 376.128 11.874C375.982 11.8192 375.835 11.746 375.689 11.6911C373.875 10.9958 372.135 11.1239 370.486 12.0753C368.856 13.0084 367.299 14.7465 365.815 17.2896C365.467 17.9117 365.101 18.5703 364.753 19.3022L363.855 21.0952H363.489L363.837 21.1501L362.28 24.2969L362.683 24.4616L364.716 21.3513L369.204 22.3576C370.541 22.6503 371.842 23.0345 373.069 23.5102C374.333 23.9859 375.524 24.5531 376.66 25.1751C377.74 25.7789 378.803 26.5107 379.829 27.2975C380.873 28.1208 381.862 29.0173 382.705 29.9138C382.87 30.4627 382.998 31.0115 383.163 31.5787C383.273 32.0361 383.382 32.4935 383.511 32.9692C382.778 32.6399 381.972 32.3837 381.129 32.1642C380.103 31.908 379.023 31.7251 377.905 31.6336C376.165 31.4689 374.388 31.5604 372.813 31.8714C371.292 32.1642 369.974 32.6582 369.003 33.3717C368.801 33.5181 368.6 33.6827 368.416 33.8474C368.27 33.9938 368.142 34.1218 368.013 34.2865L367.537 34.2499C367.354 34.2499 367.153 34.2499 366.951 34.2499L363.91 34.1767C365.046 34.6158 366.163 35.0366 367.299 35.4757C367.171 35.7685 367.098 36.0795 367.043 36.4088C366.969 36.793 366.951 37.1955 366.988 37.6163C367.061 38.7873 367.043 39.8667 366.951 40.873C366.859 41.8427 366.713 42.7392 366.456 43.5259C366.218 44.2943 365.907 44.9896 365.504 45.575C365.119 46.1605 364.661 46.6545 364.148 47.0753L362.665 48.2279L364.606 47.9718C365.211 47.9169 365.797 47.7157 366.365 47.4595C366.914 47.1851 367.446 46.8192 367.959 46.3618C368.471 45.9227 368.929 45.3738 369.387 44.7517C369.827 44.1297 370.267 43.4161 370.67 42.6111C370.853 42.3001 370.963 41.9342 371.073 41.5134C371.201 41.1108 371.292 40.6717 371.402 40.2326C371.567 39.4093 371.787 38.5311 372.098 37.7078C372.74 38.0737 373.381 38.4214 373.949 38.7873C374.608 39.2081 375.249 39.6289 375.817 40.0497C376.861 40.8364 377.795 41.6414 378.583 42.483C379.261 43.2149 379.847 43.9833 380.323 44.7517H380.195C380.012 44.7517 379.829 44.7517 379.646 44.7517C378.821 44.7517 377.997 44.9347 377.209 45.2823C376.422 45.6116 375.67 46.1239 374.919 46.7826C374.15 47.4595 373.381 48.3194 372.648 49.3623C371.897 50.4051 371.183 51.6127 370.468 53.0032L368.856 56.1501L371.439 53.552C372.868 52.1067 374.315 51.0272 375.744 50.2954C377.154 49.5818 378.546 49.1976 379.939 49.161C380.342 49.4721 380.763 49.8014 381.184 50.149C381.624 50.5149 382.045 50.8991 382.43 51.3199C382.76 51.6676 383.071 52.0152 383.346 52.3994C383.602 52.7653 383.84 53.1312 384.005 53.5154V53.8814C384.005 54.9059 384.042 56.0952 384.079 57.2478V57.2844C384.115 58.3456 384.133 59.4067 384.133 60.6508V60.7972L384.024 66.78V68.1521C384.024 68.9206 384.06 69.7256 384.079 70.5306C384.115 71.5186 384.133 72.47 384.133 73.5677V73.7141L384.024 79.0565V80.4287L384.133 85.149L384.042 90.8939V91.1501H384.024C384.024 91.6623 384.024 92.1929 384.042 92.7418C384.06 93.2907 384.079 93.8213 384.079 94.3518C384.115 95.3398 384.133 96.3095 384.133 97.517V97.6451L384.06 101.469C380.708 101.688 377.337 101.945 373.985 102.274C370.56 102.603 367.153 102.969 363.745 103.408L353.945 104.634L353.982 105.018L363.874 104.854C370.138 104.744 376.66 104.652 383.364 104.598C390.014 104.543 396.956 104.524 404.174 104.524C411.391 104.524 418.755 104.524 426.229 104.598C433.739 104.652 441.451 104.744 449.346 104.854L458.927 105L458.963 104.598L449.475 103.408C446.415 103.024 443.356 102.676 440.297 102.365C437.293 102.073 434.289 101.817 431.266 101.615L431.175 96.8035L431.266 90.6378H431.321L431.175 83.1914V83.0267C431.175 82.6425 431.175 81.6179 431.211 80.4836V80.3372C431.248 79.148 431.266 77.8672 431.285 77.1354C431.285 76.9342 431.303 76.7146 431.285 76.5134L431.248 74.9033C432.091 74.4825 432.915 74.0251 433.721 73.4945C434.564 72.964 435.388 72.3602 436.121 71.7015C436.945 70.9697 437.678 70.1647 438.227 69.2865C438.795 68.4083 439.216 67.4569 439.4 66.414L439.784 64.3649L438.3 65.9749C437.531 66.8166 436.908 66.9629 436.23 67.1459C436.011 67.2008 435.754 67.2556 435.534 67.3288C435.278 67.4203 434.985 67.5118 434.692 67.6765C434.234 67.896 433.794 68.1521 433.373 68.4449C432.933 68.7193 432.512 69.0486 432.091 69.4146C431.889 69.6158 431.651 69.8171 431.449 70.0366L431.193 70.2928V70.1281L431.303 64.0905H431.321V63.3403V62.6085H431.303L431.193 55.7475L431.321 47.7157C431.321 47.24 431.468 44.7517 431.724 42.7026C431.889 41.5134 432.091 40.4888 432.329 40.0863C432.768 39.3361 433.336 38.8056 434.051 38.5311C434.747 38.2384 435.571 38.1835 436.542 38.3665C437.806 38.6043 439.216 39.0983 440.773 39.8484C442.33 40.6169 444.034 41.6231 445.902 42.9038L449.584 45.447L446.782 42.1171C445.17 40.2326 443.631 38.6775 442.129 37.4151C440.645 36.1527 439.198 35.2196 437.788 34.6158C437.513 34.4877 437.238 34.378 436.963 34.2865C436.78 34.2316 436.615 34.1767 436.432 34.1218C437.971 31.9629 439.729 30.0236 441.726 28.2854C442.184 27.8829 442.66 27.4987 443.118 27.1145C443.521 26.7852 443.961 26.4742 444.4 26.1448C444.73 26.6022 445.078 27.0962 445.426 27.5902C445.829 28.1574 446.232 28.7611 446.635 29.3649L448.614 32.2739L447.789 28.9624C447.423 27.4255 447.02 26.0168 446.599 24.6812C446.983 24.4433 447.368 24.2421 447.753 24.0225C448.174 23.7664 448.614 23.5468 449.072 23.309L451.38 22.1197L448.724 22.2844C448.192 22.321 447.679 22.3393 447.166 22.3942C446.727 22.4491 446.287 22.4857 445.848 22.5588C445.426 21.4428 444.987 20.4182 444.51 19.4851C444.034 18.5154 443.539 17.6555 442.99 16.8871C442.037 15.4966 440.957 14.4538 439.839 13.7585C438.685 13.0633 437.458 12.7157 436.157 12.734C435.809 12.734 435.461 12.734 435.113 12.7888C434.93 12.8254 434.728 12.8437 434.527 12.8986C436.304 8.94671 438.392 6.18403 440.755 4.62888C443.173 3.01885 445.903 2.67123 448.943 3.54943L451.599 4.33615L449.566 2.61634C447.734 1.07949 445.793 0.365947 443.723 0.494018C441.671 0.622089 439.546 1.59177 437.311 3.36647C435.699 4.64718 434.032 6.38529 432.329 8.5442C430.662 10.6299 428.976 13.1182 427.218 16.0272C425.148 11.8558 423.151 8.5259 421.21 5.98278C419.176 3.36647 417.198 1.61007 415.293 0.731864C414.267 0.274467 413.278 0.0366211 412.307 0.0366211C408.808 0.0366211 405.602 3.01885 402.672 9.0016" fill="white"/>
</mask>
<g mask="url(#mask0_360_40333)">
<path d="M459 0H354V105H459V0Z" fill="url(#paint0_linear_360_40333)"/>
</g>
</g>
<path d="M91.7646 105.905L113.761 126.957H188.438L197.652 118.611H237.236H197.652L188.438 126.957H113.761L91.7646 105.905Z" stroke="url(#paint1_linear_360_40333)" stroke-miterlimit="10"/>
<path d="M0 105L66 105L0 105Z" stroke="url(#paint2_linear_360_40333)" stroke-miterlimit="10"/>
<path d="M68.2568 105.112H89.7281H68.2568Z" stroke="url(#paint3_linear_360_40333)" stroke-miterlimit="10"/>
<path d="M92.1006 105.112H103.623H92.1006Z" stroke="url(#paint4_linear_360_40333)" stroke-miterlimit="10"/>
<path d="M337 105H483H337Z" stroke="url(#paint5_linear_360_40333)" stroke-miterlimit="10"/>
<mask id="mask1_360_40333" style="mask-type:luminance" maskUnits="userSpaceOnUse" x="103" y="70" width="229" height="45">
<path d="M291.323 104.486H299.844V80.7431H291.323V104.486ZM280.409 85.4375V80.7431H272.076V104.486H280.598V94.3672C280.598 92.1557 281.08 90.57 282.067 89.5894C283.032 88.6088 284.459 88.1081 286.348 88.1081H288.573V80.5136C288.069 80.4302 287.503 80.3676 286.852 80.3676C283.389 80.3676 281.248 82.0576 280.409 85.4375ZM252.725 95.7442C252.011 94.9514 251.654 93.6996 251.654 92.0096C251.654 90.3196 252.011 89.047 252.725 88.1498C253.439 87.2527 254.467 86.8145 255.831 86.8145C257.195 86.8145 258.224 87.2318 258.937 88.0664C259.651 88.9009 260.008 90.1527 260.008 91.8427C260.008 93.5327 259.651 94.8054 258.937 95.6608C258.224 96.5162 257.195 96.9543 255.831 96.9543C254.467 96.9543 253.439 96.5579 252.725 95.7651M249.073 81.0561C247.814 81.6194 246.743 82.4331 245.862 83.4763C244.98 84.5195 244.309 85.7505 243.826 87.1483C243.343 88.5671 243.112 90.1319 243.112 91.8427C243.112 93.5535 243.364 95.0975 243.847 96.5371C244.35 97.9767 245.043 99.2285 245.946 100.272C246.848 101.315 247.96 102.129 249.241 102.713C250.521 103.297 251.927 103.589 253.48 103.589C255.034 103.589 256.356 103.318 257.363 102.754C258.371 102.191 259.21 101.461 259.861 100.501V104.173C259.861 105.279 259.546 106.155 258.916 106.844C258.287 107.511 257.3 107.866 255.978 107.866C253.48 107.866 252.179 106.906 252.095 104.966H243.721C243.784 106.322 244.078 107.532 244.581 108.659C245.085 109.765 245.841 110.724 246.827 111.538C247.814 112.352 249.052 112.978 250.563 113.416C252.053 113.854 253.795 114.084 255.768 114.084C259.819 114.084 262.925 113.186 265.108 111.413C267.291 109.64 268.403 107.115 268.403 103.86V80.764H260.071V83.6641C259.42 82.6209 258.56 81.7863 257.447 81.1604C256.356 80.5345 254.971 80.2216 253.313 80.2216C251.78 80.2216 250.374 80.5136 249.094 81.077M291.575 77.8431H299.634V71.876H291.575V77.8013V77.8431ZM103.854 71.73V79.9086H113.571V104.465H122.827V79.9295H132.545V71.73H103.854ZM133.93 71.73V79.9086H143.648V104.465H152.904V79.9295H162.621V71.73H133.93ZM223.572 85.062C223.845 84.2065 224.118 83.3511 224.39 82.4957C224.642 81.6403 224.915 80.764 225.146 79.8669C225.398 80.764 225.65 81.6194 225.902 82.4957C226.153 83.3511 226.426 84.2065 226.72 85.062L229.176 92.6147H221.158L223.572 85.062ZM219.647 71.73L207.935 104.486H217.38L218.766 100.209H231.673L233.059 104.486H242.86L230.729 71.73H219.626H219.647ZM172.444 72.189C170.345 72.9818 168.561 74.1293 167.113 75.6106C165.665 77.092 164.552 78.8863 163.776 80.9935C162.999 83.1008 162.621 85.4584 162.621 88.1081C162.621 90.7578 163.02 93.0737 163.818 95.2018C164.615 97.3299 165.77 99.1242 167.239 100.606C168.729 102.087 170.492 103.234 172.591 104.027C174.69 104.82 176.977 105.216 179.517 105.216C181.658 105.216 183.631 104.924 185.478 104.34C187.325 103.756 188.983 102.88 190.41 101.732C191.837 100.585 193.013 99.1659 193.936 97.4759C194.839 95.786 195.447 93.8456 195.72 91.6341H186.464C186.128 93.4492 185.331 94.8262 184.051 95.786C182.791 96.7457 181.28 97.2464 179.517 97.2464C177.082 97.2464 175.256 96.4328 174.06 94.8262C172.864 93.2197 172.255 90.9664 172.255 88.0872C172.255 85.208 172.864 82.9964 174.06 81.3691C175.256 79.7417 177.082 78.928 179.517 78.928C181.217 78.928 182.665 79.3661 183.862 80.2216C185.058 81.077 185.877 82.3079 186.317 83.8936H195.657C195.342 81.8072 194.734 79.9712 193.789 78.3647C192.845 76.7582 191.669 75.4229 190.242 74.3171C188.815 73.2113 187.199 72.3767 185.373 71.8134C183.547 71.2501 181.595 70.958 179.496 70.958C176.872 70.958 174.522 71.3544 172.423 72.1472M310.38 71.73C308.68 72.2516 307.274 72.9818 306.162 73.8998C305.049 74.8178 304.231 75.9027 303.685 77.1128C303.139 78.3438 302.866 79.6582 302.866 81.077C302.866 84.0605 303.832 86.3972 305.784 88.1498C307.736 89.9024 310.569 91.0499 314.305 91.6758L316.887 92.0931C317.894 92.2391 318.755 92.406 319.405 92.5938C320.077 92.7816 320.602 92.9902 320.979 93.2197C321.357 93.4492 321.651 93.7413 321.819 94.0751C321.987 94.409 322.071 94.8054 322.071 95.2644C322.071 96.1824 321.672 96.9126 320.896 97.4342C320.119 97.9558 318.797 98.227 316.992 98.227C316.215 98.227 315.48 98.1645 314.788 98.0601C314.095 97.9558 313.487 97.7472 312.983 97.4134C312.479 97.1004 312.059 96.6205 311.766 96.0363C311.451 95.4313 311.283 94.6593 311.262 93.7205H302.384C302.384 95.4104 302.677 96.9543 303.286 98.3731C303.895 99.7918 304.797 101.002 306.015 102.003C307.232 103.026 308.764 103.798 310.59 104.382C312.416 104.945 314.599 105.237 317.097 105.237C319.258 105.237 321.231 105.029 322.994 104.611C324.757 104.194 326.29 103.547 327.57 102.671C328.85 101.795 329.837 100.689 330.55 99.3537C331.264 98.0184 331.621 96.4328 331.621 94.5967C331.621 91.6549 330.676 89.3808 328.766 87.7951C326.877 86.2095 323.897 85.062 319.867 84.3943L317.139 83.9353C315.48 83.6641 314.263 83.2885 313.487 82.8504C312.71 82.4123 312.332 81.7029 312.332 80.7014C312.332 79.846 312.668 79.1784 313.319 78.6985C313.99 78.2186 315.061 77.9891 316.53 77.9891C318.356 77.9891 319.657 78.3021 320.455 78.928C321.252 79.5539 321.693 80.5136 321.756 81.8072H330.466C330.277 78.1978 328.976 75.4855 326.583 73.6912C324.17 71.8969 320.791 70.9997 316.404 70.9997C314.095 70.9997 312.08 71.2501 310.38 71.7926" fill="white"/>
</mask>
<g mask="url(#mask1_360_40333)">
<path d="M331.642 70.9995H103.854V114.062H331.642V70.9995Z" fill="url(#paint6_linear_360_40333)"/>
</g>
<circle cx="67" cy="105" r="1.5" fill="white" stroke="url(#paint7_linear_360_40333)"/>
<circle cx="91" cy="105" r="1.5" fill="white" stroke="url(#paint8_linear_360_40333)"/>
<circle cx="105" cy="105" r="1.5" fill="white" stroke="url(#paint9_linear_360_40333)"/>
<circle cx="238" cy="119" r="1.5" fill="white" stroke="url(#paint10_linear_360_40333)"/>
<circle cx="336" cy="105" r="1.5" fill="white" stroke="url(#paint11_linear_360_40333)"/>
<mask id="path-15-inside-1_360_40333" fill="white">
<path d="M289.493 104.73H298.014V80.844H289.493V104.73ZM278.578 85.5665V80.844H270.246V104.73H278.767V94.5499C278.767 92.3251 279.25 90.7299 280.237 89.7434C281.202 88.7569 282.629 88.2532 284.518 88.2532H286.743V80.6131C286.239 80.5291 285.673 80.4661 285.022 80.4661C281.559 80.4661 279.418 82.1663 278.578 85.5665ZM250.894 95.9352C250.181 95.1376 249.824 93.8783 249.824 92.1781C249.824 90.478 250.181 89.1977 250.894 88.2951C251.608 87.3926 252.636 86.9518 254.001 86.9518C255.365 86.9518 256.393 87.3716 257.107 88.2112C257.821 89.0507 258.177 90.3101 258.177 92.0102C258.177 93.7104 257.821 94.9907 257.107 95.8513C256.393 96.7118 255.365 97.1526 254.001 97.1526C252.636 97.1526 251.608 96.7538 250.894 95.9562M247.242 81.1588C245.983 81.7255 244.912 82.5441 244.031 83.5935C243.149 84.643 242.478 85.8814 241.995 87.2877C241.512 88.7149 241.281 90.2891 241.281 92.0102C241.281 93.7313 241.533 95.2846 242.016 96.7328C242.52 98.1811 243.212 99.4404 244.115 100.49C245.017 101.539 246.13 102.358 247.41 102.946C248.69 103.533 250.097 103.827 251.65 103.827C253.203 103.827 254.525 103.554 255.533 102.988C256.54 102.421 257.38 101.686 258.03 100.721V104.415C258.03 105.527 257.716 106.409 257.086 107.101C256.456 107.773 255.47 108.13 254.148 108.13C251.65 108.13 250.349 107.164 250.265 105.212H241.89C241.953 106.577 242.247 107.794 242.751 108.928C243.254 110.04 244.01 111.005 244.996 111.824C245.983 112.643 247.221 113.272 248.732 113.713C250.223 114.154 251.965 114.385 253.938 114.385C257.988 114.385 261.095 113.482 263.278 111.698C265.46 109.914 266.573 107.374 266.573 104.1V80.8649H258.24V83.7824C257.59 82.733 256.729 81.8934 255.617 81.2637C254.525 80.6341 253.14 80.3192 251.482 80.3192C249.95 80.3192 248.544 80.6131 247.263 81.1798M289.744 77.9264H297.804V71.9235H289.744V77.8845V77.9264ZM102 71.7766V80.0044H111.718V104.709H120.974V80.0254H130.692V71.7766H102ZM132.077 71.7766V80.0044H141.795V104.709H151.051V80.0254H160.769V71.7766H132.077ZM221.72 85.1887C221.993 84.3282 222.266 83.4676 222.538 82.6071C222.79 81.7465 223.063 80.8649 223.294 79.9624C223.546 80.8649 223.798 81.7255 224.05 82.6071C224.302 83.4676 224.574 84.3282 224.868 85.1887L227.324 92.7868H219.306L221.72 85.1887ZM217.795 71.7766L206.083 104.73H215.528L216.913 100.427H229.822L231.207 104.73H241.009L228.898 71.7766H217.795ZM170.591 72.2384C168.492 73.036 166.708 74.1904 165.26 75.6806C163.812 77.1708 162.699 78.9759 161.923 81.0958C161.146 83.2157 160.769 85.5875 160.769 88.2532C160.769 90.9188 161.167 93.2486 161.965 95.3895C162.762 97.5304 163.917 99.3355 165.386 100.826C166.876 102.316 168.639 103.47 170.738 104.268C172.837 105.066 175.125 105.464 177.664 105.464C179.805 105.464 181.778 105.17 183.625 104.583C185.472 103.995 187.13 103.114 188.558 101.959C189.985 100.805 191.16 99.3775 192.084 97.6773C192.986 95.9772 193.595 94.0252 193.868 91.8003H184.612C184.276 93.6264 183.478 95.0117 182.198 95.9772C180.939 96.9427 179.428 97.4464 177.664 97.4464C175.23 97.4464 173.404 96.6279 172.207 95.0117C171.011 93.3955 170.402 91.1287 170.402 88.2322C170.402 85.3357 171.011 83.1108 172.207 81.4736C173.404 79.8365 175.23 79.0179 177.664 79.0179C179.365 79.0179 180.813 79.4587 182.009 80.3192C183.206 81.1798 184.024 82.4181 184.465 84.0133H193.805C193.49 81.9144 192.881 80.0674 191.937 78.4512C190.992 76.835 189.817 75.4917 188.39 74.3793C186.963 73.2668 185.346 72.4273 183.52 71.8606C181.694 71.2938 179.742 71 177.643 71C175.02 71 172.669 71.3988 170.57 72.1964M308.529 71.7766C306.829 72.3013 305.423 73.036 304.311 73.9595C303.198 74.883 302.38 75.9745 301.834 77.1918C301.288 78.4302 301.015 79.7525 301.015 81.1798C301.015 84.1812 301.981 86.532 303.933 88.2951C305.885 90.0582 308.718 91.2126 312.454 91.8423L315.036 92.2621C316.043 92.409 316.904 92.5769 317.555 92.7658C318.226 92.9547 318.751 93.1646 319.129 93.3955C319.507 93.6264 319.8 93.9203 319.968 94.2561C320.136 94.5919 320.22 94.9907 320.22 95.4525C320.22 96.376 319.821 97.1106 319.045 97.6353C318.268 98.1601 316.946 98.4329 315.141 98.4329C314.364 98.4329 313.63 98.37 312.937 98.265C312.244 98.1601 311.636 97.9502 311.132 97.6144C310.628 97.2995 310.208 96.8168 309.915 96.2291C309.6 95.6204 309.432 94.8438 309.411 93.8993H300.533C300.533 95.5994 300.827 97.1526 301.435 98.5799C302.044 100.007 302.946 101.225 304.164 102.232C305.381 103.26 306.913 104.037 308.739 104.625C310.565 105.191 312.748 105.485 315.246 105.485C317.408 105.485 319.381 105.275 321.144 104.856C322.907 104.436 324.439 103.785 325.719 102.904C326.999 102.022 327.986 100.91 328.7 99.5664C329.413 98.223 329.77 96.6279 329.77 94.7808C329.77 91.8213 328.826 89.5335 326.916 87.9383C325.027 86.3431 322.046 85.1887 318.016 84.5171L315.288 84.0553C313.63 83.7824 312.412 83.4046 311.636 82.9639C310.859 82.5231 310.481 81.8095 310.481 80.802C310.481 79.9414 310.817 79.2698 311.468 78.787C312.139 78.3043 313.21 78.0734 314.679 78.0734C316.505 78.0734 317.806 78.3882 318.604 79.0179C319.402 79.6476 319.842 80.6131 319.905 81.9144H328.616C328.427 78.2833 327.125 75.5547 324.733 73.7496C322.319 71.9445 318.94 71.042 314.553 71.042C312.244 71.042 310.229 71.2938 308.529 71.8396"/>
</mask>
<path d="M289.493 104.73H288.493V105.73H289.493V104.73ZM298.014 104.73V105.73H299.014V104.73H298.014ZM298.014 80.844H299.014V79.844H298.014V80.844ZM289.493 80.844V79.844H288.493V80.844H289.493ZM278.578 85.5665H277.578L279.549 85.8062L278.578 85.5665ZM278.578 80.844H279.578V79.844H278.578V80.844ZM270.246 80.844V79.844H269.246V80.844H270.246ZM270.246 104.73H269.246V105.73H270.246V104.73ZM278.767 104.73V105.73H279.767V104.73H278.767ZM280.237 89.7434L280.944 90.4505L280.951 90.4428L280.237 89.7434ZM286.743 88.2532V89.2532H287.743V88.2532H286.743ZM286.743 80.6131H287.743V79.7659L286.907 79.6267L286.743 80.6131ZM241.995 87.2877L241.049 86.963L241.048 86.9673L241.995 87.2877ZM242.016 96.7328L241.067 97.0491L241.072 97.0613L242.016 96.7328ZM258.03 100.721H259.03V97.4475L257.201 100.162L258.03 100.721ZM257.086 107.101L257.815 107.785L257.821 107.78L257.826 107.774L257.086 107.101ZM250.265 105.212L251.264 105.169L251.223 104.212H250.265V105.212ZM241.89 105.212V104.212H240.843L240.891 105.259L241.89 105.212ZM242.751 108.928L241.837 109.334L241.84 109.34L242.751 108.928ZM248.732 113.713L249.016 112.754L249.012 112.753L248.732 113.713ZM266.573 80.8649H267.573V79.8649H266.573V80.8649ZM258.24 80.8649V79.8649H257.24V80.8649H258.24ZM258.24 83.7824L257.39 84.3094L259.24 87.2932V83.7824H258.24ZM255.617 81.2637L255.117 82.1299L255.124 82.134L255.617 81.2637ZM289.744 77.9264H288.744V78.9264H289.744V77.9264ZM297.804 77.9264V78.9264H298.804V77.9264H297.804ZM297.804 71.9235H298.804V70.9235H297.804V71.9235ZM289.744 71.9235V70.9235H288.744V71.9235H289.744ZM102 71.7766V70.7766H101V71.7766H102ZM102 80.0044H101V81.0044H102V80.0044ZM111.718 80.0044H112.718V79.0044H111.718V80.0044ZM111.718 104.709H110.718V105.709H111.718V104.709ZM120.974 104.709V105.709H121.974V104.709H120.974ZM120.974 80.0254V79.0254H119.974V80.0254H120.974ZM130.692 80.0254V81.0254H131.692V80.0254H130.692ZM130.692 71.7766H131.692V70.7766H130.692V71.7766ZM132.077 71.7766V70.7766H131.077V71.7766H132.077ZM132.077 80.0044H131.077V81.0044H132.077V80.0044ZM141.795 80.0044H142.795V79.0044H141.795V80.0044ZM141.795 104.709H140.795V105.709H141.795V104.709ZM151.051 104.709V105.709H152.051V104.709H151.051ZM151.051 80.0254V79.0254H150.051V80.0254H151.051ZM160.769 80.0254V81.0254H161.769V80.0254H160.769ZM160.769 71.7766H161.769V70.7766H160.769V71.7766ZM221.72 85.1887L222.673 85.4915L222.673 85.491L221.72 85.1887ZM222.538 82.6071L223.492 82.9093L223.495 82.8987L223.498 82.8879L222.538 82.6071ZM223.294 79.9624L224.257 79.6936L223.252 76.0916L222.325 79.7146L223.294 79.9624ZM224.05 82.6071L223.088 82.8818L223.09 82.8879L224.05 82.6071ZM224.868 85.1887L225.82 84.8812L225.817 84.8734L225.815 84.8656L224.868 85.1887ZM227.324 92.7868V93.7868H228.698L228.275 92.4793L227.324 92.7868ZM219.306 92.7868L218.353 92.4841L217.939 93.7868H219.306V92.7868ZM217.795 71.7766V70.7766H217.089L216.853 71.4417L217.795 71.7766ZM206.083 104.73L205.141 104.395L204.667 105.73H206.083V104.73ZM215.528 104.73V105.73H216.257L216.48 105.036L215.528 104.73ZM216.913 100.427V99.4269H216.185L215.962 100.12L216.913 100.427ZM229.822 100.427L230.773 100.12L230.55 99.4269H229.822V100.427ZM231.207 104.73L230.255 105.036L230.478 105.73H231.207V104.73ZM241.009 104.73V105.73H242.441L241.947 104.385L241.009 104.73ZM228.898 71.7766L229.837 71.4317L229.596 70.7766H228.898V71.7766ZM165.386 100.826L164.674 101.528L164.679 101.533L165.386 100.826ZM192.084 97.6773L192.963 98.1547L192.967 98.1462L192.084 97.6773ZM193.868 91.8003L194.86 91.9221L194.998 90.8003H193.868V91.8003ZM184.612 91.8003V90.8003H183.779L183.628 91.6195L184.612 91.8003ZM182.198 95.9772L181.596 95.1788L181.59 95.1836L182.198 95.9772ZM184.465 84.0133L183.501 84.2797L183.704 85.0133H184.465V84.0133ZM193.805 84.0133V85.0133H194.966L194.794 83.865L193.805 84.0133ZM301.834 77.1918L300.921 76.7828L300.919 76.7886L301.834 77.1918ZM312.454 91.8423L312.288 92.8284L312.294 92.8294L312.454 91.8423ZM315.036 92.2621L314.875 93.2491L314.883 93.2505L314.892 93.2516L315.036 92.2621ZM317.555 92.7658L317.276 93.7262L317.284 93.7285L317.555 92.7658ZM311.132 97.6144L311.687 96.7823L311.674 96.7742L311.662 96.7664L311.132 97.6144ZM309.915 96.2291L310.809 95.7818L310.803 95.7697L309.915 96.2291ZM309.411 93.8993L310.411 93.877L310.389 92.8993H309.411V93.8993ZM300.533 93.8993V92.8993H299.533V93.8993H300.533ZM304.164 102.232L304.809 101.468L304.801 101.462L304.164 102.232ZM308.739 104.625L308.433 105.577L308.443 105.58L308.739 104.625ZM326.916 87.9383L326.27 88.7024L326.275 88.7058L326.916 87.9383ZM318.016 84.5171L317.849 85.5031L317.852 85.5035L318.016 84.5171ZM315.288 84.0553L315.455 83.0693L315.45 83.0686L315.288 84.0553ZM311.468 78.787L310.884 77.975L310.878 77.9794L310.872 77.9839L311.468 78.787ZM319.905 81.9144L318.906 81.9627L318.953 82.9144H319.905V81.9144ZM328.616 81.9144V82.9144H329.669L329.614 81.8625L328.616 81.9144ZM324.733 73.7496L325.335 72.9513L325.332 72.9488L324.733 73.7496ZM289.493 105.73H298.014V103.73H289.493V105.73ZM299.014 104.73V80.844H297.014V104.73H299.014ZM298.014 79.844H289.493V81.844H298.014V79.844ZM288.493 80.844V104.73H290.493V80.844H288.493ZM279.578 85.5665V80.844H277.578V85.5665H279.578ZM278.578 79.844H270.246V81.844H278.578V79.844ZM269.246 80.844V104.73H271.246V80.844H269.246ZM270.246 105.73H278.767V103.73H270.246V105.73ZM279.767 104.73V94.5499H277.767V104.73H279.767ZM279.767 94.5499C279.767 92.4346 280.232 91.1624 280.944 90.4505L279.529 89.0363C278.268 90.2974 277.767 92.2155 277.767 94.5499H279.767ZM280.951 90.4428C281.67 89.7079 282.802 89.2532 284.518 89.2532V87.2532C282.457 87.2532 280.734 87.8059 279.522 89.0439L280.951 90.4428ZM284.518 89.2532H286.743V87.2532H284.518V89.2532ZM287.743 88.2532V80.6131H285.743V88.2532H287.743ZM286.907 79.6267C286.362 79.5357 285.739 79.4661 285.022 79.4661V81.4661C285.606 81.4661 286.117 81.5225 286.579 81.5995L286.907 79.6267ZM285.022 79.4661C283.126 79.4661 281.487 79.9339 280.195 80.9574C278.905 81.9797 278.065 83.4729 277.608 85.3268L279.549 85.8062C279.931 84.2599 280.582 83.2029 281.437 82.5251C282.291 81.8485 283.455 81.4661 285.022 81.4661V79.4661ZM251.64 95.2684C251.164 94.7367 250.824 93.7717 250.824 92.1781H248.824C248.824 93.9848 249.198 95.5385 250.149 96.602L251.64 95.2684ZM250.824 92.1781C250.824 90.6031 251.156 89.5763 251.679 88.9154L250.11 87.6749C249.205 88.8191 248.824 90.3529 248.824 92.1781H250.824ZM251.679 88.9154C252.164 88.301 252.875 87.9518 254.001 87.9518V85.9518C252.398 85.9518 251.051 86.4842 250.11 87.6749L251.679 88.9154ZM254.001 87.9518C255.145 87.9518 255.864 88.2931 256.345 88.8588L257.869 87.5635C256.923 86.4501 255.585 85.9518 254.001 85.9518V87.9518ZM256.345 88.8588C256.841 89.4429 257.177 90.4263 257.177 92.0102H259.177C259.177 90.1939 258.8 88.6586 257.869 87.5635L256.345 88.8588ZM257.177 92.0102C257.177 93.5934 256.842 94.6045 256.337 95.2129L257.877 96.4896C258.799 95.3769 259.177 93.8273 259.177 92.0102H257.177ZM256.337 95.2129C255.85 95.8005 255.129 96.1526 254.001 96.1526V98.1526C255.6 98.1526 256.937 97.6232 257.877 96.4896L256.337 95.2129ZM254.001 96.1526C252.84 96.1526 252.116 95.8215 251.64 95.2894L250.149 96.623C251.1 97.6861 252.433 98.1526 254.001 98.1526V96.1526ZM246.832 80.2469C245.433 80.8766 244.241 81.7881 243.265 82.9504L244.797 84.2367C245.583 83.3001 246.533 82.5744 247.653 82.0707L246.832 80.2469ZM243.265 82.9504C242.294 84.1067 241.566 85.4571 241.049 86.963L242.941 87.6123C243.389 86.3056 244.005 85.1793 244.797 84.2367L243.265 82.9504ZM241.048 86.9673C240.524 88.5151 240.281 90.2002 240.281 92.0102H242.281C242.281 90.3781 242.5 88.9147 242.942 87.608L241.048 86.9673ZM240.281 92.0102C240.281 93.832 240.549 95.4925 241.067 97.049L242.965 96.4166C242.518 95.0766 242.281 93.6307 242.281 92.0102H240.281ZM241.072 97.0613C241.61 98.6086 242.36 99.9827 243.357 101.142L244.873 99.8379C244.065 98.8981 243.43 97.7535 242.961 96.4043L241.072 97.0613ZM243.357 101.142C244.359 102.307 245.59 103.21 246.993 103.854L247.827 102.037C246.67 101.505 245.676 100.772 244.873 99.8379L243.357 101.142ZM246.993 103.854C248.416 104.508 249.967 104.827 251.65 104.827V102.827C250.227 102.827 248.965 102.559 247.827 102.037L246.993 103.854ZM251.65 104.827C253.306 104.827 254.816 104.538 256.023 103.859L255.043 102.116C254.235 102.57 253.1 102.827 251.65 102.827V104.827ZM256.023 103.859C257.151 103.225 258.113 102.388 258.86 101.28L257.201 100.162C256.647 100.984 255.93 101.617 255.043 102.116L256.023 103.859ZM257.03 100.721V104.415H259.03V100.721H257.03ZM257.03 104.415C257.03 105.322 256.781 105.95 256.346 106.429L257.826 107.774C258.65 106.867 259.03 105.732 259.03 104.415H257.03ZM256.356 106.418C255.979 106.82 255.302 107.13 254.148 107.13V109.13C255.637 109.13 256.933 108.726 257.815 107.785L256.356 106.418ZM254.148 107.13C253.003 107.13 252.303 106.905 251.9 106.603C251.541 106.334 251.296 105.913 251.264 105.169L249.266 105.255C249.318 106.464 249.765 107.502 250.701 108.204C251.594 108.872 252.794 109.13 254.148 109.13V107.13ZM250.265 104.212H241.89V106.212H250.265V104.212ZM240.891 105.259C240.96 106.744 241.281 108.084 241.837 109.334L243.664 108.521C243.212 107.504 242.946 106.41 242.889 105.166L240.891 105.259ZM241.84 109.34C242.411 110.602 243.264 111.686 244.358 112.594L245.635 111.055C244.756 110.325 244.098 109.478 243.662 108.515L241.84 109.34ZM244.358 112.594C245.469 113.516 246.837 114.202 248.452 114.673L249.012 112.753C247.606 112.343 246.497 111.77 245.635 111.055L244.358 112.594ZM248.449 114.672C250.049 115.145 251.889 115.385 253.938 115.385V113.385C252.04 113.385 250.396 113.162 249.016 112.754L248.449 114.672ZM253.938 115.385C258.124 115.385 261.487 114.453 263.91 112.472L262.645 110.924C260.702 112.511 257.853 113.385 253.938 113.385V115.385ZM263.91 112.472C266.362 110.469 267.573 107.625 267.573 104.1H265.573C265.573 107.124 264.559 109.359 262.645 110.924L263.91 112.472ZM267.573 104.1V80.8649H265.573V104.1H267.573ZM266.573 79.8649H258.24V81.8649H266.573V79.8649ZM257.24 80.8649V83.7824H259.24V80.8649H257.24ZM259.09 83.2555C258.352 82.0653 257.37 81.1069 256.109 80.3935L255.124 82.134C256.089 82.68 256.827 83.4007 257.39 84.3094L259.09 83.2555ZM256.116 80.3976C254.832 79.6563 253.26 79.3192 251.482 79.3192V81.3192C253.02 81.3192 254.219 81.6119 255.117 82.1299L256.116 80.3976ZM251.482 79.3192C249.819 79.3192 248.274 79.639 246.858 80.2654L247.668 82.0942C248.814 81.5872 250.081 81.3192 251.482 81.3192V79.3192ZM289.744 78.9264H297.804V76.9264H289.744V78.9264ZM298.804 77.9264V71.9235H296.804V77.9264H298.804ZM297.804 70.9235H289.744V72.9235H297.804V70.9235ZM288.744 71.9235V77.8845H290.744V71.9235H288.744ZM288.744 77.8845V77.9264H290.744V77.8845H288.744ZM101 71.7766V80.0044H103V71.7766H101ZM102 81.0044H111.718V79.0044H102V81.0044ZM110.718 80.0044V104.709H112.718V80.0044H110.718ZM111.718 105.709H120.974V103.709H111.718V105.709ZM121.974 104.709V80.0254H119.974V104.709H121.974ZM120.974 81.0254H130.692V79.0254H120.974V81.0254ZM131.692 80.0254V71.7766H129.692V80.0254H131.692ZM130.692 70.7766H102V72.7766H130.692V70.7766ZM131.077 71.7766V80.0044H133.077V71.7766H131.077ZM132.077 81.0044H141.795V79.0044H132.077V81.0044ZM140.795 80.0044V104.709H142.795V80.0044H140.795ZM141.795 105.709H151.051V103.709H141.795V105.709ZM152.051 104.709V80.0254H150.051V104.709H152.051ZM151.051 81.0254H160.769V79.0254H151.051V81.0254ZM161.769 80.0254V71.7766H159.769V80.0254H161.769ZM160.769 70.7766H132.077V72.7766H160.769V70.7766ZM222.673 85.491C222.81 85.0607 222.946 84.6304 223.082 84.2001C223.219 83.7698 223.355 83.3396 223.492 82.9093L221.585 82.3048C221.449 82.7351 221.312 83.1654 221.176 83.5957C221.04 84.0259 220.903 84.4562 220.767 84.8865L222.673 85.491ZM223.498 82.8879C223.744 82.047 224.026 81.1349 224.263 80.2102L222.325 79.7146C222.1 80.595 221.836 81.446 221.579 82.3262L223.498 82.8879ZM222.331 80.2312C222.584 81.1372 222.839 82.0087 223.088 82.8818L225.011 82.3323C224.757 81.4423 224.508 80.5927 224.257 79.6936L222.331 80.2312ZM223.09 82.8879C223.346 83.7629 223.623 84.6375 223.922 85.5119L225.815 84.8656C225.525 84.0188 225.257 83.1723 225.009 82.3262L223.09 82.8879ZM223.917 85.4963L226.372 93.0944L228.275 92.4793L225.82 84.8812L223.917 85.4963ZM227.324 91.7868H219.306V93.7868H227.324V91.7868ZM220.259 93.0896L222.673 85.4915L220.767 84.886L218.353 92.4841L220.259 93.0896ZM216.853 71.4417L205.141 104.395L207.026 105.065L218.737 72.1115L216.853 71.4417ZM206.083 105.73H215.528V103.73H206.083V105.73ZM216.48 105.036L217.865 100.733L215.962 100.12L214.576 104.423L216.48 105.036ZM216.913 101.427H229.822V99.4269H216.913V101.427ZM228.87 100.733L230.255 105.036L232.159 104.423L230.773 100.12L228.87 100.733ZM231.207 105.73H241.009V103.73H231.207V105.73ZM241.947 104.385L229.837 71.4317L227.959 72.1216L240.07 105.075L241.947 104.385ZM228.898 70.7766H217.795V72.7766H228.898V70.7766ZM170.236 71.3036C168.011 72.1492 166.1 73.3811 164.543 74.9837L165.977 76.3775C167.316 74.9996 168.974 73.9227 170.946 73.1731L170.236 71.3036ZM164.543 74.9837C162.989 76.5831 161.805 78.5115 160.984 80.7519L162.862 81.4398C163.594 79.4403 164.635 77.7585 165.977 76.3775L164.543 74.9837ZM160.984 80.7519C160.16 83.0016 159.769 85.493 159.769 88.2532H161.769C161.769 85.682 162.133 83.4299 162.862 81.4398L160.984 80.7519ZM159.769 88.2532C159.769 91.0221 160.183 93.472 161.028 95.7386L162.902 95.0404C162.151 93.0252 161.769 90.8155 161.769 88.2532H159.769ZM161.028 95.7386C161.873 98.0066 163.102 99.9333 164.674 101.528L166.098 100.124C164.732 98.7377 163.652 97.0542 162.902 95.0404L161.028 95.7386ZM164.679 101.533C166.27 103.124 168.153 104.355 170.383 105.203L171.093 103.333C169.126 102.585 167.483 101.508 166.093 100.119L164.679 101.533ZM170.383 105.203C172.608 106.048 175.018 106.464 177.664 106.464V104.464C175.232 104.464 173.066 104.083 171.093 103.333L170.383 105.203ZM177.664 106.464C179.899 106.464 181.975 106.157 183.928 105.536L183.322 103.63C181.582 104.184 179.712 104.464 177.664 104.464V106.464ZM183.928 105.536C185.887 104.913 187.657 103.974 189.187 102.737L187.929 101.182C186.604 102.253 185.057 103.078 183.322 103.63L183.928 105.536ZM189.187 102.737C190.721 101.495 191.98 99.964 192.962 98.1546L191.205 97.2C190.341 98.791 189.248 100.114 187.929 101.182L189.187 102.737ZM192.967 98.1462C193.932 96.3282 194.574 94.2568 194.86 91.9221L192.875 91.6786C192.616 93.7936 192.04 95.6262 191.2 97.2084L192.967 98.1462ZM193.868 90.8003H184.612V92.8003H193.868V90.8003ZM183.628 91.6195C183.33 93.2425 182.644 94.3887 181.596 95.1788L182.8 96.7756C184.313 95.6347 185.222 94.0103 185.595 91.9812L183.628 91.6195ZM181.59 95.1836C180.518 96.0055 179.224 96.4464 177.664 96.4464V98.4464C179.631 98.4464 181.36 97.8799 182.806 96.7708L181.59 95.1836ZM177.664 96.4464C175.474 96.4464 173.979 95.7247 173.011 94.4167L171.404 95.6067C172.828 97.531 174.986 98.4464 177.664 98.4464V96.4464ZM173.011 94.4167C171.986 93.0323 171.402 91.0028 171.402 88.2322H169.402C169.402 91.2546 170.036 93.7588 171.404 95.6067L173.011 94.4167ZM171.402 88.2322C171.402 85.4674 171.984 83.4744 173.015 82.0636L171.4 80.8836C170.038 82.7472 169.402 85.2039 169.402 88.2322H171.402ZM173.015 82.0636C173.983 80.7386 175.475 80.0179 177.664 80.0179V78.0179C174.985 78.0179 172.824 78.9343 171.4 80.8836L173.015 82.0636ZM177.664 80.0179C179.183 80.0179 180.421 80.4084 181.425 81.131L182.593 79.5074C181.205 78.5089 179.546 78.0179 177.664 78.0179V80.0179ZM181.425 81.131C182.412 81.8405 183.112 82.8728 183.501 84.2797L185.429 83.747C184.936 81.9634 183.999 80.519 182.593 79.5074L181.425 81.131ZM184.465 85.0133H193.805V83.0133H184.465V85.0133ZM194.794 83.865C194.464 81.6632 193.819 79.6908 192.8 77.9466L191.073 78.9557C191.943 80.4439 192.516 82.1656 192.816 84.1617L194.794 83.865ZM192.8 77.9466C191.793 76.2227 190.534 74.7824 189.004 73.5905L187.775 75.168C189.1 76.201 190.192 77.4473 191.073 78.9557L192.8 77.9466ZM189.004 73.5905C187.478 72.4009 185.753 71.5065 183.817 70.9055L183.224 72.8156C184.94 73.3481 186.447 74.1328 187.775 75.168L189.004 73.5905ZM183.817 70.9055C181.89 70.3074 179.837 70 177.643 70V72C179.647 72 181.499 72.2803 183.224 72.8156L183.817 70.9055ZM177.643 70C174.918 70 172.444 70.4145 170.215 71.2616L170.925 73.1312C172.894 72.3831 175.122 72 177.643 72V70ZM308.234 70.8211C306.433 71.3772 304.903 72.1678 303.672 73.1901L304.949 74.7289C305.943 73.9041 307.226 73.2254 308.824 72.7321L308.234 70.8211ZM303.672 73.1901C302.444 74.2099 301.531 75.424 300.921 76.7828L302.746 77.6009C303.229 76.5249 303.953 75.5562 304.949 74.7289L303.672 73.1901ZM300.919 76.7886C300.315 78.16 300.015 79.6203 300.015 81.1798H302.015C302.015 79.8847 302.262 78.7004 302.749 77.5951L300.919 76.7886ZM300.015 81.1798C300.015 84.4207 301.07 87.0573 303.263 89.0372L304.603 87.553C302.891 86.0068 302.015 83.9418 302.015 81.1798H300.015ZM303.263 89.0372C305.41 90.9768 308.452 92.1818 312.288 92.8284L312.62 90.8562C308.985 90.2434 306.36 89.1397 304.603 87.553L303.263 89.0372ZM312.294 92.8294L314.875 93.2491L315.196 91.2751L312.615 90.8553L312.294 92.8294ZM314.892 93.2516C315.88 93.3957 316.689 93.5558 317.276 93.7262L317.833 91.8055C317.119 91.5981 316.207 91.4223 315.18 91.2726L314.892 93.2516ZM317.284 93.7285C317.912 93.9051 318.339 94.0849 318.607 94.2488L319.65 92.5422C319.163 92.2444 318.541 92.0044 317.825 91.8032L317.284 93.7285ZM318.607 94.2488C318.867 94.4074 319.009 94.574 319.074 94.7033L320.863 93.8089C320.592 93.2665 320.146 92.8454 319.65 92.5422L318.607 94.2488ZM319.074 94.7033C319.158 94.872 319.22 95.1109 319.22 95.4525H321.22C321.22 94.8705 321.114 94.3118 320.863 93.8089L319.074 94.7033ZM319.22 95.4525C319.22 96.0341 318.994 96.4625 318.485 96.8068L319.605 98.4639C320.648 97.7588 321.22 96.7179 321.22 95.4525H319.22ZM318.485 96.8068C317.966 97.1572 316.899 97.4329 315.141 97.4329V99.4329C316.992 99.4329 318.57 99.163 319.605 98.4639L318.485 96.8068ZM315.141 97.4329C314.419 97.4329 313.734 97.3744 313.087 97.2763L312.787 99.2537C313.525 99.3655 314.31 99.4329 315.141 99.4329V97.4329ZM313.087 97.2763C312.501 97.1875 312.04 97.0179 311.687 96.7823L310.577 98.4464C311.231 98.8825 311.988 99.1326 312.787 99.2537L313.087 97.2763ZM311.662 96.7664C311.335 96.562 311.032 96.2284 310.809 95.7819L309.02 96.6763C309.385 97.4051 309.921 98.037 310.602 98.4624L311.662 96.7664ZM310.803 95.7697C310.579 95.3375 310.429 94.7237 310.411 93.877L308.411 93.9215C308.434 94.9639 308.62 95.9032 309.026 96.6885L310.803 95.7697ZM309.411 92.8993H300.533V94.8993H309.411V92.8993ZM299.533 93.8993C299.533 95.7175 299.848 97.4063 300.515 98.9721L302.355 98.1876C301.805 96.8989 301.533 95.4813 301.533 93.8993H299.533ZM300.515 98.9721C301.186 100.545 302.185 101.893 303.526 103.002L304.801 101.462C303.707 100.556 302.901 99.4688 302.355 98.1876L300.515 98.9721ZM303.518 102.996C304.862 104.131 306.521 104.961 308.433 105.577L309.046 103.673C307.305 103.113 305.9 102.39 304.809 101.468L303.518 102.996ZM308.443 105.58C310.387 106.183 312.674 106.485 315.246 106.485V104.485C312.822 104.485 310.743 104.2 309.036 103.67L308.443 105.58ZM315.246 106.485C317.471 106.485 319.523 106.269 321.375 105.828L320.912 103.883C319.238 104.281 317.345 104.485 315.246 104.485V106.485ZM321.375 105.828C323.237 105.385 324.888 104.69 326.286 103.727L325.152 102.08C323.99 102.88 322.576 103.487 320.912 103.883L321.375 105.828ZM326.286 103.727C327.699 102.755 328.794 101.521 329.583 100.036L327.816 99.0972C327.178 100.299 326.3 101.29 325.152 102.08L326.286 103.727ZM329.583 100.036C330.388 98.5199 330.77 96.7567 330.77 94.7808H328.77C328.77 96.499 328.439 97.9262 327.816 99.0972L329.583 100.036ZM330.77 94.7808C330.77 91.5914 329.741 88.9948 327.557 87.1708L326.275 88.7058C327.91 90.0722 328.77 92.0512 328.77 94.7808H330.77ZM327.561 87.1743C325.473 85.4117 322.288 84.2152 318.181 83.5307L317.852 85.5035C321.804 86.1622 324.58 87.2746 326.27 88.7023L327.561 87.1743ZM318.183 83.5311L315.455 83.0693L315.121 85.0413L317.849 85.5031L318.183 83.5311ZM315.45 83.0686C313.838 82.8033 312.756 82.4496 312.129 82.0942L311.142 83.8335C312.069 84.3597 313.421 84.7616 315.125 85.042L315.45 83.0686ZM312.129 82.0942C311.889 81.958 311.744 81.8014 311.65 81.6252C311.552 81.4421 311.481 81.1817 311.481 80.802H309.481C309.481 81.4297 309.599 82.0299 309.885 82.5657C310.174 83.1084 310.605 83.5289 311.142 83.8335L312.129 82.0942ZM311.481 80.802C311.481 80.2446 311.678 79.8764 312.064 79.5901L310.872 77.9839C309.957 78.6631 309.481 79.6382 309.481 80.802H311.481ZM312.051 79.599C312.461 79.3043 313.268 79.0734 314.679 79.0734V77.0734C313.152 77.0734 311.817 77.3042 310.884 77.975L312.051 79.599ZM314.679 79.0734C316.437 79.0734 317.456 79.3857 317.984 79.8028L319.224 78.233C318.157 77.3907 316.573 77.0734 314.679 77.0734V79.0734ZM317.984 79.8028C318.499 80.2091 318.854 80.8703 318.906 81.9627L320.904 81.8661C320.831 80.3558 320.304 79.0861 319.224 78.233L317.984 79.8028ZM319.905 82.9144H328.616V80.9144H319.905V82.9144ZM329.614 81.8625C329.414 78.0039 328.013 74.9715 325.335 72.9513L324.13 74.5479C326.238 76.1378 327.44 78.5626 327.617 81.9664L329.614 81.8625ZM325.332 72.9488C322.683 70.9679 319.062 70.042 314.553 70.042V72.042C318.817 72.042 321.955 72.9211 324.134 74.5504L325.332 72.9488ZM314.553 70.042C312.178 70.042 310.053 70.3003 308.224 70.8874L308.835 72.7917C310.406 72.2874 312.311 72.042 314.553 72.042V70.042Z" fill="url(#paint12_linear_360_40333)" mask="url(#path-15-inside-1_360_40333)"/>
<defs>
<linearGradient id="paint0_linear_360_40333" x1="400.429" y1="54.6988" x2="400.429" y2="106.33" gradientUnits="userSpaceOnUse">
<stop stop-color="#50B848"/>
<stop offset="0.14" stop-color="#50B848"/>
<stop offset="0.31" stop-color="#3AA642"/>
<stop offset="0.59" stop-color="#1A8B3A"/>
<stop offset="0.83" stop-color="#077A35"/>
<stop offset="1" stop-color="#007534"/>
</linearGradient>
<linearGradient id="paint1_linear_360_40333" x1="91.0301" y1="116.588" x2="237.236" y2="116.588" gradientUnits="userSpaceOnUse">
<stop stop-color="#0083CA"/>
<stop offset="0.29" stop-color="#005892"/>
<stop offset="0.55" stop-color="#003767"/>
<stop offset="0.66" stop-color="#00467B"/>
<stop offset="0.89" stop-color="#006EAF"/>
<stop offset="1" stop-color="#0083CA"/>
</linearGradient>
<linearGradient id="paint2_linear_360_40333" x1="58.2729" y1="106" x2="2.7749" y2="106" gradientUnits="userSpaceOnUse">
<stop stop-color="#0083CC"/>
<stop offset="1" stop-color="#0083CC" stop-opacity="0"/>
</linearGradient>
<linearGradient id="paint3_linear_360_40333" x1="nan" y1="nan" x2="nan" y2="nan" gradientUnits="userSpaceOnUse">
<stop stop-color="#0083CA"/>
<stop offset="0.29" stop-color="#005892"/>
<stop offset="0.55" stop-color="#003767"/>
<stop offset="0.66" stop-color="#00467B"/>
<stop offset="0.89" stop-color="#006EAF"/>
<stop offset="1" stop-color="#0083CA"/>
</linearGradient>
<linearGradient id="paint4_linear_360_40333" x1="nan" y1="nan" x2="nan" y2="nan" gradientUnits="userSpaceOnUse">
<stop stop-color="#0083CA"/>
<stop offset="0.29" stop-color="#005892"/>
<stop offset="0.55" stop-color="#003767"/>
<stop offset="0.66" stop-color="#00467B"/>
<stop offset="0.89" stop-color="#006EAF"/>
<stop offset="1" stop-color="#0083CA"/>
</linearGradient>
<linearGradient id="paint5_linear_360_40333" x1="nan" y1="nan" x2="nan" y2="nan" gradientUnits="userSpaceOnUse">
<stop stop-color="#0083CA"/>
<stop offset="0.29" stop-color="#005892"/>
<stop offset="0.55" stop-color="#003767"/>
<stop offset="0.66" stop-color="#00467B"/>
<stop offset="0.89" stop-color="#006EAF"/>
<stop offset="1" stop-color="#0083CA"/>
</linearGradient>
<linearGradient id="paint6_linear_360_40333" x1="103.881" y1="93.2583" x2="331.669" y2="93.2583" gradientUnits="userSpaceOnUse">
<stop stop-color="#003767"/>
<stop offset="0.33" stop-color="#003767"/>
<stop offset="0.51" stop-color="#00425D"/>
<stop offset="0.83" stop-color="#006143"/>
<stop offset="1" stop-color="#007534"/>
</linearGradient>
<linearGradient id="paint7_linear_360_40333" x1="65" y1="105" x2="69" y2="105" gradientUnits="userSpaceOnUse">
<stop stop-color="#0083CA"/>
<stop offset="0.29" stop-color="#005892"/>
<stop offset="0.55" stop-color="#003767"/>
<stop offset="0.66" stop-color="#00467B"/>
<stop offset="0.89" stop-color="#006EAF"/>
<stop offset="1" stop-color="#0083CA"/>
</linearGradient>
<linearGradient id="paint8_linear_360_40333" x1="89" y1="105" x2="93" y2="105" gradientUnits="userSpaceOnUse">
<stop stop-color="#0083CA"/>
<stop offset="0.29" stop-color="#005892"/>
<stop offset="0.55" stop-color="#003767"/>
<stop offset="0.66" stop-color="#00467B"/>
<stop offset="0.89" stop-color="#006EAF"/>
<stop offset="1" stop-color="#0083CA"/>
</linearGradient>
<linearGradient id="paint9_linear_360_40333" x1="103" y1="105" x2="107" y2="105" gradientUnits="userSpaceOnUse">
<stop stop-color="#0083CA"/>
<stop offset="0.29" stop-color="#005892"/>
<stop offset="0.55" stop-color="#003767"/>
<stop offset="0.66" stop-color="#00467B"/>
<stop offset="0.89" stop-color="#006EAF"/>
<stop offset="1" stop-color="#0083CA"/>
</linearGradient>
<linearGradient id="paint10_linear_360_40333" x1="236" y1="119" x2="240" y2="119" gradientUnits="userSpaceOnUse">
<stop stop-color="#0083CA"/>
<stop offset="0.29" stop-color="#005892"/>
<stop offset="0.55" stop-color="#003767"/>
<stop offset="0.66" stop-color="#00467B"/>
<stop offset="0.89" stop-color="#006EAF"/>
<stop offset="1" stop-color="#0083CA"/>
</linearGradient>
<linearGradient id="paint11_linear_360_40333" x1="334" y1="105" x2="338" y2="105" gradientUnits="userSpaceOnUse">
<stop stop-color="#0083CA"/>
<stop offset="0.29" stop-color="#005892"/>
<stop offset="0.55" stop-color="#003767"/>
<stop offset="0.66" stop-color="#00467B"/>
<stop offset="0.89" stop-color="#006EAF"/>
<stop offset="1" stop-color="#0083CA"/>
</linearGradient>
<linearGradient id="paint12_linear_360_40333" x1="102" y1="92.6924" x2="329.77" y2="92.6924" gradientUnits="userSpaceOnUse">
<stop stop-color="#0083CA"/>
<stop offset="0.29" stop-color="#005892"/>
<stop offset="0.55" stop-color="#0666BA"/>
<stop offset="0.66" stop-color="#0561A7"/>
<stop offset="0.89" stop-color="#409A3C"/>
<stop offset="1" stop-color="#89C765"/>
</linearGradient>
<clipPath id="clip0_360_40333">
<rect width="105" height="105" fill="white" transform="translate(354)"/>
</clipPath>
</defs>
</svg>
