<svg width="21" height="18" viewBox="0 0 21 18" fill="none" xmlns="http://www.w3.org/2000/svg">
<path d="M10.0123 0C9.80029 0 9.58824 0.0706827 9.42332 0.212048L0.305253 7.75153C-0.0717217 8.05782 -0.0952826 8.62328 0.211009 8.9767C0.540861 9.35367 1.10632 9.40079 1.50686 9.07094L10.0123 2.02624L18.5414 9.07094C18.7063 9.21231 18.9184 9.28299 19.1304 9.28299C19.3896 9.28299 19.6487 9.18875 19.8137 8.9767C20.1435 8.62328 20.0964 8.05782 19.7194 7.75153L10.6249 0.212048C10.4364 0.0706827 10.2479 0 10.0359 0H10.0123Z" fill="url(#paint0_linear_617_5124)"/>
<mask id="mask0_617_5124" style="mask-type:luminance" maskUnits="userSpaceOnUse" x="0" y="0" width="21" height="10">
<path d="M10.0123 0C9.80029 0 9.58824 0.0706827 9.42332 0.212048L0.305253 7.75153C-0.0717217 8.05782 -0.0952826 8.62328 0.211009 8.9767C0.540861 9.35367 1.10632 9.40079 1.50686 9.07094L10.0123 2.02624L18.5414 9.07094C18.7063 9.21231 18.9184 9.28299 19.1304 9.28299C19.3896 9.28299 19.6487 9.18875 19.8137 8.9767C20.1435 8.62328 20.0964 8.05782 19.7194 7.75153L10.6249 0.212048C10.4364 0.0706827 10.2479 0 10.0359 0H10.0123Z" fill="white"/>
</mask>
<g mask="url(#mask0_617_5124)">
<path d="M20.1441 0H-0.0947266V9.40079H20.1441V0Z" fill="url(#paint1_linear_617_5124)"/>
</g>
<path d="M7.96484 10.0846C7.96484 11.1684 8.88372 12.0637 10.0146 12.0637C11.1456 12.0637 12.0644 11.1684 12.0644 10.0846C12.0644 9.00078 11.1456 8.10547 10.0146 8.10547C8.88372 8.10547 7.96484 8.97722 7.96484 10.0846Z" fill="url(#paint2_linear_617_5124)"/>
<mask id="mask1_617_5124" style="mask-type:luminance" maskUnits="userSpaceOnUse" x="7" y="8" width="6" height="5">
<path d="M7.96582 10.0856C7.96582 11.1694 8.88469 12.0647 10.0156 12.0647C11.1465 12.0647 12.0654 11.1694 12.0654 10.0856C12.0654 9.00176 11.1465 8.10645 10.0156 8.10645C8.88469 8.10645 7.96582 8.9782 7.96582 10.0856Z" fill="white"/>
</mask>
<g mask="url(#mask1_617_5124)">
<path d="M12.0654 8.12891H7.96582V12.0636H12.0654V8.12891Z" fill="url(#paint3_linear_617_5124)"/>
</g>
<path d="M9.68337 16.3975C9.32996 15.9498 6.1728 12.0151 6.1728 10.0832C6.1728 8.03335 7.89275 6.36053 10.0368 6.36053C12.1808 6.36053 13.9008 8.03335 13.9008 10.0832C13.9008 12.0151 10.7436 15.9498 10.3902 16.3975C10.296 16.4917 10.1546 16.5624 10.0132 16.5624C9.89542 16.5624 9.75405 16.4917 9.65981 16.3975M9.70693 3.27405L2.87428 8.97579C2.87428 8.97579 2.73291 9.18784 2.73291 9.30564V17.552C2.73291 17.7876 2.9214 17.9996 3.18057 17.9996H16.9166C17.1757 17.9996 17.3642 17.7876 17.3642 17.552V9.30564C17.3642 9.18784 17.3171 9.04647 17.2229 8.97579L10.3666 3.27405C10.3666 3.27405 10.1782 3.15625 10.0603 3.15625C9.94254 3.15625 9.8483 3.20337 9.75405 3.27405" fill="url(#paint4_linear_617_5124)"/>
<mask id="mask2_617_5124" style="mask-type:luminance" maskUnits="userSpaceOnUse" x="2" y="3" width="16" height="15">
<path d="M9.68191 16.3965C9.32849 15.9488 6.17134 12.0142 6.17134 10.0822C6.17134 8.03238 7.89128 6.35955 10.0353 6.35955C12.1794 6.35955 13.8993 8.03238 13.8993 10.0822C13.8993 12.0142 10.7421 15.9488 10.3887 16.3965C10.2945 16.4907 10.1531 16.5614 10.0118 16.5614C9.89396 16.5614 9.75259 16.4907 9.65835 16.3965M9.70547 3.27308L2.87281 8.97481C2.87281 8.97481 2.73145 9.18686 2.73145 9.30467V17.551C2.73145 17.7866 2.91993 17.9986 3.1791 17.9986H16.9151C17.1743 17.9986 17.3628 17.7866 17.3628 17.551V9.30467C17.3628 9.18686 17.3156 9.0455 17.2214 8.97481L10.3652 3.27308C10.3652 3.27308 10.1767 3.15527 10.0589 3.15527C9.94108 3.15527 9.84683 3.2024 9.75259 3.27308" fill="white"/>
</mask>
<g mask="url(#mask2_617_5124)">
<path d="M17.3408 3.15527H2.70947V17.9986H17.3408V3.15527Z" fill="url(#paint5_linear_617_5124)"/>
</g>
<defs>
<linearGradient id="paint0_linear_617_5124" x1="0.0186784" y1="4.50707" x2="20.6858" y2="4.50707" gradientUnits="userSpaceOnUse">
<stop stop-color="#003767"/>
<stop offset="0.333333" stop-color="#003767"/>
<stop offset="0.666667" stop-color="#00425D"/>
<stop offset="1" stop-color="#007534"/>
</linearGradient>
<linearGradient id="paint1_linear_617_5124" x1="-0.0758574" y1="4.56008" x2="20.8023" y2="4.56008" gradientUnits="userSpaceOnUse">
<stop stop-color="#003767"/>
<stop offset="0.333333" stop-color="#003767"/>
<stop offset="0.666667" stop-color="#00425D"/>
<stop offset="1" stop-color="#007534"/>
</linearGradient>
<linearGradient id="paint2_linear_617_5124" x1="7.96867" y1="10.0255" x2="12.1978" y2="10.0255" gradientUnits="userSpaceOnUse">
<stop stop-color="#003767"/>
<stop offset="0.333333" stop-color="#003767"/>
<stop offset="0.666667" stop-color="#00425D"/>
<stop offset="1" stop-color="#007534"/>
</linearGradient>
<linearGradient id="paint3_linear_617_5124" x1="7.96964" y1="10.0375" x2="12.1987" y2="10.0375" gradientUnits="userSpaceOnUse">
<stop stop-color="#003767"/>
<stop offset="0.333333" stop-color="#003767"/>
<stop offset="0.666667" stop-color="#00425D"/>
<stop offset="1" stop-color="#007534"/>
</linearGradient>
<linearGradient id="paint4_linear_617_5124" x1="2.74655" y1="10.3564" x2="17.8401" y2="10.3564" gradientUnits="userSpaceOnUse">
<stop stop-color="#003767"/>
<stop offset="0.333333" stop-color="#003767"/>
<stop offset="0.666667" stop-color="#00425D"/>
<stop offset="1" stop-color="#007534"/>
</linearGradient>
<linearGradient id="paint5_linear_617_5124" x1="2.72311" y1="10.3554" x2="17.8166" y2="10.3554" gradientUnits="userSpaceOnUse">
<stop stop-color="#003767"/>
<stop offset="0.333333" stop-color="#003767"/>
<stop offset="0.666667" stop-color="#00425D"/>
<stop offset="1" stop-color="#007534"/>
</linearGradient>
</defs>
</svg>
