<svg width="20" height="15" viewBox="0 0 20 15" fill="none" xmlns="http://www.w3.org/2000/svg">
<path d="M10.2252 0.0238095C8.35761 0.0238095 6.02308 0.214285 3.26834 0.690474C3.24499 0.690474 0.0466906 1.92857 0 4.71427V4.83332C0 5.04761 0 5.26189 0.0700359 5.47618C0.0700359 5.47618 1.4941 7.97617 4.2255 5.92856C4.2255 5.92856 5.55618 5.16665 5.85967 3.33332C5.85967 3.33332 10.7622 2.5238 14.0305 3.33332C14.0305 3.33332 14.6842 5.61903 15.8981 6.21427C15.8981 6.21427 19.61 7.90474 19.8435 5.11903C19.8435 5.11903 20.3571 1.5 16.1316 0.666665C16.1316 0.666665 14.264 0.0238095 10.5754 0H10.2252V0.0238095Z" fill="url(#paint0_linear_617_5050)"/>
<mask id="mask0_617_5050" style="mask-type:luminance" maskUnits="userSpaceOnUse" x="0" y="0" width="20" height="7">
<path d="M10.2252 0.0238095C8.35761 0.0238095 6.02308 0.214285 3.26834 0.690474C3.24499 0.690474 0.0466906 1.92857 0 4.71427V4.83332C0 5.04761 0 5.26189 0.0700359 5.47618C0.0700359 5.47618 1.4941 7.97617 4.2255 5.92856C4.2255 5.92856 5.55618 5.16665 5.85967 3.33332C5.85967 3.33332 10.7622 2.5238 14.0305 3.33332C14.0305 3.33332 14.6842 5.61903 15.8981 6.21427C15.8981 6.21427 19.61 7.90474 19.8435 5.11903C19.8435 5.11903 20.3571 1.5 16.1316 0.666665C16.1316 0.666665 14.264 0.0238095 10.5754 0H10.2252V0.0238095Z" fill="white"/>
</mask>
<g mask="url(#mask0_617_5050)">
<path d="M20.3571 0.0234375H0V7.99961H20.3571V0.0234375Z" fill="url(#paint1_linear_617_5050)"/>
</g>
<path d="M7.47019 10.0725C7.47019 8.71535 8.56742 7.64392 9.94479 7.64392C11.3222 7.64392 12.396 8.73915 12.396 10.0725C12.396 11.4058 11.2988 12.501 9.94479 12.501C8.59076 12.501 7.47019 11.4058 7.47019 10.0725ZM7.40015 5.12012C6.6531 8.3582 2.14746 8.73916 2.14746 8.73916C2.14746 8.73916 2.19415 9.8582 2.19415 12.0487C2.19415 14.2391 5.18235 15.001 5.18235 15.001H14.5438C16.9951 15.001 17.7421 12.3582 17.7421 12.3582V8.73916C13.6567 8.73916 12.6061 5.12012 12.6061 5.12012H7.40015Z" fill="url(#paint2_linear_617_5050)"/>
<mask id="mask1_617_5050" style="mask-type:luminance" maskUnits="userSpaceOnUse" x="2" y="5" width="16" height="11">
<path d="M7.4697 10.0735C7.4697 8.71632 8.56693 7.6449 9.9443 7.6449C11.3217 7.6449 12.3956 8.74013 12.3956 10.0735C12.3956 11.4068 11.2983 12.502 9.9443 12.502C8.59027 12.502 7.4697 11.4068 7.4697 10.0735ZM7.39966 5.12109C6.65261 8.35918 2.14697 8.74013 2.14697 8.74013C2.14697 8.74013 2.19366 9.85918 2.19366 12.0496C2.19366 14.2401 5.18186 15.002 5.18186 15.002H14.5433C16.9946 15.002 17.7416 12.3592 17.7416 12.3592V8.74013C13.6562 8.74013 12.6057 5.12109 12.6057 5.12109H7.39966Z" fill="white"/>
</mask>
<g mask="url(#mask1_617_5050)">
<path d="M17.7192 5.12109H2.12451V15.0258H17.7192V5.12109Z" fill="url(#paint3_linear_617_5050)"/>
</g>
<defs>
<linearGradient id="paint0_linear_617_5050" x1="0.0185189" y1="3.26673" x2="20.5091" y2="3.26673" gradientUnits="userSpaceOnUse">
<stop stop-color="#003767"/>
<stop offset="0.333333" stop-color="#003767"/>
<stop offset="0.666667" stop-color="#00425D"/>
<stop offset="1" stop-color="#007534"/>
</linearGradient>
<linearGradient id="paint1_linear_617_5050" x1="0.0189794" y1="3.89247" x2="21.0192" y2="3.89247" gradientUnits="userSpaceOnUse">
<stop stop-color="#003767"/>
<stop offset="0.333333" stop-color="#003767"/>
<stop offset="0.666667" stop-color="#00425D"/>
<stop offset="1" stop-color="#007534"/>
</linearGradient>
<linearGradient id="paint2_linear_617_5050" x1="2.162" y1="9.91309" x2="18.2493" y2="9.91309" gradientUnits="userSpaceOnUse">
<stop stop-color="#003767"/>
<stop offset="0.333333" stop-color="#003767"/>
<stop offset="0.666667" stop-color="#00425D"/>
<stop offset="1" stop-color="#007534"/>
</linearGradient>
<linearGradient id="paint3_linear_617_5050" x1="2.13905" y1="9.92562" x2="18.2263" y2="9.92562" gradientUnits="userSpaceOnUse">
<stop stop-color="#003767"/>
<stop offset="0.333333" stop-color="#003767"/>
<stop offset="0.666667" stop-color="#00425D"/>
<stop offset="1" stop-color="#007534"/>
</linearGradient>
</defs>
</svg>
