<!--?xml version="1.0" encoding="utf-8"?-->
<!-- Generator: Adobe Illustrator 18.1.1, SVG Export Plug-In . SVG Version: 6.00 Build 0)  -->

<svg version="1.1" id="_x31_0" xmlns="http://www.w3.org/2000/svg" xmlns:xlink="http://www.w3.org/1999/xlink" x="0px" y="0px" viewBox="0 0 512 512" style="width: 256px; height: 256px; opacity: 1;" xml:space="preserve">
<style type="text/css">
	.st0{fill:#374149;}
</style>
<g>
	<path class="st0" d="M495.258,58.903c-3.312-1.93-6.992-3.309-10.949-4.047c-3.863-0.644-8-1.378-12.786-2.023
		c-1.562-0.278-3.218-0.367-4.781-0.457c-71.016-1.383-140.926,3.77-210.742,9.011c-69.82-5.242-139.73-10.394-210.746-9.011
		c-1.562,0.09-3.218,0.179-4.781,0.457c-4.786,0.645-8.922,1.379-12.786,2.023c-3.957,0.738-7.637,2.118-10.949,4.047
		C6.621,64.883,0,76.015,0,88.34v17.109v303.098v15.086c0,16.375,11.59,30.539,27.687,33.39c3.863,0.738,8,1.379,12.786,2.118
		c1.562,0.274,3.218,0.367,4.781,0.461c71.016,1.469,140.926-3.774,210.746-9.016c69.817,5.242,139.726,10.485,210.742,9.016
		c1.562-0.094,3.218-0.187,4.781-0.461c4.786-0.738,8.922-1.379,12.786-2.118c16.098-2.851,27.691-17.015,27.691-33.39v-15.086
		V105.449V88.34C512,76.015,505.375,64.883,495.258,58.903z M469.133,383.711c0,18.855-15.453,34.125-34.402,34.035
		c-60.07-0.367-119.402-4.786-178.73-9.199c-59.332,4.414-118.664,8.832-178.734,9.199c-18.949,0.09-34.402-15.18-34.402-34.035
		v-255.45c0-5.793,1.379-11.129,3.957-15.914c5.703-10.856,17.199-18.211,30.446-18.122c60.07,0.367,119.309,4.691,178.734,9.199
		c59.422-4.508,118.66-8.832,178.73-9.199c13.246-0.09,24.742,7.266,30.446,18.122c2.578,4.785,3.957,10.121,3.957,15.914V383.711z" style="fill: rgb(0, 174, 189);"></path>
	<polygon class="st0" points="88.859,179.946 88.699,179.946 88.699,195.946 207.133,195.946 207.133,179.946 89.218,179.946 	" style="fill: rgb(0, 174, 189);"></polygon>
	<polygon class="st0" points="88.859,248 88.699,248 88.699,264 207.133,264 207.133,248 89.218,248 	" style="fill: rgb(0, 174, 189);"></polygon>
	<polygon class="st0" points="88.859,316.051 88.699,316.051 88.699,332.051 207.133,332.051 207.133,316.051 89.218,316.051 	" style="fill: rgb(0, 174, 189);"></polygon>
	<polygon class="st0" points="305.027,179.946 304.867,179.946 304.867,195.946 423.301,195.946 423.301,179.946 305.386,179.946 	
		" style="fill: rgb(0, 174, 189);"></polygon>
	<polygon class="st0" points="305.027,248 304.867,248 304.867,264 423.301,264 423.301,248 305.386,248 	" style="fill: rgb(0, 174, 189);"></polygon>
	<polygon class="st0" points="305.027,316.051 304.867,316.051 304.867,332.051 423.301,332.051 423.301,316.051 305.386,316.051 	
		" style="fill: rgb(0, 174, 189);"></polygon>
	<polygon class="st0" points="250.16,118.594 250,118.594 250,393.403 262,393.403 262,118.594 250.195,118.594 	" style="fill: rgb(0, 174, 189);"></polygon>
</g>
</svg>
