<!--?xml version="1.0" encoding="utf-8"?-->
<!-- Generator: Adobe Illustrator 18.0.0, SVG Export Plug-In . SVG Version: 6.00 Build 0)  -->

<svg version="1.1" id="_x31_0" xmlns="http://www.w3.org/2000/svg" xmlns:xlink="http://www.w3.org/1999/xlink" x="0px" y="0px" viewBox="0 0 512 512" style="width: 256px; height: 256px; opacity: 1;" xml:space="preserve">
<style type="text/css">
	.st0{fill:#374149;}
</style>
<g>
	<path class="st0" d="M58.758,396.42h394.489c0.422,0,0.762-0.339,0.762-0.758v-279.32c0-0.422-0.34-0.762-0.762-0.762H58.758
		c-0.418,0-0.762,0.339-0.762,0.762v279.32C57.996,396.08,58.34,396.42,58.758,396.42z M183.649,285.884
		c1.492,0,2.972,0.082,4.441,0.242V173.584l151.321-12.476v136.66c0,17.766-16.184,32.214-36.078,32.214
		c-19.89,0-36.074-14.449-36.074-32.214c0-17.762,16.184-32.215,36.074-32.215c1.492,0,2.981,0.082,4.446,0.242V203.67
		l-88.051,7.258V318.1c0,17.766-16.183,32.218-36.078,32.218c-19.891,0-36.074-14.453-36.074-32.218
		C147.574,300.338,163.758,285.884,183.649,285.884z" style="fill: rgb(255, 255, 255);"></path>
	<path class="st0" d="M485.054,60.631H26.95C12.129,60.631,0,72.756,0,87.58V424.42c0,14.821,12.129,26.95,26.95,26.95h458.105
		c14.821,0,26.946-12.129,26.946-26.95V87.58C512,72.756,499.875,60.631,485.054,60.631z M44.523,395.662v-279.32
		c0-7.852,6.387-14.234,14.234-14.234h394.489c7.847,0,14.238,6.382,14.238,14.234v279.32c0,7.848-6.39,14.234-14.238,14.234H58.758
		C50.91,409.896,44.523,403.51,44.523,395.662z" style="fill: rgb(255, 255, 255);"></path>
</g>
</svg>
