<?xml version="1.0" encoding="utf-8"?>
<!-- Generator: Adobe Illustrator 25.4.1, SVG Export Plug-In . SVG Version: 6.00 Build 0)  -->
<svg version="1.1" id="レイヤー_1" xmlns="http://www.w3.org/2000/svg" xmlns:xlink="http://www.w3.org/1999/xlink" x="0px"
	 y="0px" viewBox="0 0 512 367" style="enable-background:new 0 0 512 367;" xml:space="preserve">
<style type="text/css">
	.st0{fill:#FFFFFF;}
</style>
<g>
	<path class="st0" d="M497.8,187.96L340.53,33.2L314.26,4.74l-4.31-4.71l-0.02,0.02l-0.11-0.12l-1.83,2.34H204.27l-1.5-1.91
		l-0.22-0.32l-0.02,0.01l-0.1-0.12L171.72,33.2L14.45,187.96L0.12,202.08l13.92,14.53l41.57,43.27l14,14.52l0.38,0.4l0,0l0.11,0.11
		l14.66-14.83l30.39-30.67l21.77-21.81v159.29h238.42v-93.24l0.11-66.1l52.02,52.53l14.24,14.37l0.34,0.35l0,0l0.11,0.11
		l14.46-15.03l41.57-43.27l13.91-14.53L497.8,187.96z M441.94,245.76l-50.65-51.17l-36.14-36.67v0.16l-0.16-0.16v188.61H157.74
		l-0.44,0v-188.6L71.9,244.15l-1.59,1.61l-41.57-43.27L155.46,77.75l18.34-18.02l35.36,48.38l6.08,8.37l0.02-0.02l0.1,0.13
		l19.7-20.15l21.01-21.25l0.04,0.06l0.13-0.23l0.01,0l34.94,35.76l5.55,5.72l0.02-0.02l0.11,0.12l36.47-49.9l5.12-6.97
		l145.04,142.77l-40.79,42.45L441.94,245.76z M295.37,95.63l-24.01-24.55l3.29-4.21l6.65-8.48l6.65-8.49l5.73-7.33l0.04-0.03
		l8.45-10.79l7.5-9.57l0.98-1.26l0.04-0.04l1.19,1.29l20.77,22.5l-3.97,5.43l-27.96,38.25L295.37,95.63z M216.84,95.63L183.56,50.1
		l-3.97-5.43l20.77-22.5l1.19-1.29l0.03,0.04l0.99,1.26l7.5,9.57l8.45,10.79l0.03,0.03l5.74,7.33l6.65,8.48l0,0l6.65,8.48l3.29,4.21
		l-20.74,21.21L216.84,95.63z M270.72,49.9h-29.15l-5.77-7.36l-15.95-20.36l-1.29-1.63v-1.29h75.14v1.29l-1.29,1.63l-15.92,20.36
		L270.72,49.9z"/>
	<path class="st0" d="M260.71,201.4c0,6.89,5.6,12.45,12.46,12.45h48.26c6.86,0,12.45-5.57,12.45-12.45v-62.62h-73.17L260.71,201.4
		L260.71,201.4z M323.7,148.96v16.97h-52.81l0,0v-16.97H323.7L323.7,148.96z M321.42,203.67h-48.26c-1.26,0-2.27-1.02-2.27-2.27
		v-25.28h52.81v25.28C323.7,202.66,322.68,203.67,321.42,203.67z"/>
</g>
</svg>
