<!--?xml version="1.0" encoding="utf-8"?-->
<!-- Generator: Adobe Illustrator 18.1.1, SVG Export Plug-In . SVG Version: 6.00 Build 0)  -->

<svg version="1.1" id="_x31_0" xmlns="http://www.w3.org/2000/svg" xmlns:xlink="http://www.w3.org/1999/xlink" x="0px" y="0px" viewBox="0 0 512 512" style="width: 256px; height: 256px; opacity: 1;" xml:space="preserve">
<style type="text/css">
	.st0{fill:#374149;}
</style>
<g>
	<path class="st0" d="M498.895,114.636c-10.315-12.918-26.306-21.422-45.998-24.652c-3.546-0.55-7.322-0.946-11.499-1.181V55.09H0
		v71.442c0,77.503,43.086,152.095,110.036,190.689v9.058c0,23.787,19.295,43.082,43.082,43.082H288.28
		c23.864,0,43.163-19.295,43.163-43.082v-9.058c17.249-9.926,33.236-22.606,47.651-37.651c0.711-0.708,1.338-1.415,1.969-2.127
		c3.23,0.712,6.381,1.185,9.611,1.496c2.362,0.238,4.646,0.315,6.773,0.315c49.07,0,103.025-63.562,112.24-104.99
		C516.302,144.331,507.483,125.348,498.895,114.636z M181.474,126.609v39.932h174.044l39.636,0.038
		c-5.911,24.957-17.168,48.809-32.836,69.277c-6.773,8.9-14.334,17.092-22.449,24.338c-4.566,4.254-9.53,8.192-14.65,11.895
		c-10.318,7.481-21.422,13.626-32.925,18.272l-2.442,1.023v34.894c0,0.392-0.154,0.788-0.469,1.104
		c-0.238,0.158-0.554,0.392-1.104,0.392H153.118c-0.473,0-0.789-0.234-1.023-0.392c-0.315-0.316-0.473-0.712-0.473-1.104v-34.894
		l-2.519-1.023c-11.422-4.646-22.526-10.791-32.844-18.272c-34.66-24.89-59.943-63.17-69.946-105.548h95.702v-39.932H41.59
		c0-0.077,0-29.852,0-29.852h358.222c0,0,0,29.775,0,29.852H181.474z M423.203,231.838c-5.334,3.577-10.703,6.284-15.834,7.942
		c-1.058,0.308-2.115,0.619-3.138,0.819c1.466-2.315,2.93-4.554,4.242-6.95c17.722-30.875,28.356-66.319,28.986-103.494v-3.78
		c5.358,0.234,10.318,0.784,14.73,1.888c7.638,1.969,13.702,5.434,17.326,9.926c4.965,6.222,6.146,15.595,3.388,27.96
		C468.178,187.417,445.652,216.716,423.203,231.838z" style="fill: rgb(255, 255, 255);"></path>
	<path class="st0" d="M433.522,418.812H20.699c-5.67,0-10.277,4.612-10.277,10.277c0,15.342,12.484,27.822,27.822,27.822h377.733
		c15.338,0,27.822-12.48,27.822-27.822C443.798,423.424,439.19,418.812,433.522,418.812z" style="fill: rgb(255, 255, 255);"></path>
</g>
</svg>
