<!--?xml version="1.0" encoding="utf-8"?-->
<!-- Generator: Adobe Illustrator 18.1.1, SVG Export Plug-In . SVG Version: 6.00 Build 0)  -->

<svg version="1.1" id="_x31_0" xmlns="http://www.w3.org/2000/svg" xmlns:xlink="http://www.w3.org/1999/xlink" x="0px" y="0px" viewBox="0 0 512 512" style="width: 256px; height: 256px; opacity: 1;" xml:space="preserve">
<style type="text/css">
	.st0{fill:#374149;}
</style>
<g>
	<path class="st0" d="M417.109,111.923c1.57-2.758,1.477-6.132-0.242-9.034c-9.898-16.671-27.401-26.624-46.822-26.624
		c-9.698,0-19.265,2.637-27.662,7.617c-3.465,2.062-6.687,4.481-9.566,7.191c-3.157,2.965-4.321,7.39-3.062,11.558
		c1.281,4.218,4.761,7.285,9.089,8.007c15.851,2.644,44.885,7.078,61.235,7.078C408.32,117.716,414.371,116.732,417.109,111.923z" style="fill: rgb(255, 255, 255);"></path>
	<path class="st0" d="M469.669,42.341c-56.45-56.454-148.356-56.454-204.81-0.004c-32.119,32.124-47.076,76.383-41.084,121.412
		l1.282,9.785l113.419,113.42l9.785,1.281c45.029,5.996,89.242-9.015,121.361-41.134C526.076,190.646,526.123,98.795,469.669,42.341
		z M305.842,83.319c33.865-33.858,88.983-33.858,122.849,0.004c33.862,33.862,33.81,88.933-0.051,122.794
		c-17.062,17.058-39.806,26.073-63.629,25.409L280.488,147C279.82,123.177,288.784,100.381,305.842,83.319z" style="fill: rgb(255, 255, 255);"></path>
	<path class="st0" d="M222.369,206.094l-6.414-6.43l-0.008,0.008l-0.113-0.114L0.014,445.402L66.612,512l230.265-202.154
		l15.464-13.558l-0.008-0.008l0.118-0.106L222.369,206.094z M235.455,300.941l-46.666,46.666c-3.535,3.535-9.222,3.484-12.706,0
		l-11.679-11.679c-3.484-3.484-3.534-9.171,0-12.702l46.666-46.67c3.488-3.484,9.222-3.484,12.706-0.004l11.679,11.683
		C238.939,291.714,238.939,297.453,235.455,300.941z" style="fill: rgb(255, 255, 255);"></path>
</g>
</svg>
