<!--?xml version="1.0" encoding="utf-8"?-->
<!-- Generator: Adobe Illustrator 19.1.1, SVG Export Plug-In . SVG Version: 6.00 Build 0)  -->
<svg version="1.1" id="_x31_0" xmlns="http://www.w3.org/2000/svg" xmlns:xlink="http://www.w3.org/1999/xlink" x="0px" y="0px" viewBox="0 0 512 512" style="width: 256px; height: 256px; opacity: 1;" xml:space="preserve">
<style type="text/css">
	.st0{fill:#374149;}
</style>
<g>
	<path class="st0" d="M343.691,285.938c-0.55-1.711-1.195-3.324-1.875-4.879c-2.968-7.035-6.586-12.367-9.461-14.984
		c-3.683-3.391-20.347-11.848-34.554-19.086c-10.367-5.328-16.211-9.945-17.89-11.465v-8.973v-4.941
		c0.773-0.293,1.515-0.844,2.226-1.618c0.129-0.129,0.258-0.258,0.355-0.422c1.969-2.226,3.586-4.746,4.39-7.102
		c0.098-0.289,0.196-0.582,0.294-0.871c1.777-5.039,3.133-10.722,3.39-12.34c0.027-0.129,0.035-0.23,0.05-0.332
		c0.004-0.023,0.016-0.062,0.02-0.086c0.742,0.222,1.449,0.32,2.058,0.32c7.496,0,10.562-15.34,10.985-19.375
		c0.449-4.066-3.168-6.843-4.493-7.914c0.294-0.645,0.649-1.614,1.004-2.742c0.031-0.066,0.062-0.164,0.094-0.258
		c0.454-1.39,1.098-3.262,1.68-5.875c0.355-1.554,0.68-3.394,0.969-5.558c0.195-1.324,0.226-2.746,0.164-4.133
		c-0.098-2.906-0.711-5.91-1.778-8.656c-0.871-2.391-2.098-4.586-3.586-6.364l-0.031-0.031c-1.031-1.226-2.195-2.488-3.422-3.617
		c-4.844-4.684-10.563-8.461-13.242-8.461c-5.426-9.754-12.367-16.082-25.223-16.954c-0.773-0.035-1.546-0.035-2.39-0.062h-0.16
		c-9.687,0-26.031,8.328-34.359,19.695c0,0.035,0,0.035,0,0.035c-0.84,1.129-1.586,2.29-2.23,3.454
		c-1.098,2.004-2.098,3.874-2.938,5.652c-1.356,2.875-2.39,5.554-3.035,8.234c-0.39,1.258-0.649,2.551-0.778,3.875
		c-0.546,3.746-0.453,7.718,0.293,12.496v0.035c0.29,1.969,0.676,4.102,1.196,6.394c0.031,0.031,0.031,0.066,0.031,0.098
		c0.386,1.129,0.71,2.098,1.066,2.742c-1.294,1.07-4.493,2.844-4.102,6.882c0.386,3.762,2.706,17.863,8.976,19.981
		c0.074,0.023,0.153,0.043,0.227,0.062c0.441,0.125,0.843,0.363,1.324,0.363c0.676,0,1.386-0.098,2.164-0.32
		c0.129,1.293,0.805,4.973,2.195,8.718c0.386,1.098,0.84,2.485,1.324,3.938c0.098,0.293,0.192,0.551,0.29,0.844
		c0.808,2.324,2.324,4.843,4.23,7.008c0.195,0.222,0.422,0.453,0.613,0.675c0.711,0.742,1.454,1.294,2.23,1.586v4.84v9.074
		c-1.648,1.52-7.523,6.172-17.859,11.465c-14.21,7.266-30.809,15.73-34.492,19.086c-2.871,2.586-6.488,7.949-9.492,14.984
		c-0.645,1.555-1.293,3.168-1.875,4.879c-0.547,1.55-1.062,3.164-1.484,4.844c-0.582,2.035-1.035,4.133-1.422,6.297
		c-0.711,4.137,1.809,8.105,5.848,9.137c23.668,6.042,53.027,9.629,84.836,9.629c31.777,0,61.102-3.586,84.742-9.59
		c4.07-1.035,6.586-5.038,5.844-9.175c-0.386-2.164-0.871-4.262-1.422-6.297C344.758,289.102,344.274,287.488,343.691,285.938z" style="fill: rgb(0, 174, 189);"></path>
	<path class="st0" d="M431.035,459.82V52.242c0-28.828-23.414-52.176-52.176-52.176L133.141,0c-13.828,0-27.133,5.543-36.914,15.328
		c-9.785,9.782-15.262,23.023-15.262,36.848V459.82c0,28.766,23.348,52.18,52.176,52.18h245.718
		C407.621,512,431.035,488.586,431.035,459.82z M133.141,52.176l245.718,0.066v329.77v0.847H133.141V52.176z M274.718,459.82
		c-4.566,5.219-11.281,8.481-18.718,8.481c-7.434,0-14.152-3.262-18.718-8.481c-3.786-4.367-6.134-10.042-6.134-16.304
		c0-13.696,11.157-24.786,24.852-24.786s24.785,11.09,24.785,24.786C280.785,449.778,278.504,455.453,274.718,459.82z" style="fill: rgb(0, 174, 189);"></path>
</g>
</svg>
