<!--?xml version="1.0" encoding="utf-8"?-->
<!-- Generator: Adobe Illustrator 18.1.1, SVG Export Plug-In . SVG Version: 6.00 Build 0)  -->

<svg version="1.1" id="_x31_0" xmlns="http://www.w3.org/2000/svg" xmlns:xlink="http://www.w3.org/1999/xlink" x="0px" y="0px" viewBox="0 0 512 512" style="width: 256px; height: 256px; opacity: 1;" xml:space="preserve">
<style type="text/css">
	.st0{fill:#374149;}
</style>
<g>
	<path class="st0" d="M497.498,243.917c13.071-13.071,15.942-33.466,13.911-55.022c-0.004-0.07-0.012-0.141-0.016-0.211
		c-0.179-1.875-0.398-3.758-0.648-5.645c-0.012-0.098-0.024-0.195-0.035-0.289c-0.258-1.918-0.551-3.837-0.871-5.758
		c-0.008-0.035-0.012-0.074-0.02-0.11c-6.688-39.642-26.486-79.379-27.841-82.09l-2.77-5.461l-0.113-0.242l-0.008,0.004l-0.07-0.141
		l-5.762,3.199c-42.799,24.322-85.204,83.922-122.566,136.406c-3.626,5.168-7.317,10.246-10.872,15.192l-0.336,0.426l0.024,0.012
		c-0.031,0.043-0.066,0.09-0.098,0.133l9.282,4.719c7.36,3.762,12.879,10.481,15.122,18.399c2.321,7.922,1.199,16.563-3.039,23.681
		l-7.363,12.243c-5.36,8.962-15.278,14.559-25.759,14.559c-6.082,0-12.001-1.84-17.044-5.278l-16.4-11.364
		c-6.641,6.481-12.559,10.883-17.52,12.161c-9.04,2.402-19.841,3.602-32.084,3.602c-36.959,0-75.282-11.282-75.602-11.442
		l-2.559-0.719L7.709,394.726c-6.078,3.442-8.958,10.243-7.199,17.04c1.762,6.723,7.68,11.282,14.641,11.282h194.171
		c102.006,0,149.286-76.165,169.529-108.647c3.36-5.438,6.481-10.481,8.078-12.078c5.602-5.602,33.283-18.642,55.526-29.122
		C472.696,258.961,491.576,249.84,497.498,243.917z" style="fill: rgb(255, 255, 255);"></path>
	<path class="st0" d="M500.213,271.481c0.031-0.106,0.058-0.199,0.058-0.199s-62.902,26.099-59.792,29.209
		c22.138,22.158,21.567,92.384,20.806,114.522c-0.008,0.234-0.016,0.547-0.027,0.774h0.004c0,0.047-0.004,0.114-0.004,0.16h9.555
		c3.11-49.569,21.638-117.459,27.603-138.297c1.14-3.886,1.843-6.114,1.918-6.218C500.295,271.446,500.253,271.465,500.213,271.481z
		" style="fill: rgb(255, 255, 255);"></path>
	<path class="st0" d="M230.921,237.917l74.246,51.444l14.56,10.078c2.402,1.68,5.199,2.481,7.922,2.481
		c4.718,0,9.359-2.398,12-6.801l7.36-12.239c4.161-6.962,1.598-15.919-5.602-19.602l-11.438-5.841l-84.727-43.44
		c-2-1.038-4.161-1.519-6.321-1.519c-4.797,0-9.438,2.481-12.001,6.797C223.081,225.596,224.842,233.756,230.921,237.917z
		 M319.969,265.758c1.199,0,2.321,0.16,3.36,0.562c4.16,1.36,7.122,5.278,7.122,9.841c0,5.758-4.723,10.399-10.482,10.399
		c-3.602,0-6.801-1.84-8.641-4.559c0-0.082,0-0.082,0-0.082c-1.121-1.68-1.762-3.598-1.762-5.758
		C309.566,270.399,314.207,265.758,319.969,265.758z" style="fill: rgb(255, 255, 255);"></path>
</g>
</svg>
