<!--?xml version="1.0" encoding="utf-8"?-->
<!-- Generator: Adobe Illustrator 18.1.1, SVG Export Plug-In . SVG Version: 6.00 Build 0)  -->

<svg version="1.1" id="_x31_0" xmlns="http://www.w3.org/2000/svg" xmlns:xlink="http://www.w3.org/1999/xlink" x="0px" y="0px" viewBox="0 0 512 512" style="width: 256px; height: 256px; opacity: 1;" xml:space="preserve">
<style type="text/css">
	.st0{fill:#374149;}
</style>
<g>
	<path class="st0" d="M447.008,353.981c-26.309,2.374-43.246-11.294-53.45-19.825c-2.629-2.246-6.543-5.582-8.274-6.418
		c-0.386,0.066-0.578,0.129-1.027,0.195c-1.348,1.282-4.043,5.645-5.906,8.598c-8.019,12.574-22.39,34.133-54.855,36.637
		c-3.504,0.27-6.801,0.246-9.965,0.05c-0.918-0.058-1.832-0.121-2.722-0.214c-2.665-0.274-5.207-0.699-7.633-1.254
		c-0.742-0.172-1.481-0.34-2.2-0.535c-2.554-0.684-4.976-1.512-7.269-2.454c-0.398-0.164-0.805-0.32-1.196-0.488
		c-13.687-5.969-22.714-15.898-28.75-22.89c-2.246-2.566-5.645-6.477-7.187-7.57h-1.153c-1.543,1.094-4.879,4.941-7.187,7.57
		c-7.344,8.402-18.965,21.175-37.942,26.034c-0.149,0.039-0.301,0.07-0.45,0.106c-2.824,0.703-5.824,1.207-8.98,1.52
		c-0.699,0.066-1.418,0.113-2.137,0.164c-3.242,0.21-6.629,0.238-10.226-0.039c-32.465-2.504-46.902-23.996-54.859-36.637
		c-1.798-2.886-4.559-7.316-5.902-8.598c-0.45-0.066-0.641-0.129-1.028-0.195c-1.73,0.836-5.582,4.172-8.277,6.418
		c-10.203,8.531-27.141,22.199-53.446,19.825c-8.367,37.59-19.973,108.972-25.102,141.332C38.496,504.09,45.285,512,54.176,512
		h3.594h145.039h106.378h148.641c8.886,0,15.676-7.906,14.289-16.683C467.004,462.961,455.422,391.574,447.008,353.981z
		 M297.235,486.789H239.48l-24.762-0.066c11.793-25.32,29.715-64.621,41.278-93.859c10.242,25.89,25.453,59.637,36.992,84.614
		C294.449,480.68,295.879,483.82,297.235,486.789z" style="fill: rgb(0, 174, 189);"></path>
	<path class="st0" d="M477.613,267.234c-2.37-4.106-5.965-7.379-9.878-10.07c-15.078-10.141-62.238-42.543-114.402-97.914
		c-27.356-29.028-67.977-61.188-86.906-80.325V0h-20.855v78.922c-18.926,19.141-59.551,51.297-86.906,80.329
		c-52.16,55.37-99.321,87.773-114.402,97.914c-3.91,2.691-7.504,5.965-9.875,10.07c-9.625,16.746-6.098,39.012,10.262,50.496
		c5.008,3.465,10.973,5.774,18.863,5.774c3.594,0,6.801-0.45,9.626-1.348c22.781-6.672,25.988-36.633,54.476-36.633
		c32.078,0,32.078,37.981,64.161,37.981c32.082,0,32.082-37.981,64.16-37.981h0.129c32.082,0,32.082,37.981,64.164,37.981
		c32.078,0,32.078-37.981,64.16-37.981c28.489,0,31.695,29.961,54.473,36.633c2.824,0.898,6.035,1.348,9.625,1.348
		c7.891,0,13.859-2.309,18.863-5.774C483.711,306.246,487.239,283.981,477.613,267.234z" style="fill: rgb(0, 174, 189);"></path>
	<polygon class="st0" points="347.891,31.309 347.758,31.25 347.953,31.16 302.024,10.918 283.652,2.754 283.652,2.824 
		283.496,2.754 283.496,59.566 321.785,42.691 	" style="fill: rgb(0, 174, 189);"></polygon>
</g>
</svg>
