<svg xmlns="http://www.w3.org/2000/svg" width="29.459" height="21.027" viewBox="0 0 29.459 21.027">
  <path id="合体_13" data-name="合体 13" d="M11.349,21.027H3.822S-1.083,6.427.22,5.893c.679-.279,1.716.826,3.04,1.931A6.941,6.941,0,0,0,7.41,9.8l.081,0a2.153,2.153,0,0,0,.345-.028C11.108,9.187,13.017,0,14.555,0a.444.444,0,0,1,.175.038A.444.444,0,0,1,14.9,0c1.538,0,3.448,9.187,6.719,9.768a2.157,2.157,0,0,0,.345.028l.081,0A6.941,6.941,0,0,0,26.2,7.824c1.324-1.105,2.36-2.21,3.04-1.931,1.3.534-3.6,15.134-3.6,15.134Z" fill="#f5b82b"/>
</svg>
