<?xml version="1.0" encoding="utf-8"?>
<!-- Generator: Adobe Illustrator 18.0.0, SVG Export Plug-In . SVG Version: 6.00 Build 0)  -->
<!DOCTYPE svg PUBLIC "-//W3C//DTD SVG 1.1//EN" "http://www.w3.org/Graphics/SVG/1.1/DTD/svg11.dtd">
<svg version="1.1" id="レイヤー_1" xmlns="http://www.w3.org/2000/svg" xmlns:xlink="http://www.w3.org/1999/xlink" x="0px"
	 y="0px" viewBox="4.5 798.9 1430 402.1" enable-background="new 4.5 798.9 1430 402.1" xml:space="preserve">
<g>
	<g>
		<path fill="#1E4FAD" stroke="#FFFFFF" stroke-miterlimit="10" d="M18.1,1200.6h1402.9c7,0,13-6,13-13v-375c0-7-6-13-13-13H18.1
			c-7,0-13,6-13,13v374C5,1194.5,11,1200.6,18.1,1200.6z"/>
	</g>
	<g enable-background="new    ">
		<path fill="#FFFFFF" d="M523.3,1064.8V934.9h53.4v16.4h-29.7v37.8h23.7v16.7h-23.7v59.1H523.3z"/>
		<path fill="#FFFFFF" d="M615.5,1066.3c-5.8-0.1-10.6-2.3-14.4-6.9c-3.7-4.5-5.6-9.6-5.6-15.3c0-5.4,0.9-10.1,2.7-14.1
			c1.8-4,4.7-7.5,8.7-10.3c4-2.9,7.4-5,10.1-6.3c2.7-1.3,6.8-3,12.3-5.2c1.6-0.6,2.7-1.1,3.5-1.4v-7.8c0-4.2-0.5-7.2-1.4-9.2
			c-1-1.9-2.9-2.9-5.9-2.9c-4.9,0-7.3,3.4-7.4,10.2l-0.3,5.8l-21-0.8c0-0.3,0-0.9,0-1.7c0-0.8,0-1.4,0-1.6
			c0.7-9.7,3.6-16.8,8.7-21.4s12.4-6.8,21.8-6.8c9.1,0,15.9,2.5,20.3,7.4c4.4,5,6.6,12,6.6,21.1v42.4c0,7.1,0.6,14.9,1.7,23.3h-19.8
			c-1.2-6.1-2-10.6-2.3-13.6c-1.3,4.3-3.5,7.9-6.5,10.8C624.3,1064.9,620.4,1066.3,615.5,1066.3z M623.9,1049.3c1.7,0,3.3-0.6,5-1.9
			c1.6-1.3,3-2.5,4-3.8v-25.5c-10.9,6-16.3,12.8-16.3,20.4c0,3.3,0.6,6,1.9,7.9C619.8,1048.3,621.6,1049.3,623.9,1049.3z"/>
		<path fill="#FFFFFF" d="M708.1,1066.3c-10.5,0-18-3-22.6-8.9c-4.6-5.9-6.9-14.4-6.9-25.6V1005c0-11.2,2.3-19.7,6.9-25.5
			c4.6-5.8,12.1-8.8,22.6-8.8c9.9,0,17,2.3,21.5,7c4.5,4.6,6.7,11.9,6.7,21.6v7.5h-20.4v-7.9c0-4.7-0.6-8-1.7-9.8
			c-1.1-1.9-3.1-2.8-5.8-2.8c-3.1,0-5.2,1.1-6.2,3.3c-1.1,2.2-1.6,6.3-1.6,12.2v33.8c0,5.9,0.6,9.9,1.8,11.9
			c1.2,2.1,3.2,3.1,6.1,3.1c2.9,0,4.9-1,6-3c1-2,1.6-5.1,1.6-9.1v-9.9h20.4v8.8c0,9.6-2.3,16.8-6.9,21.7
			C724.8,1063.9,717.7,1066.3,708.1,1066.3z"/>
		<path fill="#FFFFFF" d="M788.8,1066.3c-10.6,0-18.2-2.9-22.9-8.8c-4.6-5.8-7-14.5-7-25.9v-26.2c0-11.4,2.4-20.1,7.1-25.9
			c4.7-5.8,12.3-8.8,22.7-8.8c5.5,0,10.2,0.8,14,2.4c3.8,1.6,6.7,4.1,8.9,7.4s3.6,7.1,4.5,11.4c0.9,4.3,1.3,9.5,1.3,15.6v12.1h-36.7
			v13.9c0,1.9,0,3.4,0,4.5c0,1.1,0.1,2.4,0.3,3.9c0.2,1.5,0.4,2.7,0.7,3.5c0.3,0.8,0.8,1.7,1.4,2.5c0.6,0.9,1.3,1.5,2.3,1.8
			c0.9,0.4,2,0.5,3.3,0.5c2.9,0,5-1,6.1-3.1c1.1-2.1,1.7-5.1,1.7-9v-5.3h20.8v3.7c0,9.6-2.4,17-7.2,22.1
			C805.3,1063.8,798.2,1066.3,788.8,1066.3z M780.7,1008.6h15.8v-8.9c0-4.7-0.6-8.1-1.8-10.1c-1.2-2-3.3-3.1-6.2-3.1
			c-3,0-5.1,1.1-6.2,3.4c-1.1,2.3-1.6,6.5-1.6,12.5V1008.6z"/>
		<path fill="#FFFFFF" d="M881.7,1066.3c-5.8,0-11.6-2.8-17.3-8.3v6.8h-21.9V934.9h21.9v44.2c5.7-5.7,11.9-8.5,18.7-8.5
			c3.3,0.1,6.2,0.8,8.7,2.3c2.5,1.5,4.5,3.3,6,5.4c1.4,2.2,2.6,4.7,3.5,7.7c0.9,3,1.5,5.7,1.8,8.2c0.3,2.5,0.5,5.1,0.5,7.7v30.4
			c0,4.7-0.4,9-1.2,13s-2,7.5-3.7,10.7c-1.7,3.2-4,5.7-6.9,7.5C889.1,1065.4,885.7,1066.3,881.7,1066.3z M874.2,1050.6
			c1.6,0,3-0.4,4-1.3c1.1-0.9,1.9-2.2,2.4-4c0.5-1.8,0.8-3.6,1-5.4c0.2-1.8,0.2-4.1,0.2-6.7v-32c0-2.2-0.1-4.1-0.3-5.8
			c-0.2-1.7-0.6-3.3-1.2-4.8c-0.6-1.5-1.4-2.7-2.5-3.5c-1.1-0.8-2.5-1.2-4.1-1.1c-3,0.1-6,1.3-9.2,3.6v58.2
			C867.4,1049.6,870.7,1050.6,874.2,1050.6z"/>
		<path fill="#FFFFFF" d="M956.7,1066.3c-10,0-17.4-2.8-22.3-8.4c-4.9-5.6-7.3-13.6-7.3-24.1v-30.6c0-10.4,2.4-18.5,7.3-24.1
			c4.9-5.6,12.3-8.4,22.3-8.4c10,0,17.5,2.8,22.4,8.4c4.9,5.6,7.4,13.6,7.4,24.1v30.6c0,10.4-2.5,18.5-7.4,24.1
			C974.2,1063.5,966.8,1066.3,956.7,1066.3z M956.8,1050.9c1.8,0,3.2-0.4,4.3-1.2c1.1-0.8,1.9-2,2.4-3.6c0.5-1.6,0.8-3.2,1-4.8
			c0.2-1.5,0.2-3.5,0.2-6v-33.6c0-1.9,0-3.5-0.1-4.8c-0.1-1.3-0.3-2.7-0.5-4.2c-0.3-1.5-0.7-2.7-1.3-3.6c-0.6-0.9-1.4-1.6-2.4-2.2
			c-1-0.6-2.2-0.9-3.7-0.9c-1.8,0-3.2,0.4-4.3,1.2c-1.1,0.8-1.9,2-2.4,3.7c-0.5,1.6-0.8,3.2-1,4.8c-0.2,1.5-0.2,3.5-0.2,6v33.6
			c0,1.9,0,3.5,0.1,4.8c0.1,1.3,0.3,2.7,0.5,4.2c0.3,1.5,0.7,2.7,1.3,3.5c0.6,0.9,1.4,1.6,2.4,2.2
			C954.1,1050.6,955.3,1050.9,956.8,1050.9z"/>
		<path fill="#FFFFFF" d="M1039.4,1066.3c-10,0-17.4-2.8-22.3-8.4c-4.9-5.6-7.3-13.6-7.3-24.1v-30.6c0-10.4,2.4-18.5,7.3-24.1
			c4.9-5.6,12.3-8.4,22.3-8.4c10,0,17.5,2.8,22.4,8.4c4.9,5.6,7.4,13.6,7.4,24.1v30.6c0,10.4-2.5,18.5-7.4,24.1
			C1057,1063.5,1049.5,1066.3,1039.4,1066.3z M1039.5,1050.9c1.8,0,3.2-0.4,4.3-1.2c1.1-0.8,1.9-2,2.4-3.6c0.5-1.6,0.8-3.2,1-4.8
			c0.2-1.5,0.2-3.5,0.2-6v-33.6c0-1.9,0-3.5-0.1-4.8c-0.1-1.3-0.3-2.7-0.5-4.2c-0.3-1.5-0.7-2.7-1.3-3.6c-0.6-0.9-1.4-1.6-2.4-2.2
			c-1-0.6-2.2-0.9-3.7-0.9c-1.8,0-3.2,0.4-4.3,1.2c-1.1,0.8-1.9,2-2.4,3.7c-0.5,1.6-0.8,3.2-1,4.8c-0.2,1.5-0.2,3.5-0.2,6v33.6
			c0,1.9,0,3.5,0.1,4.8c0.1,1.3,0.3,2.7,0.5,4.2c0.3,1.5,0.7,2.7,1.3,3.5c0.6,0.9,1.4,1.6,2.4,2.2
			C1036.8,1050.6,1038.1,1050.9,1039.5,1050.9z"/>
		<path fill="#FFFFFF" d="M1094.5,1064.7V934.8h21.8v74.3l23.2-37l23.7-0.1l-22.7,37.1l22.3,55.6h-23l-16.5-45.6l-7.1,10v35.4
			H1094.5z"/>
	</g>
	<path fill="#FFFFFF" d="M284.8,921.8c6,0,13,0,19.1,0c1,0,2,0,3,0v-33.1c-3,0-7-1-11-1c-7,0-13-1-20.1,0c-10,0-20.1,3-28.1,9
		c-10,7-15,16-17,28.1c-1,5-1,10-1,14c0,7,0,15,0,22.1v3h-32.1v37.1h33.1v94.3h39.1V1002h31.1c2-12,3-25.1,5-37.1c-3,0-5,0-7,0
		c-9,0-30.1,0-30.1,0s0-18.1,0-26.1C269.7,925.8,275.8,921.8,284.8,921.8z"/>
</g>
</svg>
