<?xml version="1.0" encoding="utf-8"?>
<!-- Generator: Adobe Illustrator 25.2.3, SVG Export Plug-In . SVG Version: 6.00 Build 0)  -->
<svg version="1.1" id="レイヤー_1" xmlns="http://www.w3.org/2000/svg" xmlns:xlink="http://www.w3.org/1999/xlink" x="0px"
	 y="0px" viewBox="0 0 350 190" style="enable-background:new 0 0 350 190;" xml:space="preserve">
<style type="text/css">
	.st0{fill:#FFFFFF;}
	.st1{fill:#00AEBD;}
	.st2{fill:#555353;}
	.st3{enable-background:new    ;}
	.st4{fill:#555353;stroke:#555353;}
	.st5{fill:#A2D5D9;}
	.st6{fill:#D1ECF5;}
</style>
<rect class="st0" width="350" height="190"/>
<g id="グループ_845" transform="translate(-2147.398 -2325.465)">
	<path id="パス_1060-4" class="st1" d="M2368.3,2437.7c-0.6-0.2-1.1-0.4-1.6-0.7c-4.8,2.9-6.4,9.2-3.5,14.1c1.9,3.1,5.2,5,8.8,5
		h5.1v-5.4c-0.8-0.6-1.6-1.2-2.3-1.9C2371.8,2445.6,2369.5,2441.9,2368.3,2437.7z"/>
	<path id="パス_1062-4" class="st1" d="M2417.9,2445.8c0-3.6-1.9-6.9-5-8.8c-0.5,0.3-1.1,0.5-1.6,0.7c-1.2,4.2-3.4,8-6.5,11
		c-0.7,0.7-1.5,1.3-2.3,1.9v5.4h5.1C2413.4,2456,2417.9,2451.5,2417.9,2445.8z"/>
	<path id="パス_1063-4" class="st1" d="M2389.8,2396.8c-12.8,0-23.1,11-23.1,24.5v1.8c0.3-0.2,0.7-0.3,1-0.4c0.1,0,0.2,0,0.3-0.1
		l9.3-1.3c5.9-0.8,11-4.3,13.9-9.5c1.2-2.5,3.3-4.6,5.8-5.7c0.6-0.2,1.3-0.1,1.8,0.5l13.5,16.3c0.2,0.1,0.4,0.2,0.6,0.3v-1.8
		C2413,2407.8,2402.6,2396.8,2389.8,2396.8z M2372.8,2417.5l-0.3-3.1c4.4-0.4,8.6-2.4,11.6-5.7l2.3,2.1
		C2382.8,2414.7,2378,2417.1,2372.8,2417.5L2372.8,2417.5z"/>
	<path id="パス_1066-4" class="st2" d="M2389.8,2444.6c2.7,0,5.3-1.1,7.2-3l-2.2-2.2c-2.7,2.7-7.2,2.8-10,0l0,0l-2.2,2.2
		C2384.6,2443.6,2387.1,2444.6,2389.8,2444.6z"/>
	<path id="パス_1067-4" class="st2" d="M2390.6,2436.5l2.2-2.2l-2.7-2.7l2.7-2.7l-2.2-2.2l-3.8,3.8c-0.6,0.6-0.6,1.6,0,2.2l0,0
		L2390.6,2436.5z"/>
	<path id="パス_1068-4" class="st2" d="M2381.1,2430.5c1.3,0,2.4-1.1,2.4-2.4s-1.1-2.4-2.4-2.4c-1.3,0-2.4,1.1-2.4,2.4
		C2378.8,2429.4,2379.8,2430.5,2381.1,2430.5z"/>
	<path id="パス_1069-4" class="st2" d="M2398.5,2430.5c1.3,0,2.4-1.1,2.4-2.4s-1.1-2.4-2.4-2.4c-1.3,0-2.4,1.1-2.4,2.4
		C2396.2,2429.4,2397.2,2430.5,2398.5,2430.5z"/>
	<path id="パス_1070-4" class="st2" d="M2428.7,2466.1l-26.1-5.3v-1.7h5.1c7.4,0,13.4-6,13.4-13.3c0-4.2-2-8.2-5.4-10.7
		c2-2.1,2.7-5.2,1.6-7.9c-0.3-0.7-0.7-1.3-1.2-1.8v-4.1c0-15.2-11.8-27.7-26.2-27.7s-26.2,12.4-26.2,27.7v4.1
		c-0.5,0.5-0.9,1.1-1.2,1.8c-1.1,2.7-0.4,5.8,1.6,7.9c-5.9,4.4-7.2,12.8-2.8,18.7c2.5,3.4,6.5,5.4,10.7,5.4h5.1v1.7l-26.1,5.3
		c-6.9,1.4-11.9,7.5-11.9,14.5v20.7c0,0.9,0.7,1.6,1.6,1.6l0,0h98.3c0.9,0,1.6-0.7,1.6-1.6l0,0v-20.7
		C2440.5,2473.6,2435.6,2467.5,2428.7,2466.1z M2366.6,2433.3c-1.8-1.2-2.3-3.6-1.1-5.4c0.2-0.2,0.3-0.5,0.6-0.7
		c0.7-0.7,1.5-1.2,2.5-1.6l9.2-1.3c6.8-0.9,12.8-5,16.2-11c0.8-1.5,1.9-2.9,3.3-3.8l13,15.7c0.2,0.2,0.4,0.4,0.7,0.5
		c1,0.3,1.9,0.9,2.6,1.6c1.6,1.5,1.6,3.9,0.1,5.5c-0.2,0.2-0.4,0.4-0.7,0.6c-1,0.8-2.1,1.4-3.3,1.6c-0.5,0.1-1,0.5-1.1,1.1
		c-1,4-3.1,7.6-5.9,10.5c-7.2,6.9-18.5,6.9-25.7,0c-2.9-2.9-4.9-6.5-5.9-10.5c-0.2-0.5-0.6-1-1.1-1.1
		C2368.7,2434.7,2367.6,2434.1,2366.6,2433.3z M2380.2,2452.4c3,1.4,6.3,2.2,9.6,2.3h0.1c3.3-0.1,6.6-0.9,9.6-2.3v9.4l-9.6,14.6
		l-9.6-14.6L2380.2,2452.4z M2417.9,2445.8c0,5.7-4.6,10.2-10.2,10.2h-5.1v-5.4c0.8-0.6,1.6-1.2,2.3-1.9c3.1-3.1,5.3-6.9,6.5-11
		c0.6-0.2,1.1-0.4,1.6-0.7C2416.1,2438.9,2418,2442.2,2417.9,2445.8L2417.9,2445.8z M2366.7,2421.3c0-13.5,10.4-24.5,23.1-24.5
		s23.1,11,23.1,24.5v1.8c-0.2-0.1-0.4-0.2-0.6-0.3l-13.5-16.3c-0.4-0.5-1.1-0.7-1.8-0.5c-2.6,1.2-4.6,3.2-5.8,5.7
		c-2.9,5.2-8,8.7-13.9,9.5l-9.3,1.3c-0.1,0-0.2,0-0.3,0.1c-0.4,0.1-0.7,0.3-1,0.4V2421.3z M2372,2456c-5.7,0-10.2-4.6-10.2-10.2
		c0-3.6,1.9-6.9,4.9-8.8c0.5,0.3,1.1,0.5,1.6,0.7c1.2,4.2,3.4,8,6.5,11c0.7,0.7,1.5,1.3,2.3,1.9v5.4L2372,2456L2372,2456z
		 M2437.4,2499.8h-95.2v-19.1c0-5.6,3.9-10.4,9.4-11.5l26.1-5.3l10.2,15.4l-6.9,10.4l2.6,1.7l6.1-9.3l6.1,9.3l2.6-1.7l-6.9-10.4
		l10.2-15.4l26.1,5.3c5.5,1.1,9.4,5.9,9.4,11.5L2437.4,2499.8z"/>
	<path id="パス_1071-4" class="st2" d="M2386.4,2410.9l-2.3-2.1c-3,3.3-7.2,5.3-11.6,5.7l0.3,3.1
		C2378,2417.1,2382.8,2414.7,2386.4,2410.9z"/>
</g>
<g class="st3">
	<path class="st1" d="M261.6,31.4h-1.7c-0.1,0-0.1,0-0.1,0v-0.1v-1c0-0.1,0-0.1,0-0.1h0.1h1.7h3.1V30c0-0.7,0-1.2-0.1-1.7
		c0.6,0,1.1,0,1.5,0.1c0.1,0,0.2,0.1,0.2,0.1s0,0.1-0.1,0.3c-0.1,0.2-0.1,0.5-0.1,1v0.3h3.3h1.7c0.1,0,0.1,0,0.1,0v0.1v1
		c0,0.1,0,0.1,0,0.1h-0.1h-1.7h-3.3v1.6h1.9c0.2,0,0.3,0,0.4-0.1c0.1,0,0.1-0.1,0.2-0.1s0.2,0.1,0.5,0.4s0.4,0.4,0.4,0.6
		c0,0.1-0.1,0.1-0.2,0.2s-0.2,0.2-0.3,0.3c-0.7,1.1-1.5,2-2.4,2.8c1.2,0.7,2.8,1.2,4.8,1.5c-0.2,0.3-0.4,0.6-0.6,1
		c-0.1,0.2-0.2,0.3-0.3,0.3c-0.1,0-0.2,0-0.3,0c-2.1-0.5-3.7-1.1-4.9-1.9c-1.2,0.8-2.8,1.4-4.7,1.9c-0.1,0-0.2,0.1-0.3,0.1
		c-0.1,0-0.2-0.1-0.3-0.3c-0.1-0.4-0.3-0.7-0.5-0.9c2-0.4,3.5-0.9,4.7-1.6c-0.9-0.8-1.6-1.8-2.1-3c-0.4,0-0.7,0-1,0h-0.3
		c-0.1,0-0.1,0-0.1,0V34v-1c0-0.1,0-0.1,0-0.1h0.1h1.8h2v-1.6h-3V31.4z M267.5,34.3h-3.7c0.5,0.9,1.1,1.6,1.8,2.2
		C266.3,35.9,266.9,35.1,267.5,34.3z"/>
	<path class="st1" d="M272.7,38.7c0.2,0,0.6,0,1.1,0c0.2,0,0.3-0.1,0.3-0.4v-2.6l-0.5,0.2c-0.2,0.1-0.3,0.1-0.5,0.2
		c-0.1,0.1-0.1,0.1-0.2,0.1s-0.1-0.1-0.2-0.2c-0.1-0.3-0.2-0.7-0.2-1.2c0.4-0.1,0.8-0.1,1.2-0.2l0.4-0.1V32h-0.2h-1.1
		c-0.1,0-0.1,0-0.1,0v-0.1V31c0-0.1,0-0.1,0-0.1h0.1h1.1h0.2v-0.7c0-0.7,0-1.3-0.1-1.8c0.5,0,0.9,0,1.3,0.1c0.1,0,0.2,0.1,0.2,0.1
		s0,0.1-0.1,0.3c-0.1,0.1-0.1,0.5-0.1,1.3v0.7h1c0.1,0,0.1,0,0.1,0V31v0.9c0,0.1,0,0.1,0,0.1h-0.1h-1v2.1c0.1-0.1,0.5-0.2,1-0.4
		c0,0.2-0.1,0.6-0.1,0.9c0,0.2,0,0.3-0.1,0.3c0,0-0.1,0.1-0.2,0.1c-0.2,0.1-0.4,0.2-0.7,0.3v0.5v2.6c0,0.7-0.1,1.1-0.4,1.3
		c-0.2,0.2-0.7,0.3-1.5,0.3c-0.1,0-0.1,0-0.2,0s-0.2,0-0.3-0.1c0,0-0.1-0.1-0.1-0.3C273,39.3,272.9,39,272.7,38.7z M275.5,39.1
		c1.4-1,2.3-2.5,2.8-4.4c-0.4,0-0.8,0-1.1,0c-0.2,0-0.3,0-0.3,0c-0.1,0-0.1,0-0.1,0v-0.1v-0.9c0-0.1,0-0.1,0-0.1h0.1h1.6
		c0-0.1,0-0.4,0.1-0.7h-1.5c-0.1,0-0.1,0-0.1,0v-0.1v-0.7c0-0.1,0-0.1,0-0.1h0.1h1.7h2.8c0.3-0.5,0.5-0.9,0.7-1.4
		c0.1-0.3,0.2-0.5,0.2-0.7c0.5,0.1,0.9,0.2,1.2,0.3c0.1,0,0.2,0.1,0.2,0.2s0,0.1-0.1,0.2s-0.1,0.1-0.2,0.2c-0.3,0.7-0.6,1.1-0.6,1.2
		h1.3c0.1,0,0.1,0,0.1,0v0.1v0.7c0,0.1,0,0.1,0,0.1h-0.1h-1.7h-2.5c0,0.3-0.1,0.5-0.1,0.7h2.8h1.7c0.1,0,0.1,0,0.1,0.1v0.9
		c0,0.1,0,0.1,0,0.1h-0.1h-1.7h-3c0,0.2-0.1,0.4-0.2,0.7h3c0.1,0,0.2,0,0.3-0.1c0.1,0,0.1,0,0.2,0s0.3,0.1,0.5,0.3
		c0.2,0.2,0.3,0.4,0.3,0.5s0,0.1-0.1,0.2s-0.2,0.2-0.3,0.4c-0.4,0.6-0.8,1.1-1.3,1.5c0.7,0.3,1.7,0.6,2.8,0.8
		c-0.1,0.2-0.3,0.4-0.4,0.8c-0.1,0.2-0.2,0.3-0.3,0.3c0,0-0.1,0-0.3-0.1c-1.1-0.3-2-0.7-2.8-1.1c-0.7,0.5-1.5,0.9-2.5,1.2
		c-0.1,0.1-0.2,0.1-0.3,0.1c-0.1,0-0.1-0.1-0.2-0.3c-0.1-0.2-0.3-0.5-0.5-0.7c1-0.2,1.8-0.5,2.5-1c-0.4-0.4-0.8-0.8-1.1-1.2
		c-0.5,1.1-1.2,2-2.1,2.7c-0.1,0.1-0.2,0.2-0.3,0.2c-0.1,0-0.1-0.1-0.2-0.2C276,39.5,275.8,39.3,275.5,39.1z M283,28.2
		c0.3,0.2,0.6,0.4,0.9,0.7c0.1,0.1,0.1,0.2,0.1,0.2c0,0.1-0.1,0.2-0.3,0.2c-0.1,0-0.3,0-0.6,0.1c-1.5,0.3-3.4,0.5-5.5,0.7
		c-0.1,0-0.2,0-0.2,0c-0.1,0-0.2,0-0.2-0.1c0,0-0.1-0.1-0.1-0.3c-0.1-0.3-0.2-0.5-0.4-0.7c2.2,0,4-0.2,5.6-0.5
		C282.5,28.4,282.8,28.3,283,28.2z M278.4,30.2c0.2,0.3,0.4,0.6,0.6,1.1v0.1c0,0-0.1,0.1-0.2,0.1l-0.7,0.3c-0.1,0-0.1,0-0.2,0
		c0,0-0.1,0-0.1-0.1c-0.1-0.4-0.3-0.8-0.5-1.1c0-0.1-0.1-0.1-0.1-0.1s0-0.1,0.1-0.1l0.7-0.3c0.1,0,0.1,0,0.2,0
		S278.4,30.1,278.4,30.2z M281.8,36.3h-2.4c0.4,0.5,0.8,0.9,1.3,1.3C281.2,37.2,281.5,36.8,281.8,36.3z M279.6,30.4
		C279.6,30.3,279.6,30.3,279.6,30.4c0-0.1,0-0.2,0.2-0.2l0.6-0.2c0.1,0,0.1,0,0.2,0c0,0,0.1,0,0.1,0.1c0.2,0.4,0.4,0.8,0.6,1.2v0.1
		c0,0.1-0.1,0.1-0.2,0.1l-0.7,0.3c-0.1,0-0.1,0.1-0.2,0.1c0,0-0.1,0-0.1-0.1C280,31.3,279.8,30.9,279.6,30.4z"/>
	<path class="st1" d="M286.9,28.9c0.8,0.1,1.4,0.2,1.6,0.2c0.2,0.1,0.3,0.1,0.3,0.2s0,0.2-0.1,0.4c-0.1,0.2-0.1,0.7-0.2,1.6
		c-0.1,2-0.2,3.7-0.2,5c0,0.7,0.1,1.2,0.2,1.3c0.2,0.2,0.5,0.3,1,0.3c0.7,0,1.4-0.2,2.3-0.6c0.8-0.4,1.6-1,2.3-1.8
		c0,0.5,0.1,0.9,0.3,1.2c0.1,0.2,0.1,0.3,0.1,0.3c0,0.1-0.1,0.3-0.3,0.4c-0.7,0.7-1.6,1.2-2.5,1.5c-0.8,0.3-1.6,0.4-2.4,0.4
		c-0.9,0-1.6-0.2-1.9-0.7c-0.3-0.4-0.5-1.1-0.5-2c0-0.8,0.1-2.7,0.2-5.6c0-0.4,0-0.7,0-0.9C287.1,29.8,287,29.3,286.9,28.9z"/>
	<path class="st1" d="M300,36.3c0-0.8-0.1-1.3-0.1-1.5c-0.4,0-0.7,0-1,0c-0.6,0-1.2,0-1.7-0.1c-0.1,0-0.2-0.1-0.2-0.2
		c-0.1-0.3-0.1-0.7-0.1-1.1c0.7,0.1,1.4,0.1,2.1,0.1c0.3,0,0.5,0,0.8,0V32c-0.5,0-1,0-1.3,0c-0.7,0-1.3,0-1.8-0.1
		c-0.1,0-0.2-0.1-0.2-0.2c0-0.3-0.1-0.7-0.1-1.2c0.8,0.1,1.9,0.1,3.4,0.1c0-0.2,0-0.7,0-1.3c0-0.3-0.1-0.6-0.2-0.9
		c0.7,0,1.3,0.1,1.6,0.2c0.1,0,0.2,0.1,0.2,0.2s0,0.1,0,0.1c-0.1,0.2-0.2,0.5-0.2,0.6s0,0.2,0,0.4c0,0.2,0,0.3,0,0.4
		c1-0.1,1.9-0.2,2.8-0.4h0.1c0.1,0,0.1,0.1,0.1,0.2c0,0.3,0.1,0.6,0.1,0.9c0,0.1,0,0.2-0.1,0.2c-0.9,0.2-1.9,0.3-3,0.3V33
		c0.4,0,1.2-0.1,2.5-0.3h0.1c0.1,0,0.1,0,0.1,0.1c0,0.5,0,0.9,0,1.1c0,0.1-0.1,0.2-0.2,0.2c-0.9,0.1-1.8,0.3-2.5,0.3
		c0,0.9,0.1,1.5,0.1,1.8c1.3,0.3,2.4,0.9,3.4,1.6c0.1,0.1,0.1,0.1,0.1,0.2v0.1c-0.1,0.4-0.3,0.7-0.6,1c0,0.1-0.1,0.1-0.2,0.1
		s-0.1,0-0.1-0.1c-0.7-0.6-1.6-1.1-2.6-1.5c0,0.7-0.3,1.3-0.7,1.6c-0.4,0.3-1,0.4-1.9,0.4s-1.6-0.2-2.1-0.6
		c-0.4-0.3-0.6-0.7-0.6-1.2c0-0.6,0.3-1,0.8-1.4c0.5-0.3,1.1-0.5,1.8-0.5C299.2,36.2,299.6,36.2,300,36.3z M300.1,37.5
		c-0.4-0.1-0.8-0.2-1.2-0.2c-0.9,0-1.4,0.2-1.4,0.7c0,0.4,0.4,0.6,1.3,0.6c0.6,0,1-0.1,1.2-0.4C300,38.1,300.1,37.9,300.1,37.5z"/>
	<path class="st1" d="M312.3,30.6c0-0.1,0-0.3,0-0.6c0-0.2,0-0.4,0-0.5c0-0.3-0.1-0.6-0.2-1c0.6,0,1.1,0.1,1.5,0.2
		c0.2,0,0.4,0.1,0.4,0.2s0,0.2-0.1,0.3c0,0.1-0.1,0.2-0.1,0.4c0,0.1,0,0.3,0,0.8c1.2,0,2.5-0.1,4-0.1c0.1,0,0.1,0,0.2,0
		c0,0,0,0.1,0,0.2c0,0.2,0,0.3,0,0.5s0,0.3,0,0.5c0,0.1-0.1,0.2-0.2,0.2c0,0,0,0-0.1,0c-0.8,0-1.6,0-2.5,0c-0.5,0-1,0-1.5,0
		c0,1.1,0,1.9,0,2.4c0.1,0.4,0.2,0.8,0.2,1.3c0,1.8-0.8,3.2-2.3,4.2c-0.3,0.2-0.4,0.2-0.5,0.2s-0.2-0.1-0.4-0.2
		c-0.3-0.2-0.6-0.4-1-0.5c0.8-0.4,1.4-0.8,1.9-1.4c0.4-0.5,0.7-1,0.8-1.5c-0.2,0.3-0.6,0.5-1.2,0.5s-1-0.2-1.4-0.6
		c-0.3-0.4-0.5-0.8-0.5-1.4s0.2-1.1,0.7-1.5c0.4-0.3,0.8-0.5,1.3-0.5s0.8,0.1,1,0.3v-1.3c-1.9,0.1-3.4,0.2-4.5,0.4
		c-0.1,0-0.2,0-0.4,0.1c-0.1,0-0.2,0.1-0.2,0.1c-0.1,0-0.2-0.1-0.2-0.2c-0.1-0.2-0.2-0.7-0.3-1.3c0.1,0,0.3,0,0.4,0s0.5,0,1.2-0.1
		C309,30.8,310.3,30.7,312.3,30.6z M311.5,33.9c-0.2,0-0.5,0.1-0.6,0.2s-0.2,0.4-0.2,0.6c0,0.3,0.1,0.5,0.3,0.7
		c0.1,0.1,0.3,0.2,0.6,0.2c0.3,0,0.5-0.1,0.7-0.3c0.2-0.2,0.2-0.4,0.2-0.6c0-0.3-0.1-0.5-0.3-0.6C311.9,34,311.7,33.9,311.5,33.9z"
		/>
	<path class="st1" d="M323,28.8l-0.3,7.7h-1.3l-0.4-7.7H323z M321,37.8h1.8v1.8H321V37.8z"/>
</g>
<g class="st3">
	<path class="st1" d="M49.1,28.6c0.7,0.1,1.2,0.2,1.5,0.3c0.2,0.1,0.2,0.1,0.2,0.2s0,0.2-0.1,0.2c-0.1,0.1-0.1,0.3-0.2,0.5
		c0,0.1,0,0.2-0.1,0.3c0,0.1,0,0.2-0.1,0.3c1.1-0.1,2.3-0.3,3.4-0.5h0.1c0.1,0,0.1,0,0.1,0.1c0.1,0.4,0.1,0.7,0.1,0.9
		c0,0.1-0.1,0.2-0.3,0.3c-1.3,0.3-2.5,0.4-3.7,0.5c-0.1,0.5-0.1,1-0.1,1.3c0.5-0.2,1.2-0.3,2-0.3c0.1-0.4,0.2-0.7,0.2-1
		c0.6,0.2,0.9,0.3,1.2,0.5c0.2,0.1,0.2,0.2,0.2,0.3c0,0.1,0,0.1-0.1,0.2c0,0-0.1,0.1-0.2,0.3c0.9,0.2,1.6,0.7,2,1.3
		c0.4,0.5,0.6,1.2,0.6,1.9c0,1-0.4,1.8-1.2,2.4c-0.6,0.5-1.4,0.9-2.5,1.2c-0.1,0-0.2,0-0.2,0c-0.1,0-0.3-0.1-0.4-0.3
		c-0.1-0.2-0.3-0.5-0.8-0.8c0.5-0.1,1-0.3,1.5-0.5c0.4-0.2,0.7-0.3,1-0.5c0.7-0.5,1-1.2,1-1.9c0-0.5-0.2-1-0.5-1.3s-0.6-0.5-1.1-0.6
		c-0.7,1.3-1.5,2.4-2.5,3.4c0,0.1,0.1,0.3,0.2,0.6c0,0.1,0,0.1,0,0.1c0,0.1,0,0.1-0.1,0.2c-0.3,0.2-0.5,0.3-0.8,0.5
		c-0.1,0-0.1,0-0.1,0s-0.1,0-0.1-0.1c-0.1-0.1-0.2-0.3-0.2-0.5c-0.9,0.6-1.7,0.9-2.3,0.9c-0.5,0-0.8-0.2-1.1-0.5
		c-0.2-0.3-0.3-0.7-0.3-1.1c0-0.8,0.3-1.7,1-2.5c0.6-0.6,1.2-1.2,2-1.6c0-0.5,0-1,0.1-1.6c-0.3,0-0.6,0-0.9,0H47c-0.4,0-0.6,0-0.7,0
		c-0.1,0-0.2-0.1-0.2-0.3c0-0.1,0-0.3,0-0.5c0-0.3,0-0.4,0-0.5c0.4,0,0.9,0.1,1.4,0.1c0.1,0,0.5,0,1.1,0c0.1-0.6,0.1-1.1,0.1-1.4
		C49.1,28.9,49.1,28.7,49.1,28.6z M48.8,34.7c-0.5,0.4-1,0.8-1.3,1.3c-0.3,0.4-0.4,0.8-0.4,1.2c0,0.2,0,0.3,0.1,0.4s0.2,0.1,0.3,0.1
		c0.4,0,0.9-0.3,1.5-0.8C48.9,36,48.8,35.3,48.8,34.7z M50.3,36.1c0.6-0.7,1.1-1.4,1.5-2.2c-0.5,0-1.1,0.1-1.7,0.3
		C50.1,34.8,50.2,35.5,50.3,36.1z"/>
	<path class="st1" d="M59.4,28.7c0.6,0.1,1.1,0.3,1.4,0.4c0.2,0.1,0.2,0.2,0.2,0.3c0,0.1,0,0.1-0.1,0.2s-0.2,0.3-0.2,0.6
		c-0.1,0.6-0.2,1.4-0.4,2.5c0,0.6-0.1,0.9-0.1,1.1c0,0.1,0,0.2,0,0.3c0.3-0.6,0.6-1.1,0.9-1.7c0.1,0.3,0.2,0.6,0.4,0.8
		c0.1,0.1,0.1,0.1,0.1,0.2s0,0.2-0.1,0.3c-0.4,0.8-0.7,1.3-0.8,1.7c0,0.1-0.1,0.2-0.1,0.4c0,0.1-0.1,0.2-0.2,0.2
		c-0.2,0-0.5,0.1-1,0.2c-0.1,0-0.1,0-0.2-0.2c-0.3-0.7-0.4-1.6-0.4-2.6c0-0.6,0.1-1.6,0.3-3.2C59.4,29.6,59.4,29.1,59.4,28.7z
		 M63.5,28.7c0.7,0,1.2,0.1,1.5,0.2c0.2,0,0.3,0.1,0.3,0.2v0.1c0,0.1,0,0.3,0,0.6c0.1,1.6,0.2,2.8,0.2,3.4c0,2-0.3,3.5-1,4.5
		c-0.5,0.8-1.2,1.5-2.1,2.1c-0.1,0.1-0.2,0.1-0.3,0.1s-0.2,0-0.3-0.1c-0.3-0.3-0.7-0.5-1.1-0.6c1-0.6,1.8-1.2,2.2-1.7
		c0.4-0.6,0.7-1.2,0.9-1.8c0.2-0.6,0.2-1.4,0.2-2.3c0-1.1-0.1-2.2-0.2-3.1C63.8,29.6,63.7,29.1,63.5,28.7z"/>
	<path class="st1" d="M71.4,31.9c0.1-0.5,0.3-1,0.4-1.6c0.1-0.5,0.1-1,0.1-1.4c0.6,0.1,1.2,0.3,1.6,0.4c0.1,0,0.2,0.1,0.2,0.3
		c0,0.1,0,0.1-0.1,0.2s-0.2,0.3-0.3,0.5s-0.1,0.5-0.2,0.8c-0.1,0.3-0.2,0.6-0.2,0.7c0.3,0,0.7-0.1,1-0.1c1.2,0,1.9,0.8,1.9,2.5
		c0,0.8-0.1,1.6-0.2,2.4c-0.1,0.7-0.3,1.3-0.5,1.7c-0.4,0.8-1,1.2-1.8,1.2c-0.6,0-1.1-0.1-1.4-0.2c-0.2-0.1-0.2-0.2-0.2-0.4
		c-0.1-0.5-0.1-0.9-0.2-1.2c0.5,0.2,1,0.3,1.5,0.3c0.2,0,0.4-0.1,0.5-0.2s0.2-0.3,0.3-0.5c0.3-0.9,0.5-2,0.5-3.2
		c0-0.5-0.1-0.8-0.2-1c-0.1-0.1-0.3-0.2-0.6-0.2s-0.7,0-1.1,0.1c-0.9,2.5-1.7,4.5-2.6,6.1c0,0.1-0.1,0.2-0.2,0.2h-0.1
		c-0.4-0.2-0.7-0.4-0.9-0.6c-0.1-0.1-0.1-0.1-0.1-0.2s0-0.1,0.1-0.1c1-1.8,1.8-3.5,2.4-5.1c-0.3,0-0.7,0.1-1.3,0.2
		c-0.2,0-0.5,0.1-0.7,0.2c-0.1,0-0.1,0-0.2,0c-0.1,0-0.2-0.1-0.3-0.2c-0.1-0.3-0.3-0.8-0.4-1.3c0.5,0,1,0,1.7-0.1
		C70.3,32,70.8,31.9,71.4,31.9z M75.8,31.8c0.5-0.3,0.8-0.6,1-0.7h0.1c0,0,0.1,0,0.2,0.1c1,0.9,1.7,2,2.2,3.2v0.1
		c0,0.1,0,0.1-0.1,0.1c-0.2,0.2-0.6,0.4-1,0.6h-0.1c-0.1,0-0.1,0-0.2-0.1C77.4,33.7,76.7,32.6,75.8,31.8z M76.6,29.8l0.7-0.5h0.1
		c0,0,0.1,0,0.1,0.1c0.4,0.3,0.9,0.8,1.2,1.4v0.1c0,0,0,0.1-0.1,0.1l-0.5,0.4H78c0,0-0.1,0-0.1-0.1C77.5,30.6,77,30.1,76.6,29.8z
		 M77.8,28.9l0.6-0.5h0.1c0,0,0.1,0,0.1,0.1c0.5,0.4,0.9,0.8,1.2,1.3v0.1c0,0,0,0.1-0.1,0.1l-0.5,0.4h-0.1c0,0-0.1,0-0.1-0.1
		C78.7,29.8,78.3,29.3,77.8,28.9z"/>
	<path class="st1" d="M83.2,28.8c0.7,0,1.3,0.1,1.7,0.2c0.2,0,0.2,0.1,0.2,0.2L85,29.7c0,0.1,0,0.4,0.1,0.9c0.1,0.8,0.2,1.5,0.4,2.2
		c0.3-0.1,0.6-0.3,1-0.5s0.7-0.4,0.9-0.5c0.4-0.2,0.7-0.5,0.9-0.7c0.4,0.4,0.7,0.8,1,1.2c0.1,0.1,0.1,0.2,0.1,0.3
		c0,0.1-0.1,0.2-0.3,0.3c-0.3,0.1-0.7,0.2-1.3,0.4c-1.3,0.5-2.3,1-3.1,1.5c-1,0.7-1.5,1.3-1.5,2c0,0.4,0.2,0.7,0.5,0.9
		c0.3,0.1,0.8,0.2,1.5,0.2c1.5,0,2.9-0.1,4-0.3h0.1c0.1,0,0.1,0.1,0.2,0.2c0.1,0.3,0.1,0.7,0.1,1.2c0,0.1-0.1,0.2-0.2,0.2
		c-1,0.1-2.3,0.2-3.9,0.2c-2.5,0-3.8-0.8-3.8-2.5c0-0.7,0.3-1.4,0.8-2c0.4-0.4,0.9-0.9,1.7-1.4c-0.3-1-0.5-2-0.7-3.2
		C83.5,29.6,83.4,29.1,83.2,28.8z"/>
	<path class="st1" d="M91.7,32.6c0.3,0,0.9-0.2,1.5-0.4c1.3-0.4,2.3-0.7,3-0.7c0.9,0,1.6,0.3,2.1,0.9c0.4,0.5,0.6,1.3,0.6,2.2
		c0,1.1-0.4,2.2-1.1,3.1c-0.6,0.8-1.4,1.5-2.5,2.1c-0.1,0-0.2,0.1-0.2,0.1c-0.1,0-0.2-0.1-0.3-0.2c-0.3-0.3-0.7-0.5-1.1-0.7
		c1.3-0.6,2.3-1.3,2.9-2.2c0.5-0.7,0.7-1.4,0.7-2.3c0-0.6-0.1-1-0.4-1.3c-0.2-0.2-0.5-0.4-0.9-0.4c-0.6,0-1.3,0.2-2,0.6
		c-0.5,0.3-0.9,0.5-1.1,0.6c-0.1,0.1-0.2,0.1-0.3,0.1s-0.2-0.1-0.4-0.3C92.1,33.7,91.9,33.3,91.7,32.6z M94.2,28.4
		c1,0.4,2.2,0.7,3.8,0.9c0.1,0,0.2,0.1,0.2,0.2c0,0,0,0,0,0.1c-0.1,0.5-0.2,0.9-0.3,1.1c0,0.1-0.1,0.2-0.2,0.2l0,0
		c-1.4-0.2-2.6-0.6-3.8-1c-0.1,0-0.1-0.1-0.1-0.2v-0.1C93.9,29.3,94,28.9,94.2,28.4z"/>
	<path class="st1" d="M104.8,28.8l-0.3,7.7h-1.3l-0.4-7.7H104.8z M102.8,37.8h1.8v1.8h-1.8V37.8z"/>
</g>
<g id="グループ_847" transform="translate(636.299 653.856)">
	<path id="パス_368-2" class="st4" d="M-378.4-602.5l-0.3,10.8c0,0.3,0.4,0.3,0.7,0.3c0.1,0,0.2,0,0.3-0.1c0.3-0.1,0.6-0.5,1-1
		l8.9-10.1h60.5c6.3,0,11.5-5.1,11.5-11.5v-13c0-6.3-5.1-11.5-11.5-11.5H-378c-6.3,0-11.5,5.1-11.5,11.5v13
		C-389.5-607.8-384.6-602.7-378.4-602.5z M-387.8-626.9c0-5.4,4.4-9.8,9.8-9.8h70.7c5.4,0,9.8,4.4,9.8,9.8v13c0,5.4-4.4,9.8-9.8,9.8
		h-61.4c-0.5,0-1.5,1.5-1.5,1.5l-7,8.6l0.5-9.9c0.1-0.2-1.1-0.2-1.3-0.2c-5.4,0-9.8-4.4-9.8-9.8V-626.9z"/>
</g>
<g id="グループ_846" transform="translate(367.591 654.09)">
	<path id="パス_368-3" class="st4" d="M-255.8-602.5l0.3,10.8c0,0.3-0.4,0.3-0.7,0.3c-0.1,0-0.2,0-0.3-0.1c-0.3-0.1-0.6-0.5-1-1
		l-8.9-10.1h-62.3c-6.3,0-11.5-5.1-11.5-11.5v-13c0-6.3,5.1-11.5,11.5-11.5h72.5c6.3,0,11.5,5.1,11.5,11.5v13
		C-244.7-607.8-249.6-602.7-255.8-602.5z M-246.4-626.9c0-5.4-4.4-9.8-9.8-9.8h-72.6c-5.4,0-9.8,4.4-9.8,9.8v13
		c0,5.4,4.4,9.8,9.8,9.8h63.2c0.5,0,1.5,1.5,1.5,1.5l7,8.6l-0.5-9.9c-0.1-0.2,1.1-0.2,1.3-0.2c5.4,0,9.8-4.4,9.8-9.8L-246.4-626.9z"
		/>
</g>
<g id="グループ_666" transform="translate(-1131.215 395.112)">
	<path id="パス_338" class="st0" d="M1231.2-243.4c1.6-0.9,1.9-1.6,2-1.9c0-0.1,0.1-0.4-0.3-1c-0.6-0.8-0.8-1.9-0.6-2.9
		c0.3-1.1,1-2,2-2.4c2.3-1.1,3.1-2.2,3.3-3l-5-1l-13.4,17.9C1222.9-239.3,1227.8-241.5,1231.2-243.4z"/>
	<path id="パス_340" class="st0" d="M1203.6-246.1c-0.5,1.6-1.2,3.2-2,4.6c2.8,1.4,5.8,2.7,8.3,3.8L1203.6-246.1z"/>
	<path id="パス_341" class="st1" d="M1199.5-271.9c-1-1-1.9-2-2.7-3.1c-1.1,2-2.8,3.6-4.9,4.6l-1.5-2.7c4.5-2.5,4.4-4.5,4.1-8.8
		c-0.5-4.5,0-9,1.4-13.3c7-21.1,26.6-19.3,26.8-19.3c0.8,0.1,1.4,0.7,1.4,1.5c0,0.4,0.2,10.6,12.5,15.2c0.3,0.1,0.7,0.2,1,0.4v-1.9
		c0-13.5-10.4-24.5-23.1-24.5c-8.8,0-15.7,3.5-20.5,10.4c-3.9,5.6-6.2,13.3-6.4,21.3c0,2-0.1,3.9-0.1,5.7
		c-0.1,11.9-0.2,21.3-7.8,28.9c-3.8,3.8-5.2,8.9-3.6,13s6,6.4,12,6.6c3.9,0.1,6.8-0.9,9-3.1c4.6-4.5,4.6-13,4.6-17.5v-11.6
		C1201-270.6,1200.3-271.2,1199.5-271.9z M1194.1-244.3c-1.8,1.6-4.2,2.5-6.6,2.5c-0.3,0-0.7,0-1-0.1l0.3-3.1c3.7,0.4,7-2.3,7.4-6
		c0-0.2,0-0.4,0-0.6h3.1C1197.4-248.8,1196.2-246.2,1194.1-244.3L1194.1-244.3z"/>
	<path id="パス_342" class="st2" d="M1209.6-281.2l-2.2,2.2c4,4,10.4,4,14.3,0l-2.2-2.2C1216.8-278.4,1212.3-278.4,1209.6-281.2z"
		/>
	<path id="パス_343" class="st2" d="M1215.4-284.1l2.2-2.2l-2.7-2.7l2.7-2.7l-2.2-2.2l-3.8,3.8c-0.6,0.6-0.6,1.6,0,2.2l0,0
		L1215.4-284.1z"/>
	<path id="パス_344" class="st2" d="M1208.2-292.5c0-1.3-1.1-2.4-2.4-2.4s-2.4,1.1-2.4,2.4c0,1.3,1.1,2.4,2.4,2.4
		S1208.2-291.2,1208.2-292.5L1208.2-292.5z"/>
	<path id="パス_345" class="st2" d="M1223.2-294.8c-1.3,0-2.4,1.1-2.4,2.4s1.1,2.4,2.4,2.4s2.4-1.1,2.4-2.4
		C1225.6-293.8,1224.6-294.8,1223.2-294.8L1223.2-294.8z"/>
	<path id="パス_346" class="st2" d="M1253.4-254.5l-26.1-5.3V-270c0.8-0.6,1.6-1.2,2.3-1.9c3.1-3.1,5.3-6.8,6.5-11
		c1.4-0.4,2.6-1.1,3.7-2.1c2.4-2.1,3.3-5.4,2.2-8.4c-0.3-0.7-0.7-1.3-1.2-1.8v-4.1c0-15.2-11.8-27.6-26.2-27.6
		c-20.2,0-29.6,17.4-30,34.7c0,2-0.1,3.9-0.1,5.8c-0.1,11.6-0.2,20-6.9,26.8c-1.7,1.6-3,3.6-3.9,5.7c-5.9,2.1-9.8,7.7-9.8,13.9v20.7
		c0,0.9,0.7,1.6,1.6,1.6l0,0h98.2c0.9,0,1.6-0.7,1.6-1.6l0,0V-240C1265.2-247,1260.3-253.1,1253.4-254.5z M1232.9-246.3
		c0.4,0.6,0.3,0.9,0.3,1c-0.1,0.3-0.4,1-2,1.9c-3.4,1.9-8.3,4.1-12,5.8l13.4-17.9l5,1c-0.3,0.7-1.1,1.9-3.3,3c-1,0.5-1.7,1.4-2,2.4
		C1232.1-248.2,1232.3-247.1,1232.9-246.3z M1203.6-246.1l6.3,8.4c-2.5-1.1-5.6-2.5-8.3-3.8C1202.4-242.9,1203.1-244.5,1203.6-246.1
		L1203.6-246.1z M1225.4-257l3.8,0.8l-14.7,19.7l-10.1-13.5c0.4-2.8,0.5-5.5,0.5-8.3v-9.7c3,1.4,6.3,2.2,9.6,2.3h0.1
		c3.3-0.1,6.6-0.9,9.6-2.3v9.6C1224.2-257.8,1224.7-257.2,1225.4-257z M1237.7-287.3c-0.9,0.8-2.1,1.4-3.3,1.6
		c-0.5,0.1-1,0.5-1.1,1.1c-1,4-3.1,7.6-5.9,10.5c-7.2,6.9-18.5,6.9-25.7,0c-1.6-1.6-2.9-3.4-3.9-5.3c0-0.9-0.1-1.8-0.1-2.7
		c-0.5-4.1,0-8.2,1.3-12.2c5.3-15.9,18.1-17.2,22.2-17.3c0.5,3.5,2.8,12.3,14.5,16.6h0.1c1,0.3,1.9,0.9,2.6,1.6
		c1.6,1.5,1.6,3.9,0.1,5.5C1238.2-287.7,1238-287.5,1237.7-287.3L1237.7-287.3z M1179.8-257.5c7.7-7.6,7.7-17,7.8-28.9
		c0-1.8,0-3.7,0.1-5.7c0.2-8,2.5-15.8,6.4-21.3c4.8-6.9,11.7-10.4,20.5-10.4c12.7,0,23.1,11,23.1,24.5v1.8c-0.3-0.2-0.7-0.3-1-0.4
		c-12.3-4.6-12.5-14.8-12.5-15.2c0-0.8-0.6-1.5-1.4-1.5c-0.2,0-19.8-1.7-26.8,19.3c-1.4,4.3-1.9,8.8-1.4,13.3
		c0.3,4.3,0.4,6.3-4.1,8.8l1.5,2.7c2.1-1,3.8-2.6,4.9-4.6c0.8,1.1,1.7,2.2,2.7,3.1c0.7,0.7,1.5,1.3,2.3,1.9v11.6
		c0,4.5,0,13-4.6,17.5c-2.2,2.1-5.2,3.2-9,3.1c-6-0.1-10.4-2.5-12-6.6C1174.5-248.6,1175.9-253.7,1179.8-257.5z M1262.1-220.8H1167
		V-240c0-4.1,2.1-7.8,5.6-10c-0.3,2.3-0.1,4.6,0.8,6.7c2.1,5.3,7.5,8.4,14.8,8.5c0.2,0,0.3,0,0.5,0c4.5,0,8.1-1.3,10.8-4
		c0.1-0.1,0.2-0.2,0.2-0.3c6.3,3.1,14.3,6.4,14.4,6.4l0,0c0.4,0.2,0.8,0.2,1.2,0l0,0c6-2.4,11.9-5.1,17.6-8.1c2-1.1,3.2-2.5,3.5-3.9
		c0.2-1.2-0.1-2.5-0.9-3.5c-0.1-0.1-0.1-0.2-0.1-0.3c0-0.2,0.2-0.3,0.3-0.4c3.4-1.7,4.6-3.6,5-5.1l12.1,2.5
		c5.5,1.1,9.4,5.9,9.4,11.5L1262.1-220.8z"/>
	<path id="パス_347" class="st2" d="M1194.1-244.4c2.1-1.9,3.3-4.5,3.3-7.3h-3.1c0,3.7-3.1,6.7-6.8,6.7c-0.2,0-0.4,0-0.6,0
		l-0.3,3.1c0.3,0,0.7,0.1,1,0.1C1190-241.9,1192.3-242.7,1194.1-244.4z"/>
</g>
<g class="st3">
	<path class="st1" d="M11.1,71.9l3.3,10.9h-2l-0.9-3.2H8.2l-0.9,3.2H5.5l3.3-10.9H11.1z M11.2,78.2L10.6,76
		c-0.1-0.3-0.3-1.2-0.6-2.7H9.8c-0.2,1-0.5,1.9-0.7,2.7l-0.6,2.2H11.2z"/>
</g>
<g class="st3">
	<path class="st1" d="M20.4,75c-0.3-0.6-0.5-1-0.6-1.2c-0.2-0.4-0.4-0.7-0.6-1c0.7-0.1,1.2-0.2,1.4-0.2c0.3,0,0.4,0.1,0.4,0.3v0.2
		c0,0.1,0,0.1,0,0.2c0,0.2,0.1,0.4,0.2,0.6c0.2,0.5,0.3,0.8,0.4,1c1-0.2,1.8-0.5,2.5-0.7h0.1c0,0,0.1,0,0.1,0.1
		c0.1,0.1,0.2,0.5,0.3,0.9v0.1c0,0.1,0,0.1-0.1,0.1c-0.6,0.2-1.4,0.5-2.4,0.7c0.5,0.9,1.1,1.7,1.8,2.5c0.1,0.1,0.2,0.2,0.3,0.3
		s0.1,0.1,0.1,0.2c0,0.1,0,0.1-0.1,0.2c-0.1,0.2-0.2,0.5-0.5,0.8c-0.1,0.1-0.2,0.2-0.2,0.2s-0.1,0-0.2-0.1c-0.2-0.1-0.4-0.3-0.5-0.3
		c-0.8-0.4-1.6-0.6-2.5-0.6c-1.3,0-2,0.4-2,1.1c0,0.8,1,1.3,3,1.3c0.6,0,1.3-0.1,1.9-0.2c-0.1,0.5-0.1,0.9-0.3,1.3
		c0,0.1-0.1,0.1-0.2,0.2c-0.3,0.1-0.8,0.1-1.3,0.1c-1.5,0-2.6-0.2-3.4-0.7c-0.6-0.4-1-1-1-1.8s0.3-1.3,0.9-1.8
		c0.6-0.4,1.3-0.6,2.2-0.6c0.8,0,1.5,0.1,2.1,0.3c-0.6-0.5-1.1-1.2-1.5-2.1c-0.8,0.1-1.6,0.2-2.3,0.3c-0.5,0-0.9,0.1-1.2,0.1
		c-0.1,0-0.2-0.1-0.2-0.2c-0.1-0.3-0.2-0.6-0.3-1.1c0.2,0,0.5,0,0.7,0c0.3,0,0.6,0,0.8,0C18.9,75.2,19.6,75.1,20.4,75z"/>
	<path class="st1" d="M30.5,72.8c0.6,0.2,1.1,0.5,1.3,0.7c0.1,0.1,0.2,0.2,0.2,0.3s0,0.2-0.1,0.2c-0.1,0.1-0.2,0.3-0.4,0.5
		c-1,1.9-1.7,3.1-2.1,3.8l0,0c0.5-0.4,1-0.6,1.5-0.6c0.6,0,1.1,0.3,1.4,0.8c0.2,0.3,0.3,0.8,0.4,1.5c0.1,0.5,0.1,0.8,0.2,1
		c0.1,0.2,0.3,0.3,0.5,0.3c0.4,0,0.8-0.2,1.1-0.6c0.5-0.6,0.9-1.2,1.2-2c0.2,0.4,0.4,0.7,0.7,1c0.1,0.1,0.1,0.2,0.1,0.3s0,0.1,0,0.2
		c-0.2,0.5-0.6,1-1,1.5c-0.6,0.7-1.4,1-2.2,1c-0.6,0-1.1-0.2-1.4-0.6c-0.2-0.4-0.4-0.9-0.5-1.7c-0.1-0.6-0.2-1-0.3-1.3
		c-0.1-0.2-0.3-0.3-0.5-0.3c-0.5,0-1,0.3-1.5,1c-0.4,0.6-0.9,1.5-1.4,2.7c0,0.1-0.1,0.2-0.2,0.2h-0.1c-0.4-0.1-0.7-0.3-0.9-0.5
		c-0.1,0-0.1-0.1-0.1-0.2c0,0,0-0.1,0.1-0.2c1.6-3.2,2.8-5.6,3.5-7.2C30.2,73.8,30.4,73.2,30.5,72.8z"/>
</g>
<g id="グループ_878" transform="translate(-454 -340.802)">
	<g id="グループ_848" transform="translate(-1401.618 230.925) rotate(-9)">
		<path id="パス_1105" class="st5" d="M2013.4,476.1c-1.3,0-2.3,1.1-2.3,2.4c0,1.2,1,2.2,2.3,2.3h0.2v-4.6h-0.2V476.1z"/>
		<path id="パス_1106" class="st5" d="M2015.8,487.4c1.3,0,2.3-1,2.4-2.3c0-1.3-1-2.3-2.3-2.4h-0.1h-0.2v4.6h0.2V487.4z"/>
		<path id="パス_1107" class="st5" d="M2014.6,465.6c-8.9,0-16.1,7.2-16.1,16.1s7.2,16.1,16.1,16.1c8.9,0,16.1-7.2,16.1-16.1
			S2023.5,465.6,2014.6,465.6z M2015.8,489.5h-0.2v2.7h-2.1v-2.7h-3.5v-2.1h3.5v-4.6h-0.2c-2.4,0-4.4-2-4.4-4.4c0-2.4,2-4.4,4.4-4.4
			h0.2v-2.7h2.1v2.7h3.5v2.1h-3.5v4.6h0.2c2.4,0,4.4,2,4.4,4.4S2018.2,489.5,2015.8,489.5L2015.8,489.5z"/>
		<path id="パス_1108" class="st2" d="M2032.8,481.7c0-10.1-8.2-18.2-18.2-18.2s-18.2,8.2-18.2,18.2c0,10.1,8.2,18.2,18.2,18.2
			l0,0C2024.6,500,2032.8,491.8,2032.8,481.7z M2014.6,497.9c-8.9,0-16.1-7.2-16.1-16.1s7.2-16.1,16.1-16.1
			c8.9,0,16.1,7.2,16.1,16.1C2030.7,490.6,2023.5,497.9,2014.6,497.9z"/>
		<path id="パス_1109" class="st2" d="M2015.8,480.7h-0.2v-4.6h3.5V474h-3.5v-2.7h-2.1v2.7h-0.2c-2.4,0-4.4,2-4.4,4.4
			c0,2.4,2,4.4,4.4,4.4l0,0h0.2v4.6h-3.5v2.1h3.5v2.7h2.1v-2.7h0.2c2.4,0,4.4-2,4.4-4.4S2018.2,480.7,2015.8,480.7L2015.8,480.7z
			 M2013.4,480.7c-1.3,0-2.3-1-2.4-2.3c0-1.3,1-2.3,2.3-2.4h0.1h0.2v4.6h-0.2V480.7z M2015.8,487.4h-0.2v-4.6h0.2
			c1.3,0,2.3,1,2.4,2.3C2018.2,486.3,2017.2,487.4,2015.8,487.4C2015.9,487.4,2015.8,487.4,2015.8,487.4z"/>
	</g>
	<g id="グループ_849" transform="translate(-2956.836 465.798) rotate(-20)">
		<path id="パス_1110" class="st6" d="M3503.7,1283.3h4.1v-4.1C3505.8,1279.8,3504.2,1281.3,3503.7,1283.3z"/>
		<path id="パス_1111" class="st6" d="M3488.6,1279.2v4.1h4.1C3492.1,1281.3,3490.6,1279.8,3488.6,1279.2z"/>
		<path id="パス_1112" class="st6" d="M3492.6,1239.6h-4.1v4.1C3490.6,1243.2,3492.1,1241.6,3492.6,1239.6z"/>
		<path id="パス_1113" class="st6" d="M3498.2,1258.4c-1.7,0-3.1,1.4-3.1,3.1s1.4,3.1,3.1,3.1s3.1-1.4,3.1-3.1
			C3501.2,1259.8,3499.9,1258.4,3498.2,1258.4z"/>
		<path id="パス_1114" class="st5" d="M3500.8,1239.6h-5.3c-0.6,3.6-3.4,6.4-7,7v29.8c3.6,0.6,6.4,3.4,7,7h5.3
			c0.6-3.6,3.4-6.4,7-7v-29.8C3504.2,1245.9,3501.4,1243.2,3500.8,1239.6z M3498.2,1267.3c-3.2,0-5.9-2.6-5.9-5.9
			c0-3.2,2.6-5.9,5.9-5.9c3.2,0,5.9,2.6,5.9,5.9C3504,1264.7,3501.4,1267.3,3498.2,1267.3z"/>
		<path id="パス_1115" class="st6" d="M3507.8,1243.7v-4.1h-4.1C3504.2,1241.6,3505.8,1243.2,3507.8,1243.7z"/>
		<path id="パス_1116" class="st2" d="M3487.1,1236.8c-0.8,0-1.4,0.6-1.4,1.4v46.6c0,0.8,0.6,1.4,1.4,1.4h22.1
			c0.8,0,1.4-0.6,1.4-1.4v-46.6c0-0.8-0.6-1.4-1.4-1.4H3487.1z M3507.8,1239.6v4.1c-2-0.5-3.6-2.1-4.1-4.1H3507.8z M3507.8,1276.4
			c-3.6,0.6-6.4,3.4-7,7h-5.3c-0.6-3.6-3.4-6.4-7-7v-29.8c3.6-0.6,6.4-3.4,7-7h5.3c0.6,3.6,3.4,6.4,7,7V1276.4z M3488.5,1239.6h4.1
			c-0.5,2-2.1,3.6-4.1,4.1V1239.6z M3488.5,1283.3v-4.1c2,0.5,3.6,2.1,4.1,4.1H3488.5z M3507.8,1283.3h-4.1c0.5-2,2.1-3.6,4.1-4.1
			V1283.3z"/>
		<path id="パス_1117" class="st2" d="M3498.2,1255.6c-3.2,0-5.9,2.6-5.9,5.9s2.6,5.9,5.9,5.9c3.2,0,5.9-2.6,5.9-5.9l0,0
			C3504,1258.2,3501.4,1255.6,3498.2,1255.6z M3498.2,1264.5c-1.7,0-3.1-1.4-3.1-3.1s1.4-3.1,3.1-3.1s3.1,1.4,3.1,3.1
			C3501.2,1263.1,3499.9,1264.5,3498.2,1264.5L3498.2,1264.5z"/>
	</g>
</g>
</svg>
