<?xml version="1.0" encoding="utf-8"?>
<!-- Generator: Adobe Illustrator 25.2.3, SVG Export Plug-In . SVG Version: 6.00 Build 0)  -->
<svg version="1.1" id="レイヤー_1" xmlns="http://www.w3.org/2000/svg" xmlns:xlink="http://www.w3.org/1999/xlink" x="0px"
	 y="0px" viewBox="0 0 350 190" style="enable-background:new 0 0 350 190;" xml:space="preserve">
<style type="text/css">
	.st0{fill:#FFFFFF;}
	.st1{fill:none;stroke:#555353;stroke-width:3;stroke-linejoin:round;}
	.st2{fill:#A2D5D9;}
	.st3{fill:#555353;}
	.st4{fill:#00AEBD;}
	.st5{enable-background:new    ;}
</style>
<rect class="st0" width="350" height="190"/>
<path id="合体_36" class="st1" d="M131.4,49.9H117c-5.2,0-9.5-4.3-9.5-9.5l0,0v-15c0-5.2,4.3-9.5,9.5-9.5h113
	c5.2,0,9.5,4.3,9.5,9.5v15c0,5.2-4.3,9.5-9.5,9.5l0,0h-89.2l0.5,11.7L131.4,49.9z"/>
<g id="グループ_837" transform="translate(253.788 -2062.107)">
	<path id="パス_1084" class="st2" d="M60.7,2146.5c-1.3-2.1-3.8-3.1-6.2-2.5c-0.8,0.2-1.6-0.3-1.9-1.1c-0.1-0.3-0.1-0.6,0-0.8
		c1.1-3.6-0.1-6.7-3.1-8.3c-8.3-4.4-19.7-3-28.9,3.4c-7.3,5.1-6.7,14.8-5.6,22.7c0.3-0.2,0.6-0.3,0.9-0.4l4.7-11.8
		c-1.7-4,1-7.8,1.1-8l2.5,1.8c0,0-2,2.9-0.6,5.4l0,0c0,0,0,0.1,0.1,0.1c1.3,2.9,4.7,4.2,7.6,2.9c0.5-0.2,0.9-0.5,1.3-0.8
		c5-2.9,11.4-6,16.1-4.1c2.6,1.1,4.5,3.5,5.5,7.2c1.6,5.8,3.1,6.8,3.4,6.9c0.3-0.1,0.6-0.1,0.8-0.1c1,0.2,2,0.4,2.9,0.9
		C61.9,2155.8,62.4,2149.2,60.7,2146.5z"/>
	<path id="パス_1089" class="st3" d="M38.9,2172.6l2.1-2.1l-2.6-2.6l2.6-2.6l-2.1-2.1l-3.7,3.7c-0.6,0.6-0.6,1.5,0,2.1l0,0
		L38.9,2172.6z"/>
	<path id="パス_1090" class="st3" d="M32,2164.5c0-1.3-1-2.3-2.3-2.3s-2.3,1-2.3,2.3s1,2.3,2.3,2.3S32,2165.8,32,2164.5L32,2164.5
		z"/>
	<path id="パス_1091" class="st3" d="M46.6,2166.8c1.3,0,2.3-1,2.3-2.3s-1-2.3-2.3-2.3s-2.3,1-2.3,2.3S45.3,2166.8,46.6,2166.8
		L46.6,2166.8z"/>
	<path id="パス_1092" class="st3" d="M45.7,2175.3c0-0.8-0.7-1.5-1.5-1.5H32.1c-0.8,0-1.5,0.7-1.5,1.5c0,4.2,3.4,7.6,7.5,7.6
		C42.3,2182.9,45.7,2179.5,45.7,2175.3L45.7,2175.3L45.7,2175.3z M33.9,2176.8h8.5c-0.8,2.3-3.4,3.6-5.8,2.7
		C35.3,2179.1,34.3,2178.1,33.9,2176.8z"/>
	<path id="パス_1093" class="st3" d="M76,2201.5l-17.1-3.5c-1.5-3.6-4.6-6.4-8.4-7.6v-4c0.8-0.6,1.5-1.2,2.2-1.9
		c3-3,5.2-6.7,6.3-10.7c1.3-0.4,2.6-1.1,3.6-2c2.4-2,3.2-5.3,2.1-8.2c-0.2-0.5-0.5-1-0.9-1.4c0.5-3,2-12.9-0.7-17.3
		c-1.6-2.5-4.3-4.1-7.3-4.1c0.6-4-1.4-7.9-5-9.7c-9.3-4.9-21.9-3.5-32.1,3.6c-9.4,6.6-7.9,18.5-6.6,27.4c-0.4,0.4-0.7,0.9-0.9,1.5
		c-1.1,2.9-0.3,6.2,2.1,8.2c1.1,0.9,2.3,1.6,3.6,2c1.2,4.1,3.4,7.8,6.3,10.7c0.7,0.7,1.4,1.3,2.2,1.9v4c-3.8,1.2-6.9,4-8.4,7.7
		l-17,3.3c-6.7,1.4-11.6,7.3-11.6,14.2v20.2c0,0.8,0.7,1.5,1.5,1.5h95.9c0.8,0,1.5-0.7,1.5-1.5v-20.1
		C87.6,2208.9,82.8,2202.9,76,2201.5z M56.7,2205l-5-0.9c-0.3-0.1-0.6,0-0.9,0.1l-7.7,3.6l7.1-9.2c0.2-0.3,0.3-0.6,0.3-0.9v-3.9
		C53.1,2194.7,57.5,2197.6,56.7,2205L56.7,2205z M20.6,2137.2c9.2-6.4,20.6-7.8,28.9-3.4c3,1.6,4.2,4.7,3.1,8.3
		c-0.2,0.8,0.2,1.6,1,1.9c0.3,0.1,0.5,0.1,0.8,0c2.4-0.6,4.9,0.5,6.2,2.5c1.7,2.7,1.2,9.3,0.6,13.4c-0.9-0.4-1.9-0.7-2.9-0.9
		c-0.3-0.1-0.6,0-0.8,0.1c-0.3-0.1-1.7-1.1-3.4-6.9c-1.1-3.7-2.9-6.1-5.5-7.2c-4.7-1.9-11.1,1.2-16.1,4.1c-2.5,2-6.1,1.6-8.1-0.9
		c-0.3-0.4-0.6-0.8-0.8-1.3c0,0,0-0.1-0.1-0.1l0,0c-1.4-2.5,0.6-5.4,0.6-5.4l-2.5-1.8c-0.1,0.2-2.8,4-1.1,8l-4.7,11.8
		c-0.3,0.1-0.6,0.3-0.9,0.4C13.9,2151.9,13.3,2142.3,20.6,2137.2L20.6,2137.2z M25.6,2182.4c-2.8-2.8-4.8-6.4-5.8-10.2
		c-0.1-0.5-0.6-0.9-1.1-1.1c-1.2-0.3-2.3-0.8-3.2-1.6c-1.4-1.1-1.9-3-1.4-4.7c0.2-0.4,0.5-0.8,0.8-1.2c0.7-0.7,1.6-1.3,2.5-1.6
		c0.4-0.1,0.8-0.5,0.9-0.9l4.1-10.4c1,1.1,2.2,1.8,3.6,2.3c2.4,0.8,5,0.3,7.8-1.3c4.1-2.4,9.9-5.3,13.5-3.9c1.7,0.7,2.9,2.4,3.7,5.2
		c1.5,5.3,3.2,8.2,5.3,8.9c0.5,0.2,1.1,0.2,1.7,0.1c0.9,0.1,1.7,0.4,2.5,0.9c0.2,0.2,0.4,0.4,0.6,0.6c0.3,0.3,0.6,0.7,0.8,1.2
		c0.6,1.7,0,3.6-1.4,4.7c-0.9,0.8-2,1.3-3.2,1.6c-0.5,0.1-0.9,0.5-1.1,1.1c-1,3.9-3,7.4-5.8,10.2
		C43.7,2189.2,32.6,2189.2,25.6,2182.4L25.6,2182.4z M38.1,2190.5L38.1,2190.5c3.3-0.1,6.5-0.9,9.4-2.3v8.9l-9.4,12.1l-9.4-12.1
		v-8.9C31.7,2189.6,34.8,2190.4,38.1,2190.5L38.1,2190.5z M25.7,2193.7v3.9c0,0.3,0.1,0.7,0.3,0.9l7.1,9.2l-7.7-3.6
		c-0.3-0.1-0.6-0.2-0.9-0.1l-5,0.9C18.8,2197.7,23.1,2194.7,25.7,2193.7L25.7,2193.7z M84.6,2234.5H-8.3v-18.8
		c0-5.4,3.8-10.1,9.2-11.2l15.7-3.1c-0.2,1.9-0.1,3.7,0.2,5.6c0.1,0.8,0.9,1.4,1.8,1.2l0,0l6.1-1.1l12,5.6v10h3v-10l12-5.6l6.1,1.1
		c0.8,0.2,1.6-0.4,1.8-1.2l0,0c0.4-1.9,0.4-3.8,0.2-5.7l15.7,3.2c5.3,1.1,9.2,5.8,9.2,11.2L84.6,2234.5z"/>
</g>
<g id="グループ_832" transform="translate(-2214.865 -2979.213)">
	<path id="パス_1060-2" class="st4" d="M2368.3,3089.3c-0.6-0.2-1.1-0.4-1.6-0.7c-4.8,2.9-6.4,9.2-3.5,14.1c1.9,3.1,5.2,5,8.8,5
		h5.1v-5.4c-0.8-0.6-1.6-1.2-2.3-1.9C2371.8,3097.3,2369.5,3093.5,2368.3,3089.3z"/>
	<path id="パス_1062-2" class="st4" d="M2417.9,3097.4c0-3.6-1.9-6.9-5-8.8c-0.5,0.3-1.1,0.5-1.6,0.7c-1.2,4.2-3.4,8-6.5,11
		c-0.7,0.7-1.5,1.3-2.3,1.9v5.4h5.1C2413.4,3107.7,2417.9,3103.1,2417.9,3097.4z"/>
	<path id="パス_1063-2" class="st4" d="M2389.8,3048.4c-12.8,0-23.1,11-23.1,24.5v1.8c0.3-0.2,0.7-0.3,1-0.4c0.1,0,0.2,0,0.3-0.1
		l9.3-1.3c5.9-0.8,11-4.3,13.9-9.5c1.2-2.5,3.3-4.6,5.8-5.7c0.6-0.2,1.3-0.1,1.8,0.5l13.5,16.3c0.2,0.1,0.4,0.2,0.6,0.3v-1.8
		C2413,3059.4,2402.6,3048.4,2389.8,3048.4z M2372.8,3069.2l-0.3-3.1c4.4-0.4,8.6-2.4,11.6-5.7l2.3,2.1
		C2382.8,3066.3,2378,3068.7,2372.8,3069.2L2372.8,3069.2z"/>
	<path id="パス_1066-2" class="st3" d="M2389.8,3096.3c2.7,0,5.3-1.1,7.2-3l-2.2-2.2c-2.7,2.7-7.2,2.8-10,0l0,0l-2.2,2.2
		C2384.6,3095.2,2387.1,3096.3,2389.8,3096.3z"/>
	<path id="パス_1067-2" class="st3" d="M2390.6,3088.1l2.2-2.2l-2.7-2.7l2.7-2.7l-2.2-2.2l-3.8,3.8c-0.6,0.6-0.6,1.6,0,2.2l0,0
		L2390.6,3088.1z"/>
	<path id="パス_1068-2" class="st3" d="M2381.1,3082.1c1.3,0,2.4-1.1,2.4-2.4s-1.1-2.4-2.4-2.4c-1.3,0-2.4,1.1-2.4,2.4
		C2378.8,3081.1,2379.8,3082.1,2381.1,3082.1z"/>
	<path id="パス_1069-2" class="st3" d="M2398.5,3082.1c1.3,0,2.4-1.1,2.4-2.4s-1.1-2.4-2.4-2.4c-1.3,0-2.4,1.1-2.4,2.4
		C2396.2,3081.1,2397.2,3082.1,2398.5,3082.1z"/>
	<path id="パス_1070-2" class="st3" d="M2428.7,3117.8l-26.1-5.3v-1.7h5.1c7.4,0,13.4-6,13.4-13.3c0-4.2-2-8.2-5.4-10.7
		c2-2.1,2.7-5.2,1.6-7.9c-0.3-0.7-0.7-1.3-1.2-1.8v-4.1c0-15.2-11.8-27.7-26.2-27.7s-26.2,12.4-26.2,27.7v4.1
		c-0.5,0.5-0.9,1.1-1.2,1.8c-1.1,2.7-0.4,5.8,1.6,7.9c-5.9,4.4-7.2,12.8-2.8,18.7c2.5,3.4,6.5,5.4,10.7,5.4h5.1v1.7l-26.1,5.3
		c-6.9,1.4-11.9,7.5-11.9,14.5v20.7c0,0.9,0.7,1.6,1.6,1.6l0,0h98.3c0.9,0,1.6-0.7,1.6-1.6l0,0v-20.7
		C2440.5,3125.3,2435.6,3119.2,2428.7,3117.8z M2366.6,3084.9c-1.8-1.2-2.3-3.6-1.1-5.4c0.2-0.2,0.3-0.5,0.6-0.7
		c0.7-0.7,1.5-1.2,2.5-1.6l9.2-1.3c6.8-0.9,12.8-5,16.2-11c0.8-1.5,1.9-2.9,3.3-3.8l13,15.7c0.2,0.2,0.4,0.4,0.7,0.5
		c1,0.3,1.9,0.9,2.6,1.6c1.6,1.5,1.6,3.9,0.1,5.5c-0.2,0.2-0.4,0.4-0.7,0.6c-1,0.8-2.1,1.4-3.3,1.6c-0.5,0.1-1,0.5-1.1,1.1
		c-1,4-3.1,7.6-5.9,10.5c-7.2,6.9-18.5,6.9-25.7,0c-2.9-2.9-4.9-6.5-5.9-10.5c-0.2-0.5-0.6-1-1.1-1.1
		C2368.7,3086.3,2367.6,3085.7,2366.6,3084.9z M2380.2,3104.1c3,1.4,6.3,2.2,9.6,2.3h0.1c3.3-0.1,6.6-0.9,9.6-2.3v9.4l-9.6,14.6
		l-9.6-14.6L2380.2,3104.1z M2417.9,3097.4c0,5.7-4.6,10.2-10.2,10.2h-5.1v-5.4c0.8-0.6,1.6-1.2,2.3-1.9c3.1-3.1,5.3-6.9,6.5-11
		c0.6-0.2,1.1-0.4,1.6-0.7C2416.1,3090.5,2418,3093.9,2417.9,3097.4L2417.9,3097.4z M2366.7,3073c0-13.5,10.4-24.5,23.1-24.5
		s23.1,11,23.1,24.5v1.8c-0.2-0.1-0.4-0.2-0.6-0.3l-13.5-16.3c-0.4-0.5-1.1-0.7-1.8-0.5c-2.6,1.2-4.6,3.2-5.8,5.7
		c-2.9,5.2-8,8.7-13.9,9.5l-9.3,1.3c-0.1,0-0.2,0-0.3,0.1c-0.4,0.1-0.7,0.3-1,0.4V3073z M2372,3107.7c-5.7,0-10.2-4.6-10.2-10.2
		c0-3.6,1.9-6.9,4.9-8.8c0.5,0.3,1.1,0.5,1.6,0.7c1.2,4.2,3.4,8,6.5,11c0.7,0.7,1.5,1.3,2.3,1.9v5.4L2372,3107.7L2372,3107.7z
		 M2437.4,3151.5h-95.2v-19.2c0-5.6,3.9-10.4,9.4-11.5l26.1-5.3l10.2,15.4l-6.9,10.4l2.6,1.7l6.1-9.3l6.1,9.3l2.6-1.7l-6.9-10.4
		l10.2-15.4l26.1,5.3c5.5,1.1,9.4,5.9,9.4,11.5L2437.4,3151.5z"/>
	<path id="パス_1071-2" class="st3" d="M2386.4,3062.5l-2.3-2.1c-3,3.3-7.2,5.3-11.6,5.7l0.3,3.1
		C2378,3068.7,2382.8,3066.3,2386.4,3062.5z"/>
</g>
<g class="st5">
	<path class="st4" d="M221.5,72.4l-1.8,0.4c-0.3-1.5-1-2.3-2.3-2.3c-0.9,0-1.6,0.4-2.1,1.2c-0.4,0.7-0.7,1.7-0.7,3
		c0,1.4,0.3,2.5,0.9,3.3c0.5,0.6,1.1,0.9,1.9,0.9c1.3,0,2.1-0.8,2.4-2.3l1.8,0.5c-0.6,2.2-2,3.2-4.2,3.2c-1.5,0-2.7-0.6-3.6-1.7
		c-0.8-1-1.1-2.3-1.1-4c0-1.9,0.5-3.3,1.5-4.4c0.8-0.9,1.9-1.3,3.2-1.3c1.2,0,2.1,0.3,2.9,1C220.8,70.7,221.3,71.5,221.5,72.4z"/>
</g>
<g class="st5">
	<path class="st4" d="M227.4,72.4c-0.3-0.6-0.5-1-0.6-1.2c-0.2-0.4-0.4-0.7-0.6-1c0.7-0.1,1.2-0.2,1.4-0.2c0.3,0,0.4,0.1,0.4,0.3
		v0.2c0,0.1,0,0.1,0,0.2c0,0.2,0.1,0.4,0.2,0.6c0.2,0.5,0.3,0.8,0.4,1c1-0.2,1.8-0.5,2.5-0.7h0.1c0,0,0.1,0,0.1,0.1
		c0.1,0.1,0.2,0.5,0.3,0.9v0.1c0,0.1,0,0.1-0.1,0.1c-0.6,0.2-1.4,0.5-2.4,0.7c0.5,0.9,1.1,1.7,1.8,2.5c0.1,0.1,0.2,0.2,0.3,0.3
		s0.1,0.1,0.1,0.2s0,0.1-0.1,0.2c-0.1,0.2-0.2,0.5-0.5,0.8c-0.1,0.1-0.2,0.2-0.2,0.2s-0.1,0-0.2-0.1c-0.2-0.1-0.4-0.3-0.5-0.3
		c-0.8-0.4-1.6-0.6-2.5-0.6c-1.3,0-2,0.4-2,1.1c0,0.8,1,1.3,3,1.3c0.6,0,1.3-0.1,1.9-0.2c-0.1,0.5-0.1,0.9-0.3,1.3
		c0,0.1-0.1,0.1-0.2,0.2c-0.3,0.1-0.8,0.1-1.3,0.1c-1.5,0-2.6-0.2-3.4-0.7c-0.6-0.4-1-1-1-1.8s0.3-1.3,0.9-1.8
		c0.6-0.4,1.3-0.6,2.2-0.6c0.8,0,1.5,0.1,2.1,0.3c-0.6-0.5-1.1-1.2-1.5-2.1c-0.8,0.1-1.6,0.2-2.3,0.3c-0.5,0-0.9,0.1-1.2,0.1
		c-0.1,0-0.2-0.1-0.2-0.2c-0.1-0.3-0.2-0.6-0.3-1.1c0.2,0,0.5,0,0.7,0c0.3,0,0.6,0,0.8,0C226,72.6,226.6,72.5,227.4,72.4z"/>
	<path class="st4" d="M237.5,70.2c0.6,0.2,1.1,0.5,1.3,0.7c0.1,0.1,0.2,0.2,0.2,0.3s0,0.2-0.1,0.2c-0.1,0.1-0.2,0.3-0.4,0.5
		c-1,1.9-1.7,3.1-2.1,3.8l0,0c0.5-0.4,1-0.6,1.5-0.6c0.6,0,1.1,0.3,1.4,0.8c0.2,0.3,0.3,0.8,0.4,1.5c0.1,0.5,0.1,0.8,0.2,1
		s0.3,0.3,0.5,0.3c0.4,0,0.8-0.2,1.1-0.6c0.5-0.6,0.9-1.2,1.2-2c0.2,0.4,0.4,0.7,0.7,1c0.1,0.1,0.1,0.2,0.1,0.3s0,0.1,0,0.2
		c-0.2,0.5-0.6,1-1,1.5c-0.6,0.7-1.4,1-2.2,1c-0.6,0-1.1-0.2-1.4-0.6c-0.2-0.4-0.4-0.9-0.5-1.7c-0.1-0.6-0.2-1-0.3-1.3
		c-0.1-0.2-0.3-0.3-0.5-0.3c-0.5,0-1,0.3-1.5,1c-0.4,0.6-0.9,1.5-1.4,2.7c0,0.1-0.1,0.2-0.2,0.2h-0.1c-0.4-0.1-0.7-0.3-0.9-0.5
		c-0.1,0-0.1-0.1-0.1-0.2c0,0,0-0.1,0.1-0.2c1.6-3.2,2.8-5.6,3.5-7.2C237.3,71.2,237.5,70.6,237.5,70.2z"/>
</g>
<g class="st5">
	<path class="st4" d="M123.6,33.8h-1.7c-0.1,0-0.1,0-0.1-0.1v-1.3c0-0.1,0-0.1,0.1-0.1h1.7h7.8h1.7c0.1,0,0.1,0,0.1,0.1v1.3
		c0,0.1,0,0.1-0.1,0.1h-1.7H123.6z"/>
	<path class="st4" d="M141,32.3h-1.7c-0.1,0-0.1,0-0.1,0c0.1,0.4,0.3,0.9,0.4,1.4c0,0,0,0,0,0.1s-0.1,0.1-0.2,0.2l-0.6,0.2
		c-0.1,0-0.1,0-0.1,0s-0.1,0-0.1-0.1l-0.1-0.4l-0.8,0.1v3.6v1.7c0,0.1,0,0.1,0,0.1h-0.1h-1c-0.1,0-0.1,0-0.1,0v-0.1v-1.7V34l-1,0.1
		c-0.2,0-0.4,0-0.5,0.1c-0.1,0-0.1,0.1-0.2,0.1c-0.1,0-0.1-0.1-0.2-0.2c-0.1-0.4-0.1-0.7-0.1-1.1c0.3,0,0.6,0.1,0.9,0.1
		c0.2-0.2,0.4-0.5,0.7-1c-0.5-0.7-1.1-1.3-1.7-1.9l-0.1-0.1c0,0,0-0.1,0.1-0.2l0.5-0.6c0.1-0.1,0.1-0.1,0.1-0.1s0.1,0,0.1,0.1
		l0.3,0.3c0.3-0.5,0.6-1,0.8-1.4c0.1-0.2,0.2-0.4,0.2-0.7c0.4,0.1,0.8,0.3,1.1,0.5c0.1,0.1,0.2,0.1,0.2,0.2s0,0.1-0.1,0.2
		s-0.2,0.2-0.2,0.3c-0.4,0.7-0.8,1.3-1.1,1.8l0.5,0.6c0.3-0.5,0.6-1,0.9-1.5c0.2-0.3,0.3-0.6,0.4-0.8c0.6,0.2,0.9,0.4,1.1,0.5
		c0.1,0.1,0.2,0.1,0.2,0.2s0,0.1-0.1,0.2s-0.2,0.2-0.4,0.5c-0.7,1.1-1.4,2.1-2,2.9c0.3,0,0.8,0,1.5-0.1c-0.1-0.3-0.2-0.6-0.3-0.9V32
		c0-0.1,0.1-0.1,0.2-0.1l0.6-0.2h0.1c0,0,0.1,0,0.1,0.1c0.1,0.2,0.2,0.5,0.3,0.8v-0.9c0-0.1,0-0.1,0-0.1h0.1h1.7h0.3v-1.3h-0.2H140
		c-0.1,0-0.1,0-0.1,0v-0.1v-0.9c0-0.1,0-0.1,0-0.1h0.1h1.3h0.2v-0.5c0-0.7,0-1.1-0.1-1.4c0.4,0,0.9,0,1.3,0.1c0.1,0,0.2,0,0.2,0.1
		s0,0.1-0.1,0.3c0,0.1-0.1,0.3-0.1,0.8v0.2l0,0h1.3c0.1,0,0.1,0,0.1,0v0.1v0.9c0,0.1,0,0.1,0,0.1H144h-1.3l0,0v1.3h0.5
		c0.6-0.8,1.2-1.6,1.6-2.6c0.1-0.3,0.2-0.6,0.3-0.9c0.5,0.2,0.9,0.4,1.1,0.5c0.1,0.1,0.2,0.1,0.2,0.2s0,0.1-0.1,0.2
		s-0.2,0.3-0.4,0.5c-0.4,0.7-0.8,1.4-1.3,2h1.7c0.1,0,0.1,0,0.1,0v0.1v0.9c0,0.1,0,0.1,0,0.1h-0.1h-1.7h-0.9c-0.3,0.3-0.6,0.7-1,1
		h1.5h1.3c0.1,0,0.1,0,0.1,0v0.1v1.8v1.4v2.3c0,0.1,0,0.1,0,0.1h-0.1h-1c-0.1,0-0.1,0-0.1,0v-0.1v-0.4h-2.7v0.4c0,0.1,0,0.1,0,0.1
		h-0.1h-1c-0.1,0-0.1,0-0.1,0v-0.1v-2.2v-1.8c-0.2,0.1-0.3,0.2-0.3,0.2c-0.2,0.1-0.3,0.2-0.3,0.2c-0.1,0-0.2-0.1-0.3-0.3
		c-0.2-0.3-0.3-0.5-0.5-0.7c1.2-0.6,2.2-1.3,3.1-2.1H141V32.3z M134.5,37.9c0.3-0.7,0.5-1.5,0.5-2.4c0-0.2,0-0.4,0-0.6
		c0-0.1,0-0.2,0-0.2c0.5,0.1,0.8,0.1,1,0.2c0.1,0,0.2,0.1,0.2,0.2s0,0.1-0.1,0.2c0,0.1-0.1,0.2-0.1,0.5c-0.1,0.9-0.3,1.7-0.5,2.4
		c-0.1,0.2-0.1,0.3-0.2,0.3c-0.1,0-0.2-0.1-0.3-0.2C135,38.1,134.7,38,134.5,37.9z M138.8,34.7C138.9,34.7,138.9,34.7,138.8,34.7
		c0.1,0,0.2,0,0.2,0.1c0.2,0.7,0.4,1.5,0.6,2.3c0,0.1,0,0.1,0,0.1c0,0.1-0.1,0.1-0.2,0.1l-0.6,0.2c-0.1,0-0.1,0-0.2,0
		c-0.1,0-0.1,0-0.1-0.1c-0.1-1-0.2-1.8-0.5-2.4v-0.1c0-0.1,0.1-0.1,0.2-0.1L138.8,34.7z M144.3,34.4h-2.7v1h2.7V34.4z M141.7,37.5
		h2.7v-1.1h-2.7V37.5z"/>
	<path class="st4" d="M149.1,28.3c0.6,0.1,1.1,0.3,1.4,0.5c0.2,0.1,0.3,0.2,0.3,0.3c0,0.1-0.1,0.2-0.2,0.4c-0.1,0.2-0.2,0.5-0.3,0.9
		c-0.4,1.6-0.5,3-0.5,4.2c0,0.6,0,1.1,0.1,1.5c0.6-1.3,0.9-1.9,0.9-1.9c0,0.1,0.2,0.4,0.5,0.8c0.1,0.1,0.1,0.2,0.1,0.2
		c0,0.1,0,0.1-0.1,0.2c-0.4,0.8-0.6,1.5-0.7,2c0,0.1,0,0.2,0,0.4v0.4c0,0.1-0.1,0.1-0.2,0.2c-0.4,0.1-0.7,0.2-1.1,0.2l0,0
		c-0.1,0-0.1,0-0.1-0.1c-0.2-0.5-0.3-1.1-0.5-1.9c-0.1-0.7-0.1-1.3-0.1-1.9c0-1.2,0.1-2.6,0.4-4.3C149,29.3,149.1,28.7,149.1,28.3z
		 M152.1,35l1.2-0.1l0,0c0.1,0,0.1,0.1,0.1,0.2c0,0.5,0.3,0.8,0.6,1s0.8,0.2,1.5,0.2s1.5-0.1,2.5-0.2c0,0,0,0,0.1,0s0.1,0.1,0.1,0.2
		c0.1,0.4,0.1,0.7,0.1,1.1c0,0.1,0,0.1,0,0.2c0,0-0.1,0-0.2,0c-0.8,0.1-1.5,0.1-2.1,0.1c-1,0-1.8-0.1-2.3-0.3
		c-0.4-0.2-0.8-0.4-1.1-0.8C152.2,36.3,152.1,35.7,152.1,35z M152.5,31.3c0-0.7,0-1.2,0-1.3c0-0.1,0.1-0.2,0.2-0.2
		c0.8-0.2,1.8-0.2,2.8-0.2c0.7,0,1.4,0,1.9,0.1c0.1,0,0.2,0,0.3,0.1v0.1c0,0.5,0,0.9,0,1.1c0,0.1-0.1,0.2-0.1,0.2l0,0
		c-0.8-0.1-1.5-0.1-2.1-0.1C154.6,31,153.6,31.1,152.5,31.3z"/>
	<path class="st4" d="M161.7,30.5H160c-0.1,0-0.1,0-0.1,0v-0.1v-1c0-0.1,0-0.1,0-0.1h0.1h1.7h3.1v-0.2c0-0.7,0-1.2-0.1-1.7
		c0.6,0,1.1,0,1.5,0.1c0.1,0,0.2,0.1,0.2,0.1s0,0.1-0.1,0.3c-0.1,0.2-0.1,0.5-0.1,1v0.3h3.3h1.7c0.1,0,0.1,0,0.1,0v0.1v1
		c0,0.1,0,0.1,0,0.1h-0.1h-1.7h-3.3V32h1.9c0.2,0,0.3,0,0.4-0.1c0.1,0,0.1-0.1,0.2-0.1c0.1,0,0.2,0.1,0.5,0.4
		c0.3,0.3,0.4,0.4,0.4,0.6c0,0.1-0.1,0.1-0.2,0.2c-0.1,0.1-0.2,0.2-0.3,0.3c-0.7,1.1-1.5,2-2.4,2.8c1.2,0.7,2.8,1.2,4.8,1.5
		c-0.2,0.3-0.4,0.6-0.6,1c-0.1,0.2-0.2,0.3-0.3,0.3s-0.2,0-0.3,0c-2.1-0.5-3.7-1.1-4.9-1.9c-1.2,0.8-2.8,1.4-4.7,1.9
		c-0.1,0-0.2,0.1-0.3,0.1s-0.2-0.1-0.3-0.3c-0.1-0.4-0.3-0.7-0.5-0.9c2-0.4,3.5-0.9,4.7-1.6c-0.9-0.8-1.6-1.8-2.1-3
		c-0.4,0-0.7,0-1,0h-0.3c-0.1,0-0.1,0-0.1,0v-0.1v-1c0-0.1,0-0.1,0-0.1h0.1h1.8h2v-1.6h-3L161.7,30.5L161.7,30.5z M167.5,33.3h-3.7
		c0.5,0.9,1.1,1.6,1.8,2.2C166.3,34.9,167,34.2,167.5,33.3z"/>
	<path class="st4" d="M172.8,37.7c0.2,0,0.6,0,1.1,0c0.2,0,0.3-0.1,0.3-0.4v-2.6l-0.5,0.2c-0.2,0.1-0.3,0.1-0.5,0.2
		c-0.1,0.1-0.1,0.1-0.2,0.1c-0.1,0-0.1-0.1-0.2-0.2c-0.1-0.3-0.2-0.7-0.2-1.2c0.4-0.1,0.8-0.1,1.2-0.2l0.4-0.1V31H174h-1.1
		c-0.1,0-0.1,0-0.1,0v-0.1V30c0-0.1,0-0.1,0-0.1h0.1h1.1h0.2v-0.7c0-0.7,0-1.3-0.1-1.8c0.5,0,0.9,0,1.3,0.1c0.1,0,0.2,0.1,0.2,0.1
		s0,0.1-0.1,0.3c-0.1,0.1-0.1,0.5-0.1,1.3v0.7h1c0.1,0,0.1,0,0.1,0V30v0.9c0,0.1,0,0.1,0,0.1h-0.1h-1v2.1c0.1-0.1,0.5-0.2,1-0.4
		c0,0.2-0.1,0.6-0.1,0.9c0,0.2,0,0.3-0.1,0.3c0,0-0.1,0.1-0.2,0.1c-0.2,0.1-0.4,0.2-0.7,0.3v0.5v2.6c0,0.7-0.1,1.1-0.4,1.3
		c-0.2,0.2-0.7,0.3-1.5,0.3c-0.1,0-0.1,0-0.2,0c-0.1,0-0.2,0-0.3-0.1c0,0-0.1-0.1-0.1-0.3C173,38.4,172.9,38.1,172.8,37.7z
		 M175.5,38.1c1.4-1,2.3-2.5,2.8-4.4c-0.4,0-0.8,0-1.1,0c-0.2,0-0.3,0-0.3,0c-0.1,0-0.1,0-0.1,0v-0.1v-0.9c0-0.1,0-0.1,0-0.1h0.1
		h1.6c0-0.1,0-0.4,0.1-0.7h-1.5c-0.1,0-0.1,0-0.1,0v-0.1v-0.7c0-0.1,0-0.1,0-0.1h0.1h1.7h2.8c0.3-0.5,0.5-0.9,0.7-1.4
		c0.1-0.3,0.2-0.5,0.2-0.7c0.5,0.1,0.9,0.2,1.2,0.3c0.1,0,0.2,0.1,0.2,0.2s0,0.1-0.1,0.2s-0.1,0.1-0.2,0.2c-0.3,0.7-0.6,1.1-0.6,1.2
		h1.3c0.1,0,0.1,0,0.1,0v0.1v0.7c0,0.1,0,0.1,0,0.1h-0.1h-1.7h-2.5c0,0.3-0.1,0.5-0.1,0.7h2.8h1.7c0.1,0,0.1,0,0.1,0.1v0.9
		c0,0.1,0,0.1,0,0.1h-0.1h-1.7h-3c0,0.2-0.1,0.4-0.2,0.7h3c0.1,0,0.2,0,0.3-0.1c0.1,0,0.1,0,0.2,0c0.1,0,0.3,0.1,0.5,0.3
		s0.3,0.4,0.3,0.5s0,0.1-0.1,0.2s-0.2,0.2-0.3,0.4c-0.4,0.6-0.8,1.1-1.3,1.5c0.7,0.3,1.7,0.6,2.8,0.8c-0.1,0.2-0.3,0.4-0.4,0.8
		c-0.1,0.2-0.2,0.3-0.3,0.3c0,0-0.1,0-0.3-0.1c-1.1-0.3-2-0.7-2.8-1.1c-0.7,0.5-1.5,0.9-2.5,1.2c-0.1,0.1-0.2,0.1-0.3,0.1
		s-0.1-0.1-0.2-0.3c-0.1-0.2-0.3-0.5-0.5-0.7c1-0.2,1.8-0.5,2.5-1c-0.4-0.4-0.8-0.8-1.1-1.2c-0.5,1.1-1.2,2-2.1,2.7
		c-0.1,0.1-0.2,0.2-0.3,0.2s-0.1-0.1-0.2-0.2C176,38.5,175.8,38.3,175.5,38.1z M183,27.2c0.3,0.2,0.6,0.4,0.9,0.7
		c0.1,0.1,0.1,0.2,0.1,0.2c0,0.1-0.1,0.2-0.3,0.2c-0.1,0-0.3,0-0.6,0.1c-1.5,0.3-3.4,0.5-5.5,0.7c-0.1,0-0.2,0-0.2,0
		c-0.1,0-0.2,0-0.2-0.1c0,0-0.1-0.1-0.1-0.3c-0.1-0.3-0.2-0.5-0.4-0.7c2.2,0,4-0.2,5.6-0.5C182.6,27.4,182.8,27.3,183,27.2z
		 M178.5,29.2c0.2,0.3,0.4,0.6,0.6,1.1v0.1c0,0-0.1,0.1-0.2,0.1l-0.7,0.3c-0.1,0-0.1,0-0.2,0c0,0-0.1,0-0.1-0.1
		c-0.1-0.4-0.3-0.8-0.5-1.1c0-0.1-0.1-0.1-0.1-0.1s0-0.1,0.1-0.1l0.7-0.3c0.1,0,0.1,0,0.2,0S178.4,29.1,178.5,29.2z M181.9,35.4
		h-2.4c0.4,0.5,0.8,0.9,1.3,1.3C181.2,36.3,181.6,35.9,181.9,35.4z M179.6,29.4L179.6,29.4c0-0.1,0-0.2,0.2-0.2l0.6-0.2
		c0.1,0,0.1,0,0.2,0c0,0,0.1,0,0.1,0.1c0.2,0.4,0.4,0.8,0.6,1.2v0.1c0,0.1-0.1,0.1-0.2,0.1l-0.7,0.3c-0.1,0-0.1,0.1-0.2,0.1
		c0,0-0.1,0-0.1-0.1C180.1,30.3,179.9,29.9,179.6,29.4z"/>
	<path class="st4" d="M187,27.9c0.8,0.1,1.4,0.2,1.6,0.2c0.2,0.1,0.3,0.1,0.3,0.2s0,0.2-0.1,0.4c-0.1,0.2-0.1,0.7-0.2,1.6
		c-0.1,2-0.2,3.7-0.2,5c0,0.7,0.1,1.2,0.2,1.3c0.2,0.2,0.5,0.3,1,0.3c0.7,0,1.4-0.2,2.3-0.6c0.8-0.4,1.6-1,2.3-1.8
		c0,0.5,0.1,0.9,0.3,1.2c0.1,0.2,0.1,0.3,0.1,0.3c0,0.1-0.1,0.3-0.3,0.4c-0.7,0.7-1.6,1.2-2.5,1.5c-0.8,0.3-1.6,0.4-2.4,0.4
		c-0.9,0-1.6-0.2-1.9-0.7c-0.3-0.4-0.5-1.1-0.5-2c0-0.8,0.1-2.7,0.2-5.6c0-0.4,0-0.7,0-0.9C187.1,28.8,187.1,28.3,187,27.9z"/>
	<path class="st4" d="M200.1,35.3c0-0.8-0.1-1.3-0.1-1.5c-0.4,0-0.7,0-1,0c-0.6,0-1.2,0-1.7-0.1c-0.1,0-0.2-0.1-0.2-0.2
		c-0.1-0.3-0.1-0.7-0.1-1.1c0.7,0.1,1.4,0.1,2.1,0.1c0.3,0,0.5,0,0.8,0V31c-0.5,0-1,0-1.3,0c-0.7,0-1.3,0-1.8-0.1
		c-0.1,0-0.2-0.1-0.2-0.2c0-0.3-0.1-0.7-0.1-1.2c0.8,0.1,1.9,0.1,3.4,0.1c0-0.2,0-0.7,0-1.3c0-0.3-0.1-0.6-0.2-0.9
		c0.7,0,1.3,0.1,1.6,0.2c0.1,0,0.2,0.1,0.2,0.2s0,0.1,0,0.1c-0.1,0.2-0.2,0.5-0.2,0.6s0,0.2,0,0.4c0,0.2,0,0.3,0,0.4
		c1-0.1,1.9-0.2,2.8-0.4h0.1c0.1,0,0.1,0.1,0.1,0.2c0,0.3,0.1,0.6,0.1,0.9c0,0.1,0,0.2-0.1,0.2c-0.9,0.2-1.9,0.3-3,0.3V32
		c0.4,0,1.2-0.1,2.5-0.3h0.1c0.1,0,0.1,0,0.1,0.1c0,0.5,0,0.9,0,1.1c0,0.1-0.1,0.2-0.2,0.2c-0.9,0.1-1.8,0.3-2.5,0.3
		c0,0.9,0.1,1.5,0.1,1.8c1.3,0.3,2.4,0.9,3.4,1.6c0.1,0.1,0.1,0.1,0.1,0.2v0.1c-0.1,0.4-0.3,0.7-0.6,1c0,0.1-0.1,0.1-0.2,0.1
		c-0.1,0-0.1,0-0.1-0.1c-0.7-0.6-1.6-1.1-2.6-1.5c0,0.7-0.3,1.3-0.7,1.6s-1,0.4-1.9,0.4s-1.6-0.2-2-0.6c-0.4-0.3-0.6-0.7-0.6-1.2
		c0-0.6,0.3-1,0.8-1.4c0.5-0.3,1.1-0.5,1.8-0.5C199.3,35.3,199.7,35.3,200.1,35.3z M200.1,36.5c-0.4-0.1-0.8-0.2-1.2-0.2
		c-0.9,0-1.4,0.2-1.4,0.7c0,0.4,0.4,0.6,1.3,0.6c0.6,0,1-0.1,1.2-0.4C200.1,37.1,200.1,36.9,200.1,36.5z"/>
	<path class="st4" d="M212.4,29.6c0-0.1,0-0.3,0-0.6c0-0.2,0-0.4,0-0.5c0-0.3-0.1-0.6-0.2-1c0.6,0,1.1,0.1,1.5,0.2
		c0.2,0,0.4,0.1,0.4,0.2s0,0.2-0.1,0.3c0,0.1-0.1,0.2-0.1,0.4c0,0.1,0,0.3,0,0.8c1.2,0,2.5-0.1,4-0.1c0.1,0,0.1,0,0.2,0
		c0,0,0,0.1,0,0.2c0,0.2,0,0.3,0,0.5s0,0.3,0,0.5c0,0.1-0.1,0.2-0.2,0.2c0,0,0,0-0.1,0c-0.8,0-1.6,0-2.5,0c-0.5,0-1,0-1.5,0
		c0,1.1,0,1.9,0,2.4c0.1,0.4,0.2,0.8,0.2,1.3c0,1.8-0.8,3.2-2.3,4.2c-0.3,0.2-0.4,0.2-0.5,0.2s-0.2-0.1-0.4-0.2
		c-0.3-0.2-0.6-0.4-1-0.5c0.8-0.4,1.4-0.8,1.9-1.4c0.4-0.5,0.7-1,0.8-1.5c-0.2,0.3-0.6,0.5-1.2,0.5c-0.6,0-1-0.2-1.4-0.6
		c-0.3-0.4-0.5-0.8-0.5-1.4s0.2-1.1,0.7-1.5c0.4-0.3,0.8-0.5,1.3-0.5s0.8,0.1,1,0.3v-1.3c-1.9,0.1-3.4,0.2-4.5,0.4
		c-0.1,0-0.2,0-0.4,0.1c-0.1,0-0.2,0.1-0.2,0.1c-0.1,0-0.2-0.1-0.2-0.2c-0.1-0.2-0.2-0.7-0.3-1.3c0.1,0,0.3,0,0.4,0
		c0.1,0,0.5,0,1.2-0.1C209.1,29.8,210.4,29.8,212.4,29.6z M211.6,33c-0.2,0-0.5,0.1-0.6,0.2s-0.2,0.4-0.2,0.6c0,0.3,0.1,0.5,0.3,0.7
		c0.1,0.1,0.3,0.2,0.6,0.2s0.5-0.1,0.7-0.3s0.2-0.4,0.2-0.6c0-0.3-0.1-0.5-0.3-0.6C212,33,211.8,33,211.6,33z"/>
	<path class="st4" d="M223,27.9l-0.3,7.7h-1.3l-0.4-7.7C221,27.9,223,27.9,223,27.9z M221.1,36.9h1.8v1.8h-1.8V36.9z"/>
</g>
<g id="グループ_877" transform="translate(-321.301 -2588.843)">
	<path id="パス_1131" class="st2" d="M394.2,2658.1c-10.6-6.7-29.5-1.5-29.6-1.4c-0.8,0.2-1.7-0.2-1.9-1.1c0-0.1,0-0.2-0.1-0.3
		l-0.2-2c-6,3.6-5.5,9-5.5,9.2c0,0,0,0,0,0l0,0c0,1.6,0.8,3.2,2.1,4.2c2.3,1.7,5.9,0.9,5.9,0.9v0c0.1,0,0.2,0,0.3,0l0,0
		c9.3,0,23.3,0,24.7,0c1-0.2,1.5,0.6,2,1.4c0.3,0.4,0.6,1,1.1,1.8c0.9,1.5,2.1,3.4,3.3,5.3c1.9,3.1,3.7,6.1,4.4,7.3
		c0.1,0,0.2,0.1,0.3,0.1C401.7,2677.4,402.1,2663.2,394.2,2658.1z"/>
	<path id="パス_1133" class="st2" d="M354.4,2665.6c-2.4,2.9-2.7,7.5-2.4,11.1c0.2,2.5,0.7,5.1,1.3,7.5c0.7-0.4,1.4-0.8,2.2-1
		l0.1,0l6.9-12.2c-1.9,0-3.7-0.6-5.3-1.6C355.9,2668.4,354.9,2667.1,354.4,2665.6z"/>
	<path id="パス_1135" class="st3" d="M385.1,2702.4l-2.2-2.2c-2.8,2.8-7.3,2.8-10.1,0l-2.2,2.2
		C374.6,2706.4,381,2706.4,385.1,2702.4L385.1,2702.4z"/>
	<path id="パス_1136" class="st3" d="M378.6,2697.2l2.2-2.2l-2.7-2.7l2.7-2.7l-2.2-2.2l-3.8,3.8c-0.6,0.6-0.6,1.6,0,2.2
		L378.6,2697.2z"/>
	<path id="パス_1137" class="st3" d="M371.4,2688.6c0-1.3-1.1-2.4-2.4-2.4s-2.4,1.1-2.4,2.4s1.1,2.4,2.4,2.4
		S371.4,2690,371.4,2688.6L371.4,2688.6z"/>
	<path id="パス_1138" class="st3" d="M386.6,2691c1.3,0,2.4-1.1,2.4-2.4s-1.1-2.4-2.4-2.4c-1.3,0-2.4,1.1-2.4,2.4
		S385.3,2691,386.6,2691L386.6,2691z"/>
	<path id="パス_1139" class="st3" d="M417,2727.1l-26.3-5.4v-10.3c0.8-0.6,1.6-1.2,2.3-1.9c3.1-3.1,5.4-6.9,6.6-11.1
		c1.4-0.4,2.7-1.1,3.8-2.1c2.5-2.1,3.3-5.5,2.2-8.5c-0.4-0.8-0.9-1.5-1.5-2.1c0,0-0.1-0.1-0.1-0.1c0.7-5.5,2.3-23.5-8.1-30.1
		c-9.8-6.3-25.1-3.5-30.4-2.3l-0.2-2.4c-0.1-0.9-0.8-1.5-1.7-1.4c-0.2,0-0.3,0.1-0.5,0.1c-7.4,3.2-9.3,9-9.4,12.5
		c-8.2,6.1-4.1,21.3-3,24.8c-0.2,0.3-0.4,0.7-0.6,1.1c-1.2,3-0.3,6.4,2.2,8.5c1.1,0.9,2.4,1.7,3.8,2.1c1.2,4.2,3.5,8,6.6,11.1
		c0.7,0.7,1.5,1.3,2.3,1.9v10.3l-26.3,5.4c-7,1.4-12,7.6-12,14.7v20.9c0,0.9,0.7,1.6,1.6,1.6l0,0h99.3c0.9,0,1.6-0.7,1.6-1.6l0,0
		v-20.9C429,2734.7,424,2728.5,417,2727.1z M362.4,2653.4l0.2,2c0.1,0.9,0.9,1.5,1.7,1.4c0.1,0,0.2,0,0.3-0.1
		c0.2-0.1,19.1-5.3,29.6,1.4c7.9,5.1,7.5,19.3,6.8,25.5c-0.1,0-0.2-0.1-0.3-0.1c-0.7-1.1-2.6-4.2-4.4-7.3c-1.2-1.9-2.4-3.9-3.3-5.3
		c-0.4-0.7-0.8-1.3-1.1-1.8c-0.5-0.8-1-1.6-2-1.4c-1.4,0-15.4,0-24.7,0l0,0c-0.1,0-0.2,0-0.3,0v0c0,0-3.6,0.8-5.9-0.9
		c-1.3-1-2-2.6-2.1-4.2l0,0c0,0,0,0,0,0C356.9,2662.3,356.4,2656.9,362.4,2653.4L362.4,2653.4z M354.4,2665.6
		c0.5,1.5,1.5,2.8,2.8,3.7c1.6,1.1,3.4,1.6,5.3,1.6l-6.9,12.2l-0.1,0c-0.8,0.3-1.5,0.6-2.2,1c-0.7-2.5-1.1-5-1.3-7.5
		C351.7,2673.1,352,2668.5,354.4,2665.6L354.4,2665.6z M364.8,2707.3c-2.9-2.9-5-6.6-6-10.6c-0.2-0.5-0.6-1-1.1-1.1
		c-1.2-0.3-2.4-0.8-3.3-1.6c-1.4-1.2-2-3.1-1.4-4.9c0.2-0.5,0.5-0.9,0.9-1.2c0.7-0.7,1.5-1.2,2.4-1.6l0.3,0c0.5,0,1-0.3,1.3-0.8
		l8.3-14.7c2,0,6.7,0,11.5,0c3.1,0,6.2,0,8.6,0c1.4,0,2.4,0,3.1,0c1.4,2.3,5.9,9.7,9,14.8c0.2,0.3,0.5,0.6,0.9,0.7
		c1,0.3,1.9,0.9,2.6,1.6c0.4,0.4,0.7,0.8,0.9,1.2c0.6,1.8,0,3.7-1.4,4.9c-1,0.8-2.1,1.4-3.3,1.6c-0.5,0.1-1,0.6-1.1,1.1
		c-1,4-3.1,7.6-6,10.6C383.6,2714.3,372.1,2714.3,364.8,2707.3L364.8,2707.3z M366.8,2724.6c0.7-0.1,1.3-0.8,1.3-1.5v-9.7
		c3,1.5,6.3,2.3,9.7,2.4h0.1c3.4-0.1,6.7-0.9,9.7-2.4v9.7c0,0.7,0.5,1.4,1.3,1.5l4.3,0.9c-1.9,3.4-8.9,5.7-15.3,5.7
		s-13.5-2.3-15.3-5.7L366.8,2724.6z M425.9,2761.2h-96.1v-19.4c0-5.6,4-10.5,9.5-11.6l20.1-4.1c1.9,4.8,9.3,8.2,18.4,8.2
		c9.1,0,16.5-3.5,18.4-8.2l20.1,4.1c5.5,1.1,9.5,6,9.5,11.6L425.9,2761.2z"/>
	<path id="パス_1140" class="st2" d="M377.8,2737.7c-1.2,0-2.1,0.9-2.1,2.1c0,1.2,0.9,2.1,2.1,2.1c1.2,0,2.1-0.9,2.1-2.1
		C379.9,2738.7,379,2737.7,377.8,2737.7C377.8,2737.7,377.8,2737.7,377.8,2737.7z"/>
	<path id="パス_1141" class="st2" d="M377.8,2753.2c-1.2,0-2.1,0.9-2.1,2.1c0,1.2,0.9,2.1,2.1,2.1c1.2,0,2.1-0.9,2.1-2.1
		C379.9,2754.1,379,2753.2,377.8,2753.2C377.8,2753.2,377.8,2753.2,377.8,2753.2z"/>
</g>
</svg>
