<?xml version="1.0" encoding="utf-8"?>
<!-- Generator: Adobe Illustrator 25.2.3, SVG Export Plug-In . SVG Version: 6.00 Build 0)  -->
<svg version="1.1" id="レイヤー_1" xmlns="http://www.w3.org/2000/svg" xmlns:xlink="http://www.w3.org/1999/xlink" x="0px"
	 y="0px" viewBox="0 0 350 190" style="enable-background:new 0 0 350 190;" xml:space="preserve">
<style type="text/css">
	.st0{fill:#FFFFFF;}
	.st1{fill:#00AEBD;}
	.st2{fill:#555353;}
	.st3{fill:#A2D5D9;}
	.st4{enable-background:new    ;}
	.st5{fill:#555353;stroke:#555353;}
</style>
<rect class="st0" width="350" height="190"/>
<g id="グループ_850" transform="translate(-2319.785 -2008.079)">
	<path id="パス_1060" class="st1" d="M2373.8,2107.5c-0.7-0.2-1.3-0.5-1.9-0.8c-5.8,3.5-7.6,10.9-4.1,16.7
		c2.2,3.6,6.2,5.9,10.4,5.9h6.1v-6.4c-1-0.7-1.9-1.4-2.7-2.3C2377.9,2116.9,2375.2,2112.4,2373.8,2107.5z"/>
	<path id="パス_1062" class="st1" d="M2432.7,2117.1c0-4.3-2.2-8.2-5.9-10.4c-0.6,0.3-1.3,0.6-1.9,0.8c-1.4,4.9-4.1,9.4-7.7,13.1
		c-0.8,0.8-1.8,1.6-2.7,2.3v6.4h6.1C2427.2,2129.2,2432.7,2123.8,2432.7,2117.1z"/>
	<path id="パス_1063" class="st1" d="M2399.3,2058.9c-15.1,0-27.5,13.1-27.5,29.1v2.1c0.4-0.2,0.8-0.3,1.2-0.5
		c0.1,0,0.2-0.1,0.3-0.1l11.1-1.6c7-0.9,13.1-5.1,16.5-11.2c1.9-3.4,4.2-5.7,6.9-6.8c0.7-0.3,1.6-0.1,2.1,0.5l16.1,19.3
		c0.2,0.1,0.5,0.2,0.7,0.3v-2.1C2426.8,2072,2414.5,2058.9,2399.3,2058.9z M2379,2083.5l-0.3-3.7c5.3-0.5,10.2-2.9,13.8-6.7l2.7,2.5
		C2391,2080.2,2385.2,2083,2379,2083.5z"/>
	<path id="パス_1066" class="st2" d="M2399.3,2115.7c3.2,0,6.3-1.3,8.5-3.5l-2.6-2.6c-3.3,3.3-8.6,3.3-11.8,0l0,0l-2.6,2.6
		C2393.1,2114.4,2396.1,2115.7,2399.3,2115.7z"/>
	<path id="パス_1067" class="st2" d="M2400.3,2106l2.6-2.6l-3.2-3.2l3.2-3.2l-2.6-2.6l-4.5,4.5c-0.7,0.7-0.7,1.9,0,2.6l0,0
		L2400.3,2106z"/>
	<path id="パス_1068" class="st2" d="M2389,2098.9c1.5,0,2.8-1.3,2.8-2.8s-1.3-2.8-2.8-2.8s-2.8,1.3-2.8,2.8
		S2387.5,2098.9,2389,2098.9L2389,2098.9z"/>
	<path id="パス_1069" class="st2" d="M2409.6,2098.9c1.5,0,2.8-1.3,2.8-2.8s-1.3-2.8-2.8-2.8s-2.8,1.3-2.8,2.8
		S2408.1,2098.9,2409.6,2098.9L2409.6,2098.9z"/>
	<path id="パス_1070" class="st2" d="M2445.4,2141.2l-31-6.3v-2h6.1c8.8,0,15.8-7.1,15.8-15.8c0-5-2.4-9.7-6.4-12.7
		c2.4-2.5,3.2-6.1,1.9-9.4c-0.4-0.8-0.8-1.5-1.4-2.1v-4.8c0-18.1-14-32.8-31.1-32.8s-31.1,14.7-31.1,32.8v4.8
		c-0.6,0.6-1.1,1.4-1.4,2.1c-1.3,3.2-0.5,6.9,1.9,9.4c-7,5.2-8.5,15.1-3.3,22.2c3,4,7.7,6.4,12.7,6.4h6.1v2l-31,6.3
		c-8.2,1.7-14.1,8.9-14.1,17.3v24.6c0,1,0.8,1.8,1.8,1.8l0,0h116.7c1,0,1.8-0.8,1.8-1.8l0,0v-24.6
		C2459.5,2150.1,2453.6,2142.9,2445.4,2141.2z M2371.8,2102.3c-1.7-1.5-2.4-4-1.7-5.7c0.3-0.5,0.6-1,1-1.4c0.8-0.8,1.8-1.5,3-1.9
		l10.9-1.6c8.1-1.1,15.2-6,19.2-13.1c0.9-1.8,2.2-3.4,3.9-4.5l15.4,18.6c0.2,0.3,0.5,0.5,0.8,0.6c1.2,0.4,2.2,1,3.1,1.9
		c0.4,0.4,0.8,0.9,1,1.4c0.8,1.7,0.1,4.2-1.7,5.7c-1.1,0.9-2.5,1.6-3.9,1.9c-0.6,0.2-1.2,0.7-1.3,1.3c-1.2,4.7-3.6,9-7,12.4
		c-8.5,8.2-22,8.2-30.5,0c-3.4-3.4-5.8-7.7-7-12.4c-0.2-0.6-0.7-1.1-1.3-1.3C2374.3,2103.9,2372.9,2103.2,2371.8,2102.3z
		 M2387.9,2125c3.6,1.7,7.4,2.7,11.4,2.8h0.1c3.9-0.1,7.8-1,11.4-2.8v11.2l-11.4,17.3l-11.4-17.3L2387.9,2125z M2432.7,2117.1
		c0,6.7-5.4,12.2-12.2,12.2h-6.1v-6.4c1-0.7,1.9-1.4,2.7-2.3c3.6-3.6,6.3-8.1,7.7-13.1c0.7-0.2,1.3-0.5,1.9-0.8
		C2430.5,2108.9,2432.7,2112.8,2432.7,2117.1L2432.7,2117.1z M2371.9,2088c0-16.1,12.3-29.1,27.5-29.1s27.5,13.1,27.5,29.1v2.1
		c-0.2-0.1-0.5-0.2-0.7-0.3l-16.1-19.3c-0.5-0.6-1.4-0.8-2.1-0.5c-2.7,1.1-5.1,3.4-6.9,6.8c-3.4,6.1-9.5,10.3-16.5,11.2l-11.1,1.6
		c-0.1,0-0.2,0-0.3,0.1c-0.4,0.1-0.8,0.3-1.2,0.5L2371.9,2088L2371.9,2088z M2378.1,2129.2c-6.7,0-12.2-5.4-12.2-12.2
		c0-4.3,2.2-8.2,5.9-10.4c0.6,0.3,1.3,0.6,1.9,0.8c1.4,4.9,4.1,9.4,7.7,13.1c0.8,0.8,1.8,1.6,2.7,2.3v6.4L2378.1,2129.2z
		 M2455.8,2181.2h-113v-22.8c0-6.6,4.7-12.3,11.2-13.7l31-6.3l12.1,18.3l-8.1,12.3l3.1,2l7.3-11l7.3,11l3.1-2l-8.1-12.3l12.1-18.3
		l31,6.3c6.5,1.3,11.1,7,11.2,13.7L2455.8,2181.2z"/>
	<path id="パス_1071" class="st2" d="M2395.3,2075.6l-2.7-2.5c-3.6,3.9-8.5,6.3-13.8,6.7l0.3,3.7
		C2385.2,2083,2391,2080.2,2395.3,2075.6z"/>
</g>
<g id="グループ_818" transform="translate(-2523.383 -83.851)">
	<path id="パス_450-2" class="st1" d="M2724.6,196.5v-5.3h-17v5.3h-3.6v-5.3h-4.8l-3.8,64.9h41.4l-3.8-64.9h-4.8v5.3H2724.6z"/>
	<path id="パス_451-2" class="st3" d="M2789,214.9h-9.4v5.3h-3.6v-5.3h-27.9v5.3h-3.6v-5.3h-6.4l2.4,41.1h54.8L2789,214.9z"/>
	<path id="パス_452-2" class="st2" d="M2692.1,259.1c0.3,0.4,0.8,0.6,1.3,0.6h103.9c1,0,1.8-0.8,1.8-1.8c0-0.1,0-0.2,0-0.3
		l-6.8-44.7c-0.1-0.9-0.9-1.5-1.8-1.5h-11v-1c0-9.7-7.9-17.6-17.6-17.6s-17.6,7.9-17.6,17.6v1h-6.6l-1.3-22.1
		c-0.1-1-0.8-1.7-1.8-1.7h-6.5v-7.1c0-6.7-5.4-12.1-12.1-12.1s-12.1,5.4-12.1,12.1l0,0v7.1h-6.5c-1,0-1.8,0.7-1.8,1.7l-4,68.5
		C2691.6,258.3,2691.8,258.8,2692.1,259.1z M2748,210.3c0-7.7,6.2-13.9,13.9-13.9s13.9,6.2,13.9,13.9v1h-27.9v-1H2748z
		 M2744.4,214.9v5.3h3.6v-5.3h27.9v5.3h3.6v-5.3h9.4l6.2,41.1h-54.8l-2.4-41.1H2744.4z M2707.6,180.4c0-4.7,3.8-8.5,8.5-8.5
		s8.5,3.8,8.5,8.5v7.1h-17V180.4z M2699.1,191.2h4.8v5.3h3.6v-5.3h17v5.3h3.6v-5.3h4.8l3.8,64.9h-41.4L2699.1,191.2z"/>
</g>
<g class="st4">
	<path class="st1" d="M161.2,43.1c0.8,0.1,1.4,0.2,1.8,0.3c0.2,0.1,0.3,0.2,0.3,0.3c0,0.1,0,0.2-0.1,0.2c-0.1,0.1-0.2,0.3-0.2,0.5
		c0,0.1,0,0.2-0.1,0.4c0,0.1,0,0.3-0.1,0.3c1.3-0.1,2.6-0.3,3.9-0.6h0.1c0.1,0,0.1,0.1,0.2,0.2c0.1,0.4,0.1,0.8,0.1,1
		S167,46,166.8,46c-1.5,0.3-2.9,0.5-4.3,0.6c-0.1,0.6-0.1,1.1-0.1,1.5c0.6-0.2,1.4-0.3,2.3-0.3c0.2-0.4,0.2-0.8,0.2-1.1
		c0.6,0.2,1.1,0.4,1.3,0.6c0.2,0.1,0.3,0.2,0.3,0.3c0,0.1,0,0.1-0.1,0.2c0,0-0.1,0.1-0.2,0.3c1,0.3,1.8,0.8,2.4,1.5
		c0.5,0.6,0.7,1.3,0.7,2.2c0,1.1-0.4,2.1-1.3,2.8c-0.7,0.6-1.7,1.1-2.8,1.4c-0.1,0-0.2,0-0.2,0c-0.2,0-0.3-0.1-0.4-0.3
		s-0.4-0.5-0.9-0.9c0.6-0.1,1.1-0.3,1.7-0.5c0.5-0.2,0.8-0.4,1.1-0.6c0.8-0.6,1.2-1.3,1.2-2.2c0-0.6-0.2-1.1-0.6-1.5
		c-0.3-0.3-0.7-0.5-1.2-0.7c-0.8,1.5-1.7,2.8-2.8,3.9c0,0.1,0.1,0.3,0.3,0.7c0,0.1,0,0.1,0,0.2s-0.1,0.1-0.2,0.2
		c-0.3,0.2-0.6,0.4-0.9,0.5c-0.1,0-0.1,0.1-0.1,0.1s-0.1,0-0.2-0.1c-0.1-0.2-0.2-0.4-0.2-0.6c-1,0.7-1.9,1.1-2.6,1.1
		c-0.5,0-1-0.2-1.3-0.6c-0.3-0.3-0.4-0.8-0.4-1.3c0-1,0.4-1.9,1.2-2.9c0.6-0.7,1.4-1.3,2.3-1.8c0-0.5,0-1.2,0.1-1.9
		c-0.4,0-0.7,0-1,0h-0.5c-0.5,0-0.7,0-0.9,0s-0.3-0.1-0.3-0.3c0-0.1,0-0.3,0-0.6c0-0.3,0-0.5,0-0.6c0.5,0.1,1,0.1,1.6,0.1
		c0.1,0,0.5,0,1.3,0c0.1-0.7,0.1-1.3,0.1-1.6C161.2,43.6,161.2,43.3,161.2,43.1z M160.9,50.2c-0.6,0.4-1.1,0.9-1.5,1.5
		c-0.3,0.5-0.5,1-0.5,1.4c0,0.2,0.1,0.3,0.2,0.4c0.1,0.1,0.2,0.1,0.3,0.1c0.4,0,1-0.3,1.7-0.9C161,51.7,160.9,50.9,160.9,50.2z
		 M162.5,51.8c0.7-0.8,1.3-1.7,1.7-2.6c-0.6,0-1.3,0.1-1.9,0.3C162.4,50.4,162.4,51.1,162.5,51.8z"/>
	<path class="st1" d="M173.1,43.3c0.7,0.1,1.3,0.3,1.6,0.5c0.2,0.1,0.3,0.2,0.3,0.3c0,0.1,0,0.2-0.1,0.2c-0.1,0.1-0.2,0.3-0.3,0.7
		c-0.1,0.7-0.3,1.6-0.4,2.9c0,0.7-0.1,1.1-0.1,1.3c0,0.1,0,0.3,0,0.4c0.4-0.6,0.7-1.3,1-1.9c0.1,0.4,0.3,0.7,0.5,1
		c0.1,0.1,0.1,0.2,0.1,0.2c0,0.1,0,0.2-0.1,0.4c-0.5,0.9-0.8,1.5-0.9,1.9c0,0.1-0.1,0.3-0.1,0.5c0,0.1-0.1,0.2-0.2,0.2
		c-0.2,0-0.6,0.1-1.2,0.2c-0.1,0-0.2-0.1-0.2-0.2c-0.3-0.8-0.4-1.8-0.4-3c0-0.6,0.1-1.9,0.4-3.7C173,44.3,173.1,43.8,173.1,43.3z
		 M177.9,43.4c0.8,0,1.4,0.1,1.7,0.2c0.2,0.1,0.3,0.1,0.3,0.3V44c0,0.1,0,0.4,0,0.7c0.1,1.9,0.2,3.2,0.2,3.9c0,2.3-0.4,4-1.1,5.2
		c-0.6,0.9-1.4,1.7-2.5,2.4c-0.1,0.1-0.2,0.1-0.3,0.1s-0.2-0.1-0.3-0.2c-0.4-0.3-0.8-0.6-1.3-0.7c1.2-0.7,2-1.3,2.6-2
		c0.5-0.7,0.8-1.4,1-2.1s0.3-1.6,0.3-2.7c0-1.3-0.1-2.5-0.2-3.6C178.1,44.4,178,43.8,177.9,43.4z"/>
	<path class="st1" d="M186.9,46.9c0.2-0.5,0.3-1.2,0.4-1.9c0.1-0.6,0.2-1.2,0.2-1.7c0.7,0.2,1.3,0.3,1.8,0.5c0.2,0,0.2,0.1,0.2,0.3
		c0,0.1,0,0.2-0.1,0.2c-0.1,0.2-0.2,0.3-0.3,0.6c-0.1,0.2-0.2,0.5-0.3,1c-0.1,0.4-0.2,0.7-0.3,0.8c0.4,0,0.8-0.1,1.2-0.1
		c1.4,0,2.1,1,2.1,2.9c0,0.9-0.1,1.8-0.2,2.7c-0.1,0.8-0.3,1.5-0.6,2c-0.4,0.9-1.1,1.4-2,1.4c-0.7,0-1.2-0.1-1.6-0.2
		c-0.2-0.1-0.3-0.2-0.3-0.4c-0.1-0.6-0.2-1.1-0.3-1.4c0.6,0.3,1.1,0.4,1.7,0.4c0.3,0,0.5-0.1,0.6-0.2s0.2-0.3,0.4-0.6
		c0.4-1,0.6-2.3,0.6-3.7c0-0.6-0.1-0.9-0.2-1.1c-0.1-0.2-0.3-0.3-0.7-0.3c-0.3,0-0.8,0-1.3,0.1c-1,2.9-2,5.2-3,7.1
		c-0.1,0.1-0.1,0.2-0.2,0.2c0,0-0.1,0-0.2-0.1c-0.5-0.2-0.8-0.4-1-0.7c-0.1-0.1-0.1-0.2-0.1-0.2c0-0.1,0-0.1,0.1-0.2
		c1.2-2.1,2.1-4,2.7-5.9c-0.3,0.1-0.8,0.1-1.5,0.3c-0.3,0.1-0.5,0.1-0.8,0.2c-0.1,0-0.1,0-0.2,0c-0.1,0-0.2-0.1-0.3-0.2
		c-0.1-0.4-0.3-0.9-0.5-1.5c0.6,0,1.2,0,2-0.1C185.6,47.1,186.2,47,186.9,46.9z M192.1,46.8c0.6-0.4,1-0.6,1.2-0.8h0.1
		c0.1,0,0.1,0,0.2,0.1c1.1,1.1,2,2.3,2.5,3.6c0,0.1,0,0.1,0,0.1c0,0.1,0,0.1-0.1,0.2c-0.3,0.3-0.7,0.5-1.1,0.7c-0.1,0-0.1,0-0.2,0
		c-0.1,0-0.2-0.1-0.2-0.2C193.9,49.1,193.1,47.8,192.1,46.8z M192.9,44.5l0.8-0.6h0.1c0,0,0.1,0,0.1,0.1c0.5,0.4,1,0.9,1.4,1.6v0.1
		c0,0,0,0.1-0.1,0.1l-0.6,0.5l-0.1,0.1c0,0-0.1,0-0.1-0.1C193.9,45.5,193.4,45,192.9,44.5z M194.3,43.5L195,43h0.1
		c0,0,0.1,0,0.1,0.1c0.6,0.4,1,1,1.4,1.6v0.1c0,0.1,0,0.1-0.1,0.1l-0.6,0.5l-0.1,0.1c0,0-0.1,0-0.1-0.1
		C195.3,44.6,194.8,44,194.3,43.5z"/>
	<path class="st1" d="M200.6,43.4c0.8,0,1.5,0.1,2,0.2c0.2,0,0.3,0.1,0.3,0.2l-0.1,0.6c0,0.1,0,0.4,0.1,1c0.1,0.9,0.3,1.8,0.5,2.6
		c0.3-0.2,0.7-0.4,1.1-0.6c0.5-0.3,0.8-0.5,1-0.6c0.5-0.3,0.8-0.6,1-0.8c0.5,0.5,0.8,0.9,1.1,1.4c0.1,0.1,0.1,0.2,0.1,0.3
		c0,0.2-0.1,0.3-0.3,0.3c-0.4,0.1-0.9,0.2-1.4,0.5c-1.5,0.6-2.6,1.2-3.5,1.8c-1.2,0.8-1.8,1.5-1.8,2.3c0,0.5,0.2,0.8,0.6,1
		c0.4,0.2,1,0.3,1.8,0.3c1.8,0,3.3-0.1,4.6-0.4h0.1c0.1,0,0.2,0.1,0.2,0.2c0.1,0.3,0.1,0.8,0.1,1.4c0,0.2-0.1,0.2-0.3,0.2
		c-1.1,0.2-2.6,0.2-4.5,0.2c-2.9,0-4.3-1-4.3-2.9c0-0.8,0.3-1.6,0.9-2.3c0.4-0.5,1.1-1,2-1.6c-0.3-1.1-0.6-2.3-0.8-3.7
		C200.9,44.4,200.7,43.8,200.6,43.4z"/>
	<path class="st1" d="M210.3,47.9c0.4,0,1-0.2,1.8-0.4c1.5-0.5,2.6-0.8,3.4-0.8c1.1,0,1.9,0.4,2.4,1.1c0.5,0.6,0.7,1.5,0.7,2.5
		c0,1.3-0.4,2.5-1.2,3.6c-0.7,0.9-1.6,1.7-2.9,2.4c-0.1,0-0.2,0.1-0.3,0.1s-0.2-0.1-0.4-0.2c-0.4-0.4-0.8-0.6-1.2-0.8
		c1.5-0.7,2.6-1.6,3.3-2.5c0.6-0.8,0.8-1.7,0.8-2.7c0-0.7-0.1-1.1-0.4-1.5c-0.2-0.3-0.6-0.4-1-0.4c-0.7,0-1.5,0.2-2.4,0.6
		c-0.6,0.3-1,0.5-1.3,0.7c-0.1,0.1-0.2,0.2-0.3,0.2s-0.3-0.1-0.4-0.3C210.8,49.1,210.6,48.6,210.3,47.9z M213.2,42.9
		c1.1,0.5,2.6,0.8,4.4,1.1c0.1,0,0.2,0.1,0.2,0.2c0,0,0,0,0,0.1c-0.1,0.6-0.2,1-0.3,1.3c0,0.1-0.1,0.2-0.2,0.2l0,0
		c-1.6-0.3-3-0.6-4.4-1.2c-0.1,0-0.1-0.1-0.1-0.2v-0.1C212.8,44,213,43.5,213.2,42.9z"/>
	<path class="st1" d="M222.8,50.1c0.4,0.2,0.8,0.4,1.2,0.6c0.1,0,0.1,0.1,0.1,0.1v0.1c-0.3,0.4-0.4,0.8-0.4,1.1
		c0,0.5,0.3,0.9,0.9,1.1c0.6,0.2,1.4,0.3,2.6,0.3c1.4,0,2.7-0.1,4.1-0.4c0.1,0,0.1,0,0.1,0c0.1,0,0.2,0.1,0.2,0.2
		c0.1,0.4,0.2,0.9,0.2,1.5l0,0c0,0.1-0.1,0.2-0.3,0.2c-1.3,0.2-2.8,0.4-4.4,0.4c-3.4,0-5.2-1-5.2-3C222,51.7,222.3,51,222.8,50.1z
		 M223.1,44.5c1.1,0.3,2.5,0.4,4.2,0.4c0.9,0,2,0,3.1-0.1l0,0c0.1,0,0.2,0.1,0.2,0.2c0.1,0.4,0.1,0.9,0.1,1.3c0,0.2-0.1,0.3-0.3,0.3
		c-1.2,0.2-2.4,0.7-3.7,1.5c-0.1,0.1-0.2,0.1-0.4,0.1c-0.1,0-0.2,0-0.3-0.1c-0.3-0.2-0.7-0.4-1-0.5c0.8-0.5,1.5-0.9,2-1.2
		c-0.2,0-0.6,0-1.1,0c-1,0-1.9-0.1-2.8-0.3c-0.1,0-0.2-0.1-0.2-0.3C223.1,45.7,223.1,45.2,223.1,44.5z M230.6,43.8l0.8-0.6h0.1
		c0,0,0.1,0,0.1,0.1c0.5,0.4,1,0.9,1.4,1.6V45c0,0,0,0.1-0.1,0.1l-0.6,0.5h-0.1c0,0-0.1,0-0.1-0.1C231.7,44.8,231.2,44.2,230.6,43.8
		z M232,42.8l0.7-0.5h0.1c0,0,0.1,0,0.1,0.1c0.6,0.4,1.1,1,1.4,1.5V44c0,0.1,0,0.1-0.1,0.1l-0.6,0.5h-0.1c0,0-0.1,0-0.1-0.1
		C233.1,43.8,232.6,43.2,232,42.8z"/>
	<path class="st1" d="M240.6,46.2c-0.3-0.7-0.6-1.2-0.7-1.5c-0.2-0.5-0.5-0.9-0.7-1.2c0.9-0.2,1.5-0.2,1.8-0.2s0.5,0.1,0.5,0.3v0.2
		c0,0.1,0,0.2,0,0.2c0.1,0.2,0.1,0.5,0.2,0.8c0.2,0.6,0.4,1,0.5,1.2c1.2-0.3,2.3-0.6,3-0.9c0.1,0,0.1,0,0.1,0s0.1,0,0.2,0.1
		c0.1,0.2,0.2,0.6,0.4,1.2v0.1c0,0.1,0,0.1-0.1,0.2c-0.8,0.3-1.8,0.6-2.9,0.8c0.6,1.1,1.4,2.1,2.3,3.2c0.1,0.1,0.2,0.2,0.4,0.3
		c0.1,0.1,0.1,0.1,0.1,0.2s0,0.2-0.1,0.2c-0.1,0.3-0.3,0.6-0.6,1c-0.1,0.2-0.2,0.2-0.3,0.2c-0.1,0-0.1,0-0.2-0.1
		c-0.3-0.2-0.5-0.3-0.6-0.4c-1-0.5-2-0.8-3.1-0.8c-1.7,0-2.5,0.5-2.5,1.4c0,1.1,1.2,1.6,3.7,1.6c0.8,0,1.6-0.1,2.4-0.2
		c-0.1,0.6-0.2,1.1-0.3,1.6c0,0.1-0.1,0.2-0.3,0.2c-0.4,0.1-1,0.1-1.7,0.1c-1.9,0-3.3-0.3-4.2-0.9c-0.8-0.5-1.2-1.3-1.2-2.2
		c0-0.9,0.4-1.6,1.2-2.2c0.7-0.5,1.6-0.7,2.8-0.7c1,0,1.9,0.1,2.7,0.4c-0.7-0.7-1.4-1.5-1.9-2.7c-1,0.2-1.9,0.3-2.9,0.4
		c-0.7,0-1.2,0.1-1.5,0.1c-0.1,0-0.2-0.1-0.2-0.3c-0.1-0.4-0.2-0.8-0.3-1.3c0.3,0,0.6,0,0.8,0c0.4,0,0.7,0,1.1,0
		C238.9,46.4,239.7,46.3,240.6,46.2z M245.2,43.7l0.8-0.5h0.1c0,0,0.1,0,0.1,0.1c0.5,0.4,0.9,1,1.3,1.7v0.1c0,0,0,0.1-0.1,0.1
		l-0.6,0.4h-0.1c-0.1,0-0.1,0-0.1-0.1C246.2,44.8,245.7,44.2,245.2,43.7z M246.6,42.8l0.8-0.5h0.1c0,0,0.1,0,0.1,0.1
		c0.5,0.5,1,1,1.3,1.6v0.1c0,0.1,0,0.1-0.1,0.1l-0.6,0.4l-0.1,0.1c-0.1,0-0.1,0-0.1-0.1C247.6,43.9,247.2,43.3,246.6,42.8z"/>
	<path class="st1" d="M251.2,44.9c0.8,0.1,1.5,0.3,1.9,0.5c0.2,0.1,0.2,0.2,0.2,0.3c0,0.1,0,0.2-0.1,0.4c-0.1,0.3-0.1,0.8-0.1,1.5
		c0,1.2,0.1,2.4,0.3,3.4c0.3,1.5,0.7,2.2,1.2,2.2c0.3,0,0.5-0.2,0.7-0.5s0.4-0.8,0.7-1.6c0.3,0.4,0.6,0.8,1,1.2
		c0.1,0.1,0.2,0.2,0.2,0.3c0,0.1,0,0.1,0,0.2c-0.3,0.8-0.7,1.4-1.2,1.8c-0.4,0.3-0.9,0.5-1.4,0.5c-0.7,0-1.3-0.4-1.8-1.1
		s-0.8-1.6-1-2.8c-0.2-1.4-0.4-2.9-0.4-4.4C251.4,46.1,251.3,45.5,251.2,44.9z M258.9,47c0.5-0.3,0.9-0.5,1.2-0.7
		c0.1,0,0.1-0.1,0.2-0.1c0,0,0.1,0,0.2,0.1c0.7,0.6,1.4,1.5,1.9,2.5c0.5,0.9,0.8,1.8,1,2.6v0.1c0,0.1-0.1,0.2-0.2,0.2
		c-0.4,0.3-0.8,0.5-1.2,0.6h-0.1c-0.1,0-0.2-0.1-0.2-0.2c-0.3-1.2-0.6-2.2-1.1-3C260.1,48.5,259.6,47.7,258.9,47z"/>
	<path class="st1" d="M270.1,52c0-0.9-0.1-1.5-0.1-1.8c-0.4,0-0.8,0-1.1,0c-0.7,0-1.4,0-2-0.1c-0.1,0-0.2-0.1-0.2-0.2
		c-0.1-0.3-0.1-0.8-0.1-1.3c0.8,0.1,1.6,0.1,2.4,0.1c0.3,0,0.6,0,1,0V47c-0.6,0-1.1,0-1.5,0c-0.8,0-1.5,0-2.1-0.1
		c-0.2,0-0.2-0.1-0.3-0.2c0-0.4-0.1-0.8-0.1-1.3c0.9,0.1,2.2,0.1,3.9,0.1c0-0.3,0-0.8,0-1.5c0-0.4-0.1-0.7-0.2-1
		c0.8,0,1.4,0.1,1.9,0.3c0.1,0,0.2,0.1,0.2,0.3c0,0.1,0,0.1,0,0.2c-0.1,0.3-0.2,0.5-0.2,0.7c0,0.1,0,0.3,0,0.5s0,0.4,0,0.5
		c1.1-0.1,2.2-0.2,3.3-0.5h0.1c0.1,0,0.1,0.1,0.1,0.2c0,0.4,0.1,0.7,0.1,1.1c0,0.1-0.1,0.2-0.2,0.2c-1.1,0.2-2.2,0.3-3.5,0.4v1.7
		c0.5,0,1.4-0.2,2.9-0.4c0.1,0,0.1,0,0.1,0c0.1,0,0.1,0,0.1,0.1c0,0.6,0,1,0,1.2c0,0.1-0.1,0.2-0.2,0.2c-1,0.2-2,0.3-2.9,0.4
		c0,1,0.1,1.7,0.1,2.1c1.4,0.4,2.8,1,4,1.8c0.1,0.1,0.1,0.1,0.1,0.2v0.1c-0.2,0.4-0.4,0.8-0.7,1.1c-0.1,0.1-0.1,0.1-0.2,0.1
		s-0.1,0-0.2-0.1c-0.9-0.7-1.9-1.3-3-1.7c0,0.8-0.3,1.5-0.9,1.8c-0.5,0.3-1.2,0.5-2.2,0.5s-1.8-0.2-2.4-0.7
		c-0.5-0.4-0.7-0.8-0.7-1.4c0-0.7,0.3-1.2,0.9-1.6c0.5-0.4,1.2-0.5,2.1-0.5C269.2,52,269.7,52,270.1,52z M270.2,53.4
		c-0.5-0.1-1-0.2-1.4-0.2c-1.1,0-1.6,0.3-1.6,0.8c0,0.4,0.5,0.7,1.5,0.7c0.7,0,1.1-0.1,1.4-0.4C270.1,54.1,270.2,53.9,270.2,53.4z"
		/>
	<path class="st1" d="M279.1,43.5c1,0.1,1.6,0.2,1.9,0.3c0.2,0.1,0.4,0.2,0.4,0.3c0,0.1-0.1,0.2-0.2,0.5c-0.1,0.2-0.1,0.8-0.2,1.8
		c-0.2,2.3-0.2,4.2-0.2,5.8c0,0.8,0.1,1.3,0.3,1.6c0.2,0.2,0.5,0.3,1.1,0.3c0.8,0,1.7-0.2,2.6-0.7s1.8-1.2,2.6-2
		c0.1,0.5,0.2,1,0.3,1.4c0.1,0.2,0.1,0.3,0.1,0.4s-0.1,0.3-0.3,0.5c-0.8,0.8-1.8,1.4-2.9,1.8c-0.9,0.3-1.8,0.5-2.8,0.5
		s-1.8-0.3-2.2-0.8c-0.4-0.5-0.6-1.2-0.6-2.3c0-0.9,0.1-3.1,0.2-6.5c0-0.5,0-0.9,0-1C279.3,44.5,279.2,43.9,279.1,43.5z"/>
	<path class="st1" d="M294.8,45.9c0.6-0.1,1.3-0.3,2.1-0.5h0.1c0.1,0,0.1,0.1,0.2,0.2c0.1,0.4,0.1,0.8,0.1,1.1c0,0,0,0,0,0.1
		s-0.1,0.2-0.2,0.2c-0.9,0.2-1.7,0.4-2.6,0.6c-1,3.2-1.9,5.9-2.7,8.1c0,0.1-0.1,0.2-0.2,0.2h-0.1c-0.5-0.2-0.9-0.4-1.2-0.6
		c-0.1-0.1-0.1-0.1-0.1-0.2V55c1-2.4,1.9-4.8,2.6-7.1c-1.1,0.1-1.9,0.2-2.6,0.2c-0.2,0-0.3-0.1-0.3-0.2c-0.1-0.3-0.1-0.7-0.2-1.4
		c0.2,0,0.6,0.1,1.1,0.1c0.8,0,1.6-0.1,2.4-0.2c0.1-0.5,0.2-1.1,0.4-1.9c0.1-0.4,0.1-0.9,0.1-1.4c0.9,0.1,1.5,0.3,1.9,0.4
		c0.1,0,0.2,0.1,0.2,0.2s0,0.2-0.1,0.2c-0.2,0.3-0.3,0.5-0.3,0.6c-0.1,0.2-0.1,0.5-0.2,0.8C294.8,45.6,294.8,45.8,294.8,45.9z
		 M295,52.8c0.6-0.2,1-0.2,1.3-0.2c0.1,0,0.2,0.1,0.2,0.2c0.1,0.6,0.3,0.9,0.7,1.2c0.3,0.2,0.9,0.3,1.6,0.3c0.6,0,1.4-0.1,2.5-0.2
		c0,0,0,0,0.1,0s0.1,0,0.1,0.1c0.1,0.5,0.1,1,0.1,1.3v0.1c0,0.1-0.1,0.2-0.2,0.2c-0.8,0.1-1.4,0.2-2,0.2c-1,0-1.9-0.1-2.4-0.3
		c-0.5-0.2-0.9-0.4-1.2-0.7C295.3,54.5,295.1,53.8,295,52.8z M296.2,50c0-0.7-0.1-1.2-0.1-1.4c0-0.1,0-0.2,0.1-0.2
		c0,0,0.1-0.1,0.2-0.1c1.1-0.2,2.1-0.3,2.9-0.3c0.6,0,1.2,0,1.8,0.1c0.1,0,0.2,0,0.2,0.1c0,0,0,0.1,0,0.2c0,0.2,0,0.4,0,0.7
		c0,0.2,0,0.3,0,0.5s-0.1,0.3-0.2,0.3H301c-0.6-0.1-1.2-0.2-1.9-0.2S297.3,49.8,296.2,50z"/>
	<path class="st1" d="M307.7,43.4l-0.4,8.9h-1.5l-0.4-8.9H307.7z M305.4,53.8h2.1v2h-2.1V53.8z"/>
</g>
<g id="グループ_817" transform="translate(522.521 1004.856)">
	<path id="パス_368-5" class="st5" d="M-376.3-933.8l-0.3,13c0,0.3,0.5,0.4,0.8,0.4c0.1,0,0.2,0,0.3-0.1c0.4-0.1,0.7-0.6,1.3-1.2
		l10.7-12.1l158.7-0.1c7.6,0,13.7-6.2,13.7-13.7v-15.5c0-7.6-6.2-13.7-13.7-13.7l-171,0.1c-7.6,0-13.7,6.2-13.7,13.7v15.5
		C-389.5-940.1-383.7-934.1-376.3-933.8z M-387.5-963.1c0-6.5,5.2-11.7,11.7-11.7l171-0.1c6.5,0,11.7,5.2,11.7,11.7v15.5
		c0,6.5-5.2,11.7-11.7,11.7l-159.7,0.1c-0.6,0-1.8,1.8-1.8,1.8l-8.4,10.3l0.6-11.9c0.1-0.3-1.3-0.2-1.6-0.2
		c-6.5,0-11.7-5.2-11.7-11.7L-387.5-963.1z"/>
</g>
</svg>
