<?xml version="1.0" encoding="utf-8"?>
<!-- Generator: Adobe Illustrator 25.2.3, SVG Export Plug-In . SVG Version: 6.00 Build 0)  -->
<svg version="1.1" id="レイヤー_1" xmlns="http://www.w3.org/2000/svg" xmlns:xlink="http://www.w3.org/1999/xlink" x="0px"
	 y="0px" viewBox="0 0 350 190" style="enable-background:new 0 0 350 190;" xml:space="preserve">
<style type="text/css">
	.st0{fill:#FFFFFF;}
	.st1{fill:#00AEBD;}
	.st2{fill:#A2D5D9;}
	.st3{fill:#555353;}
	.st4{fill:none;}
	.st5{enable-background:new    ;}
	.st6{fill:#555353;stroke:#555353;}
</style>
<rect class="st0" width="350" height="190"/>
<g id="グループ_696" transform="translate(-2906.383 -83.851)">
	<path id="パス_450" class="st1" d="M3106.9,196.5v-5.3h-17v5.3h-3.6v-5.3h-4.8l-3.8,64.9h41.4l-3.8-64.9h-4.8v5.3H3106.9z"/>
	<path id="パス_451" class="st2" d="M3171.3,214.9h-9.4v5.3h-3.6v-5.3h-27.9v5.3h-3.6v-5.3h-6.4l2.4,41.1h54.8L3171.3,214.9z"/>
	<path id="パス_452" class="st3" d="M3074.5,259.1c0.3,0.4,0.8,0.6,1.3,0.6h103.9c1,0,1.8-0.8,1.8-1.8c0-0.1,0-0.2,0-0.3
		l-6.8-44.7c-0.1-0.9-0.9-1.5-1.8-1.5h-11v-1c0-9.7-7.9-17.6-17.6-17.6s-17.6,7.9-17.6,17.6v1h-6.6l-1.3-22.1
		c-0.1-1-0.8-1.7-1.8-1.7h-6.5v-7.1c0-6.7-5.4-12.1-12.1-12.1s-12.1,5.4-12.1,12.1l0,0v7.1h-6.5c-1,0-1.8,0.7-1.8,1.7l-4,68.5
		C3073.9,258.3,3074.1,258.8,3074.5,259.1z M3130.4,210.3c0-7.7,6.2-13.9,13.9-13.9s13.9,6.2,13.9,13.9v1h-27.9v-1H3130.4z
		 M3126.7,214.9v5.3h3.6v-5.3h27.9v5.3h3.6v-5.3h9.4l6.2,41.1h-54.8l-2.4-41.1H3126.7z M3089.9,180.4c0-4.7,3.8-8.5,8.5-8.5
		s8.5,3.8,8.5,8.5v7.1h-17V180.4z M3081.4,191.2h4.8v5.3h3.6v-5.3h17v5.3h3.6v-5.3h4.8l3.8,64.9h-41.4L3081.4,191.2z"/>
</g>
<g id="グループ_678" transform="translate(-3878.021 -1992.081)">
	<path id="パス_348" class="st1" d="M3985.3,2053.6c-2.3-5.6-8.5-9.4-13.3-11.6c-8-3.6-19.9-4.7-27.1,1.6c-2.1,2.1-4,4.5-5.4,7.2
		c-0.4,0.8-1.3,1.2-2.1,0.9c-2.3-0.7-5.5,1.2-7.3,3.3c-1.8,2.3-2.9,5.1-3.1,8.1c-0.5,4.1,0.7,7.4,2.4,11.3c0.6-0.3,1.1-0.6,1.8-0.8
		c0.2-0.1,0.4-0.1,0.6-0.1c2.4,0,4.5-1.7,4.9-4.1l2-11.2c0.2-0.9,0.9-1.5,1.8-1.5h33.2c0.9,0,1.6,0.6,1.8,1.4l2.6,11.5
		c0.5,2.2,2.4,3.8,4.6,3.9h0.6c0.2,0,0.3,0,0.5,0.1c0.5,0.1,0.9,0.3,1.3,0.5C3986,2069.6,3987.8,2059.4,3985.3,2053.6z"/>
	<path id="パス_349" class="st0" d="M3953.6,2131.7l-10.6-9.3l-2.5,0.5l5.9,12.4L3953.6,2131.7z"/>
	<path id="パス_350" class="st4" d="M4002.2,2128.8l-25.3-5.2l-7,15c-0.2,0.5-0.6,0.8-1.1,1c-0.2,0.1-0.4,0.1-0.6,0.1
		c-0.3,0-0.6-0.1-0.8-0.2l-10.5-5.3l-10.5,5.3c-0.3,0.1-0.5,0.2-0.8,0.2c-0.2,0-0.4,0-0.6-0.1c-0.5-0.2-0.9-0.5-1.1-1l-7-15
		l-25.3,5.2c-6.5,1.3-11.1,7-11.2,13.7v22.8h113v-22.8C4013.4,2135.9,4008.7,2130.2,4002.2,2128.8z M3956.7,2162.5c-1.1,0-2-0.9-2-2
		s0.9-2,2-2s2,0.9,2,2S3957.8,2162.5,3956.7,2162.5z M3956.7,2143.7c-1.1,0-2-0.9-2-2s0.9-2,2-2s2,0.9,2,2
		S3957.8,2143.7,3956.7,2143.7z"/>
	<path id="パス_352" class="st0" d="M3973.2,2122.9l-2.5-0.5l-10.6,9.3l7.2,3.7L3973.2,2122.9z"/>
	<path id="パス_354" class="st3" d="M3958.3,2090l2.6-2.6l-3.2-3.2l3.2-3.2l-2.6-2.6l-4.5,4.5c-0.7,0.7-0.7,1.9,0,2.6l0,0
		L3958.3,2090z"/>
	<circle id="楕円形_44" class="st3" cx="3947.1" cy="2080.1" r="2.8"/>
	<circle id="楕円形_45" class="st3" cx="3967.7" cy="2080.1" r="2.8"/>
	<path id="パス_355" class="st3" d="M4003,2125.2l-30.5-6.2v-12.2c1-0.7,1.9-1.4,2.7-2.3c3.6-3.6,6.3-8.1,7.7-13.1
		c1.6-0.5,3.1-1.3,4.4-2.4c2.9-2.6,4-6.8,2.6-10c-0.4-0.9-1-1.8-1.7-2.5l0,0c0.9-3.8,3.7-16.7,0.6-24.3c-2.2-5.4-7.3-9.9-15.2-13.5
		c-9.3-4.2-22.5-5.2-31.1,2.2c-2.2,2.1-4.1,4.5-5.6,7.1c-3.6-0.2-7.4,2.1-9.6,4.6c-2.3,2.9-3.7,6.4-4,10.1c-0.6,5.3,0.9,9.4,3.1,14
		c-0.6,0.7-1.2,1.5-1.6,2.3c-1.4,3.2-0.4,7.4,2.6,10c1.3,1.1,2.8,1.9,4.4,2.4c1.4,4.9,4.1,9.4,7.7,13.1c0.8,0.8,1.8,1.6,2.7,2.3v12
		l-31.5,6.4c-8.2,1.7-14.1,8.9-14.1,17.3v24.6c0,1,0.8,1.8,1.8,1.8l0,0h116.7c1,0,1.8-0.8,1.8-1.8l0,0v-24.6
		C4017.1,2134.1,4011.2,2126.9,4003,2125.2z M3973.2,2122.9l-5.9,12.4l-7.2-3.7l10.6-9.3L3973.2,2122.9z M3927,2063.1
		c0.2-2.9,1.3-5.7,3.1-8.1c1.8-2.1,5-3.9,7.3-3.3c0.8,0.2,1.7-0.1,2.1-0.9c1.4-2.7,3.2-5.1,5.4-7.2c7.3-6.3,19.2-5.3,27.1-1.6
		c4.8,2.2,11,6,13.3,11.6c2.4,5.9,0.6,16-0.4,20.6c-0.4-0.2-0.9-0.4-1.3-0.5c-0.2,0-0.3-0.1-0.5-0.1h-0.6c-2.2-0.1-4.1-1.7-4.6-3.9
		l-2.6-11.5c-0.2-0.8-0.9-1.4-1.8-1.4h-33.2c-0.9,0-1.7,0.6-1.8,1.5l-2,11.2c-0.4,2.4-2.5,4.1-4.9,4.1c-0.2,0-0.4,0-0.6,0.1
		c-0.6,0.2-1.2,0.5-1.8,0.8C3927.6,2070.5,3926.5,2067.2,3927,2063.1L3927,2063.1z M3942.1,2101.9c-3.4-3.4-5.8-7.7-7-12.4
		c-0.2-0.6-0.7-1.1-1.3-1.3c-1.4-0.3-2.8-1-3.9-1.9c-1.7-1.5-2.4-4-1.7-5.7c0.3-0.5,0.6-1,1-1.4c0.8-0.8,1.8-1.4,2.9-1.8
		c4.1-0.1,7.5-3.1,8.2-7.2l1.7-9.7h30.1l2.2,10.1c0.9,3.8,4.1,6.6,8,6.8h0.3c1.1,0.4,2.1,1,2.9,1.8c0.4,0.4,0.8,0.9,1,1.4
		c0.8,1.7,0.1,4.2-1.7,5.7c-1.1,0.9-2.5,1.6-3.9,1.9c-0.6,0.2-1.2,0.7-1.3,1.3c-1.2,4.7-3.6,9-7,12.4
		C3964.1,2110.1,3950.6,2110.1,3942.1,2101.9L3942.1,2101.9z M3957.3,2111.8h0.1c4-0.1,7.8-1,11.4-2.8v10.1l-11.9,10.5l-10.9-9.6
		v-11C3949.5,2110.7,3953.4,2111.6,3957.3,2111.8L3957.3,2111.8z M3943.1,2122.4l10.6,9.3l-7.2,3.7l-5.9-12.4L3943.1,2122.4z
		 M4013.4,2165.2h-113v-22.8c0-6.6,4.7-12.3,11.2-13.6l25.3-5.2l7,15c0.4,0.9,1.5,1.3,2.5,0.9l0,0l10.5-5.3l10.5,5.3
		c0.9,0.5,2,0.1,2.5-0.8l0,0l7-15l25.3,5.2c6.5,1.3,11.1,7,11.2,13.6V2165.2z"/>
	<circle id="楕円形_46" class="st1" cx="3956.7" cy="2141.7" r="2"/>
	<circle id="楕円形_47" class="st1" cx="3956.7" cy="2160.5" r="2"/>
	<path id="パス_357" class="st3" d="M3966.6,2094.7c0-1-0.8-1.8-1.8-1.8h-14.7c-1,0-1.8,0.8-1.8,1.8c0,5.1,4.1,9.2,9.2,9.1
		C3962.5,2103.9,3966.5,2099.8,3966.6,2094.7L3966.6,2094.7z M3952.2,2096.6h10.4c-1,2.9-4.2,4.4-7,3.3
		C3954,2099.4,3952.8,2098.1,3952.2,2096.6z"/>
</g>
<g class="st5">
	<path class="st1" d="M160.5,43.1c0.8,0.1,1.4,0.2,1.8,0.3c0.2,0.1,0.3,0.2,0.3,0.3c0,0.1,0,0.2-0.1,0.2c-0.1,0.1-0.2,0.3-0.2,0.5
		c0,0.1,0,0.2-0.1,0.4c0,0.1,0,0.3-0.1,0.3c1.3-0.1,2.6-0.3,3.9-0.6h0.1c0.1,0,0.1,0.1,0.2,0.2c0.1,0.4,0.1,0.8,0.1,1
		s-0.1,0.3-0.3,0.3c-1.5,0.3-2.9,0.5-4.3,0.6c-0.1,0.6-0.1,1.1-0.1,1.5c0.6-0.2,1.4-0.3,2.3-0.3c0.2-0.4,0.2-0.8,0.2-1.1
		c0.6,0.2,1.1,0.4,1.3,0.6c0.2,0.1,0.3,0.2,0.3,0.3c0,0.1,0,0.1-0.1,0.2c0,0-0.1,0.1-0.2,0.3c1,0.3,1.8,0.8,2.4,1.5
		c0.5,0.6,0.7,1.3,0.7,2.2c0,1.1-0.4,2.1-1.3,2.8c-0.7,0.6-1.7,1.1-2.8,1.4c-0.1,0-0.2,0-0.2,0c-0.2,0-0.3-0.1-0.4-0.3
		s-0.4-0.5-0.9-0.9c0.6-0.1,1.1-0.3,1.7-0.5c0.5-0.2,0.8-0.4,1.1-0.6c0.8-0.6,1.2-1.3,1.2-2.2c0-0.6-0.2-1.1-0.6-1.5
		c-0.3-0.3-0.7-0.5-1.2-0.7c-0.8,1.5-1.7,2.8-2.8,3.9c0,0.1,0.1,0.3,0.3,0.7c0,0.1,0,0.1,0,0.2s-0.1,0.1-0.2,0.2
		c-0.3,0.2-0.6,0.4-0.9,0.5c-0.1,0-0.1,0.1-0.1,0.1s-0.1,0-0.2-0.1c-0.1-0.2-0.2-0.4-0.2-0.6c-1,0.7-1.9,1.1-2.6,1.1
		c-0.5,0-1-0.2-1.3-0.6c-0.3-0.3-0.4-0.8-0.4-1.3c0-1,0.4-1.9,1.2-2.9c0.6-0.7,1.4-1.3,2.3-1.8c0-0.5,0-1.2,0.1-1.9
		c-0.4,0-0.7,0-1,0h-0.5c-0.5,0-0.7,0-0.9,0s-0.3-0.1-0.3-0.3c0-0.1,0-0.3,0-0.6c0-0.3,0-0.5,0-0.6c0.5,0.1,1,0.1,1.6,0.1
		c0.1,0,0.5,0,1.3,0c0.1-0.7,0.1-1.3,0.1-1.6C160.6,43.6,160.5,43.3,160.5,43.1z M160.2,50.2c-0.6,0.4-1.1,0.9-1.5,1.5
		c-0.3,0.5-0.5,1-0.5,1.4c0,0.2,0.1,0.3,0.2,0.4c0.1,0.1,0.2,0.1,0.3,0.1c0.4,0,1-0.3,1.7-0.9C160.3,51.7,160.2,50.9,160.2,50.2z
		 M161.8,51.8c0.7-0.8,1.3-1.7,1.7-2.6c-0.6,0-1.3,0.1-1.9,0.3C161.7,50.4,161.7,51.1,161.8,51.8z"/>
	<path class="st1" d="M172.4,43.3c0.7,0.1,1.3,0.3,1.6,0.5c0.2,0.1,0.3,0.2,0.3,0.3c0,0.1,0,0.2-0.1,0.2c-0.1,0.1-0.2,0.3-0.3,0.7
		c-0.1,0.7-0.3,1.6-0.4,2.9c0,0.7-0.1,1.1-0.1,1.3c0,0.1,0,0.3,0,0.4c0.4-0.6,0.7-1.3,1-1.9c0.1,0.4,0.3,0.7,0.5,1
		c0.1,0.1,0.1,0.2,0.1,0.2c0,0.1,0,0.2-0.1,0.4c-0.5,0.9-0.8,1.5-0.9,1.9c0,0.1-0.1,0.3-0.1,0.5c0,0.1-0.1,0.2-0.2,0.2
		c-0.2,0-0.6,0.1-1.2,0.2c-0.1,0-0.2-0.1-0.2-0.2c-0.3-0.8-0.4-1.8-0.4-3c0-0.6,0.1-1.9,0.4-3.7C172.4,44.3,172.4,43.8,172.4,43.3z
		 M177.2,43.4c0.8,0,1.4,0.1,1.7,0.2c0.2,0.1,0.3,0.1,0.3,0.3V44c0,0.1,0,0.4,0,0.7c0.1,1.9,0.2,3.2,0.2,3.9c0,2.3-0.4,4-1.1,5.2
		c-0.6,0.9-1.4,1.7-2.5,2.4c-0.1,0.1-0.2,0.1-0.3,0.1s-0.2-0.1-0.3-0.2c-0.4-0.3-0.8-0.6-1.3-0.7c1.2-0.7,2-1.3,2.6-2
		c0.5-0.7,0.8-1.4,1-2.1s0.3-1.6,0.3-2.7c0-1.3-0.1-2.5-0.2-3.6C177.4,44.4,177.3,43.8,177.2,43.4z"/>
	<path class="st1" d="M186.2,46.9c0.2-0.5,0.3-1.2,0.4-1.9c0.1-0.6,0.2-1.2,0.2-1.7c0.7,0.2,1.3,0.3,1.8,0.5c0.2,0,0.2,0.1,0.2,0.3
		c0,0.1,0,0.2-0.1,0.2c-0.1,0.2-0.2,0.3-0.3,0.6c-0.1,0.2-0.2,0.5-0.3,1c-0.1,0.4-0.2,0.7-0.3,0.8c0.4,0,0.8-0.1,1.2-0.1
		c1.4,0,2.1,1,2.1,2.9c0,0.9-0.1,1.8-0.2,2.7c-0.1,0.8-0.3,1.5-0.6,2c-0.4,0.9-1.1,1.4-2,1.4c-0.7,0-1.2-0.1-1.6-0.2
		c-0.2-0.1-0.3-0.2-0.3-0.4c-0.1-0.6-0.2-1.1-0.3-1.4c0.6,0.3,1.1,0.4,1.7,0.4c0.3,0,0.5-0.1,0.6-0.2s0.2-0.3,0.4-0.6
		c0.4-1,0.6-2.3,0.6-3.7c0-0.6-0.1-0.9-0.2-1.1c-0.1-0.2-0.3-0.3-0.7-0.3c-0.3,0-0.8,0-1.3,0.1c-1,2.9-2,5.2-3,7.1
		c-0.1,0.1-0.1,0.2-0.2,0.2c0,0-0.1,0-0.2-0.1c-0.5-0.2-0.8-0.4-1-0.7c-0.1-0.1-0.1-0.2-0.1-0.2c0-0.1,0-0.1,0.1-0.2
		c1.2-2.1,2.1-4,2.7-5.9c-0.3,0.1-0.8,0.1-1.5,0.3c-0.3,0.1-0.5,0.1-0.8,0.2c-0.1,0-0.1,0-0.2,0c-0.1,0-0.2-0.1-0.3-0.2
		c-0.1-0.4-0.3-0.9-0.5-1.5c0.6,0,1.2,0,2-0.1C185,47.1,185.6,47,186.2,46.9z M191.4,46.8c0.6-0.4,1-0.6,1.2-0.8h0.1
		c0.1,0,0.1,0,0.2,0.1c1.1,1.1,2,2.3,2.5,3.6c0,0.1,0,0.1,0,0.1c0,0.1,0,0.1-0.1,0.2c-0.3,0.3-0.7,0.5-1.1,0.7c-0.1,0-0.1,0-0.2,0
		c-0.1,0-0.2-0.1-0.2-0.2C193.2,49.1,192.4,47.8,191.4,46.8z M192.2,44.5l0.8-0.6h0.1c0,0,0.1,0,0.1,0.1c0.5,0.4,1,0.9,1.4,1.6v0.1
		c0,0,0,0.1-0.1,0.1l-0.6,0.5l-0.1,0.1c0,0-0.1,0-0.1-0.1C193.2,45.5,192.7,45,192.2,44.5z M193.6,43.5l0.7-0.5h0.1
		c0,0,0.1,0,0.1,0.1c0.6,0.4,1,1,1.4,1.6v0.1c0,0.1,0,0.1-0.1,0.1l-0.6,0.5l-0.1,0.1c0,0-0.1,0-0.1-0.1
		C194.7,44.6,194.2,44,193.6,43.5z"/>
	<path class="st1" d="M199.9,43.4c0.8,0,1.5,0.1,2,0.2c0.2,0,0.3,0.1,0.3,0.2l-0.1,0.6c0,0.1,0,0.4,0.1,1c0.1,0.9,0.3,1.8,0.5,2.6
		c0.3-0.2,0.7-0.4,1.1-0.6c0.5-0.3,0.8-0.5,1-0.6c0.5-0.3,0.8-0.6,1-0.8c0.5,0.5,0.8,0.9,1.1,1.4c0.1,0.1,0.1,0.2,0.1,0.3
		c0,0.2-0.1,0.3-0.3,0.3c-0.4,0.1-0.9,0.2-1.4,0.5c-1.5,0.6-2.6,1.2-3.5,1.8c-1.2,0.8-1.8,1.5-1.8,2.3c0,0.5,0.2,0.8,0.6,1
		c0.4,0.2,1,0.3,1.8,0.3c1.8,0,3.3-0.1,4.6-0.4h0.1c0.1,0,0.2,0.1,0.2,0.2c0.1,0.3,0.1,0.8,0.1,1.4c0,0.2-0.1,0.2-0.3,0.2
		c-1.1,0.2-2.6,0.2-4.5,0.2c-2.9,0-4.3-1-4.3-2.9c0-0.8,0.3-1.6,0.9-2.3c0.4-0.5,1.1-1,2-1.6c-0.3-1.1-0.6-2.3-0.8-3.7
		C200.2,44.4,200,43.8,199.9,43.4z"/>
	<path class="st1" d="M209.6,47.9c0.4,0,1-0.2,1.8-0.4c1.5-0.5,2.6-0.8,3.4-0.8c1.1,0,1.9,0.4,2.4,1.1c0.5,0.6,0.7,1.5,0.7,2.5
		c0,1.3-0.4,2.5-1.2,3.6c-0.7,0.9-1.6,1.7-2.9,2.4c-0.1,0-0.2,0.1-0.3,0.1s-0.2-0.1-0.4-0.2c-0.4-0.4-0.8-0.6-1.2-0.8
		c1.5-0.7,2.6-1.6,3.3-2.5c0.6-0.8,0.8-1.7,0.8-2.7c0-0.7-0.1-1.1-0.4-1.5c-0.2-0.3-0.6-0.4-1-0.4c-0.7,0-1.5,0.2-2.4,0.6
		c-0.6,0.3-1,0.5-1.3,0.7c-0.1,0.1-0.2,0.2-0.3,0.2s-0.3-0.1-0.4-0.3C210.2,49.1,209.9,48.6,209.6,47.9z M212.5,42.9
		c1.1,0.5,2.6,0.8,4.4,1.1c0.1,0,0.2,0.1,0.2,0.2c0,0,0,0,0,0.1c-0.1,0.6-0.2,1-0.3,1.3c0,0.1-0.1,0.2-0.2,0.2l0,0
		c-1.6-0.3-3-0.6-4.4-1.2c-0.1,0-0.1-0.1-0.1-0.2v-0.1C212.2,44,212.3,43.5,212.5,42.9z"/>
	<path class="st1" d="M222.1,50.1c0.4,0.2,0.8,0.4,1.2,0.6c0.1,0,0.1,0.1,0.1,0.1v0.1c-0.3,0.4-0.4,0.8-0.4,1.1
		c0,0.5,0.3,0.9,0.9,1.1c0.6,0.2,1.4,0.3,2.6,0.3c1.4,0,2.7-0.1,4.1-0.4c0.1,0,0.1,0,0.1,0c0.1,0,0.2,0.1,0.2,0.2
		c0.1,0.4,0.2,0.9,0.2,1.5l0,0c0,0.1-0.1,0.2-0.3,0.2c-1.3,0.2-2.8,0.4-4.4,0.4c-3.4,0-5.2-1-5.2-3C221.3,51.7,221.6,51,222.1,50.1z
		 M222.4,44.5c1.1,0.3,2.5,0.4,4.2,0.4c0.9,0,2,0,3.1-0.1l0,0c0.1,0,0.2,0.1,0.2,0.2c0.1,0.4,0.1,0.9,0.1,1.3c0,0.2-0.1,0.3-0.3,0.3
		c-1.2,0.2-2.4,0.7-3.7,1.5c-0.1,0.1-0.2,0.1-0.4,0.1c-0.1,0-0.2,0-0.3-0.1c-0.3-0.2-0.7-0.4-1-0.5c0.8-0.5,1.5-0.9,2-1.2
		c-0.2,0-0.6,0-1.1,0c-1,0-1.9-0.1-2.8-0.3c-0.1,0-0.2-0.1-0.2-0.3C222.4,45.7,222.4,45.2,222.4,44.5z M229.9,43.8l0.8-0.6h0.1
		c0,0,0.1,0,0.1,0.1c0.5,0.4,1,0.9,1.4,1.6V45c0,0,0,0.1-0.1,0.1l-0.6,0.5h-0.1c0,0-0.1,0-0.1-0.1C231,44.8,230.5,44.2,229.9,43.8z
		 M231.3,42.8l0.7-0.5h0.1c0,0,0.1,0,0.1,0.1c0.6,0.4,1.1,1,1.4,1.5V44c0,0.1,0,0.1-0.1,0.1l-0.6,0.5h-0.1c0,0-0.1,0-0.1-0.1
		C232.4,43.8,231.9,43.2,231.3,42.8z"/>
	<path class="st1" d="M239.9,46.2c-0.3-0.7-0.6-1.2-0.7-1.5c-0.2-0.5-0.5-0.9-0.7-1.2c0.9-0.2,1.5-0.2,1.8-0.2s0.5,0.1,0.5,0.3v0.2
		c0,0.1,0,0.2,0,0.2c0.1,0.2,0.1,0.5,0.2,0.8c0.2,0.6,0.4,1,0.5,1.2c1.2-0.3,2.3-0.6,3-0.9c0.1,0,0.1,0,0.1,0s0.1,0,0.2,0.1
		c0.1,0.2,0.2,0.6,0.4,1.2v0.1c0,0.1,0,0.1-0.1,0.2c-0.8,0.3-1.8,0.6-2.9,0.8c0.6,1.1,1.4,2.1,2.3,3.2c0.1,0.1,0.2,0.2,0.4,0.3
		c0.1,0.1,0.1,0.1,0.1,0.2s0,0.2-0.1,0.2c-0.1,0.3-0.3,0.6-0.6,1c-0.1,0.2-0.2,0.2-0.3,0.2c-0.1,0-0.1,0-0.2-0.1
		c-0.3-0.2-0.5-0.3-0.6-0.4c-1-0.5-2-0.8-3.1-0.8c-1.7,0-2.5,0.5-2.5,1.4c0,1.1,1.2,1.6,3.7,1.6c0.8,0,1.6-0.1,2.4-0.2
		c-0.1,0.6-0.2,1.1-0.3,1.6c0,0.1-0.1,0.2-0.3,0.2c-0.4,0.1-1,0.1-1.7,0.1c-1.9,0-3.3-0.3-4.2-0.9c-0.8-0.5-1.2-1.3-1.2-2.2
		c0-0.9,0.4-1.6,1.2-2.2c0.7-0.5,1.6-0.7,2.8-0.7c1,0,1.9,0.1,2.7,0.4c-0.7-0.7-1.4-1.5-1.9-2.7c-1,0.2-1.9,0.3-2.9,0.4
		c-0.7,0-1.2,0.1-1.5,0.1c-0.1,0-0.2-0.1-0.2-0.3c-0.1-0.4-0.2-0.8-0.3-1.3c0.3,0,0.6,0,0.8,0c0.4,0,0.7,0,1.1,0
		C238.3,46.4,239.1,46.3,239.9,46.2z M244.5,43.7l0.8-0.5h0.1c0,0,0.1,0,0.1,0.1c0.5,0.4,0.9,1,1.3,1.7v0.1c0,0,0,0.1-0.1,0.1
		l-0.6,0.4H246c-0.1,0-0.1,0-0.1-0.1C245.5,44.8,245,44.2,244.5,43.7z M245.9,42.8l0.8-0.5h0.1c0,0,0.1,0,0.1,0.1
		c0.5,0.5,1,1,1.3,1.6v0.1c0,0.1,0,0.1-0.1,0.1l-0.6,0.4l-0.1,0.1c-0.1,0-0.1,0-0.1-0.1C246.9,43.9,246.5,43.3,245.9,42.8z"/>
	<path class="st1" d="M250.5,44.9c0.8,0.1,1.5,0.3,1.9,0.5c0.2,0.1,0.2,0.2,0.2,0.3c0,0.1,0,0.2-0.1,0.4c-0.1,0.3-0.1,0.8-0.1,1.5
		c0,1.2,0.1,2.4,0.3,3.4c0.3,1.5,0.7,2.2,1.2,2.2c0.3,0,0.5-0.2,0.7-0.5s0.4-0.8,0.7-1.6c0.3,0.4,0.6,0.8,1,1.2
		c0.1,0.1,0.2,0.2,0.2,0.3c0,0.1,0,0.1,0,0.2c-0.3,0.8-0.7,1.4-1.2,1.8c-0.4,0.3-0.9,0.5-1.4,0.5c-0.7,0-1.3-0.4-1.8-1.1
		s-0.8-1.6-1-2.8c-0.2-1.4-0.4-2.9-0.4-4.4C250.7,46.1,250.6,45.5,250.5,44.9z M258.2,47c0.5-0.3,0.9-0.5,1.2-0.7
		c0.1,0,0.1-0.1,0.2-0.1c0,0,0.1,0,0.2,0.1c0.7,0.6,1.4,1.5,1.9,2.5c0.5,0.9,0.8,1.8,1,2.6v0.1c0,0.1-0.1,0.2-0.2,0.2
		c-0.4,0.3-0.8,0.5-1.2,0.6h-0.1c-0.1,0-0.2-0.1-0.2-0.2c-0.3-1.2-0.6-2.2-1.1-3C259.5,48.5,258.9,47.7,258.2,47z"/>
	<path class="st1" d="M269.5,52c0-0.9-0.1-1.5-0.1-1.8c-0.4,0-0.8,0-1.1,0c-0.7,0-1.4,0-2-0.1c-0.1,0-0.2-0.1-0.2-0.2
		c-0.1-0.3-0.1-0.8-0.1-1.3c0.8,0.1,1.6,0.1,2.4,0.1c0.3,0,0.6,0,1,0V47c-0.6,0-1.1,0-1.5,0c-0.8,0-1.5,0-2.1-0.1
		c-0.2,0-0.2-0.1-0.3-0.2c0-0.4-0.1-0.8-0.1-1.3c0.9,0.1,2.2,0.1,3.9,0.1c0-0.3,0-0.8,0-1.5c0-0.4-0.1-0.7-0.2-1
		c0.8,0,1.4,0.1,1.9,0.3c0.1,0,0.2,0.1,0.2,0.3c0,0.1,0,0.1,0,0.2c-0.1,0.3-0.2,0.5-0.2,0.7c0,0.1,0,0.3,0,0.5s0,0.4,0,0.5
		c1.1-0.1,2.2-0.2,3.3-0.5h0.1c0.1,0,0.1,0.1,0.1,0.2c0,0.4,0.1,0.7,0.1,1.1c0,0.1-0.1,0.2-0.2,0.2c-1.1,0.2-2.2,0.3-3.5,0.4v1.7
		c0.5,0,1.4-0.2,2.9-0.4c0.1,0,0.1,0,0.1,0c0.1,0,0.1,0,0.1,0.1c0,0.6,0,1,0,1.2c0,0.1-0.1,0.2-0.2,0.2c-1,0.2-2,0.3-2.9,0.4
		c0,1,0.1,1.7,0.1,2.1c1.4,0.4,2.8,1,4,1.8c0.1,0.1,0.1,0.1,0.1,0.2v0.1c-0.2,0.4-0.4,0.8-0.7,1.1c-0.1,0.1-0.1,0.1-0.2,0.1
		s-0.1,0-0.2-0.1c-0.9-0.7-1.9-1.3-3-1.7c0,0.8-0.3,1.5-0.9,1.8c-0.5,0.3-1.2,0.5-2.2,0.5s-1.8-0.2-2.4-0.7
		c-0.5-0.4-0.7-0.8-0.7-1.4c0-0.7,0.3-1.2,0.9-1.6c0.5-0.4,1.2-0.5,2.1-0.5C268.5,52,269,52,269.5,52z M269.5,53.4
		c-0.5-0.1-1-0.2-1.4-0.2c-1.1,0-1.6,0.3-1.6,0.8c0,0.4,0.5,0.7,1.5,0.7c0.7,0,1.1-0.1,1.4-0.4C269.4,54.1,269.5,53.9,269.5,53.4z"
		/>
	<path class="st1" d="M278.4,43.5c1,0.1,1.6,0.2,1.9,0.3c0.2,0.1,0.4,0.2,0.4,0.3c0,0.1-0.1,0.2-0.2,0.5c-0.1,0.2-0.1,0.8-0.2,1.8
		c-0.2,2.3-0.2,4.2-0.2,5.8c0,0.8,0.1,1.3,0.3,1.6c0.2,0.2,0.5,0.3,1.1,0.3c0.8,0,1.7-0.2,2.6-0.7s1.8-1.2,2.6-2
		c0.1,0.5,0.2,1,0.3,1.4c0.1,0.2,0.1,0.3,0.1,0.4s-0.1,0.3-0.3,0.5c-0.8,0.8-1.8,1.4-2.9,1.8c-0.9,0.3-1.8,0.5-2.8,0.5
		s-1.8-0.3-2.2-0.8c-0.4-0.5-0.6-1.2-0.6-2.3c0-0.9,0.1-3.1,0.2-6.5c0-0.5,0-0.9,0-1C278.6,44.5,278.5,43.9,278.4,43.5z"/>
	<path class="st1" d="M294.1,45.9c0.6-0.1,1.3-0.3,2.1-0.5h0.1c0.1,0,0.1,0.1,0.2,0.2c0.1,0.4,0.1,0.8,0.1,1.1c0,0,0,0,0,0.1
		s-0.1,0.2-0.2,0.2c-0.9,0.2-1.7,0.4-2.6,0.6c-1,3.2-1.9,5.9-2.7,8.1c0,0.1-0.1,0.2-0.2,0.2h-0.1c-0.5-0.2-0.9-0.4-1.2-0.6
		c-0.1-0.1-0.1-0.1-0.1-0.2V55c1-2.4,1.9-4.8,2.6-7.1c-1.1,0.1-1.9,0.2-2.6,0.2c-0.2,0-0.3-0.1-0.3-0.2c-0.1-0.3-0.1-0.7-0.2-1.4
		c0.2,0,0.6,0.1,1.1,0.1c0.8,0,1.6-0.1,2.4-0.2c0.1-0.5,0.2-1.1,0.4-1.9c0.1-0.4,0.1-0.9,0.1-1.4c0.9,0.1,1.5,0.3,1.9,0.4
		c0.1,0,0.2,0.1,0.2,0.2s0,0.2-0.1,0.2c-0.2,0.3-0.3,0.5-0.3,0.6c-0.1,0.2-0.1,0.5-0.2,0.8C294.2,45.6,294.1,45.8,294.1,45.9z
		 M294.4,52.8c0.6-0.2,1-0.2,1.3-0.2c0.1,0,0.2,0.1,0.2,0.2c0.1,0.6,0.3,0.9,0.7,1.2c0.3,0.2,0.9,0.3,1.6,0.3c0.6,0,1.4-0.1,2.5-0.2
		c0,0,0,0,0.1,0s0.1,0,0.1,0.1c0.1,0.5,0.1,1,0.1,1.3v0.1c0,0.1-0.1,0.2-0.2,0.2c-0.8,0.1-1.4,0.2-2,0.2c-1,0-1.9-0.1-2.4-0.3
		c-0.5-0.2-0.9-0.4-1.2-0.7C294.6,54.5,294.4,53.8,294.4,52.8z M295.5,50c0-0.7-0.1-1.2-0.1-1.4c0-0.1,0-0.2,0.1-0.2
		c0,0,0.1-0.1,0.2-0.1c1.1-0.2,2.1-0.3,2.9-0.3c0.6,0,1.2,0,1.8,0.1c0.1,0,0.2,0,0.2,0.1c0,0,0,0.1,0,0.2c0,0.2,0,0.4,0,0.7
		c0,0.2,0,0.3,0,0.5s-0.1,0.3-0.2,0.3h-0.1c-0.6-0.1-1.2-0.2-1.9-0.2C297.7,49.7,296.7,49.8,295.5,50z"/>
	<path class="st1" d="M307,43.4l-0.4,8.9h-1.5l-0.4-8.9H307z M304.7,53.8h2.1v2h-2.1V53.8z"/>
</g>
<g id="グループ_706" transform="translate(139.521 1004.856)">
	<path id="パス_368-4" class="st6" d="M6.1-933.8l-0.3,13c0,0.3,0.5,0.4,0.8,0.4c0.1,0,0.2,0,0.3-0.1c0.4-0.1,0.7-0.6,1.3-1.2
		l10.7-12.1l158.7-0.1c7.6,0,13.7-6.2,13.7-13.7v-15.5c0-7.6-6.2-13.7-13.7-13.7l-171,0.1c-7.6,0-13.7,6.2-13.7,13.7v15.5
		C-7.2-940.1-1.3-934.1,6.1-933.8z M-5.1-963.1c0-6.5,5.2-11.7,11.7-11.7l171-0.1c6.5,0,11.7,5.2,11.7,11.7v15.5
		c0,6.5-5.2,11.7-11.7,11.7l-159.8,0.1c-0.6,0-1.8,1.8-1.8,1.8l-8.4,10.3l0.6-11.9c0.1-0.3-1.3-0.2-1.6-0.2
		c-6.5,0-11.7-5.2-11.7-11.7V-963.1z"/>
</g>
</svg>
