<?xml version="1.0" encoding="utf-8"?>
<!-- Generator: Adobe Illustrator 25.2.3, SVG Export Plug-In . SVG Version: 6.00 Build 0)  -->
<svg version="1.1" id="レイヤー_1" xmlns="http://www.w3.org/2000/svg" xmlns:xlink="http://www.w3.org/1999/xlink" x="0px"
	 y="0px" viewBox="0 0 350 190" style="enable-background:new 0 0 350 190;" xml:space="preserve">
<style type="text/css">
	.st0{fill:#FFFFFF;}
	.st1{fill:none;stroke:#555353;stroke-width:3;stroke-linejoin:round;}
	.st2{fill:#A2D5D9;}
	.st3{fill:#555353;}
	.st4{fill:#00AEBD;}
	.st5{enable-background:new    ;}
</style>
<rect class="st0" width="350" height="190"/>
<path id="合体_34" class="st1" d="M109.4,51.5h-66c-5.2,0-9.5-4.3-9.5-9.5V27c0-5.2,4.3-9.5,9.5-9.5l0,0h264
	c5.2,0,9.5,4.3,9.5,9.5l0,0v15c0,5.2-4.3,9.5-9.5,9.5H118.8l0.5,11.7L109.4,51.5z"/>
<g id="グループ_839" transform="translate(253.788 -1737.45)">
	<path id="パス_1084-2" class="st2" d="M60.7,1823.4c-1.3-2.1-3.8-3.1-6.2-2.5c-0.8,0.2-1.6-0.3-1.9-1.1c-0.1-0.3-0.1-0.6,0-0.8
		c1.1-3.6-0.1-6.7-3.1-8.3c-8.3-4.4-19.7-3-28.9,3.4c-7.3,5.1-6.7,14.8-5.6,22.7c0.3-0.2,0.6-0.3,0.9-0.4l4.7-11.8
		c-1.7-4,1-7.8,1.1-8l2.5,1.8c0,0-2,2.9-0.6,5.4l0,0c0,0,0,0.1,0.1,0.1c1.3,2.9,4.7,4.2,7.6,2.9c0.5-0.2,0.9-0.5,1.3-0.8
		c5-2.9,11.4-6,16.1-4.1c2.6,1.1,4.5,3.5,5.5,7.2c1.6,5.8,3.1,6.8,3.4,6.9c0.3-0.1,0.6-0.1,0.8-0.1c1,0.2,2,0.4,2.9,0.9
		C61.9,1832.7,62.4,1826.1,60.7,1823.4z"/>
	<path id="パス_1089-2" class="st3" d="M38.9,1849.6l2.1-2.1l-2.6-2.6l2.6-2.6l-2.1-2.1l-3.7,3.7c-0.6,0.6-0.6,1.5,0,2.1l0,0
		L38.9,1849.6z"/>
	<path id="パス_1090-2" class="st3" d="M32,1841.4c0-1.3-1-2.3-2.3-2.3s-2.3,1-2.3,2.3s1,2.3,2.3,2.3S32,1842.7,32,1841.4
		L32,1841.4z"/>
	<path id="パス_1091-2" class="st3" d="M46.6,1843.7c1.3,0,2.3-1,2.3-2.3s-1-2.3-2.3-2.3s-2.3,1-2.3,2.3S45.3,1843.7,46.6,1843.7
		L46.6,1843.7z"/>
	<path id="パス_1092-2" class="st3" d="M45.7,1852.3c0-0.8-0.7-1.5-1.5-1.5H32.1c-0.8,0-1.5,0.7-1.5,1.5c0,4.2,3.4,7.6,7.5,7.6
		C42.3,1859.8,45.7,1856.4,45.7,1852.3L45.7,1852.3L45.7,1852.3z M33.9,1853.8h8.5c-0.8,2.3-3.4,3.6-5.8,2.7
		C35.3,1856.1,34.3,1855,33.9,1853.8z"/>
	<path id="パス_1093-2" class="st3" d="M76,1878.5l-17.1-3.5c-1.5-3.6-4.6-6.4-8.4-7.6v-4c0.8-0.6,1.5-1.2,2.2-1.9
		c3-3,5.2-6.7,6.3-10.7c1.3-0.4,2.6-1.1,3.6-2c2.4-2,3.2-5.3,2.1-8.2c-0.2-0.5-0.5-1-0.9-1.4c0.5-3,2-12.9-0.7-17.3
		c-1.6-2.5-4.3-4.1-7.3-4.1c0.6-4-1.4-7.9-5-9.7c-9.3-4.9-21.9-3.5-32.1,3.6c-9.4,6.6-7.9,18.5-6.6,27.4c-0.4,0.4-0.7,0.9-0.9,1.5
		c-1.1,2.9-0.3,6.2,2.1,8.2c1.1,0.9,2.3,1.6,3.6,2c1.2,4.1,3.4,7.8,6.3,10.7c0.7,0.7,1.4,1.3,2.2,1.9v4c-3.8,1.2-6.9,4-8.4,7.7
		l-17,3.3c-6.7,1.4-11.6,7.3-11.6,14.2v20.2c0,0.8,0.7,1.5,1.5,1.5h95.9c0.8,0,1.5-0.7,1.5-1.5v-20.1
		C87.6,1885.8,82.8,1879.9,76,1878.5z M56.7,1881.9l-5-0.9c-0.3-0.1-0.6,0-0.9,0.1l-7.7,3.6l7.1-9.2c0.2-0.3,0.3-0.6,0.3-0.9v-3.9
		C53.1,1871.6,57.5,1874.5,56.7,1881.9L56.7,1881.9z M20.6,1814.1c9.2-6.4,20.6-7.8,28.9-3.4c3,1.6,4.2,4.7,3.1,8.3
		c-0.2,0.8,0.2,1.6,1,1.9c0.3,0.1,0.5,0.1,0.8,0c2.4-0.6,4.9,0.5,6.2,2.5c1.7,2.7,1.2,9.3,0.6,13.4c-0.9-0.4-1.9-0.7-2.9-0.9
		c-0.3-0.1-0.6,0-0.8,0.1c-0.3-0.1-1.7-1.1-3.4-6.9c-1.1-3.7-2.9-6.1-5.5-7.2c-4.7-1.9-11.1,1.2-16.1,4.1c-2.5,2-6.1,1.6-8.1-0.9
		c-0.3-0.4-0.6-0.8-0.8-1.3c0,0,0-0.1-0.1-0.1l0,0c-1.4-2.5,0.6-5.4,0.6-5.4l-2.5-1.8c-0.1,0.2-2.8,4-1.1,8l-4.7,11.8
		c-0.3,0.1-0.6,0.3-0.9,0.4C13.9,1828.9,13.3,1819.2,20.6,1814.1L20.6,1814.1z M25.6,1859.3c-2.8-2.8-4.8-6.4-5.8-10.2
		c-0.1-0.5-0.6-0.9-1.1-1.1c-1.2-0.3-2.3-0.8-3.2-1.6c-1.4-1.1-1.9-3-1.4-4.7c0.2-0.4,0.5-0.8,0.8-1.2c0.7-0.7,1.6-1.3,2.5-1.6
		c0.4-0.1,0.8-0.5,0.9-0.9l4.1-10.4c1,1.1,2.2,1.8,3.6,2.3c2.4,0.8,5,0.3,7.8-1.3c4.1-2.4,9.9-5.3,13.5-3.9c1.7,0.7,2.9,2.4,3.7,5.2
		c1.5,5.3,3.2,8.2,5.3,8.9c0.5,0.2,1.1,0.2,1.7,0.1c0.9,0.1,1.7,0.4,2.5,0.9c0.2,0.2,0.4,0.4,0.6,0.6c0.3,0.3,0.6,0.7,0.8,1.2
		c0.6,1.7,0,3.6-1.4,4.7c-0.9,0.8-2,1.3-3.2,1.6c-0.5,0.1-0.9,0.5-1.1,1.1c-1,3.9-3,7.4-5.8,10.2
		C43.7,1866.1,32.6,1866.1,25.6,1859.3L25.6,1859.3z M38.1,1867.4L38.1,1867.4c3.3-0.1,6.5-0.9,9.4-2.3v8.9l-9.4,12.1l-9.4-12.1
		v-8.9C31.7,1866.6,34.8,1867.3,38.1,1867.4L38.1,1867.4z M25.7,1870.6v3.9c0,0.3,0.1,0.7,0.3,0.9l7.1,9.2l-7.7-3.6
		c-0.3-0.1-0.6-0.2-0.9-0.1l-5,0.9C18.8,1874.6,23.1,1871.7,25.7,1870.6L25.7,1870.6z M84.6,1911.4H-8.3v-18.7
		c0-5.4,3.8-10.1,9.2-11.2l15.7-3.1c-0.2,1.9-0.1,3.7,0.2,5.6c0.1,0.8,0.9,1.4,1.8,1.2l0,0l6.1-1.1l12,5.6v10h3v-10l12-5.6l6.1,1.1
		c0.8,0.2,1.6-0.4,1.8-1.2l0,0c0.4-1.9,0.4-3.8,0.2-5.7l15.7,3.2c5.3,1.1,9.2,5.8,9.2,11.2L84.6,1911.4z"/>
</g>
<g id="グループ_840" transform="translate(-2214.865 -2654.556)">
	<path id="パス_1060-3" class="st4" d="M2368.3,2766.3c-0.6-0.2-1.1-0.4-1.6-0.7c-4.8,2.9-6.4,9.2-3.5,14.1c1.9,3.1,5.2,5,8.8,5
		h5.1v-5.4c-0.8-0.6-1.6-1.2-2.3-1.9C2371.8,2774.2,2369.5,2770.4,2368.3,2766.3z"/>
	<path id="パス_1062-3" class="st4" d="M2417.9,2774.4c0-3.6-1.9-6.9-5-8.8c-0.5,0.3-1.1,0.5-1.6,0.7c-1.2,4.2-3.4,8-6.5,11
		c-0.7,0.7-1.5,1.3-2.3,1.9v5.4h5.1C2413.4,2784.6,2417.9,2780,2417.9,2774.4z"/>
	<path id="パス_1063-3" class="st4" d="M2389.8,2725.3c-12.8,0-23.1,11-23.1,24.5v1.8c0.3-0.2,0.7-0.3,1-0.4c0.1,0,0.2,0,0.3-0.1
		l9.3-1.3c5.9-0.8,11-4.3,13.9-9.5c1.2-2.5,3.3-4.6,5.8-5.7c0.6-0.2,1.3-0.1,1.8,0.5l13.5,16.3c0.2,0.1,0.4,0.2,0.6,0.3v-1.8
		C2413,2736.3,2402.6,2725.3,2389.8,2725.3z M2372.8,2746.1l-0.3-3.1c4.4-0.4,8.6-2.4,11.6-5.7l2.3,2.1
		C2382.8,2743.3,2378,2745.6,2372.8,2746.1L2372.8,2746.1z"/>
	<path id="パス_1066-3" class="st3" d="M2389.8,2773.2c2.7,0,5.3-1.1,7.2-3l-2.2-2.2c-2.7,2.7-7.2,2.8-10,0l0,0l-2.2,2.2
		C2384.6,2772.1,2387.1,2773.2,2389.8,2773.2z"/>
	<path id="パス_1067-3" class="st3" d="M2390.6,2765l2.2-2.2l-2.7-2.7l2.7-2.7l-2.2-2.2l-3.8,3.8c-0.6,0.6-0.6,1.6,0,2.2l0,0
		L2390.6,2765z"/>
	<path id="パス_1068-3" class="st3" d="M2381.1,2759.1c1.3,0,2.4-1.1,2.4-2.4s-1.1-2.4-2.4-2.4c-1.3,0-2.4,1.1-2.4,2.4
		C2378.8,2758,2379.8,2759.1,2381.1,2759.1z"/>
	<path id="パス_1069-3" class="st3" d="M2398.5,2759.1c1.3,0,2.4-1.1,2.4-2.4s-1.1-2.4-2.4-2.4c-1.3,0-2.4,1.1-2.4,2.4
		C2396.2,2758,2397.2,2759.1,2398.5,2759.1z"/>
	<path id="パス_1070-3" class="st3" d="M2428.7,2794.7l-26.1-5.3v-1.7h5.1c7.4,0,13.4-6,13.4-13.3c0-4.2-2-8.2-5.4-10.7
		c2-2.1,2.7-5.2,1.6-7.9c-0.3-0.7-0.7-1.3-1.2-1.8v-4.1c0-15.2-11.8-27.7-26.2-27.7s-26.2,12.4-26.2,27.7v4.1
		c-0.5,0.5-0.9,1.1-1.2,1.8c-1.1,2.7-0.4,5.8,1.6,7.9c-5.9,4.4-7.2,12.8-2.8,18.7c2.5,3.4,6.5,5.4,10.7,5.4h5.1v1.7l-26.1,5.3
		c-6.9,1.4-11.9,7.5-11.9,14.5v20.7c0,0.9,0.7,1.6,1.6,1.6l0,0h98.3c0.9,0,1.6-0.7,1.6-1.6l0,0v-20.7
		C2440.5,2802.2,2435.6,2796.1,2428.7,2794.7z M2366.6,2761.9c-1.8-1.2-2.3-3.6-1.1-5.4c0.2-0.2,0.3-0.5,0.6-0.7
		c0.7-0.7,1.5-1.2,2.5-1.6l9.2-1.3c6.8-0.9,12.8-5,16.2-11c0.8-1.5,1.9-2.9,3.3-3.8l13,15.7c0.2,0.2,0.4,0.4,0.7,0.5
		c1,0.3,1.9,0.9,2.6,1.6c1.6,1.5,1.6,3.9,0.1,5.5c-0.2,0.2-0.4,0.4-0.7,0.6c-1,0.8-2.1,1.4-3.3,1.6c-0.5,0.1-1,0.5-1.1,1.1
		c-1,4-3.1,7.6-5.9,10.5c-7.2,6.9-18.5,6.9-25.7,0c-2.9-2.9-4.9-6.5-5.9-10.5c-0.2-0.5-0.6-1-1.1-1.1
		C2368.7,2763.2,2367.6,2762.7,2366.6,2761.9z M2380.2,2781c3,1.4,6.3,2.2,9.6,2.3h0.1c3.3-0.1,6.6-0.9,9.6-2.3v9.4l-9.6,14.6
		l-9.6-14.6L2380.2,2781z M2417.9,2774.4c0,5.7-4.6,10.2-10.2,10.2h-5.1v-5.4c0.8-0.6,1.6-1.2,2.3-1.9c3.1-3.1,5.3-6.9,6.5-11
		c0.6-0.2,1.1-0.4,1.6-0.7C2416.1,2767.4,2418,2770.8,2417.9,2774.4L2417.9,2774.4z M2366.7,2749.9c0-13.5,10.4-24.5,23.1-24.5
		s23.1,11,23.1,24.5v1.8c-0.2-0.1-0.4-0.2-0.6-0.3l-13.5-16.3c-0.4-0.5-1.1-0.7-1.8-0.5c-2.6,1.2-4.6,3.2-5.8,5.7
		c-2.9,5.2-8,8.7-13.9,9.5l-9.3,1.3c-0.1,0-0.2,0-0.3,0.1c-0.4,0.1-0.7,0.3-1,0.4V2749.9z M2372,2784.6c-5.7,0-10.2-4.6-10.2-10.2
		c0-3.6,1.9-6.9,4.9-8.8c0.5,0.3,1.1,0.5,1.6,0.7c1.2,4.2,3.4,8,6.5,11c0.7,0.7,1.5,1.3,2.3,1.9v5.4L2372,2784.6L2372,2784.6z
		 M2437.4,2828.4h-95.2v-19.2c0-5.6,3.9-10.4,9.4-11.5l26.1-5.3l10.2,15.4l-6.9,10.4l2.6,1.7l6.1-9.3l6.1,9.3l2.6-1.7l-6.9-10.4
		l10.2-15.4l26.1,5.3c5.5,1.1,9.4,5.9,9.4,11.5L2437.4,2828.4z"/>
	<path id="パス_1071-3" class="st3" d="M2386.4,2739.4l-2.3-2.1c-3,3.3-7.2,5.3-11.6,5.7l0.3,3.1
		C2378,2745.6,2382.8,2743.3,2386.4,2739.4z"/>
</g>
<g class="st5">
	<path class="st4" d="M51.4,29.7H55c1.3,0,2.2,0.2,2.8,0.7c0.4,0.4,0.7,1,0.7,1.8c0,0.6-0.2,1.1-0.6,1.5c-0.4,0.3-0.8,0.6-1.4,0.7
		v0.1c0.8,0.1,1.4,0.4,1.8,0.9c0.3,0.4,0.5,0.9,0.5,1.5c0,1-0.3,1.7-1,2.2c-0.6,0.4-1.5,0.7-2.5,0.7h-3.8L51.4,29.7L51.4,29.7z
		 M53.1,31v2.8h1.5c0.7,0,1.3-0.2,1.6-0.5c0.3-0.2,0.4-0.6,0.4-1c0-0.5-0.2-0.8-0.5-1.1c-0.3-0.2-0.8-0.3-1.4-0.3h-1.6V31z
		 M53.1,35.1v3.3H55c0.7,0,1.2-0.2,1.6-0.5c0.3-0.3,0.4-0.7,0.4-1.2s-0.2-1-0.7-1.3c-0.4-0.3-0.9-0.4-1.6-0.4h-1.6
		C53.1,35,53.1,35.1,53.1,35.1z"/>
	<path class="st4" d="M64.2,31.8c-0.3-0.6-0.5-1.1-0.6-1.3c-0.2-0.4-0.4-0.8-0.6-1.1c0.8-0.1,1.3-0.2,1.5-0.2c0.3,0,0.4,0.1,0.4,0.3
		v0.2c0,0.1,0,0.1,0,0.2c0,0.2,0.1,0.4,0.2,0.7c0.2,0.5,0.4,0.9,0.4,1.1c1-0.2,1.9-0.5,2.7-0.8c0.1,0,0.1,0,0.1,0s0.1,0,0.1,0.1
		c0.1,0.2,0.2,0.5,0.3,1v0.1c0,0.1,0,0.1-0.1,0.1c-0.7,0.3-1.5,0.5-2.6,0.7c0.5,0.9,1.2,1.8,2,2.7c0.1,0.1,0.2,0.2,0.3,0.3
		c0.1,0.1,0.1,0.1,0.1,0.2s0,0.1-0.1,0.2c-0.1,0.2-0.3,0.5-0.5,0.8c-0.1,0.1-0.2,0.2-0.3,0.2c0,0-0.1,0-0.2-0.1
		c-0.2-0.2-0.4-0.3-0.5-0.3C66,36.5,65,36.2,64,36.2c-1.4,0-2.2,0.4-2.2,1.2c0,0.9,1.1,1.4,3.2,1.4c0.7,0,1.4-0.1,2.1-0.2
		c-0.1,0.5-0.1,1-0.3,1.4c0,0.1-0.1,0.2-0.2,0.2c-0.4,0.1-0.8,0.1-1.4,0.1c-1.6,0-2.8-0.3-3.7-0.8c-0.7-0.5-1.1-1.1-1.1-1.9
		s0.3-1.4,1-1.9c0.6-0.4,1.4-0.6,2.4-0.6c0.9,0,1.7,0.1,2.3,0.3c-0.6-0.6-1.2-1.3-1.7-2.3c-0.8,0.1-1.7,0.3-2.5,0.3
		c-0.6,0-1,0.1-1.3,0.1c-0.1,0-0.2-0.1-0.2-0.2c-0.1-0.3-0.2-0.7-0.3-1.2c0.3,0,0.5,0,0.7,0c0.3,0,0.6,0,0.9,0
		C62.7,32,63.4,32,64.2,31.8z"/>
	<path class="st4" d="M75.2,29.4c0.7,0.3,1.1,0.5,1.5,0.7c0.1,0.1,0.2,0.2,0.2,0.3c0,0.1,0,0.2-0.1,0.3c-0.1,0.1-0.3,0.3-0.4,0.6
		c-1.1,2-1.8,3.4-2.3,4.1l0,0c0.5-0.4,1.1-0.7,1.6-0.7c0.7,0,1.2,0.3,1.5,0.9c0.2,0.4,0.3,0.9,0.4,1.6c0.1,0.5,0.1,0.9,0.3,1.1
		c0.1,0.2,0.3,0.3,0.5,0.3c0.4,0,0.8-0.2,1.2-0.6c0.6-0.6,1-1.3,1.3-2.1c0.2,0.4,0.4,0.8,0.8,1.1c0.1,0.1,0.1,0.2,0.1,0.3
		s0,0.2-0.1,0.2c-0.3,0.5-0.6,1.1-1.1,1.6c-0.7,0.7-1.5,1.1-2.4,1.1c-0.7,0-1.2-0.2-1.5-0.7c-0.3-0.4-0.4-1-0.5-1.9
		c-0.1-0.7-0.2-1.1-0.3-1.4c-0.1-0.2-0.3-0.3-0.5-0.3c-0.5,0-1.1,0.4-1.6,1.1c-0.5,0.6-1,1.6-1.5,2.9c-0.1,0.1-0.1,0.2-0.2,0.2H72
		c-0.4-0.2-0.7-0.3-1-0.6c-0.1-0.1-0.1-0.1-0.1-0.2s0-0.1,0.1-0.2c1.8-3.5,3-6.1,3.8-7.8C74.9,30.5,75.1,29.8,75.2,29.4z"/>
	<path class="st4" d="M84.4,29.8c0.6,0.1,1.1,0.3,1.4,0.5c0.2,0.1,0.3,0.2,0.3,0.3c0,0.1-0.1,0.2-0.2,0.4c-0.1,0.2-0.2,0.5-0.3,0.9
		c-0.4,1.6-0.5,3-0.5,4.2c0,0.6,0,1.1,0.1,1.5c0.6-1.3,0.9-1.9,0.9-1.9c0,0.1,0.2,0.4,0.5,0.8c0.1,0.1,0.1,0.2,0.1,0.2
		c0,0.1,0,0.1-0.1,0.2c-0.4,0.8-0.6,1.5-0.7,2c0,0.1,0,0.2,0,0.4v0.4c0,0.1-0.1,0.1-0.2,0.2c-0.4,0.1-0.7,0.2-1.1,0.2l0,0
		c-0.1,0-0.1,0-0.1-0.1c-0.2-0.5-0.3-1.1-0.5-1.9c-0.1-0.7-0.1-1.3-0.1-1.9c0-1.2,0.1-2.6,0.4-4.3C84.4,30.9,84.4,30.2,84.4,29.8z
		 M87.4,36.5l1.2-0.1l0,0c0.1,0,0.1,0.1,0.1,0.2c0,0.5,0.3,0.8,0.6,1s0.8,0.2,1.5,0.2s1.5-0.1,2.5-0.2c0,0,0,0,0.1,0
		s0.1,0.1,0.1,0.2c0.1,0.4,0.1,0.7,0.1,1.1c0,0.1,0,0.1,0,0.2c0,0-0.1,0-0.2,0c-0.8,0.1-1.5,0.1-2.1,0.1c-1,0-1.8-0.1-2.3-0.3
		c-0.4-0.2-0.8-0.4-1.1-0.8C87.6,37.8,87.4,37.3,87.4,36.5z M87.8,32.9c0-0.7,0-1.2,0-1.3c0-0.1,0.1-0.2,0.2-0.2
		c0.8-0.2,1.8-0.2,2.8-0.2c0.7,0,1.4,0,1.9,0.1c0.1,0,0.2,0,0.3,0.1v0.1c0,0.5,0,0.9,0,1.1c0,0.1-0.1,0.2-0.1,0.2l0,0
		c-0.8-0.1-1.5-0.1-2.1-0.1C89.9,32.5,89,32.6,87.8,32.9z"/>
	<path class="st4" d="M94.9,39.4c0.3-0.9,0.5-1.7,0.5-2.5c0-0.2,0-0.3,0-0.4s0-0.2,0-0.3c0.3,0,0.6,0.1,1,0.2c0.1,0,0.2,0.1,0.2,0.2
		s0,0.1-0.1,0.2c0,0,0,0.2-0.1,0.4c-0.1,0.9-0.3,1.7-0.5,2.4c-0.1,0.2-0.1,0.3-0.2,0.3c0,0-0.1,0-0.2-0.1
		C95.4,39.6,95.2,39.5,94.9,39.4z M99.5,33.2c0.4,0.8,0.7,1.5,0.9,2.3v0.1c0,0.1-0.1,0.1-0.2,0.1l-0.7,0.2c-0.1,0-0.1,0-0.1,0
		c-0.1,0-0.1,0-0.1-0.1l-0.1-0.6l-0.8,0.1v3.6v1.7c0,0.1,0,0.1,0,0.1h-0.1h-1c-0.1,0-0.1,0-0.1,0v-0.1v-1.7v-3.4l-1.1,0.1
		c-0.2,0-0.4,0-0.5,0.1c-0.1,0-0.2,0.1-0.2,0.1c-0.1,0-0.1-0.1-0.2-0.2c-0.1-0.4-0.1-0.7-0.2-1.1c0.3,0,0.6,0,0.8,0
		c0.1,0,0.2,0,0.3,0c0.2-0.2,0.4-0.5,0.7-1c-0.5-0.7-1.1-1.3-1.7-1.9L95,31.5c0,0,0-0.1,0.1-0.2l0.4-0.7c0.1-0.1,0.1-0.1,0.1-0.1
		s0.1,0,0.1,0.1L96,31c0.3-0.5,0.5-0.9,0.7-1.3c0.1-0.3,0.2-0.5,0.3-0.8c0.5,0.2,0.8,0.3,1.1,0.5c0.1,0.1,0.2,0.1,0.2,0.2
		s0,0.1-0.1,0.2S98,30,98,30.1c-0.4,0.7-0.8,1.3-1.1,1.8c0.3,0.3,0.5,0.5,0.6,0.7c0.3-0.4,0.6-0.9,0.9-1.5c0.1-0.3,0.3-0.5,0.4-0.9
		c0.5,0.2,0.9,0.4,1.1,0.6c0.1,0.1,0.2,0.1,0.2,0.2s0,0.1-0.1,0.2s-0.2,0.2-0.4,0.5c-0.7,1.1-1.3,2-2,2.8c0.3,0,0.8-0.1,1.4-0.1
		c-0.1-0.2-0.2-0.5-0.3-0.7c0-0.1,0-0.1,0-0.1s0.1-0.1,0.2-0.1l0.5-0.2c0.1,0,0.1,0,0.1,0C99.4,33,99.5,33.1,99.5,33.2z M99.6,36.2
		C99.7,36.2,99.7,36.2,99.6,36.2c0.1,0,0.2,0,0.2,0.1c0.2,0.7,0.4,1.5,0.5,2.4v0.1c0,0.1-0.1,0.1-0.2,0.2l-0.6,0.2
		c-0.1,0-0.1,0-0.2,0c0,0-0.1,0-0.1-0.1c-0.1-0.8-0.3-1.6-0.5-2.5v-0.1c0-0.1,0.1-0.1,0.2-0.1L99.6,36.2z M105.2,30.6h-1.9
		c-0.1,1.7-0.9,3.1-2.3,4c-0.2,0.1-0.3,0.2-0.3,0.2c-0.1,0-0.1-0.1-0.3-0.3c-0.2-0.3-0.4-0.5-0.7-0.7c0.8-0.4,1.3-0.8,1.7-1.3
		c0.3-0.5,0.5-1.1,0.6-1.8h-0.1h-1.6c-0.1,0-0.1,0-0.1,0v-0.1v-0.9c0-0.1,0-0.1,0-0.1h0.1h1.6h2.8h1.6c0.1,0,0.1,0,0.1,0v0.1
		c0,0.4,0,0.7,0,0.9c0,1.7-0.2,2.7-0.4,3.2c-0.2,0.6-0.8,0.8-1.5,0.8c-0.3,0-0.6,0-0.7,0c-0.2,0-0.3,0-0.3-0.1c0,0-0.1-0.2-0.1-0.3
		c-0.1-0.3-0.1-0.6-0.3-0.9c0.5,0.1,0.9,0.1,1.2,0.1s0.5-0.1,0.6-0.3C105.1,32.7,105.2,31.9,105.2,30.6z M101.8,40.7h-1
		c-0.1,0-0.1,0-0.1,0v-0.1v-2.4V37v-1.6c0-0.1,0-0.1,0-0.1h0.1h1.5h2.2h1.5c0.1,0,0.1,0,0.1,0v0.1v1.4v1.3v2.4c0,0.1,0,0.1,0,0.1
		H106h-1c-0.1,0-0.1,0-0.1-0.1V40h-3v0.5c0,0.1,0,0.1,0,0.1C102,40.7,101.9,40.7,101.8,40.7z M102,36.4v2.4h3v-2.4H102z"/>
	<path class="st4" d="M120.1,33.5c-0.2,0.3-0.4,0.6-0.6,1c-0.1,0.2-0.2,0.3-0.2,0.3s-0.1,0-0.3-0.1c-2.2-1-3.9-2.5-5.1-4.3
		c-1.1,1.7-2.7,3.1-4.9,4.3c-0.2,0.1-0.3,0.1-0.3,0.1c-0.1,0-0.1-0.1-0.2-0.3c-0.2-0.4-0.4-0.7-0.6-0.9c2.2-1,3.8-2.3,4.9-4.1
		c0.2-0.3,0.4-0.6,0.5-1c0.7,0.1,1.1,0.2,1.4,0.3c0.1,0,0.2,0.1,0.2,0.2s0,0.1-0.1,0.2l-0.1,0.1c0.7,1,1.6,1.9,2.5,2.5
		C117.9,32.5,118.9,33.1,120.1,33.5z M108.4,39.6c1.2-0.4,2-1,2.5-1.7c0.3-0.6,0.5-1.5,0.5-2.8c0-0.6,0-1.2-0.1-1.5
		c0.5,0,1,0,1.4,0.1c0.1,0,0.2,0.1,0.2,0.2s0,0.2-0.1,0.3c-0.1,0.2-0.1,0.5-0.1,1.1c0,1-0.1,1.7-0.2,2.3c-0.1,0.5-0.3,0.9-0.5,1.3
		c-0.5,0.8-1.3,1.4-2.3,1.8c-0.2,0.1-0.3,0.1-0.3,0.1c-0.1,0-0.1-0.1-0.3-0.3C108.9,40.1,108.7,39.8,108.4,39.6z M115.1,33.6
		c0.5,0,1,0,1.4,0.1c0.1,0,0.2,0.1,0.2,0.1s0,0.2-0.1,0.3c0,0.2-0.1,0.7-0.1,1.4v3.3v1.7c0,0.1,0,0.1,0,0.1h-0.1h-1.2
		c-0.1,0-0.1,0-0.1-0.1v-1.7v-3.3C115.2,34.7,115.1,34,115.1,33.6z"/>
	<path class="st4" d="M125.3,31.8c-0.3-0.6-0.5-1.1-0.6-1.3c-0.2-0.4-0.4-0.8-0.6-1.1c0.8-0.1,1.3-0.2,1.5-0.2
		c0.3,0,0.4,0.1,0.4,0.3v0.2c0,0.1,0,0.1,0,0.2c0,0.2,0.1,0.4,0.2,0.7c0.2,0.5,0.4,0.9,0.4,1.1c1-0.2,1.9-0.5,2.7-0.8
		c0.1,0,0.1,0,0.1,0s0.1,0,0.1,0.1c0.1,0.2,0.2,0.5,0.3,1v0.1c0,0.1,0,0.1-0.1,0.1c-0.7,0.3-1.5,0.5-2.6,0.7c0.5,0.9,1.2,1.8,2,2.7
		c0.1,0.1,0.2,0.2,0.3,0.3s0.1,0.1,0.1,0.2s0,0.1-0.1,0.2c-0.1,0.2-0.3,0.5-0.5,0.8c-0.1,0.1-0.2,0.2-0.3,0.2c0,0-0.1,0-0.2-0.1
		c-0.2-0.2-0.4-0.3-0.5-0.3c-0.8-0.4-1.8-0.7-2.8-0.7c-1.4,0-2.2,0.4-2.2,1.2c0,0.9,1.1,1.4,3.2,1.4c0.7,0,1.4-0.1,2.1-0.2
		c-0.1,0.5-0.1,1-0.3,1.4c0,0.1-0.1,0.2-0.2,0.2c-0.4,0.1-0.8,0.1-1.4,0.1c-1.6,0-2.8-0.3-3.7-0.8c-0.7-0.5-1.1-1.1-1.1-1.9
		s0.3-1.4,1-1.9c0.6-0.4,1.4-0.6,2.4-0.6c0.9,0,1.7,0.1,2.3,0.3c-0.6-0.6-1.2-1.3-1.7-2.3c-0.8,0.1-1.7,0.3-2.5,0.3
		c-0.6,0-1,0.1-1.3,0.1c-0.1,0-0.2-0.1-0.2-0.2c-0.1-0.3-0.2-0.7-0.3-1.2c0.3,0,0.5,0,0.7,0c0.3,0,0.6,0,0.9,0
		C123.8,32,124.5,32,125.3,31.8z"/>
	<path class="st4" d="M134.4,29.2c0.7,0.1,1.2,0.2,1.5,0.2c0.2,0,0.3,0.1,0.3,0.3c0,0.1,0,0.1-0.1,0.2s-0.1,0.3-0.1,0.6
		c0,0.3,0,0.8-0.1,1.3c0.2,0.1,0.4,0.2,0.5,0.3c0.1,0.1,0.1,0.1,0.1,0.2c0,0,0,0.1-0.1,0.1c-0.2,0.4-0.5,0.8-0.7,1.2v0.1
		c0.4-0.4,0.8-0.8,1.2-1.3c0.9-0.9,1.7-1.3,2.3-1.3c0.5,0,0.9,0.2,1.2,0.5c0.2,0.3,0.4,0.7,0.4,1.2c0,0.7,0,1.5-0.1,2.4
		c0,0.3,0,0.8-0.1,1.5c0,0.3,0,0.6,0,0.7c0,0.3,0,0.5,0.1,0.6s0.2,0.1,0.3,0.1c0.3,0,0.6-0.2,1-0.5c0.3-0.2,0.5-0.6,0.8-1.1
		c0.2,0.4,0.3,0.8,0.5,1c0.1,0.1,0.1,0.2,0.1,0.3s0,0.1-0.1,0.2c-0.7,1-1.5,1.5-2.5,1.5c-1.1,0-1.7-0.7-1.7-2c0-0.3,0-1,0.1-2.2
		c0.1-1.1,0.1-1.8,0.1-2.1c0-0.6-0.1-0.9-0.4-0.9c-0.3,0-0.8,0.3-1.5,0.8c-0.7,0.7-1.3,1.3-1.8,1.9c0,0.3,0,1.2,0,2.7
		c0,1,0,1.7,0,2.2c0,0.1-0.1,0.2-0.2,0.2c-0.2,0-0.6,0.1-1,0.1c-0.1,0-0.2-0.1-0.2-0.2c0-1.7,0-2.9,0-3.7c-0.4,0.7-0.9,1.4-1.5,2.3
		c0,0.1-0.1,0.1-0.1,0.1s-0.1,0-0.2-0.1c-0.3-0.2-0.6-0.4-0.8-0.7c-0.1-0.1-0.1-0.1-0.1-0.1c0-0.1,0-0.1,0.1-0.2
		c0.9-1.1,1.7-2.2,2.6-3.4c0-0.4,0-0.7,0-0.9c-0.6,0.2-1.1,0.3-1.6,0.5c0,0-0.1,0-0.1,0.1c-0.1,0.1-0.2,0.1-0.3,0.1
		s-0.2-0.1-0.3-0.2c-0.1-0.2-0.3-0.6-0.5-1.2c0.2,0,0.6,0,0.9-0.1c0.7-0.2,1.3-0.3,1.8-0.5v-1.8C134.6,30,134.5,29.6,134.4,29.2z"/>
	<path class="st4" d="M144.7,31.4c0.5,0,1.2-0.1,2.1-0.2c3.5-0.5,6.1-0.9,7.8-1.1h0.1c0.1,0,0.2,0,0.2,0.1c0.1,0.4,0.1,0.8,0.1,1.1
		c0,0.1-0.1,0.2-0.2,0.2c-0.6,0-1.1,0.1-1.6,0.3c-1.1,0.4-2,1-2.6,1.8c-0.5,0.6-0.7,1.3-0.7,2.1c0,1.7,1.2,2.6,3.5,2.7
		c0.2,0,0.3,0.1,0.3,0.2c0,0.4,0,0.8-0.1,1.1c0,0.2-0.1,0.3-0.2,0.3c-1.4,0-2.5-0.4-3.4-1.1s-1.4-1.7-1.4-2.9c0-0.9,0.2-1.8,0.7-2.5
		c0.4-0.6,1-1.1,1.8-1.6l0,0c-1.5,0.3-3,0.6-4.4,0.9c-0.4,0.1-0.7,0.2-0.8,0.2c-0.2,0.1-0.3,0.1-0.3,0.1c-0.1,0-0.2-0.1-0.2-0.2
		C145,32.6,144.9,32.1,144.7,31.4z"/>
	<path class="st4" d="M156.7,30.8c0.5,0.1,1.4,0.1,2.5,0.1h4.6c0.3,0,0.6,0,0.7-0.1c0.1-0.1,0.2-0.1,0.2-0.1c0.1,0,0.2,0,0.2,0.1
		c0.4,0.3,0.7,0.6,0.9,0.9c0.1,0.1,0.1,0.2,0.1,0.3c0,0.1,0,0.2-0.1,0.2c-0.1,0.1-0.2,0.3-0.3,0.5c-0.7,1.7-1.5,3.1-2.5,4.2
		c-1.2,1.3-2.4,2.4-3.7,3.1c-0.1,0.1-0.2,0.1-0.4,0.1c-0.1,0-0.2,0-0.3-0.1c-0.3-0.3-0.7-0.5-1.2-0.7c1-0.5,1.8-1,2.5-1.6
		c0.6-0.5,1.2-1,1.7-1.7c1-1.1,1.7-2.4,2.2-3.7h-4.7c-0.5,0-1.2,0-2.1,0.1c-0.1,0-0.2-0.1-0.2-0.3C156.8,31.9,156.7,31.5,156.7,30.8
		z M166.8,28.5c0.4,0,0.8,0.2,1,0.5s0.4,0.6,0.4,0.9c0,0.4-0.2,0.8-0.5,1s-0.6,0.4-0.9,0.4c-0.4,0-0.8-0.2-1-0.5s-0.4-0.6-0.4-0.9
		c0-0.4,0.2-0.8,0.5-1C166.1,28.6,166.4,28.5,166.8,28.5z M166.8,29.1c-0.2,0-0.4,0.1-0.6,0.2c-0.1,0.1-0.2,0.3-0.2,0.5
		s0.1,0.4,0.2,0.6c0.1,0.1,0.3,0.2,0.5,0.2s0.4-0.1,0.6-0.2c0.1-0.1,0.2-0.3,0.2-0.5s-0.1-0.4-0.2-0.6
		C167.1,29.1,167,29.1,166.8,29.1z"/>
	<path class="st4" d="M177,38.2h-5V39c0,0.1,0,0.2-0.1,0.2c0,0-0.1,0-0.2,0c-0.2,0-0.3,0-0.5,0s-0.3,0-0.5,0s-0.3-0.1-0.3-0.2l0,0
		c0-1.4,0-2.2,0-2.6v-3.2v-0.8c0-0.5,0-0.9,0-1.3c0-0.1,0-0.2,0.1-0.2c0.5,0,1.2,0,2.3,0h3.1c1.2,0,2,0,2.4,0c0.1,0,0.2,0.1,0.2,0.2
		c0,0,0,0,0,0.1v2.1v3.1c0,0.5,0,1.3,0.1,2.5c0,0.1-0.1,0.2-0.2,0.2c-0.2,0-0.4,0-0.6,0c-0.2,0-0.4,0-0.6,0c-0.1,0-0.1,0-0.2,0
		c0,0,0-0.1,0-0.2V38.2z M177,36.8v-4.5h-5.1v4.5H177z"/>
	<path class="st4" d="M181.2,34.1c0-0.1,0.2-0.3,0.4-0.7c0.1-0.2,0.2-0.3,0.3-0.4s0.1-0.1,0.2-0.1l0,0c0.9,0.3,1.7,0.7,2.5,1.3
		c0.1,0.1,0.1,0.1,0.1,0.2c0,0,0,0.1-0.1,0.1c-0.1,0.3-0.3,0.6-0.6,1c-0.1,0.1-0.1,0.1-0.2,0.1c0,0-0.1,0-0.2-0.1
		C183.1,35,182.2,34.5,181.2,34.1z M182.2,38.4c0.6-0.1,1.1-0.3,1.8-0.6c1.4-0.7,2.6-1.5,3.6-2.2c1.3-1,2.6-2.2,3.7-3.6
		c0.1,0.4,0.2,0.9,0.4,1.5c0,0.1,0.1,0.2,0.1,0.2c0,0.1,0,0.2-0.1,0.3c-1,1.1-2.1,2.1-3.3,3c-1,0.8-2.3,1.6-3.9,2.4
		c-0.5,0.2-0.7,0.4-0.8,0.4c-0.1,0.1-0.1,0.1-0.2,0.1c-0.1,0-0.2-0.1-0.3-0.2C183,39.5,182.6,39.1,182.2,38.4z M182.8,31l0.7-1
		c0.1-0.1,0.1-0.1,0.2-0.1h0.1c1,0.4,1.8,0.9,2.4,1.4c0.1,0,0.1,0.1,0.1,0.2s0,0.1-0.1,0.2c-0.3,0.4-0.5,0.8-0.7,1
		c0,0.1-0.1,0.1-0.1,0.1c-0.1,0-0.1,0-0.2-0.1C184.5,32,183.6,31.4,182.8,31z M188.7,30.1l0.7-0.5h0.1c0,0,0.1,0,0.1,0.1
		c0.4,0.3,0.9,0.8,1.2,1.4v0.1c0,0,0,0.1-0.1,0.1l-0.5,0.4h-0.1c0,0-0.1,0-0.1-0.1C189.6,31,189.2,30.5,188.7,30.1z M189.9,29.2
		l0.7-0.5h0.1c0,0,0.1,0,0.1,0.1c0.5,0.4,0.9,0.8,1.2,1.3v0.1c0,0,0,0.1-0.1,0.1l-0.5,0.4h-0.1c0,0-0.1,0-0.1-0.1
		C190.9,30.1,190.4,29.6,189.9,29.2z"/>
	<path class="st4" d="M198.2,34.9v3.3h1.4c0.8,0,1.5,0,2.1-0.1c0.1,0,0.2,0.1,0.2,0.2s0,0.3,0,0.4s0,0.3,0,0.4
		c0,0.2-0.1,0.2-0.2,0.2l0,0h-2h-4.1c-0.6,0-1.2,0-1.9,0.1c-0.1,0-0.2-0.1-0.2-0.3s-0.1-0.6-0.1-1.1c0.5,0,1.2,0.1,2.2,0.1h1.3v-3.3
		h-0.7c-0.7,0-1.2,0-1.6,0l0,0c-0.1,0-0.2-0.1-0.2-0.3c0-0.1,0-0.5-0.1-1c0.4,0,1,0.1,1.8,0.1h2.9h1.8l0,0c0.1,0,0.2,0.1,0.2,0.2
		s0,0.3,0,0.4s0,0.3,0,0.4c0,0.2-0.1,0.2-0.2,0.2c0,0,0,0-0.1,0H199L198.2,34.9L198.2,34.9z"/>
	<path class="st4" d="M208.2,31.4l2.3-0.1c0.3,0,0.5-0.1,0.7-0.2c0,0,0.1-0.1,0.2-0.1c0.1,0,0.1,0,0.2,0.1c0.3,0.2,0.6,0.4,0.9,0.7
		c0.1,0.1,0.2,0.2,0.2,0.3s-0.1,0.2-0.2,0.3c-0.2,0.1-0.3,0.3-0.4,0.6c-0.8,1.7-1.7,3-2.6,4c-0.6,0.7-1.3,1.3-2,1.9
		c-0.7,0.5-1.3,1-1.9,1.3c-0.1,0-0.1,0.1-0.2,0.1c-0.1,0-0.2,0-0.3-0.1c-0.3-0.3-0.7-0.5-1.2-0.6c1.1-0.6,1.9-1.1,2.6-1.7
		c0.6-0.4,1.1-1,1.7-1.7c0.6-0.6,1-1.2,1.4-1.8c0.3-0.5,0.7-1.2,1-1.9l-3.1,0.1c-1,1.3-1.9,2.2-2.5,2.7c-0.1,0.1-0.2,0.1-0.3,0.1
		s-0.1,0-0.2-0.1c-0.4-0.3-0.8-0.5-1.2-0.6c1.5-1.2,2.6-2.5,3.5-3.9c0.4-0.7,0.7-1.3,0.8-1.8c0.7,0.3,1.2,0.5,1.5,0.7
		c0.1,0.1,0.1,0.1,0.1,0.2s0,0.2-0.1,0.2s-0.2,0.2-0.3,0.3C208.5,30.9,208.4,31.1,208.2,31.4z"/>
	<path class="st4" d="M218,33.1c1.6,0.5,3,1.1,4.1,1.8c0.1,0.1,0.2,0.1,0.2,0.2v0.1c-0.2,0.4-0.3,0.8-0.6,1.1
		c-0.1,0.1-0.1,0.1-0.2,0.1c-0.1,0-0.1,0-0.1-0.1c-1.2-0.8-2.4-1.3-3.4-1.7v2.9c0,0.5,0,1.3,0.1,2.5l0,0c0,0.1-0.1,0.2-0.2,0.2
		c-0.2,0-0.4,0-0.6,0c-0.2,0-0.4,0-0.6,0c-0.2,0-0.2-0.1-0.2-0.2c0-0.8,0.1-1.7,0.1-2.6V31c0-0.8,0-1.4-0.1-1.9
		c0.8,0.1,1.3,0.1,1.6,0.2c0.2,0,0.2,0.1,0.2,0.2s0,0.2-0.1,0.3c-0.1,0.1-0.1,0.5-0.1,1.2L218,33.1C218.1,33.1,218,33.1,218,33.1z"
		/>
	<path class="st4" d="M228,29c0.6,0.1,1.1,0.2,1.5,0.4c0.1,0,0.2,0.1,0.2,0.2s0,0.1-0.1,0.2s-0.2,0.2-0.2,0.3c0,0,0,0.1-0.1,0.2
		c-0.1,0.2-0.2,0.4-0.2,0.5c0.8-0.1,1.6-0.2,2.4-0.4h0.1c0.1,0,0.1,0,0.1,0.1c0.1,0.3,0.1,0.6,0.1,0.9l0,0c0,0.1-0.1,0.1-0.2,0.2
		c-1,0.1-2,0.3-3,0.4c-0.4,0.7-0.8,1.2-1,1.4l0,0c0.4-0.3,0.8-0.4,1.3-0.4c0.9,0,1.5,0.5,1.6,1.4c0.9-0.4,1.5-0.7,1.9-0.9
		s0.7-0.5,1-0.7c0.4,0.4,0.7,0.8,0.9,1.1c0.1,0.1,0.1,0.2,0.1,0.3s-0.1,0.2-0.2,0.2c-0.3,0-0.5,0.1-0.8,0.2c-1.3,0.4-2.2,0.8-2.8,1
		v2.1c0,0.1-0.1,0.2-0.2,0.2c-0.3,0-0.6,0.1-0.9,0.1c-0.1,0-0.2-0.1-0.2-0.2c0-0.7,0-1.3,0-1.6c-0.6,0.3-1,0.6-1.3,0.9
		c-0.2,0.2-0.3,0.5-0.3,0.8c0,0.6,0.6,0.9,1.8,0.9c0.9,0,2-0.1,3.2-0.3l0,0c0.1,0,0.1,0,0.1,0.1c0.1,0.4,0.1,0.7,0.1,1.1l0,0
		c0,0.1,0,0.2-0.1,0.2c-0.9,0.1-2,0.2-3.2,0.2c-2.2,0-3.3-0.7-3.3-2.1c0-0.7,0.2-1.3,0.7-1.8c0.4-0.5,1.1-0.9,2-1.4
		c0-0.4-0.1-0.6-0.2-0.7c-0.1-0.1-0.3-0.2-0.5-0.2c0,0,0,0-0.1,0c-0.5,0-1.1,0.3-1.8,0.9c-0.4,0.4-0.8,0.9-1.3,1.4
		c-0.1,0.1-0.1,0.1-0.2,0.1c0,0-0.1,0-0.1-0.1c-0.4-0.4-0.6-0.7-0.7-0.9l-0.1-0.1c0,0,0-0.1,0.1-0.1c1.2-1.1,2.1-2.1,2.7-3.2
		c-0.6,0-1.3,0-2.1,0c-0.1,0-0.2-0.1-0.2-0.2c0-0.2-0.1-0.5-0.1-1.1c0.4,0,0.9,0,1.3,0c0.5,0,1.1,0,1.7,0c0.2-0.4,0.3-0.8,0.4-1.1
		C228,29.5,228,29.3,228,29z"/>
	<path class="st4" d="M237.7,32H236c-0.1,0-0.1,0-0.1,0v-0.1v-1c0-0.1,0-0.1,0-0.1h0.1h1.7h3.1v-0.2c0-0.7,0-1.2-0.1-1.7
		c0.6,0,1.1,0,1.5,0.1c0.1,0,0.2,0.1,0.2,0.1s0,0.1-0.1,0.3c-0.1,0.2-0.1,0.5-0.1,1v0.3h3.3h1.7c0.1,0,0.1,0,0.1,0v0.1v1
		c0,0.1,0,0.1,0,0.1h-0.1h-1.7h-3.3v1.6h1.9c0.2,0,0.3,0,0.4-0.1c0.1,0,0.1-0.1,0.2-0.1s0.2,0.1,0.5,0.4s0.4,0.4,0.4,0.6
		c0,0.1-0.1,0.1-0.2,0.2s-0.2,0.2-0.3,0.3c-0.7,1.1-1.5,2-2.4,2.8c1.2,0.7,2.8,1.2,4.8,1.5c-0.2,0.3-0.4,0.6-0.6,1
		c-0.1,0.2-0.2,0.3-0.3,0.3s-0.2,0-0.3,0c-2.1-0.5-3.7-1.1-4.9-1.9c-1.2,0.8-2.8,1.4-4.7,1.9c-0.1,0-0.2,0.1-0.3,0.1
		s-0.2-0.1-0.3-0.3c-0.1-0.4-0.3-0.7-0.5-0.9c2-0.4,3.5-0.9,4.7-1.6c-0.9-0.8-1.6-1.8-2.1-3c-0.4,0-0.7,0-1,0h-0.3
		c-0.1,0-0.1,0-0.1,0v-0.1v-1c0-0.1,0-0.1,0-0.1h0.1h1.8h2v-1.6h-3L237.7,32L237.7,32z M243.6,34.9h-3.7c0.5,0.9,1.1,1.6,1.8,2.2
		C242.4,36.5,243,35.8,243.6,34.9z"/>
	<path class="st4" d="M248.8,39.3c0.2,0,0.6,0,1.1,0c0.2,0,0.3-0.1,0.3-0.4v-2.6l-0.5,0.2c-0.2,0.1-0.3,0.1-0.5,0.2
		c-0.1,0.1-0.1,0.1-0.2,0.1s-0.1-0.1-0.2-0.2c-0.1-0.3-0.2-0.7-0.2-1.2c0.4-0.1,0.8-0.1,1.2-0.2l0.4-0.1v-2.5H250h-1.1
		c-0.1,0-0.1,0-0.1,0v-0.1v-0.9c0-0.1,0-0.1,0-0.1h0.1h1.1h0.2v-0.8c0-0.7,0-1.3-0.1-1.8c0.5,0,0.9,0,1.3,0.1c0.1,0,0.2,0.1,0.2,0.1
		s0,0.1-0.1,0.3c-0.1,0.1-0.1,0.5-0.1,1.3v0.7h1c0.1,0,0.1,0,0.1,0v0.1v0.9c0,0.1,0,0.1,0,0.1h-0.1h-1v2.1c0.1-0.1,0.5-0.2,1-0.4
		c0,0.2-0.1,0.6-0.1,0.9c0,0.2,0,0.3-0.1,0.3c0,0-0.1,0.1-0.2,0.1c-0.2,0.1-0.4,0.2-0.7,0.3v0.5v2.6c0,0.7-0.1,1.1-0.4,1.3
		c-0.2,0.2-0.7,0.3-1.5,0.3c-0.1,0-0.1,0-0.2,0s-0.2,0-0.3-0.1c0,0-0.1-0.1-0.1-0.3C249.1,40,249,39.6,248.8,39.3z M251.6,39.7
		c1.4-1,2.3-2.5,2.8-4.4c-0.4,0-0.8,0-1.1,0c-0.2,0-0.3,0-0.3,0c-0.1,0-0.1,0-0.1,0v-0.1v-0.9c0-0.1,0-0.1,0-0.1h0.1h1.6
		c0-0.1,0-0.4,0.1-0.7h-1.5c-0.1,0-0.1,0-0.1,0v-0.1v-0.7c0-0.1,0-0.1,0-0.1h0.1h1.7h2.8c0.3-0.5,0.5-0.9,0.7-1.4
		c0.1-0.3,0.2-0.5,0.2-0.7c0.5,0.1,0.9,0.2,1.2,0.3c0.1,0,0.2,0.1,0.2,0.2s0,0.1-0.1,0.2s-0.1,0.1-0.2,0.2c-0.3,0.7-0.6,1.1-0.6,1.2
		h1.3c0.1,0,0.1,0,0.1,0v0.1v0.7c0,0.1,0,0.1,0,0.1h-0.1h-1.7h-2.5c0,0.3-0.1,0.5-0.1,0.7h2.8h1.7c0.1,0,0.1,0,0.1,0.1v0.9
		c0,0.1,0,0.1,0,0.1h-0.1h-1.7h-3c0,0.2-0.1,0.4-0.2,0.7h3c0.1,0,0.2,0,0.3-0.1c0.1,0,0.1,0,0.2,0s0.3,0.1,0.5,0.3s0.3,0.4,0.3,0.5
		s0,0.1-0.1,0.2s-0.2,0.2-0.3,0.4c-0.4,0.6-0.8,1.1-1.3,1.5c0.7,0.3,1.7,0.6,2.8,0.8c-0.1,0.2-0.3,0.4-0.4,0.8
		c-0.1,0.2-0.2,0.3-0.3,0.3c0,0-0.1,0-0.3-0.1c-1.1-0.3-2-0.7-2.8-1.1c-0.7,0.5-1.5,0.9-2.5,1.2c-0.1,0.1-0.2,0.1-0.3,0.1
		s-0.1-0.1-0.2-0.3c-0.1-0.2-0.3-0.5-0.5-0.7c1-0.2,1.8-0.5,2.5-1c-0.4-0.4-0.8-0.8-1.1-1.2c-0.5,1.1-1.2,2-2.1,2.7
		c-0.1,0.1-0.2,0.2-0.3,0.2s-0.1-0.1-0.2-0.2C252,40.1,251.8,39.9,251.6,39.7z M259.1,28.8c0.3,0.2,0.6,0.4,0.9,0.7
		c0.1,0.1,0.1,0.2,0.1,0.2c0,0.1-0.1,0.2-0.3,0.2c-0.1,0-0.3,0-0.6,0.1c-1.5,0.3-3.4,0.5-5.5,0.7c-0.1,0-0.2,0-0.2,0
		c-0.1,0-0.2,0-0.2-0.1c0,0-0.1-0.1-0.1-0.3c-0.1-0.3-0.2-0.5-0.4-0.7c2.2,0,4-0.2,5.6-0.5C258.6,29,258.9,28.9,259.1,28.8z
		 M254.5,30.8c0.2,0.3,0.4,0.6,0.6,1.1V32c0,0-0.1,0.1-0.2,0.1l-0.7,0.3c-0.1,0-0.1,0-0.2,0c0,0-0.1,0-0.1-0.1
		c-0.1-0.4-0.3-0.8-0.5-1.1c0-0.1-0.1-0.1-0.1-0.1s0-0.1,0.1-0.1l0.7-0.3c0.1,0,0.1,0,0.2,0S254.5,30.7,254.5,30.8z M257.9,36.9
		h-2.4c0.4,0.5,0.8,0.9,1.3,1.3C257.3,37.9,257.6,37.4,257.9,36.9z M255.7,31C255.7,31,255.7,30.9,255.7,31c0-0.1,0-0.2,0.2-0.2
		l0.6-0.2c0.1,0,0.1,0,0.2,0c0,0,0.1,0,0.1,0.1c0.2,0.4,0.4,0.8,0.6,1.2V32c0,0.1-0.1,0.1-0.2,0.1l-0.7,0.3c-0.1,0-0.1,0.1-0.2,0.1
		c0,0-0.1,0-0.1-0.1C256.1,31.9,255.9,31.5,255.7,31z"/>
	<path class="st4" d="M263,29.5c0.8,0.1,1.4,0.2,1.6,0.2c0.2,0.1,0.3,0.1,0.3,0.2s0,0.2-0.1,0.4c-0.1,0.2-0.1,0.7-0.2,1.6
		c-0.1,2-0.2,3.7-0.2,5c0,0.7,0.1,1.2,0.2,1.3c0.2,0.2,0.5,0.3,1,0.3c0.7,0,1.4-0.2,2.3-0.6c0.8-0.4,1.6-1,2.3-1.8
		c0,0.5,0.1,0.9,0.3,1.2c0.1,0.2,0.1,0.3,0.1,0.3c0,0.1-0.1,0.3-0.3,0.4c-0.7,0.7-1.6,1.2-2.5,1.5c-0.8,0.3-1.6,0.4-2.4,0.4
		c-0.9,0-1.6-0.2-1.9-0.7c-0.3-0.4-0.5-1.1-0.5-2c0-0.8,0.1-2.7,0.2-5.6c0-0.4,0-0.7,0-0.9C263.1,30.4,263.1,29.9,263,29.5z"/>
	<path class="st4" d="M276.1,36.9c0-0.8-0.1-1.3-0.1-1.5c-0.4,0-0.7,0-1,0c-0.6,0-1.2,0-1.7-0.1c-0.1,0-0.2-0.1-0.2-0.2
		c-0.1-0.3-0.1-0.7-0.1-1.1c0.7,0.1,1.4,0.1,2.1,0.1c0.3,0,0.5,0,0.8,0v-1.5c-0.5,0-1,0-1.3,0c-0.7,0-1.3,0-1.8-0.1
		c-0.1,0-0.2-0.1-0.2-0.2c0-0.3-0.1-0.7-0.1-1.2c0.8,0.1,1.9,0.1,3.4,0.1c0-0.2,0-0.7,0-1.3c0-0.3-0.1-0.6-0.2-0.9
		c0.7,0,1.3,0.1,1.6,0.2c0.1,0,0.2,0.1,0.2,0.2s0,0.1,0,0.1c-0.1,0.2-0.2,0.5-0.2,0.6s0,0.2,0,0.4c0,0.2,0,0.3,0,0.4
		c1-0.1,1.9-0.2,2.8-0.4h0.1c0.1,0,0.1,0.1,0.1,0.2c0,0.3,0.1,0.6,0.1,0.9c0,0.1,0,0.2-0.1,0.2c-0.9,0.2-1.9,0.3-3,0.3v1.5
		c0.4,0,1.2-0.1,2.5-0.3h0.1c0.1,0,0.1,0,0.1,0.1c0,0.5,0,0.9,0,1.1c0,0.1-0.1,0.2-0.2,0.2c-0.9,0.1-1.8,0.3-2.5,0.3
		c0,0.9,0.1,1.5,0.1,1.8c1.3,0.3,2.4,0.9,3.4,1.6c0.1,0.1,0.1,0.1,0.1,0.2v0.1c-0.1,0.4-0.3,0.7-0.6,1c0,0.1-0.1,0.1-0.2,0.1
		s-0.1,0-0.1-0.1c-0.7-0.6-1.6-1.1-2.6-1.5c0,0.7-0.3,1.3-0.7,1.6c-0.4,0.3-1,0.4-1.9,0.4s-1.6-0.2-2-0.6c-0.4-0.3-0.6-0.7-0.6-1.2
		c0-0.6,0.3-1,0.8-1.4c0.5-0.3,1.1-0.5,1.8-0.5C275.3,36.8,275.7,36.8,276.1,36.9z M276.2,38.1c-0.4-0.1-0.8-0.2-1.2-0.2
		c-0.9,0-1.4,0.2-1.4,0.7c0,0.4,0.4,0.6,1.3,0.6c0.6,0,1-0.1,1.2-0.4C276.1,38.7,276.2,38.5,276.2,38.1z"/>
	<path class="st4" d="M288.4,31.2c0-0.1,0-0.3,0-0.6c0-0.2,0-0.4,0-0.5c0-0.3-0.1-0.6-0.2-1c0.6,0,1.1,0.1,1.5,0.2
		c0.2,0,0.4,0.1,0.4,0.2s0,0.2-0.1,0.3c0,0.1-0.1,0.2-0.1,0.4c0,0.1,0,0.3,0,0.8c1.2,0,2.5-0.1,4-0.1c0.1,0,0.1,0,0.2,0
		c0,0,0,0.1,0,0.2c0,0.2,0,0.3,0,0.5s0,0.3,0,0.5c0,0.1-0.1,0.2-0.2,0.2c0,0,0,0-0.1,0c-0.8,0-1.6,0-2.5,0c-0.5,0-1,0-1.5,0
		c0,1.1,0,1.9,0,2.4c0.1,0.4,0.2,0.8,0.2,1.3c0,1.8-0.8,3.2-2.3,4.2c-0.3,0.2-0.4,0.2-0.5,0.2s-0.2-0.1-0.4-0.2
		c-0.3-0.2-0.6-0.4-1-0.5c0.8-0.4,1.4-0.8,1.9-1.4c0.4-0.5,0.7-1,0.8-1.5c-0.2,0.3-0.6,0.5-1.2,0.5s-1-0.2-1.4-0.6
		c-0.3-0.4-0.5-0.8-0.5-1.4s0.2-1.1,0.7-1.5c0.4-0.3,0.8-0.5,1.3-0.5s0.8,0.1,1,0.3v-1.3c-1.9,0.1-3.4,0.2-4.5,0.4
		c-0.1,0-0.2,0-0.4,0.1c-0.1,0-0.2,0.1-0.2,0.1c-0.1,0-0.2-0.1-0.2-0.2c-0.1-0.2-0.2-0.7-0.3-1.3c0.1,0,0.3,0,0.4,0s0.5,0,1.2-0.1
		C285.1,31.4,286.4,31.3,288.4,31.2z M287.6,34.6c-0.2,0-0.5,0.1-0.6,0.2s-0.2,0.4-0.2,0.6c0,0.3,0.1,0.5,0.3,0.7
		c0.1,0.1,0.3,0.2,0.6,0.2c0.3,0,0.5-0.1,0.7-0.3s0.2-0.4,0.2-0.6c0-0.3-0.1-0.5-0.3-0.6C288,34.6,287.8,34.6,287.6,34.6z"/>
	<path class="st4" d="M299.1,29.4l-0.3,7.7h-1.3l-0.4-7.7C297.1,29.4,299.1,29.4,299.1,29.4z M297.1,38.4h1.8v1.8h-1.8V38.4z"/>
</g>
<g id="グループ_877" transform="translate(-321.301 -2588.843)">
	<path id="パス_1131" class="st2" d="M394.2,2659.6c-10.6-6.7-29.5-1.5-29.6-1.4c-0.8,0.2-1.7-0.2-1.9-1.1c0-0.1,0-0.2-0.1-0.3
		l-0.2-2c-6,3.6-5.5,9-5.5,9.2c0,0,0,0,0,0l0,0c0,1.6,0.8,3.2,2.1,4.2c2.3,1.7,5.9,0.9,5.9,0.9v0c0.1,0,0.2,0,0.3,0l0,0
		c9.3,0,23.3,0,24.7,0c1-0.2,1.5,0.6,2,1.4c0.3,0.4,0.6,1,1.1,1.8c0.9,1.5,2.1,3.4,3.3,5.3c1.9,3.1,3.7,6.1,4.4,7.3
		c0.1,0,0.2,0.1,0.3,0.1C401.7,2678.9,402.1,2664.7,394.2,2659.6z"/>
	<path id="パス_1133" class="st2" d="M354.4,2667.1c-2.4,2.9-2.7,7.5-2.4,11.1c0.2,2.5,0.7,5.1,1.3,7.5c0.7-0.4,1.4-0.8,2.2-1
		l0.1,0l6.9-12.2c-1.9,0-3.7-0.6-5.3-1.6C355.9,2669.9,354.9,2668.6,354.4,2667.1z"/>
	<path id="パス_1135" class="st3" d="M385.1,2703.9l-2.2-2.2c-2.8,2.8-7.3,2.8-10.1,0l-2.2,2.2
		C374.6,2707.9,381,2707.9,385.1,2703.9L385.1,2703.9z"/>
	<path id="パス_1136" class="st3" d="M378.6,2698.7l2.2-2.2l-2.7-2.7l2.7-2.7l-2.2-2.2l-3.8,3.8c-0.6,0.6-0.6,1.6,0,2.2
		L378.6,2698.7z"/>
	<path id="パス_1137" class="st3" d="M371.4,2690.1c0-1.3-1.1-2.4-2.4-2.4s-2.4,1.1-2.4,2.4s1.1,2.4,2.4,2.4
		S371.4,2691.5,371.4,2690.1L371.4,2690.1z"/>
	<path id="パス_1138" class="st3" d="M386.6,2692.5c1.3,0,2.4-1.1,2.4-2.4s-1.1-2.4-2.4-2.4c-1.3,0-2.4,1.1-2.4,2.4
		S385.3,2692.5,386.6,2692.5L386.6,2692.5z"/>
	<path id="パス_1139" class="st3" d="M417,2728.6l-26.3-5.4V2713c0.8-0.6,1.6-1.2,2.3-1.9c3.1-3.1,5.4-6.9,6.6-11.1
		c1.4-0.4,2.7-1.1,3.8-2.1c2.5-2.1,3.3-5.5,2.2-8.5c-0.4-0.8-0.9-1.5-1.5-2.1c0,0-0.1-0.1-0.1-0.1c0.7-5.5,2.3-23.5-8.1-30.1
		c-9.8-6.3-25.1-3.5-30.4-2.3l-0.2-2.4c-0.1-0.9-0.8-1.5-1.7-1.4c-0.2,0-0.3,0.1-0.5,0.1c-7.4,3.2-9.3,9-9.4,12.5
		c-8.2,6.1-4.1,21.3-3,24.8c-0.2,0.3-0.4,0.7-0.6,1.1c-1.2,3-0.3,6.4,2.2,8.5c1.1,0.9,2.4,1.7,3.8,2.1c1.2,4.2,3.5,8,6.6,11.1
		c0.7,0.7,1.5,1.3,2.3,1.9v10.3l-26.3,5.4c-7,1.4-12,7.6-12,14.7v20.9c0,0.9,0.7,1.6,1.6,1.6l0,0h99.3c0.9,0,1.6-0.7,1.6-1.6l0,0
		v-20.9C429,2736.2,424,2730,417,2728.6z M362.4,2654.9l0.2,2c0.1,0.9,0.9,1.5,1.7,1.4c0.1,0,0.2,0,0.3-0.1
		c0.2-0.1,19.1-5.3,29.6,1.4c7.9,5.1,7.5,19.3,6.8,25.5c-0.1,0-0.2-0.1-0.3-0.1c-0.7-1.1-2.6-4.2-4.4-7.3c-1.2-1.9-2.4-3.9-3.3-5.3
		c-0.4-0.7-0.8-1.3-1.1-1.8c-0.5-0.8-1-1.6-2-1.4c-1.4,0-15.4,0-24.7,0l0,0c-0.1,0-0.2,0-0.3,0v0c0,0-3.6,0.8-5.9-0.9
		c-1.3-1-2-2.6-2.1-4.2l0,0c0,0,0,0,0,0C356.9,2663.8,356.4,2658.4,362.4,2654.9L362.4,2654.9z M354.4,2667.1
		c0.5,1.5,1.5,2.8,2.8,3.7c1.6,1.1,3.4,1.6,5.3,1.6l-6.9,12.2l-0.1,0c-0.8,0.3-1.5,0.6-2.2,1c-0.7-2.5-1.1-5-1.3-7.5
		C351.7,2674.6,352,2670,354.4,2667.1L354.4,2667.1z M364.8,2708.8c-2.9-2.9-5-6.6-6-10.6c-0.2-0.5-0.6-1-1.1-1.1
		c-1.2-0.3-2.4-0.8-3.3-1.6c-1.4-1.2-2-3.1-1.4-4.9c0.2-0.5,0.5-0.9,0.9-1.2c0.7-0.7,1.5-1.2,2.4-1.6l0.3,0c0.5,0,1-0.3,1.3-0.8
		l8.3-14.7c2,0,6.7,0,11.5,0c3.1,0,6.2,0,8.6,0c1.4,0,2.4,0,3.1,0c1.4,2.3,5.9,9.7,9,14.8c0.2,0.3,0.5,0.6,0.9,0.7
		c1,0.3,1.9,0.9,2.6,1.6c0.4,0.4,0.7,0.8,0.9,1.2c0.6,1.8,0,3.7-1.4,4.9c-1,0.8-2.1,1.4-3.3,1.6c-0.5,0.1-1,0.6-1.1,1.1
		c-1,4-3.1,7.6-6,10.6C383.6,2715.8,372.1,2715.8,364.8,2708.8L364.8,2708.8z M366.8,2726.1c0.7-0.1,1.3-0.8,1.3-1.5v-9.7
		c3,1.5,6.3,2.3,9.7,2.4h0.1c3.4-0.1,6.7-0.9,9.7-2.4v9.7c0,0.7,0.5,1.4,1.3,1.5l4.3,0.9c-1.9,3.4-8.9,5.7-15.3,5.7
		s-13.5-2.3-15.3-5.7L366.8,2726.1z M425.9,2762.7h-96.1v-19.4c0-5.6,4-10.5,9.5-11.6l20.1-4.1c1.9,4.8,9.3,8.2,18.4,8.2
		c9.1,0,16.5-3.5,18.4-8.2l20.1,4.1c5.5,1.1,9.5,6,9.5,11.6L425.9,2762.7z"/>
	<path id="パス_1140" class="st2" d="M377.8,2739.2c-1.2,0-2.1,0.9-2.1,2.1c0,1.2,0.9,2.1,2.1,2.1c1.2,0,2.1-0.9,2.1-2.1
		C379.9,2740.2,379,2739.2,377.8,2739.2C377.8,2739.2,377.8,2739.2,377.8,2739.2z"/>
	<path id="パス_1141" class="st2" d="M377.8,2754.7c-1.2,0-2.1,0.9-2.1,2.1c0,1.2,0.9,2.1,2.1,2.1c1.2,0,2.1-0.9,2.1-2.1
		C379.9,2755.6,379,2754.7,377.8,2754.7C377.8,2754.7,377.8,2754.7,377.8,2754.7z"/>
</g>
</svg>
