<?xml version="1.0" encoding="utf-8"?>
<!-- Generator: Adobe Illustrator 25.2.3, SVG Export Plug-In . SVG Version: 6.00 Build 0)  -->
<svg version="1.1" id="レイヤー_1" xmlns="http://www.w3.org/2000/svg" xmlns:xlink="http://www.w3.org/1999/xlink" x="0px"
	 y="0px" viewBox="0 0 350 190" style="enable-background:new 0 0 350 190;" xml:space="preserve">
<style type="text/css">
	.st0{fill:#FFFFFF;}
	.st1{enable-background:new    ;}
	.st2{fill:#00AEBD;}
	.st3{fill:none;}
	.st4{fill:#555353;}
	.st5{fill:none;stroke:#555353;stroke-width:3;stroke-linejoin:round;}
</style>
<rect class="st0" width="350" height="190"/>
<g class="st1">
	<path class="st2" d="M79.1,32.5h-1.7c-0.1,0-0.1,0-0.1-0.1v-1.3c0-0.1,0-0.1,0.1-0.1h1.7h7.8h1.7c0.1,0,0.1,0,0.1,0.1v1.3
		c0,0.1,0,0.1-0.1,0.1h-1.7H79.1z"/>
	<path class="st2" d="M96.6,31h-1.7c-0.1,0-0.1,0-0.1,0c0.1,0.4,0.3,0.9,0.4,1.4c0,0,0,0,0,0.1s-0.1,0.1-0.2,0.2l-0.6,0.2
		c-0.1,0-0.1,0-0.1,0s-0.1,0-0.1-0.1l-0.1-0.4l-0.8,0.1v3.6v1.7c0,0.1,0,0.1,0,0.1h-0.1h-1c-0.1,0-0.1,0-0.1,0v-0.1v-1.7v-3.4
		l-1,0.1c-0.2,0-0.4,0-0.5,0.1c-0.1,0-0.1,0.1-0.2,0.1c-0.1,0-0.1-0.1-0.2-0.2c-0.1-0.4-0.1-0.7-0.1-1.1c0.3,0,0.6,0.1,0.9,0.1
		c0.2-0.2,0.4-0.5,0.7-1c-0.5-0.7-1.1-1.3-1.7-1.9l-0.1-0.1c0,0,0-0.1,0.1-0.2l0.5-0.6c0.1-0.1,0.1-0.1,0.1-0.1s0.1,0,0.1,0.1
		l0.3,0.3c0.3-0.5,0.6-1,0.8-1.4c0.1-0.2,0.2-0.4,0.2-0.7c0.4,0.1,0.8,0.3,1.1,0.5c0.1,0.1,0.2,0.1,0.2,0.2s0,0.1-0.1,0.2
		S93,27.3,93,27.4c-0.4,0.7-0.8,1.3-1.1,1.8l0.5,0.6c0.3-0.5,0.6-1,0.9-1.5c0.2-0.3,0.3-0.6,0.4-0.8c0.6,0.2,0.9,0.4,1.1,0.5
		c0.1,0.1,0.2,0.1,0.2,0.2s0,0.1-0.1,0.2s-0.2,0.2-0.4,0.5c-0.7,1.1-1.4,2.1-2,2.9c0.3,0,0.8,0,1.5-0.1c-0.1-0.3-0.2-0.6-0.3-0.9
		v-0.1c0-0.1,0.1-0.1,0.2-0.1l0.6-0.2h0.1c0,0,0.1,0,0.1,0.1c0.1,0.2,0.2,0.5,0.3,0.8v-0.9c0-0.1,0-0.1,0-0.1h0.1h1.7h0.3V29h-0.2
		h-1.3c-0.1,0-0.1,0-0.1,0v-0.1V28c0-0.1,0-0.1,0-0.1h0.1h1.3h0.2v-0.1c0-0.7,0-1.1-0.1-1.4c0.4,0,0.9,0,1.3,0.1
		c0.1,0,0.2,0,0.2,0.1s0,0.1-0.1,0.3c0,0.1-0.1,0.3-0.1,0.8v0.2l0,0h1.3c0.1,0,0.1,0,0.1,0V28v0.9c0,0.1,0,0.1,0,0.1h-0.1h-1.3l0,0
		v1.3h0.5c0.6-0.8,1.2-1.6,1.6-2.6c0.1-0.3,0.2-0.6,0.3-0.9c0.5,0.2,0.9,0.4,1.1,0.5c0.1,0.1,0.2,0.1,0.2,0.2s0,0.1-0.1,0.2
		s-0.2,0.3-0.4,0.5c-0.4,0.7-0.8,1.4-1.3,2h1.7c0.1,0,0.1,0,0.1,0v0.1v0.9c0,0.1,0,0.1,0,0.1h-0.1h-1.7h-0.9c-0.3,0.3-0.6,0.7-1,1
		h1.5h1.3c0.1,0,0.1,0,0.1,0v0.1v1.8v1.4v2.3c0,0.1,0,0.1,0,0.1h-0.1h-1c-0.1,0-0.1,0-0.1,0v-0.1v-0.4h-2.7v0.4c0,0.1,0,0.1,0,0.1
		h-0.1h-1c-0.1,0-0.1,0-0.1,0v-0.1v-2.2v-1.8c-0.2,0.1-0.3,0.2-0.3,0.2c-0.2,0.1-0.3,0.2-0.3,0.2c-0.1,0-0.2-0.1-0.3-0.3
		c-0.2-0.3-0.3-0.5-0.5-0.7c1.2-0.6,2.2-1.3,3.1-2.1h-1.2V31z M90,36.5c0.3-0.7,0.5-1.5,0.5-2.4c0-0.2,0-0.4,0-0.6
		c0-0.1,0-0.2,0-0.2c0.5,0.1,0.8,0.1,1,0.2c0.1,0,0.2,0.1,0.2,0.2s0,0.1-0.1,0.2c0,0.1-0.1,0.2-0.1,0.5c-0.1,0.9-0.3,1.7-0.5,2.4
		c-0.1,0.2-0.1,0.3-0.2,0.3c-0.1,0-0.2-0.1-0.3-0.2C90.5,36.8,90.3,36.6,90,36.5z M94.3,33.4C94.4,33.4,94.4,33.4,94.3,33.4
		c0.1,0,0.2,0,0.2,0.1c0.2,0.7,0.4,1.5,0.6,2.3c0,0.1,0,0.1,0,0.1c0,0.1-0.1,0.1-0.2,0.1l-0.6,0.2c-0.1,0-0.1,0-0.2,0
		c-0.1,0-0.1,0-0.1-0.1c-0.1-1-0.2-1.8-0.5-2.4v-0.1c0-0.1,0.1-0.1,0.2-0.1L94.3,33.4z M99.9,33.1h-2.7v1h2.7V33.1z M97.2,36.1h2.7
		V35h-2.7V36.1z"/>
	<path class="st2" d="M104.6,26.9c0.6,0.1,1.1,0.3,1.4,0.5c0.2,0.1,0.3,0.2,0.3,0.3c0,0.1-0.1,0.2-0.2,0.4c-0.1,0.2-0.2,0.5-0.3,0.9
		c-0.4,1.6-0.5,3-0.5,4.2c0,0.6,0,1.1,0.1,1.5c0.6-1.3,0.9-1.9,0.9-1.9c0,0.1,0.2,0.4,0.5,0.8c0.1,0.1,0.1,0.2,0.1,0.2
		c0,0.1,0,0.1-0.1,0.2c-0.4,0.8-0.6,1.5-0.7,2c0,0.1,0,0.2,0,0.4v0.4c0,0.1-0.1,0.1-0.2,0.2c-0.4,0.1-0.7,0.2-1.1,0.2l0,0
		c-0.1,0-0.1,0-0.1-0.1c-0.2-0.5-0.3-1.1-0.5-1.9c-0.1-0.7-0.1-1.3-0.1-1.9c0-1.2,0.1-2.6,0.4-4.3C104.6,28,104.6,27.3,104.6,26.9z
		 M107.6,33.6l1.2-0.1l0,0c0.1,0,0.1,0.1,0.1,0.2c0,0.5,0.3,0.8,0.6,1s0.8,0.2,1.5,0.2s1.5-0.1,2.5-0.2c0,0,0,0,0.1,0
		s0.1,0.1,0.1,0.2c0.1,0.4,0.1,0.7,0.1,1.1c0,0.1,0,0.1,0,0.2c0,0-0.1,0-0.2,0c-0.8,0.1-1.5,0.1-2.1,0.1c-1,0-1.8-0.1-2.3-0.3
		c-0.4-0.2-0.8-0.4-1.1-0.8C107.8,34.9,107.6,34.4,107.6,33.6z M108,29.9c0-0.7,0-1.2,0-1.3c0-0.1,0.1-0.2,0.2-0.2
		c0.8-0.2,1.8-0.2,2.8-0.2c0.7,0,1.4,0,1.9,0.1c0.1,0,0.2,0,0.3,0.1v0.1c0,0.5,0,0.9,0,1.1c0,0.1-0.1,0.2-0.1,0.2l0,0
		c-0.8-0.1-1.5-0.1-2.1-0.1C110.1,29.6,109.2,29.7,108,29.9z"/>
	<path class="st2" d="M117.2,29.1h-1.7c-0.1,0-0.1,0-0.1,0V29v-1c0-0.1,0-0.1,0-0.1h0.1h1.7h3.1v-0.2c0-0.7,0-1.2-0.1-1.7
		c0.6,0,1.1,0,1.5,0.1c0.1,0,0.2,0.1,0.2,0.1s0,0.1-0.1,0.3c-0.1,0.2-0.1,0.5-0.1,1v0.3h3.3h1.7c0.1,0,0.1,0,0.1,0v0.1v1
		c0,0.1,0,0.1,0,0.1h-0.1H125h-3.2v1.6h1.9c0.2,0,0.3,0,0.4-0.1c0.1,0,0.1-0.1,0.2-0.1c0.1,0,0.2,0.1,0.5,0.4s0.4,0.4,0.4,0.6
		c0,0.1-0.1,0.1-0.2,0.2c-0.1,0.1-0.2,0.2-0.3,0.3c-0.7,1.1-1.5,2-2.4,2.8c1.2,0.7,2.8,1.2,4.8,1.5c-0.2,0.3-0.4,0.6-0.6,1
		c-0.1,0.2-0.2,0.3-0.3,0.3s-0.2,0-0.3,0c-2.1-0.5-3.7-1.1-4.9-1.9c-1.2,0.8-2.8,1.4-4.7,1.9c-0.1,0-0.2,0.1-0.3,0.1
		s-0.2-0.1-0.3-0.3c-0.1-0.4-0.3-0.7-0.5-0.9c2-0.4,3.5-0.9,4.7-1.6c-0.9-0.8-1.6-1.8-2.1-3c-0.4,0-0.7,0-1,0h-0.3
		c-0.1,0-0.1,0-0.1,0v-0.1v-1c0-0.1,0-0.1,0-0.1h0.1h1.8h2V29h-3.1V29.1z M123.1,32h-3.7c0.5,0.9,1.1,1.6,1.8,2.2
		C121.9,33.6,122.5,32.8,123.1,32z"/>
	<path class="st2" d="M128.3,36.4c0.2,0,0.6,0,1.1,0c0.2,0,0.3-0.1,0.3-0.4v-2.6l-0.5,0.2c-0.2,0.1-0.3,0.1-0.5,0.2
		c-0.1,0.1-0.1,0.1-0.2,0.1c-0.1,0-0.1-0.1-0.2-0.2c-0.1-0.3-0.2-0.7-0.2-1.2c0.4-0.1,0.8-0.1,1.2-0.2l0.4-0.1v-2.5h-0.2h-1.1
		c-0.1,0-0.1,0-0.1,0v-0.1v-0.9c0-0.1,0-0.1,0-0.1h0.1h1.1h0.2v-0.7c0-0.7,0-1.3-0.1-1.8c0.5,0,0.9,0,1.3,0.1c0.1,0,0.2,0.1,0.2,0.1
		s0,0.1-0.1,0.3c-0.1,0.1-0.1,0.5-0.1,1.3v0.7h1c0.1,0,0.1,0,0.1,0v0.1v0.9c0,0.1,0,0.1,0,0.1h-0.1h-1v2.1c0.1-0.1,0.5-0.2,1-0.4
		c0,0.2-0.1,0.6-0.1,0.9c0,0.2,0,0.3-0.1,0.3c0,0-0.1,0.1-0.2,0.1c-0.2,0.1-0.4,0.2-0.7,0.3v0.5v2.6c0,0.7-0.1,1.1-0.4,1.3
		c-0.2,0.2-0.7,0.3-1.5,0.3c-0.1,0-0.1,0-0.2,0c-0.1,0-0.2,0-0.3-0.1c0,0-0.1-0.1-0.1-0.3C128.6,37,128.5,36.7,128.3,36.4z
		 M131.1,36.8c1.4-1,2.3-2.5,2.8-4.4c-0.4,0-0.8,0-1.1,0c-0.2,0-0.3,0-0.3,0c-0.1,0-0.1,0-0.1,0v-0.1v-0.9c0-0.1,0-0.1,0-0.1h0.1
		h1.6c0-0.1,0-0.4,0.1-0.7h-1.5c-0.1,0-0.1,0-0.1,0v-0.1v-0.8c0-0.1,0-0.1,0-0.1h0.1h1.7h2.8c0.3-0.5,0.5-0.9,0.7-1.4
		c0.1-0.3,0.2-0.5,0.2-0.7c0.5,0.1,0.9,0.2,1.2,0.3c0.1,0,0.2,0.1,0.2,0.2s0,0.1-0.1,0.2s-0.1,0.1-0.2,0.2c-0.3,0.7-0.6,1.1-0.6,1.2
		h1.3c0.1,0,0.1,0,0.1,0v0.1v0.7c0,0.1,0,0.1,0,0.1h-0.1h-1.7h-2.5c0,0.3-0.1,0.5-0.1,0.7h2.8h1.7c0.1,0,0.1,0,0.1,0.1v0.9
		c0,0.1,0,0.1,0,0.1h-0.1h-1.7h-3c0,0.2-0.1,0.4-0.2,0.7h3c0.1,0,0.2,0,0.3-0.1c0.1,0,0.1,0,0.2,0c0.1,0,0.3,0.1,0.5,0.3
		c0.2,0.2,0.3,0.4,0.3,0.5s0,0.1-0.1,0.2s-0.2,0.2-0.3,0.4c-0.4,0.6-0.8,1.1-1.3,1.5c0.7,0.3,1.7,0.6,2.8,0.8
		c-0.1,0.2-0.3,0.4-0.4,0.8c-0.1,0.2-0.2,0.3-0.3,0.3c0,0-0.1,0-0.3-0.1c-1.1-0.3-2-0.7-2.8-1.1c-0.7,0.5-1.5,0.9-2.5,1.2
		c-0.1,0.1-0.2,0.1-0.3,0.1s-0.1-0.1-0.2-0.3c-0.1-0.2-0.3-0.5-0.5-0.7c1-0.2,1.8-0.5,2.5-1c-0.4-0.4-0.8-0.8-1.1-1.2
		c-0.5,1.1-1.2,2-2.1,2.7c-0.1,0.1-0.2,0.2-0.3,0.2s-0.1-0.1-0.2-0.2C131.6,37.2,131.4,37,131.1,36.8z M138.6,25.9
		c0.3,0.2,0.6,0.4,0.9,0.7c0.1,0.1,0.1,0.2,0.1,0.2c0,0.1-0.1,0.2-0.3,0.2c-0.1,0-0.3,0-0.6,0.1c-1.5,0.3-3.4,0.5-5.5,0.7
		c-0.1,0-0.2,0-0.2,0c-0.1,0-0.2,0-0.2-0.1c0,0-0.1-0.1-0.1-0.3c-0.1-0.3-0.2-0.5-0.4-0.7c2.2,0,4-0.2,5.6-0.5
		C138.1,26.1,138.4,26,138.6,25.9z M134,27.9c0.2,0.3,0.4,0.6,0.6,1.1v0.1c0,0-0.1,0.1-0.2,0.1l-0.7,0.3c-0.1,0-0.1,0-0.2,0
		c0,0-0.1,0-0.1-0.1c-0.1-0.4-0.3-0.8-0.5-1.1c0-0.1-0.1-0.1-0.1-0.1s0-0.1,0.1-0.1l0.7-0.3c0.1,0,0.1,0,0.2,0
		C134,27.8,134,27.8,134,27.9z M137.4,34H135c0.4,0.5,0.8,0.9,1.3,1.3C136.8,34.9,137.1,34.5,137.4,34z M135.2,28.1
		C135.2,28,135.2,28,135.2,28.1c0-0.1,0-0.2,0.2-0.2l0.6-0.2c0.1,0,0.1,0,0.2,0c0,0,0.1,0,0.1,0.1c0.2,0.4,0.4,0.8,0.6,1.2v0.1
		c0,0.1-0.1,0.1-0.2,0.1l-0.7,0.3c-0.1,0-0.1,0.1-0.2,0.1c0,0-0.1,0-0.1-0.1C135.6,29,135.5,28.5,135.2,28.1z"/>
	<path class="st2" d="M142.5,26.6c0.8,0.1,1.4,0.2,1.6,0.2c0.2,0.1,0.3,0.1,0.3,0.2s0,0.2-0.1,0.4c-0.1,0.2-0.1,0.7-0.2,1.6
		c-0.1,2-0.2,3.7-0.2,5c0,0.7,0.1,1.2,0.2,1.3c0.2,0.2,0.5,0.3,1,0.3c0.7,0,1.4-0.2,2.3-0.6c0.8-0.4,1.6-1,2.3-1.8
		c0,0.5,0.1,0.9,0.3,1.2c0.1,0.2,0.1,0.3,0.1,0.3c0,0.1-0.1,0.3-0.3,0.4c-0.7,0.7-1.6,1.2-2.5,1.5c-0.8,0.3-1.6,0.4-2.4,0.4
		c-0.9,0-1.6-0.2-1.9-0.7c-0.3-0.4-0.5-1.1-0.5-2c0-0.8,0.1-2.7,0.2-5.6c0-0.4,0-0.7,0-0.9C142.7,27.5,142.6,27,142.5,26.6z"/>
	<path class="st2" d="M151.3,28.5c0.5,0,1.2-0.1,2.1-0.2c3.5-0.5,6.1-0.9,7.8-1.1h0.1c0.1,0,0.2,0,0.2,0.1c0.1,0.4,0.1,0.8,0.1,1.1
		c0,0.1-0.1,0.2-0.2,0.2c-0.6,0-1.1,0.1-1.6,0.3c-1.1,0.4-2,1-2.6,1.8c-0.5,0.6-0.7,1.3-0.7,2.1c0,1.7,1.2,2.6,3.5,2.7
		c0.2,0,0.3,0.1,0.3,0.2c0,0.4,0,0.8-0.1,1.1c0,0.2-0.1,0.3-0.2,0.3c-1.4,0-2.5-0.4-3.4-1.1s-1.4-1.7-1.4-2.9c0-0.9,0.2-1.8,0.7-2.5
		c0.4-0.6,1-1.1,1.8-1.6l0,0c-1.5,0.3-3,0.6-4.4,0.9c-0.4,0.1-0.7,0.2-0.8,0.2c-0.2,0.1-0.3,0.1-0.3,0.1c-0.1,0-0.2-0.1-0.2-0.2
		C151.6,29.6,151.5,29.2,151.3,28.5z"/>
	<path class="st2" d="M168.4,26.3c0.6,0.4,1.1,0.7,1.4,1c0.1,0.1,0.1,0.1,0.1,0.2s-0.1,0.2-0.2,0.2c-0.2,0.1-0.4,0.3-0.6,0.5
		c-1.4,1.3-2.6,2.4-3.5,3.4c-0.1,0.1-0.2,0.2-0.2,0.3c0,0.1,0.1,0.1,0.2,0.2c2,1.4,3.6,2.8,4.8,4.1c0.1,0.1,0.1,0.1,0.1,0.2
		c0,0,0,0.1-0.1,0.2c-0.3,0.4-0.6,0.7-0.9,0.9c-0.1,0.1-0.1,0.1-0.2,0.1s-0.1,0-0.2-0.1c-1.5-1.6-3-3.1-4.7-4.4
		c-0.5-0.4-0.7-0.7-0.7-1.1c0-0.2,0.1-0.4,0.2-0.6c0.1-0.1,0.2-0.3,0.4-0.5c0.3-0.4,0.9-1,1.8-1.9c0.6-0.7,1.2-1.2,1.5-1.6
		C168,26.9,168.2,26.6,168.4,26.3z"/>
	<path class="st2" d="M175.1,26.3c0.7,0.1,1.2,0.2,1.5,0.2c0.2,0,0.3,0.1,0.3,0.3c0,0.1,0,0.1-0.1,0.2s-0.1,0.3-0.1,0.6
		c0,0.3,0,0.8-0.1,1.3c0.2,0.1,0.4,0.2,0.5,0.3c0.1,0.1,0.1,0.1,0.1,0.2c0,0,0,0.1-0.1,0.1c-0.2,0.4-0.5,0.8-0.7,1.2v0.1
		c0.4-0.4,0.8-0.8,1.2-1.3c0.9-0.9,1.7-1.3,2.3-1.3c0.5,0,0.9,0.2,1.2,0.5c0.2,0.3,0.4,0.7,0.4,1.2c0,0.7,0,1.5-0.1,2.4
		c0,0.3,0,0.8-0.1,1.5c0,0.3,0,0.6,0,0.7c0,0.3,0,0.5,0.1,0.6s0.2,0.1,0.3,0.1c0.3,0,0.6-0.2,1-0.5c0.3-0.2,0.5-0.6,0.8-1.1
		c0.2,0.4,0.3,0.8,0.5,1c0.1,0.1,0.1,0.2,0.1,0.3c0,0.1,0,0.1-0.1,0.2c-0.7,1-1.5,1.5-2.5,1.5c-1.1,0-1.7-0.7-1.7-2
		c0-0.3,0-1,0.1-2.2c0.1-1.1,0.1-1.8,0.1-2.1c0-0.6-0.1-0.9-0.4-0.9c-0.3,0-0.8,0.3-1.5,0.8c-0.7,0.7-1.3,1.3-1.8,1.9
		c0,0.3,0,1.2,0,2.7c0,1,0,1.7,0,2.2c0,0.1-0.1,0.2-0.2,0.2c-0.2,0-0.6,0.1-1,0.1c-0.1,0-0.2-0.1-0.2-0.2c0-1.7,0-2.9,0-3.7
		c-0.4,0.7-0.9,1.4-1.5,2.3c0,0.1-0.1,0.1-0.1,0.1s-0.1,0-0.2-0.1c-0.3-0.2-0.6-0.4-0.8-0.7c-0.1-0.1-0.1-0.1-0.1-0.1
		c0-0.1,0-0.1,0.1-0.2c0.9-1.1,1.7-2.2,2.6-3.4c0-0.4,0-0.7,0-0.9c-0.6,0.2-1.1,0.3-1.6,0.5c0,0-0.1,0-0.1,0.1
		c-0.1,0.1-0.2,0.1-0.3,0.1s-0.2-0.1-0.3-0.2c-0.1-0.2-0.3-0.6-0.5-1.2c0.2,0,0.6,0,0.9-0.1c0.7-0.2,1.3-0.3,1.8-0.5v-1.8
		C175.2,27.1,175.2,26.6,175.1,26.3z"/>
	<path class="st2" d="M190.7,28.2c-0.8,0.1-1.7,0.3-2.5,0.5c-0.2,0.1-0.4,0.1-0.5,0.2c-0.1,0-0.2,0.1-0.3,0.1s-0.2-0.1-0.3-0.2
		c-0.1-0.3-0.3-0.7-0.5-1.4c0.2,0,0.5,0,0.7,0s0.3,0,0.5,0c0.9-0.1,1.9-0.2,3-0.4c0.4-0.1,0.6-0.1,0.7-0.2c0.1-0.1,0.2-0.1,0.2-0.1
		c0.1,0,0.2,0,0.3,0.1c0.3,0.3,0.6,0.5,0.9,0.8c0.1,0.1,0.1,0.2,0.1,0.3c0,0.1-0.1,0.2-0.2,0.3c-0.1,0.1-0.3,0.2-0.6,0.4
		c-0.3,0.3-0.8,0.8-1.5,1.5c-0.5,0.5-1,1-1.3,1.3l0,0c0.7-0.4,1.4-0.6,2.1-0.6c1,0,1.8,0.3,2.4,1c0.5,0.6,0.8,1.3,0.8,2.2
		c0,1.2-0.5,2.1-1.4,2.7c-0.8,0.6-1.9,0.8-3.1,0.8c-0.9,0-1.6-0.2-2-0.6c-0.4-0.3-0.6-0.8-0.6-1.3s0.2-0.9,0.6-1.2
		c0.4-0.3,0.8-0.4,1.2-0.4c0.7,0,1.2,0.2,1.6,0.5c0.4,0.3,0.7,0.8,0.8,1.4c0.5-0.2,0.8-0.5,1-0.8s0.3-0.7,0.3-1.1
		c0-0.6-0.2-1.1-0.6-1.5c-0.4-0.3-0.8-0.5-1.4-0.5c-1.1,0-2.2,0.5-3.3,1.4c-0.2,0.2-0.5,0.5-1.1,1.1c-0.1,0.1-0.2,0.1-0.2,0.1
		s-0.1,0-0.2-0.1c-0.2-0.2-0.5-0.5-0.8-0.9v-0.1c0-0.1,0-0.1,0.1-0.2c1-0.8,2-1.7,3.1-2.9C189.6,29.5,190.2,28.8,190.7,28.2z
		 M190.6,36.2c-0.2-0.7-0.5-1.1-1.1-1.1c-0.2,0-0.4,0.1-0.5,0.2s-0.2,0.2-0.2,0.3c0,0.4,0.4,0.7,1.1,0.7
		C190.2,36.2,190.4,36.2,190.6,36.2z"/>
	<path class="st2" d="M198.4,29.4h-1.6c-0.1,0-0.1,0-0.1,0v-0.1v-1.1c0-0.1,0-0.1,0-0.1h0.1h1.6h3.2v-0.8c0-0.6,0-1-0.1-1.3
		c0.5,0,0.9,0,1.4,0.1c0.1,0,0.2,0.1,0.2,0.1s0,0.1-0.1,0.3c-0.1,0.1-0.1,0.4-0.1,0.8v0.9h3.4h1.6c0.1,0,0.1,0,0.1,0v0.1v1.1
		c0,0.1,0,0.1,0,0.1s0,0-0.1,0h-1.6h-4.5c0,0.5,0,1.1-0.1,1.6h3.2h1.5c0.1,0,0.2,0.1,0.2,0.2c0,0.2,0,0.5-0.1,1
		c-0.1,1.8-0.2,3.1-0.4,3.9c-0.2,0.7-0.4,1.1-0.7,1.3c-0.3,0.2-0.8,0.3-1.4,0.3c-0.4,0-0.7,0-1,0c-0.2,0-0.3,0-0.3-0.1
		c0,0-0.1-0.2-0.1-0.4c-0.1-0.4-0.2-0.8-0.3-1c0.6,0.1,1.1,0.1,1.6,0.1c0.4,0,0.7-0.2,0.8-0.6c0.2-0.7,0.3-1.8,0.4-3.3h-3.5
		c-0.3,1.3-0.7,2.3-1.4,3.2c-0.6,0.7-1.4,1.4-2.4,2c-0.2,0.1-0.3,0.1-0.3,0.1c-0.1,0-0.1-0.1-0.3-0.3c-0.2-0.3-0.5-0.6-0.8-0.8
		c1.6-0.8,2.7-1.7,3.2-2.9c0.5-1,0.8-2.5,0.8-4.3h-2V29.4z"/>
	<path class="st2" d="M209.3,34.9c1.3-0.4,2.3-0.8,3-1.3h-1h-1.6c-0.1,0-0.1,0-0.1-0.1v-0.8c0-0.1,0-0.1,0.1-0.1h1.6h2.1
		c0.2-0.2,0.3-0.4,0.5-0.7h-0.7h-1.8c-0.1,0-0.1,0-0.1,0v-0.1v-1v-1.1v-1c0-0.1,0-0.1,0-0.1h0.1h1.8h4.2h1.8c0.1,0,0.1,0,0.1,0v0.1
		v1v1.1v1c0,0.1,0,0.1,0,0.1h-0.1h-1.8h-2.8l0.5,0.1c0.1,0,0.2,0.1,0.2,0.2s-0.1,0.1-0.2,0.2c-0.1,0-0.2,0.1-0.3,0.2h4.5h1.6
		c0.1,0,0.1,0,0.1,0v0.1v0.8c0,0.1,0,0.1,0,0.1h-0.1h-1.6h-0.9c0.7,0.4,1.7,0.8,3,1c-0.2,0.2-0.3,0.5-0.5,0.8
		c-0.1,0.2-0.2,0.3-0.3,0.3c0,0-0.1,0-0.3-0.1c-0.5-0.2-1-0.4-1.5-0.6c0,0.3-0.1,0.6-0.1,0.8c-0.1,0.5-0.2,0.9-0.4,1.3
		s-0.7,0.6-1.4,0.6c-0.3,0-0.6,0-0.7,0c-0.2,0-0.3,0-0.3-0.1c0,0-0.1-0.1-0.1-0.3c-0.1-0.3-0.2-0.5-0.4-0.8c0.5,0.1,0.9,0.1,1.3,0.1
		c0.3,0,0.5-0.1,0.6-0.3c0.1-0.2,0.1-0.5,0.2-0.9h-2.2c-0.3,0.5-0.6,1-1.1,1.3c-0.7,0.5-1.6,0.8-2.8,1c-0.1,0-0.2,0-0.3,0
		s-0.2-0.1-0.3-0.3c-0.1-0.2-0.2-0.5-0.4-0.7c1.5-0.1,2.5-0.4,3.1-0.8c0.2-0.1,0.4-0.3,0.5-0.5h-0.2h-1.7c-0.1,0-0.1,0-0.1,0v-0.1
		v-0.4c-0.5,0.3-1,0.5-1.7,0.8c-0.2,0.1-0.3,0.1-0.3,0.1c-0.1,0-0.2-0.1-0.3-0.3C209.6,35.3,209.5,35,209.3,34.9z M212.7,25.9
		c0.5,0,0.9,0,1.2,0.1c0.1,0,0.2,0.1,0.2,0.1s0,0.1-0.1,0.2c0,0.1-0.1,0.2-0.1,0.4h2.5c0-0.4,0-0.6-0.1-0.8c0.5,0,0.9,0,1.2,0.1
		c0.1,0,0.2,0.1,0.2,0.1s0,0.1-0.1,0.2c0,0.1-0.1,0.2-0.1,0.4h1.5h1.6c0.1,0,0.1,0,0.1,0v0.1v0.8c0,0.1,0,0.1,0,0.1h-0.1H219h-1.5
		c0,0,0,0.1,0,0.3c0,0.1,0,0.1,0,0.1c0,0.1,0,0.1,0,0.1h-0.1h-1c-0.1,0-0.1,0-0.1,0v-0.1v-0.4h-2.5c0,0.1,0,0.2,0,0.3
		c0,0.1,0,0.1,0,0.1c0,0.1,0,0.1,0,0.1h-0.1h-1c-0.1,0-0.1,0-0.1,0v-0.1v-0.4h-1.4h-1.6c-0.1,0-0.1,0-0.1,0v-0.1v-0.8
		c0-0.1,0-0.1,0-0.1h0.1h1.6h1.4C212.8,26.4,212.8,26.1,212.7,25.9z M218,29.4h-5.4v0.5h5.4V29.4z M218,31.1v-0.5h-5.4v0.5H218z
		 M215.8,34.6h2.3c-0.4-0.3-0.8-0.6-1.2-1H214c-0.4,0.4-0.8,0.7-1.3,1h1.8c0.1-0.3,0.1-0.5,0.1-0.7v-0.1c0.2,0,0.4,0,0.6,0
		c0.3,0,0.4,0,0.5,0c0.2,0,0.2,0.1,0.2,0.1s0,0.1-0.1,0.2C215.9,34.2,215.8,34.4,215.8,34.6z"/>
	<path class="st2" d="M224.5,34.7h-1.7c-0.1,0-0.1,0-0.1,0v-0.1v-0.8c0-0.1,0-0.1,0.1-0.1h1.7h3.2v-0.1c0-0.3,0-0.5,0-0.7h-1.6h-1.8
		c-0.1,0-0.1,0-0.1,0v-0.1v-1.5v-2.1c-0.3,0.3-0.5,0.5-0.8,0.7c-0.1,0.1-0.2,0.2-0.3,0.2s-0.1-0.1-0.2-0.3c-0.1-0.3-0.3-0.5-0.5-0.7
		c1-0.7,1.8-1.5,2.4-2.5c0.2-0.3,0.3-0.6,0.3-0.8c0.4,0.1,0.9,0.2,1.2,0.3c0.1,0,0.2,0.1,0.2,0.2s0,0.1-0.1,0.2s-0.2,0.2-0.4,0.4
		l-0.2,0.3h2.4c0.2-0.3,0.3-0.5,0.3-0.7c0.1-0.2,0.2-0.4,0.2-0.7c0.4,0.1,0.8,0.2,1.2,0.3c0.1,0,0.2,0.1,0.2,0.2s0,0.1-0.1,0.2
		s-0.2,0.2-0.2,0.3c-0.1,0.2-0.2,0.3-0.2,0.4h2h1.8c0.1,0,0.1,0,0.1,0.1v0.8c0,0.1,0,0.1,0,0.1h-0.1h-1.8h-2.3v0.6h1.6h1.8
		c0.1,0,0.1,0,0.1,0v0.1v0.7c0,0.1,0,0.1,0,0.1h-0.1h-1.8h-1.6v0.6h1.6h1.8c0.1,0,0.1,0,0.1,0v0.1V31c0,0.1,0,0.1,0,0.1h-0.1h-1.8
		h-1.6v0.7h2.4h1.8c0.1,0,0.1,0,0.1,0v0.1v0.7c0,0.1,0,0.1,0,0.1h-0.1h-1.8h-2.5v0.1c0,0.1,0,0.2,0,0.6v0.1h3.3h1.7
		c0.1,0,0.1,0,0.1,0.1v0.8c0,0.1,0,0.1,0,0.1h-0.1h-1.7h-2.4c1.1,0.8,2.6,1.3,4.5,1.6c-0.2,0.2-0.4,0.5-0.5,0.9
		c-0.1,0.2-0.2,0.3-0.3,0.3c0,0-0.1,0-0.3-0.1c-1.8-0.6-3.2-1.3-4.3-2.3l0.1,2.5c0,0.1,0,0.1-0.1,0.1h-1.1c-0.1,0-0.1,0-0.1-0.1
		c0,0,0-0.3,0-0.9c0-0.5,0-1,0-1.6c-0.9,0.9-2.3,1.7-4.2,2.2c-0.2,0.1-0.3,0.1-0.3,0.1c-0.1,0-0.2-0.1-0.3-0.3
		c-0.1-0.3-0.3-0.6-0.5-0.8c1.9-0.4,3.3-1,4.3-1.7h-2.5V34.7z M225.3,28.9h2.6v-0.6h-2.6V28.9z M225.3,30.4h2.6v-0.6h-2.6V30.4z
		 M225.3,32h2.6v-0.7h-2.6V32z"/>
	<path class="st2" d="M236.7,26.6c0.8,0.1,1.4,0.2,1.6,0.2c0.2,0.1,0.3,0.1,0.3,0.2s0,0.2-0.1,0.4c-0.1,0.2-0.1,0.7-0.2,1.6
		c-0.1,2-0.2,3.7-0.2,5c0,0.7,0.1,1.2,0.2,1.3c0.2,0.2,0.5,0.3,1,0.3c0.7,0,1.4-0.2,2.3-0.6c0.8-0.4,1.6-1,2.3-1.8
		c0,0.5,0.1,0.9,0.3,1.2c0.1,0.2,0.1,0.3,0.1,0.3c0,0.1-0.1,0.3-0.3,0.4c-0.7,0.7-1.6,1.2-2.5,1.5c-0.8,0.3-1.6,0.4-2.4,0.4
		c-0.9,0-1.6-0.2-1.9-0.7c-0.3-0.4-0.5-1.1-0.5-2c0-0.8,0.1-2.7,0.2-5.6c0-0.4,0-0.7,0-0.9C236.8,27.5,236.8,27,236.7,26.6z"/>
	<path class="st2" d="M249.8,34c0-0.8-0.1-1.3-0.1-1.5c-0.4,0-0.7,0-1,0c-0.6,0-1.2,0-1.7-0.1c-0.1,0-0.2-0.1-0.2-0.2
		c-0.1-0.3-0.1-0.7-0.1-1.1c0.7,0.1,1.4,0.1,2.1,0.1c0.3,0,0.5,0,0.8,0v-1.5c-0.5,0-1,0-1.3,0c-0.7,0-1.3,0-1.8-0.1
		c-0.1,0-0.2-0.1-0.2-0.2c0-0.3-0.1-0.7-0.1-1.2c0.8,0.1,1.9,0.1,3.4,0.1c0-0.2,0-0.7,0-1.3c0-0.3-0.1-0.6-0.2-0.9
		c0.7,0,1.3,0.1,1.6,0.2c0.1,0,0.2,0.1,0.2,0.2s0,0.1,0,0.1c-0.1,0.2-0.2,0.5-0.2,0.6s0,0.2,0,0.4c0,0.2,0,0.3,0,0.4
		c1-0.1,1.9-0.2,2.8-0.4h0.1c0.1,0,0.1,0.1,0.1,0.2c0,0.3,0.1,0.6,0.1,0.9c0,0.1,0,0.2-0.1,0.2c-0.9,0.2-1.9,0.3-3,0.3v1.5
		c0.4,0,1.2-0.1,2.5-0.3h0.1c0.1,0,0.1,0,0.1,0.1c0,0.5,0,0.9,0,1.1c0,0.1-0.1,0.2-0.2,0.2c-0.9,0.1-1.8,0.3-2.5,0.3
		c0,0.9,0.1,1.5,0.1,1.8c1.3,0.3,2.4,0.9,3.4,1.6c0.1,0.1,0.1,0.1,0.1,0.2v0.1c-0.1,0.4-0.3,0.7-0.6,1c0,0.1-0.1,0.1-0.2,0.1
		s-0.1,0-0.1-0.1c-0.7-0.6-1.6-1.1-2.6-1.5c0,0.7-0.3,1.3-0.7,1.6c-0.4,0.3-1,0.4-1.9,0.4s-1.6-0.2-2.1-0.6
		c-0.4-0.3-0.6-0.7-0.6-1.2c0-0.6,0.3-1,0.8-1.4c0.5-0.3,1.1-0.5,1.8-0.5C249,33.9,249.4,33.9,249.8,34z M249.8,35.2
		c-0.4-0.1-0.8-0.2-1.2-0.2c-0.9,0-1.4,0.2-1.4,0.7c0,0.4,0.4,0.6,1.3,0.6c0.6,0,1-0.1,1.2-0.4C249.8,35.8,249.8,35.5,249.8,35.2z"
		/>
	<path class="st2" d="M262.1,28.3c0-0.1,0-0.3,0-0.6c0-0.2,0-0.4,0-0.5c0-0.3-0.1-0.6-0.2-1c0.6,0,1.1,0.1,1.5,0.2
		c0.2,0,0.4,0.1,0.4,0.2s0,0.2-0.1,0.3c0,0.1-0.1,0.2-0.1,0.4c0,0.1,0,0.3,0,0.8c1.2,0,2.5-0.1,4-0.1c0.1,0,0.1,0,0.2,0s0,0.1,0,0.2
		c0,0.2,0,0.3,0,0.5s0,0.3,0,0.5c0,0.1-0.1,0.2-0.2,0.2c0,0,0,0-0.1,0c-0.8,0-1.6,0-2.5,0c-0.5,0-1,0-1.5,0c0,1.1,0,1.9,0,2.4
		c0.1,0.4,0.2,0.8,0.2,1.3c0,1.8-0.8,3.2-2.3,4.2c-0.3,0.2-0.4,0.2-0.5,0.2s-0.2-0.1-0.4-0.2c-0.3-0.2-0.6-0.4-1-0.5
		c0.8-0.4,1.4-0.8,1.9-1.4c0.4-0.5,0.7-1,0.8-1.5c-0.2,0.3-0.6,0.5-1.2,0.5s-1-0.2-1.4-0.6c-0.3-0.4-0.5-0.8-0.5-1.4
		s0.2-1.1,0.7-1.5c0.4-0.3,0.8-0.5,1.3-0.5s0.8,0.1,1,0.3v-1.3c-1.9,0.1-3.4,0.2-4.5,0.4c-0.1,0-0.2,0-0.4,0.1
		c-0.1,0-0.2,0.1-0.2,0.1c-0.1,0-0.2-0.1-0.2-0.2c-0.1-0.2-0.2-0.7-0.3-1.3c0.1,0,0.3,0,0.4,0s0.5,0,1.2-0.1
		C258.8,28.5,260.1,28.4,262.1,28.3z M261.3,31.6c-0.2,0-0.5,0.1-0.6,0.2s-0.2,0.4-0.2,0.6c0,0.3,0.1,0.5,0.3,0.7
		c0.1,0.1,0.3,0.2,0.6,0.2c0.3,0,0.5-0.1,0.7-0.3c0.2-0.2,0.2-0.4,0.2-0.6c0-0.3-0.1-0.5-0.3-0.6C261.7,31.7,261.5,31.6,261.3,31.6z
		"/>
	<path class="st2" d="M272.8,26.5l-0.3,7.7h-1.3l-0.4-7.7H272.8z M270.8,35.5h1.8v1.8h-1.8V35.5z"/>
</g>
<g class="st1">
	<path class="st2" d="M85,76h3.9c1.4,0,2.4,0.3,3,0.8c0.5,0.4,0.7,1.1,0.7,1.9c0,0.7-0.2,1.2-0.7,1.6c-0.4,0.4-0.9,0.6-1.5,0.7v0.1
		c0.9,0.1,1.5,0.5,1.9,1c0.4,0.4,0.6,1,0.6,1.6c0,1-0.4,1.8-1.1,2.4c-0.7,0.5-1.6,0.7-2.7,0.7H85L85,76L85,76z M86.9,77.5v3h1.7
		c0.8,0,1.4-0.2,1.7-0.5s0.5-0.6,0.5-1.1s-0.2-0.9-0.5-1.1c-0.3-0.2-0.8-0.3-1.5-0.3L86.9,77.5L86.9,77.5z M86.9,81.9v3.6h2
		c0.8,0,1.3-0.2,1.7-0.5c0.3-0.3,0.5-0.7,0.5-1.3s-0.2-1-0.7-1.4c-0.4-0.3-1-0.4-1.7-0.4L86.9,81.9L86.9,81.9z"/>
</g>
<g class="st1">
	<path class="st2" d="M98.9,79.1c-0.3-0.6-0.5-1-0.6-1.2c-0.2-0.4-0.4-0.7-0.6-1c0.7-0.1,1.2-0.2,1.4-0.2c0.3,0,0.4,0.1,0.4,0.3v0.2
		c0,0.1,0,0.1,0,0.2c0,0.2,0.1,0.4,0.2,0.6c0.2,0.5,0.3,0.8,0.4,1c1-0.2,1.8-0.5,2.5-0.7h0.1c0,0,0.1,0,0.1,0.1
		c0.1,0.1,0.2,0.5,0.3,0.9v0.1c0,0.1,0,0.1-0.1,0.1c-0.6,0.2-1.4,0.5-2.4,0.7c0.5,0.9,1.1,1.7,1.8,2.5c0.1,0.1,0.2,0.2,0.3,0.3
		s0.1,0.1,0.1,0.2c0,0.1,0,0.1-0.1,0.2c-0.1,0.2-0.2,0.5-0.5,0.8c-0.1,0.1-0.2,0.2-0.2,0.2s-0.1,0-0.2-0.1c-0.2-0.1-0.4-0.3-0.5-0.3
		c-0.8-0.4-1.6-0.6-2.5-0.6c-1.3,0-2,0.4-2,1.1c0,0.8,1,1.3,3,1.3c0.6,0,1.3-0.1,1.9-0.2c-0.1,0.5-0.1,0.9-0.3,1.3
		c0,0.1-0.1,0.1-0.2,0.2c-0.3,0.1-0.8,0.1-1.3,0.1c-1.5,0-2.6-0.2-3.4-0.7c-0.6-0.4-1-1-1-1.8s0.3-1.3,0.9-1.8
		c0.6-0.4,1.3-0.6,2.2-0.6c0.8,0,1.5,0.1,2.1,0.3c-0.6-0.5-1.1-1.2-1.5-2.1c-0.8,0.1-1.6,0.2-2.3,0.3c-0.5,0-0.9,0.1-1.2,0.1
		c-0.1,0-0.2-0.1-0.2-0.2c-0.1-0.3-0.2-0.6-0.3-1.1c0.2,0,0.5,0,0.7,0c0.3,0,0.6,0,0.8,0C97.5,79.3,98.1,79.3,98.9,79.1z"/>
	<path class="st2" d="M109,76.9c0.6,0.2,1.1,0.5,1.3,0.7c0.1,0.1,0.2,0.2,0.2,0.3s0,0.2-0.1,0.2c-0.1,0.1-0.2,0.3-0.4,0.5
		c-1,1.9-1.7,3.1-2.1,3.8l0,0c0.5-0.4,1-0.6,1.5-0.6c0.6,0,1.1,0.3,1.4,0.8c0.2,0.3,0.3,0.8,0.4,1.5c0.1,0.5,0.1,0.8,0.2,1
		c0.1,0.2,0.3,0.3,0.5,0.3c0.4,0,0.8-0.2,1.1-0.6c0.5-0.6,0.9-1.2,1.2-2c0.2,0.4,0.4,0.7,0.7,1c0.1,0.1,0.1,0.2,0.1,0.3s0,0.1,0,0.2
		c-0.2,0.5-0.6,1-1,1.5c-0.6,0.7-1.4,1-2.2,1c-0.6,0-1.1-0.2-1.4-0.6c-0.2-0.4-0.4-0.9-0.5-1.7c-0.1-0.6-0.2-1-0.3-1.3
		c-0.1-0.2-0.3-0.3-0.5-0.3c-0.5,0-1,0.3-1.5,1c-0.4,0.6-0.9,1.5-1.4,2.7c0,0.1-0.1,0.2-0.2,0.2h-0.1c-0.4-0.1-0.7-0.3-0.9-0.5
		c-0.1,0-0.1-0.1-0.1-0.2c0,0,0-0.1,0.1-0.2c1.6-3.2,2.8-5.6,3.5-7.2C108.8,77.9,109,77.3,109,76.9z"/>
</g>
<g id="グループ_686" transform="translate(-3782.137 -2959.419)">
	<path id="パス_348-2" class="st2" d="M3973.4,3040.4c-1.9-4.6-7-7.7-10.9-9.5c-6.5-3-16.3-3.8-22.2,1.3c-1.8,1.7-3.2,3.7-4.4,5.9
		c-0.3,0.6-1.1,0.9-1.8,0.7c-1.9-0.5-4.5,1-6,2.7c-1.5,1.9-2.4,4.2-2.5,6.6c-0.4,3.4,0.5,6.1,2,9.3c0.5-0.2,0.9-0.5,1.4-0.6
		c0.1,0,0.3-0.1,0.5-0.1c2,0,3.7-1.4,4-3.4l1.6-9.2c0.1-0.7,0.8-1.2,1.5-1.2h27.1c0.7,0,1.3,0.5,1.5,1.2l2.1,9.4
		c0.4,1.8,1.9,3.1,3.8,3.2h0.5c0.1,0,0.3,0,0.4,0.1c0.4,0.1,0.7,0.3,1.1,0.4C3973.9,3053.5,3975.4,3045.2,3973.4,3040.4z"/>
	<path id="パス_349-2" class="st0" d="M3947.5,3104.3l-8.6-7.6l-2,0.4l4.8,10.2L3947.5,3104.3z"/>
	<path id="パス_350-2" class="st3" d="M3987.2,3102l-20.7-4.2l-5.8,12.3c-0.4,0.8-1.3,1.1-2,0.7l0,0l-8.6-4.4l-8.6,4.4
		c-0.7,0.4-1.6,0.1-2-0.7l0,0l-5.8-12.3l-20.7,4.2c-5.3,1.1-9.1,5.8-9.1,11.2v18.6h92.5v-18.6
		C3996.4,3107.7,3992.5,3103.1,3987.2,3102z M3950,3129.5c-0.9,0-1.6-0.7-1.6-1.6s0.7-1.6,1.6-1.6s1.6,0.7,1.6,1.6l0,0
		C3951.6,3128.8,3950.9,3129.5,3950,3129.5L3950,3129.5L3950,3129.5z M3950,3114.2c-0.9,0-1.6-0.7-1.6-1.6s0.7-1.6,1.6-1.6
		s1.6,0.7,1.6,1.6l0,0C3951.6,3113.4,3950.9,3114.2,3950,3114.2L3950,3114.2z"/>
	<path id="パス_352-2" class="st0" d="M3963.5,3097.1l-2-0.4l-8.6,7.6l5.9,3L3963.5,3097.1z"/>
	<path id="パス_354-2" class="st4" d="M3951.3,3070.2l2.1-2.1l-2.6-2.6l2.6-2.6l-2.1-2.1l-3.7,3.7c-0.6,0.6-0.6,1.5,0,2.1l0,0
		L3951.3,3070.2z"/>
	<circle id="楕円形_44-2" class="st4" cx="3942.1" cy="3062.1" r="2.3"/>
	<circle id="楕円形_45-2" class="st4" cx="3959" cy="3062.1" r="2.3"/>
	<path id="パス_355-2" class="st4" d="M3987.8,3099l-24.9-5.1v-10c0.8-0.6,1.5-1.2,2.2-1.9c3-3,5.1-6.7,6.3-10.7
		c1.3-0.4,2.6-1.1,3.6-2c3-2.2,3.6-6.5,1.3-9.5c-0.2-0.3-0.4-0.5-0.7-0.7l0,0c0.8-3.1,3-13.6,0.5-19.9c-1.8-4.4-6-8.1-12.5-11.1
		c-7.6-3.5-18.5-4.3-25.4,1.8c-1.8,1.7-3.3,3.7-4.6,5.8c-2.9-0.2-6,1.7-7.9,3.8c-1.9,2.3-3,5.2-3.2,8.2c-0.5,4.3,0.8,7.7,2.5,11.5
		c-0.5,0.6-1,1.2-1.3,1.9c-1.1,2.9-0.3,6.2,2.1,8.2c1.1,0.9,2.3,1.6,3.6,2c1.2,4,3.3,7.7,6.3,10.7c0.7,0.7,1.4,1.3,2.2,1.9v9.8
		l-25.7,5.2c-6.7,1.4-11.5,7.3-11.5,14.1v20.1c0,0.8,0.7,1.5,1.5,1.5l0,0h95.5c0.8,0,1.5-0.7,1.5-1.5l0,0V3113
		C3999.4,3106.3,3994.6,3100.4,3987.8,3099z M3963.5,3097.1l-4.8,10.2l-5.9-3l8.6-7.6L3963.5,3097.1z M3925.6,3048.2
		c0.1-2.4,1-4.7,2.5-6.6c1.5-1.7,4.1-3.2,6-2.7c0.7,0.2,1.4-0.1,1.8-0.7c1.2-2.2,2.6-4.2,4.4-5.9c5.9-5.2,15.7-4.3,22.2-1.3
		c3.9,1.8,9,4.9,10.9,9.5c2,4.8,0.5,13.1-0.3,16.9c-0.4-0.2-0.7-0.3-1.1-0.4c-0.1,0-0.3-0.1-0.4-0.1h-0.5c-1.8-0.1-3.4-1.4-3.8-3.2
		l-2.1-9.4c-0.2-0.7-0.8-1.2-1.5-1.2h-27.1c-0.7,0-1.4,0.5-1.5,1.2l-1.6,9.2c-0.3,2-2,3.4-4,3.4c-0.2,0-0.3,0-0.5,0.1
		c-0.5,0.2-1,0.4-1.4,0.6C3926.2,3054.3,3925.3,3051.5,3925.6,3048.2L3925.6,3048.2z M3938,3079.9c-2.8-2.8-4.8-6.3-5.8-10.2
		c-0.1-0.5-0.6-0.9-1.1-1.1c-1.2-0.3-2.3-0.8-3.2-1.6c-1.7-1.2-2.2-3.5-1.1-5.2c0.2-0.2,0.3-0.4,0.5-0.6c0.7-0.7,1.5-1.2,2.3-1.5
		c3.4-0.1,6.2-2.6,6.7-5.9l1.4-7.9h24.7l1.8,8.2c0.7,3.1,3.4,5.4,6.6,5.6h0.3c0.9,0.3,1.7,0.8,2.4,1.5c0.3,0.3,0.6,0.7,0.8,1.2
		c0.6,1.7,0,3.6-1.4,4.7c-0.9,0.8-2,1.3-3.2,1.6c-0.5,0.1-0.9,0.5-1.1,1.1c-1,3.8-3,7.4-5.8,10.2
		C3956.1,3086.7,3945,3086.7,3938,3079.9L3938,3079.9z M3950.5,3088L3950.5,3088c3.3-0.1,6.5-0.9,9.4-2.3v8.3l-9.8,8.6l-9-7.9v-9
		C3944.1,3087.1,3947.3,3087.9,3950.5,3088L3950.5,3088z M3938.8,3096.7l8.6,7.6l-5.9,3l-4.8-10.2L3938.8,3096.7z M3996.4,3131.8
		h-92.5v-18.6c0-5.4,3.8-10.1,9.1-11.2l20.7-4.2l5.8,12.3c0.4,0.8,1.3,1.1,2,0.7l0,0l8.6-4.4l8.6,4.4c0.2,0.1,0.4,0.2,0.7,0.2
		c0.6,0,1.1-0.3,1.4-0.9l5.8-12.3l20.7,4.2c5.3,1.1,9.1,5.8,9.1,11.2L3996.4,3131.8z"/>
	<circle id="楕円形_46-2" class="st2" cx="3950" cy="3112.5" r="1.6"/>
	<circle id="楕円形_47-2" class="st2" cx="3950" cy="3127.9" r="1.6"/>
	<path id="パス_357-2" class="st4" d="M3958,3074.1c0-0.8-0.7-1.5-1.5-1.5h-12c-0.8,0-1.5,0.7-1.5,1.5c0,4.1,3.4,7.5,7.5,7.5
		C3954.7,3081.6,3958,3078.2,3958,3074.1L3958,3074.1z M3946.3,3075.6h8.5c-0.8,2.3-3.4,3.6-5.8,2.7
		C3947.7,3077.8,3946.8,3076.8,3946.3,3075.6z"/>
</g>
<path id="合体_35" class="st5" d="M118.9,48.7h-48c-5.2,0-9.5-4.3-9.5-9.5v-15c0-5.2,4.3-9.5,9.5-9.5l0,0h208
	c5.2,0,9.5,4.3,9.5,9.5l0,0v15c0,5.2-4.3,9.5-9.5,9.5H128.3l0.5,11.7L118.9,48.7z"/>
</svg>
