<?xml version="1.0" encoding="utf-8"?>
<!-- Generator: Adobe Illustrator 25.2.3, SVG Export Plug-In . SVG Version: 6.00 Build 0)  -->
<svg version="1.1" id="レイヤー_1" xmlns="http://www.w3.org/2000/svg" xmlns:xlink="http://www.w3.org/1999/xlink" x="0px"
	 y="0px" viewBox="0 0 350 190" style="enable-background:new 0 0 350 190;" xml:space="preserve">
<style type="text/css">
	.st0{fill:#FFFFFF;}
	.st1{enable-background:new    ;}
	.st2{fill:#00AEBD;}
	.st3{fill:#555353;stroke:#555353;}
	.st4{fill:none;}
	.st5{fill:#555353;}
</style>
<rect class="st0" width="350" height="190"/>
<g class="st1">
	<path class="st2" d="M167.1,64.5c0.5,0.1,1.4,0.1,2.5,0.1h4.6c0.3,0,0.6,0,0.7-0.1c0.1-0.1,0.2-0.1,0.2-0.1c0.1,0,0.2,0,0.2,0.1
		c0.4,0.3,0.7,0.6,0.9,0.9c0.1,0.1,0.1,0.2,0.1,0.3c0,0.1,0,0.2-0.1,0.2c-0.1,0.1-0.2,0.3-0.3,0.5c-0.7,1.7-1.5,3.1-2.5,4.2
		c-1.2,1.3-2.4,2.4-3.7,3.1c-0.1,0.1-0.2,0.1-0.4,0.1s-0.2,0-0.3-0.1c-0.3-0.3-0.7-0.5-1.2-0.7c1-0.5,1.8-1,2.5-1.6
		c0.6-0.5,1.2-1,1.7-1.7c1-1.1,1.7-2.4,2.2-3.7h-4.7c-0.5,0-1.2,0-2.1,0.1c-0.1,0-0.2-0.1-0.2-0.3C167.2,65.6,167.1,65.2,167.1,64.5
		z M177.2,62.2c0.4,0,0.8,0.2,1,0.5s0.4,0.6,0.4,0.9c0,0.4-0.2,0.8-0.5,1s-0.6,0.4-0.9,0.4c-0.4,0-0.8-0.2-1-0.5s-0.4-0.6-0.4-0.9
		c0-0.4,0.2-0.8,0.5-1C176.5,62.3,176.8,62.2,177.2,62.2z M177.2,62.8c-0.2,0-0.4,0.1-0.6,0.2c-0.1,0.1-0.2,0.3-0.2,0.5
		s0.1,0.4,0.2,0.6c0.1,0.1,0.3,0.2,0.5,0.2s0.4-0.1,0.6-0.2c0.1-0.1,0.2-0.3,0.2-0.5s-0.1-0.4-0.2-0.6
		C177.5,62.9,177.4,62.8,177.2,62.8z"/>
	<path class="st2" d="M187.4,71.9h-5v0.8c0,0.1,0,0.2-0.1,0.2c0,0-0.1,0-0.2,0c-0.2,0-0.3,0-0.5,0s-0.3,0-0.5,0s-0.3-0.1-0.3-0.2
		l0,0c0-1.4,0-2.2,0-2.6v-3.2v-0.8c0-0.5,0-0.9,0-1.3c0-0.1,0-0.2,0.1-0.2c0.5,0,1.2,0,2.3,0h3.1c1.2,0,2,0,2.4,0
		c0.1,0,0.2,0.1,0.2,0.2c0,0,0,0,0,0.1V67v3.1c0,0.5,0,1.3,0.1,2.5c0,0.1-0.1,0.2-0.2,0.2c-0.2,0-0.4,0-0.6,0c-0.2,0-0.4,0-0.6,0
		c-0.1,0-0.1,0-0.2,0c0,0,0-0.1,0-0.2V71.9z M187.4,70.6v-4.5h-5.1v4.5H187.4z"/>
	<path class="st2" d="M191.6,67.8c0-0.1,0.2-0.3,0.4-0.7c0.1-0.2,0.2-0.3,0.3-0.4s0.1-0.1,0.2-0.1l0,0c0.9,0.3,1.7,0.7,2.5,1.3
		c0.1,0.1,0.1,0.1,0.1,0.2c0,0,0,0.1-0.1,0.1c-0.1,0.3-0.3,0.6-0.6,1c-0.1,0.1-0.1,0.1-0.2,0.1c0,0-0.1,0-0.2-0.1
		C193.5,68.7,192.6,68.2,191.6,67.8z M192.6,72.2c0.6-0.1,1.1-0.3,1.8-0.6c1.4-0.7,2.6-1.5,3.6-2.2c1.3-1,2.6-2.2,3.7-3.6
		c0.1,0.4,0.2,0.9,0.4,1.5c0,0.1,0.1,0.2,0.1,0.2c0,0.1,0,0.2-0.1,0.3c-1,1.1-2.1,2.1-3.3,3c-1,0.8-2.3,1.6-3.9,2.4
		c-0.5,0.2-0.7,0.4-0.8,0.4c-0.1,0.1-0.1,0.1-0.2,0.1c-0.1,0-0.2-0.1-0.3-0.2C193.3,73.2,193,72.8,192.6,72.2z M193.2,64.7l0.7-1
		c0.1-0.1,0.1-0.1,0.2-0.1h0.1c1,0.4,1.8,0.9,2.4,1.4c0.1,0,0.1,0.1,0.1,0.2s0,0.1-0.1,0.2c-0.3,0.4-0.5,0.8-0.7,1
		c0,0.1-0.1,0.1-0.1,0.1s-0.1,0-0.2-0.1C194.9,65.7,194,65.1,193.2,64.7z M199.1,63.8l0.7-0.5h0.1c0,0,0.1,0,0.1,0.1
		c0.4,0.3,0.9,0.8,1.2,1.4v0.1c0,0,0,0.1-0.1,0.1l-0.5,0.4h-0.1c0,0-0.1,0-0.1-0.1C200,64.7,199.6,64.2,199.1,63.8z M200.3,62.9
		l0.7-0.5h0.1c0,0,0.1,0,0.1,0.1c0.5,0.4,0.9,0.8,1.2,1.3v0.1c0,0,0,0.1-0.1,0.1l-0.5,0.4h-0.1c0,0-0.1,0-0.1-0.1
		C201.3,63.8,200.8,63.3,200.3,62.9z"/>
	<path class="st2" d="M208.6,68.6v3.3h1.4c0.8,0,1.5,0,2.1-0.1c0.1,0,0.2,0.1,0.2,0.2c0,0.1,0,0.3,0,0.4c0,0.1,0,0.3,0,0.4
		c0,0.2-0.1,0.2-0.2,0.2l0,0h-2H206c-0.6,0-1.2,0-1.9,0.1c-0.1,0-0.2-0.1-0.2-0.3s-0.1-0.6-0.1-1.1c0.5,0,1.2,0.1,2.2,0.1h1.3v-3.3
		h-0.7c-0.7,0-1.2,0-1.6,0l0,0c-0.1,0-0.2-0.1-0.2-0.3c0-0.1,0-0.5-0.1-1c0.4,0,1,0.1,1.8,0.1h2.9h1.8l0,0c0.1,0,0.2,0.1,0.2,0.2
		c0,0.1,0,0.3,0,0.4c0,0.1,0,0.3,0,0.4c0,0.2-0.1,0.2-0.2,0.2c0,0,0,0-0.1,0h-1.7L208.6,68.6L208.6,68.6z"/>
	<path class="st2" d="M218.6,65.1l2.3-0.1c0.3,0,0.5-0.1,0.7-0.2c0,0,0.1-0.1,0.2-0.1c0.1,0,0.1,0,0.2,0.1c0.3,0.2,0.6,0.4,0.9,0.7
		c0.1,0.1,0.2,0.2,0.2,0.3c0,0.1-0.1,0.2-0.2,0.3c-0.2,0.1-0.3,0.3-0.4,0.6c-0.8,1.7-1.7,3-2.6,4c-0.6,0.7-1.3,1.3-2.1,1.9
		c-0.7,0.5-1.3,1-1.9,1.3c-0.1,0-0.1,0.1-0.2,0.1c-0.1,0-0.2,0-0.3-0.1c-0.3-0.3-0.7-0.5-1.2-0.6c1.1-0.6,1.9-1.1,2.6-1.7
		c0.6-0.4,1.1-1,1.7-1.7c0.6-0.6,1-1.2,1.4-1.8c0.3-0.5,0.7-1.2,1-1.9l-3.1,0.1c-1,1.3-1.9,2.2-2.5,2.7c-0.1,0.1-0.2,0.1-0.3,0.1
		s-0.1,0-0.2-0.1c-0.4-0.3-0.8-0.5-1.3-0.6c1.5-1.2,2.6-2.5,3.5-3.9c0.4-0.7,0.7-1.3,0.8-1.8c0.7,0.3,1.2,0.5,1.5,0.7
		c0.1,0.1,0.1,0.1,0.1,0.2s0,0.2-0.1,0.2s-0.2,0.2-0.3,0.3C218.9,64.6,218.8,64.9,218.6,65.1z"/>
	<path class="st2" d="M228.4,66.8c1.6,0.5,3,1.1,4.1,1.8c0.1,0.1,0.2,0.1,0.2,0.2v0.1c-0.2,0.4-0.3,0.8-0.6,1.1
		c-0.1,0.1-0.1,0.1-0.2,0.1c-0.1,0-0.1,0-0.1-0.1c-1.2-0.8-2.4-1.3-3.4-1.7v2.9c0,0.5,0,1.3,0.1,2.5l0,0c0,0.1-0.1,0.2-0.2,0.2
		c-0.2,0-0.4,0-0.6,0c-0.2,0-0.4,0-0.6,0c-0.2,0-0.2-0.1-0.2-0.2c0-0.8,0.1-1.7,0.1-2.6v-6.4c0-0.8,0-1.4-0.1-1.9
		c0.8,0.1,1.3,0.1,1.6,0.2c0.2,0,0.2,0.1,0.2,0.2s0,0.2-0.1,0.3c-0.1,0.1-0.1,0.5-0.1,1.2v2.1H228.4z"/>
	<path class="st2" d="M238.4,62.7c0.6,0.1,1.1,0.2,1.5,0.4c0.1,0,0.2,0.1,0.2,0.2s0,0.1-0.1,0.2s-0.2,0.2-0.2,0.3c0,0,0,0.1-0.1,0.2
		c-0.1,0.2-0.2,0.4-0.2,0.5c0.8-0.1,1.6-0.2,2.4-0.4h0.1c0.1,0,0.1,0,0.1,0.1c0.1,0.3,0.1,0.6,0.1,0.9l0,0c0,0.1-0.1,0.1-0.2,0.2
		c-1,0.1-2,0.3-3,0.4c-0.4,0.7-0.8,1.2-1,1.4l0,0c0.4-0.3,0.8-0.4,1.3-0.4c0.9,0,1.5,0.5,1.6,1.4c0.9-0.4,1.5-0.7,1.9-0.9
		s0.7-0.5,1-0.7c0.4,0.4,0.7,0.8,0.9,1.1c0.1,0.1,0.1,0.2,0.1,0.3s-0.1,0.2-0.2,0.2c-0.3,0-0.5,0.1-0.8,0.2c-1.3,0.4-2.2,0.8-2.8,1
		v2.1c0,0.1-0.1,0.2-0.2,0.2c-0.3,0-0.6,0.1-0.9,0.1c-0.1,0-0.2-0.1-0.2-0.2c0-0.7,0-1.3,0-1.6c-0.6,0.3-1,0.6-1.3,0.9
		c-0.2,0.2-0.3,0.5-0.3,0.8c0,0.6,0.6,0.9,1.8,0.9c0.9,0,2-0.1,3.2-0.3l0,0c0.1,0,0.1,0,0.1,0.1c0.1,0.4,0.1,0.7,0.1,1.1l0,0
		c0,0.1,0,0.2-0.1,0.2c-0.9,0.1-2,0.2-3.2,0.2c-2.2,0-3.3-0.7-3.3-2.1c0-0.7,0.2-1.3,0.7-1.8c0.4-0.5,1.1-0.9,2-1.4
		c0-0.4-0.1-0.6-0.2-0.7c-0.1-0.1-0.3-0.2-0.5-0.2c0,0,0,0-0.1,0c-0.5,0-1.1,0.3-1.8,0.9c-0.4,0.4-0.8,0.9-1.3,1.4
		c-0.1,0.1-0.1,0.1-0.2,0.1c0,0-0.1,0-0.1-0.1c-0.4-0.4-0.6-0.7-0.7-0.9l-0.1-0.1c0,0,0-0.1,0.1-0.1c1.2-1.1,2.1-2.1,2.7-3.2
		c-0.6,0-1.3,0-2.1,0c-0.1,0-0.2-0.1-0.2-0.2c0-0.2-0.1-0.5-0.1-1.1c0.4,0,0.9,0,1.3,0c0.6,0,1.1,0,1.7,0c0.2-0.4,0.3-0.8,0.4-1.1
		C238.4,63.3,238.4,63,238.4,62.7z"/>
	<path class="st2" d="M246,73.1c0.3-0.9,0.5-1.7,0.5-2.5c0-0.2,0-0.3,0-0.4c0-0.1,0-0.2,0-0.3c0.3,0,0.6,0.1,1,0.2
		c0.1,0,0.2,0.1,0.2,0.2c0,0.1,0,0.1-0.1,0.2c0,0,0,0.2-0.1,0.4c-0.1,0.9-0.3,1.7-0.5,2.4c-0.1,0.2-0.1,0.3-0.2,0.3
		c0,0-0.1,0-0.2-0.1C246.5,73.3,246.2,73.2,246,73.1z M250.6,66.9c0.4,0.8,0.7,1.5,0.9,2.3v0.1c0,0.1-0.1,0.1-0.2,0.1l-0.7,0.2
		c-0.1,0-0.1,0-0.1,0c-0.1,0-0.1,0-0.1-0.1l-0.1-0.6l-0.8,0.1v3.6v1.7c0,0.1,0,0.1,0,0.1h-0.1h-1c-0.1,0-0.1,0-0.1,0v-0.1v-1.7v-3.4
		l-1.1,0.1c-0.2,0-0.4,0-0.5,0.1c-0.1,0-0.2,0.1-0.2,0.1c-0.1,0-0.1-0.1-0.2-0.2c-0.1-0.4-0.1-0.7-0.2-1.1c0.3,0,0.6,0,0.8,0
		c0.1,0,0.2,0,0.3,0c0.2-0.2,0.4-0.5,0.7-1c-0.5-0.7-1.1-1.3-1.7-1.9l-0.1-0.1c0,0,0-0.1,0.1-0.2l0.4-0.7c0.1-0.1,0.1-0.1,0.1-0.1
		s0.1,0,0.1,0.1l0.3,0.4c0.3-0.5,0.5-0.9,0.7-1.3c0.1-0.3,0.2-0.5,0.3-0.8c0.5,0.2,0.8,0.3,1.1,0.5c0.1,0.1,0.2,0.1,0.2,0.2
		s0,0.1-0.1,0.2s-0.2,0.2-0.2,0.3c-0.4,0.7-0.8,1.3-1.1,1.8c0.3,0.3,0.5,0.5,0.6,0.7c0.3-0.4,0.6-0.9,0.9-1.5
		c0.1-0.3,0.3-0.5,0.4-0.9c0.5,0.2,0.9,0.4,1.1,0.6c0.1,0.1,0.2,0.1,0.2,0.2s0,0.1-0.1,0.2s-0.2,0.2-0.4,0.5c-0.7,1.1-1.3,2-2,2.8
		c0.3,0,0.8-0.1,1.4-0.1c-0.1-0.2-0.2-0.5-0.3-0.7c0-0.1,0-0.1,0-0.1s0.1-0.1,0.2-0.1L250.6,66.9C250.6,67,250.6,67,250.6,66.9
		C250.5,66.7,250.5,66.8,250.6,66.9z M250.6,69.9C250.7,69.9,250.7,69.9,250.6,69.9c0.1,0,0.2,0,0.2,0.1c0.2,0.7,0.4,1.5,0.5,2.4
		v0.1c0,0.1-0.1,0.1-0.2,0.2l-0.6,0.2c-0.1,0-0.1,0-0.2,0c0,0-0.1,0-0.1-0.1c-0.1-0.8-0.3-1.6-0.5-2.5v-0.1c0-0.1,0.1-0.1,0.2-0.1
		L250.6,69.9z M256.3,64.3h-1.9c-0.1,1.7-0.9,3.1-2.3,4c-0.2,0.1-0.3,0.2-0.3,0.2c-0.1,0-0.1-0.1-0.3-0.3c-0.2-0.3-0.4-0.5-0.7-0.7
		c0.8-0.4,1.3-0.8,1.7-1.3c0.3-0.5,0.5-1.1,0.6-1.8H253h-1.6c-0.1,0-0.1,0-0.1,0v-0.1v-0.9c0-0.1,0-0.1,0-0.1h0.1h1.6h2.8h1.6
		c0.1,0,0.1,0,0.1,0v0.1c0,0.4,0,0.7,0,0.9c0,1.7-0.2,2.7-0.4,3.2c-0.2,0.6-0.8,0.8-1.5,0.8c-0.3,0-0.6,0-0.7,0
		c-0.2,0-0.3,0-0.3-0.1c0,0-0.1-0.2-0.1-0.3c-0.1-0.3-0.1-0.6-0.3-0.9c0.5,0.1,0.9,0.1,1.2,0.1c0.3,0,0.5-0.1,0.6-0.3
		C256.2,66.4,256.3,65.6,256.3,64.3z M252.9,74.4h-1c-0.1,0-0.1,0-0.1,0v-0.1v-2.4v-1.2v-1.6c0-0.1,0-0.1,0-0.1h0.1h1.5h2.2h1.5
		c0.1,0,0.1,0,0.1,0v0.1v1.4v1.3v2.4c0,0.1,0,0.1,0,0.1h-0.1h-1c-0.1,0-0.1,0-0.1-0.1v-0.5h-3v0.5c0,0.1,0,0.1,0,0.1
		C253,74.4,253,74.4,252.9,74.4z M253.1,70.1v2.4h3v-2.4H253.1z"/>
	<path class="st2" d="M271.2,67.2c-0.2,0.3-0.4,0.6-0.6,1c-0.1,0.2-0.2,0.3-0.2,0.3s-0.1,0-0.3-0.1c-2.2-1-3.9-2.5-5.1-4.3
		c-1.1,1.7-2.7,3.1-4.9,4.3c-0.2,0.1-0.3,0.1-0.3,0.1c-0.1,0-0.1-0.1-0.2-0.3c-0.2-0.4-0.4-0.7-0.6-0.9c2.2-1,3.8-2.3,4.9-4.1
		c0.2-0.3,0.4-0.6,0.5-1c0.7,0.1,1.1,0.2,1.4,0.3c0.1,0,0.2,0.1,0.2,0.2s0,0.1-0.1,0.2l-0.1,0.1c0.7,1,1.6,1.9,2.5,2.5
		C269,66.2,270,66.8,271.2,67.2z M259.5,73.4c1.2-0.4,2-1,2.5-1.7c0.3-0.6,0.5-1.5,0.5-2.8c0-0.6,0-1.2-0.1-1.5c0.5,0,1,0,1.4,0.1
		c0.1,0,0.2,0.1,0.2,0.2c0,0.1,0,0.2-0.1,0.3c-0.1,0.2-0.1,0.5-0.1,1.1c0,1-0.1,1.7-0.2,2.3c-0.1,0.5-0.3,0.9-0.5,1.3
		c-0.5,0.8-1.3,1.4-2.3,1.8c-0.2,0.1-0.3,0.1-0.3,0.1c-0.1,0-0.1-0.1-0.3-0.3C260,73.8,259.7,73.5,259.5,73.4z M266.1,67.3
		c0.5,0,1,0,1.4,0.1c0.1,0,0.2,0.1,0.2,0.1s0,0.2-0.1,0.3c0,0.2-0.1,0.7-0.1,1.4v3.3v1.7c0,0.1,0,0.1,0,0.1h-0.1h-1.2
		c-0.1,0-0.1,0-0.1-0.1v-1.7v-3.3C266.2,68.4,266.2,67.7,266.1,67.3z"/>
	<path class="st2" d="M273.4,63.2c0.8,0.1,1.4,0.2,1.6,0.2c0.2,0.1,0.3,0.1,0.3,0.2s0,0.2-0.1,0.4c-0.1,0.2-0.1,0.7-0.2,1.6
		c-0.1,2-0.2,3.7-0.2,5c0,0.7,0.1,1.2,0.2,1.3c0.2,0.2,0.5,0.3,1,0.3c0.7,0,1.4-0.2,2.3-0.6c0.8-0.4,1.6-1,2.3-1.8
		c0,0.5,0.1,0.9,0.3,1.2c0.1,0.2,0.1,0.3,0.1,0.3c0,0.1-0.1,0.3-0.3,0.4c-0.7,0.7-1.6,1.2-2.5,1.5c-0.8,0.3-1.6,0.4-2.4,0.4
		c-0.9,0-1.6-0.2-1.9-0.7c-0.3-0.4-0.5-1.1-0.5-2c0-0.8,0.1-2.7,0.2-5.6c0-0.4,0-0.7,0-0.9C273.5,64.1,273.5,63.6,273.4,63.2z"/>
	<path class="st2" d="M286.5,70.6c0-0.8-0.1-1.3-0.1-1.5c-0.4,0-0.7,0-1,0c-0.6,0-1.2,0-1.7-0.1c-0.1,0-0.2-0.1-0.2-0.2
		c-0.1-0.3-0.1-0.7-0.1-1.1c0.7,0.1,1.4,0.1,2.1,0.1c0.3,0,0.5,0,0.8,0v-1.5c-0.5,0-1,0-1.3,0c-0.7,0-1.3,0-1.8-0.1
		c-0.1,0-0.2-0.1-0.2-0.2c0-0.3-0.1-0.7-0.1-1.2c0.8,0.1,1.9,0.1,3.4,0.1c0-0.2,0-0.7,0-1.3c0-0.3-0.1-0.6-0.2-0.9
		c0.7,0,1.3,0.1,1.6,0.2c0.1,0,0.2,0.1,0.2,0.2s0,0.1,0,0.1c-0.1,0.2-0.2,0.5-0.2,0.6s0,0.2,0,0.4c0,0.2,0,0.3,0,0.4
		c1-0.1,1.9-0.2,2.8-0.4h0.1c0.1,0,0.1,0.1,0.1,0.2c0,0.3,0.1,0.6,0.1,0.9c0,0.1,0,0.2-0.1,0.2c-0.9,0.2-1.9,0.3-3,0.3v1.5
		c0.4,0,1.2-0.1,2.5-0.3h0.1c0.1,0,0.1,0,0.1,0.1c0,0.5,0,0.9,0,1.1c0,0.1-0.1,0.2-0.2,0.2c-0.9,0.1-1.8,0.3-2.5,0.3
		c0,0.9,0.1,1.5,0.1,1.8c1.3,0.3,2.4,0.9,3.4,1.6c0.1,0.1,0.1,0.1,0.1,0.2v0.1c-0.1,0.4-0.3,0.7-0.6,1c0,0.1-0.1,0.1-0.2,0.1
		s-0.1,0-0.1-0.1c-0.7-0.6-1.6-1.1-2.6-1.5c0,0.7-0.3,1.3-0.7,1.6c-0.4,0.3-1,0.4-1.9,0.4s-1.6-0.2-2.1-0.6
		c-0.4-0.3-0.6-0.7-0.6-1.2c0-0.6,0.3-1,0.8-1.4c0.5-0.3,1.1-0.5,1.8-0.5C285.7,70.5,286.1,70.6,286.5,70.6z M286.5,71.8
		c-0.4-0.1-0.8-0.2-1.2-0.2c-0.9,0-1.4,0.2-1.4,0.7c0,0.4,0.4,0.6,1.3,0.6c0.6,0,1-0.1,1.2-0.4C286.5,72.4,286.5,72.2,286.5,71.8z"
		/>
	<path class="st2" d="M298.8,64.9c0-0.1,0-0.3,0-0.6c0-0.2,0-0.4,0-0.5c0-0.3-0.1-0.6-0.2-1c0.6,0,1.1,0.1,1.5,0.2
		c0.2,0,0.4,0.1,0.4,0.2s0,0.2-0.1,0.3c0,0.1-0.1,0.2-0.1,0.4c0,0.1,0,0.3,0,0.8c1.2,0,2.5-0.1,4-0.1c0.1,0,0.1,0,0.2,0s0,0.1,0,0.2
		c0,0.2,0,0.3,0,0.5s0,0.3,0,0.5c0,0.1-0.1,0.2-0.2,0.2c0,0,0,0-0.1,0c-0.8,0-1.6,0-2.5,0c-0.5,0-1,0-1.5,0c0,1.1,0,1.9,0,2.4
		c0.1,0.4,0.2,0.8,0.2,1.3c0,1.8-0.8,3.2-2.3,4.2c-0.3,0.2-0.4,0.2-0.5,0.2s-0.2-0.1-0.4-0.2c-0.3-0.2-0.6-0.4-1-0.5
		c0.8-0.4,1.4-0.8,1.9-1.4c0.4-0.5,0.7-1,0.8-1.5c-0.2,0.3-0.6,0.5-1.2,0.5s-1-0.2-1.4-0.6c-0.3-0.4-0.5-0.8-0.5-1.4
		c0-0.6,0.2-1.1,0.7-1.5c0.4-0.3,0.8-0.5,1.3-0.5s0.8,0.1,1,0.3V66c-1.9,0.1-3.4,0.2-4.5,0.4c-0.1,0-0.2,0-0.4,0.1
		c-0.1,0-0.2,0.1-0.2,0.1c-0.1,0-0.2-0.1-0.2-0.2c-0.1-0.2-0.2-0.7-0.3-1.3c0.1,0,0.3,0,0.4,0s0.5,0,1.2-0.1
		C295.5,65.1,296.8,65.1,298.8,64.9z M298,68.3c-0.2,0-0.5,0.1-0.6,0.2s-0.2,0.4-0.2,0.6c0,0.3,0.1,0.5,0.3,0.7
		c0.1,0.1,0.3,0.2,0.6,0.2c0.3,0,0.5-0.1,0.7-0.3s0.2-0.4,0.2-0.6c0-0.3-0.1-0.5-0.3-0.6C298.4,68.3,298.2,68.3,298,68.3z"/>
	<path class="st2" d="M309.5,63.2l-0.3,7.7h-1.3l-0.4-7.7H309.5z M307.5,72.2h1.8V74h-1.8V72.2z"/>
</g>
<g id="グループ_842" transform="translate(154.151 373.073)">
	<path id="パス_368" class="st3" d="M6.7-286l-0.3,10.8c0,0.3,0.4,0.3,0.7,0.3c0.1,0,0.2,0,0.3-0.1c0.3-0.1,0.6-0.5,1-1l8.9-10.1
		h144c6.3,0,11.5-5.1,11.5-11.5v-13c0-6.3-5.1-11.5-11.5-11.5H7.2c-6.3,0-11.5,5.1-11.5,11.5v13C-4.3-291.3,0.6-286.2,6.7-286z
		 M-2.6-310.4c0-5.4,4.4-9.8,9.8-9.8h154.2c5.4,0,9.8,4.4,9.8,9.8v13c0,5.4-4.4,9.8-9.8,9.8H16.5c-0.5,0-1.5,1.5-1.5,1.5l-7,8.6
		l0.5-9.9c0.1-0.2-1.1-0.2-1.3-0.2c-5.4,0-9.8-4.4-9.8-9.8L-2.6-310.4z"/>
</g>
<g id="グループ_843" transform="translate(-3859.237 -2658.418)">
	<path id="パス_348-3" class="st2" d="M3987.6,2708.4c-2.3-5.5-8.5-9.3-13.2-11.5c-7.9-3.6-19.7-4.6-26.9,1.6
		c-2.1,2.1-3.9,4.5-5.3,7.1c-0.4,0.8-1.3,1.1-2.1,0.9c-2.3-0.7-5.4,1.2-7.2,3.2c-1.8,2.3-2.9,5.1-3.1,8c-0.5,4.1,0.7,7.4,2.4,11.2
		c0.6-0.3,1.1-0.5,1.7-0.7c0.2-0.1,0.4-0.1,0.6-0.1c2.4,0,4.5-1.7,4.9-4.1l1.9-11.1c0.2-0.9,0.9-1.5,1.8-1.5h32.9
		c0.9,0,1.6,0.6,1.8,1.4l2.5,11.4c0.5,2.2,2.4,3.8,4.6,3.9h0.6c0.2,0,0.3,0,0.5,0.1c0.5,0.1,0.9,0.3,1.3,0.5
		C3988.2,2724.3,3990,2714.2,3987.6,2708.4z"/>
	<path id="パス_349-3" class="st0" d="M3956.1,2785.9l-10.5-9.2l-2.5,0.5l5.8,12.4L3956.1,2785.9z"/>
	<path id="パス_350-3" class="st4" d="M4004.3,2783.1l-25.2-5.1l-7,14.9c-0.4,0.9-1.5,1.3-2.4,0.9c0,0,0,0-0.1,0l-10.4-5.3
		l-10.4,5.3c-0.9,0.5-2,0.1-2.5-0.8c0,0,0,0,0-0.1l-7-14.9l-25.2,5.1c-6.4,1.3-11.1,7-11.1,13.6v22.6h112.2v-22.6
		C4015.4,2790.1,4010.8,2784.4,4004.3,2783.1z M3959.1,2816.5c-1.1,0-2-0.9-2-2s0.9-2,2-2s2,0.9,2,2
		C3961.1,2815.6,3960.2,2816.5,3959.1,2816.5L3959.1,2816.5L3959.1,2816.5z M3959.1,2797.9c-1.1,0-2-0.9-2-2s0.9-2,2-2s2,0.9,2,2
		S3960.2,2797.9,3959.1,2797.9L3959.1,2797.9z"/>
	<path id="パス_352-3" class="st0" d="M3975.5,2777.2l-2.5-0.5l-10.5,9.2l7.1,3.6L3975.5,2777.2z"/>
	<path id="パス_354-3" class="st5" d="M3960.8,2744.6l2.6-2.6l-3.2-3.2l3.2-3.2l-2.6-2.6l-4.5,4.5c-0.7,0.7-0.7,1.9,0,2.6l0,0
		L3960.8,2744.6z"/>
	<circle id="楕円形_44-3" class="st5" cx="3949.6" cy="2734.7" r="2.8"/>
	<circle id="楕円形_45-3" class="st5" cx="3970.1" cy="2734.7" r="2.8"/>
	<path id="パス_355-3" class="st5" d="M4005.1,2779.5l-30.2-6.2v-12.1c1-0.7,1.9-1.4,2.7-2.2c3.6-3.6,6.2-8.1,7.7-13
		c1.6-0.5,3.1-1.3,4.4-2.4c2.9-2.6,4-6.8,2.6-9.9c-0.4-0.9-1-1.7-1.7-2.5l0,0c0.9-3.8,3.7-16.5,0.6-24.1c-2.2-5.3-7.3-9.8-15.1-13.4
		c-9.3-4.2-22.4-5.2-30.9,2.2c-2.2,2.1-4,4.4-5.5,7c-3.5-0.2-7.3,2.1-9.5,4.6c-2.3,2.9-3.7,6.3-3.9,10c-0.6,5.2,0.9,9.3,3.1,13.9
		c-0.6,0.7-1.2,1.5-1.6,2.3c-1.4,3.2-0.4,7.4,2.6,9.9c1.3,1.1,2.8,1.9,4.4,2.4c1.4,4.9,4.1,9.4,7.7,13c0.8,0.8,1.7,1.6,2.7,2.2v11.9
		l-31.2,6.4c-8.1,1.7-14,8.8-14,17.1v24.4c0,1,0.8,1.8,1.8,1.8l0,0h115.8c1,0,1.8-0.8,1.8-1.8l0,0v-24.4
		C4019.1,2788.3,4013.2,2781.2,4005.1,2779.5z M3975.5,2777.2l-5.8,12.3l-7.1-3.6l10.5-9.2L3975.5,2777.2z M3929.6,2717.8
		c0.2-2.9,1.2-5.7,3.1-8c1.8-2.1,4.9-3.9,7.2-3.2c0.8,0.2,1.7-0.1,2.1-0.9c1.4-2.6,3.2-5,5.3-7.1c7.2-6.3,19-5.2,26.9-1.6
		c4.8,2.2,10.9,5.9,13.2,11.5c2.4,5.8,0.6,15.9-0.4,20.4c-0.4-0.2-0.9-0.4-1.3-0.5c-0.2,0-0.3-0.1-0.5-0.1h-0.6
		c-2.2-0.1-4.1-1.7-4.6-3.9l-2.5-11.4c-0.2-0.8-0.9-1.4-1.8-1.4h-32.9c-0.9,0-1.6,0.6-1.8,1.5l-1.9,11.1c-0.4,2.4-2.5,4.1-4.9,4.1
		c-0.2,0-0.4,0-0.6,0.1c-0.6,0.2-1.2,0.5-1.7,0.7C3930.3,2725.2,3929.2,2721.9,3929.6,2717.8L3929.6,2717.8z M3944.7,2756.4
		c-3.4-3.4-5.8-7.7-7-12.3c-0.2-0.6-0.7-1.1-1.3-1.3c-1.4-0.3-2.8-1-3.9-1.9c-1.7-1.5-2.4-4-1.6-5.7c0.3-0.5,0.6-1,1-1.4
		c0.8-0.8,1.8-1.4,2.8-1.8c4.1-0.1,7.5-3.1,8.2-7.1l1.7-9.6h29.9l2.2,10c0.8,3.8,4.1,6.5,8,6.7h0.3c1.1,0.4,2.1,1,2.9,1.8
		c0.4,0.4,0.8,0.9,1,1.4c0.8,1.7,0.1,4.2-1.6,5.7c-1.1,0.9-2.5,1.6-3.9,1.9c-0.6,0.2-1.1,0.6-1.3,1.3c-1.2,4.7-3.6,8.9-7,12.3
		C3966.5,2764.5,3953.1,2764.5,3944.7,2756.4L3944.7,2756.4z M3959.8,2766.1h0.1c3.9-0.1,7.8-1,11.3-2.7v10.1l-11.9,10.4l-10.9-9.6
		v-10.9C3952,2765.1,3955.8,2766,3959.8,2766.1L3959.8,2766.1z M3945.6,2776.7l10.5,9.2l-7.1,3.6l-5.8-12.3L3945.6,2776.7z
		 M4015.4,2819.2h-112.2v-22.6c0-6.6,4.6-12.2,11.1-13.6l25.2-5.1l7,14.9c0.4,0.9,1.5,1.3,2.4,0.9c0,0,0,0,0.1,0l10.4-5.3l10.4,5.3
		c0.9,0.5,2,0.1,2.5-0.8c0,0,0,0,0-0.1l7-14.9l25.2,5.1c6.4,1.3,11.1,7,11.1,13.6L4015.4,2819.2z"/>
	<circle id="楕円形_46-3" class="st2" cx="3959.1" cy="2795.9" r="2"/>
	<circle id="楕円形_47-3" class="st2" cx="3959.1" cy="2814.5" r="2"/>
	<path id="パス_357-3" class="st5" d="M3968.9,2749.2c0-1-0.8-1.8-1.8-1.8l0,0h-14.6c-1,0-1.8,0.8-1.8,1.8l0,0
		c0,5,4.1,9.1,9.1,9.1C3964.8,2758.4,3968.9,2754.3,3968.9,2749.2L3968.9,2749.2L3968.9,2749.2z M3954.7,2751.1h10.3
		c-1,2.8-4.1,4.3-7,3.3C3956.4,2753.8,3955.2,2752.6,3954.7,2751.1z"/>
</g>
</svg>
