<?xml version="1.0" encoding="iso-8859-1"?>
<!-- Generator: Adobe Illustrator 25.0.1, SVG Export Plug-In . SVG Version: 6.00 Build 0)  -->
<svg version="1.1" id="&#x30EC;&#x30A4;&#x30E4;&#x30FC;_1"
	 xmlns="http://www.w3.org/2000/svg" xmlns:xlink="http://www.w3.org/1999/xlink" x="0px" y="0px" viewBox="0 0 421.076 70.968"
	 style="enable-background:new 0 0 421.076 70.968;" xml:space="preserve">
<g>
	<g>
		<path style="fill:#42210B;" d="M355.68,11.955h-43.398v12.943h36.926v9.42h-6.472v12.943h12.943c3.574,0,6.472-2.897,6.472-6.472
			V18.426C362.152,14.852,359.254,11.955,355.68,11.955z"/>
		<path style="fill:#42210B;" d="M408.133,24.366v22.705c-0.406,2.783-2.723,2.783-3.724,2.783h-29.512v12.943h29.512
			c11.539,0,16.282-8.95,16.654-14.967c0.008-0.133,0.013-0.267,0.013-0.4V24.366H408.133z"/>
		<path style="fill:#42210B;" d="M325.11,47.072c-0.406,2.783-2.723,2.783-3.724,2.783h-9.109v12.943h9.109
			c11.539,0,16.282-8.95,16.654-14.967c0.008-0.133,0.013-0.267,0.013-0.4V34.614H325.11V47.072z"/>
		<rect x="151.827" y="29.3" style="fill:#42210B;" width="38.83" height="12.943"/>
		<path style="fill:#42210B;" d="M289.587,31.525c-0.254,2.448-1.828,9.446-11.441,9.446H262.14v12.943h15.818v8.836h12.943V50.898
			c8.291-4.583,11.285-13.332,11.617-18.683c0.008-0.133,0.013-0.267,0.013-0.4v-6.782h-12.943V31.525z"/>
		<path style="fill:#42210B;" d="M200.885,42.13h19.49v4.942c-0.406,2.783-2.723,2.783-3.724,2.783h-15.337
			c0,0,0.283,13.226,0,12.943h15.337c11.539,0,16.282-8.95,16.654-14.967c0.008-0.133,0.013-0.267,0.013-0.4V42.13h19.727V29.187
			h-52.161V42.13z"/>
		<rect x="200.885" y="11.724" style="fill:#42210B;" width="33.888" height="12.943"/>
		<rect x="257.614" y="11.788" style="fill:#42210B;" width="12.943" height="12.943"/>
		<rect x="240.103" y="11.788" style="fill:#42210B;" width="12.943" height="12.943"/>
		<path style="fill:#42210B;" d="M127.702,21.356h-11.156V11.98h-12.943v9.376H90.015V34.3h13.589v12.772
			c-0.406,2.783-2.723,2.783-3.724,2.783h-9.109v12.943h9.109c11.539,0,16.282-8.95,16.654-14.967
			c0.008-0.133,0.013-0.267,0.013-0.4V34.3h11.156V49.92h-6.472v12.943h12.943c3.574,0,6.472-2.897,6.472-6.472v-25.57v-2.995
			v-16.04h-12.943V21.356z"/>
		<rect x="144.452" y="11.788" style="fill:#42210B;" width="12.943" height="12.943"/>
		<rect x="375.659" y="11.487" style="fill:#42210B;" width="26.501" height="12.943"/>
	</g>
	<g>
		<ellipse style="fill:#FF1493;" cx="32.625" cy="42.058" rx="19.362" ry="20.054"/>
		<g>
			<path style="fill:#42210B;" d="M39.541,48.282v19.362l21.437-6.915c0,0-5.532-6.224-5.532-11.064s3.458-8.298,2.766-15.905
				c-0.692-7.607-3.458-13.83-8.99-20.054S32.625,2.642,32.625,2.642S21.561,7.482,16.029,13.706S7.731,26.153,7.04,33.76
				s2.766,11.064,2.766,15.905S4.273,60.729,4.273,60.729l21.437,6.915V48.282c0,0-14.974-5.852-8.99-13.83
				c6.224-8.298,15.905,4.841,15.905,4.841s9.681-13.139,15.905-4.841C54.514,42.43,39.541,48.282,39.541,48.282z"/>
			<path style="fill:#FFFFFF;" d="M32.625,2.642c0,0,11.064,4.841,16.596,11.064s8.298,12.447,8.99,20.054
				c0.692,7.607-2.766,11.064-2.766,15.905s5.532,11.064,5.532,11.064l-21.437,6.915V48.282c0,0,14.974-5.852,8.99-13.83
				c-1.494-1.992-3.186-2.749-4.897-2.748c-5.416,0.001-11.008,7.589-11.008,7.589s-5.592-7.589-11.008-7.589
				c-1.71,0-3.403,0.757-4.897,2.748c-5.984,7.978,8.99,13.83,8.99,13.83v19.362L4.273,60.729c0,0,5.532-6.224,5.532-11.064
				S6.348,41.366,7.04,33.76s3.458-13.83,8.99-20.054S32.625,2.642,32.625,2.642 M32.625,0l-0.97,0.424
				C31.184,0.631,20.038,5.553,14.22,12.098c-5.887,6.623-8.845,13.236-9.591,21.443c-0.451,4.961,0.709,8.418,1.642,11.195
				c0.598,1.78,1.114,3.318,1.114,4.929c0,3.2-3.644,8.02-4.921,9.456L0,61.893l3.53,1.139l21.437,6.915l3.163,1.02v-3.324V48.282
				v-1.653l-1.539-0.602c-1.974-0.777-7.825-3.729-8.747-6.983c-0.182-0.641-0.295-1.664,0.812-3.141
				c1.197-1.596,2.263-1.78,2.961-1.78c3.403,0,7.792,4.893,9.061,6.607l1.95,2.633l1.945-2.635c1.268-1.712,5.657-6.604,9.06-6.605
				c0.698,0,1.763,0.185,2.96,1.78c1.109,1.478,0.994,2.503,0.811,3.145c-0.931,3.271-6.773,6.208-8.746,6.979l-1.539,0.602v1.653
				v19.362v3.324l3.163-1.02l21.437-6.915l3.53-1.139l-2.465-2.773c-1.902-2.147-4.921-6.615-4.921-9.456
				c0-1.61,0.516-3.148,1.114-4.929c0.933-2.777,2.093-6.234,1.642-11.195c-0.746-8.207-3.704-14.82-9.591-21.443
				C45.213,5.553,34.067,0.631,33.596,0.424L32.625,0L32.625,0z"/>
		</g>
		<g>
			<g>
				<circle style="fill:#FFFFFF;" cx="37.12" cy="26.153" r="1.383"/>
				<circle style="fill:#FFFFFF;" cx="44.035" cy="26.153" r="1.383"/>
				<circle style="fill:#FFFFFF;" cx="50.259" cy="26.153" r="1.383"/>
			</g>
			<g>
				<circle style="fill:#FFFFFF;" cx="28.131" cy="26.153" r="1.383"/>
				<circle style="fill:#FFFFFF;" cx="21.216" cy="26.153" r="1.383"/>
				<circle style="fill:#FFFFFF;" cx="14.992" cy="26.153" r="1.383"/>
			</g>
		</g>
	</g>
</g>
</svg>
