<svg xmlns="http://www.w3.org/2000/svg" width="58.193" height="53.837" viewBox="0 0 58.193 53.837">
  <g id="グループ_710" data-name="グループ 710" transform="translate(-1670.5 -623.5)">
    <path id="パス_130" data-name="パス 130" d="M1700.8,756.6h-14.4l-6.3,7.2a1.2,1.2,0,0,1-2.1-.79V756.6h-3.6a2.4,2.4,0,0,1-2.4-2.4V731.4a2.4,2.4,0,0,1,2.4-2.4h26.4a2.4,2.4,0,0,1,2.4,2.4v22.8A2.4,2.4,0,0,1,1700.8,756.6Z" transform="translate(0 -88.402)" fill="none" stroke="#ec111a" stroke-linejoin="round" stroke-width="3"/>
    <path id="パス_131" data-name="パス 131" d="M1842.8,699.4h7.2l6.3,7.2a1.2,1.2,0,0,0,2.1-.79V699.4h2.4a2.4,2.4,0,0,0,2.4-2.4V675.4a2.4,2.4,0,0,0-2.4-2.4h-26.4a2.4,2.4,0,0,0-2.4,2.4v2.4" transform="translate(-136.003 -40.801)" fill="none" stroke="#ec111a" stroke-linejoin="round" stroke-width="3"/>
    <path id="パス_132" data-name="パス 132" d="M1750,628.6v-1.2a2.4,2.4,0,0,0-2.4-2.4h-25.2a2.4,2.4,0,0,0-2.4,2.4V637" transform="translate(-40.801 0)" fill="none" stroke="#ec111a" stroke-linejoin="round" stroke-width="3"/>
    <line id="線_1" data-name="線 1" y2="1.733" transform="translate(1687.71 661.383)" fill="none" stroke="#ec111a" stroke-miterlimit="10" stroke-width="3"/>
    <path id="パス_133" data-name="パス 133" d="M1752,780.6a3.428,3.428,0,0,1,3.6-3.6,3.477,3.477,0,0,1,3.6,3.6,4.6,4.6,0,0,1-1.777,3.225,4.259,4.259,0,0,0-1.823,3.975" transform="translate(-68.001 -129.203)" fill="none" stroke="#ec111a" stroke-miterlimit="10" stroke-width="3"/>
    <line id="線_2" data-name="線 2" y2="3.466" transform="translate(1712.839 650.985)" fill="none" stroke="#ec111a" stroke-miterlimit="10" stroke-width="3"/>
    <path id="パス_134" data-name="パス 134" d="M1920,716.6a3.428,3.428,0,0,1,3.6-3.6,3.477,3.477,0,0,1,3.6,3.6,4.6,4.6,0,0,1-1.776,3.225,4.259,4.259,0,0,0-1.823,3.975" transform="translate(-210.804 -74.802)" fill="none" stroke="#ec111a" stroke-miterlimit="10" stroke-width="3"/>
  </g>
</svg>
