<?xml version="1.0" encoding="utf-8"?>
<!-- Generator: Adobe Illustrator 18.0.0, SVG Export Plug-In . SVG Version: 6.00 Build 0)  -->
<!DOCTYPE svg PUBLIC "-//W3C//DTD SVG 1.1//EN" "http://www.w3.org/Graphics/SVG/1.1/DTD/svg11.dtd">
<svg version="1.1" id="レイヤー_1" xmlns="http://www.w3.org/2000/svg" xmlns:xlink="http://www.w3.org/1999/xlink" x="0px"
	 y="0px" viewBox="4 817.6 1431 364.9" enable-background="new 4 817.6 1431 364.9" xml:space="preserve">
<g>
	<g>
		
			<linearGradient id="SVGID_1_" gradientUnits="userSpaceOnUse" x1="157.7" y1="1979.5" x2="0.5" y2="1979.5" gradientTransform="matrix(9.0967 0 0 -9.0967 0 19006.8223)">
			<stop  offset="0" style="stop-color:#A437B8"/>
			<stop  offset="0.1736" style="stop-color:#A637B5"/>
			<stop  offset="0.2791" style="stop-color:#AD36AD"/>
			<stop  offset="0.3664" style="stop-color:#B9349F"/>
			<stop  offset="0.4433" style="stop-color:#CA328A"/>
			<stop  offset="0.5" style="stop-color:#DB3076"/>
			<stop  offset="1" style="stop-color:#F77D34"/>
		</linearGradient>
		<path fill="url(#SVGID_1_)" stroke="#FFFFFF" stroke-miterlimit="10" d="M16.4,1181.9h1406.3c6.4,0,11.8-5.5,11.8-11.8V829.9
			c0-6.4-5.5-11.8-11.8-11.8H16.4c-6.4,0-11.8,5.5-11.8,11.8v339.3C4.5,1176.5,10,1181.9,16.4,1181.9z"/>
	</g>
	<g enable-background="new    ">
		<path fill="#FFFFFF" d="M554.4,1058.8V941h21.2v117.8H554.4z"/>
		<path fill="#FFFFFF" d="M601.5,1058.8v-84.1h19.9v8.2c6.8-6.3,13.6-9.5,20.5-9.5c4.8,0,8.3,1.8,10.5,5.3c2.2,3.5,3.3,7.8,3.3,12.9
			v67.2h-19.9V996c0-2.7-0.4-4.6-1.1-5.9c-0.8-1.3-2.2-1.9-4.4-1.8c-2.5,0-5.4,1.3-8.9,3.8v66.7H601.5z"/>
		<path fill="#FFFFFF" d="M701.3,1060.2c-7,0-12.7-1.9-17.1-5.8c-4.5-3.9-7.5-9.5-9.2-16.8l15.1-5.5c1,4.6,2.5,8.2,4.4,10.6
			c1.9,2.4,4.3,3.5,7.1,3.4c2.1,0,3.8-0.8,5.2-2.2c1.4-1.4,2-3.2,1.9-5.3c-0.2-3-3-6.8-8.3-11.4l-11.3-9.7c-8.1-7-12.1-14.3-11.9-22
			c0.1-6.7,2.4-12.1,6.9-16.1c4.4-4,10.1-6,16.9-6c6.6,0,11.9,2,16.1,6c4.1,4,6.8,9.3,8,16l-13.1,5.5c-1.8-8.7-5.2-13.1-10.1-13.1
			c-2.1,0-3.8,0.6-5,1.9c-1.3,1.3-1.9,2.9-1.9,4.8c0,2.6,2.3,5.9,7,10l11.5,10.4c1.9,1.7,3.6,3.2,4.8,4.6c1.3,1.4,2.6,3,4,4.9
			c1.4,1.9,2.4,4,3.1,6.3c0.7,2.2,1,4.6,1,7.2c0,7.1-2.4,12.6-7.1,16.5C714.7,1058.2,708.7,1060.2,701.3,1060.2z"/>
		<path fill="#FFFFFF" d="M769.7,1059.9c-3.8,0-7.1-0.7-9.8-1.9c-2.7-1.2-4.7-3-6.2-5.3c-1.4-2.3-2.5-4.9-3.1-7.7s-1-6.2-1-9.9
			v-47.3h-8.3v-13.1h8.3v-24.7h20v24.7h12.8v13.1h-12.8v48.5c0,2.7,0.6,4.7,1.8,5.9s3.1,1.8,5.8,1.9c1.8,0,3.9-0.1,6-0.4v15.2
			C777.6,1059.7,773.1,1060,769.7,1059.9z"/>
		<path fill="#FFFFFF" d="M819.8,1060.2c-5.3,0-9.7-2.1-13-6.2c-3.4-4.1-5.1-8.7-5.1-13.9c0-4.9,0.8-9.1,2.4-12.8
			c1.6-3.6,4.3-6.8,7.9-9.4s6.7-4.5,9.1-5.7c2.4-1.2,6.1-2.7,11.2-4.7c1.4-0.6,2.5-1,3.2-1.3v-7c0-3.8-0.4-6.6-1.3-8.3
			c-0.9-1.8-2.7-2.6-5.4-2.6c-4.4,0-6.7,3.1-6.8,9.2l-0.3,5.3l-19-0.7c0-0.3,0-0.8,0-1.6c0-0.8,0-1.3,0-1.5
			c0.6-8.8,3.2-15.3,7.9-19.4c4.6-4.1,11.2-6.2,19.8-6.2c8.3,0,14.4,2.3,18.4,6.8c4,4.5,6,10.9,6,19.1v38.4c0,6.4,0.5,13.5,1.6,21.1
			h-18c-1.1-5.5-1.8-9.6-2.1-12.4c-1.2,3.9-3.2,7.1-5.9,9.8C827.7,1058.8,824.1,1060.2,819.8,1060.2z M827.4,1044.7
			c1.5,0,3-0.6,4.5-1.7c1.5-1.1,2.7-2.3,3.6-3.5v-23.2c-9.9,5.4-14.8,11.6-14.8,18.5c0,3,0.6,5.4,1.7,7.2
			C823.6,1043.9,825.2,1044.7,827.4,1044.7z"/>
		<path fill="#FFFFFF" d="M907.5,1084.3c-2.5,0-4.7,0-6.6-0.1c-1.9,0-4-0.2-6.5-0.4c-2.5-0.2-4.6-0.5-6.4-0.9
			c-1.8-0.4-3.6-1-5.5-1.7c-1.9-0.7-3.4-1.6-4.5-2.5c-1.2-1-2.1-2.2-2.9-3.7c-0.8-1.5-1.1-3.2-1.1-5c0-7.1,4-13,11.9-17.8
			c-5.7-1.9-8.7-5.1-9-9.5c-0.2-3,0.4-5.6,1.9-7.9c1.5-2.2,4.1-4.8,7.7-7.8c-3.1-2.4-5.5-5.3-7-8.9c-1.6-3.6-2.3-8.3-2.3-14.3
			c0-10.3,2.2-18,6.7-23c4.5-5,11-7.5,19.4-7.5c8.7,0,14.7,2.7,18.1,8.2c1-1.3,2.6-2.8,4.7-4.5c2.1-1.8,4.3-3.2,6.6-4.3l2.8-1.3
			l4.7,11.1c-1.7,0.4-4.2,1.3-7.5,2.6c-3.4,1.3-5.6,2.3-6.8,3c0.9,1.7,1.7,4,2.3,7c0.7,3,1,6,1,9.1c0,19.2-8.4,28.9-25.2,28.9
			c-1.4,0-3.3-0.2-5.6-0.6c-2.4-0.4-3.9-0.7-4.7-1c-1.6,2.4-2.4,4.3-2.3,5.5c0.1,1.9,2.6,3.1,7.4,3.6c0.6,0.1,3.1,0.4,7.5,0.8
			c4.5,0.5,7.1,0.7,7.8,0.8c7.1,0.8,12.2,2.8,15.5,6.1c3.3,3.3,4.9,8.1,4.9,14.3c0,7.4-2.1,12.9-6.3,16.5
			C924.2,1082.6,917.3,1084.3,907.5,1084.3z M907.4,1070.3c4.1,0,7-0.5,8.9-1.6c1.9-1,2.8-2.7,2.9-5c0.1-2.5-0.5-4.3-1.9-5.5
			c-1.4-1.2-4-1.9-7.7-2.2l-13.4-1.3c-2.9,3.4-4.3,6.5-4.3,9.3c0,1.5,0.4,2.7,1.1,3.6c0.7,0.9,2.3,1.5,4.5,2
			C899.8,1070.1,903.1,1070.3,907.4,1070.3z M903.6,1020.1c3.3,0,5.5-1.2,6.5-3.7c1-2.5,1.5-6.8,1.5-13.1c0-6.4-0.5-10.9-1.4-13.4
			c-0.9-2.5-3.1-3.8-6.4-3.8c-3.4,0-5.5,1.3-6.5,3.8c-1,2.5-1.5,7-1.5,13.4c0,2.3,0,4.2,0.1,5.8c0.1,1.6,0.3,3.1,0.6,4.6
			c0.3,1.5,0.8,2.6,1.4,3.5c0.6,0.9,1.3,1.6,2.3,2.1C901,1019.9,902.2,1020.1,903.6,1020.1z"/>
		<path fill="#FFFFFF" d="M955.3,1058.8v-84.1h19.9v12.9c2.8-5,5.6-8.6,8.5-10.7c2.9-2.2,5.9-3.3,9.2-3.3c1,0,2,0.1,3,0.4v19.7
			c-2.2-0.9-4.5-1.3-6.9-1.3c-2.8,0.1-5.3,0.8-7.5,2.1c-2.2,1.3-4.3,3.5-6.3,6.6v57.7H955.3z"/>
		<path fill="#FFFFFF" d="M1030.5,1060.2c-5.3,0-9.7-2.1-13-6.2c-3.4-4.1-5.1-8.7-5.1-13.9c0-4.9,0.8-9.1,2.4-12.8
			c1.6-3.6,4.3-6.8,7.9-9.4s6.7-4.5,9.1-5.7c2.4-1.2,6.1-2.7,11.2-4.7c1.4-0.6,2.5-1,3.2-1.3v-7c0-3.8-0.4-6.6-1.3-8.3
			c-0.9-1.8-2.7-2.6-5.4-2.6c-4.4,0-6.7,3.1-6.8,9.2l-0.3,5.3l-19-0.7c0-0.3,0-0.8,0-1.6c0-0.8,0-1.3,0-1.5
			c0.6-8.8,3.2-15.3,7.9-19.4c4.6-4.1,11.2-6.2,19.8-6.2c8.3,0,14.4,2.3,18.4,6.8c4,4.5,6,10.9,6,19.1v38.4c0,6.4,0.5,13.5,1.6,21.1
			h-18c-1.1-5.5-1.8-9.6-2.1-12.4c-1.2,3.9-3.2,7.1-5.9,9.8C1038.4,1058.8,1034.8,1060.2,1030.5,1060.2z M1038.1,1044.7
			c1.5,0,3-0.6,4.5-1.7c1.5-1.1,2.7-2.3,3.6-3.5v-23.2c-9.9,5.4-14.8,11.6-14.8,18.5c0,3,0.6,5.4,1.7,7.2
			C1034.3,1043.9,1036,1044.7,1038.1,1044.7z"/>
		<path fill="#FFFFFF" d="M1089.2,1058.8v-84.1h18.9v7.4c5.6-5.9,12.3-8.9,20-8.9c7,0,11.7,3.4,14,10.3c5.9-6.9,13-10.3,21.2-10.3
			c4.7,0,8.5,1.7,11.3,5.1s4.3,8.4,4.3,14.9v65.7H1160v-64c0-3.1-0.5-5.3-1.5-6.5c-1-1.3-2.5-1.9-4.5-1.8c-3.5,0.1-6.9,1.7-10.4,4.9
			c0,0.2,0,0.5,0,0.9c0,0.4,0,0.7,0,0.9v65.7h-18.8v-64c0-3.1-0.5-5.3-1.5-6.5c-1-1.3-2.5-1.9-4.6-1.8c-3.3,0.1-6.8,1.8-10.5,5v67.4
			H1089.2z"/>
	</g>
	<path fill="#FFFFFF" d="M363.9,953.6c-0.9-11.8-5.5-22.7-14.6-30.9c-9.1-9.1-20.9-12.7-33.7-13.6c-20.9-0.9-71.9-1.8-89.1,0.9
		c-20,3.6-33.7,15.5-39.1,35.5c-4.5,15.5-3.6,86.4-0.9,101.9c3.6,20.9,15.5,34.6,36.4,39.1c14.6,3.6,84.6,3.6,100.1,0.9
		c20.9-3.6,34.6-15.5,40-36.4C366.6,1034.6,365.7,967.3,363.9,953.6z M347.5,1043.7c-2.7,15.5-12.7,25.5-29.1,27.3
		c-14.6,1.8-80.1,2.7-93.7-0.9c-12.7-3.6-20-12.7-22.7-25.5c-1.8-12.7-2.7-74.6,0-91c2.7-15.5,12.7-25.5,29.1-27.3
		c16.4-1.8,73.7-1.8,89.1,0c15.5,2.7,25.5,12.7,27.3,29.1C349.3,970,349.3,1028.2,347.5,1043.7z M274.7,951.8
		c-25.5,0-46.4,20.9-46.4,46.4s20.9,46.4,46.4,46.4c25.5,0,46.4-20.9,46.4-46.4S300.2,951.8,274.7,951.8z M274.7,1028.2
		c-16.4,0-30-13.6-30-30s13.6-30,30-30s30,13.6,30,30C304.7,1015.5,291.1,1028.2,274.7,1028.2z M333.8,950c0,6.4-4.5,10.9-10.9,10.9
		c-6.4,0-10.9-4.5-10.9-10.9c0-6.4,4.5-10.9,10.9-10.9C329.3,939.1,333.8,944.5,333.8,950z"/>
</g>
</svg>
