<svg xmlns="http://www.w3.org/2000/svg" viewBox="0 0 94.46 90"><defs><style>.a{fill:#fff;}</style></defs><title>アセット 2</title><path class="a" d="M94.46,38.33C94.46,17.19,73.27,0,47.23,0S0,17.19,0,38.33C0,57.27,16.8,73.14,39.5,76.14c1.54.33,3.63,1,4.16,2.33a9.7,9.7,0,0,1,.15,4.27l-.67,4c-.21,1.19-.95,4.67,4.09,2.55s27.2-16,37.11-27.42h0C91.18,54.4,94.46,46.78,94.46,38.33ZM30.57,49.61a.92.92,0,0,1-.92.92H16.41a.91.91,0,0,1-.64-.26h0a.91.91,0,0,1-.26-.64h0V29a.92.92,0,0,1,.92-.92h3.31a.92.92,0,0,1,.92.92V45.38h9a.92.92,0,0,1,.92.92Zm8,0a.92.92,0,0,1-.92.92H34.32a.92.92,0,0,1-.92-.92V29a.92.92,0,0,1,.92-.92h3.31a.92.92,0,0,1,.92.92Zm22.8,0a.92.92,0,0,1-.92.92H57.12a.9.9,0,0,1-.24,0h0l-.06,0h0l0,0,0,0h0l-.06,0h0a.91.91,0,0,1-.23-.23L46.93,37.39V49.61a.92.92,0,0,1-.92.92H42.69a.92.92,0,0,1-.92-.92V29a.92.92,0,0,1,.92-.92h3.56l.05,0h0l.05,0h0l0,0,0,0,0,0,0,0,0,0,0,0,.06.06h0l.07.09L56.2,41.26V29a.92.92,0,0,1,.92-.92h3.31a.92.92,0,0,1,.92.92ZM79.65,32.35a.92.92,0,0,1-.92.92h-9v3.48h9a.92.92,0,0,1,.92.92V41a.92.92,0,0,1-.92.92h-9v3.48h9a.92.92,0,0,1,.92.92v3.31a.92.92,0,0,1-.92.92H65.49a.91.91,0,0,1-.64-.26h0a.91.91,0,0,1-.26-.64h0V29h0a.92.92,0,0,1,.26-.63v0h0a.92.92,0,0,1,.64-.26H78.73a.92.92,0,0,1,.92.92Z"/></svg>