<?xml version="1.0" encoding="utf-8"?>
<!-- Generator: Adobe Illustrator 18.0.0, SVG Export Plug-In . SVG Version: 6.00 Build 0)  -->
<!DOCTYPE svg PUBLIC "-//W3C//DTD SVG 1.1//EN" "http://www.w3.org/Graphics/SVG/1.1/DTD/svg11.dtd">
<svg version="1.1" id="レイヤー_1" xmlns="http://www.w3.org/2000/svg" xmlns:xlink="http://www.w3.org/1999/xlink" x="0px"
	 y="0px" viewBox="5.7 749.9 1427.3 500.1" enable-background="new 5.7 749.9 1427.3 500.1" xml:space="preserve">
<g>
	<g>
		<path fill="#0B8F21" stroke="#FFFFFF" stroke-miterlimit="10" d="M22.5,1249.6h1393.8c8.7,0,16.2-7.5,16.2-16.2V766.7
			c0-8.7-7.5-16.2-16.2-16.2H22.5c-8.7,0-16.2,7.5-16.2,16.2v465.4C6.2,1242.1,13.7,1249.6,22.5,1249.6z"/>
	</g>
	<g enable-background="new    ">
		<path fill="#FFFFFF" d="M749.3,1080.7V919h29.4v141.3h38.7v20.4H749.3z"/>
		<path fill="#FFFFFF" d="M846.3,1080.7V919h29.1v161.6H846.3z"/>
		<path fill="#FFFFFF" d="M912.6,1080.7V919h20.3l39.6,91.5V919h24.4v161.6h-19.3l-40-96.2v96.2H912.6z"/>
		<path fill="#FFFFFF" d="M1033.4,1080.7V919h67.7v20.8h-38.2v46.4h30.2v20.8h-30.2v53.3h38.7v20.4H1033.4z"/>
	</g>
	<g>
		<path fill="#FFFFFF" d="M247.1,1138.5c1.2-6.2,2.5-11.2,3.7-16.2c5-16.2,8.7-33.7,13.7-49.9c0-2.5,0-6.2-1.2-7.5
			c-42.4-81.1,1.2-179.7,91.1-200.9c81.1-18.7,154.7,36.2,167.2,108.6c13.7,76.1-36.2,149.7-112.3,162.2c-29.9,5-58.6,1.2-86.1-12.5
			c-2.5-1.2-6.2-1.2-8.7-1.2C278.3,1129.8,254.6,1137.3,247.1,1138.5z M278.3,1106.1c13.7-3.7,26.2-6.2,38.7-10
			c3.7-1.2,6.2,0,10,1.2c23.7,13.7,49.9,18.7,76.1,15c62.4-10,106.1-68.6,96.1-131c-10-64.9-71.1-108.6-134.8-97.3
			C287,897.7,244.6,985,284.5,1053.7c3.7,7.5,5,13.7,2.5,22.5C284.5,1084.9,282,1094.8,278.3,1106.1z"/>
		<path fill="#FFFFFF" d="M421.8,1063.6c-27.5-1.2-69.9-22.5-99.8-73.6c-10-18.7-8.7-38.7,6.2-53.7c5-5,11.2-3.7,17.5-2.5
			c1.2,0,2.5,2.5,3.7,3.7c3.7,8.7,7.5,17.5,11.2,27.5c1.2,5-1.2,10-8.7,17.5c-2.5,2.5-2.5,5-1.2,7.5c11.2,18.7,27.5,33.7,48.7,41.2
			c2.5,1.2,5,0,7.5-2.5c11.2-13.7,12.5-17.5,17.5-15c27.5,13.7,29.9,13.7,29.9,17.5C456.7,1056.2,435.5,1064.9,421.8,1063.6z"/>
	</g>
</g>
</svg>
