<?xml version="1.0" encoding="utf-8"?>
<!-- Generator: Adobe Illustrator 26.0.1, SVG Export Plug-In . SVG Version: 6.00 Build 0)  -->
<svg version="1.1" xmlns="http://www.w3.org/2000/svg" xmlns:xlink="http://www.w3.org/1999/xlink" x="0px" y="0px"
	 viewBox="0 0 157.2 31" style="enable-background:new 0 0 157.2 31;" xml:space="preserve">
<style type="text/css">
	.st0{fill:#FFFFFF;}
	.st1{fill:#F7FDFF;}
	.st2{display:none;fill:#00AEBD;}
	.st3{font-family:'MeiryoUI';}
	.st4{font-size:6.5519px;}
	.st5{display:none;}
	.st6{display:inline;}
	.st7{fill:#FFFFFF;stroke:#B50F0F;stroke-miterlimit:10;}
	.st8{fill:#F7FDFF;stroke:#B50F0F;stroke-miterlimit:10;}
</style>
<g id="レイヤー_1">
	<g id="グループ_709" transform="translate(-137.586 -299.996)">
		<path id="中マド_4" class="st0" d="M149.5,322.2c-1.1,0-2.1-0.2-3.1-0.5c0.5,0.2,1,0.3,1.5,0.4c-0.3-1-0.7-1.9-1.2-2.9
			c-1.1-1.9-2.3-2.8-3.2-2.8c-0.3,0-0.6,0.2-0.7,0.4c-0.3,0.6,0.1,2,1.9,3.9c0.1,0.1,0.2,0.2,0.3,0.3l-0.1,0h0
			c-1.4-0.8-2.7-1.8-3.7-3.2c-0.1-0.9,0.3-1.8,1-2.3c0.6-0.5,1.3-0.7,2.1-0.7c0.7,0,1.4,0.2,2.1,0.5l0,0c0.1-0.4,0.3-0.9,0.6-1.3
			c0.3,0.4,0.7,0.7,1.2,0.9c-0.2,1-0.2,2.1,0.1,3.1c0.3,1.4,0.7,2.8,1.1,4.1L149.5,322.2L149.5,322.2z M150.1,322.2L150.1,322.2
			c0.5-1.5,1.7-5.3,1.2-7.2c0.4-0.2,0.8-0.5,1.2-0.9l0,0c0-0.1-0.1-0.1-0.1-0.2c-0.6-0.9-1.6-1.5-2.7-1.5c-1.1,0-2.1,0.6-2.7,1.5
			c0,0.1-0.1,0.1-0.1,0.2c-0.6-0.7-1-1.6-1-2.5c0-0.9,0.3-1.8,1-2.5c-0.3-0.4-0.4-0.8-0.6-1.3l0,0c-0.6,0.3-1.3,0.5-2.1,0.5
			c-0.8,0-1.5-0.2-2.1-0.7c-0.7-0.5-1.1-1.4-1-2.3c1-1.3,2.3-2.4,3.8-3.2c-0.1,0.1-0.2,0.2-0.3,0.3c-1.8,2-2.1,3.3-1.9,3.9
			c0.1,0.3,0.4,0.5,0.7,0.4c0.8,0,2.1-0.9,3.2-2.8c0.5-0.9,0.9-1.9,1.2-2.9c0.5-0.1,0.9-0.1,1.4-0.2c-0.5,1.3-0.9,2.7-1.1,4.1
			c-0.2,1-0.3,2.1-0.1,3.1c-0.4,0.2-0.8,0.5-1.2,0.9c0,0.1,0.1,0.1,0.1,0.2c0.6,0.9,1.6,1.5,2.7,1.5c1.1,0,2.1-0.6,2.7-1.5
			c0.1-0.1,0.1-0.1,0.1-0.2c-0.3-0.4-0.7-0.7-1.2-0.9c0.5-2-0.7-5.7-1.2-7.2l-0.2,0c0.5,0,1.1,0.1,1.6,0.2c0.3,1,0.7,1.9,1.2,2.9
			c1.1,1.9,2.3,2.8,3.2,2.8c0.3,0,0.6-0.2,0.7-0.4c0.3-0.6-0.1-2-1.9-3.9c-0.1-0.1-0.2-0.2-0.2-0.3l0,0l0,0c1.5,0.8,2.8,1.9,3.8,3.2
			c0.1,0.9-0.3,1.8-1,2.3c-0.6,0.5-1.3,0.7-2.1,0.7c-0.7,0-1.4-0.2-2.1-0.5l0,0c-0.1,0.4-0.3,0.9-0.6,1.3c0.6,0.7,1,1.6,1,2.5
			c0,0.9-0.4,1.8-1,2.5l0,0c0.3,0.4,0.4,0.8,0.6,1.3l0,0c0.6-0.3,1.3-0.5,2.1-0.5c0.8,0,1.5,0.2,2.1,0.7c0.7,0.5,1.1,1.4,1,2.3
			c-1,1.3-2.2,2.4-3.7,3.2l0,0l0,0l0.1-0.1l0,0l0.2-0.2c1.8-2,2.1-3.3,1.9-3.9c-0.1-0.3-0.4-0.5-0.7-0.4c-0.8,0-2.1,0.9-3.2,2.8
			c-0.5,0.9-0.9,1.9-1.2,2.9c0.5-0.1,1.1-0.2,1.6-0.4C152.1,322,151.1,322.2,150.1,322.2L150.1,322.2z M149.6,315.4
			c-0.6,0-1.1-0.1-1.6-0.4c0.1-0.2,0.2-0.5,0.3-0.7c0.3-0.4,0.8-0.7,1.3-0.6c0.5,0,1,0.2,1.3,0.6c0.1,0.2,0.2,0.4,0.3,0.7
			C150.8,315.2,150.2,315.4,149.6,315.4L149.6,315.4z M149.6,309.5c-0.5,0-1-0.2-1.3-0.6c-0.1-0.2-0.2-0.4-0.3-0.7
			c0.5-0.2,1.1-0.4,1.6-0.4c0.6,0,1.1,0.1,1.6,0.4c-0.1,0.2-0.2,0.5-0.3,0.7C150.7,309.3,150.2,309.5,149.6,309.5L149.6,309.5z"/>
		<path id="パス_9" class="st0" d="M149.6,300.9c-5.9,0-10.7,4.8-10.7,10.7s4.8,10.7,10.7,10.7s10.7-4.8,10.7-10.7
			S155.5,300.9,149.6,300.9L149.6,300.9z M149.6,321.3c-5.4,0-9.7-4.3-9.7-9.7c0-5.4,4.3-9.7,9.7-9.7c5.4,0,9.7,4.3,9.7,9.7l0,0
			C159.3,317,155,321.3,149.6,321.3z"/>
		<path id="パス_10" class="st0" d="M170.2,319.7h-5.4v-0.3h1.1v-9c-0.2-1.8,0.6-3.5,2-4.6c1.5-1.2,3.4-1.8,5.4-1.7
			c2-0.1,4,0.6,5.4,2l-0.3,0.2c-1.3-1.2-3.1-1.9-4.9-1.8c-3.3,0-3.4,2.7-3.4,5.2v1.8h5.5l0,0.4h-5.5V319.7z"/>
		<path id="パス_11" class="st0" d="M209.2,319c-0.4,0.7-1.2,1.1-2,1H207c-2.3,0-3.3-0.8-3.3-2.6v-6.3c0-1.1-0.1-2.9-1.8-2.9
			c-1.7-0.1-3.2,1.3-3.3,3c0,0.1,0,0.2,0,0.2v8h1.1v0.3H194v-0.3h1.1v-11H194v-0.3h4.6v1.6c0.6-1.2,1.9-2,3.3-1.9
			c4.1,0,5.3,2.3,5.3,4.6v6.5c0,0.4,0.3,0.6,0.7,0.6c0,0,0,0,0,0c0.4,0,0.8-0.3,0.9-0.6L209.2,319z"/>
		<path id="パス_12" class="st0" d="M248.1,319c-0.4,0.7-1.2,1.1-2,1h-0.3c-2.3,0-3.3-0.8-3.3-2.6v-8.8h-1.7v-0.4h1.7v-3.4
			c1.2-0.2,2.4-0.6,3.5-1.3v4.7h2.8l0,0.4H246V319c0,0.4,0.3,0.6,0.7,0.6c0,0,0,0,0,0c0.4,0,0.8-0.3,0.9-0.6H248.1z"/>
		<path id="パス_13" class="st0" d="M262.7,318.9c0,0.4,0.3,0.6,0.7,0.6c0,0,0,0,0,0c0.4,0,0.8-0.3,0.9-0.6h0.4
			c-0.4,0.7-1.2,1.1-2,1h-0.3c-2.3,0-3.2-0.9-3.3-1.9c-0.6,1.2-1.9,2-3.3,1.9c-4.1,0-5.3-2.3-5.3-4.6v-6.8h-1.1v-0.3h4.6v8.5
			c0,1.1,0.1,3,1.8,3c1.7,0.1,3.2-1.3,3.3-3c0-0.1,0-0.2,0-0.2v-7.9h-1.1v-0.3h4.6L262.7,318.9z"/>
		<path id="パス_14" class="st0" d="M271.4,319.7h-5.7v-0.3h1.1v-10.9h-1.1v-0.3h4.6v2.9c0.5-1.3,2.1-3.2,4-3.2c1.4,0,2,0.7,2,1.3
			c0.1,0.9-0.5,1.7-1.3,1.8c-0.1,0-0.2,0-0.4,0c-0.7,0-1.5-0.4-1.5-1c0-0.4,0.2-0.5,0.2-0.8c0-0.1-0.1-0.2-0.2-0.2
			c-1.4,0-2,1.6-2.2,1.9h0c-0.4,0.8-0.6,1.7-0.6,2.6v6.1h1.1L271.4,319.7z"/>
		<path id="パス_15" class="st0" d="M292.8,319c-0.4,0.7-1.2,1.1-2,1h-0.3c-2.3,0-3.3-0.8-3.3-2.6v-6.3c0-1.1-0.1-2.9-1.8-2.9
			c-1.7-0.1-3.2,1.3-3.3,3c0,0.1,0,0.2,0,0.2v8h1.1v0.3h-5.7v-0.3h1.1v-11h-1.1v-0.3h4.6v1.6c0.6-1.2,1.9-2,3.3-1.9
			c4.1,0,5.3,2.3,5.3,4.6v6.5c0,0.4,0.3,0.6,0.7,0.6c0,0,0,0,0,0c0.4,0,0.8-0.3,0.9-0.6L292.8,319z"/>
		<path id="パス_16" class="st0" d="M192.7,319c-0.2,0.4-0.5,0.6-0.9,0.6c-0.4,0-0.7-0.2-0.7-0.6c0,0,0,0,0,0v-5
			c0-3.9-2.6-6.1-6.5-6.1c-4.9,0-6.6,3.4-6.6,6.1c0,3.7,2.4,6.1,6.3,6.1c1.3,0.1,2.6-0.6,3.3-1.7c0.2,0.7,0.8,1.7,3.4,1.7h0.1
			c0.8,0.1,1.6-0.3,2-1L192.7,319z M185.5,317.8c-1.8,0-3.3-1.5-3.3-3.3s1.5-3.3,3.3-3.3c1.8,0,3.3,1.5,3.3,3.3
			C188.7,316.4,187.3,317.8,185.5,317.8L185.5,317.8z"/>
		<path id="パス_17" class="st0" d="M226.9,309.8c0-3.3-3.5-5.7-7.7-5.7h-0.4c-5.1,0-7.7,2.9-7.7,6.7v8.5H210v0.3h5.3v-4.8
			c0-0.4,0-0.4,0.6,0.3l3.4,4.5h5.2v-0.3h-1c-0.2,0-0.3-0.1-0.6-0.3c-0.3-0.3-2.2-2.7-2.7-3.3C225.7,315.6,226.9,312,226.9,309.8z
			 M219,314.4c-2.1,0-3.7-1.7-3.7-3.7c0-2.1,1.7-3.7,3.7-3.7c2.1,0,3.7,1.7,3.7,3.7l0,0C222.8,312.7,221.1,314.4,219,314.4
			C219,314.4,219,314.4,219,314.4L219,314.4z"/>
		<path id="パス_18" class="st0" d="M235.3,319.5c-1.8,0-2.9-1.2-3.1-3.5c0.9,0.6,2,0.9,3.1,0.9c2.7,0,4.9-1.9,4.9-4.3
			c0-3.1-2-4.9-5.9-4.9c-2.4,0-4.5,0.7-5.4,2.2c-0.5,0.9-0.7,1.9-0.7,2.9v1.8c0,3.7,2.2,5.2,6.4,5.2c3.1,0,4.4-1,5.3-2.8l-0.4-0.2
			C238.9,318.7,237.2,319.7,235.3,319.5z M234.3,310.6c1.1,0,2,0.9,2,2s-0.9,2-2,2c-1.1,0-2-0.9-2-2c0,0,0,0,0,0
			C232.3,311.5,233.2,310.6,234.3,310.6z"/>
		<g id="グループ_3" transform="translate(292.399 317.274)">
			<path id="パス_20" class="st1" d="M2.6,0.3c0.7,0,1.2,0.5,1.3,1.2S3.3,2.7,2.7,2.7C2,2.8,1.4,2.2,1.4,1.5c0,0,0,0,0,0
				C1.4,0.8,1.9,0.3,2.6,0.3C2.6,0.3,2.6,0.3,2.6,0.3z M2.6,2.5c0.6,0,1-0.4,1.1-1c0-0.6-0.4-1-1-1.1c-0.6,0-1,0.4-1.1,1
				c0,0,0,0,0,0.1C1.6,2.1,2.1,2.5,2.6,2.5C2.6,2.5,2.6,2.5,2.6,2.5L2.6,2.5z M3.2,2.1C3,2.2,2.8,2.3,2.7,2.3C2.3,2.3,2,2,1.9,1.6
				c0,0,0-0.1,0-0.1c0-0.4,0.3-0.7,0.7-0.7c0,0,0,0,0.1,0c0.2,0,0.3,0,0.4,0.1L3.1,1.1C3,1,2.8,1,2.7,1C2.5,1,2.2,1.2,2.2,1.4
				c0,0,0,0.1,0,0.1C2.2,1.8,2.4,2,2.7,2c0,0,0,0,0,0C2.8,2,3,2,3.1,1.9L3.2,2.1z"/>
		</g>
	</g>
	<text transform="matrix(1 0 0 1 37.2513 28.5068)" class="st2 st3 st4">〜エンタメ業界の人脈をあなたのものに〜</text>
	<g>
		<path class="st0" d="M43.4,25.7c-0.1,0.3-0.3,0.6-0.5,0.8c-0.3,0.3-0.6,0.5-1,0.5c-0.3,0-0.5-0.1-0.8-0.2
			c-0.1-0.1-0.4-0.2-0.8-0.5c-0.3-0.2-0.5-0.4-0.6-0.4c-0.2-0.1-0.4-0.2-0.6-0.2c-0.2,0-0.3,0.1-0.5,0.2c-0.2,0.1-0.3,0.3-0.4,0.5
			c-0.1,0.1-0.1,0.2-0.2,0.3l-0.4-0.2c0.1-0.3,0.3-0.6,0.5-0.8c0.3-0.3,0.7-0.5,1-0.5c0.3,0,0.6,0.1,0.9,0.3
			c0.2,0.2,0.5,0.3,0.7,0.5c0.3,0.2,0.5,0.3,0.6,0.4c0.2,0.1,0.4,0.2,0.6,0.2c0.3,0,0.6-0.2,0.9-0.7c0.1-0.1,0.1-0.2,0.2-0.3
			L43.4,25.7z"/>
		<path class="st0" d="M48.6,28.5H44V28h2v-3.6h-1.6v-0.5h3.7v0.5h-1.6V28h2V28.5z"/>
		<path class="st0" d="M53.5,25.6c-0.3,0.6-0.7,1.2-1.1,1.6s-0.9,0.8-1.4,1s-1.1,0.4-1.7,0.5l-0.1-0.5c0.5-0.1,1-0.2,1.4-0.4
			s0.8-0.4,1.1-0.7c0.3-0.3,0.6-0.5,0.8-0.8c0.2-0.3,0.4-0.6,0.6-1.1L53.5,25.6z M51.4,24.8L51,25.2c-0.6-0.5-1.3-0.9-1.9-1.2
			l0.3-0.4C50.1,23.9,50.8,24.3,51.4,24.8z"/>
		<path class="st0" d="M56,23.3c-0.1,0.2-0.1,0.4-0.2,0.6h2.2c0,0.2,0,0.5-0.1,0.8s-0.1,0.6-0.2,1c-0.1,0.3-0.2,0.7-0.4,1
			s-0.4,0.6-0.6,0.9c-0.2,0.3-0.5,0.5-0.8,0.7c-0.3,0.2-0.6,0.4-1,0.5l-0.2-0.4c0.8-0.3,1.5-0.8,1.9-1.5c0,0,0-0.1,0.1-0.1
			c-0.4-0.3-0.9-0.6-1.4-0.8l0.2-0.4c0.4,0.2,0.9,0.4,1.4,0.8c0.2-0.6,0.4-1.2,0.5-1.9h-1.7c0,0.1,0,0.1-0.1,0.2
			c-0.2,0.4-0.4,0.7-0.7,1.1c-0.3,0.4-0.6,0.7-0.8,0.9l-0.3-0.3c0.4-0.4,0.7-0.8,1-1.4s0.5-1.1,0.6-1.6L56,23.3z"/>
		<path class="st0" d="M62.3,23.5c-0.1,1-0.5,1.9-1,2.8c0.4,0.4,0.7,0.8,1,1.1l-0.4,0.4c-0.2-0.3-0.5-0.6-0.9-1
			c-0.6,0.9-1.4,1.6-2.4,2l-0.2-0.4c0.9-0.4,1.6-1,2.2-1.9c-0.5-0.5-1-1-1.6-1.4l0.3-0.4c0.6,0.4,1.1,0.9,1.6,1.3
			c0.4-0.8,0.7-1.6,0.8-2.5L62.3,23.5z"/>
		<path class="st0" d="M63,28.8l-0.1-0.3c1-0.2,1.9-0.6,2.5-1H63V27h2.7v-0.5h-2.2v-0.4h2.2v-0.5h-2.4v-0.4h1.4l-0.3-0.7H63v-0.4h1
			l-0.4-0.8l0.4-0.1l0.4,0.9H65v-1h0.5v1h0.8v-1h0.5v1h0.6l0.4-0.9l0.5,0.1l-0.4,0.8h1v0.4h-1.3l-0.4,0.7h1.5v0.4h-2.5v0.5h2.3v0.4
			h-2.3V27h2.8v0.4h-2.4c0.3,0.2,0.7,0.4,1.2,0.6c0.5,0.2,0.9,0.3,1.3,0.4l-0.2,0.4c-1.1-0.2-2-0.6-2.7-1.2v1.3h-0.5v-1.3
			c-0.3,0.2-0.7,0.5-1.2,0.7S63.4,28.7,63,28.8z M64.8,24.6l0.3,0.7h1.6l0.3-0.7H64.8z"/>
		<path class="st0" d="M70.3,29L70,28.6c0.3-0.1,0.5-0.3,0.7-0.6s0.3-0.5,0.3-0.9v-0.5c-0.4,0.2-0.9,0.4-1.5,0.6L69.3,27
			c0.5-0.1,0.9-0.3,1.4-0.6c0.5-0.2,0.8-0.5,1-0.7H70v-2.5h5v2.5h-1.8c0.7,0.5,1.5,0.9,2.5,1.1l-0.2,0.4c-0.5-0.2-1-0.3-1.5-0.6v2.2
			h-0.5v-2.2H74c-0.6-0.3-1-0.6-1.4-0.9h-0.3c-0.3,0.3-0.8,0.7-1.3,0.9h0.5v0.6c0,0.4-0.1,0.7-0.3,1C71,28.6,70.7,28.8,70.3,29z
			 M72.2,24.3v-0.7h-1.8v0.7H72.2z M72.2,25.4v-0.7h-1.8v0.7H72.2z M72.7,23.7v0.7h1.8v-0.7H72.7z M72.7,24.7v0.7h1.8v-0.7H72.7z"/>
		<path class="st0" d="M78.7,28.6l-0.1-0.4c0.5-0.1,1-0.3,1.3-0.6c0.3-0.3,0.5-0.8,0.6-1.6c0-0.5-0.2-1-0.5-1.3s-0.7-0.5-1.3-0.5
			c0,1.1-0.1,2.1-0.4,2.9c-0.3,0.8-0.6,1.2-1.1,1.2c-0.4,0-0.6-0.2-0.8-0.5c-0.2-0.3-0.3-0.7-0.3-1.1c0-0.7,0.2-1.4,0.7-2
			c0.5-0.6,1.1-0.9,1.9-0.9c0.6,0,1.2,0.2,1.6,0.6c0.4,0.4,0.6,1,0.6,1.6c0,0.8-0.2,1.4-0.6,1.9C79.8,28.3,79.3,28.6,78.7,28.6z
			 M78.2,24.2c-0.5,0.1-0.9,0.4-1.2,0.8c-0.3,0.5-0.5,1-0.5,1.6c0,0.3,0.1,0.6,0.2,0.8c0.1,0.2,0.2,0.3,0.4,0.3c0.3,0,0.6-0.3,0.8-1
			S78.2,25.3,78.2,24.2z"/>
		<path class="st0" d="M84.4,25.9c-0.2,0.7-0.5,1.3-1,1.8s-1.1,0.9-1.7,1.1l-0.2-0.4c0.9-0.4,1.5-0.9,2-1.6s0.6-1.3,0.6-2v-1.7h0.5
			V25c0.1,0.5,0.3,1,0.6,1.5c0.3,0.5,0.7,0.9,1.1,1.3c0.5,0.3,0.8,0.6,1.1,0.7l-0.3,0.4c-0.7-0.4-1.3-0.8-1.8-1.3
			C84.9,27,84.6,26.5,84.4,25.9z"/>
		<path class="st0" d="M89.5,26.6h-0.8c-0.1,1-0.2,1.8-0.5,2.3l-0.3-0.2c0.2-0.3,0.3-0.7,0.4-1.3c0.1-0.5,0.1-1,0.1-1.4v-2.7h1.6
			v5.1c0,0.3-0.2,0.4-0.5,0.4h-0.5l-0.1-0.4h0.4c0.2,0,0.2-0.1,0.2-0.2V26.6z M88.7,26.3h0.7v-1.1h-0.7v0.7
			C88.7,26,88.7,26.1,88.7,26.3z M88.7,24.8h0.7v-1.1h-0.7V24.8z M91.6,28.9v-3.7c-0.2,0-0.4,0.1-0.6,0.1V26c0,0.5,0,1-0.1,1.6
			c-0.1,0.5-0.2,0.9-0.4,1.3l-0.4-0.2c0.2-0.3,0.3-0.7,0.4-1.1c0.1-0.5,0.1-0.9,0.1-1.1v-2.8c0.4,0,0.9-0.1,1.6-0.2
			c0.7-0.1,1.1-0.2,1.4-0.2l0.2,0.4c-0.3,0.1-0.7,0.1-1.3,0.2c-0.6,0.1-1,0.1-1.4,0.2v1c0.4-0.1,0.9-0.1,1.4-0.3s0.9-0.2,1.2-0.3
			l0.2,0.4c-0.2,0.1-0.4,0.1-0.7,0.2c0,0.6,0,1,0.1,1.3c0.3-0.2,0.5-0.4,0.7-0.6l0.3,0.3c-0.2,0.2-0.5,0.4-0.9,0.7
			c0.2,0.7,0.4,1.4,0.8,1.9l-0.4,0.3c-0.2-0.3-0.4-0.7-0.5-1.1c-0.2-0.5-0.3-0.9-0.3-1.3s-0.1-0.9-0.1-1.5c-0.1,0-0.3,0.1-0.5,0.1
			v3.8H91.6z"/>
		<path class="st0" d="M97.4,27.7H97v-1c0-0.1,0-0.2,0-0.3c-0.7,0.5-1,0.9-1,1.3c0,0.2,0.1,0.4,0.3,0.5c0.2,0.1,0.5,0.2,1,0.2
			c0.5,0,1,0,1.5-0.1l0,0.5c-0.5,0.1-0.9,0.1-1.3,0.1c-0.7,0-1.3-0.1-1.6-0.3c-0.3-0.2-0.5-0.4-0.5-0.8c0-0.3,0.1-0.6,0.4-0.9
			c0.2-0.3,0.6-0.6,1.1-0.9c-0.1-0.2-0.2-0.3-0.4-0.3c-0.3,0-0.5,0-0.6,0.1c-0.2,0.1-0.4,0.3-0.8,0.7l-0.4,0.4l-0.3-0.3
			c0.6-0.7,1.1-1.4,1.4-2.1h-1.1v-0.4h1.3c0.1-0.3,0.2-0.5,0.2-0.8l0.5,0c0,0.2-0.1,0.5-0.2,0.7h1.8v0.4h-1.9
			c-0.1,0.3-0.3,0.7-0.5,1c0.1-0.1,0.3-0.1,0.4-0.2c0.1,0,0.3-0.1,0.4-0.1c0.4,0,0.7,0.2,0.8,0.5l1.4-0.7l0.2,0.4
			c-0.4,0.1-0.9,0.4-1.5,0.7c0,0.2,0,0.3,0,0.6V27.7z"/>
		<path class="st0" d="M99.6,24.6v-0.4h1.1c0-0.1,0-0.2,0-0.3c0-0.1,0-0.2,0-0.4h0.5c0,0.1,0,0.2,0,0.3s0,0.3,0,0.4h2.3v0.4h-2.3
			c0,0.1,0,0.2,0,0.2c0,0.1,0,0.2,0,0.2c0,0.1,0,0.1,0,0.2c0,0.1,0,0.1,0,0.2c0.1,0,0.3-0.1,0.4-0.1c0.1,0,0.3,0,0.4,0
			c0.2,0,0.5,0,0.7,0.1c0.2,0,0.4,0.1,0.6,0.2s0.3,0.2,0.5,0.3c0.1,0.1,0.2,0.2,0.3,0.4c0.1,0.1,0.2,0.3,0.2,0.4s0.1,0.3,0.1,0.4
			c0,0.3,0,0.5-0.1,0.7s-0.2,0.4-0.4,0.6c-0.2,0.2-0.4,0.3-0.6,0.4s-0.5,0.1-0.9,0.2l0,0l-0.1-0.4c0.3,0,0.6-0.1,0.8-0.1
			s0.4-0.2,0.5-0.3s0.2-0.3,0.3-0.4c0.1-0.2,0.1-0.3,0.1-0.5c0-0.1,0-0.3-0.1-0.4s-0.2-0.2-0.3-0.4c-0.1-0.1-0.2-0.2-0.4-0.3
			c-0.1-0.1-0.3-0.1-0.4-0.2c-0.1,0.2-0.1,0.4-0.2,0.6c-0.1,0.2-0.2,0.4-0.3,0.6c-0.1,0.2-0.2,0.4-0.3,0.6s-0.3,0.4-0.4,0.5
			s-0.3,0.3-0.5,0.4c-0.2,0.1-0.4,0.1-0.6,0.1c-0.2,0-0.3,0-0.4-0.1c-0.1-0.1-0.2-0.1-0.3-0.2s-0.1-0.2-0.2-0.3
			c0-0.1-0.1-0.2-0.1-0.4c0-0.2,0-0.4,0.1-0.6c0.1-0.2,0.2-0.4,0.3-0.6s0.3-0.3,0.4-0.5c0.2-0.1,0.4-0.3,0.6-0.3c0-0.1,0-0.2,0-0.3
			c0-0.1,0-0.2,0-0.2c0-0.1,0-0.2,0-0.3c0-0.1,0-0.1,0-0.2H99.6z M99.8,27.5c0,0.1,0,0.2,0,0.2c0,0.1,0,0.1,0.1,0.2
			c0,0.1,0.1,0.1,0.2,0.1s0.2,0.1,0.3,0.1c0.1,0,0.2,0,0.3-0.1c0.1,0,0.2-0.1,0.3-0.2c0-0.2-0.1-0.4-0.1-0.5s0-0.3-0.1-0.5
			c0-0.2,0-0.3,0-0.5s0-0.3,0-0.4c-0.3,0.2-0.5,0.4-0.7,0.6S99.8,27.2,99.8,27.5z M102,25.7c-0.1,0-0.3,0-0.4,0
			c-0.1,0-0.3,0.1-0.4,0.1c0,0.3,0,0.6,0,0.9s0.1,0.6,0.1,0.9c0.1-0.1,0.1-0.2,0.2-0.3c0.1-0.1,0.1-0.2,0.2-0.3
			c0.1-0.1,0.1-0.2,0.2-0.4s0.1-0.2,0.2-0.4c0-0.1,0.1-0.2,0.1-0.4c0-0.1,0.1-0.2,0.1-0.3c0,0-0.1,0-0.1,0c0,0,0,0-0.1,0
			C102.2,25.7,102.1,25.7,102,25.7C102.1,25.7,102.1,25.7,102,25.7z"/>
		<path class="st0" d="M106.6,23.4c0,0.3,0,0.6-0.1,0.9h1.2v0.4h-1.3c-0.2,1.3-0.6,2.4-1.3,3.3l-0.4-0.3c0.6-0.8,1-1.8,1.2-3h-1
			v-0.4h1.1c0-0.3,0.1-0.6,0.1-0.9L106.6,23.4z M109.8,27.8l-0.3,0.4c-0.3-0.3-0.6-0.5-0.9-0.7v0.3c0,0.6-0.4,0.9-1.2,0.9
			c-0.3,0-0.6-0.1-0.8-0.2s-0.3-0.4-0.3-0.7c0-0.3,0.1-0.6,0.3-0.7c0.2-0.2,0.5-0.3,0.8-0.3c0.3,0,0.5,0,0.7,0.1v-1.7h0.5v1.9
			C109,27.3,109.4,27.5,109.8,27.8z M108.2,27.4c-0.2-0.1-0.5-0.1-0.7-0.1c-0.2,0-0.4,0.1-0.5,0.2c-0.1,0.1-0.2,0.2-0.2,0.4
			c0,0.4,0.2,0.5,0.7,0.5c0.4,0,0.7-0.2,0.7-0.5V27.4z M109.9,25.2l-0.4,0.3c-0.4-0.5-0.8-1-1.4-1.5l0.3-0.3
			C108.9,24,109.4,24.5,109.9,25.2z"/>
		<path class="st0" d="M111.8,23.3c0,0.2,0,0.5,0,0.9h2v0.4h-2c0,0.7-0.1,1.4-0.3,2.1c-0.2,0.7-0.4,1.4-0.7,2l-0.5-0.2
			c0.3-0.5,0.5-1.2,0.6-2s0.3-1.5,0.3-2h-0.8v-0.4h0.8c0-0.3,0-0.6,0-0.9H111.8z M115.1,28.5c-0.2,0.1-0.6,0.1-1,0.1
			c-0.3,0-0.6,0-0.9-0.1c-0.3,0-0.5-0.1-0.6-0.3c-0.2-0.1-0.2-0.3-0.2-0.5c0-0.3,0.1-0.6,0.4-0.9l0.4,0.2c-0.2,0.2-0.2,0.4-0.2,0.6
			c0,0.1,0.1,0.2,0.2,0.3c0.1,0.1,0.5,0.1,0.9,0.1c0.4,0,0.8,0,1.1-0.1L115.1,28.5z M114.8,25.2l0,0.4c-0.1,0-0.2,0-0.3,0
			c-0.5,0-1.1,0-1.8,0.1l0-0.4c0.6-0.1,1.2-0.1,1.7-0.1C114.6,25.2,114.7,25.2,114.8,25.2z"/>
		<path class="st0" d="M118.1,28.6l-0.1-0.4c0.5-0.1,1-0.3,1.3-0.6s0.5-0.8,0.6-1.6c0-0.5-0.2-1-0.5-1.3c-0.3-0.4-0.7-0.5-1.3-0.5
			c0,1.1-0.1,2.1-0.4,2.9c-0.3,0.8-0.6,1.2-1.1,1.2c-0.4,0-0.6-0.2-0.8-0.5c-0.2-0.3-0.3-0.7-0.3-1.1c0-0.7,0.2-1.4,0.7-2
			c0.5-0.6,1.1-0.9,1.9-0.9c0.6,0,1.2,0.2,1.6,0.6c0.4,0.4,0.6,1,0.6,1.6c0,0.8-0.2,1.4-0.6,1.9C119.3,28.3,118.8,28.6,118.1,28.6z
			 M117.7,24.2c-0.5,0.1-0.9,0.4-1.2,0.8c-0.3,0.5-0.5,1-0.5,1.6c0,0.3,0.1,0.6,0.2,0.8c0.1,0.2,0.2,0.3,0.4,0.3
			c0.3,0,0.6-0.3,0.8-1C117.6,26.1,117.7,25.3,117.7,24.2z"/>
		<path class="st0" d="M123.8,26.3h-1.5c-0.1,0.6-0.1,1-0.1,1.2c0,0.5,0.4,0.8,1.1,0.8c1,0,1.5-0.3,1.5-1c0-0.5-0.1-0.9-0.3-1.4
			l0.4-0.1c0.3,0.5,0.4,1,0.4,1.6c0,0.9-0.7,1.3-2,1.3c-1,0-1.5-0.4-1.5-1.3c0-0.2,0-0.6,0.1-1.2h-0.9v-0.4h1c0-0.3,0.1-0.7,0.2-1.2
			h-1v-0.4h1.1c0-0.2,0.1-0.5,0.2-0.9l0.5,0l-0.2,0.9h1.9v0.4h-2c-0.1,0.4-0.1,0.8-0.2,1.2h1.4V26.3z"/>
		<path class="st0" d="M128.5,28.6l-0.1-0.4c0.5-0.1,1-0.3,1.3-0.6s0.5-0.8,0.6-1.6c0-0.5-0.2-1-0.5-1.3c-0.3-0.4-0.7-0.5-1.3-0.5
			c0,1.1-0.1,2.1-0.4,2.9c-0.3,0.8-0.6,1.2-1.1,1.2c-0.4,0-0.6-0.2-0.8-0.5c-0.2-0.3-0.3-0.7-0.3-1.1c0-0.7,0.2-1.4,0.7-2
			c0.5-0.6,1.1-0.9,1.9-0.9c0.6,0,1.2,0.2,1.6,0.6c0.4,0.4,0.6,1,0.6,1.6c0,0.8-0.2,1.4-0.6,1.9C129.6,28.3,129.1,28.6,128.5,28.6z
			 M128,24.2c-0.5,0.1-0.9,0.4-1.2,0.8c-0.3,0.5-0.5,1-0.5,1.6c0,0.3,0.1,0.6,0.2,0.8c0.1,0.2,0.2,0.3,0.4,0.3c0.3,0,0.6-0.3,0.8-1
			C127.9,26.1,128,25.3,128,24.2z"/>
		<path class="st0" d="M132.2,28.5l-0.5,0.1c-0.2-0.7-0.3-1.4-0.3-2.2c0-0.9,0.1-1.9,0.4-2.9l0.5,0.1c-0.3,1-0.4,1.9-0.4,2.8
			C131.9,27.2,132,27.9,132.2,28.5z M135.8,28.4c-0.4,0-0.7,0.1-1.1,0.1c-0.4,0-0.7,0-1-0.1c-0.3-0.1-0.5-0.2-0.7-0.3
			c-0.2-0.2-0.2-0.4-0.2-0.6c0-0.4,0.2-0.8,0.5-1.2l0.4,0.2c-0.3,0.3-0.4,0.6-0.4,1c0,0.2,0.1,0.3,0.2,0.4c0.2,0.1,0.3,0.2,0.5,0.2
			c0.2,0,0.4,0,0.8,0c0.4,0,0.7,0,1-0.1V28.4z M135.7,24.3c-0.3,0-0.6,0-0.8,0c-0.2,0-0.9,0-1.9,0.1c0-0.1,0-0.2,0-0.4
			c0.9-0.1,1.6-0.1,2.1-0.1c0.3,0,0.5,0,0.6,0L135.7,24.3z"/>
		<path class="st0" d="M142.2,25.7c-0.1,0.3-0.3,0.6-0.5,0.8c-0.3,0.3-0.6,0.5-1,0.5c-0.3,0-0.5-0.1-0.8-0.2
			c-0.1-0.1-0.4-0.2-0.8-0.5c-0.3-0.2-0.5-0.4-0.6-0.4c-0.2-0.1-0.4-0.2-0.6-0.2c-0.2,0-0.3,0.1-0.5,0.2c-0.2,0.1-0.3,0.3-0.4,0.5
			c-0.1,0.1-0.1,0.2-0.2,0.3l-0.4-0.2c0.1-0.3,0.3-0.6,0.5-0.8c0.3-0.3,0.7-0.5,1-0.5c0.3,0,0.6,0.1,0.9,0.3
			c0.2,0.2,0.5,0.3,0.7,0.5c0.3,0.2,0.5,0.3,0.6,0.4c0.2,0.1,0.4,0.2,0.6,0.2c0.3,0,0.6-0.2,0.9-0.7c0.1-0.1,0.1-0.2,0.2-0.3
			L142.2,25.7z"/>
	</g>
</g>
<g id="レイヤー_2" class="st5">
	
		<g id="グループ_709_00000044896925230792354990000000237942623005388712_" transform="translate(-137.586 -299.996)" class="st6">
		<path id="中マド_4_00000023998549168557465770000011789064871038801558_" class="st7" d="M149.5,322.2c-1.1,0-2.1-0.2-3.1-0.5
			c0.5,0.2,1,0.3,1.5,0.4c-0.3-1-0.7-1.9-1.2-2.9c-1.1-1.9-2.3-2.8-3.2-2.8c-0.3,0-0.6,0.2-0.7,0.4c-0.3,0.6,0.1,2,1.9,3.9
			c0.1,0.1,0.2,0.2,0.3,0.3l-0.1,0h0c-1.4-0.8-2.7-1.8-3.7-3.2c-0.1-0.9,0.3-1.8,1-2.3c0.6-0.5,1.3-0.7,2.1-0.7
			c0.7,0,1.4,0.2,2.1,0.5l0,0c0.1-0.4,0.3-0.9,0.6-1.3c0.3,0.4,0.7,0.7,1.2,0.9c-0.2,1-0.2,2.1,0.1,3.1c0.3,1.4,0.7,2.8,1.1,4.1
			L149.5,322.2L149.5,322.2z M150.1,322.2L150.1,322.2c0.5-1.5,1.7-5.3,1.2-7.2c0.4-0.2,0.8-0.5,1.2-0.9l0,0c0-0.1-0.1-0.1-0.1-0.2
			c-0.6-0.9-1.6-1.5-2.7-1.5c-1.1,0-2.1,0.6-2.7,1.5c0,0.1-0.1,0.1-0.1,0.2c-0.6-0.7-1-1.6-1-2.5c0-0.9,0.3-1.8,1-2.5
			c-0.3-0.4-0.4-0.8-0.6-1.3l0,0c-0.6,0.3-1.3,0.5-2.1,0.5c-0.8,0-1.5-0.2-2.1-0.7c-0.7-0.5-1.1-1.4-1-2.3c1-1.3,2.3-2.4,3.8-3.2
			c-0.1,0.1-0.2,0.2-0.3,0.3c-1.8,2-2.1,3.3-1.9,3.9c0.1,0.3,0.4,0.5,0.7,0.4c0.8,0,2.1-0.9,3.2-2.8c0.5-0.9,0.9-1.9,1.2-2.9
			c0.5-0.1,0.9-0.1,1.4-0.2c-0.5,1.3-0.9,2.7-1.1,4.1c-0.2,1-0.3,2.1-0.1,3.1c-0.4,0.2-0.8,0.5-1.2,0.9c0,0.1,0.1,0.1,0.1,0.2
			c0.6,0.9,1.6,1.5,2.7,1.5c1.1,0,2.1-0.6,2.7-1.5c0.1-0.1,0.1-0.1,0.1-0.2c-0.3-0.4-0.7-0.7-1.2-0.9c0.5-2-0.7-5.7-1.2-7.2l-0.2,0
			c0.5,0,1.1,0.1,1.6,0.2c0.3,1,0.7,1.9,1.2,2.9c1.1,1.9,2.3,2.8,3.2,2.8c0.3,0,0.6-0.2,0.7-0.4c0.3-0.6-0.1-2-1.9-3.9
			c-0.1-0.1-0.2-0.2-0.2-0.3l0,0l0,0c1.5,0.8,2.8,1.9,3.8,3.2c0.1,0.9-0.3,1.8-1,2.3c-0.6,0.5-1.3,0.7-2.1,0.7
			c-0.7,0-1.4-0.2-2.1-0.5l0,0c-0.1,0.4-0.3,0.9-0.6,1.3c0.6,0.7,1,1.6,1,2.5c0,0.9-0.4,1.8-1,2.5l0,0c0.3,0.4,0.4,0.8,0.6,1.3l0,0
			c0.6-0.3,1.3-0.5,2.1-0.5c0.8,0,1.5,0.2,2.1,0.7c0.7,0.5,1.1,1.4,1,2.3c-1,1.3-2.2,2.4-3.7,3.2l0,0l0,0l0.1-0.1l0,0l0.2-0.2
			c1.8-2,2.1-3.3,1.9-3.9c-0.1-0.3-0.4-0.5-0.7-0.4c-0.8,0-2.1,0.9-3.2,2.8c-0.5,0.9-0.9,1.9-1.2,2.9c0.5-0.1,1.1-0.2,1.6-0.4
			C152.1,322,151.1,322.2,150.1,322.2L150.1,322.2z M149.6,315.4c-0.6,0-1.1-0.1-1.6-0.4c0.1-0.2,0.2-0.5,0.3-0.7
			c0.3-0.4,0.8-0.7,1.3-0.6c0.5,0,1,0.2,1.3,0.6c0.1,0.2,0.2,0.4,0.3,0.7C150.8,315.2,150.2,315.4,149.6,315.4L149.6,315.4z
			 M149.6,309.5c-0.5,0-1-0.2-1.3-0.6c-0.1-0.2-0.2-0.4-0.3-0.7c0.5-0.2,1.1-0.4,1.6-0.4c0.6,0,1.1,0.1,1.6,0.4
			c-0.1,0.2-0.2,0.5-0.3,0.7C150.7,309.3,150.2,309.5,149.6,309.5L149.6,309.5z"/>
		<path id="パス_9_00000147195235774709429350000017202485628306805383_" class="st7" d="M149.6,300.9c-5.9,0-10.7,4.8-10.7,10.7
			s4.8,10.7,10.7,10.7s10.7-4.8,10.7-10.7S155.5,300.9,149.6,300.9L149.6,300.9z M149.6,321.3c-5.4,0-9.7-4.3-9.7-9.7
			c0-5.4,4.3-9.7,9.7-9.7c5.4,0,9.7,4.3,9.7,9.7l0,0C159.3,317,155,321.3,149.6,321.3z"/>
		<path id="パス_10_00000175292020869660212310000003860848235099407249_" class="st7" d="M170.2,319.7h-5.4v-0.3h1.1v-9
			c-0.2-1.8,0.6-3.5,2-4.6c1.5-1.2,3.4-1.8,5.4-1.7c2-0.1,4,0.6,5.4,2l-0.3,0.2c-1.3-1.2-3.1-1.9-4.9-1.8c-3.3,0-3.4,2.7-3.4,5.2
			v1.8h5.5l0,0.4h-5.5V319.7z"/>
		<path id="パス_11_00000098219687105523908760000018320948849378611893_" class="st7" d="M209.2,319c-0.4,0.7-1.2,1.1-2,1H207
			c-2.3,0-3.3-0.8-3.3-2.6v-6.3c0-1.1-0.1-2.9-1.8-2.9c-1.7-0.1-3.2,1.3-3.3,3c0,0.1,0,0.2,0,0.2v8h1.1v0.3H194v-0.3h1.1v-11H194
			v-0.3h4.6v1.6c0.6-1.2,1.9-2,3.3-1.9c4.1,0,5.3,2.3,5.3,4.6v6.5c0,0.4,0.3,0.6,0.7,0.6c0,0,0,0,0,0c0.4,0,0.8-0.3,0.9-0.6
			L209.2,319z"/>
		<path id="パス_12_00000153681134602095517250000010655804888545686203_" class="st7" d="M248.1,319c-0.4,0.7-1.2,1.1-2,1h-0.3
			c-2.3,0-3.3-0.8-3.3-2.6v-8.8h-1.7v-0.4h1.7v-3.4c1.2-0.2,2.4-0.6,3.5-1.3v4.7h2.8l0,0.4H246V319c0,0.4,0.3,0.6,0.7,0.6
			c0,0,0,0,0,0c0.4,0,0.8-0.3,0.9-0.6H248.1z"/>
		<path id="パス_13_00000091694420534019419490000017576202806943727766_" class="st7" d="M262.7,318.9c0,0.4,0.3,0.6,0.7,0.6
			c0,0,0,0,0,0c0.4,0,0.8-0.3,0.9-0.6h0.4c-0.4,0.7-1.2,1.1-2,1h-0.3c-2.3,0-3.2-0.9-3.3-1.9c-0.6,1.2-1.9,2-3.3,1.9
			c-4.1,0-5.3-2.3-5.3-4.6v-6.8h-1.1v-0.3h4.6v8.5c0,1.1,0.1,3,1.8,3c1.7,0.1,3.2-1.3,3.3-3c0-0.1,0-0.2,0-0.2v-7.9h-1.1v-0.3h4.6
			L262.7,318.9z"/>
		<path id="パス_14_00000062905831296364425380000005805487687823957437_" class="st7" d="M271.4,319.7h-5.7v-0.3h1.1v-10.9h-1.1
			v-0.3h4.6v2.9c0.5-1.3,2.1-3.2,4-3.2c1.4,0,2,0.7,2,1.3c0.1,0.9-0.5,1.7-1.3,1.8c-0.1,0-0.2,0-0.4,0c-0.7,0-1.5-0.4-1.5-1
			c0-0.4,0.2-0.5,0.2-0.8c0-0.1-0.1-0.2-0.2-0.2c-1.4,0-2,1.6-2.2,1.9h0c-0.4,0.8-0.6,1.7-0.6,2.6v6.1h1.1L271.4,319.7z"/>
		<path id="パス_15_00000019636934728276589220000004759169514906786969_" class="st7" d="M292.8,319c-0.4,0.7-1.2,1.1-2,1h-0.3
			c-2.3,0-3.3-0.8-3.3-2.6v-6.3c0-1.1-0.1-2.9-1.8-2.9c-1.7-0.1-3.2,1.3-3.3,3c0,0.1,0,0.2,0,0.2v8h1.1v0.3h-5.7v-0.3h1.1v-11h-1.1
			v-0.3h4.6v1.6c0.6-1.2,1.9-2,3.3-1.9c4.1,0,5.3,2.3,5.3,4.6v6.5c0,0.4,0.3,0.6,0.7,0.6c0,0,0,0,0,0c0.4,0,0.8-0.3,0.9-0.6
			L292.8,319z"/>
		<path id="パス_16_00000145040659246271002100000005666585619253664701_" class="st7" d="M192.7,319c-0.2,0.4-0.5,0.6-0.9,0.6
			c-0.4,0-0.7-0.2-0.7-0.6c0,0,0,0,0,0v-5c0-3.9-2.6-6.1-6.5-6.1c-4.9,0-6.6,3.4-6.6,6.1c0,3.7,2.4,6.1,6.3,6.1
			c1.3,0.1,2.6-0.6,3.3-1.7c0.2,0.7,0.8,1.7,3.4,1.7h0.1c0.8,0.1,1.6-0.3,2-1L192.7,319z M185.5,317.8c-1.8,0-3.3-1.5-3.3-3.3
			s1.5-3.3,3.3-3.3c1.8,0,3.3,1.5,3.3,3.3C188.7,316.4,187.3,317.8,185.5,317.8L185.5,317.8z"/>
		<path id="パス_17_00000098221695167361954440000004486794705149587859_" class="st7" d="M226.9,309.8c0-3.3-3.5-5.7-7.7-5.7
			h-0.4c-5.1,0-7.7,2.9-7.7,6.7v8.5H210v0.3h5.3v-4.8c0-0.4,0-0.4,0.6,0.3l3.4,4.5h5.2v-0.3h-1c-0.2,0-0.3-0.1-0.6-0.3
			c-0.3-0.3-2.2-2.7-2.7-3.3C225.7,315.6,226.9,312,226.9,309.8z M219,314.4c-2.1,0-3.7-1.7-3.7-3.7c0-2.1,1.7-3.7,3.7-3.7
			c2.1,0,3.7,1.7,3.7,3.7l0,0C222.8,312.7,221.1,314.4,219,314.4C219,314.4,219,314.4,219,314.4L219,314.4z"/>
		<path id="パス_18_00000181072279722081571920000002229620670756223166_" class="st7" d="M235.3,319.5c-1.8,0-2.9-1.2-3.1-3.5
			c0.9,0.6,2,0.9,3.1,0.9c2.7,0,4.9-1.9,4.9-4.3c0-3.1-2-4.9-5.9-4.9c-2.4,0-4.5,0.7-5.4,2.2c-0.5,0.9-0.7,1.9-0.7,2.9v1.8
			c0,3.7,2.2,5.2,6.4,5.2c3.1,0,4.4-1,5.3-2.8l-0.4-0.2C238.9,318.7,237.2,319.7,235.3,319.5z M234.3,310.6c1.1,0,2,0.9,2,2
			s-0.9,2-2,2c-1.1,0-2-0.9-2-2c0,0,0,0,0,0C232.3,311.5,233.2,310.6,234.3,310.6z"/>
		<g id="グループ_3_00000109031278851319411590000013926342098053448865_" transform="translate(292.399 317.274)">
			<path id="パス_20_00000083078048700642977740000017796268605399399071_" class="st8" d="M2.6,0.3c0.7,0,1.2,0.5,1.3,1.2
				S3.3,2.7,2.7,2.7C2,2.8,1.4,2.2,1.4,1.5c0,0,0,0,0,0C1.4,0.8,1.9,0.3,2.6,0.3C2.6,0.3,2.6,0.3,2.6,0.3z M2.6,2.5
				c0.6,0,1-0.4,1.1-1c0-0.6-0.4-1-1-1.1c-0.6,0-1,0.4-1.1,1c0,0,0,0,0,0.1C1.6,2.1,2.1,2.5,2.6,2.5C2.6,2.5,2.6,2.5,2.6,2.5
				L2.6,2.5z M3.2,2.1C3,2.2,2.8,2.3,2.7,2.3C2.3,2.3,2,2,1.9,1.6c0,0,0-0.1,0-0.1c0-0.4,0.3-0.7,0.7-0.7c0,0,0,0,0.1,0
				c0.2,0,0.3,0,0.4,0.1L3.1,1.1C3,1,2.8,1,2.7,1C2.5,1,2.2,1.2,2.2,1.4c0,0,0,0.1,0,0.1C2.2,1.8,2.4,2,2.7,2c0,0,0,0,0,0
				C2.8,2,3,2,3.1,1.9L3.2,2.1z"/>
		</g>
	</g>
</g>
</svg>
