<?xml version="1.0" encoding="utf-8"?>
<!-- Generator: Adobe Illustrator 26.0.1, SVG Export Plug-In . SVG Version: 6.00 Build 0)  -->
<svg version="1.1" id="レイヤー_1" xmlns="http://www.w3.org/2000/svg" xmlns:xlink="http://www.w3.org/1999/xlink" x="0px"
	 y="0px" viewBox="0 0 158.9 28.9" style="enable-background:new 0 0 158.9 28.9;" xml:space="preserve">
<style type="text/css">
	.st0{fill:#FFFFFF;}
	.st1{fill:#F7FDFF;}
	.st2{display:none;fill:#00AEBD;enable-background:new    ;}
	.st3{font-family:'MeiryoUI';}
	.st4{font-size:6.5519px;}
	.st5{display:none;}
	.st6{display:inline;}
	.st7{fill:#FFFFFF;stroke:#B50F0F;stroke-miterlimit:10;}
	.st8{fill:#F7FDFF;stroke:#B50F0F;stroke-miterlimit:10;}
</style>
<g id="グループ_709" transform="translate(-137.586 -299.996)">
	<path id="中マド_4" class="st0" d="M148.2,322.1c-1.1,0-2.1-0.2-3.1-0.5c0.5,0.2,1,0.3,1.5,0.4c-0.3-1-0.7-1.9-1.2-2.9
		c-1.1-1.9-2.3-2.8-3.2-2.8c-0.3,0-0.6,0.2-0.7,0.4c-0.3,0.6,0.1,2,1.9,3.9c0.1,0.1,0.2,0.2,0.3,0.3h-0.1l0,0
		c-1.4-0.8-2.7-1.8-3.7-3.2c-0.1-0.9,0.3-1.8,1-2.3c0.6-0.5,1.3-0.7,2.1-0.7c0.7,0,1.4,0.2,2.1,0.5l0,0c0.1-0.4,0.3-0.9,0.6-1.3
		c0.3,0.4,0.7,0.7,1.2,0.9c-0.2,1-0.2,2.1,0.1,3.1c0.3,1.4,0.7,2.8,1.1,4.1L148.2,322.1L148.2,322.1z M148.8,322.1L148.8,322.1
		c0.5-1.5,1.7-5.3,1.2-7.2c0.4-0.2,0.8-0.5,1.2-0.9l0,0c0-0.1-0.1-0.1-0.1-0.2c-0.6-0.9-1.6-1.5-2.7-1.5c-1.1,0-2.1,0.6-2.7,1.5
		c0,0.1-0.1,0.1-0.1,0.2c-0.6-0.7-1-1.6-1-2.5s0.3-1.8,1-2.5c-0.3-0.4-0.4-0.8-0.6-1.3l0,0c-0.6,0.3-1.3,0.5-2.1,0.5
		s-1.5-0.2-2.1-0.7c-0.7-0.5-1.1-1.4-1-2.3c1-1.3,2.3-2.4,3.8-3.2c-0.1,0.1-0.2,0.2-0.3,0.3c-1.8,2-2.1,3.3-1.9,3.9
		c0.1,0.3,0.4,0.5,0.7,0.4c0.8,0,2.1-0.9,3.2-2.8c0.5-0.9,0.9-1.9,1.2-2.9c0.5-0.1,0.9-0.1,1.4-0.2c-0.5,1.3-0.9,2.7-1.1,4.1
		c-0.2,1-0.3,2.1-0.1,3.1c-0.4,0.2-0.8,0.5-1.2,0.9c0,0.1,0.1,0.1,0.1,0.2c0.6,0.9,1.6,1.5,2.7,1.5c1.1,0,2.1-0.6,2.7-1.5
		c0.1-0.1,0.1-0.1,0.1-0.2c-0.3-0.4-0.7-0.7-1.2-0.9c0.5-2-0.7-5.7-1.2-7.2h-0.2c0.5,0,1.1,0.1,1.6,0.2c0.3,1,0.7,1.9,1.2,2.9
		c1.1,1.9,2.3,2.8,3.2,2.8c0.3,0,0.6-0.2,0.7-0.4c0.3-0.6-0.1-2-1.9-3.9c-0.1-0.1-0.2-0.2-0.2-0.3l0,0l0,0c1.5,0.8,2.8,1.9,3.8,3.2
		c0.1,0.9-0.3,1.8-1,2.3c-0.6,0.5-1.3,0.7-2.1,0.7c-0.7,0-1.4-0.2-2.1-0.5l0,0c-0.1,0.4-0.3,0.9-0.6,1.3c0.6,0.7,1,1.6,1,2.5
		s-0.4,1.8-1,2.5l0,0c0.3,0.4,0.4,0.8,0.6,1.3l0,0c0.6-0.3,1.3-0.5,2.1-0.5s1.5,0.2,2.1,0.7c0.7,0.5,1.1,1.4,1,2.3
		c-1,1.3-2.2,2.4-3.7,3.2l0,0l0,0l0.1-0.1l0,0l0.2-0.2c1.8-2,2.1-3.3,1.9-3.9c-0.1-0.3-0.4-0.5-0.7-0.4c-0.8,0-2.1,0.9-3.2,2.8
		c-0.5,0.9-0.9,1.9-1.2,2.9c0.5-0.1,1.1-0.2,1.6-0.4C150.8,321.9,149.8,322.1,148.8,322.1L148.8,322.1z M148.3,315.3
		c-0.6,0-1.1-0.1-1.6-0.4c0.1-0.2,0.2-0.5,0.3-0.7c0.3-0.4,0.8-0.7,1.3-0.6c0.5,0,1,0.2,1.3,0.6c0.1,0.2,0.2,0.4,0.3,0.7
		C149.5,315.1,148.9,315.3,148.3,315.3L148.3,315.3z M148.3,309.4c-0.5,0-1-0.2-1.3-0.6c-0.1-0.2-0.2-0.4-0.3-0.7
		c0.5-0.2,1.1-0.4,1.6-0.4c0.6,0,1.1,0.1,1.6,0.4c-0.1,0.2-0.2,0.5-0.3,0.7C149.4,309.2,148.9,309.4,148.3,309.4L148.3,309.4z"/>
	<path id="パス_9" class="st0" d="M148.3,300.8c-5.9,0-10.7,4.8-10.7,10.7s4.8,10.7,10.7,10.7s10.7-4.8,10.7-10.7
		S154.2,300.8,148.3,300.8L148.3,300.8z M148.3,321.2c-5.4,0-9.7-4.3-9.7-9.7c0-5.4,4.3-9.7,9.7-9.7s9.7,4.3,9.7,9.7l0,0
		C158,316.9,153.7,321.2,148.3,321.2z"/>
	<path id="パス_10" class="st0" d="M168.9,319.6h-5.4v-0.3h1.1v-9c-0.2-1.8,0.6-3.5,2-4.6c1.5-1.2,3.4-1.8,5.4-1.7
		c2-0.1,4,0.6,5.4,2l-0.3,0.2c-1.3-1.2-3.1-1.9-4.9-1.8c-3.3,0-3.4,2.7-3.4,5.2v1.8h5.5v0.4h-5.5L168.9,319.6L168.9,319.6z"/>
	<path id="パス_11" class="st0" d="M207.9,318.9c-0.4,0.7-1.2,1.1-2,1h-0.2c-2.3,0-3.3-0.8-3.3-2.6V311c0-1.1-0.1-2.9-1.8-2.9
		c-1.7-0.1-3.2,1.3-3.3,3c0,0.1,0,0.2,0,0.2v8h1.1v0.3h-5.7v-0.3h1.1v-11h-1.1V308h4.6v1.6c0.6-1.2,1.9-2,3.3-1.9
		c4.1,0,5.3,2.3,5.3,4.6v6.5c0,0.4,0.3,0.6,0.7,0.6l0,0c0.4,0,0.8-0.3,0.9-0.6L207.9,318.9z"/>
	<path id="パス_12" class="st0" d="M246.8,318.9c-0.4,0.7-1.2,1.1-2,1h-0.3c-2.3,0-3.3-0.8-3.3-2.6v-8.8h-1.7v-0.4h1.7v-3.4
		c1.2-0.2,2.4-0.6,3.5-1.3v4.7h2.8v0.4h-2.8v10.4c0,0.4,0.3,0.6,0.7,0.6l0,0c0.4,0,0.8-0.3,0.9-0.6H246.8z"/>
	<path id="パス_13" class="st0" d="M261.4,318.8c0,0.4,0.3,0.6,0.7,0.6l0,0c0.4,0,0.8-0.3,0.9-0.6h0.4c-0.4,0.7-1.2,1.1-2,1h-0.3
		c-2.3,0-3.2-0.9-3.3-1.9c-0.6,1.2-1.9,2-3.3,1.9c-4.1,0-5.3-2.3-5.3-4.6v-6.8h-1.1v-0.3h4.6v8.5c0,1.1,0.1,3,1.8,3
		c1.7,0.1,3.2-1.3,3.3-3c0-0.1,0-0.2,0-0.2v-7.9h-1.1v-0.3h4.6L261.4,318.8z"/>
	<path id="パス_14" class="st0" d="M270.1,319.6h-5.7v-0.3h1.1v-10.9h-1.1v-0.3h4.6v2.9c0.5-1.3,2.1-3.2,4-3.2c1.4,0,2,0.7,2,1.3
		c0.1,0.9-0.5,1.7-1.3,1.8c-0.1,0-0.2,0-0.4,0c-0.7,0-1.5-0.4-1.5-1c0-0.4,0.2-0.5,0.2-0.8c0-0.1-0.1-0.2-0.2-0.2
		c-1.4,0-2,1.6-2.2,1.9l0,0c-0.4,0.8-0.6,1.7-0.6,2.6v6.1h1.1V319.6z"/>
	<path id="パス_15" class="st0" d="M291.5,318.9c-0.4,0.7-1.2,1.1-2,1h-0.3c-2.3,0-3.3-0.8-3.3-2.6V311c0-1.1-0.1-2.9-1.8-2.9
		c-1.7-0.1-3.2,1.3-3.3,3c0,0.1,0,0.2,0,0.2v8h1.1v0.3h-5.7v-0.3h1.1v-11h-1.1V308h4.6v1.6c0.6-1.2,1.9-2,3.3-1.9
		c4.1,0,5.3,2.3,5.3,4.6v6.5c0,0.4,0.3,0.6,0.7,0.6l0,0c0.4,0,0.8-0.3,0.9-0.6L291.5,318.9z"/>
	<path id="パス_16" class="st0" d="M191.4,318.9c-0.2,0.4-0.5,0.6-0.9,0.6s-0.7-0.2-0.7-0.6l0,0v-5c0-3.9-2.6-6.1-6.5-6.1
		c-4.9,0-6.6,3.4-6.6,6.1c0,3.7,2.4,6.1,6.3,6.1c1.3,0.1,2.6-0.6,3.3-1.7c0.2,0.7,0.8,1.7,3.4,1.7h0.1c0.8,0.1,1.6-0.3,2-1
		L191.4,318.9z M184.2,317.7c-1.8,0-3.3-1.5-3.3-3.3s1.5-3.3,3.3-3.3s3.3,1.5,3.3,3.3C187.4,316.3,186,317.7,184.2,317.7
		L184.2,317.7z"/>
	<path id="パス_17" class="st0" d="M225.6,309.7c0-3.3-3.5-5.7-7.7-5.7h-0.4c-5.1,0-7.7,2.9-7.7,6.7v8.5h-1.1v0.3h5.3v-4.8
		c0-0.4,0-0.4,0.6,0.3l3.4,4.5h5.2v-0.3h-1c-0.2,0-0.3-0.1-0.6-0.3c-0.3-0.3-2.2-2.7-2.7-3.3C224.4,315.5,225.6,311.9,225.6,309.7z
		 M217.7,314.3c-2.1,0-3.7-1.7-3.7-3.7c0-2.1,1.7-3.7,3.7-3.7c2.1,0,3.7,1.7,3.7,3.7l0,0C221.5,312.6,219.8,314.3,217.7,314.3
		L217.7,314.3L217.7,314.3z"/>
	<path id="パス_18" class="st0" d="M234,319.4c-1.8,0-2.9-1.2-3.1-3.5c0.9,0.6,2,0.9,3.1,0.9c2.7,0,4.9-1.9,4.9-4.3
		c0-3.1-2-4.9-5.9-4.9c-2.4,0-4.5,0.7-5.4,2.2c-0.5,0.9-0.7,1.9-0.7,2.9v1.8c0,3.7,2.2,5.2,6.4,5.2c3.1,0,4.4-1,5.3-2.8l-0.4-0.2
		C237.6,318.6,235.9,319.6,234,319.4z M233,310.5c1.1,0,2,0.9,2,2s-0.9,2-2,2s-2-0.9-2-2l0,0C231,311.4,231.9,310.5,233,310.5z"/>
	<g id="グループ_3" transform="translate(292.399 317.274)">
		<path id="パス_20" class="st1" d="M1.3,0.2c0.7,0,1.2,0.5,1.3,1.2S2,2.6,1.4,2.6C0.7,2.7,0.1,2.1,0.1,1.4l0,0
			C0.1,0.7,0.6,0.2,1.3,0.2L1.3,0.2z M1.3,2.4c0.6,0,1-0.4,1.1-1c0-0.6-0.4-1-1-1.1c-0.6,0-1,0.4-1.1,1c0,0,0,0,0,0.1
			C0.3,2,0.8,2.4,1.3,2.4L1.3,2.4L1.3,2.4z M1.9,2C1.7,2.1,1.5,2.2,1.4,2.2C1,2.2,0.7,1.9,0.6,1.5V1.4c0-0.4,0.3-0.7,0.7-0.7
			c0,0,0,0,0.1,0c0.2,0,0.3,0,0.4,0.1V1C1.7,0.9,1.5,0.9,1.4,0.9c-0.2,0-0.5,0.2-0.5,0.4v0.1c0,0.3,0.2,0.5,0.5,0.5l0,0
			c0.1,0,0.3,0,0.4-0.1L1.9,2z"/>
	</g>
</g>
<text transform="matrix(1 0 0 1 35.9373 28.4253)" class="st2 st3 st4">〜エンタメ業界の人脈をあなたのものに〜</text>
<g>
	<path class="st0" d="M21.1,24.3c-0.1,0.4-0.4,0.8-0.6,1c-0.4,0.4-0.8,0.6-1.3,0.6c-0.4,0-0.6-0.1-1-0.3c-0.1-0.1-0.5-0.3-1-0.6
		c-0.4-0.3-0.6-0.5-0.8-0.5c-0.3-0.1-0.5-0.3-0.8-0.3c-0.3,0-0.4,0.1-0.6,0.3s-0.4,0.4-0.5,0.6c-0.1,0.1-0.1,0.3-0.3,0.4l-0.5-0.3
		c0.1-0.4,0.4-0.8,0.6-1c0.4-0.4,0.9-0.6,1.3-0.6s0.8,0.1,1.1,0.4c0.3,0.3,0.6,0.4,0.9,0.6c0.4,0.3,0.6,0.4,0.8,0.5
		c0.3,0.1,0.5,0.3,0.8,0.3c0.4,0,0.8-0.3,1.1-0.9c0.1-0.1,0.1-0.3,0.3-0.4L21.1,24.3z"/>
	<path class="st0" d="M27.7,27.9h-5.8v-0.6h2.5v-4.6h-2v-0.6h4.7v0.6h-2v4.6h2.5v0.6H27.7z"/>
	<path class="st0" d="M33.9,24.2c-0.4,0.8-0.9,1.5-1.4,2s-1.1,1-1.8,1.3c-0.6,0.3-1.4,0.5-2.2,0.6l-0.1-0.6c0.6-0.1,1.3-0.3,1.8-0.5
		c0.5-0.3,1-0.5,1.4-0.9c0.4-0.4,0.8-0.6,1-1c0.3-0.4,0.5-0.8,0.8-1.4L33.9,24.2z M31.3,23.2l-0.5,0.5c-0.8-0.6-1.6-1.1-2.4-1.5
		l0.4-0.5C29.6,22.1,30.5,22.6,31.3,23.2z"/>
	<path class="st0" d="M37.1,21.3c-0.1,0.3-0.1,0.5-0.3,0.8h2.8c0,0.3,0,0.6-0.1,1c-0.1,0.4-0.1,0.8-0.3,1.3
		c-0.1,0.4-0.3,0.9-0.5,1.3c-0.3,0.4-0.5,0.8-0.8,1.1c-0.3,0.4-0.6,0.6-1,0.9c-0.4,0.3-0.8,0.5-1.3,0.6l-0.3-0.5
		c1-0.4,1.9-1,2.4-1.9c0,0,0-0.1,0.1-0.1c-0.5-0.4-1.1-0.8-1.8-1l0.3-0.5c0.5,0.3,1.1,0.5,1.8,1c0.3-0.8,0.5-1.5,0.6-2.4h-2.2
		c0,0.1,0,0.1-0.1,0.3c-0.3,0.5-0.5,0.9-0.9,1.4c-0.4,0.5-0.8,0.9-1,1.1l-0.4-0.4c0.5-0.5,0.9-1,1.3-1.8c0.4-0.8,0.6-1.4,0.8-2
		L37.1,21.3z"/>
	<path class="st0" d="M45.1,21.6c-0.1,1.3-0.6,2.4-1.3,3.5c0.5,0.5,0.9,1,1.3,1.4L44.6,27c-0.3-0.4-0.6-0.8-1.1-1.3
		c-0.8,1.1-1.8,2-3,2.5l-0.3-0.5c1.1-0.5,2-1.3,2.8-2.4c-0.6-0.6-1.3-1.3-2-1.8l0.4-0.5c0.8,0.5,1.4,1.1,2,1.6c0.5-1,0.9-2,1-3.2
		H45.1z"/>
	<path class="st0" d="M46,28.3l-0.1-0.4c1.3-0.3,2.4-0.8,3.2-1.3h-3V26h3.4v-0.6h-2.8v-0.5h2.8v-0.6h-3v-0.5h1.8l-0.4-0.9H46v-0.5
		h1.3l-0.5-1l0.5-0.1l0.5,1.1h0.8v-1.3h0.6v1.3h1v-1.3h0.6v1.3h0.8l0.5-1.1l0.6,0.1l-0.5,1h1.3v0.5h-1.6l-0.5,0.9h1.9v0.5H50v0.6H53
		v0.5H50V26h3.5v0.5h-3c0.4,0.3,0.9,0.5,1.5,0.8c0.6,0.3,1.1,0.4,1.6,0.5l-0.3,0.5c-1.4-0.3-2.5-0.8-3.4-1.5v1.6h-0.6v-1.6
		c-0.4,0.3-0.9,0.6-1.5,0.9C47.3,27.9,46.5,28.2,46,28.3z M48.3,23l0.4,0.9h2l0.4-0.9H48.3z"/>
	<path class="st0" d="M55.2,28.5L54.9,28c0.4-0.1,0.6-0.4,0.9-0.8s0.4-0.6,0.4-1.1v-0.6c-0.5,0.3-1.1,0.5-1.9,0.8L54,26
		c0.6-0.1,1.1-0.4,1.8-0.8c0.6-0.3,1-0.6,1.3-0.9h-2.2v-3.2h6.3v3.2h-2.3c0.9,0.6,1.9,1.1,3.2,1.4l-0.3,0.5
		c-0.6-0.3-1.3-0.4-1.9-0.8v2.8h-0.6v-2.8h0.6c-0.8-0.4-1.3-0.8-1.8-1.1h-0.4c-0.4,0.4-1,0.9-1.6,1.1h0.6v0.8c0,0.5-0.1,0.9-0.4,1.3
		C56.1,28,55.8,28.3,55.2,28.5z M57.7,22.6v-0.9h-2.3v0.9H57.7z M57.7,24v-0.9h-2.3V24H57.7z M58.3,21.8v0.9h2.3v-0.9H58.3z
		 M58.3,23.1V24h2.3v-0.9H58.3z"/>
	<path class="st0" d="M65.9,28l-0.1-0.5c0.6-0.1,1.3-0.4,1.6-0.8c0.4-0.4,0.6-1,0.8-2c0-0.6-0.3-1.3-0.6-1.6
		c-0.4-0.4-0.9-0.6-1.6-0.6c0,1.4-0.1,2.7-0.5,3.7c-0.4,1-0.8,1.5-1.4,1.5c-0.5,0-0.8-0.3-1-0.6c-0.3-0.4-0.4-0.9-0.4-1.4
		c0-0.9,0.3-1.8,0.9-2.5c0.6-0.8,1.4-1.1,2.4-1.1c0.8,0,1.5,0.3,2,0.8c0.5,0.5,0.8,1.3,0.8,2c0,1-0.3,1.8-0.8,2.4
		C67.3,27.6,66.7,28,65.9,28z M65.3,22.4c-0.6,0.1-1.1,0.5-1.5,1c-0.4,0.6-0.6,1.3-0.6,2c0,0.4,0.1,0.8,0.3,1
		c0.1,0.3,0.3,0.4,0.5,0.4c0.4,0,0.8-0.4,1-1.3C65.1,24.7,65.3,23.8,65.3,22.4z"/>
	<path class="st0" d="M73.1,24.6c-0.3,0.9-0.6,1.6-1.3,2.3s-1.4,1.1-2.2,1.4l-0.3-0.5c1.1-0.5,1.9-1.1,2.5-2s0.8-1.6,0.8-2.5v-2.2
		h0.6v2.4c0.1,0.6,0.4,1.3,0.8,1.9c0.4,0.6,0.9,1.1,1.4,1.6c0.6,0.4,1,0.8,1.4,0.9l-0.4,0.5c-0.9-0.5-1.6-1-2.3-1.6
		C73.8,26,73.4,25.4,73.1,24.6z"/>
	<path class="st0" d="M79.6,25.5h-1c-0.1,1.3-0.3,2.3-0.6,2.9l-0.4-0.3c0.3-0.4,0.4-0.9,0.5-1.6c0.1-0.6,0.1-1.3,0.1-1.8v-3.4h2v6.5
		c0,0.4-0.3,0.5-0.6,0.5h-0.6l-0.1-0.5h0.5c0.3,0,0.3-0.1,0.3-0.3C79.6,27.5,79.6,25.5,79.6,25.5z M78.6,25.1h0.9v-1.4h-0.9v0.9
		C78.6,24.7,78.6,24.9,78.6,25.1z M78.6,23.2h0.9v-1.4h-0.9V23.2z M82.2,28.4v-4.7c-0.3,0-0.5,0.1-0.8,0.1v0.9c0,0.6,0,1.3-0.1,2
		c-0.1,0.6-0.3,1.1-0.5,1.6l-0.5-0.3c0.3-0.4,0.4-0.9,0.5-1.4c0.1-0.6,0.1-1.1,0.1-1.4v-3.5c0.5,0,1.1-0.1,2-0.3
		c0.9-0.1,1.4-0.3,1.8-0.3l0.3,0.5c-0.4,0.1-0.9,0.1-1.6,0.3c-0.8,0.1-1.3,0.1-1.8,0.3v1.3c0.5-0.1,1.1-0.1,1.8-0.4s1.1-0.3,1.5-0.4
		l0.3,0.5c-0.3,0.1-0.5,0.1-0.9,0.3c0,0.8,0,1.3,0.1,1.6c0.4-0.3,0.6-0.5,0.9-0.8l0.4,0.4c-0.3,0.3-0.6,0.5-1.1,0.9
		c0.3,0.9,0.5,1.8,1,2.4L85,28.5c-0.3-0.4-0.5-0.9-0.6-1.4C84.1,26.5,84,26,84,25.5c0-0.5-0.1-1.1-0.1-1.9c-0.1,0-0.4,0.1-0.6,0.1
		v4.8h-1V28.4z"/>
	<path class="st0" d="M89.6,26.9h-0.5v-1.3c0-0.1,0-0.3,0-0.4c-0.9,0.6-1.3,1.1-1.3,1.6c0,0.3,0.1,0.5,0.4,0.6
		c0.3,0.1,0.6,0.3,1.3,0.3s1.3,0,1.9-0.1v0.6c-0.6,0.1-1.1,0.1-1.6,0.1c-0.9,0-1.6-0.1-2-0.4s-0.6-0.5-0.6-1c0-0.4,0.1-0.8,0.5-1.1
		c0.3-0.4,0.8-0.8,1.4-1.1c-0.1-0.3-0.3-0.4-0.5-0.4c-0.4,0-0.6,0-0.8,0.1c-0.3,0.1-0.5,0.4-1,0.9l-0.5,0.5l-0.4-0.4
		c0.8-0.9,1.4-1.8,1.8-2.7h-1.4v-0.5h1.6c0.1-0.4,0.3-0.6,0.3-1h0.6c0,0.3-0.1,0.6-0.3,0.9h2.3v0.5h-2.4c-0.1,0.4-0.4,0.9-0.6,1.3
		c0.1-0.1,0.4-0.1,0.5-0.3c0.1,0,0.4-0.1,0.5-0.1c0.5,0,0.9,0.3,1,0.6l1.8-0.9l0.3,0.5c-0.5,0.1-1.1,0.5-1.9,0.9c0,0.3,0,0.4,0,0.8
		v1.4H89.6z"/>
	<path class="st0" d="M92.4,23v-0.5h1.4c0-0.1,0-0.3,0-0.4c0-0.1,0-0.3,0-0.5h0.6c0,0.1,0,0.3,0,0.4s0,0.4,0,0.5h2.9V23h-2.9
		c0,0.1,0,0.3,0,0.3c0,0.1,0,0.3,0,0.3c0,0.1,0,0.1,0,0.3s0,0.1,0,0.3c0.1,0,0.4-0.1,0.5-0.1c0.1,0,0.4,0,0.5,0c0.3,0,0.6,0,0.9,0.1
		c0.3,0,0.5,0.1,0.8,0.3s0.4,0.3,0.6,0.4c0.1,0.1,0.3,0.3,0.4,0.5c0.1,0.1,0.3,0.4,0.3,0.5c0,0.1,0.1,0.4,0.1,0.5
		c0,0.4,0,0.6-0.1,0.9c-0.1,0.3-0.3,0.5-0.5,0.8c-0.3,0.3-0.5,0.4-0.8,0.5s-0.6,0.1-1.1,0.3l0,0L95.8,28c0.4,0,0.8-0.1,1-0.1
		s0.5-0.3,0.6-0.4c0.1-0.1,0.3-0.4,0.4-0.5c0.1-0.3,0.1-0.4,0.1-0.6c0-0.1,0-0.4-0.1-0.5c-0.1-0.1-0.3-0.3-0.4-0.5
		c-0.1-0.1-0.3-0.3-0.5-0.4c-0.1-0.1-0.4-0.1-0.5-0.3c-0.1,0.3-0.1,0.5-0.3,0.8c-0.1,0.3-0.3,0.5-0.4,0.8c-0.1,0.3-0.3,0.5-0.4,0.8
		c-0.1,0.3-0.4,0.5-0.5,0.6c-0.1,0.1-0.4,0.4-0.6,0.5s-0.5,0.1-0.8,0.1s-0.4,0-0.5-0.1c-0.1-0.1-0.3-0.1-0.4-0.3
		c-0.1-0.1-0.1-0.3-0.3-0.4c0-0.1-0.1-0.3-0.1-0.5s0-0.5,0.1-0.8c0.1-0.3,0.3-0.5,0.4-0.8c0.1-0.3,0.4-0.4,0.5-0.6
		c0.3-0.1,0.5-0.4,0.8-0.4c0-0.1,0-0.3,0-0.4c0-0.1,0-0.3,0-0.3c0-0.1,0-0.3,0-0.4c0-0.1,0-0.1,0-0.3h-1.6V23z M92.6,26.6
		c0,0.1,0,0.3,0,0.3c0,0.1,0,0.1,0.1,0.3c0,0.1,0.1,0.1,0.3,0.1c0.1,0,0.3,0.1,0.4,0.1c0.1,0,0.3,0,0.4-0.1c0.1,0,0.3-0.1,0.4-0.3
		c0-0.3-0.1-0.5-0.1-0.6c0-0.1,0-0.4-0.1-0.6c0-0.3,0-0.4,0-0.6c0-0.3,0-0.4,0-0.5c-0.4,0.3-0.6,0.5-0.9,0.8
		C92.8,25.6,92.6,26.3,92.6,26.6z M95.4,24.3c-0.1,0-0.4,0-0.5,0c-0.1,0-0.4,0.1-0.5,0.1c0,0.4,0,0.8,0,1.1c0,0.4,0.1,0.8,0.1,1.1
		c0.1-0.1,0.1-0.3,0.3-0.4c0.1-0.1,0.1-0.3,0.3-0.4c0.1-0.1,0.1-0.3,0.3-0.5c0.1-0.3,0.1-0.3,0.3-0.5c0-0.1,0.1-0.3,0.1-0.5
		c0-0.1,0.1-0.3,0.1-0.4h-0.1c0,0,0,0-0.1,0C95.7,24.3,95.6,24.3,95.4,24.3C95.6,24.3,95.6,24.3,95.4,24.3z"/>
	<path class="st0" d="M101.3,21.4c0,0.4,0,0.8-0.1,1.1h1.5v0.5H101c-0.3,1.6-0.8,3-1.6,4.2l-0.5-0.4c0.8-1,1.3-2.3,1.5-3.8h-1.3
		v-0.5h1.4c0-0.4,0.1-0.8,0.1-1.1H101.3z M105.3,27l-0.4,0.5c-0.4-0.4-0.8-0.6-1.1-0.9V27c0,0.8-0.5,1.1-1.5,1.1
		c-0.4,0-0.8-0.1-1-0.3c-0.3-0.1-0.4-0.5-0.4-0.9s0.1-0.8,0.4-0.9c0.3-0.3,0.6-0.4,1-0.4s0.6,0,0.9,0.1v-2.2h0.6v2.4
		C104.3,26.4,104.8,26.6,105.3,27z M103.3,26.5c-0.3-0.1-0.6-0.1-0.9-0.1s-0.5,0.1-0.6,0.3c-0.1,0.1-0.3,0.3-0.3,0.5
		c0,0.5,0.3,0.6,0.9,0.6c0.5,0,0.9-0.3,0.9-0.6V26.5z M105.4,23.7l-0.5,0.4c-0.5-0.6-1-1.3-1.8-1.9l0.4-0.4
		C104.2,22.2,104.8,22.8,105.4,23.7z"/>
	<path class="st0" d="M107.8,21.3c0,0.3,0,0.6,0,1.1h2.5V23h-2.5c0,0.9-0.1,1.8-0.4,2.7c-0.3,0.9-0.5,1.8-0.9,2.5l-0.6-0.3
		c0.4-0.6,0.6-1.5,0.8-2.5c0.1-1,0.4-1.9,0.4-2.5h-1v-0.5h1c0-0.4,0-0.8,0-1.1h0.8V21.3z M112,27.9c-0.3,0.1-0.8,0.1-1.3,0.1
		c-0.4,0-0.8,0-1.1-0.1c-0.4,0-0.6-0.1-0.8-0.4c-0.3-0.1-0.3-0.4-0.3-0.6c0-0.4,0.1-0.8,0.5-1.1l0.5,0.3c-0.3,0.3-0.3,0.5-0.3,0.8
		c0,0.1,0.1,0.3,0.3,0.4c0.1,0.1,0.6,0.1,1.1,0.1s1,0,1.4-0.1L112,27.9z M111.7,23.7v0.5c-0.1,0-0.3,0-0.4,0c-0.6,0-1.4,0-2.3,0.1
		v-0.5c0.8-0.1,1.5-0.1,2.2-0.1C111.4,23.7,111.5,23.7,111.7,23.7z"/>
	<path class="st0" d="M115.8,28l-0.1-0.5c0.6-0.1,1.3-0.4,1.6-0.8s0.6-1,0.8-2c0-0.6-0.3-1.3-0.6-1.6c-0.4-0.5-0.9-0.6-1.6-0.6
		c0,1.4-0.1,2.7-0.5,3.7c-0.4,1-0.8,1.5-1.4,1.5c-0.5,0-0.8-0.3-1-0.6c-0.3-0.4-0.4-0.9-0.4-1.4c0-0.9,0.3-1.8,0.9-2.5
		c0.6-0.8,1.4-1.1,2.4-1.1c0.8,0,1.5,0.3,2,0.8c0.5,0.5,0.8,1.3,0.8,2c0,1-0.3,1.8-0.8,2.4C117.4,27.6,116.7,28,115.8,28z
		 M115.3,22.4c-0.6,0.1-1.1,0.5-1.5,1c-0.4,0.6-0.6,1.3-0.6,2c0,0.4,0.1,0.8,0.3,1c0.1,0.3,0.3,0.4,0.5,0.4c0.4,0,0.8-0.4,1-1.3
		C115.2,24.9,115.3,23.8,115.3,22.4z"/>
	<path class="st0" d="M123.1,25.1h-1.9c-0.1,0.8-0.1,1.3-0.1,1.5c0,0.6,0.5,1,1.4,1c1.3,0,1.9-0.4,1.9-1.3c0-0.6-0.1-1.1-0.4-1.8
		l0.5-0.1c0.4,0.6,0.5,1.3,0.5,2c0,1.1-0.9,1.6-2.5,1.6c-1.3,0-1.9-0.5-1.9-1.6c0-0.3,0-0.8,0.1-1.5h-1.1v-0.5h1.3
		c0-0.4,0.1-0.9,0.3-1.5h-1.3v-0.5h1.4c0-0.3,0.1-0.6,0.3-1.1h0.6l-0.3,1.1h2.4V23h-2.5c-0.1,0.5-0.1,1-0.3,1.5h1.8v0.6H123.1z"/>
	<path class="st0" d="M129,28l-0.1-0.5c0.6-0.1,1.3-0.4,1.6-0.8c0.4-0.4,0.6-1,0.8-2c0-0.6-0.3-1.3-0.6-1.6
		c-0.4-0.5-0.9-0.6-1.6-0.6c0,1.4-0.1,2.7-0.5,3.7c-0.4,1-0.8,1.5-1.4,1.5c-0.5,0-0.8-0.3-1-0.6c-0.3-0.4-0.4-0.9-0.4-1.4
		c0-0.9,0.3-1.8,0.9-2.5c0.6-0.8,1.4-1.1,2.4-1.1c0.8,0,1.5,0.3,2,0.8c0.5,0.5,0.8,1.3,0.8,2c0,1-0.3,1.8-0.8,2.4
		C130.4,27.6,129.8,28,129,28z M128.4,22.4c-0.6,0.1-1.1,0.5-1.5,1c-0.4,0.6-0.6,1.3-0.6,2c0,0.4,0.1,0.8,0.3,1
		c0.1,0.3,0.3,0.4,0.5,0.4c0.4,0,0.8-0.4,1-1.3C128.3,24.9,128.4,23.8,128.4,22.4z"/>
	<path class="st0" d="M133.7,27.9l-0.6,0.1c-0.3-0.9-0.4-1.8-0.4-2.8c0-1.1,0.1-2.4,0.5-3.7l0.6,0.1c-0.4,1.3-0.5,2.4-0.5,3.5
		C133.3,26.3,133.5,27.1,133.7,27.9z M138.3,27.8c-0.5,0-0.9,0.1-1.4,0.1c-0.5,0-0.9,0-1.3-0.1c-0.4-0.1-0.6-0.3-0.9-0.4
		c-0.3-0.3-0.3-0.5-0.3-0.8c0-0.5,0.3-1,0.6-1.5l0.5,0.3c-0.4,0.4-0.5,0.8-0.5,1.3c0,0.3,0.1,0.4,0.3,0.5c0.3,0.1,0.4,0.3,0.6,0.3
		c0.3,0,0.5,0,1,0c0.5,0,0.9,0,1.3-0.1V27.8z M138.1,22.6c-0.4,0-0.8,0-1,0c-0.3,0-1.1,0-2.4,0.1c0-0.1,0-0.3,0-0.5
		c1.1-0.1,2-0.1,2.7-0.1c0.4,0,0.6,0,0.8,0L138.1,22.6z"/>
	<path class="st0" d="M146.4,24.3c-0.1,0.4-0.4,0.8-0.6,1c-0.4,0.4-0.8,0.6-1.3,0.6c-0.4,0-0.6-0.1-1-0.3c-0.1-0.1-0.5-0.3-1-0.6
		c-0.4-0.3-0.6-0.5-0.8-0.5c-0.3-0.1-0.5-0.3-0.8-0.3s-0.4,0.1-0.6,0.3c-0.3,0.1-0.4,0.4-0.5,0.6c-0.1,0.1-0.1,0.3-0.3,0.4l-0.5-0.3
		c0.1-0.4,0.4-0.8,0.6-1c0.4-0.4,0.9-0.6,1.3-0.6c0.4,0,0.8,0.1,1.1,0.4c0.3,0.3,0.6,0.4,0.9,0.6c0.4,0.3,0.6,0.4,0.8,0.5
		c0.3,0.1,0.5,0.3,0.8,0.3c0.4,0,0.8-0.3,1.1-0.9c0.1-0.1,0.1-0.3,0.3-0.4L146.4,24.3z"/>
</g>
<g id="レイヤー_2_00000150802214120081894110000002054602546653801094_" class="st5">
	
		<g id="グループ_709_00000044896925230792354990000000237942623005388712_" transform="translate(-137.586 -299.996)" class="st6">
		<path id="中マド_4_00000023998549168557465770000011789064871038801558_" class="st7" d="M149.2,322.1c-1.1,0-2.1-0.2-3.1-0.5
			c0.5,0.2,1,0.3,1.5,0.4c-0.3-1-0.7-1.9-1.2-2.9c-1.1-1.9-2.3-2.8-3.2-2.8c-0.3,0-0.6,0.2-0.7,0.4c-0.3,0.6,0.1,2,1.9,3.9
			c0.1,0.1,0.2,0.2,0.3,0.3h-0.1l0,0c-1.4-0.8-2.7-1.8-3.7-3.2c-0.1-0.9,0.3-1.8,1-2.3c0.6-0.5,1.3-0.7,2.1-0.7
			c0.7,0,1.4,0.2,2.1,0.5l0,0c0.1-0.4,0.3-0.9,0.6-1.3c0.3,0.4,0.7,0.7,1.2,0.9c-0.2,1-0.2,2.1,0.1,3.1c0.3,1.4,0.7,2.8,1.1,4.1
			L149.2,322.1L149.2,322.1z M149.8,322.1L149.8,322.1c0.5-1.5,1.7-5.3,1.2-7.2c0.4-0.2,0.8-0.5,1.2-0.9l0,0c0-0.1-0.1-0.1-0.1-0.2
			c-0.6-0.9-1.6-1.5-2.7-1.5c-1.1,0-2.1,0.6-2.7,1.5c0,0.1-0.1,0.1-0.1,0.2c-0.6-0.7-1-1.6-1-2.5s0.3-1.8,1-2.5
			c-0.3-0.4-0.4-0.8-0.6-1.3l0,0c-0.6,0.3-1.3,0.5-2.1,0.5s-1.5-0.2-2.1-0.7c-0.7-0.5-1.1-1.4-1-2.3c1-1.3,2.3-2.4,3.8-3.2
			c-0.1,0.1-0.2,0.2-0.3,0.3c-1.8,2-2.1,3.3-1.9,3.9c0.1,0.3,0.4,0.5,0.7,0.4c0.8,0,2.1-0.9,3.2-2.8c0.5-0.9,0.9-1.9,1.2-2.9
			c0.5-0.1,0.9-0.1,1.4-0.2c-0.5,1.3-0.9,2.7-1.1,4.1c-0.2,1-0.3,2.1-0.1,3.1c-0.4,0.2-0.8,0.5-1.2,0.9c0,0.1,0.1,0.1,0.1,0.2
			c0.6,0.9,1.6,1.5,2.7,1.5c1.1,0,2.1-0.6,2.7-1.5c0.1-0.1,0.1-0.1,0.1-0.2c-0.3-0.4-0.7-0.7-1.2-0.9c0.5-2-0.7-5.7-1.2-7.2h-0.2
			c0.5,0,1.1,0.1,1.6,0.2c0.3,1,0.7,1.9,1.2,2.9c1.1,1.9,2.3,2.8,3.2,2.8c0.3,0,0.6-0.2,0.7-0.4c0.3-0.6-0.1-2-1.9-3.9
			c-0.1-0.1-0.2-0.2-0.2-0.3l0,0l0,0c1.5,0.8,2.8,1.9,3.8,3.2c0.1,0.9-0.3,1.8-1,2.3c-0.6,0.5-1.3,0.7-2.1,0.7
			c-0.7,0-1.4-0.2-2.1-0.5l0,0c-0.1,0.4-0.3,0.9-0.6,1.3c0.6,0.7,1,1.6,1,2.5s-0.4,1.8-1,2.5l0,0c0.3,0.4,0.4,0.8,0.6,1.3l0,0
			c0.6-0.3,1.3-0.5,2.1-0.5s1.5,0.2,2.1,0.7c0.7,0.5,1.1,1.4,1,2.3c-1,1.3-2.2,2.4-3.7,3.2l0,0l0,0l0.1-0.1l0,0l0.2-0.2
			c1.8-2,2.1-3.3,1.9-3.9c-0.1-0.3-0.4-0.5-0.7-0.4c-0.8,0-2.1,0.9-3.2,2.8c-0.5,0.9-0.9,1.9-1.2,2.9c0.5-0.1,1.1-0.2,1.6-0.4
			C151.8,321.9,150.8,322.1,149.8,322.1L149.8,322.1z M149.3,315.3c-0.6,0-1.1-0.1-1.6-0.4c0.1-0.2,0.2-0.5,0.3-0.7
			c0.3-0.4,0.8-0.7,1.3-0.6c0.5,0,1,0.2,1.3,0.6c0.1,0.2,0.2,0.4,0.3,0.7C150.5,315.1,149.9,315.3,149.3,315.3L149.3,315.3z
			 M149.3,309.4c-0.5,0-1-0.2-1.3-0.6c-0.1-0.2-0.2-0.4-0.3-0.7c0.5-0.2,1.1-0.4,1.6-0.4c0.6,0,1.1,0.1,1.6,0.4
			c-0.1,0.2-0.2,0.5-0.3,0.7C150.4,309.2,149.9,309.4,149.3,309.4L149.3,309.4z"/>
		<path id="パス_9_00000147195235774709429350000017202485628306805383_" class="st7" d="M149.3,300.8c-5.9,0-10.7,4.8-10.7,10.7
			s4.8,10.7,10.7,10.7s10.7-4.8,10.7-10.7S155.2,300.8,149.3,300.8L149.3,300.8z M149.3,321.2c-5.4,0-9.7-4.3-9.7-9.7
			c0-5.4,4.3-9.7,9.7-9.7s9.7,4.3,9.7,9.7l0,0C159,316.9,154.7,321.2,149.3,321.2z"/>
		<path id="パス_10_00000175292020869660212310000003860848235099407249_" class="st7" d="M169.9,319.6h-5.4v-0.3h1.1v-9
			c-0.2-1.8,0.6-3.5,2-4.6c1.5-1.2,3.4-1.8,5.4-1.7c2-0.1,4,0.6,5.4,2l-0.3,0.2c-1.3-1.2-3.1-1.9-4.9-1.8c-3.3,0-3.4,2.7-3.4,5.2
			v1.8h5.5v0.4h-5.5L169.9,319.6L169.9,319.6z"/>
		<path id="パス_11_00000098219687105523908760000018320948849378611893_" class="st7" d="M208.9,318.9c-0.4,0.7-1.2,1.1-2,1h-0.2
			c-2.3,0-3.3-0.8-3.3-2.6V311c0-1.1-0.1-2.9-1.8-2.9c-1.7-0.1-3.2,1.3-3.3,3c0,0.1,0,0.2,0,0.2v8h1.1v0.3h-5.7v-0.3h1.1v-11h-1.1
			V308h4.6v1.6c0.6-1.2,1.9-2,3.3-1.9c4.1,0,5.3,2.3,5.3,4.6v6.5c0,0.4,0.3,0.6,0.7,0.6l0,0c0.4,0,0.8-0.3,0.9-0.6L208.9,318.9z"/>
		<path id="パス_12_00000153681134602095517250000010655804888545686203_" class="st7" d="M247.8,318.9c-0.4,0.7-1.2,1.1-2,1h-0.3
			c-2.3,0-3.3-0.8-3.3-2.6v-8.8h-1.7v-0.4h1.7v-3.4c1.2-0.2,2.4-0.6,3.5-1.3v4.7h2.8v0.4h-2.8v10.4c0,0.4,0.3,0.6,0.7,0.6l0,0
			c0.4,0,0.8-0.3,0.9-0.6H247.8z"/>
		<path id="パス_13_00000091694420534019419490000017576202806943727766_" class="st7" d="M262.4,318.8c0,0.4,0.3,0.6,0.7,0.6l0,0
			c0.4,0,0.8-0.3,0.9-0.6h0.4c-0.4,0.7-1.2,1.1-2,1h-0.3c-2.3,0-3.2-0.9-3.3-1.9c-0.6,1.2-1.9,2-3.3,1.9c-4.1,0-5.3-2.3-5.3-4.6
			v-6.8h-1.1v-0.3h4.6v8.5c0,1.1,0.1,3,1.8,3c1.7,0.1,3.2-1.3,3.3-3c0-0.1,0-0.2,0-0.2v-7.9h-1.1v-0.3h4.6L262.4,318.8z"/>
		<path id="パス_14_00000062905831296364425380000005805487687823957437_" class="st7" d="M271.1,319.6h-5.7v-0.3h1.1v-10.9h-1.1
			v-0.3h4.6v2.9c0.5-1.3,2.1-3.2,4-3.2c1.4,0,2,0.7,2,1.3c0.1,0.9-0.5,1.7-1.3,1.8c-0.1,0-0.2,0-0.4,0c-0.7,0-1.5-0.4-1.5-1
			c0-0.4,0.2-0.5,0.2-0.8c0-0.1-0.1-0.2-0.2-0.2c-1.4,0-2,1.6-2.2,1.9l0,0c-0.4,0.8-0.6,1.7-0.6,2.6v6.1h1.1V319.6z"/>
		<path id="パス_15_00000019636934728276589220000004759169514906786969_" class="st7" d="M292.5,318.9c-0.4,0.7-1.2,1.1-2,1h-0.3
			c-2.3,0-3.3-0.8-3.3-2.6V311c0-1.1-0.1-2.9-1.8-2.9c-1.7-0.1-3.2,1.3-3.3,3c0,0.1,0,0.2,0,0.2v8h1.1v0.3h-5.7v-0.3h1.1v-11h-1.1
			V308h4.6v1.6c0.6-1.2,1.9-2,3.3-1.9c4.1,0,5.3,2.3,5.3,4.6v6.5c0,0.4,0.3,0.6,0.7,0.6l0,0c0.4,0,0.8-0.3,0.9-0.6L292.5,318.9z"/>
		<path id="パス_16_00000145040659246271002100000005666585619253664701_" class="st7" d="M192.4,318.9c-0.2,0.4-0.5,0.6-0.9,0.6
			s-0.7-0.2-0.7-0.6l0,0v-5c0-3.9-2.6-6.1-6.5-6.1c-4.9,0-6.6,3.4-6.6,6.1c0,3.7,2.4,6.1,6.3,6.1c1.3,0.1,2.6-0.6,3.3-1.7
			c0.2,0.7,0.8,1.7,3.4,1.7h0.1c0.8,0.1,1.6-0.3,2-1L192.4,318.9z M185.2,317.7c-1.8,0-3.3-1.5-3.3-3.3s1.5-3.3,3.3-3.3
			s3.3,1.5,3.3,3.3C188.4,316.3,187,317.7,185.2,317.7L185.2,317.7z"/>
		<path id="パス_17_00000098221695167361954440000004486794705149587859_" class="st7" d="M226.6,309.7c0-3.3-3.5-5.7-7.7-5.7
			h-0.4c-5.1,0-7.7,2.9-7.7,6.7v8.5h-1.1v0.3h5.3v-4.8c0-0.4,0-0.4,0.6,0.3l3.4,4.5h5.2v-0.3h-1c-0.2,0-0.3-0.1-0.6-0.3
			c-0.3-0.3-2.2-2.7-2.7-3.3C225.4,315.5,226.6,311.9,226.6,309.7z M218.7,314.3c-2.1,0-3.7-1.7-3.7-3.7c0-2.1,1.7-3.7,3.7-3.7
			c2.1,0,3.7,1.7,3.7,3.7l0,0C222.5,312.6,220.8,314.3,218.7,314.3L218.7,314.3L218.7,314.3z"/>
		<path id="パス_18_00000181072279722081571920000002229620670756223166_" class="st7" d="M235,319.4c-1.8,0-2.9-1.2-3.1-3.5
			c0.9,0.6,2,0.9,3.1,0.9c2.7,0,4.9-1.9,4.9-4.3c0-3.1-2-4.9-5.9-4.9c-2.4,0-4.5,0.7-5.4,2.2c-0.5,0.9-0.7,1.9-0.7,2.9v1.8
			c0,3.7,2.2,5.2,6.4,5.2c3.1,0,4.4-1,5.3-2.8l-0.4-0.2C238.6,318.6,236.9,319.6,235,319.4z M234,310.5c1.1,0,2,0.9,2,2s-0.9,2-2,2
			s-2-0.9-2-2l0,0C232,311.4,232.9,310.5,234,310.5z"/>
		<g id="グループ_3_00000109031278851319411590000013926342098053448865_" transform="translate(292.399 317.274)">
			<path id="パス_20_00000083078048700642977740000017796268605399399071_" class="st8" d="M2.3,0.2c0.7,0,1.2,0.5,1.3,1.2
				S3,2.6,2.4,2.6C1.7,2.7,1.1,2.1,1.1,1.4l0,0C1.1,0.7,1.6,0.2,2.3,0.2L2.3,0.2z M2.3,2.4c0.6,0,1-0.4,1.1-1c0-0.6-0.4-1-1-1.1
				c-0.6,0-1,0.4-1.1,1c0,0,0,0,0,0.1C1.3,2,1.8,2.4,2.3,2.4L2.3,2.4L2.3,2.4z M2.9,2C2.7,2.1,2.5,2.2,2.4,2.2
				C2,2.2,1.7,1.9,1.6,1.5V1.4c0-0.4,0.3-0.7,0.7-0.7c0,0,0,0,0.1,0c0.2,0,0.3,0,0.4,0.1V1C2.7,0.9,2.5,0.9,2.4,0.9
				c-0.2,0-0.5,0.2-0.5,0.4v0.1c0,0.3,0.2,0.5,0.5,0.5l0,0c0.1,0,0.3,0,0.4-0.1L2.9,2z"/>
		</g>
	</g>
</g>
</svg>
