<?xml version="1.0" encoding="utf-8"?>
<!-- Generator: Adobe Illustrator 26.0.1, SVG Export Plug-In . SVG Version: 6.00 Build 0)  -->
<svg version="1.1" id="グループ_708" xmlns="http://www.w3.org/2000/svg" xmlns:xlink="http://www.w3.org/1999/xlink" x="0px"
	 y="0px" viewBox="0 0 224 40" style="enable-background:new 0 0 224 40;" xml:space="preserve">
<style type="text/css">
	.st0{fill:#D7B9FF;}
	.st1{fill:#F4FF2E;}
	.st2{fill:#00AEBD;}
	.st3{fill:#FFFFFF;}
	.st4{display:none;fill:none;stroke:#00AEBD;stroke-miterlimit:10;}
	.st5{display:none;}
	.st6{display:inline;fill:#00AEBD;}
	.st7{display:none;fill:#00AEBD;}
	.st8{font-family:'MeiryoUI';}
	.st9{font-size:9.1973px;}
</style>
<ellipse id="楕円形_1" class="st0" cx="15.2" cy="15.1" rx="13.9" ry="13.7"/>
<circle id="楕円形_2" class="st1" cx="15.2" cy="15.1" r="5.4"/>
<path id="パス_1" class="st2" d="M26,20.6c-2.7-2-5.9-0.3-5.9-0.3s-1.1-4.2-4.8-4.2s-4.8,4.2-4.8,4.2s-3.2-1.8-5.9,0.3
	c-1,0.8-1.6,2-1.5,3.3c5,6.8,14.5,8.2,21.2,3.3c1.2-0.9,2.3-2,3.3-3.3C27.5,22.6,27,21.3,26,20.6z"/>
<path id="パス_2" class="st2" d="M27.4,6.3C22.5-0.5,13-2,6.2,3C5,3.9,3.9,5,2.9,6.3C2.8,7.6,3.4,8.8,4.4,9.6
	c2.7,2,5.9,0.3,5.9,0.3s1.1,4.2,4.8,4.2S20,9.8,20,9.8s3.2,1.8,5.9-0.3C27,8.8,27.6,7.6,27.4,6.3z"/>
<g id="グループ_1" transform="translate(5.137 17.786)">
	<path id="パス_3" class="st3" d="M2.8,10.2c0.1,0.1,0.3,0.3,0.4,0.4C4.5,11.3,6,11.8,7.5,12C7,10.6,6.4,9.3,5.7,8
		C2.1,1.4-3.4,3.5,2.8,10.2z"/>
	<path id="パス_4" class="st3" d="M10.1,0.1c-4.5,0-1.9,8.6-0.6,12.2c0.2,0,0.4,0,0.6,0s0.4,0,0.6,0C12,8.6,14.5,0.1,10.1,0.1z"/>
	<path id="パス_5" class="st3" d="M14.5,8c-0.7,1.3-1.3,2.7-1.8,4.1c1.5-0.3,2.9-0.7,4.3-1.4c0.1-0.1,0.2-0.3,0.4-0.4
		C23.5,3.5,18,1.4,14.5,8z"/>
</g>
<g id="グループ_2" transform="translate(5.137)">
	<path id="パス_6" class="st3" d="M2.8,2.1C2.9,2,3,1.8,3.2,1.7C4.5,1,5.9,0.5,7.4,0.3C7,1.7,6.4,3.1,5.7,4.4
		C2.1,10.9-3.4,8.8,2.8,2.1z"/>
	<path id="パス_7" class="st3" d="M10.1,12.3c-4.5,0-1.9-8.6-0.6-12.2c0.2,0,0.4,0,0.6,0s0.4,0,0.6,0C12,3.7,14.5,12.3,10.1,12.3z
		"/>
	<path id="パス_8" class="st3" d="M14.5,4.4c-0.7-1.3-1.3-2.7-1.8-4.1C14.2,0.5,15.6,1,17,1.7c0.1,0.1,0.2,0.3,0.4,0.4
		C23.5,8.8,18,10.9,14.5,4.4z"/>
</g>
<path id="パス_9" class="st2" d="M15.2,0.1C6.9,0.2,0.3,7,0.4,15.3s6.9,14.9,15.2,14.8c8.2-0.1,14.8-6.8,14.8-15
	C30.3,6.7,23.5,0,15.2,0.1L15.2,0.1z M15.2,28.7C7.6,28.6,1.6,22.4,1.7,14.9C1.8,7.3,8,1.3,15.5,1.4s13.6,6.2,13.6,13.7
	C29,22.7,22.8,28.8,15.2,28.7z"/>
<path id="パス_10" class="st2" d="M44.5,26.5h-7.6V26h1.6V13.4c-0.2-2.5,0.8-4.9,2.8-6.5c2.2-1.6,4.9-2.5,7.7-2.4
	c5.2,0,7.8,2.8,7.8,2.8l-0.5,0.3c-2-1.7-4.5-2.6-7-2.6c-4.8,0-4.8,3.8-4.8,7.3v2.5h7.9v0.6h-7.8L44.5,26.5z"/>
<path id="パス_11" class="st2" d="M100.1,25.4c-0.5,1-1.7,1.6-2.8,1.5h-0.4c-3.2,0-4.8-1.1-4.8-3.7v-9c0-1.6-0.1-4.2-2.6-4.2
	c-2.5-0.1-4.6,1.9-4.6,4.3c0,0.1,0,0.2,0,0.3V26h1.6v0.4h-8.2V26h1.6V10.4h-1.6V9.9h6.6v2.3c0.9-1.7,2.7-2.8,4.6-2.7
	c5.8,0,7.6,3.3,7.6,6.6v9.3c0,0.5,0.5,0.9,1,0.9l0,0c0.6,0,1.1-0.4,1.3-0.9L100.1,25.4z"/>
<path id="パス_12" class="st2" d="M155.5,25.4c-0.6,1-1.7,1.6-2.8,1.4h-0.5c-3.2,0-4.8-1.1-4.8-3.7V10.8H145v-0.5h2.4V5.4
	c1.8-0.3,3.4-0.9,5-1.8v6.6h3.9v0.6h-3.9v14.7c0,0.5,0.5,0.9,1,0.9l0,0c0.6,0,1.1-0.4,1.3-0.9L155.5,25.4z"/>
<path id="パス_13" class="st2" d="M176.3,25.3c0,0.5,0.5,0.9,1,0.9l0,0c0.6,0,1.1-0.4,1.3-0.9h0.6c-0.5,1-1.7,1.6-2.8,1.5h-0.5
	c-3.2,0-4.5-1.3-4.7-2.7c-0.9,1.7-2.7,2.8-4.6,2.7c-5.8,0-7.6-3.3-7.6-6.6v-9.8h-1.6V9.9h6.6V22c0,1.6,0.2,4.3,2.6,4.3
	c2.5,0.1,4.6-1.9,4.6-4.3c0-0.1,0-0.2,0-0.3V10.4h-1.6V9.9h6.6L176.3,25.3z"/>
<path id="パス_14" class="st2" d="M188.6,26.5h-8.2V26h1.6V10.4h-1.6V9.9h6.6V14c0.7-1.9,3-4.6,5.7-4.6c2.1,0,2.9,1,2.9,1.8
	c0.2,1.2-0.7,2.4-1.9,2.5c-0.2,0-0.4,0-0.5,0c-1,0-2.1-0.6-2.1-1.4c0-0.5,0.3-0.8,0.3-1.2c0-0.2-0.2-0.3-0.3-0.3
	c-1.9,0-2.9,2.3-3.2,2.7l0,0c-0.6,1.2-0.8,2.4-0.8,3.7V26h1.6v0.5H188.6z"/>
<path id="パス_15" class="st2" d="M219.1,25.4c-0.5,1-1.7,1.6-2.8,1.5h-0.4c-3.2,0-4.8-1.1-4.8-3.7v-9c0-1.6-0.2-4.2-2.6-4.2
	c-2.5-0.1-4.6,1.9-4.6,4.3c0,0.1,0,0.2,0,0.3V26h1.6v0.4h-8.2V26h1.6V10.4h-1.6V9.9h6.6v2.3c0.9-1.7,2.7-2.8,4.6-2.7
	c5.8,0,7.6,3.3,7.6,6.6v9.3c0,0.5,0.5,0.9,1,0.9l0,0c0.6,0,1.1-0.4,1.3-0.9L219.1,25.4z"/>
<path id="パス_16" class="st2" d="M76.6,25.4c-0.2,0.5-0.8,0.9-1.3,0.9c-0.5,0.1-1-0.3-1-0.9l0,0v-7.2c0-5.5-3.7-8.8-9.2-8.8
	c-6.9,0-9.4,4.9-9.4,8.7c0,5.3,3.5,8.7,9,8.7c1.9,0.1,3.7-0.8,4.7-2.4c0.3,1,1.2,2.4,4.9,2.4h0.2c1.2,0.1,2.3-0.5,2.9-1.5L76.6,25.4
	z M66.3,23.7c-2.6,0-4.6-2.1-4.6-4.6s2.1-4.6,4.6-4.6c2.6,0,4.6,2.1,4.6,4.6C70.9,21.7,68.8,23.7,66.3,23.7L66.3,23.7z"/>
<path id="パス_17" class="st2" d="M125.3,12.5c0-4.7-5-8-11-8h-0.5c-7.3,0-11,4.1-11,9.4v12h-1.6v0.5h7.5v-6.7
	c0-0.5,0-0.6,0.8,0.4l4.8,6.3h7.5V26h-1.4c-0.3,0-0.5-0.1-0.8-0.5c-0.4-0.5-3.2-3.8-3.9-4.7C123.6,20.7,125.3,15.7,125.3,12.5z
	 M114,19c-2.9-0.1-5.2-2.4-5.2-5.3c0.1-2.9,2.4-5.2,5.3-5.2c2.9,0.1,5.2,2.4,5.2,5.2C119.3,16.6,117,19,114,19L114,19z"/>
<path id="パス_18" class="st2" d="M137.3,26.2c-2.5,0-4.2-1.7-4.4-5c1.3,0.9,2.8,1.3,4.4,1.3c3.9,0,7.1-2.7,7.1-6.1
	c0-4.4-2.9-7-8.4-7c-3.4,0-6.4,1-7.6,3.1c-0.7,1.3-1,2.7-1,4.2v2.6c0,5.2,3.1,7.4,9.1,7.4c4.5,0,6.3-1.4,7.5-3.9l-0.6-0.2
	C142.1,25.5,139.7,26.2,137.3,26.2z M135.8,13.4c1.6,0,2.9,1.3,2.9,2.9s-1.3,2.9-2.9,2.9c-1.6,0-2.9-1.3-2.9-2.9l0,0
	C132.9,14.7,134.2,13.4,135.8,13.4L135.8,13.4L135.8,13.4z"/>
<circle id="楕円形_3" class="st1" cx="66.3" cy="19.2" r="4.6"/>
<circle id="楕円形_4" class="st1" cx="114" cy="13.7" r="5.3"/>
<path id="パス_19" class="st1" d="M135.8,13.6c1.6,0,2.9,1.3,2.9,2.9s-1.3,2.9-2.9,2.9c-1.6,0-2.9-1.3-2.9-2.9l0,0
	C132.9,14.9,134.2,13.6,135.8,13.6z"/>
<g id="グループ_3" transform="translate(220.558 23.306)">
	<path id="パス_20" class="st2" d="M1.7,0.1c1,0,1.8,0.8,1.8,1.7S2.8,3.6,1.8,3.6S0,2.8,0,1.8l0,0C0,0.9,0.7,0.1,1.7,0.1L1.7,0.1z
		 M1.7,3.3c0.8,0,1.5-0.6,1.5-1.4S2.6,0.4,1.8,0.4S0.3,1,0.3,1.8v0.1C0.3,2.6,0.9,3.2,1.7,3.3L1.7,3.3L1.7,3.3z M2.5,2.7
		C2.3,2.8,2,2.9,1.8,2.9c-0.5,0-1-0.4-1-0.9V1.9c0-0.6,0.4-1,1-1.1c0,0,0,0,0.1,0c0.2,0,0.4,0,0.6,0.2L2.4,1.2
		C2.2,1.1,2.1,1.1,1.9,1.1c-0.4,0-0.7,0.2-0.7,0.6v0.1c0,0.4,0.3,0.7,0.6,0.7c0,0,0,0,0.1,0c0.2,0,0.4,0,0.6-0.1V2.7z"/>
</g>
<rect y="46" class="st4" width="224.1" height="16"/>
<g class="st5">
	<path class="st6" d="M58.7,32.9c-0.2,0.4-0.3,0.6-0.5,0.8c-0.3,0.4-0.7,0.6-1.1,0.6c-0.3,0-0.6-0.1-0.9-0.2
		c-0.2-0.1-0.4-0.3-0.9-0.6c-0.4-0.3-0.6-0.4-0.6-0.5c-0.2-0.1-0.4-0.2-0.7-0.2c-0.2,0-0.4,0.1-0.6,0.2c-0.2,0.1-0.3,0.3-0.4,0.5
		c-0.1,0.2-0.1,0.3-0.2,0.4l-0.4-0.2c0.2-0.4,0.3-0.6,0.5-0.8c0.3-0.4,0.7-0.6,1.1-0.6c0.3,0,0.6,0.1,1,0.3c0.3,0.2,0.5,0.4,0.8,0.5
		c0.4,0.2,0.6,0.4,0.6,0.4c0.2,0.1,0.4,0.2,0.6,0.2c0.4,0,0.7-0.3,1-0.8c0.1-0.1,0.1-0.2,0.2-0.4L58.7,32.9z"/>
	<path class="st6" d="M64.4,36h-5.1v-0.5h2.2v-4h-1.8V31h4.1v0.5H62v4h2.2V36H64.4z"/>
	<path class="st6" d="M69.9,32.8c-0.3,0.7-0.7,1.3-1.2,1.8s-1,0.9-1.6,1.1c-0.5,0.2-1.2,0.4-1.9,0.5L65,35.7
		c0.6-0.1,1.1-0.2,1.6-0.4s0.9-0.5,1.2-0.7c0.3-0.3,0.6-0.6,0.8-0.9c0.2-0.3,0.5-0.7,0.7-1.2L69.9,32.8z M67.6,31.9l-0.4,0.5
		c-0.7-0.5-1.4-1-2.1-1.3l0.3-0.4C66.1,31,66.9,31.4,67.6,31.9z"/>
	<path class="st6" d="M72.6,30.3c-0.1,0.2-0.1,0.5-0.2,0.7h2.4c0,0.2,0,0.5-0.1,0.9s-0.1,0.7-0.2,1.1s-0.2,0.8-0.4,1.1
		s-0.4,0.7-0.7,1c-0.3,0.3-0.6,0.6-0.9,0.8s-0.7,0.4-1.1,0.5l-0.2-0.5c0.9-0.3,1.6-0.9,2.1-1.6l0.1-0.1c-0.5-0.3-1-0.7-1.6-0.9
		l0.3-0.4c0.5,0.2,1,0.5,1.6,0.8c0.3-0.6,0.4-1.3,0.5-2.2h-1.9c0,0.1-0.1,0.1-0.1,0.2c-0.2,0.4-0.4,0.8-0.7,1.2
		c-0.3,0.4-0.6,0.8-0.9,1l-0.3-0.4c0.4-0.4,0.8-0.9,1.1-1.5c0.3-0.6,0.5-1.2,0.7-1.7L72.6,30.3z"/>
	<path class="st6" d="M79.7,30.4c-0.1,1.1-0.5,2.2-1.1,3.1c0.4,0.4,0.8,0.9,1.1,1.2l-0.5,0.4c-0.2-0.3-0.5-0.7-1-1.1
		c-0.7,1-1.6,1.8-2.6,2.2l-0.2-0.5c1-0.4,1.8-1.1,2.5-2.1c-0.5-0.6-1.1-1.1-1.8-1.6l0.3-0.4c0.6,0.5,1.2,1,1.8,1.5
		c0.5-0.9,0.8-1.8,0.9-2.8L79.7,30.4z"/>
	<path class="st6" d="M80.4,36.3l-0.1-0.4c1.2-0.3,2.1-0.6,2.7-1.1h-2.6v-0.4h3v-0.6h-2.5v-0.4h2.5v-0.6h-2.7v-0.4h1.5l-0.4-0.8
		h-1.4v-0.4h1.1l-0.4-0.9l0.5-0.1l0.5,1h0.6V30h0.5v1.2h0.9V30h0.5v1.2h0.7l0.5-1l0.5,0.1l-0.5,0.9H87v0.4h-1.5l-0.4,0.8h1.6v0.4
		h-2.8v0.6h2.6v0.4h-2.6v0.6H87v0.4h-2.6c0.3,0.2,0.8,0.4,1.3,0.6c0.5,0.2,1,0.3,1.5,0.4L87,36.3c-1.2-0.3-2.2-0.7-3-1.3v1.5h-0.5
		v-1.4c-0.3,0.3-0.8,0.5-1.4,0.7C81.5,36.1,80.9,36.2,80.4,36.3z M82.4,31.6l0.4,0.8h1.8l0.4-0.8C85,31.6,82.4,31.6,82.4,31.6z"/>
	<path class="st6" d="M88.4,36.5l-0.2-0.3c0.3-0.2,0.6-0.4,0.8-0.6c0.2-0.3,0.3-0.6,0.3-1V34c-0.5,0.2-1,0.5-1.7,0.7l-0.2-0.4
		c0.5-0.2,1.1-0.4,1.6-0.6c0.5-0.3,0.9-0.5,1.1-0.7h-2v-2.7h5.6V33h-1.9c0.7,0.6,1.6,1,2.8,1.2l-0.3,0.5c-0.6-0.2-1.1-0.4-1.6-0.6
		v2.4H92V34h0.5c-0.6-0.3-1.1-0.7-1.5-1h-0.3c-0.4,0.4-0.8,0.7-1.4,1h0.5v0.6c0,0.4-0.1,0.8-0.4,1.1S88.9,36.3,88.4,36.5z
		 M90.6,31.4v-0.7h-2v0.7H90.6z M90.6,32.6v-0.8h-2v0.8H90.6z M91.2,30.7v0.7h2v-0.7H91.2z M91.2,31.8v0.8h2v-0.8H91.2z"/>
	<path class="st6" d="M97.7,36.2l-0.1-0.5c0.6-0.1,1.1-0.3,1.5-0.7c0.4-0.3,0.6-0.9,0.6-1.7c0-0.6-0.2-1.1-0.6-1.5
		c-0.4-0.4-0.8-0.6-1.4-0.6c0,1.3-0.1,2.3-0.4,3.2c-0.3,0.8-0.7,1.3-1.3,1.3c-0.4,0-0.7-0.2-0.9-0.5c-0.2-0.3-0.3-0.8-0.3-1.2
		c0-0.8,0.3-1.5,0.8-2.2c0.5-0.6,1.2-1,2.1-1c0.7,0,1.3,0.2,1.7,0.7s0.7,1.1,0.7,1.8c0,0.9-0.2,1.6-0.7,2.1S98.4,36.1,97.7,36.2z
		 M97.2,31.3c-0.5,0.1-1,0.4-1.3,0.9c-0.3,0.5-0.5,1.1-0.5,1.7c0,0.3,0.1,0.6,0.2,0.9c0.1,0.2,0.3,0.4,0.5,0.3
		c0.4,0,0.6-0.4,0.8-1.1C97.1,33.4,97.2,32.4,97.2,31.3z"/>
	<path class="st6" d="M104.1,33.1c-0.2,0.8-0.6,1.5-1.1,2c-0.6,0.5-1.2,1-1.9,1.3l-0.2-0.4c1-0.4,1.7-1,2.2-1.7s0.7-1.5,0.7-2.2
		v-1.9h0.6v1.9c0.1,0.5,0.3,1.1,0.6,1.6c0.3,0.6,0.8,1,1.3,1.4s0.9,0.6,1.2,0.8l-0.3,0.5c-0.8-0.4-1.4-0.9-1.9-1.4
		S104.3,33.7,104.1,33.1z"/>
	<path class="st6" d="M109.7,33.9h-0.8c-0.1,1.1-0.3,2-0.6,2.5l-0.4-0.2c0.2-0.4,0.3-0.8,0.4-1.4c0.1-0.6,0.1-1.1,0.1-1.5v-3h1.8V36
		c0,0.3-0.2,0.4-0.5,0.4h-0.6L109,36h0.4c0.2,0,0.3-0.1,0.3-0.2C109.7,35.8,109.7,33.9,109.7,33.9z M108.9,33.5h0.8v-1.3h-0.8V33
		C108.9,33.2,108.9,33.4,108.9,33.5z M108.9,31.9h0.8v-1.2h-0.8V31.9z M112.1,36.4v-4.1c-0.3,0-0.5,0.1-0.7,0.1v0.8
		c0,0.6-0.1,1.2-0.2,1.7c-0.1,0.6-0.3,1-0.5,1.4l-0.4-0.2c0.2-0.3,0.3-0.7,0.4-1.2s0.1-0.9,0.1-1.3v-3c0.4,0,1-0.1,1.7-0.2
		s1.3-0.2,1.6-0.3l0.2,0.4c-0.3,0.1-0.8,0.2-1.5,0.2s-1.2,0.1-1.5,0.2V32c0.4-0.1,1-0.2,1.5-0.3s1-0.2,1.3-0.4l0.2,0.4
		c-0.2,0.1-0.5,0.1-0.8,0.2c0,0.6,0.1,1.1,0.1,1.5c0.3-0.3,0.6-0.5,0.7-0.6l0.3,0.3c-0.2,0.2-0.6,0.5-1,0.8c0.2,0.8,0.5,1.5,0.9,2.1
		l-0.4,0.4c-0.2-0.3-0.4-0.8-0.6-1.3s-0.3-1-0.4-1.4s-0.1-1-0.2-1.6c-0.2,0-0.3,0.1-0.6,0.1v4.2H112.1z"/>
	<path class="st6" d="M118.5,35.1H118V34c0-0.1,0-0.2,0-0.3c-0.8,0.5-1.1,1-1.1,1.4c0,0.2,0.1,0.4,0.3,0.5s0.6,0.2,1.1,0.2
		c0.6,0,1.1,0,1.7-0.1v0.5c-0.6,0.1-1,0.1-1.4,0.1c-0.8,0-1.4-0.1-1.7-0.3s-0.5-0.5-0.5-0.9c0-0.3,0.1-0.7,0.4-1s0.7-0.7,1.2-1
		c-0.1-0.2-0.2-0.3-0.4-0.3c-0.3,0-0.5,0.1-0.7,0.2s-0.5,0.4-0.9,0.8l-0.5,0.5l-0.3-0.4c0.7-0.7,1.2-1.5,1.5-2.3h-1.2v-0.5h1.4
		c0.1-0.3,0.2-0.6,0.2-0.8h0.6c-0.1,0.3-0.1,0.5-0.2,0.8h2v0.5h-2.1c-0.2,0.4-0.4,0.7-0.6,1.1c0.1-0.1,0.3-0.2,0.4-0.2
		c0.2,0,0.3-0.1,0.4-0.1c0.5,0,0.7,0.2,0.8,0.5l1.5-0.8l0.2,0.5c-0.4,0.2-0.9,0.4-1.7,0.8c0,0.2,0,0.4,0,0.7L118.5,35.1L118.5,35.1z
		"/>
	<path class="st6" d="M120.9,31.7v-0.5h1.2c0-0.1,0-0.2,0-0.4s0-0.3,0-0.5h0.5c0,0.1,0,0.2,0,0.3c0,0.1,0,0.3,0,0.5h2.5v0.5h-2.6
		c0,0.1,0,0.2,0,0.3c0,0.1,0,0.2,0,0.3c0,0.1,0,0.1,0,0.2s0,0.1,0,0.2c0.2,0,0.3-0.1,0.5-0.1s0.3,0,0.5,0c0.3,0,0.5,0,0.7,0.1
		c0.2,0,0.4,0.1,0.6,0.2c0.2,0.1,0.4,0.2,0.5,0.3s0.3,0.3,0.4,0.4c0.1,0.1,0.2,0.3,0.2,0.4s0.1,0.3,0.1,0.5c0,0.3-0.1,0.6-0.2,0.8
		s-0.3,0.4-0.4,0.6c-0.2,0.2-0.4,0.3-0.7,0.4c-0.3,0.1-0.6,0.2-1,0.2l0,0l-0.1-0.5c0.4,0,0.7-0.1,0.9-0.2s0.4-0.2,0.6-0.3
		c0.1-0.1,0.2-0.3,0.3-0.5s0.1-0.4,0.1-0.6c0-0.1,0-0.3-0.1-0.4c-0.1-0.1-0.2-0.3-0.3-0.4c-0.1-0.1-0.3-0.2-0.4-0.3
		s-0.3-0.1-0.4-0.2c-0.1,0.2-0.1,0.4-0.2,0.6c-0.1,0.2-0.2,0.5-0.3,0.7c-0.1,0.2-0.2,0.5-0.4,0.7c-0.1,0.2-0.3,0.4-0.5,0.6
		c-0.2,0.2-0.4,0.3-0.6,0.4c-0.2,0.1-0.5,0.2-0.7,0.2s-0.3,0-0.5-0.1c-0.1-0.1-0.2-0.1-0.3-0.3c-0.1-0.1-0.2-0.2-0.2-0.4
		s-0.1-0.3-0.1-0.4c0-0.2,0-0.5,0.1-0.7s0.2-0.4,0.3-0.6s0.3-0.4,0.5-0.5s0.4-0.3,0.6-0.4c0-0.1,0-0.2,0-0.3s0-0.2,0-0.3
		s0-0.2,0-0.3c0-0.1,0-0.2,0-0.2S120.9,31.7,120.9,31.7z M121.2,34.9c0,0.1,0,0.2,0,0.3s0,0.2,0.1,0.2c0,0.1,0.1,0.1,0.2,0.2
		s0.2,0.1,0.3,0.1c0.1,0,0.2,0,0.3-0.1s0.2-0.1,0.3-0.2c0-0.2-0.1-0.4-0.1-0.6c0-0.2,0-0.4-0.1-0.5c0-0.2,0-0.3,0-0.5s0-0.3,0-0.5
		c-0.3,0.2-0.6,0.4-0.7,0.7C121.3,34.2,121.2,34.6,121.2,34.9z M123.6,32.9c-0.2,0-0.3,0-0.5,0s-0.3,0.1-0.5,0.1c0,0.3,0,0.7,0.1,1
		s0.1,0.7,0.1,1c0.1-0.1,0.2-0.2,0.2-0.3c0.1-0.1,0.2-0.2,0.2-0.4c0.1-0.1,0.1-0.3,0.2-0.4s0.1-0.3,0.2-0.4c0.1-0.1,0.1-0.3,0.1-0.4
		c0-0.1,0.1-0.2,0.1-0.4h-0.1c0,0,0,0-0.1,0S123.7,32.9,123.6,32.9C123.7,32.9,123.7,32.9,123.6,32.9z"/>
	<path class="st6" d="M128.7,30.4c0,0.4,0,0.7-0.1,1h1.3v0.5h-1.4c-0.2,1.4-0.7,2.6-1.5,3.6l-0.4-0.3c0.7-0.9,1.1-2,1.3-3.3h-1.1
		v-0.5h1.2c0-0.3,0.1-0.7,0.1-1L128.7,30.4z M132.2,35.3l-0.3,0.4c-0.3-0.3-0.7-0.6-1-0.7v0.3c0,0.7-0.5,1-1.4,1
		c-0.3,0-0.6-0.1-0.9-0.3c-0.2-0.2-0.4-0.4-0.4-0.7s0.1-0.6,0.4-0.8c0.2-0.2,0.6-0.3,0.9-0.3c0.3,0,0.6,0,0.8,0.1v-1.9h0.5v2.1
		C131.4,34.7,131.8,34.9,132.2,35.3z M130.4,34.8c-0.3-0.1-0.5-0.1-0.8-0.1c-0.2,0-0.4,0.1-0.6,0.2c-0.2,0.1-0.2,0.3-0.2,0.5
		c0,0.4,0.3,0.6,0.8,0.6s0.7-0.2,0.8-0.6V34.8z M132.3,32.4l-0.4,0.3c-0.4-0.6-0.9-1.1-1.6-1.7l0.3-0.4
		C131.2,31,131.8,31.6,132.3,32.4z"/>
	<path class="st6" d="M134.5,30.2c0,0.3,0,0.6,0,0.9h2.2v0.5h-2.2c0,0.8-0.1,1.5-0.3,2.4c-0.2,0.8-0.4,1.6-0.8,2.3l-0.5-0.2
		c0.3-0.6,0.5-1.3,0.7-2.2s0.3-1.6,0.3-2.2H133v-0.5h0.9c0-0.3,0-0.6,0-0.9L134.5,30.2L134.5,30.2z M138.1,36
		c-0.2,0.1-0.6,0.1-1.1,0.1c-0.4,0-0.7,0-1-0.1c-0.3,0-0.5-0.1-0.7-0.3s-0.3-0.4-0.3-0.6c0-0.3,0.1-0.7,0.4-1l0.4,0.2
		c-0.2,0.2-0.3,0.5-0.3,0.7c0,0.1,0.1,0.3,0.2,0.4s0.5,0.2,1,0.2s0.9,0,1.2-0.1L138.1,36z M137.8,32.3v0.5c-0.1,0-0.2,0-0.3,0
		c-0.5,0-1.2,0-2,0.1v-0.5c0.7-0.1,1.4-0.1,1.9-0.1C137.5,32.3,137.6,32.3,137.8,32.3z"/>
	<path class="st6" d="M141.5,36.2l-0.1-0.5c0.6-0.1,1.1-0.3,1.5-0.7c0.4-0.3,0.6-0.9,0.6-1.7c0-0.6-0.2-1.1-0.6-1.5
		c-0.4-0.4-0.8-0.6-1.4-0.6c0,1.3-0.1,2.3-0.4,3.2c-0.3,0.8-0.7,1.3-1.3,1.3c-0.4,0-0.7-0.2-0.9-0.5s-0.3-0.8-0.3-1.2
		c0-0.8,0.3-1.5,0.8-2.2c0.5-0.6,1.2-1,2.1-1c0.7,0,1.3,0.2,1.7,0.7c0.5,0.5,0.7,1.1,0.7,1.8c0,0.9-0.2,1.6-0.7,2.1
		C142.7,35.8,142.2,36.1,141.5,36.2z M141,31.3c-0.5,0.1-1,0.4-1.3,0.9c-0.3,0.5-0.5,1.1-0.5,1.7c0,0.3,0.1,0.6,0.2,0.9
		c0.1,0.2,0.3,0.4,0.5,0.3c0.3,0,0.6-0.4,0.8-1.1C140.8,33.4,140.9,32.4,141,31.3z"/>
	<path class="st6" d="M147.7,33.6h-1.6c-0.1,0.7-0.1,1.1-0.1,1.3c0,0.6,0.4,0.9,1.2,0.9c1.1,0,1.7-0.4,1.7-1.1c0-0.5-0.1-1-0.3-1.5
		l0.5-0.2c0.3,0.6,0.4,1.2,0.4,1.7c0,1-0.8,1.5-2.3,1.5c-1.1,0-1.7-0.5-1.7-1.4c0-0.3,0-0.7,0.1-1.3h-1V33h1.1
		c0-0.3,0.1-0.7,0.2-1.3h-1.1v-0.5h1.2c0-0.2,0.1-0.6,0.2-1h0.6l-0.2,1h2.1v0.5h-2.2c-0.1,0.4-0.2,0.9-0.2,1.3h1.6v0.6H147.7z"/>
	<path class="st6" d="M152.9,36.2l-0.1-0.5c0.6-0.1,1.1-0.3,1.5-0.7c0.4-0.3,0.6-0.9,0.6-1.7c0-0.6-0.2-1.1-0.6-1.5
		c-0.4-0.4-0.8-0.6-1.4-0.6c0,1.3-0.1,2.3-0.4,3.2c-0.3,0.8-0.7,1.3-1.3,1.3c-0.4,0-0.7-0.2-0.9-0.5S150,34.4,150,34
		c0-0.8,0.3-1.5,0.8-2.2c0.5-0.6,1.2-1,2.1-1c0.7,0,1.3,0.2,1.7,0.7c0.5,0.5,0.7,1.1,0.7,1.8c0,0.9-0.2,1.6-0.7,2.1
		C154.2,35.8,153.6,36.1,152.9,36.2z M152.4,31.3c-0.5,0.1-1,0.4-1.3,0.9c-0.3,0.5-0.5,1.1-0.5,1.7c0,0.3,0.1,0.6,0.2,0.9
		c0.1,0.2,0.3,0.4,0.5,0.3c0.3,0,0.6-0.4,0.8-1.1C152.3,33.4,152.4,32.4,152.4,31.3z"/>
	<path class="st6" d="M157,36l-0.5,0.1c-0.2-0.7-0.4-1.5-0.4-2.5s0.2-2.1,0.5-3.2l0.5,0.1c-0.3,1.1-0.5,2.1-0.5,3.1
		C156.7,34.5,156.8,35.3,157,36z M161,35.9c-0.4,0.1-0.8,0.1-1.2,0.1s-0.8,0-1.1-0.1s-0.6-0.2-0.7-0.4c-0.2-0.2-0.3-0.4-0.3-0.7
		c0-0.4,0.2-0.8,0.5-1.3l0.4,0.2c-0.3,0.3-0.4,0.7-0.5,1.1c0,0.2,0.1,0.3,0.3,0.4s0.4,0.2,0.6,0.2c0.2,0,0.5,0,0.9,0s0.8,0,1.1-0.1
		V35.9z M160.9,31.4c-0.3,0-0.6,0-0.9,0c-0.3,0-1,0-2.1,0.1c0-0.1,0-0.3,0-0.5c1-0.1,1.8-0.1,2.3-0.1c0.3,0,0.6,0,0.7,0V31.4z"/>
	<path class="st6" d="M168.1,32.9c-0.2,0.4-0.3,0.6-0.5,0.8c-0.3,0.4-0.7,0.6-1.1,0.6c-0.3,0-0.6-0.1-0.9-0.2
		c-0.2-0.1-0.4-0.3-0.9-0.6c-0.4-0.3-0.6-0.4-0.6-0.5c-0.2-0.1-0.4-0.2-0.7-0.2c-0.2,0-0.4,0.1-0.6,0.2c-0.2,0.1-0.3,0.3-0.4,0.5
		c-0.1,0.2-0.1,0.3-0.2,0.4l-0.4-0.2c0.2-0.4,0.3-0.6,0.5-0.8c0.3-0.4,0.7-0.6,1.1-0.6c0.3,0,0.6,0.1,1,0.3c0.3,0.2,0.5,0.4,0.8,0.5
		c0.4,0.2,0.6,0.4,0.6,0.4c0.2,0.1,0.4,0.2,0.6,0.2c0.4,0,0.7-0.3,1-0.8c0.1-0.1,0.1-0.2,0.2-0.4L168.1,32.9z"/>
</g>
<text transform="matrix(1 0 0 1 51.6839 36.583)" class="st7 st8 st9">〜エンタメ業界の人脈をあなたのものに〜</text>
<g>
	<path class="st2" d="M60.3,32.6c-0.2,0.5-0.4,0.8-0.6,1.1c-0.4,0.5-0.9,0.7-1.4,0.7c-0.4,0-0.8-0.1-1.1-0.3
		c-0.2-0.1-0.6-0.4-1.1-0.7c-0.4-0.3-0.7-0.5-0.8-0.6c-0.3-0.2-0.6-0.2-0.8-0.2c-0.2,0-0.5,0.1-0.7,0.3c-0.2,0.2-0.4,0.4-0.6,0.7
		c-0.1,0.2-0.2,0.3-0.2,0.5l-0.5-0.2c0.2-0.5,0.4-0.8,0.6-1.1c0.4-0.5,0.9-0.7,1.4-0.7c0.4,0,0.8,0.1,1.2,0.4c0.3,0.2,0.7,0.5,1,0.7
		c0.5,0.3,0.7,0.5,0.8,0.5c0.3,0.2,0.6,0.2,0.8,0.2c0.5,0,0.9-0.3,1.3-1c0.1-0.1,0.2-0.3,0.2-0.5L60.3,32.6z"/>
	<path class="st2" d="M67.6,36.5h-6.4v-0.7H64v-5h-2.2v-0.6H67v0.6h-2.2v5h2.8V36.5z"/>
	<path class="st2" d="M74.4,32.5c-0.4,0.9-0.9,1.6-1.6,2.3s-1.3,1.1-2,1.4c-0.7,0.3-1.5,0.5-2.4,0.7l-0.2-0.7c0.8-0.1,1.4-0.3,2-0.5
		s1.1-0.6,1.5-0.9c0.4-0.4,0.8-0.7,1.1-1.1c0.3-0.4,0.6-0.9,0.9-1.5L74.4,32.5z M71.6,31.4L71.1,32c-0.9-0.7-1.8-1.2-2.6-1.7
		l0.4-0.6C69.7,30.2,70.7,30.7,71.6,31.4z"/>
	<path class="st2" d="M78,29.3c-0.1,0.3-0.2,0.6-0.3,0.9h3c0,0.3,0,0.7-0.1,1.1s-0.1,0.9-0.3,1.4s-0.3,1-0.5,1.4S79.3,35,79,35.4
		c-0.3,0.4-0.7,0.7-1.1,1c-0.4,0.3-0.9,0.5-1.4,0.7l-0.2-0.6c1.2-0.4,2-1.1,2.6-2.1c0-0.1,0.1-0.1,0.1-0.2c-0.6-0.4-1.3-0.8-2-1.2
		l0.4-0.5c0.6,0.3,1.3,0.6,2,1.1c0.4-0.8,0.6-1.7,0.6-2.7h-2.4c0,0.1-0.1,0.1-0.1,0.2c-0.2,0.5-0.5,1-0.9,1.6s-0.8,1-1.2,1.3
		l-0.4-0.5c0.6-0.5,1.1-1.2,1.5-1.9c0.4-0.8,0.7-1.5,0.8-2.2L78,29.3z"/>
	<path class="st2" d="M86.9,29.5c-0.2,1.4-0.7,2.7-1.4,4c0.6,0.6,1,1.1,1.4,1.6l-0.6,0.6c-0.3-0.4-0.7-0.9-1.2-1.5
		c-0.9,1.3-2,2.2-3.3,2.7l-0.3-0.6c1.2-0.5,2.3-1.4,3.1-2.7c-0.7-0.7-1.5-1.4-2.3-2l0.4-0.5c0.8,0.6,1.6,1.2,2.2,1.9
		c0.6-1.1,1-2.3,1.2-3.5L86.9,29.5z"/>
	<path class="st2" d="M87.8,37l-0.2-0.5c1.5-0.3,2.6-0.8,3.5-1.4h-3.3v-0.5h3.8v-0.7h-3.1v-0.5h3.1v-0.8h-3.4V32h1.9l-0.5-1h-1.8
		v-0.5h1.3l-0.5-1.1l0.6-0.2l0.6,1.3h0.8V29h0.7v1.5h1.1V29h0.7v1.5H94l0.6-1.3l0.6,0.2l-0.6,1.2h1.5V31h-1.9l-0.5,1h2.1v0.5h-3.5
		v0.8h3.3v0.5h-3.3v0.7h3.9v0.5h-3.3c0.4,0.3,1,0.5,1.6,0.8c0.7,0.3,1.3,0.4,1.9,0.5L96.1,37c-1.5-0.3-2.8-0.9-3.8-1.7v1.9h-0.7
		v-1.8c-0.4,0.3-1,0.6-1.7,0.9S88.5,36.9,87.8,37z M90.4,31l0.5,1h2.2l0.5-1H90.4z"/>
	<path class="st2" d="M98,37.2l-0.3-0.4c0.4-0.2,0.8-0.5,1-0.8s0.4-0.8,0.4-1.3V34c-0.6,0.3-1.3,0.6-2.1,0.9l-0.2-0.5
		c0.7-0.2,1.3-0.5,2-0.8c0.7-0.3,1.1-0.6,1.4-0.9h-2.5v-3.4h7.1v3.4h-2.5c0.9,0.7,2.1,1.2,3.5,1.6l-0.3,0.6
		c-0.7-0.2-1.4-0.5-2.1-0.8v3.1h-0.7V34h0.7c-0.8-0.4-1.4-0.9-1.9-1.3H101c-0.5,0.5-1.1,0.9-1.8,1.3h0.6v0.8c0,0.5-0.2,1-0.5,1.4
		C99,36.7,98.6,37,98,37.2z M100.8,30.7v-0.9h-2.5v0.9H100.8z M100.8,32.2v-1h-2.5v1H100.8z M101.5,29.8v0.9h2.5v-0.9H101.5z
		 M101.5,31.2v1h2.5v-1H101.5z"/>
	<path class="st2" d="M109.8,36.8l-0.1-0.6c0.8-0.1,1.4-0.4,1.9-0.8s0.7-1.2,0.8-2.2c0-0.8-0.3-1.4-0.7-1.9c-0.5-0.5-1-0.7-1.8-0.7
		c0,1.6-0.2,3-0.5,4c-0.4,1.1-0.9,1.6-1.6,1.6c-0.5,0-0.9-0.2-1.1-0.6c-0.2-0.4-0.4-1-0.4-1.6c0-1,0.3-2,1-2.8
		c0.7-0.8,1.5-1.2,2.6-1.2c0.9,0,1.6,0.3,2.2,0.9s0.9,1.3,0.9,2.3c0,1.1-0.3,2-0.9,2.6C111.4,36.3,110.7,36.7,109.8,36.8z
		 M109.2,30.6c-0.7,0.1-1.2,0.5-1.7,1.2c-0.4,0.6-0.7,1.4-0.7,2.2c0,0.4,0.1,0.8,0.2,1.1c0.1,0.3,0.3,0.4,0.6,0.4
		c0.4,0,0.8-0.4,1.1-1.4S109.2,32,109.2,30.6z"/>
	<path class="st2" d="M117.9,32.9c-0.2,1-0.7,1.8-1.4,2.5c-0.7,0.7-1.5,1.2-2.4,1.6l-0.3-0.5c1.2-0.5,2.1-1.3,2.7-2.2
		s0.9-1.8,0.9-2.8v-2.4h0.8v2.5c0.1,0.7,0.4,1.3,0.8,2s1,1.3,1.6,1.8c0.6,0.5,1.2,0.8,1.6,1l-0.4,0.6c-1-0.5-1.8-1.1-2.5-1.8
		C118.6,34.5,118.1,33.7,117.9,32.9z"/>
	<path class="st2" d="M125,33.9h-1.1c-0.1,1.4-0.3,2.5-0.8,3.2l-0.5-0.3c0.2-0.5,0.4-1,0.5-1.8c0.1-0.7,0.2-1.4,0.2-2v-3.8h2.3v7.2
		c0,0.4-0.2,0.5-0.7,0.5h-0.7l-0.1-0.5h0.6c0.2,0,0.3-0.1,0.3-0.3V33.9z M124,33.4h1.1v-1.6h-1v1C124,33.1,124,33.3,124,33.4z
		 M124,31.4h1v-1.6h-1V31.4z M128,37.1v-5.2c-0.3,0.1-0.6,0.1-0.9,0.1v1c0,0.7-0.1,1.5-0.2,2.2s-0.3,1.3-0.6,1.8l-0.5-0.3
		c0.2-0.4,0.4-0.9,0.5-1.6c0.1-0.7,0.2-1.2,0.2-1.6v-3.9c0.5,0,1.2-0.1,2.2-0.2c0.9-0.1,1.6-0.2,2-0.3l0.3,0.5
		c-0.4,0.1-1,0.2-1.8,0.3s-1.5,0.2-1.9,0.2v1.4c0.6-0.1,1.2-0.2,2-0.4c0.7-0.2,1.3-0.3,1.7-0.5l0.3,0.5c-0.2,0.1-0.6,0.2-1,0.3
		c0,0.8,0.1,1.4,0.1,1.8c0.4-0.3,0.7-0.6,0.9-0.8l0.4,0.4c-0.3,0.3-0.7,0.6-1.2,1c0.2,1,0.6,1.9,1.1,2.7l-0.5,0.5
		c-0.3-0.4-0.5-1-0.7-1.6c-0.2-0.6-0.4-1.2-0.5-1.8s-0.2-1.2-0.2-2.1c-0.2,0-0.4,0.1-0.7,0.1v5.3H128z"/>
	<path class="st2" d="M136.2,35.4h-0.7V34c0-0.1,0-0.3,0-0.4c-1,0.7-1.4,1.3-1.4,1.8c0,0.3,0.1,0.5,0.4,0.7c0.3,0.2,0.7,0.2,1.3,0.2
		c0.7,0,1.4-0.1,2.1-0.2l0,0.7c-0.7,0.1-1.3,0.1-1.8,0.1c-1.1,0-1.8-0.1-2.2-0.4c-0.4-0.3-0.6-0.6-0.6-1.1c0-0.4,0.2-0.8,0.5-1.3
		c0.3-0.4,0.9-0.8,1.5-1.3c-0.1-0.3-0.3-0.4-0.5-0.4c-0.4,0-0.7,0.1-0.9,0.2c-0.2,0.1-0.6,0.5-1.1,1l-0.6,0.6l-0.4-0.5
		c0.9-0.9,1.6-1.9,1.9-2.9h-1.6v-0.6h1.8c0.1-0.4,0.2-0.7,0.3-1.1l0.7,0.1c-0.1,0.3-0.2,0.7-0.3,1h2.5v0.6h-2.7
		c-0.2,0.4-0.4,0.9-0.7,1.4c0.2-0.1,0.4-0.2,0.6-0.3c0.2-0.1,0.4-0.1,0.6-0.1c0.6,0,0.9,0.2,1.1,0.7l1.9-1l0.3,0.6
		c-0.5,0.2-1.2,0.5-2.1,1c0,0.2,0,0.5,0,0.8V35.4z"/>
	<path class="st2" d="M139.2,31v-0.6h1.6c0-0.1,0-0.3,0-0.4s0-0.4,0-0.6h0.7c0,0.1,0,0.2,0,0.4s0,0.4,0,0.6h3.2V31h-3.2
		c0,0.1,0,0.2,0,0.3c0,0.1,0,0.2,0,0.3c0,0.1,0,0.2,0,0.2s0,0.2,0,0.3c0.2-0.1,0.4-0.1,0.6-0.1c0.2,0,0.4,0,0.6,0
		c0.3,0,0.7,0,0.9,0.1c0.3,0.1,0.6,0.2,0.8,0.3c0.2,0.1,0.5,0.2,0.6,0.4c0.2,0.2,0.3,0.3,0.5,0.5c0.1,0.2,0.2,0.4,0.3,0.6
		c0.1,0.2,0.1,0.4,0.1,0.6c0,0.4-0.1,0.7-0.2,1c-0.1,0.3-0.3,0.6-0.6,0.8s-0.5,0.4-0.9,0.5S143.4,37,143,37l-0.1,0l-0.1-0.6
		c0.5,0,0.8-0.1,1.1-0.2c0.3-0.1,0.6-0.3,0.7-0.4c0.2-0.2,0.3-0.4,0.4-0.6s0.1-0.5,0.1-0.7c0-0.2,0-0.4-0.1-0.6s-0.2-0.4-0.4-0.5
		c-0.2-0.2-0.3-0.3-0.5-0.4s-0.4-0.2-0.6-0.2c-0.1,0.2-0.2,0.5-0.3,0.8s-0.2,0.6-0.4,0.9c-0.1,0.3-0.3,0.6-0.5,0.8
		c-0.2,0.3-0.4,0.5-0.6,0.7c-0.2,0.2-0.5,0.4-0.8,0.5c-0.3,0.1-0.6,0.2-0.9,0.2c-0.2,0-0.4,0-0.6-0.1c-0.2-0.1-0.3-0.2-0.4-0.3
		s-0.2-0.3-0.3-0.5s-0.1-0.3-0.1-0.5c0-0.3,0-0.6,0.1-0.9c0.1-0.3,0.2-0.5,0.4-0.8s0.4-0.5,0.6-0.6c0.2-0.2,0.5-0.4,0.8-0.5
		c0-0.1,0-0.3,0-0.4s0-0.2,0-0.3c0-0.1,0-0.2,0-0.4c0-0.1,0-0.2,0-0.3H139.2z M139.5,35.2c0,0.1,0,0.2,0,0.3s0.1,0.2,0.1,0.3
		c0.1,0.1,0.1,0.2,0.2,0.2c0.1,0.1,0.2,0.1,0.4,0.1c0.1,0,0.3,0,0.4-0.1c0.1-0.1,0.3-0.1,0.4-0.2c-0.1-0.3-0.1-0.5-0.1-0.8
		s-0.1-0.5-0.1-0.7s0-0.4-0.1-0.6c0-0.2,0-0.4,0-0.6c-0.4,0.2-0.7,0.5-0.9,0.9S139.5,34.7,139.5,35.2z M142.6,32.6
		c-0.2,0-0.4,0-0.6,0.1c-0.2,0-0.4,0.1-0.6,0.2c0,0.4,0,0.9,0.1,1.3c0,0.4,0.1,0.9,0.2,1.3c0.1-0.1,0.2-0.2,0.3-0.4
		c0.1-0.1,0.2-0.3,0.3-0.4s0.2-0.3,0.3-0.5c0.1-0.2,0.2-0.3,0.2-0.5s0.1-0.3,0.2-0.5s0.1-0.3,0.1-0.5c0,0-0.1,0-0.1,0
		c0,0-0.1,0-0.1,0c0,0-0.1,0-0.1,0S142.7,32.6,142.6,32.6z"/>
	<path class="st2" d="M149.1,29.4c0,0.5-0.1,0.9-0.1,1.3h1.7v0.6h-1.8c-0.3,1.8-0.9,3.3-1.9,4.6l-0.5-0.4c0.9-1.2,1.4-2.5,1.7-4.2
		h-1.4v-0.6h1.5c0.1-0.4,0.1-0.9,0.1-1.3L149.1,29.4z M153.5,35.6l-0.4,0.6c-0.4-0.4-0.9-0.7-1.3-0.9v0.4c0,0.9-0.6,1.3-1.7,1.3
		c-0.4,0-0.8-0.1-1.1-0.3c-0.3-0.2-0.5-0.5-0.5-0.9c0-0.4,0.2-0.8,0.5-1c0.3-0.3,0.7-0.4,1.2-0.4c0.4,0,0.7,0,1,0.1V32h0.7v2.6
		C152.4,34.9,153,35.2,153.5,35.6z M151.2,35c-0.3-0.1-0.7-0.2-1-0.2c-0.3,0-0.5,0.1-0.7,0.2c-0.2,0.1-0.3,0.3-0.3,0.6
		c0,0.5,0.3,0.8,1,0.8c0.6,0,0.9-0.3,1-0.8V35z M153.7,31.9l-0.6,0.4c-0.5-0.7-1.2-1.5-2-2.2l0.4-0.4
		C152.2,30.3,152.9,31,153.7,31.9z"/>
	<path class="st2" d="M156.4,29.3c0,0.3,0,0.7,0,1.2h2.8v0.6h-2.8c0,1-0.2,2-0.4,3c-0.2,1-0.5,2-1,2.9l-0.6-0.3
		c0.4-0.7,0.7-1.6,0.9-2.8c0.2-1.1,0.4-2.1,0.4-2.8h-1.1v-0.6h1.1c0-0.4,0-0.8,0-1.2H156.4z M160.9,36.6c-0.3,0.1-0.8,0.1-1.4,0.1
		c-0.5,0-0.9,0-1.3-0.1s-0.7-0.2-0.9-0.4c-0.2-0.2-0.3-0.5-0.3-0.7c0-0.4,0.2-0.8,0.5-1.2l0.5,0.3c-0.2,0.3-0.3,0.6-0.3,0.8
		c0,0.2,0.1,0.3,0.3,0.5s0.6,0.2,1.3,0.2c0.6,0,1.1,0,1.6-0.1L160.9,36.6z M160.5,31.9l0,0.6c-0.1,0-0.3,0-0.4,0
		c-0.7,0-1.5,0.1-2.5,0.2l0-0.6c0.9-0.1,1.7-0.2,2.4-0.2C160.2,31.9,160.4,31.9,160.5,31.9z"/>
	<path class="st2" d="M165.2,36.8l-0.1-0.6c0.8-0.1,1.4-0.4,1.9-0.8c0.5-0.4,0.7-1.2,0.8-2.2c0-0.8-0.3-1.4-0.7-1.9
		c-0.5-0.5-1-0.7-1.8-0.7c0,1.6-0.2,3-0.5,4c-0.4,1.1-0.9,1.6-1.6,1.6c-0.5,0-0.9-0.2-1.1-0.6c-0.2-0.4-0.4-1-0.4-1.6
		c0-1,0.3-2,1-2.8c0.7-0.8,1.5-1.2,2.6-1.2c0.9,0,1.6,0.3,2.2,0.9c0.6,0.6,0.9,1.3,0.9,2.3c0,1.1-0.3,2-0.9,2.6
		C166.9,36.3,166.1,36.7,165.2,36.8z M164.6,30.6c-0.7,0.1-1.2,0.5-1.7,1.2c-0.4,0.6-0.7,1.4-0.7,2.2c0,0.4,0.1,0.8,0.2,1.1
		c0.1,0.3,0.3,0.4,0.6,0.4c0.4,0,0.8-0.4,1.1-1.4C164.4,33.2,164.6,32,164.6,30.6z"/>
	<path class="st2" d="M173.2,33.5h-2.1c-0.1,0.8-0.2,1.4-0.2,1.7c0,0.8,0.5,1.2,1.5,1.2c1.4,0,2.2-0.4,2.2-1.3
		c0-0.7-0.1-1.3-0.4-1.9l0.6-0.2c0.4,0.7,0.5,1.5,0.5,2.2c0,1.2-1,1.9-2.9,1.9c-1.4,0-2.2-0.6-2.2-1.8c0-0.3,0-0.9,0.1-1.6h-1.3
		v-0.6h1.4c0.1-0.4,0.1-0.9,0.3-1.6h-1.4v-0.6h1.5c0-0.3,0.1-0.7,0.3-1.3l0.7,0l-0.3,1.3h2.7v0.6h-2.8c-0.1,0.6-0.2,1.1-0.3,1.6h2
		V33.5z"/>
	<path class="st2" d="M179.8,36.8l-0.1-0.6c0.8-0.1,1.4-0.4,1.9-0.8c0.5-0.4,0.7-1.2,0.8-2.2c0-0.8-0.3-1.4-0.7-1.9
		c-0.5-0.5-1-0.7-1.8-0.7c0,1.6-0.2,3-0.5,4c-0.4,1.1-0.9,1.6-1.6,1.6c-0.5,0-0.9-0.2-1.1-0.6c-0.2-0.4-0.4-1-0.4-1.6
		c0-1,0.3-2,1-2.8c0.7-0.8,1.5-1.2,2.6-1.2c0.9,0,1.6,0.3,2.2,0.9c0.6,0.6,0.9,1.3,0.9,2.3c0,1.1-0.3,2-0.9,2.6
		C181.4,36.3,180.6,36.7,179.8,36.8z M179.1,30.6c-0.7,0.1-1.2,0.5-1.7,1.2c-0.4,0.6-0.7,1.4-0.7,2.2c0,0.4,0.1,0.8,0.2,1.1
		c0.1,0.3,0.3,0.4,0.6,0.4c0.4,0,0.8-0.4,1.1-1.4C179,33.2,179.1,32,179.1,30.6z"/>
	<path class="st2" d="M184.9,36.6l-0.6,0.1c-0.3-0.9-0.5-2-0.5-3.1c0-1.3,0.2-2.6,0.6-4.1l0.7,0.1c-0.4,1.4-0.6,2.7-0.6,4
		C184.5,34.7,184.7,35.7,184.9,36.6z M190,36.5c-0.5,0.1-1,0.1-1.5,0.1c-0.5,0-1,0-1.4-0.2c-0.4-0.1-0.7-0.3-0.9-0.5
		c-0.2-0.2-0.3-0.5-0.3-0.9c0-0.5,0.2-1.1,0.7-1.6l0.5,0.3c-0.4,0.4-0.6,0.9-0.6,1.4c0,0.2,0.1,0.4,0.3,0.6c0.2,0.1,0.5,0.2,0.7,0.3
		c0.3,0,0.6,0.1,1.1,0.1c0.5,0,1,0,1.4-0.1V36.5z M189.9,30.7c-0.4,0-0.8,0-1.2,0c-0.3,0-1.2,0-2.6,0.1c0-0.1,0-0.3,0-0.6
		c1.3-0.1,2.3-0.1,2.9-0.1c0.4,0,0.7,0,0.9,0L189.9,30.7z"/>
	<path class="st2" d="M199.1,32.6c-0.2,0.5-0.4,0.8-0.6,1.1c-0.4,0.5-0.9,0.7-1.4,0.7c-0.4,0-0.8-0.1-1.1-0.3
		c-0.2-0.1-0.6-0.4-1.1-0.7c-0.4-0.3-0.7-0.5-0.8-0.6c-0.3-0.2-0.6-0.2-0.8-0.2c-0.2,0-0.5,0.1-0.7,0.3c-0.2,0.2-0.4,0.4-0.6,0.7
		c-0.1,0.2-0.2,0.3-0.2,0.5l-0.5-0.2c0.2-0.5,0.4-0.8,0.6-1.1c0.4-0.5,0.9-0.7,1.4-0.7c0.4,0,0.8,0.1,1.2,0.4c0.3,0.2,0.7,0.5,1,0.7
		c0.5,0.3,0.7,0.5,0.8,0.5c0.3,0.2,0.6,0.2,0.8,0.2c0.5,0,0.9-0.3,1.3-1c0.1-0.1,0.2-0.3,0.2-0.5L199.1,32.6z"/>
</g>
</svg>
