<svg id="グループ_708" data-name="グループ 708" xmlns="http://www.w3.org/2000/svg" width="224" height="30" viewBox="0 0 224 30">
  <ellipse id="楕円形_1" data-name="楕円形 1" cx="13.86" cy="13.665" rx="13.86" ry="13.665" transform="translate(1.336 1.335)" fill="#d7b9ff"/>
  <circle id="楕円形_2" data-name="楕円形 2" cx="5.387" cy="5.387" r="5.387" transform="translate(9.809 9.613)" fill="#f4ff2e"/>
  <path id="パス_1" data-name="パス 1" d="M172.226,370.232c-2.706-2.046-5.94-.264-5.94-.264s-1.122-4.158-4.818-4.158-4.818,4.158-4.818,4.158-3.234-1.782-5.94.264a3.741,3.741,0,0,0-1.5,3.3,15.2,15.2,0,0,0,24.507,0A3.742,3.742,0,0,0,172.226,370.232Z" transform="translate(-146.272 -349.741)" fill="#00aebd"/>
  <path id="パス_2" data-name="パス 2" d="M173.721,306.873a15.2,15.2,0,0,0-24.507,0,3.742,3.742,0,0,0,1.5,3.3c2.706,2.046,5.94.264,5.94.264s1.122,4.158,4.818,4.158,4.818-4.158,4.818-4.158,3.234,1.782,5.94-.264A3.742,3.742,0,0,0,173.721,306.873Z" transform="translate(-146.272 -300.664)" fill="#00aebd"/>
  <g id="グループ_1" data-name="グループ 1" transform="translate(5.137 17.786)">
    <path id="パス_3" data-name="パス 3" d="M160.7,394.411c.126.138.251.269.376.4a15.083,15.083,0,0,0,4.266,1.425,25.148,25.148,0,0,0-1.771-4.072C159.987,385.632,154.554,387.674,160.7,394.411Z" transform="translate(-157.915 -384.246)" fill="#fff"/>
    <path id="パス_4" data-name="パス 4" d="M190.263,372.6c-4.475,0-1.894,8.573-.6,12.2.2.008.4.013.6.013s.4-.005.6-.013C192.157,381.175,194.738,372.6,190.263,372.6Z" transform="translate(-180.205 -372.602)" fill="#fff"/>
    <path id="パス_5" data-name="パス 5" d="M209.917,392.16a25.171,25.171,0,0,0-1.77,4.072,15.089,15.089,0,0,0,4.266-1.425c.125-.128.25-.259.376-.4C218.933,387.674,213.5,385.632,209.917,392.16Z" transform="translate(-195.455 -384.246)" fill="#fff"/>
  </g>
  <g id="グループ_2" data-name="グループ 2" transform="translate(5.137)">
    <path id="パス_6" data-name="パス 6" d="M160.7,303.388c.126-.137.251-.269.376-.4a15.086,15.086,0,0,1,4.266-1.425,25.14,25.14,0,0,1-1.771,4.072C159.987,312.166,154.554,310.125,160.7,303.388Z" transform="translate(-157.915 -301.338)" fill="#fff"/>
    <path id="パス_7" data-name="パス 7" d="M190.263,312.878c-4.475,0-1.894-8.573-.6-12.2.2-.008.4-.013.6-.013s.4.005.6.013C192.157,304.306,194.738,312.878,190.263,312.878Z" transform="translate(-180.205 -300.664)" fill="#fff"/>
    <path id="パス_8" data-name="パス 8" d="M209.917,305.638a25.163,25.163,0,0,1-1.77-4.072,15.091,15.091,0,0,1,4.266,1.425c.125.128.25.259.376.4C218.933,310.125,213.5,312.166,209.917,305.638Z" transform="translate(-195.455 -301.338)" fill="#fff"/>
  </g>
  <path id="パス_9" data-name="パス 9" d="M152.78,300.664a15,15,0,1,0,15.2,15A15.1,15.1,0,0,0,152.78,300.664Zm0,28.682a13.683,13.683,0,1,1,13.86-13.682A13.787,13.787,0,0,1,152.78,329.346Z" transform="translate(-137.585 -300.664)" fill="#00aebd"/>
  <path id="パス_10" data-name="パス 10" d="M291.324,340.061h-7.637V339.6H285.3V326.982a7.461,7.461,0,0,1,2.808-6.493,12.475,12.475,0,0,1,7.675-2.431c5.2,0,7.75,2.831,7.75,2.831l-.487.277a10.068,10.068,0,0,0-6.926-2.554c-4.755,0-4.792,3.785-4.792,7.324v2.493h7.862l-.038.554h-7.824Z" transform="translate(-246.829 -313.663)" fill="#00aebd"/>
  <path id="パス_11" data-name="パス 11" d="M469.884,355.289a2.835,2.835,0,0,1-2.808,1.472h-.449c-3.219,0-4.754-1.1-4.754-3.727v-8.989c0-1.628-.15-4.165-2.583-4.165a4.493,4.493,0,0,0-4.643,4.667v11.4h1.61v.438H448.1v-.438h1.609V340.318H448.1v-.469h6.551V342.1a5.04,5.04,0,0,1,4.643-2.725c5.84,0,7.562,3.257,7.562,6.609v9.333a.954.954,0,0,0,1.048.877,1.485,1.485,0,0,0,1.348-.908Z" transform="translate(-369.763 -329.987)" fill="#00aebd"/>
  <path id="パス_12" data-name="パス 12" d="M723.186,336.58a2.845,2.845,0,0,1-2.808,1.447h-.45c-3.219,0-4.754-1.078-4.754-3.665V321.949h-2.359V321.4h2.359V316.59a15.029,15.029,0,0,0,4.979-1.756V321.4h3.931l-.038.554h-3.893v14.661a.949.949,0,0,0,1.048.862,1.485,1.485,0,0,0,1.348-.893Z" transform="translate(-567.69 -311.254)" fill="#00aebd"/>
  <path id="パス_13" data-name="パス 13" d="M780.878,356.648a.954.954,0,0,0,1.048.877,1.484,1.484,0,0,0,1.348-.908h.636a2.835,2.835,0,0,1-2.807,1.472h-.45c-3.219,0-4.53-1.252-4.717-2.725a5.038,5.038,0,0,1-4.643,2.725c-5.84,0-7.562-3.257-7.562-6.608v-9.772h-1.61v-.47h6.552v12.089c0,1.629.151,4.26,2.621,4.26a4.493,4.493,0,0,0,4.643-4.667V341.677h-1.61v-.438h6.552Z" transform="translate(-604.568 -331.378)" fill="#00aebd"/>
  <path id="パス_14" data-name="パス 14" d="M861.293,356.292h-8.162v-.47h1.609v-15.6h-1.609v-.469h6.552v4.071c.749-1.879,3.032-4.573,5.653-4.573,2.059,0,2.883.971,2.883,1.817a2.238,2.238,0,0,1-2.434,2.537c-.974,0-2.134-.6-2.134-1.41,0-.5.3-.783.3-1.159,0-.188-.187-.251-.3-.251-1.946,0-2.92,2.286-3.182,2.694h.037a8.226,8.226,0,0,0-.823,3.7v8.644h1.61Z" transform="translate(-672.652 -329.894)" fill="#00aebd"/>
  <path id="パス_15" data-name="パス 15" d="M941.68,355.289a2.835,2.835,0,0,1-2.808,1.472h-.449c-3.219,0-4.754-1.1-4.754-3.727v-8.989c0-1.628-.15-4.165-2.583-4.165a4.493,4.493,0,0,0-4.643,4.667v11.4h1.61v.438h-8.161v-.438H921.5V340.318h-1.609v-.469h6.551V342.1a5.04,5.04,0,0,1,4.643-2.725c5.84,0,7.563,3.257,7.563,6.609v9.333a.954.954,0,0,0,1.048.877,1.485,1.485,0,0,0,1.348-.908Z" transform="translate(-722.546 -329.987)" fill="#00aebd"/>
  <path id="パス_16" data-name="パス 16" d="M378.955,355.289a1.486,1.486,0,0,1-1.348.908.954.954,0,0,1-1.048-.877v-7.172c0-5.512-3.707-8.77-9.248-8.77-6.926,0-9.359,4.855-9.359,8.707,0,5.262,3.482,8.707,8.985,8.707a5.133,5.133,0,0,0,4.68-2.412c.338,1.033,1.2,2.38,4.9,2.38h.187a2.964,2.964,0,0,0,2.883-1.472Zm-10.331-1.628a4.644,4.644,0,1,1,4.644-4.644A4.644,4.644,0,0,1,368.624,353.661Z" transform="translate(-302.359 -329.987)" fill="#00aebd"/>
  <path id="パス_17" data-name="パス 17" d="M562.858,326.523c0-4.677-5.017-7.969-10.97-7.969h-.524c-7.263,0-11.044,4.123-11.044,9.446v11.97h-1.61v.461h7.525v-6.708c0-.523.038-.585.787.431l4.829,6.277h7.487v-.461h-1.385c-.3,0-.487-.092-.786-.461-.375-.462-3.183-3.785-3.857-4.677C561.1,334.709,562.858,329.631,562.858,326.523Zm-11.308,6.414a5.247,5.247,0,1,1,5.339-5.246A5.293,5.293,0,0,1,551.551,332.937Z" transform="translate(-437.519 -314.034)" fill="#00aebd"/>
  <path id="パス_18" data-name="パス 18" d="M652.139,356.134c-2.5,0-4.169-1.715-4.362-4.987a7.744,7.744,0,0,0,4.379,1.318c3.9,0,7.058-2.732,7.058-6.1,0-4.447-2.92-6.984-8.423-6.984-3.444,0-6.364,1.034-7.638,3.1a7.924,7.924,0,0,0-.974,4.165v2.6c0,5.231,3.108,7.423,9.1,7.423,4.492,0,6.252-1.441,7.525-3.946l-.6-.22C656.931,355.445,654.535,356.134,652.139,356.134Zm-1.492-12.8a2.889,2.889,0,1,1-2.888,2.889A2.889,2.889,0,0,1,650.647,343.332Z" transform="translate(-514.88 -329.987)" fill="#00aebd"/>
  <circle id="楕円形_3" data-name="楕円形 3" cx="4.644" cy="4.644" r="4.644" transform="translate(61.616 14.502)" fill="#f4ff2e"/>
  <circle id="楕円形_4" data-name="楕円形 4" cx="5.339" cy="5.339" r="5.339" transform="translate(108.691 8.313)" fill="#f4ff2e"/>
  <path id="パス_19" data-name="パス 19" d="M667.147,355.028a2.889,2.889,0,1,1-2.888,2.889A2.889,2.889,0,0,1,667.147,355.028Z" transform="translate(-531.379 -341.51)" fill="#f4ff2e"/>
  <g id="グループ_3" data-name="グループ 3" transform="translate(220.558 23.306)">
    <path id="パス_20" data-name="パス 20" d="M1013.489,394.453a1.756,1.756,0,1,1-1.729,1.751A1.725,1.725,0,0,1,1013.489,394.453Zm-.005,3.213a1.46,1.46,0,1,0-1.379-1.452A1.408,1.408,0,0,0,1013.484,397.666Zm.773-.577a1.244,1.244,0,0,1-.689.179.975.975,0,0,1-1.034-1.029,1.04,1.04,0,0,1,1.093-1.059,1.126,1.126,0,0,1,.616.154l-.079.289a1.107,1.107,0,0,0-.531-.129.677.677,0,0,0-.729.731.69.69,0,0,0,.719.731,1.092,1.092,0,0,0,.556-.139Z" transform="translate(-1011.761 -394.453)" fill="#00aebd"/>
  </g>
</svg>
