<?xml version="1.0" encoding="utf-8"?>
<!-- Generator: Adobe Illustrator 26.0.1, SVG Export Plug-In . SVG Version: 6.00 Build 0)  -->
<svg version="1.1" id="グループ_708" xmlns="http://www.w3.org/2000/svg" xmlns:xlink="http://www.w3.org/1999/xlink" x="0px"
	 y="0px" viewBox="0 0 223.7 40.3" style="enable-background:new 0 0 223.7 40.3;" xml:space="preserve">
<style type="text/css">
	.st0{fill:#D7B9FF;}
	.st1{fill:#F4FF2E;}
	.st2{fill:#00AEBD;}
	.st3{fill:#FFFFFF;}
	.st4{display:none;fill:none;stroke:#00AEBD;stroke-miterlimit:10;}
	.st5{display:none;}
	.st6{display:inline;fill:#00AEBD;}
	.st7{display:none;fill:#00AEBD;enable-background:new    ;}
	.st8{font-family:'MeiryoUI';}
	.st9{font-size:9.1973px;}
</style>
<ellipse id="楕円形_1" class="st0" cx="14.8" cy="15.1" rx="13.9" ry="13.7"/>
<circle id="楕円形_2" class="st1" cx="14.8" cy="15.1" r="5.4"/>
<path id="パス_1" class="st2" d="M25.6,20.6c-2.7-2-5.9-0.3-5.9-0.3s-1.1-4.2-4.8-4.2s-4.8,4.2-4.8,4.2s-3.2-1.8-5.9,0.3
	c-1,0.8-1.6,2-1.5,3.3c5,6.8,14.5,8.2,21.2,3.3c1.2-0.9,2.3-2,3.3-3.3C27.1,22.6,26.6,21.3,25.6,20.6z"/>
<path id="パス_2" class="st2" d="M27,6.3C22.1-0.5,12.6-2,5.8,3C4.6,3.9,3.5,5,2.5,6.3C2.4,7.6,3,8.8,4,9.6c2.7,2,5.9,0.3,5.9,0.3
	s1.1,4.2,4.8,4.2s4.9-4.3,4.9-4.3s3.2,1.8,5.9-0.3C26.6,8.8,27.2,7.6,27,6.3z"/>
<g id="グループ_1" transform="translate(5.137 17.786)">
	<path id="パス_3" class="st3" d="M2.4,10.2c0.1,0.1,0.3,0.3,0.4,0.4c1.3,0.7,2.8,1.2,4.3,1.4C6.6,10.6,6,9.3,5.3,8
		C1.7,1.4-3.8,3.5,2.4,10.2z"/>
	<path id="パス_4" class="st3" d="M9.7,0.1c-4.5,0-1.9,8.6-0.6,12.2c0.2,0,0.4,0,0.6,0s0.4,0,0.6,0C11.6,8.6,14.1,0.1,9.7,0.1z"/>
	<path id="パス_5" class="st3" d="M14.1,8c-0.7,1.3-1.3,2.7-1.8,4.1c1.5-0.3,2.9-0.7,4.3-1.4c0.1-0.1,0.2-0.3,0.4-0.4
		C23.1,3.5,17.6,1.4,14.1,8z"/>
</g>
<g id="グループ_2" transform="translate(5.137)">
	<path id="パス_6" class="st3" d="M2.4,2.1C2.5,2,2.6,1.8,2.8,1.7C4.1,1,5.5,0.5,7,0.3C6.6,1.7,6,3.1,5.3,4.4
		C1.7,10.9-3.8,8.8,2.4,2.1z"/>
	<path id="パス_7" class="st3" d="M9.7,12.3c-4.5,0-1.9-8.6-0.6-12.2c0.2,0,0.4,0,0.6,0s0.4,0,0.6,0C11.6,3.7,14.1,12.3,9.7,12.3z
		"/>
	<path id="パス_8" class="st3" d="M14.1,4.4c-0.7-1.3-1.3-2.7-1.8-4.1c1.5,0.2,2.9,0.7,4.3,1.4C16.7,1.8,16.8,2,17,2.1
		C23.1,8.8,17.6,10.9,14.1,4.4z"/>
</g>
<path id="パス_9" class="st2" d="M14.8,0.1C6.5,0.2-0.1,7,0,15.3s6.9,14.9,15.2,14.8C23.4,30,30,23.3,30,15.1
	C29.9,6.7,23.1,0,14.8,0.1L14.8,0.1z M14.8,28.7C7.2,28.6,1.2,22.4,1.3,14.9C1.4,7.3,7.6,1.3,15.1,1.4s13.6,6.2,13.6,13.7
	C28.6,22.7,22.4,28.8,14.8,28.7z"/>
<path id="パス_10" class="st2" d="M44.1,26.5h-7.6V26h1.6V13.4c-0.2-2.5,0.8-4.9,2.8-6.5c2.2-1.6,4.9-2.5,7.7-2.4
	c5.2,0,7.8,2.8,7.8,2.8l-0.5,0.3c-2-1.7-4.5-2.6-7-2.6c-4.8,0-4.8,3.8-4.8,7.3v2.5H52v0.6h-7.8L44.1,26.5z"/>
<path id="パス_11" class="st2" d="M99.7,25.4c-0.5,1-1.7,1.6-2.8,1.5h-0.4c-3.2,0-4.8-1.1-4.8-3.7v-9c0-1.6-0.1-4.2-2.6-4.2
	c-2.5-0.1-4.6,1.9-4.6,4.3c0,0.1,0,0.2,0,0.3V26h1.6v0.4h-8.2V26h1.6V10.4h-1.6V9.9h6.6v2.3c0.9-1.7,2.7-2.8,4.6-2.7
	c5.8,0,7.6,3.3,7.6,6.6v9.3c0,0.5,0.5,0.9,1,0.9l0,0c0.6,0,1.1-0.4,1.3-0.9L99.7,25.4z"/>
<path id="パス_12" class="st2" d="M155.1,25.4c-0.6,1-1.7,1.6-2.8,1.4h-0.5c-3.2,0-4.8-1.1-4.8-3.7V10.8h-2.4v-0.5h2.4V5.4
	c1.8-0.3,3.4-0.9,5-1.8v6.6h3.9v0.6H152v14.7c0,0.5,0.5,0.9,1,0.9l0,0c0.6,0,1.1-0.4,1.3-0.9L155.1,25.4z"/>
<path id="パス_13" class="st2" d="M175.9,25.3c0,0.5,0.5,0.9,1,0.9l0,0c0.6,0,1.1-0.4,1.3-0.9h0.6c-0.5,1-1.7,1.6-2.8,1.5h-0.5
	c-3.2,0-4.5-1.3-4.7-2.7c-0.9,1.7-2.7,2.8-4.6,2.7c-5.8,0-7.6-3.3-7.6-6.6v-9.8H157V9.9h6.6V22c0,1.6,0.2,4.3,2.6,4.3
	c2.5,0.1,4.6-1.9,4.6-4.3c0-0.1,0-0.2,0-0.3V10.4h-1.6V9.9h6.6L175.9,25.3z"/>
<path id="パス_14" class="st2" d="M188.2,26.5H180V26h1.6V10.4H180V9.9h6.6V14c0.7-1.9,3-4.6,5.7-4.6c2.1,0,2.9,1,2.9,1.8
	c0.2,1.2-0.7,2.4-1.9,2.5c-0.2,0-0.4,0-0.5,0c-1,0-2.1-0.6-2.1-1.4c0-0.5,0.3-0.8,0.3-1.2c0-0.2-0.2-0.3-0.3-0.3
	c-1.9,0-2.9,2.3-3.2,2.7l0,0c-0.6,1.2-0.8,2.4-0.8,3.7V26h1.6v0.5H188.2z"/>
<path id="パス_15" class="st2" d="M218.7,25.4c-0.5,1-1.7,1.6-2.8,1.5h-0.4c-3.2,0-4.8-1.1-4.8-3.7v-9c0-1.6-0.2-4.2-2.6-4.2
	c-2.5-0.1-4.6,1.9-4.6,4.3c0,0.1,0,0.2,0,0.3V26h1.6v0.4h-8.2V26h1.6V10.4h-1.6V9.9h6.6v2.3c0.9-1.7,2.7-2.8,4.6-2.7
	c5.8,0,7.6,3.3,7.6,6.6v9.3c0,0.5,0.5,0.9,1,0.9l0,0c0.6,0,1.1-0.4,1.3-0.9L218.7,25.4z"/>
<path id="パス_16" class="st2" d="M76.2,25.4c-0.2,0.5-0.8,0.9-1.3,0.9c-0.5,0.1-1-0.3-1-0.9l0,0v-7.2c0-5.5-3.7-8.8-9.2-8.8
	c-6.9,0-9.4,4.9-9.4,8.7c0,5.3,3.5,8.7,9,8.7c1.9,0.1,3.7-0.8,4.7-2.4c0.3,1,1.2,2.4,4.9,2.4h0.2c1.2,0.1,2.3-0.5,2.9-1.5L76.2,25.4
	z M65.9,23.7c-2.6,0-4.6-2.1-4.6-4.6s2.1-4.6,4.6-4.6c2.6,0,4.6,2.1,4.6,4.6C70.5,21.7,68.4,23.7,65.9,23.7L65.9,23.7z"/>
<path id="パス_17" class="st2" d="M124.9,12.5c0-4.7-5-8-11-8h-0.5c-7.3,0-11,4.1-11,9.4v12h-1.6v0.5h7.5v-6.7
	c0-0.5,0-0.6,0.8,0.4l4.8,6.3h7.5V26H120c-0.3,0-0.5-0.1-0.8-0.5c-0.4-0.5-3.2-3.8-3.9-4.7C123.2,20.7,124.9,15.7,124.9,12.5z
	 M113.6,19c-2.9-0.1-5.2-2.4-5.2-5.3c0.1-2.9,2.4-5.2,5.3-5.2c2.9,0.1,5.2,2.4,5.2,5.2C118.9,16.6,116.6,19,113.6,19L113.6,19z"/>
<path id="パス_18" class="st2" d="M136.9,26.2c-2.5,0-4.2-1.7-4.4-5c1.3,0.9,2.8,1.3,4.4,1.3c3.9,0,7.1-2.7,7.1-6.1
	c0-4.4-2.9-7-8.4-7c-3.4,0-6.4,1-7.6,3.1c-0.7,1.3-1,2.7-1,4.2v2.6c0,5.2,3.1,7.4,9.1,7.4c4.5,0,6.3-1.4,7.5-3.9l-0.6-0.2
	C141.7,25.5,139.3,26.2,136.9,26.2z M135.4,13.4c1.6,0,2.9,1.3,2.9,2.9s-1.3,2.9-2.9,2.9c-1.6,0-2.9-1.3-2.9-2.9l0,0
	C132.5,14.7,133.8,13.4,135.4,13.4L135.4,13.4L135.4,13.4z"/>
<circle id="楕円形_3" class="st1" cx="65.9" cy="19.2" r="4.6"/>
<circle id="楕円形_4" class="st1" cx="113.6" cy="13.7" r="5.3"/>
<path id="パス_19" class="st1" d="M135.4,13.6c1.6,0,2.9,1.3,2.9,2.9s-1.3,2.9-2.9,2.9c-1.6,0-2.9-1.3-2.9-2.9l0,0
	C132.5,14.9,133.8,13.6,135.4,13.6z"/>
<g id="グループ_3" transform="translate(220.558 23.306)">
	<path id="パス_20" class="st2" d="M1.3,0.1c1,0,1.8,0.8,1.8,1.7S2.4,3.6,1.4,3.6s-1.8-0.8-1.8-1.8l0,0C-0.4,0.9,0.3,0.1,1.3,0.1
		L1.3,0.1z M1.3,3.3c0.8,0,1.5-0.6,1.5-1.4S2.2,0.4,1.4,0.4S-0.1,1-0.1,1.8v0.1C-0.1,2.6,0.5,3.2,1.3,3.3L1.3,3.3L1.3,3.3z M2.1,2.7
		C1.9,2.8,1.6,2.9,1.4,2.9c-0.5,0-1-0.4-1-0.9V1.9c0-0.6,0.4-1,1-1.1c0,0,0,0,0.1,0c0.2,0,0.4,0,0.6,0.2L2,1.2
		C1.8,1.1,1.7,1.1,1.5,1.1c-0.4,0-0.7,0.2-0.7,0.6v0.1c0,0.4,0.3,0.7,0.6,0.7c0,0,0,0,0.1,0c0.2,0,0.4,0,0.6-0.1V2.7z"/>
</g>
<rect x="-0.4" y="46" class="st4" width="224.1" height="16"/>
<g class="st5">
	<path class="st6" d="M58.3,32.9c-0.2,0.4-0.3,0.6-0.5,0.8c-0.3,0.4-0.7,0.6-1.1,0.6c-0.3,0-0.6-0.1-0.9-0.2
		c-0.2-0.1-0.4-0.3-0.9-0.6c-0.4-0.3-0.6-0.4-0.6-0.5c-0.2-0.1-0.4-0.2-0.7-0.2c-0.2,0-0.4,0.1-0.6,0.2c-0.2,0.1-0.3,0.3-0.4,0.5
		c-0.1,0.2-0.1,0.3-0.2,0.4L52,33.7c0.2-0.4,0.3-0.6,0.5-0.8c0.3-0.4,0.7-0.6,1.1-0.6c0.3,0,0.6,0.1,1,0.3c0.3,0.2,0.5,0.4,0.8,0.5
		c0.4,0.2,0.6,0.4,0.6,0.4c0.2,0.1,0.4,0.2,0.6,0.2c0.4,0,0.7-0.3,1-0.8c0.1-0.1,0.1-0.2,0.2-0.4L58.3,32.9z"/>
	<path class="st6" d="M64,36h-5.1v-0.5h2.2v-4h-1.8V31h4.1v0.5h-1.8v4h2.2V36H64z"/>
	<path class="st6" d="M69.5,32.8c-0.3,0.7-0.7,1.3-1.2,1.8s-1,0.9-1.6,1.1c-0.5,0.2-1.2,0.4-1.9,0.5l-0.2-0.5
		c0.6-0.1,1.1-0.2,1.6-0.4s0.9-0.5,1.2-0.7c0.3-0.3,0.6-0.6,0.8-0.9c0.2-0.3,0.5-0.7,0.7-1.2L69.5,32.8z M67.2,31.9l-0.4,0.5
		c-0.7-0.5-1.4-1-2.1-1.3l0.3-0.4C65.7,31,66.5,31.4,67.2,31.9z"/>
	<path class="st6" d="M72.2,30.3c-0.1,0.2-0.1,0.5-0.2,0.7h2.4c0,0.2,0,0.5-0.1,0.9c-0.1,0.4-0.1,0.7-0.2,1.1s-0.2,0.8-0.4,1.1
		s-0.4,0.7-0.7,1c-0.3,0.3-0.6,0.6-0.9,0.8s-0.7,0.4-1.1,0.5l-0.2-0.5c0.9-0.3,1.6-0.9,2.1-1.6l0.1-0.1c-0.5-0.3-1-0.7-1.6-0.9
		l0.3-0.4c0.5,0.2,1,0.5,1.6,0.8c0.3-0.6,0.4-1.3,0.5-2.2h-1.9c0,0.1-0.1,0.1-0.1,0.2c-0.2,0.4-0.4,0.8-0.7,1.2
		c-0.3,0.4-0.6,0.8-0.9,1l-0.3-0.4c0.4-0.4,0.8-0.9,1.1-1.5c0.3-0.6,0.5-1.2,0.7-1.7L72.2,30.3z"/>
	<path class="st6" d="M79.3,30.4c-0.1,1.1-0.5,2.2-1.1,3.1c0.4,0.4,0.8,0.9,1.1,1.2l-0.5,0.4c-0.2-0.3-0.5-0.7-1-1.1
		c-0.7,1-1.6,1.8-2.6,2.2L75,35.7c1-0.4,1.8-1.1,2.5-2.1C77,33,76.4,32.5,75.7,32l0.3-0.4c0.6,0.5,1.2,1,1.8,1.5
		c0.5-0.9,0.8-1.8,0.9-2.8L79.3,30.4z"/>
	<path class="st6" d="M80,36.3l-0.1-0.4c1.2-0.3,2.1-0.6,2.7-1.1H80v-0.4h3v-0.6h-2.5v-0.4H83v-0.6h-2.7v-0.4h1.5l-0.4-0.8H80v-0.4
		h1.1l-0.4-0.9l0.5-0.1l0.5,1h0.6V30h0.5v1.2h0.9V30h0.5v1.2h0.7l0.5-1l0.5,0.1l-0.5,0.9h1.2v0.4h-1.5l-0.4,0.8h1.6v0.4h-2.8v0.6
		h2.6v0.4h-2.6v0.6h3.1v0.4H84c0.3,0.2,0.8,0.4,1.3,0.6c0.5,0.2,1,0.3,1.5,0.4l-0.2,0.5c-1.2-0.3-2.2-0.7-3-1.3v1.5h-0.5v-1.4
		c-0.3,0.3-0.8,0.5-1.4,0.7C81.1,36.1,80.5,36.2,80,36.3z M82,31.6l0.4,0.8h1.8l0.4-0.8C84.6,31.6,82,31.6,82,31.6z"/>
	<path class="st6" d="M88,36.5l-0.2-0.3c0.3-0.2,0.6-0.4,0.8-0.6c0.2-0.3,0.3-0.6,0.3-1V34c-0.5,0.2-1,0.5-1.7,0.7L87,34.3
		c0.5-0.2,1.1-0.4,1.6-0.6c0.5-0.3,0.9-0.5,1.1-0.7h-2v-2.7h5.6V33h-1.9c0.7,0.6,1.6,1,2.8,1.2l-0.3,0.5c-0.6-0.2-1.1-0.4-1.6-0.6
		v2.4h-0.7V34h0.5c-0.6-0.3-1.1-0.7-1.5-1h-0.3c-0.4,0.4-0.8,0.7-1.4,1h0.5v0.6c0,0.4-0.1,0.8-0.4,1.1S88.5,36.3,88,36.5z
		 M90.2,31.4v-0.7h-2v0.7H90.2z M90.2,32.6v-0.8h-2v0.8H90.2z M90.8,30.7v0.7h2v-0.7H90.8z M90.8,31.8v0.8h2v-0.8H90.8z"/>
	<path class="st6" d="M97.3,36.2l-0.1-0.5c0.6-0.1,1.1-0.3,1.5-0.7c0.4-0.3,0.6-0.9,0.6-1.7c0-0.6-0.2-1.1-0.6-1.5s-0.8-0.6-1.4-0.6
		c0,1.3-0.1,2.3-0.4,3.2c-0.3,0.8-0.7,1.3-1.3,1.3c-0.4,0-0.7-0.2-0.9-0.5c-0.2-0.3-0.3-0.8-0.3-1.2c0-0.8,0.3-1.5,0.8-2.2
		c0.5-0.6,1.2-1,2.1-1c0.7,0,1.3,0.2,1.7,0.7s0.7,1.1,0.7,1.8c0,0.9-0.2,1.6-0.7,2.1S98,36.1,97.3,36.2z M96.8,31.3
		c-0.5,0.1-1,0.4-1.3,0.9S95,33.3,95,33.9c0,0.3,0.1,0.6,0.2,0.9c0.1,0.2,0.3,0.4,0.5,0.3c0.4,0,0.6-0.4,0.8-1.1
		C96.7,33.4,96.8,32.4,96.8,31.3z"/>
	<path class="st6" d="M103.7,33.1c-0.2,0.8-0.6,1.5-1.1,2c-0.6,0.5-1.2,1-1.9,1.3l-0.2-0.4c1-0.4,1.7-1,2.2-1.7s0.7-1.5,0.7-2.2
		v-1.9h0.6v1.9c0.1,0.5,0.3,1.1,0.6,1.6c0.3,0.6,0.8,1,1.3,1.4s0.9,0.6,1.2,0.8l-0.3,0.5c-0.8-0.4-1.4-0.9-1.9-1.4
		S103.9,33.7,103.7,33.1z"/>
	<path class="st6" d="M109.3,33.9h-0.8c-0.1,1.1-0.3,2-0.6,2.5l-0.4-0.2c0.2-0.4,0.3-0.8,0.4-1.4c0.1-0.6,0.1-1.1,0.1-1.5v-3h1.8V36
		c0,0.3-0.2,0.4-0.5,0.4h-0.6l-0.1-0.4h0.4c0.2,0,0.3-0.1,0.3-0.2C109.3,35.8,109.3,33.9,109.3,33.9z M108.5,33.5h0.8v-1.3h-0.8V33
		C108.5,33.2,108.5,33.4,108.5,33.5z M108.5,31.9h0.8v-1.2h-0.8V31.9z M111.7,36.4v-4.1c-0.3,0-0.5,0.1-0.7,0.1v0.8
		c0,0.6-0.1,1.2-0.2,1.7c-0.1,0.6-0.3,1-0.5,1.4l-0.4-0.2c0.2-0.3,0.3-0.7,0.4-1.2s0.1-0.9,0.1-1.3v-3c0.4,0,1-0.1,1.7-0.2
		s1.3-0.2,1.6-0.3l0.2,0.4c-0.3,0.1-0.8,0.2-1.5,0.2s-1.2,0.1-1.5,0.2V32c0.4-0.1,1-0.2,1.5-0.3s1-0.2,1.3-0.4l0.2,0.4
		c-0.2,0.1-0.5,0.1-0.8,0.2c0,0.6,0.1,1.1,0.1,1.5c0.3-0.3,0.6-0.5,0.7-0.6l0.3,0.3c-0.2,0.2-0.6,0.5-1,0.8c0.2,0.8,0.5,1.5,0.9,2.1
		l-0.4,0.4c-0.2-0.3-0.4-0.8-0.6-1.3s-0.3-1-0.4-1.4s-0.1-1-0.2-1.6c-0.2,0-0.3,0.1-0.6,0.1v4.2H111.7z"/>
	<path class="st6" d="M118.1,35.1h-0.5V34c0-0.1,0-0.2,0-0.3c-0.8,0.5-1.1,1-1.1,1.4c0,0.2,0.1,0.4,0.3,0.5s0.6,0.2,1.1,0.2
		c0.6,0,1.1,0,1.7-0.1v0.5c-0.6,0.1-1,0.1-1.4,0.1c-0.8,0-1.4-0.1-1.7-0.3s-0.5-0.5-0.5-0.9c0-0.3,0.1-0.7,0.4-1s0.7-0.7,1.2-1
		c-0.1-0.2-0.2-0.3-0.4-0.3c-0.3,0-0.5,0.1-0.7,0.2s-0.5,0.4-0.9,0.8l-0.5,0.5l-0.3-0.4c0.7-0.7,1.2-1.5,1.5-2.3h-1.2v-0.5h1.4
		c0.1-0.3,0.2-0.6,0.2-0.8h0.6c-0.1,0.3-0.1,0.5-0.2,0.8h2v0.5H117c-0.2,0.4-0.4,0.7-0.6,1.1c0.1-0.1,0.3-0.2,0.4-0.2
		c0.2,0,0.3-0.1,0.4-0.1c0.5,0,0.7,0.2,0.8,0.5l1.5-0.8l0.2,0.5c-0.4,0.2-0.9,0.4-1.7,0.8c0,0.2,0,0.4,0,0.7L118.1,35.1L118.1,35.1z
		"/>
	<path class="st6" d="M120.5,31.7v-0.5h1.2c0-0.1,0-0.2,0-0.4s0-0.3,0-0.5h0.5c0,0.1,0,0.2,0,0.3c0,0.1,0,0.3,0,0.5h2.5v0.5h-2.6
		c0,0.1,0,0.2,0,0.3c0,0.1,0,0.2,0,0.3c0,0.1,0,0.1,0,0.2s0,0.1,0,0.2c0.2,0,0.3-0.1,0.5-0.1s0.3,0,0.5,0c0.3,0,0.5,0,0.7,0.1
		c0.2,0,0.4,0.1,0.6,0.2c0.2,0.1,0.4,0.2,0.5,0.3s0.3,0.3,0.4,0.4c0.1,0.1,0.2,0.3,0.2,0.4s0.1,0.3,0.1,0.5c0,0.3-0.1,0.6-0.2,0.8
		s-0.3,0.4-0.4,0.6c-0.2,0.2-0.4,0.3-0.7,0.4c-0.3,0.1-0.6,0.2-1,0.2l0,0l-0.1-0.5c0.4,0,0.7-0.1,0.9-0.2s0.4-0.2,0.6-0.3
		c0.1-0.1,0.2-0.3,0.3-0.5s0.1-0.4,0.1-0.6c0-0.1,0-0.3-0.1-0.4c-0.1-0.1-0.2-0.3-0.3-0.4c-0.1-0.1-0.3-0.2-0.4-0.3
		s-0.3-0.1-0.4-0.2c-0.1,0.2-0.1,0.4-0.2,0.6c-0.1,0.2-0.2,0.5-0.3,0.7c-0.1,0.2-0.2,0.5-0.4,0.7c-0.1,0.2-0.3,0.4-0.5,0.6
		c-0.2,0.2-0.4,0.3-0.6,0.4c-0.2,0.1-0.5,0.2-0.7,0.2s-0.3,0-0.5-0.1c-0.1-0.1-0.2-0.1-0.3-0.3c-0.1-0.1-0.2-0.2-0.2-0.4
		s-0.1-0.3-0.1-0.4c0-0.2,0-0.5,0.1-0.7s0.2-0.4,0.3-0.6s0.3-0.4,0.5-0.5s0.4-0.3,0.6-0.4c0-0.1,0-0.2,0-0.3s0-0.2,0-0.3
		s0-0.2,0-0.3c0-0.1,0-0.2,0-0.2L120.5,31.7z M120.8,34.9c0,0.1,0,0.2,0,0.3s0,0.2,0.1,0.2c0,0.1,0.1,0.1,0.2,0.2s0.2,0.1,0.3,0.1
		c0.1,0,0.2,0,0.3-0.1s0.2-0.1,0.3-0.2c0-0.2-0.1-0.4-0.1-0.6c0-0.2,0-0.4-0.1-0.5c0-0.2,0-0.3,0-0.5s0-0.3,0-0.5
		c-0.3,0.2-0.6,0.4-0.7,0.7C120.9,34.2,120.8,34.6,120.8,34.9z M123.2,32.9c-0.2,0-0.3,0-0.5,0s-0.3,0.1-0.5,0.1c0,0.3,0,0.7,0.1,1
		s0.1,0.7,0.1,1c0.1-0.1,0.2-0.2,0.2-0.3c0.1-0.1,0.2-0.2,0.2-0.4c0.1-0.1,0.1-0.3,0.2-0.4s0.1-0.3,0.2-0.4c0.1-0.1,0.1-0.3,0.1-0.4
		c0-0.1,0.1-0.2,0.1-0.4h-0.1c0,0,0,0-0.1,0S123.3,32.9,123.2,32.9C123.3,32.9,123.3,32.9,123.2,32.9z"/>
	<path class="st6" d="M128.3,30.4c0,0.4,0,0.7-0.1,1h1.3v0.5h-1.4c-0.2,1.4-0.7,2.6-1.5,3.6l-0.4-0.3c0.7-0.9,1.1-2,1.3-3.3h-1.1
		v-0.5h1.2c0-0.3,0.1-0.7,0.1-1L128.3,30.4z M131.8,35.3l-0.3,0.4c-0.3-0.3-0.7-0.6-1-0.7v0.3c0,0.7-0.5,1-1.4,1
		c-0.3,0-0.6-0.1-0.9-0.3c-0.2-0.2-0.4-0.4-0.4-0.7s0.1-0.6,0.4-0.8c0.2-0.2,0.6-0.3,0.9-0.3c0.3,0,0.6,0,0.8,0.1v-1.9h0.5v2.1
		C131,34.7,131.4,34.9,131.8,35.3z M130,34.8c-0.3-0.1-0.5-0.1-0.8-0.1c-0.2,0-0.4,0.1-0.6,0.2c-0.2,0.1-0.2,0.3-0.2,0.5
		c0,0.4,0.3,0.6,0.8,0.6s0.7-0.2,0.8-0.6V34.8z M131.9,32.4l-0.4,0.3c-0.4-0.6-0.9-1.1-1.6-1.7l0.3-0.4
		C130.8,31,131.4,31.6,131.9,32.4z"/>
	<path class="st6" d="M134.1,30.2c0,0.3,0,0.6,0,0.9h2.2v0.5h-2.2c0,0.8-0.1,1.5-0.3,2.4c-0.2,0.8-0.4,1.6-0.8,2.3l-0.5-0.2
		c0.3-0.6,0.5-1.3,0.7-2.2s0.3-1.6,0.3-2.2h-0.9v-0.5h0.9c0-0.3,0-0.6,0-0.9L134.1,30.2L134.1,30.2z M137.7,36
		c-0.2,0.1-0.6,0.1-1.1,0.1c-0.4,0-0.7,0-1-0.1c-0.3,0-0.5-0.1-0.7-0.3s-0.3-0.4-0.3-0.6c0-0.3,0.1-0.7,0.4-1l0.4,0.2
		c-0.2,0.2-0.3,0.5-0.3,0.7c0,0.1,0.1,0.3,0.2,0.4s0.5,0.2,1,0.2s0.9,0,1.2-0.1L137.7,36z M137.4,32.3v0.5c-0.1,0-0.2,0-0.3,0
		c-0.5,0-1.2,0-2,0.1v-0.5c0.7-0.1,1.4-0.1,1.9-0.1C137.1,32.3,137.2,32.3,137.4,32.3z"/>
	<path class="st6" d="M141.1,36.2l-0.1-0.5c0.6-0.1,1.1-0.3,1.5-0.7c0.4-0.3,0.6-0.9,0.6-1.7c0-0.6-0.2-1.1-0.6-1.5
		c-0.4-0.4-0.8-0.6-1.4-0.6c0,1.3-0.1,2.3-0.4,3.2c-0.3,0.8-0.7,1.3-1.3,1.3c-0.4,0-0.7-0.2-0.9-0.5s-0.3-0.8-0.3-1.2
		c0-0.8,0.3-1.5,0.8-2.2c0.5-0.6,1.2-1,2.1-1c0.7,0,1.3,0.2,1.7,0.7c0.5,0.5,0.7,1.1,0.7,1.8c0,0.9-0.2,1.6-0.7,2.1
		C142.3,35.8,141.8,36.1,141.1,36.2z M140.6,31.3c-0.5,0.1-1,0.4-1.3,0.9s-0.5,1.1-0.5,1.7c0,0.3,0.1,0.6,0.2,0.9
		c0.1,0.2,0.3,0.4,0.5,0.3c0.3,0,0.6-0.4,0.8-1.1C140.4,33.4,140.5,32.4,140.6,31.3z"/>
	<path class="st6" d="M147.3,33.6h-1.6c-0.1,0.7-0.1,1.1-0.1,1.3c0,0.6,0.4,0.9,1.2,0.9c1.1,0,1.7-0.4,1.7-1.1c0-0.5-0.1-1-0.3-1.5
		l0.5-0.2c0.3,0.6,0.4,1.2,0.4,1.7c0,1-0.8,1.5-2.3,1.5c-1.1,0-1.7-0.5-1.7-1.4c0-0.3,0-0.7,0.1-1.3h-1V33h1.1
		c0-0.3,0.1-0.7,0.2-1.3h-1.1v-0.5h1.2c0-0.2,0.1-0.6,0.2-1h0.6l-0.2,1h2.1v0.5h-2.2c-0.1,0.4-0.2,0.9-0.2,1.3h1.6v0.6H147.3z"/>
	<path class="st6" d="M152.5,36.2l-0.1-0.5c0.6-0.1,1.1-0.3,1.5-0.7c0.4-0.3,0.6-0.9,0.6-1.7c0-0.6-0.2-1.1-0.6-1.5
		c-0.4-0.4-0.8-0.6-1.4-0.6c0,1.3-0.1,2.3-0.4,3.2c-0.3,0.8-0.7,1.3-1.3,1.3c-0.4,0-0.7-0.2-0.9-0.5s-0.3-0.8-0.3-1.2
		c0-0.8,0.3-1.5,0.8-2.2c0.5-0.6,1.2-1,2.1-1c0.7,0,1.3,0.2,1.7,0.7c0.5,0.5,0.7,1.1,0.7,1.8c0,0.9-0.2,1.6-0.7,2.1
		C153.8,35.8,153.2,36.1,152.5,36.2z M152,31.3c-0.5,0.1-1,0.4-1.3,0.9s-0.5,1.1-0.5,1.7c0,0.3,0.1,0.6,0.2,0.9
		c0.1,0.2,0.3,0.4,0.5,0.3c0.3,0,0.6-0.4,0.8-1.1C151.9,33.4,152,32.4,152,31.3z"/>
	<path class="st6" d="M156.6,36l-0.5,0.1c-0.2-0.7-0.4-1.5-0.4-2.5s0.2-2.1,0.5-3.2l0.5,0.1c-0.3,1.1-0.5,2.1-0.5,3.1
		C156.3,34.5,156.4,35.3,156.6,36z M160.6,35.9c-0.4,0.1-0.8,0.1-1.2,0.1s-0.8,0-1.1-0.1s-0.6-0.2-0.7-0.4c-0.2-0.2-0.3-0.4-0.3-0.7
		c0-0.4,0.2-0.8,0.5-1.3l0.4,0.2c-0.3,0.3-0.4,0.7-0.5,1.1c0,0.2,0.1,0.3,0.3,0.4s0.4,0.2,0.6,0.2c0.2,0,0.5,0,0.9,0s0.8,0,1.1-0.1
		V35.9z M160.5,31.4c-0.3,0-0.6,0-0.9,0c-0.3,0-1,0-2.1,0.1c0-0.1,0-0.3,0-0.5c1-0.1,1.8-0.1,2.3-0.1c0.3,0,0.6,0,0.7,0V31.4z"/>
	<path class="st6" d="M167.7,32.9c-0.2,0.4-0.3,0.6-0.5,0.8c-0.3,0.4-0.7,0.6-1.1,0.6c-0.3,0-0.6-0.1-0.9-0.2
		c-0.2-0.1-0.4-0.3-0.9-0.6c-0.4-0.3-0.6-0.4-0.6-0.5c-0.2-0.1-0.4-0.2-0.7-0.2c-0.2,0-0.4,0.1-0.6,0.2c-0.2,0.1-0.3,0.3-0.4,0.5
		c-0.1,0.2-0.1,0.3-0.2,0.4l-0.4-0.2c0.2-0.4,0.3-0.6,0.5-0.8c0.3-0.4,0.7-0.6,1.1-0.6c0.3,0,0.6,0.1,1,0.3c0.3,0.2,0.5,0.4,0.8,0.5
		c0.4,0.2,0.6,0.4,0.6,0.4c0.2,0.1,0.4,0.2,0.6,0.2c0.4,0,0.7-0.3,1-0.8c0.1-0.1,0.1-0.2,0.2-0.4L167.7,32.9z"/>
</g>
<text transform="matrix(1 0 0 1 51.285 36.5398)" class="st7 st8 st9">〜エンタメ業界の人脈をあなたのものに〜</text>
<g>
	<path class="st2" d="M28.5,34.3c-0.3,0.6-0.5,1-0.8,1.4c-0.5,0.6-1.2,0.9-1.8,0.9c-0.5,0-1-0.1-1.4-0.4c-0.3-0.1-0.8-0.5-1.4-0.9
		c-0.5-0.4-0.9-0.6-1-0.8c-0.4-0.3-0.8-0.3-1-0.3s-0.6,0.1-0.9,0.4c-0.3,0.3-0.5,0.5-0.8,0.9C19.2,35.9,19,36,19,36.3L18.4,36
		c0.3-0.6,0.5-1,0.8-1.4c0.5-0.6,1.2-0.9,1.8-0.9c0.5,0,1,0.1,1.6,0.5c0.4,0.3,0.9,0.6,1.3,0.9c0.6,0.4,0.9,0.6,1,0.6
		c0.4,0.3,0.8,0.3,1,0.3c0.6,0,1.2-0.4,1.7-1.3c0.1-0.1,0.3-0.4,0.3-0.6L28.5,34.3z"/>
	<path class="st2" d="M38,39.4h-8.3v-0.9h3.6V32h-2.9v-0.8h6.7V32h-2.9v6.5H38C38,38.5,38,39.4,38,39.4z"/>
	<path class="st2" d="M46.8,34.2c-0.5,1.2-1.2,2.1-2.1,3c-0.9,0.9-1.7,1.4-2.6,1.8c-0.9,0.4-1.9,0.6-3.1,0.9L38.8,39
		c1-0.1,1.8-0.4,2.6-0.6s1.4-0.8,1.9-1.2c0.5-0.5,1-0.9,1.4-1.4c0.4-0.5,0.8-1.2,1.2-1.9L46.8,34.2z M43.2,32.7l-0.6,0.8
		c-1.2-0.9-2.3-1.6-3.4-2.2l0.5-0.8C40.7,31.2,42,31.8,43.2,32.7z"/>
	<path class="st2" d="M51.5,30c-0.1,0.4-0.3,0.8-0.4,1.2H55c0,0.4,0,0.9-0.1,1.4c-0.1,0.5-0.1,1.2-0.4,1.8c-0.3,0.6-0.4,1.3-0.6,1.8
		c-0.3,0.5-0.6,1.2-1,1.7s-0.9,0.9-1.4,1.3s-1.2,0.6-1.8,0.9l-0.3-0.8c1.6-0.5,2.6-1.4,3.4-2.7c0-0.1,0.1-0.1,0.1-0.3
		c-0.8-0.5-1.7-1-2.6-1.6l0.5-0.6c0.8,0.4,1.7,0.8,2.6,1.4c0.5-1,0.8-2.2,0.8-3.5h-3.1c0,0.1-0.1,0.1-0.1,0.3
		c-0.3,0.6-0.6,1.3-1.2,2.1c-0.5,0.8-1,1.3-1.6,1.7l-0.5-0.6c0.8-0.6,1.4-1.6,1.9-2.5c0.5-1,0.9-1.9,1-2.9L51.5,30z"/>
	<path class="st2" d="M63,30.3c-0.3,1.8-0.9,3.5-1.8,5.2c0.8,0.8,1.3,1.4,1.8,2.1l-0.8,0.8c-0.4-0.5-0.9-1.2-1.6-1.9
		c-1.2,1.7-2.6,2.9-4.3,3.5L56,39.1c1.6-0.6,3-1.8,4-3.5c-0.9-0.9-1.9-1.8-3-2.6l0.5-0.6c1,0.8,2.1,1.6,2.9,2.5
		c0.8-1.4,1.3-3,1.6-4.5H63z"/>
	<path class="st2" d="M64.2,40l-0.3-0.6c1.9-0.4,3.4-1,4.5-1.8h-4.3v-0.6h4.9V36h-4v-0.6h4v-1h-4.4v-0.8h2.5l-0.6-1.3h-2.3v-0.6h1.7
		l-0.6-1.4l0.8-0.3l0.8,1.7h1v-1.9h0.9v1.9h1.4v-1.9h0.9v1.9h1.2l0.8-1.7l0.8,0.3L73,31.7H75v0.5h-2.5l-0.6,1.3h2.7v0.6H70v1h4.3
		v0.6H70v0.9h5.1v0.6h-4.3c0.5,0.4,1.3,0.6,2.1,1c0.9,0.4,1.7,0.5,2.5,0.6L75,40c-1.9-0.4-3.6-1.2-4.9-2.2v2.5h-0.9v-2.3
		c-0.5,0.4-1.3,0.8-2.2,1.2S65.1,39.9,64.2,40z M67.6,32.2l0.6,1.3h2.9l0.6-1.3H67.6z"/>
	<path class="st2" d="M77.4,40.3L77,39.8c0.5-0.3,1-0.6,1.3-1s0.5-1,0.5-1.7v-0.9c-0.8,0.4-1.7,0.8-2.7,1.2l-0.3-0.6
		c0.9-0.3,1.7-0.6,2.6-1c0.9-0.4,1.4-0.8,1.8-1.2H77V30h9.2v4.4H83c1.2,0.9,2.7,1.6,4.5,2.1l-0.4,0.8c-0.9-0.3-1.8-0.6-2.7-1v4h-0.9
		v-4.2h0.9c-1-0.5-1.8-1.2-2.5-1.7h-0.6c-0.6,0.6-1.4,1.2-2.3,1.7h0.8v1c0,0.6-0.3,1.3-0.6,1.8C78.7,39.6,78.2,40,77.4,40.3z
		 M81.1,31.8v-1.2h-3.2v1.2H81.1z M81.1,33.8v-1.3h-3.2v1.3H81.1z M82,30.7v1.2h3.2v-1.2H82z M82,32.5v1.3h3.2v-1.3H82z"/>
	<path class="st2" d="M92.7,39.8L92.6,39c1-0.1,1.8-0.5,2.5-1s0.9-1.6,1-2.9c0-1-0.4-1.8-0.9-2.5c-0.6-0.6-1.3-0.9-2.3-0.9
		c0,2.1-0.3,3.9-0.6,5.2C91.7,38.3,91,39,90.1,39c-0.6,0-1.2-0.3-1.4-0.8c-0.3-0.5-0.5-1.3-0.5-2.1c0-1.3,0.4-2.6,1.3-3.6
		c0.9-1,1.9-1.6,3.4-1.6c1.2,0,2.1,0.4,2.9,1.2c0.8,0.8,1.2,1.7,1.2,3c0,1.4-0.4,2.6-1.2,3.4C94.8,39.1,93.9,39.6,92.7,39.8z
		 M92,31.7c-0.9,0.1-1.6,0.6-2.2,1.6c-0.5,0.8-0.9,1.8-0.9,2.9c0,0.5,0.1,1,0.3,1.4s0.4,0.5,0.8,0.5c0.5,0,1-0.5,1.4-1.8
		C91.7,35,92,33.5,92,31.7z"/>
	<path class="st2" d="M103.2,34.7c-0.3,1.3-0.9,2.3-1.8,3.2c-0.9,0.9-1.9,1.6-3.1,2.1l-0.4-0.6c1.6-0.6,2.7-1.7,3.5-2.9
		s1.2-2.3,1.2-3.6v-3.1h1V33c0.1,0.9,0.5,1.7,1,2.6s1.3,1.7,2.1,2.3c0.8,0.6,1.6,1,2.1,1.3l-0.5,0.8c-1.3-0.6-2.3-1.4-3.2-2.3
		C104.2,36.8,103.5,35.7,103.2,34.7z"/>
	<path class="st2" d="M112.5,36H111c-0.1,1.8-0.4,3.2-1,4.2l-0.6-0.4c0.3-0.6,0.5-1.3,0.6-2.3c0.1-0.9,0.3-1.8,0.3-2.6v-4.9h3v9.3
		c0,0.5-0.3,0.6-0.9,0.6h-0.9l-0.1-0.6h0.8c0.3,0,0.4-0.1,0.4-0.4C112.5,38.8,112.5,36,112.5,36z M111.2,35.3h1.4v-2.1h-1.3v1.3
		C111.2,35,111.2,35.2,111.2,35.3z M111.2,32.7h1.3v-2.1h-1.3V32.7z M116.3,40.1v-6.7c-0.4,0.1-0.8,0.1-1.2,0.1v1.3
		c0,0.9-0.1,1.9-0.3,2.9s-0.4,1.7-0.8,2.3l-0.6-0.4c0.3-0.5,0.5-1.2,0.6-2.1c0.1-0.9,0.3-1.6,0.3-2.1v-5.1c0.6,0,1.6-0.1,2.9-0.3
		c1.2-0.1,2.1-0.3,2.6-0.4l0.4,0.6c-0.5,0.1-1.3,0.3-2.3,0.4s-1.9,0.3-2.5,0.3v1.8c0.8-0.1,1.6-0.3,2.6-0.5c0.9-0.3,1.7-0.4,2.2-0.6
		l0.4,0.6c-0.3,0.1-0.8,0.3-1.3,0.4c0,1,0.1,1.8,0.1,2.3c0.5-0.4,0.9-0.8,1.2-1l0.5,0.5c-0.4,0.4-0.9,0.8-1.6,1.3
		c0.3,1.3,0.8,2.5,1.4,3.5l-0.6,0.6c-0.4-0.5-0.6-1.3-0.9-2.1c-0.3-0.8-0.5-1.6-0.6-2.3c-0.1-0.8-0.3-1.6-0.3-2.7
		c-0.3,0-0.5,0.1-0.9,0.1v6.9h-1.3V40.1z"/>
	<path class="st2" d="M127,37.9h-0.9v-1.8c0-0.1,0-0.4,0-0.5c-1.3,0.9-1.8,1.7-1.8,2.3c0,0.4,0.1,0.6,0.5,0.9
		c0.4,0.3,0.9,0.3,1.7,0.3c0.9,0,1.8-0.1,2.7-0.3v0.9c-0.9,0.1-1.7,0.1-2.3,0.1c-1.4,0-2.3-0.1-2.9-0.5c-0.5-0.4-0.8-0.8-0.8-1.4
		c0-0.5,0.3-1,0.6-1.7c0.4-0.5,1.2-1,1.9-1.7c-0.1-0.4-0.4-0.5-0.6-0.5c-0.5,0-0.9,0.1-1.2,0.3c-0.3,0.1-0.8,0.6-1.4,1.3l-0.8,0.8
		l-0.5-0.6c1.2-1.2,2.1-2.5,2.5-3.8h-2.1v-0.8h2.3c0.1-0.5,0.3-0.9,0.4-1.4l0.9,0.1c-0.1,0.4-0.3,0.9-0.4,1.3h3.2V32h-3.5
		c-0.3,0.5-0.5,1.2-0.9,1.8c0.3-0.1,0.5-0.3,0.8-0.4c0.3-0.1,0.5-0.1,0.8-0.1c0.8,0,1.2,0.3,1.4,0.9l2.5-1.3l0.4,0.8
		c-0.6,0.3-1.6,0.6-2.7,1.3c0,0.3,0,0.6,0,1v1.9H127z"/>
	<path class="st2" d="M130.9,32.2v-0.8h2.1c0-0.1,0-0.4,0-0.5s0-0.5,0-0.8h0.9c0,0.1,0,0.3,0,0.5c0,0.3,0,0.5,0,0.8h4.2v0.8h-4.2
		c0,0.1,0,0.3,0,0.4s0,0.3,0,0.4c0,0.1,0,0.3,0,0.3s0,0.3,0,0.4c0.3-0.1,0.5-0.1,0.8-0.1c0.3,0,0.5,0,0.8,0c0.4,0,0.9,0,1.2,0.1
		c0.4,0.1,0.8,0.3,1,0.4c0.3,0.1,0.6,0.3,0.8,0.5c0.3,0.3,0.4,0.4,0.6,0.6c0.1,0.3,0.3,0.5,0.4,0.8c0.1,0.3,0.1,0.5,0.1,0.8
		c0,0.5-0.1,0.9-0.3,1.3s-0.4,0.8-0.8,1c-0.4,0.3-0.6,0.5-1.2,0.6s-1,0.3-1.6,0.3h-0.1l-0.1-0.8c0.6,0,1-0.1,1.4-0.3
		c0.4-0.1,0.8-0.4,0.9-0.5c0.3-0.3,0.4-0.5,0.5-0.8s0.1-0.6,0.1-0.9s0-0.5-0.1-0.8c-0.1-0.3-0.3-0.5-0.5-0.6
		c-0.3-0.3-0.4-0.4-0.6-0.5s-0.5-0.3-0.8-0.3c-0.1,0.3-0.3,0.6-0.4,1s-0.3,0.8-0.5,1.2c-0.1,0.4-0.4,0.8-0.6,1
		c-0.3,0.4-0.5,0.6-0.8,0.9c-0.3,0.3-0.6,0.5-1,0.6c-0.4,0.1-0.8,0.3-1.2,0.3c-0.3,0-0.5,0-0.8-0.1c-0.3-0.1-0.4-0.3-0.5-0.4
		c-0.1-0.1-0.3-0.4-0.4-0.6c-0.1-0.3-0.1-0.4-0.1-0.6c0-0.4,0-0.8,0.1-1.2c0.1-0.4,0.3-0.6,0.5-1c0.3-0.4,0.5-0.6,0.8-0.8
		c0.3-0.3,0.6-0.5,1-0.6c0-0.1,0-0.4,0-0.5c0-0.1,0-0.3,0-0.4c0-0.1,0-0.3,0-0.5c0-0.1,0-0.3,0-0.4h-1.7V32.2z M131.3,37.7
		c0,0.1,0,0.3,0,0.4s0.1,0.3,0.1,0.4c0.1,0.1,0.1,0.3,0.3,0.3c0.1,0.1,0.3,0.1,0.5,0.1c0.1,0,0.4,0,0.5-0.1c0.1-0.1,0.4-0.1,0.5-0.3
		c-0.1-0.4-0.1-0.6-0.1-1s-0.1-0.6-0.1-0.9s0-0.5-0.1-0.8c0-0.3,0-0.5,0-0.8c-0.5,0.3-0.9,0.6-1.2,1.2
		C131.4,36.6,131.3,37,131.3,37.7z M135.3,34.3c-0.3,0-0.5,0-0.8,0.1c-0.3,0-0.5,0.1-0.8,0.3c0,0.5,0,1.2,0.1,1.7
		c0,0.5,0.1,1.2,0.3,1.7c0.1-0.1,0.3-0.3,0.4-0.5c0.1-0.1,0.3-0.4,0.4-0.5c0.1-0.1,0.3-0.4,0.4-0.6c0.1-0.3,0.3-0.4,0.3-0.6
		s0.1-0.4,0.3-0.6c0.1-0.3,0.1-0.4,0.1-0.6h-0.1h-0.1h-0.1C135.6,34.4,135.4,34.3,135.3,34.3z"/>
	<path class="st2" d="M143.7,30.2c0,0.6-0.1,1.2-0.1,1.7h2.2v0.8h-2.3c-0.4,2.3-1.2,4.3-2.5,6l-0.6-0.5c1.2-1.6,1.8-3.2,2.2-5.5
		h-1.8v-0.8h1.9c0.1-0.5,0.1-1.2,0.1-1.7L143.7,30.2z M149.4,38.2l-0.5,0.8c-0.5-0.5-1.2-0.9-1.7-1.2v0.5c0,1.2-0.8,1.7-2.2,1.7
		c-0.5,0-1-0.1-1.4-0.4c-0.4-0.3-0.6-0.6-0.6-1.2c0-0.5,0.3-1,0.6-1.3c0.4-0.4,0.9-0.5,1.6-0.5c0.5,0,0.9,0,1.3,0.1v-3.2h0.9v3.4
		C148,37.3,148.8,37.7,149.4,38.2z M146.5,37.4c-0.4-0.1-0.9-0.3-1.3-0.3c-0.4,0-0.6,0.1-0.9,0.3c-0.3,0.1-0.4,0.4-0.4,0.8
		c0,0.6,0.4,1,1.3,1c0.8,0,1.2-0.4,1.3-1V37.4z M149.7,33.4l-0.8,0.5c-0.6-0.9-1.6-1.9-2.6-2.9l0.5-0.5
		C147.8,31.3,148.7,32.2,149.7,33.4z"/>
	<path class="st2" d="M153.2,30c0,0.4,0,0.9,0,1.6h3.6v0.8h-3.6c0,1.3-0.3,2.6-0.5,3.9s-0.6,2.6-1.3,3.8l-0.8-0.4
		c0.5-0.9,0.9-2.1,1.2-3.6c0.3-1.4,0.5-2.7,0.5-3.6h-1.4v-0.8h1.4c0-0.5,0-1,0-1.6C152.3,30,153.2,30,153.2,30z M159,39.5
		c-0.4,0.1-1,0.1-1.8,0.1c-0.6,0-1.2,0-1.7-0.1c-0.5-0.1-0.9-0.3-1.2-0.5s-0.4-0.6-0.4-0.9c0-0.5,0.3-1,0.6-1.6l0.6,0.4
		c-0.3,0.4-0.4,0.8-0.4,1s0.1,0.4,0.4,0.6s0.8,0.3,1.7,0.3c0.8,0,1.4,0,2.1-0.1L159,39.5z M158.5,33.4v0.8c-0.1,0-0.4,0-0.5,0
		c-0.9,0-1.9,0.1-3.2,0.3v-0.8c1.2-0.1,2.2-0.3,3.1-0.3C158.1,33.4,158.4,33.4,158.5,33.4z"/>
	<path class="st2" d="M164.6,39.8l-0.1-0.8c1-0.1,1.8-0.5,2.5-1c0.6-0.5,0.9-1.6,1-2.9c0-1-0.4-1.8-0.9-2.5
		c-0.6-0.6-1.3-0.9-2.3-0.9c0,2.1-0.3,3.9-0.6,5.2c-0.5,1.4-1.2,2.1-2.1,2.1c-0.6,0-1.2-0.3-1.4-0.8c-0.3-0.5-0.5-1.3-0.5-2.1
		c0-1.3,0.4-2.6,1.3-3.6c0.9-1,1.9-1.6,3.4-1.6c1.2,0,2.1,0.4,2.9,1.2c0.8,0.8,1.2,1.7,1.2,3c0,1.4-0.4,2.6-1.2,3.4
		C166.8,39.1,165.8,39.6,164.6,39.8z M163.8,31.7c-0.9,0.1-1.6,0.6-2.2,1.6c-0.5,0.8-0.9,1.8-0.9,2.9c0,0.5,0.1,1,0.3,1.4
		s0.4,0.5,0.8,0.5c0.5,0,1-0.5,1.4-1.8C163.6,35.1,163.8,33.5,163.8,31.7z"/>
	<path class="st2" d="M175,35.5h-2.7c-0.1,1-0.3,1.8-0.3,2.2c0,1,0.6,1.6,1.9,1.6c1.8,0,2.9-0.5,2.9-1.7c0-0.9-0.1-1.7-0.5-2.5
		l0.8-0.3c0.5,0.9,0.6,1.9,0.6,2.9c0,1.6-1.3,2.5-3.8,2.5c-1.8,0-2.9-0.8-2.9-2.3c0-0.4,0-1.2,0.1-2.1h-1.7V35h1.8
		c0.1-0.5,0.1-1.2,0.4-2.1h-1.8v-0.8h1.9c0-0.4,0.1-0.9,0.4-1.7h0.9l-0.4,1.7h3.5v0.8h-3.6c-0.1,0.8-0.3,1.4-0.4,2.1h2.6v0.5H175z"
		/>
	<path class="st2" d="M183.6,39.8l-0.1-0.8c1-0.1,1.8-0.5,2.5-1c0.6-0.5,0.9-1.6,1-2.9c0-1-0.4-1.8-0.9-2.5
		c-0.6-0.6-1.3-0.9-2.3-0.9c0,2.1-0.3,3.9-0.6,5.2c-0.5,1.4-1.2,2.1-2.1,2.1c-0.6,0-1.2-0.3-1.4-0.8c-0.3-0.5-0.5-1.3-0.5-2.1
		c0-1.3,0.4-2.6,1.3-3.6c0.9-1,1.9-1.6,3.4-1.6c1.2,0,2.1,0.4,2.9,1.2c0.8,0.8,1.2,1.7,1.2,3c0,1.4-0.4,2.6-1.2,3.4
		C185.6,39.1,184.6,39.6,183.6,39.8z M182.7,31.7c-0.9,0.1-1.6,0.6-2.2,1.6c-0.5,0.8-0.9,1.8-0.9,2.9c0,0.5,0.1,1,0.3,1.4
		s0.4,0.5,0.8,0.5c0.5,0,1-0.5,1.4-1.8C182.5,35.1,182.7,33.5,182.7,31.7z"/>
	<path class="st2" d="M190.2,39.5l-0.8,0.1c-0.4-1.2-0.6-2.6-0.6-4c0-1.7,0.3-3.4,0.8-5.3l0.9,0.1c-0.5,1.8-0.8,3.5-0.8,5.2
		C189.7,37,189.9,38.3,190.2,39.5z M196.8,39.4c-0.6,0.1-1.3,0.1-1.9,0.1c-0.6,0-1.3,0-1.8-0.3c-0.5-0.1-0.9-0.4-1.2-0.6
		s-0.4-0.6-0.4-1.2c0-0.6,0.3-1.4,0.9-2.1l0.6,0.4c-0.5,0.5-0.8,1.2-0.8,1.8c0,0.3,0.1,0.5,0.4,0.8c0.3,0.1,0.6,0.3,0.9,0.4
		c0.4,0,0.8,0.1,1.4,0.1c0.6,0,1.3,0,1.8-0.1V39.4z M196.7,31.8c-0.5,0-1,0-1.6,0c-0.4,0-1.6,0-3.4,0.1c0-0.1,0-0.4,0-0.8
		c1.7-0.1,3-0.1,3.8-0.1c0.5,0,0.9,0,1.2,0L196.7,31.8z"/>
	<path class="st2" d="M208.6,34.3c-0.3,0.6-0.5,1-0.8,1.4c-0.5,0.6-1.2,0.9-1.8,0.9c-0.5,0-1-0.1-1.4-0.4c-0.3-0.1-0.8-0.5-1.4-0.9
		c-0.5-0.4-0.9-0.6-1-0.8c-0.4-0.3-0.8-0.3-1-0.3s-0.6,0.1-0.9,0.4s-0.5,0.5-0.8,0.9c-0.1,0.3-0.3,0.4-0.3,0.6l-0.6-0.3
		c0.3-0.6,0.5-1,0.8-1.4c0.5-0.6,1.2-0.9,1.8-0.9c0.5,0,1,0.1,1.6,0.5c0.4,0.3,0.9,0.6,1.3,0.9c0.6,0.4,0.9,0.6,1,0.6
		c0.4,0.3,0.8,0.3,1,0.3c0.6,0,1.2-0.4,1.7-1.3c0.1-0.1,0.3-0.4,0.3-0.6L208.6,34.3z"/>
</g>
</svg>
