<svg xmlns="http://www.w3.org/2000/svg" width="62.701" height="57.608" viewBox="0 0 62.701 57.608">
  <g id="グループ_711" data-name="グループ 711" transform="translate(1.5 1.5)">
    <circle id="楕円形_15" data-name="楕円形 15" cx="16.195" cy="16.195" r="16.195" transform="translate(27.312 22.218)" fill="none" stroke="#1c81d8" stroke-linecap="round" stroke-miterlimit="10" stroke-width="3"/>
    <path id="パス_135" data-name="パス 135" d="M541.268,1926.171a5.4,5.4,0,0,1-5.268-5.644v-1.883a5.281,5.281,0,1,1,10.537,0v1.883A5.4,5.4,0,0,1,541.268,1926.171Z" transform="translate(-512.292 -1913)" fill="none" stroke="#1c81d8" stroke-linecap="round" stroke-miterlimit="10" stroke-width="3"/>
    <path id="パス_136" data-name="パス 136" d="M512,2000.9v-2.634c0-3.61,5.939-5.268,9.22-5.268,2.793,0,7.515,1.18,8.855,3.76" transform="translate(-492.244 -1979.829)" fill="none" stroke="#1c81d8" stroke-linecap="round" stroke-miterlimit="10" stroke-width="3"/>
    <path id="パス_137" data-name="パス 137" d="M421.268,1998.171a5.4,5.4,0,0,1-5.268-5.644v-1.883a5.281,5.281,0,1,1,10.537,0v1.883A5.4,5.4,0,0,1,421.268,1998.171Z" transform="translate(-412.049 -1973.146)" fill="none" stroke="#1c81d8" stroke-linecap="round" stroke-miterlimit="10" stroke-width="3"/>
    <path id="パス_138" data-name="パス 138" d="M409.764,2068.291c-1.649-2.243-5.937-3.291-8.544-3.291-3.28,0-9.22,1.658-9.22,5.268v2.634" transform="translate(-392 -2039.975)" fill="none" stroke="#1c81d8" stroke-linecap="round" stroke-miterlimit="10" stroke-width="3"/>
    <path id="パス_139" data-name="パス 139" d="M461.268,2126.171a5.4,5.4,0,0,1-5.268-5.644v-1.882a5.281,5.281,0,1,1,10.537,0v1.882A5.4,5.4,0,0,1,461.268,2126.171Z" transform="translate(-445.463 -2080.072)" fill="none" stroke="#1c81d8" stroke-linecap="round" stroke-miterlimit="10" stroke-width="3"/>
    <path id="パス_140" data-name="パス 140" d="M432,2200.9v-2.635c0-3.61,5.939-5.268,9.22-5.268s9.22,1.627,9.22,5.237v2.666" transform="translate(-425.415 -2146.902)" fill="none" stroke="#1c81d8" stroke-linecap="round" stroke-miterlimit="10" stroke-width="3"/>
    <line id="線_3" data-name="線 3" y2="14.897" transform="translate(43.451 30.747)" fill="none" stroke="#1c81d8" stroke-linecap="round" stroke-miterlimit="10" stroke-width="3"/>
    <line id="線_4" data-name="線 4" x1="16.139" transform="translate(36.002 38.195)" fill="none" stroke="#1c81d8" stroke-linecap="round" stroke-miterlimit="10" stroke-width="3"/>
  </g>
</svg>
