<?xml version="1.0" encoding="utf-8"?>
<!-- Generator: Adobe Illustrator 25.2.3, SVG Export Plug-In . SVG Version: 6.00 Build 0)  -->
<svg version="1.1" id="svg7898" xmlns="http://www.w3.org/2000/svg" xmlns:xlink="http://www.w3.org/1999/xlink" x="0px" y="0px"
	 viewBox="0 0 32 32" style="enable-background:new 0 0 32 32;" xml:space="preserve">
<style type="text/css">
	.st0{fill:#06C755;}
	.st1{fill:#FFFFFF;}
</style>
<circle class="st0" cx="16" cy="16" r="16"/>
<g id="g7906" transform="matrix(1.25,0,0,-1.25,-424.5206,605.65166)">
	<g id="g7928">
		<g>
			<g id="g7930">
				<g id="g7962" transform="matrix(1.6639441,0,0,1.6639441,546.02809,375.00068)">
					<path id="path7964" class="st1" d="M-110.9,58.3c0,2.4-2.5,4.4-5.5,4.4s-5.5-2-5.5-4.4c0-2.2,1.9-4,4.6-4.4
						c0.2,0,0.4-0.1,0.5-0.3c0.1-0.1,0-0.4,0-0.5c0,0-0.1-0.4-0.1-0.5s-0.1-0.5,0.5-0.3s3.1,1.9,4.3,3.2l0,0
						C-111.3,56.4-110.9,57.3-110.9,58.3"/>
				</g>
				<g id="g7966" transform="matrix(1.6639441,0,0,1.6639441,441.5933,393.76931)">
					<path id="path7968" class="st0" d="M-54.7,48.2h-0.4c-0.1,0-0.1,0-0.1-0.1v-2.4c0-0.1,0-0.1,0.1-0.1h0.4c0.1,0,0.1,0,0.1,0.1
						L-54.7,48.2C-54.6,48.1-54.6,48.2-54.7,48.2"/>
				</g>
				<g id="g7970" transform="matrix(1.6639441,0,0,1.6639441,483.49956,393.76931)">
					<path id="path7972" class="st0" d="M-77.3,48.2h-0.4c-0.1,0-0.1,0-0.1-0.1v-1.4l-1.1,1.5l0,0l0,0l0,0l0,0l0,0l0,0l0,0l0,0l0,0
						l0,0l0,0l0,0l0,0l0,0l0,0l0,0l0,0l0,0l0,0h-0.4c-0.1,0-0.1,0-0.1-0.1v-2.4c0-0.1,0-0.1,0.1-0.1h0.4c0.1,0,0.1,0,0.1,0.1v1.4
						l1.1-1.5l0,0l0,0l0,0l0,0l0,0l0,0l0,0l0,0l0,0l0,0h0.4c0.1,0,0.1,0,0.1,0.1L-77.3,48.2C-77.1,48.1-77.2,48.2-77.3,48.2"/>
				</g>
				<g id="g7974" transform="matrix(1.6639441,0,0,1.6639441,426.91715,362.04388)">
					<path id="path7976" class="st0" d="M-46.8,65.2h-1v1.9c0,0.1,0,0.1-0.1,0.1h-0.4c-0.1,0-0.1,0-0.1-0.1v-2.4l0,0v-0.1l0,0l0,0
						c0,0,0,0,0.1,0l0,0h1.5c0.1,0,0.1,0,0.1,0.1L-46.8,65.2C-46.7,65.2-46.7,65.2-46.8,65.2"/>
				</g>
				<g id="g7978" transform="matrix(1.6639441,0,0,1.6639441,517.12172,384.29914)">
					<path id="path7980" class="st0" d="M-95.3,53.3C-95.2,53.3-95.2,53.3-95.3,53.3l0.1,0.5c0,0.1,0,0.1-0.1,0.1h-1.5l0,0h-0.1l0,0
						l0,0c0,0,0,0,0-0.1l0,0v-2.4l0,0v-0.1l0,0l0,0c0,0,0,0,0.1,0l0,0h1.5c0.1,0,0.1,0,0.1,0.1v0.4c0,0.1,0,0.1-0.1,0.1h-1v0.4h1
						c0.1,0,0.1,0,0.1,0.1v0.4c0,0.1,0,0.1-0.1,0.1h-1v0.4H-95.3z"/>
				</g>
			</g>
		</g>
	</g>
</g>
</svg>
