<?xml version="1.0" encoding="utf-8"?>
<!-- Generator: Adobe Illustrator 25.2.3, SVG Export Plug-In . SVG Version: 6.00 Build 0)  -->
<svg version="1.1" id="レイヤー_1" xmlns="http://www.w3.org/2000/svg" xmlns:xlink="http://www.w3.org/1999/xlink" x="0px"
	 y="0px" viewBox="0 0 32 32" style="enable-background:new 0 0 32 32;" xml:space="preserve">
<style type="text/css">
	.st0{fill:#2DAAE1;}
	.st1{fill:#FFFFFF;}
</style>
<circle class="st0" cx="16" cy="16" r="16"/>
<path class="st1" d="M26.3,9.6c-0.8,0.3-1.6,0.6-2.4,0.7C24.7,9.8,25.4,9,25.7,8C24.9,8.5,24,8.8,23,9c-0.8-0.8-1.9-1.3-3.1-1.3
	c-2.3,0-4.2,1.9-4.2,4.2c0,0.3,0,0.7,0.1,1c-3.5-0.2-6.6-1.9-8.7-4.4c-0.4,0.6-0.6,1.3-0.6,2.1c0,1.5,0.7,2.7,1.9,3.5
	c-0.7,0-1.3-0.2-1.9-0.5v0.1c0,2,1.5,3.7,3.4,4.1c-0.4,0.1-0.7,0.1-1.1,0.1c-0.3,0-0.5,0-0.8-0.1c0.5,1.7,2.1,2.9,3.9,2.9
	c-1.4,1.1-3.3,1.8-5.2,1.8c-0.3,0-0.7,0-1-0.1c1.9,1.2,4.1,1.9,6.5,1.9c7.7,0,12-6.4,12-12c0-0.2,0-0.4,0-0.5
	C25,11.2,25.7,10.5,26.3,9.6L26.3,9.6z"/>
</svg>
