<?xml version="1.0" encoding="utf-8"?>
<!-- Generator: Adobe Illustrator 18.0.0, SVG Export Plug-In . SVG Version: 6.00 Build 0)  -->
<!DOCTYPE svg PUBLIC "-//W3C//DTD SVG 1.1//EN" "http://www.w3.org/Graphics/SVG/1.1/DTD/svg11.dtd">
<svg version="1.1" id="レイヤー_1" xmlns="http://www.w3.org/2000/svg" xmlns:xlink="http://www.w3.org/1999/xlink" x="0px"
	 y="0px" viewBox="4.8 786.8 1429.3 426.4" enable-background="new 4.8 786.8 1429.3 426.4" xml:space="preserve">
<g>
	<g>
		<path fill="#1BA5D4" stroke="#FFFFFF" stroke-miterlimit="10" d="M19.1,1212.7h1400.7c7.4,0,13.8-6.4,13.8-13.8V801.1
			c0-7.4-6.4-13.8-13.8-13.8H19.1c-7.4,0-13.8,6.4-13.8,13.8v396.7C5.3,1206.3,11.7,1212.7,19.1,1212.7z"/>
	</g>
	<g enable-background="new    ">
		<path fill="#FFFFFF" d="M656.3,1068.7V949.5h-23.1V931h70.5v18.5h-22.4v119.2H656.3z"/>
		<path fill="#FFFFFF" d="M734.3,1068.7l-15.1-98.4h19.2l8.5,63.7l10.5-63.7h17l9.9,64.1l9.1-64.1h18.4l-15.6,98.4h-19.7l-10.8-61.6
			l-11.3,61.6H734.3z"/>
		<path fill="#FFFFFF" d="M836.3,954.8v-19.6h23.3v19.6H836.3z M836.3,1068.7v-98.4h23.3v98.4H836.3z"/>
		<path fill="#FFFFFF" d="M915.8,1070.1c-4.5-0.1-8.3-0.8-11.4-2.2c-3.1-1.4-5.5-3.5-7.2-6.2c-1.7-2.7-2.9-5.7-3.7-9
			s-1.1-7.2-1.1-11.6v-55.3h-9.7v-15.4h9.7v-28.9h23.3v28.9h15v15.4h-15v56.7c0,3.2,0.7,5.5,2.1,6.9c1.4,1.4,3.7,2.1,6.8,2.2
			c2.2,0.1,4.5-0.1,7.1-0.5v17.8C925.1,1069.8,919.8,1070.2,915.8,1070.1z"/>
		<path fill="#FFFFFF" d="M982.8,1070.1c-4.5-0.1-8.3-0.8-11.4-2.2c-3.1-1.4-5.5-3.5-7.2-6.2c-1.7-2.7-2.9-5.7-3.7-9
			s-1.1-7.2-1.1-11.6v-55.3h-9.7v-15.4h9.7v-28.9h23.3v28.9h15v15.4h-15v56.7c0,3.2,0.7,5.5,2.1,6.9c1.4,1.4,3.7,2.1,6.8,2.2
			c2.2,0.1,4.5-0.1,7.1-0.5v17.8C992.1,1069.8,986.8,1070.2,982.8,1070.1z"/>
		<path fill="#FFFFFF" d="M1052.3,1070.3c-11.2,0-19.3-3.1-24.3-9.3c-4.9-6.2-7.4-15.4-7.4-27.5v-27.8c0-12.1,2.5-21.3,7.5-27.5
			c5-6.2,13-9.3,24.1-9.3c5.9,0,10.8,0.9,14.8,2.6c4,1.7,7.1,4.3,9.4,7.8s3.8,7.5,4.8,12.1c0.9,4.6,1.4,10.1,1.4,16.5v12.9h-38.9
			v14.8c0,2,0,3.6,0,4.8c0,1.1,0.1,2.5,0.3,4.1c0.2,1.6,0.4,2.9,0.8,3.7c0.4,0.9,0.8,1.8,1.5,2.7c0.6,0.9,1.4,1.6,2.4,2
			c1,0.4,2.2,0.6,3.5,0.6c3.1,0,5.3-1.1,6.5-3.3c1.2-2.2,1.8-5.4,1.8-9.5v-5.6h22v3.9c0,10.2-2.5,18-7.6,23.4
			C1069.9,1067.6,1062.3,1070.3,1052.3,1070.3z M1043.7,1009.1h16.8v-9.4c0-5-0.6-8.6-1.9-10.7c-1.2-2.2-3.4-3.2-6.6-3.2
			c-3.2,0-5.4,1.2-6.6,3.7c-1.2,2.4-1.7,6.9-1.7,13.3V1009.1z"/>
		<path fill="#FFFFFF" d="M1109.4,1068.7v-98.4h23.3v15.1c3.3-5.8,6.6-10,9.9-12.5c3.4-2.5,6.9-3.8,10.8-3.8c1.2,0,2.3,0.1,3.5,0.4
			v23c-2.6-1-5.3-1.5-8.1-1.5c-3.3,0.1-6.2,0.9-8.8,2.5c-2.5,1.6-5,4.1-7.4,7.7v67.5H1109.4z"/>
	</g>
	<path fill="#FFFFFF" d="M280.8,1038.3c-21.3-1.1-35.1-16-39.4-28.7c6.4,1.1,11.7,1.1,18.1,0c0,0,0,0,1.1,0
		c-11.7-3.2-21.3-9.6-27.7-19.1c-4.3-6.4-6.4-13.8-6.4-22.3c6.4,3.2,11.7,5.3,19.1,5.3c-8.5-6.4-14.9-14.9-17-25.5
		c-2.1-10.6-1.1-21.3,4.3-30.8c22.3,26.6,51,41.5,86.1,43.6c0-2.1,0-3.2-1.1-4.3c-1.1-9.6,1.1-19.1,6.4-27.7
		c6.4-10.6,16-17,28.7-19.1c13.8-2.1,26.6,2.1,36.2,11.7c1.1,1.1,1.1,1.1,2.1,1.1c8.5-2.1,17-5.3,24.5-9.6c0,0,0,0,1.1,0l0,0
		c-3.2,9.6-9.6,17-18.1,22.3c8.5-1.1,16-3.2,23.4-6.4l0,0c-2.1,2.1-3.2,4.3-5.3,6.4c-4.3,5.3-9.6,10.6-14.9,14.9l-1.1,1.1
		c0,6.4,0,12.8-1.1,18.1c-2.1,12.8-5.3,25.5-10.6,37.2c-5.3,12.8-12.8,23.4-22.3,33c-16,17-35.1,26.6-57.4,31.9
		c-7.4,2.1-16,2.1-23.4,3.2c-24.5,1.1-46.8-5.3-67-18.1c0,0,0,0-1.1-1.1c14.9,1.1,28.7,0,41.5-5.3
		C268,1047.9,274.4,1043.6,280.8,1038.3z"/>
</g>
</svg>
