<svg xmlns="http://www.w3.org/2000/svg" width="157.225" height="22.573" viewBox="0 0 157.225 22.573">
  <g id="グループ_709" data-name="グループ 709" transform="translate(-137.586 -299.996)">
    <path id="中マド_4" data-name="中マド 4" d="M-3299.985,301.615a10.636,10.636,0,0,1-3.147-.524,10.876,10.876,0,0,0,1.463.363,17.422,17.422,0,0,0-1.241-2.854c-1.057-1.926-2.348-2.788-3.159-2.788a.735.735,0,0,0-.721.432c-.271.615.078,1.971,1.868,3.933.1.109.183.2.26.274l-.066-.031-.009,0a10.757,10.757,0,0,1-3.674-3.153,2.6,2.6,0,0,1,1.048-2.312,3.4,3.4,0,0,1,2.1-.689,4.732,4.732,0,0,1,2.068.5v0a5.23,5.23,0,0,1,.585-1.258,3.779,3.779,0,0,0,1.159.865,7.443,7.443,0,0,0,.061,3.114,27.846,27.846,0,0,0,1.149,4.125l.26.008Zm.584-.009h0c.54-1.518,1.739-5.263,1.208-7.237a3.776,3.776,0,0,0,1.16-.865h0c-.038-.061-.081-.125-.13-.195a3.183,3.183,0,0,0-2.66-1.457,3.231,3.231,0,0,0-2.66,1.457c-.042.058-.083.119-.131.194a3.759,3.759,0,0,1-.984-2.537,3.766,3.766,0,0,1,.982-2.54,5.136,5.136,0,0,1-.584-1.259l0,0a4.79,4.79,0,0,1-2.063.5,3.4,3.4,0,0,1-2.1-.689,2.6,2.6,0,0,1-1.048-2.312,10.734,10.734,0,0,1,3.751-3.192c-.1.1-.175.181-.262.276-1.791,1.963-2.138,3.319-1.867,3.934a.734.734,0,0,0,.721.432c.811,0,2.1-.862,3.158-2.788a17.5,17.5,0,0,0,1.241-2.855,10.667,10.667,0,0,1,1.424-.151,27.5,27.5,0,0,0-1.149,4.125,7.435,7.435,0,0,0-.061,3.112,3.773,3.773,0,0,0-1.16.865c.034.055.076.118.132.2a3.183,3.183,0,0,0,2.66,1.457,3.233,3.233,0,0,0,2.66-1.457c.05-.07.093-.134.132-.2a3.768,3.768,0,0,0-1.162-.866c.531-1.979-.669-5.72-1.209-7.236l-.167-.005a10.59,10.59,0,0,1,1.591.156,17.662,17.662,0,0,0,1.241,2.855c1.057,1.926,2.348,2.788,3.159,2.788a.736.736,0,0,0,.721-.432c.271-.615-.076-1.972-1.866-3.934-.083-.091-.167-.178-.245-.259l-.008-.007-.009-.01a10.74,10.74,0,0,1,3.751,3.192,2.6,2.6,0,0,1-1.048,2.312,3.4,3.4,0,0,1-2.1.689,4.768,4.768,0,0,1-2.067-.5.017.017,0,0,1,0,0,5.225,5.225,0,0,1-.584,1.255,3.775,3.775,0,0,1,.982,2.541,3.764,3.764,0,0,1-.983,2.538h0a5.1,5.1,0,0,1,.585,1.262l0,0a4.821,4.821,0,0,1,2.063-.5,3.4,3.4,0,0,1,2.1.689,2.6,2.6,0,0,1,1.048,2.312,10.749,10.749,0,0,1-3.675,3.153l-.042.022-.031.016.092-.1.015-.016.151-.162c1.789-1.962,2.137-3.318,1.866-3.933a.735.735,0,0,0-.721-.432c-.811,0-2.1.862-3.159,2.788a17.532,17.532,0,0,0-1.241,2.854,10.689,10.689,0,0,0,1.594-.408,10.5,10.5,0,0,1-3.015.56Zm-.422-6.868a3.734,3.734,0,0,1-1.633-.372,2.171,2.171,0,0,1,.308-.685,1.523,1.523,0,0,1,1.325-.629,1.523,1.523,0,0,1,1.325.629,2.153,2.153,0,0,1,.306.686A3.732,3.732,0,0,1-3299.823,294.738Zm0-5.865a1.523,1.523,0,0,1-1.325-.63,2.168,2.168,0,0,1-.308-.686,3.742,3.742,0,0,1,1.633-.37,3.733,3.733,0,0,1,1.631.37,2.141,2.141,0,0,1-.306.686A1.52,1.52,0,0,1-3299.823,288.873Z" transform="translate(3448.059 20.352)" fill="#fff" stroke="rgba(0,0,0,0)" stroke-miterlimit="10" stroke-width="1"/>
    <path id="パス_9" data-name="パス 9" d="M148.236,300.664a10.651,10.651,0,1,0,10.651,10.651A10.651,10.651,0,0,0,148.236,300.664Zm0,20.365a9.715,9.715,0,1,1,9.715-9.715A9.726,9.726,0,0,1,148.236,321.029Z" fill="#fff"/>
    <path id="パス_10" data-name="パス 10" d="M289.04,333.754h-5.353v-.329h1.128v-9a5.367,5.367,0,0,1,1.968-4.632,8.643,8.643,0,0,1,5.38-1.734,7.434,7.434,0,0,1,5.432,2.02l-.341.2a6.985,6.985,0,0,0-4.855-1.822c-3.333,0-3.359,2.7-3.359,5.225v1.778h5.511l-.027.395H289.04Z" transform="translate(-120.228 -14.314)" fill="#fff"/>
    <path id="パス_11" data-name="パス 11" d="M463.368,350.53a1.987,1.987,0,0,1-1.968,1.032h-.315c-2.256,0-3.332-.768-3.332-2.612v-6.3c0-1.141-.1-2.92-1.811-2.92A3.149,3.149,0,0,0,452.688,343v7.991h1.129v.307H448.1v-.307h1.128V340.037H448.1v-.329h4.592v1.58a3.533,3.533,0,0,1,3.254-1.91c4.093,0,5.3,2.283,5.3,4.632v6.542a.669.669,0,0,0,.735.615,1.041,1.041,0,0,0,.945-.637Z" transform="translate(-255.52 -31.858)" fill="#fff"/>
    <path id="パス_12" data-name="パス 12" d="M720.085,330.333a1.988,1.988,0,0,1-1.968,1.032H717.8c-2.256,0-3.332-.768-3.332-2.612v-8.847h-1.653v-.4h1.653v-3.425a10.421,10.421,0,0,0,3.49-1.252v4.676h2.755l-.026.4h-2.729v10.45a.668.668,0,0,0,.735.615,1.041,1.041,0,0,0,.945-.637Z" transform="translate(-473.359 -11.661)" fill="#fff"/>
    <path id="パス_13" data-name="パス 13" d="M775.268,352.04a.669.669,0,0,0,.735.615,1.04,1.04,0,0,0,.945-.637h.446a1.987,1.987,0,0,1-1.968,1.032h-.315c-2.256,0-3.175-.878-3.306-1.91a3.531,3.531,0,0,1-3.254,1.91c-4.094,0-5.3-2.283-5.3-4.632v-6.849h-1.129v-.329h4.592v8.474c0,1.142.106,2.986,1.837,2.986a3.149,3.149,0,0,0,3.254-3.271v-7.881h-1.129v-.307h4.592Z" transform="translate(-513.932 -33.389)" fill="#fff"/>
    <path id="パス_14" data-name="パス 14" d="M858.852,351.2h-5.721v-.329h1.128V339.935h-1.128v-.329h4.593v2.854c.525-1.317,2.125-3.205,3.962-3.205,1.443,0,2.021.681,2.021,1.273A1.569,1.569,0,0,1,862,342.306c-.682,0-1.5-.417-1.5-.988,0-.351.21-.549.21-.812,0-.132-.131-.176-.21-.176-1.364,0-2.046,1.6-2.23,1.888h.026a5.766,5.766,0,0,0-.577,2.591v6.059h1.128Z" transform="translate(-588.825 -31.756)" fill="#fff"/>
    <path id="パス_15" data-name="パス 15" d="M935.164,350.53a1.987,1.987,0,0,1-1.968,1.032h-.315c-2.256,0-3.332-.768-3.332-2.612v-6.3c0-1.141-.1-2.92-1.811-2.92A3.149,3.149,0,0,0,924.484,343v7.991h1.129v.307h-5.72v-.307h1.128V340.037h-1.128v-.329h4.591v1.58a3.533,3.533,0,0,1,3.254-1.91c4.094,0,5.3,2.283,5.3,4.632v6.542a.669.669,0,0,0,.735.615,1.041,1.041,0,0,0,.945-.637Z" transform="translate(-643.763 -31.858)" fill="#fff"/>
    <path id="パス_16" data-name="パス 16" d="M372.674,350.53a1.041,1.041,0,0,1-.945.637.668.668,0,0,1-.735-.615v-5.027c0-3.864-2.6-6.147-6.482-6.147-4.855,0-6.56,3.4-6.56,6.1,0,3.688,2.44,6.1,6.3,6.1a3.6,3.6,0,0,0,3.28-1.69c.237.724.84,1.668,3.438,1.668h.131a2.077,2.077,0,0,0,2.021-1.032Zm-7.241-1.141a3.255,3.255,0,1,1,3.255-3.255A3.256,3.256,0,0,1,365.432,349.389Z" transform="translate(-181.341 -31.858)" fill="#fff"/>
    <path id="パス_17" data-name="パス 17" d="M555.636,324.239c0-3.337-3.517-5.686-7.689-5.686h-.367c-5.091,0-7.741,2.942-7.741,6.739v8.54H538.71v.329h5.275v-4.786c0-.373.027-.417.551.307l3.385,4.478h5.248v-.329H552.2c-.21,0-.341-.066-.551-.329-.262-.329-2.231-2.7-2.7-3.337C554.4,330.079,555.636,326.457,555.636,324.239Zm-7.926,4.576a3.743,3.743,0,1,1,3.743-3.743A3.742,3.742,0,0,1,547.71,328.815Z" transform="translate(-330.087 -14.722)" fill="#fff"/>
    <path id="パス_18" data-name="パス 18" d="M649.161,351.123c-1.751,0-2.922-1.2-3.057-3.5a5.428,5.428,0,0,0,3.069.924c2.732,0,4.947-1.915,4.947-4.277,0-3.117-2.046-4.9-5.9-4.9-2.414,0-4.461.725-5.354,2.173a5.554,5.554,0,0,0-.682,2.92v1.822c0,3.666,2.178,5.2,6.377,5.2,3.149,0,4.382-1.01,5.274-2.766l-.42-.154A4.161,4.161,0,0,1,649.161,351.123Zm-1.046-8.973a2.025,2.025,0,1,1-2.024,2.025A2.025,2.025,0,0,1,648.115,342.15Z" transform="translate(-415.233 -31.858)" fill="#fff"/>
    <g id="グループ_3" data-name="グループ 3" transform="translate(292.399 317.274)">
      <path id="パス_20" data-name="パス 20" d="M1012.972,394.453a1.231,1.231,0,1,1-1.211,1.227A1.209,1.209,0,0,1,1012.972,394.453Zm0,2.252a1.023,1.023,0,1,0-.966-1.018A.987.987,0,0,0,1012.969,396.7Zm.542-.4a.873.873,0,0,1-.483.126.683.683,0,0,1-.725-.721.729.729,0,0,1,.766-.743.79.79,0,0,1,.432.108l-.055.2a.775.775,0,0,0-.373-.091.475.475,0,0,0-.511.512.484.484,0,0,0,.5.513.765.765,0,0,0,.39-.1Z" transform="translate(-1011.761 -394.453)" fill="#f7fdff"/>
    </g>
  </g>
</svg>
